<!DOCTYPE svg PUBLIC "-//W3C//DTD SVG 20010904//EN" "http://www.w3.org/TR/2001/REC-SVG-20010904/DTD/svg10.dtd">
<svg version="1.0" xmlns="http://www.w3.org/2000/svg" width="258px" height="312px" viewBox="0 0 2580 3120" preserveAspectRatio="xMidYMid meet">
<g id="layer101" fill="#060606" stroke="none">
<path d="M0 1560 l0 -1560 1290 0 1290 0 0 1560 0 1560 -1290 0 -1290 0 0 -1560z"/>
</g>
<g id="layer102" fill="#ababab" stroke="none">
<path d="M0 1560 l0 -1560 493 0 492 1 -25 14 -25 14 -64 1 -64 0 -33 21 c-19 11 -34 27 -34 35 0 17 12 18 27 3 l12 -12 83 5 84 4 45 30 44 30 -3 40 c-2 21 -10 50 -19 63 l-15 23 12 12 11 11 24 -28 c28 -32 49 -99 40 -128 -9 -26 -41 -56 -90 -82 l-40 -21 16 -3 c9 -2 62 10 119 26 l102 30 55 36 55 37 -6 41 c-15 90 -87 148 -240 191 l-88 26 -53 0 c-28 0 -77 -9 -108 -19 l-57 -20 0 13 c0 16 85 46 152 53 l54 5 83 -21 c105 -27 184 -61 229 -96 l34 -28 24 -51 c13 -28 24 -65 24 -82 l0 -30 -27 -26 c-16 -14 -51 -40 -80 -58 l-52 -31 -73 -14 -73 -13 768 -1 767 -1 0 1054 0 1054 -16 6 c-9 3 -24 6 -35 6 l-19 0 -10 -24 -9 -25 -38 -10 c-21 -6 -57 -11 -81 -11 l-43 0 -59 30 c-33 17 -61 30 -64 30 -2 0 -6 -10 -9 -21 l-6 -22 -58 7 -58 6 -42 30 c-24 16 -43 25 -43 20 0 -6 -11 -10 -25 -10 -29 0 -28 4 -50 -115 l-16 -90 48 -40 c89 -74 169 -160 208 -225 l40 -65 1 -45 c1 -25 6 -57 12 -72 6 -15 14 -56 18 -90 l6 -63 -22 -28 c-12 -15 -45 -40 -73 -54 l-52 -27 -68 1 -68 0 -82 57 c-45 31 -100 71 -121 89 l-39 34 6 16 6 17 28 2 c45 3 55 2 101 -5 l43 -7 -23 42 c-29 53 -46 67 -80 68 -48 0 -71 -16 -193 -138 -66 -65 -140 -132 -165 -147 -25 -15 -46 -29 -48 -30 -2 -2 32 -37 75 -78 43 -42 101 -107 127 -146 l49 -71 -6 -92 -6 -93 -52 -102 -53 -103 -89 -107 c-49 -60 -96 -109 -103 -111 l-14 -3 0 15 c0 15 63 102 130 182 15 17 47 69 73 116 l46 84 10 65 c6 35 11 79 11 97 l0 33 -32 47 c-61 89 -223 242 -256 242 -5 0 -52 20 -106 44 l-96 43 -43 -8 -42 -7 -18 15 -17 16 -54 -12 c-91 -20 -290 -108 -335 -147 -2 -2 3 -12 12 -22 18 -20 23 -52 8 -52 -5 0 -16 12 -26 26 l-16 26 -14 -5 c-7 -3 -23 5 -35 18 -13 14 -42 32 -66 41 l-43 16 -59 -4 -60 -4 -26 -17 -26 -17 20 -52 c21 -56 51 -92 92 -114 l27 -14 16 30 16 30 19 -10 c11 -6 20 -15 20 -20 0 -6 10 -10 23 -10 13 0 51 -11 85 -25 34 -14 70 -25 81 -25 10 0 29 -8 41 -18 l22 -18 -15 -12 -15 -13 -49 12 c-26 7 -66 20 -88 29 l-40 17 -37 -5 c-21 -2 -38 -7 -38 -11 0 -4 32 -23 71 -42 l72 -34 44 -50 45 -49 -11 -4 c-6 -2 -26 6 -44 17 -46 30 -177 94 -182 90 -2 -3 -1 -24 2 -47 l6 -44 41 -25 c52 -32 106 -83 106 -100 0 -21 -29 -15 -66 13 -19 15 -37 24 -41 21 -13 -14 9 -38 62 -68 l56 -31 -4 -12 -4 -11 -32 3 -31 2 25 -40 c29 -46 30 -50 10 -50 l-15 0 -41 63 -40 62 -57 32 -57 32 -52 1 -53 0 0 15 0 14 38 10 c51 15 57 14 103 -10 l41 -20 -7 23 c-4 13 -18 33 -31 46 l-25 22 -30 0 -29 0 0 19 c0 21 19 31 56 31 l24 0 0 35 0 35 -45 0 -45 0 0 -15 c0 -8 -4 -15 -10 -15 -5 0 -10 11 -10 24 l0 25 22 15 c12 9 33 16 45 16 33 0 28 13 -13 35 -47 25 -79 68 -104 139 l-20 58 11 19 c5 10 29 29 52 41 l42 23 75 0 76 0 53 -28 54 -27 46 29 c63 40 212 111 233 111 27 0 30 16 14 72 l-14 53 -8 340 c-9 434 -9 439 -4 570 3 61 1 154 -3 208 l-8 99 -20 53 c-11 29 -29 65 -39 78 -27 34 -26 35 18 42 20 4 46 10 58 15 l21 8 7 86 c3 48 3 111 0 141 l-7 55 -418 0 -419 0 0 -1560z m1184 -434 c24 -33 33 -56 20 -56 -3 0 -21 12 -40 27 l-35 26 -27 -9 c-26 -9 -42 -32 -56 -81 l-7 -21 48 14 c117 35 255 2 332 -80 l24 -26 -15 0 c-9 0 -46 16 -83 36 l-67 36 -83 6 -84 5 -52 -17 -52 -17 -8 13 c-9 14 -4 41 20 108 l16 45 25 12 c14 7 41 13 61 13 l37 0 26 -34z m-540 -131 c33 -17 62 -37 64 -44 l5 -14 -34 7 c-46 9 -139 56 -139 71 0 30 12 28 104 -20z m366 -278 l25 -52 58 -20 c31 -11 56 -24 54 -30 -6 -17 -48 -17 -93 0 l-43 16 -20 32 c-17 29 -25 61 -22 95 2 25 17 11 41 -41z m313 -136 l4 -18 39 -6 c22 -4 50 -4 63 0 l24 6 -5 -14 c-3 -8 -16 -18 -31 -23 l-26 -9 -40 12 -41 12 -10 20 c-11 19 -6 39 9 39 5 0 11 -8 14 -19z m-963 -78 c2 -90 136 -273 200 -273 l12 0 -30 34 c-45 52 -54 116 -16 116 8 0 12 -4 9 -10 -15 -24 75 -130 110 -130 8 0 15 -4 15 -9 0 -6 19 -13 43 -16 l44 -7 66 17 c37 9 75 15 84 13 l18 -4 -52 -27 -52 -27 -55 -6 -56 -7 -42 16 c-24 9 -62 16 -84 15 l-42 -2 -40 27 -41 27 -41 60 c-53 78 -70 119 -70 170 l0 40 10 0 c6 0 10 -8 10 -17z"/>
<path d="M890 2989 l0 -131 88 7 c48 3 105 11 127 16 22 4 58 9 81 9 l41 0 6 -83 c4 -45 14 -107 24 -137 l17 -55 8 85 c4 47 12 95 18 108 5 13 10 37 10 55 l0 32 53 13 c79 18 122 15 236 -18 57 -16 108 -27 113 -24 4 3 22 -1 38 -10 l30 -14 1 16 c0 9 2 72 5 140 l5 122 -451 0 -450 0 0 -131z"/>
<path d="M1353 2863 l-23 -4 -1 -92 c-1 -51 0 -124 1 -163 l2 -71 -17 -6 -16 -7 -30 48 c-40 63 -59 132 -59 212 0 37 -2 69 -5 72 -5 5 -84 -4 -210 -23 -38 -6 -84 -17 -101 -25 -17 -9 -35 -14 -40 -13 -16 3 -39 -1 -52 -9 l-12 -8 25 -72 25 -72 0 -54 c0 -30 6 -67 12 -83 l13 -28 1 -220 c4 -433 13 -917 18 -922 11 -12 64 26 104 77 93 115 204 220 232 220 l18 0 7 -67 c4 -38 12 -73 17 -80 l9 -12 92 -1 c131 -2 170 -5 183 -12 l11 -7 60 49 c33 26 73 70 90 97 45 71 129 236 137 268 l7 27 -13 15 -12 15 16 12 c18 13 33 64 42 142 l6 51 -58 -8 c-125 -17 -374 -124 -487 -209 -88 -65 -225 -215 -281 -307 -15 -24 -28 -11 -20 21 7 29 98 145 179 228 116 119 248 195 470 272 l106 37 78 2 78 2 0 25 c0 53 -17 380 -20 380 -2 0 -46 -9 -98 -19 l-95 -19 -84 -39 c-107 -51 -217 -135 -345 -265 -118 -118 -178 -196 -281 -366 -40 -67 -80 -126 -88 -133 -8 -6 -14 -18 -14 -25 0 -8 -7 -14 -15 -14 -24 0 -18 26 18 83 19 28 60 97 92 152 80 136 169 250 295 375 122 123 204 183 321 240 l85 40 64 12 c36 6 69 15 74 19 l9 8 -13 76 -13 75 -22 0 c-12 0 -30 9 -40 20 -10 11 -26 20 -36 20 -10 0 -20 4 -23 9 -4 5 -29 12 -58 16 -28 4 -81 16 -117 26 l-66 19 -55 -1 c-30 -1 -65 -4 -77 -6z"/>
<path d="M2531 2220 l-44 -38 7 -17 6 -17 16 6 c9 3 24 6 34 6 l19 0 7 45 c3 25 5 48 3 49 -2 2 -24 -13 -48 -34z"/>
<path d="M1883 1833 c-28 -83 -68 -172 -93 -208 -16 -24 -30 -47 -30 -52 0 -4 18 -9 39 -9 l39 -2 21 -21 c12 -12 26 -21 32 -21 16 0 55 52 51 68 l-3 13 38 -2 c55 -2 103 -18 141 -46 18 -14 36 -23 39 -20 3 3 -8 32 -23 64 l-29 58 -96 98 c-52 53 -101 97 -108 97 -6 0 -14 -8 -18 -17z"/>
<path d="M1086 1449 c-60 -66 -107 -122 -105 -124 2 -2 16 -6 32 -10 l27 -7 0 11 c0 12 43 33 145 71 33 13 62 24 63 26 2 1 -6 12 -17 23 l-21 21 0 43 c0 23 -4 48 -8 54 l-8 13 -108 -121z"/>
<path d="M1980 1531 l-35 -6 48 -18 47 -19 0 -19 0 -19 -28 0 c-15 0 -37 7 -48 14 l-21 15 -21 -6 c-26 -6 -26 -6 -10 -50 7 -18 18 -33 24 -33 7 0 26 -11 41 -24 l28 -25 -12 -12 -12 -12 -14 12 c-19 15 -151 61 -178 61 -11 0 -19 -4 -17 -9 6 -15 140 -121 175 -138 l33 -15 55 4 54 5 45 24 c25 13 49 31 52 39 12 28 13 84 2 103 -17 33 -90 108 -119 123 -30 15 -33 15 -89 5z"/>
</g>
<g id="layer103" fill="#fdfdfd" stroke="none">
<path d="M0 1560 l0 -1560 493 0 492 1 -25 14 -25 13 -63 1 -63 0 -35 21 c-19 12 -34 28 -34 36 0 17 12 18 27 3 l12 -12 83 5 84 4 45 30 44 30 -3 40 c-2 21 -10 50 -19 63 l-15 23 12 12 11 11 24 -28 c28 -32 49 -99 40 -128 -9 -26 -41 -56 -90 -82 l-40 -21 16 -3 c9 -2 62 10 119 26 l102 30 55 36 55 37 -6 41 c-15 90 -65 131 -216 176 l-103 31 -57 0 c-31 0 -79 -7 -106 -15 -61 -18 -74 -19 -74 -1 l0 14 52 22 53 23 83 -1 83 -1 95 -31 95 -32 50 -40 51 -40 24 -51 c13 -29 24 -66 24 -83 l0 -30 -27 -26 c-16 -14 -51 -40 -80 -58 l-52 -31 -73 -14 -73 -13 768 -1 767 -1 0 1054 0 1054 -16 6 c-9 3 -24 6 -35 6 l-19 0 -10 -24 -9 -25 -38 -10 c-21 -6 -57 -11 -81 -11 l-43 0 -59 30 c-33 17 -61 30 -64 30 -2 0 -6 -10 -9 -21 l-6 -22 -58 7 -58 6 -42 30 c-24 16 -43 25 -43 20 0 -6 -11 -10 -25 -10 -29 0 -28 4 -50 -115 l-16 -90 48 -40 c89 -74 169 -160 208 -225 l40 -65 1 -45 c1 -25 6 -57 12 -72 6 -15 14 -56 17 -90 l6 -63 -13 -25 c-29 -54 -117 -91 -214 -91 l-54 0 -39 28 c-101 73 -193 147 -198 160 -3 8 -1 19 4 24 13 13 85 16 136 5 l38 -7 -23 43 c-29 53 -46 67 -80 68 -48 0 -71 -16 -193 -138 -66 -65 -140 -132 -165 -147 -25 -15 -46 -29 -48 -30 -2 -2 32 -37 75 -78 43 -42 101 -107 127 -146 l49 -71 -6 -92 -6 -93 -52 -102 -53 -103 -89 -107 c-49 -60 -96 -109 -103 -111 l-14 -3 0 15 c0 15 63 102 130 182 15 17 47 69 73 116 l46 84 10 65 c6 35 11 79 11 97 l0 33 -32 47 c-61 89 -223 242 -256 242 -5 0 -52 20 -106 44 l-96 43 -43 -8 -42 -7 -18 15 -17 16 -54 -12 c-91 -20 -290 -108 -335 -147 -2 -2 3 -12 12 -22 18 -20 23 -52 8 -52 -5 0 -16 12 -26 26 l-16 26 -14 -5 c-7 -3 -23 5 -35 18 -13 14 -42 32 -66 41 l-43 16 -59 -4 -60 -4 -26 -17 -26 -17 20 -52 c21 -56 51 -92 92 -114 l27 -14 16 30 16 30 19 -10 c11 -6 20 -15 20 -20 0 -6 10 -10 23 -10 13 0 51 -11 85 -25 34 -14 70 -25 81 -25 10 0 29 -8 41 -18 l22 -18 -15 -12 -15 -13 -49 12 c-26 7 -66 20 -88 29 l-40 17 -37 -5 c-21 -2 -38 -7 -38 -11 0 -4 32 -23 71 -42 l72 -34 44 -50 45 -49 -11 -4 c-6 -2 -26 6 -44 17 -46 30 -177 94 -182 90 -2 -3 -1 -24 2 -47 l6 -44 41 -25 c52 -32 106 -83 106 -100 0 -21 -29 -15 -66 13 -19 15 -37 24 -41 21 -13 -14 9 -38 62 -68 l56 -31 -4 -12 -4 -11 -32 3 -31 2 25 -40 c29 -46 30 -50 10 -50 l-15 0 -41 63 -40 62 -57 32 -57 32 -52 1 -53 0 0 15 0 14 38 10 c51 15 57 14 103 -10 l41 -20 -7 23 c-4 13 -18 33 -31 46 l-25 22 -30 0 -29 0 0 19 c0 21 19 31 56 31 l24 0 0 35 0 35 -45 0 -45 0 0 -15 c0 -8 -4 -15 -10 -15 -5 0 -10 11 -10 24 l0 25 22 15 c12 9 33 16 45 16 33 0 28 13 -13 35 -47 25 -79 68 -104 139 l-20 58 11 19 c5 10 29 29 52 41 l42 23 75 0 76 0 53 -28 54 -27 46 29 c63 40 212 111 233 111 27 0 30 16 14 72 l-14 53 -8 340 c-9 434 -9 439 -4 570 3 61 1 155 -3 210 l-9 100 -19 38 c-10 21 -19 44 -19 51 0 7 -9 25 -20 39 -11 14 -20 28 -20 31 0 3 17 8 38 11 20 4 46 10 58 15 l21 8 7 86 c3 48 3 111 0 141 l-7 55 -418 0 -419 0 0 -1560z m1184 -434 c24 -33 33 -56 20 -56 -3 0 -21 12 -40 27 l-35 26 -27 -9 c-26 -9 -42 -32 -56 -81 l-7 -21 48 14 c85 26 182 17 258 -24 17 -9 33 -15 36 -15 3 1 21 -13 39 -32 l33 -34 -18 -7 -18 -7 -16 11 c-91 65 -140 81 -238 82 l-62 0 -47 -16 -47 -16 -8 14 c-9 14 -4 41 20 108 l16 45 25 12 c14 7 41 13 61 13 l37 0 26 -34z m-540 -131 c33 -17 62 -37 64 -44 l5 -14 -34 7 c-46 9 -139 56 -139 71 0 30 12 28 104 -20z m286 35 c0 -5 -4 -10 -10 -10 -5 0 -10 5 -10 10 0 6 5 10 10 10 6 0 10 -4 10 -10z m73 -286 c5 -16 14 -40 21 -54 l12 -25 57 -20 c31 -11 56 -24 54 -30 -6 -17 -48 -17 -93 0 l-44 17 -25 42 c-24 41 -32 85 -18 100 12 12 28 0 36 -30z m324 -154 l5 -19 33 -11 c18 -6 45 -8 59 -4 l26 6 0 -11 c0 -31 -94 -41 -137 -14 l-23 13 0 24 c0 39 28 51 37 16z m-961 -87 c17 -77 26 -99 68 -162 l45 -69 34 -21 c19 -11 40 -21 48 -21 l13 0 -26 28 c-33 34 -51 79 -43 109 l5 23 16 0 16 0 -6 -16 c-3 -8 1 -28 9 -43 17 -33 80 -91 100 -91 7 0 15 -5 17 -12 l4 -12 60 -1 59 0 63 19 c61 19 87 17 64 -6 -17 -17 -79 -39 -145 -51 l-58 -11 -52 17 c-29 9 -68 16 -88 15 l-35 -2 -37 23 c-21 13 -50 39 -65 59 -15 20 -37 47 -50 61 -35 38 -66 164 -45 184 13 14 23 6 29 -20z"/>
<path d="M890 2989 l0 -132 83 7 c45 4 105 11 132 16 28 4 66 11 86 13 l37 5 6 -36 c3 -20 6 -60 6 -88 0 -28 8 -75 17 -105 l17 -54 8 85 c4 47 12 95 18 108 5 13 10 37 10 55 l0 32 53 13 c79 18 122 15 236 -18 57 -16 108 -27 113 -24 4 3 22 -1 38 -10 l30 -14 1 16 c0 9 2 72 5 140 l5 122 -451 0 -450 0 0 -131z"/>
<path d="M1842 3008 c-1 -62 -5 -131 -8 -154 l-6 -41 41 -16 41 -17 -6 -28 -6 -28 17 -56 16 -57 27 -3 27 -3 2 -25 c0 -14 4 -107 8 -208 l8 -183 34 -28 c19 -16 48 -31 63 -34 15 -4 39 -9 54 -13 36 -9 32 7 -9 34 l-35 22 0 20 0 20 66 0 66 0 83 54 c84 56 139 110 132 130 -2 6 -22 12 -45 14 l-42 3 -22 -15 c-26 -19 -54 -21 -64 -4 l-7 11 33 27 34 27 -22 12 c-28 15 -53 14 -80 -4 l-22 -16 -18 10 -18 10 -69 -9 c-39 -5 -80 -9 -92 -10 l-23 0 0 20 0 19 40 11 c23 6 69 10 103 9 l63 -2 21 11 c12 7 39 12 60 12 l38 0 26 -18 c14 -9 35 -27 47 -39 l22 -23 25 0 c47 0 83 -58 54 -87 l-12 -12 39 -17 c22 -10 42 -20 47 -22 4 -2 7 179 7 402 l0 406 -368 0 -369 0 -1 -112z"/>
<path d="M1357 2863 l-27 -4 1 -48 2 -47 21 20 c22 21 56 71 56 81 0 5 -5 5 -53 -2z"/>
<path d="M1170 2853 c-14 -2 -36 -6 -49 -9 l-24 -5 35 -26 36 -25 7 -36 c4 -20 8 -54 10 -75 2 -21 9 -44 15 -52 15 -18 29 -66 46 -159 8 -43 17 -83 20 -88 l6 -9 14 12 14 12 -6 47 -6 47 12 8 13 8 -8 -13 -8 -13 11 7 12 7 -35 49 c-19 27 -44 77 -56 112 l-21 63 -3 68 c-1 37 -4 69 -6 70 -2 2 -15 1 -29 0z"/>
<path d="M1006 2821 c-3 -5 1 -12 10 -15 l15 -6 15 15 15 15 -25 0 c-14 0 -27 -4 -30 -9z"/>
<path d="M1810 2751 c0 -5 7 -17 16 -25 9 -9 20 -29 25 -44 l9 -27 -6 45 c-4 25 -8 48 -11 53 -6 10 -33 9 -33 -2z"/>
<path d="M896 2735 l6 -15 25 0 25 0 -12 15 c-7 8 -21 15 -31 15 l-18 0 5 -15z"/>
<path d="M1862 2630 c0 -14 2 -19 5 -12 2 6 2 18 0 25 -3 6 -5 1 -5 -13z"/>
<path d="M1897 2553 l-18 -5 9 -11 c5 -7 12 -45 14 -86 l5 -73 13 -8 13 -8 -6 -63 -7 -62 -19 -13 c-10 -8 -21 -25 -23 -39 l-5 -25 23 -6 c12 -3 31 -4 41 -2 l18 4 -2 34 c-1 19 -5 110 -9 203 l-7 167 -11 -1 c-6 -1 -19 -3 -29 -6z"/>
<path d="M1330 2514 l0 -15 10 6 c6 4 8 11 5 16 -9 14 -15 11 -15 -7z"/>
<path d="M2430 2285 c-7 -8 -40 -32 -73 -52 l-60 -37 21 -14 c12 -8 22 -21 22 -28 0 -17 5 -17 -76 1 -36 9 -69 14 -71 11 -3 -3 27 -21 66 -40 l71 -36 57 0 c32 0 64 4 72 9 l14 9 -7 45 -7 45 41 33 c48 39 50 54 9 63 -48 9 -65 7 -79 -9z"/>
<path d="M2531 2220 l-44 -38 7 -17 6 -17 16 6 c9 3 24 6 34 6 l18 0 7 46 c3 25 5 47 3 49 -2 2 -23 -14 -47 -35z"/>
<path d="M1873 2103 c4 -3 10 -3 14 0 3 4 0 7 -7 7 -7 0 -10 -3 -7 -7z"/>
<path d="M871 2040 c0 -36 3 -83 7 -105 l7 -40 12 63 12 63 -19 42 -19 42 0 -65z"/>
<path d="M1870 2060 c0 -7 3 -10 7 -7 3 4 3 10 0 14 -4 3 -7 0 -7 -7z"/>
<path d="M1893 1836 c3 -8 3 -17 -1 -19 -4 -2 -1 -2 7 0 16 4 81 -54 81 -73 0 -6 6 -17 14 -23 8 -7 17 -27 20 -46 l7 -35 -10 -18 -10 -19 42 -13 c23 -6 57 -23 75 -37 18 -14 36 -23 39 -20 3 3 -8 32 -23 64 l-29 58 -99 98 c-94 92 -125 115 -113 83z"/>
<path d="M1670 1584 c-42 -54 -87 -84 -126 -84 -16 0 -42 -9 -57 -19 l-29 -19 11 -6 c6 -4 20 -5 31 -1 10 3 28 2 38 -4 l19 -10 33 34 c19 19 39 35 45 35 9 0 68 71 89 108 l7 12 -13 0 c-7 -1 -29 -21 -48 -46z"/>
<path d="M1772 1590 l-12 -20 33 0 34 0 27 -25 c30 -28 56 -33 56 -10 0 9 7 18 15 21 8 4 15 10 15 15 l0 9 -39 -6 -40 -6 -27 21 c-33 26 -46 26 -62 1z"/>
<path d="M1973 1603 c4 -3 10 -3 14 0 3 4 0 7 -7 7 -7 0 -10 -3 -7 -7z"/>
<path d="M1070 1525 c-7 -9 -11 -18 -8 -20 3 -3 11 1 18 10 7 9 11 18 8 20 -3 3 -11 -1 -18 -10z"/>
<path d="M1980 1531 l-35 -6 48 -18 47 -19 0 -19 0 -19 -28 0 c-15 0 -37 7 -48 14 l-21 15 -21 -6 c-26 -6 -26 -6 -10 -50 7 -18 18 -33 24 -33 7 0 26 -11 41 -24 l28 -25 -12 -12 -12 -12 -14 12 c-19 15 -151 61 -177 61 -33 0 -23 -14 48 -66 76 -57 120 -81 166 -89 l32 -6 54 21 c30 11 66 29 79 40 l24 20 3 37 c1 20 -2 46 -8 56 -17 33 -90 108 -119 123 -30 15 -33 15 -89 5z"/>
<path d="M1463 1493 c4 -3 10 -3 14 0 3 4 0 7 -7 7 -7 0 -10 -3 -7 -7z"/>
<path d="M875 1411 c-4 -17 -4 -45 0 -61 l7 -31 21 6 c12 4 32 18 44 31 l23 25 -12 19 c-7 10 -19 21 -28 23 -8 3 -22 8 -32 12 l-16 6 -7 -30z"/>
<path d="M1213 1413 c4 -3 10 -3 14 0 3 4 0 7 -7 7 -7 0 -10 -3 -7 -7z"/>
<path d="M1420 1410 c0 -5 5 -12 10 -15 6 -3 10 -27 10 -53 l0 -46 45 44 c25 25 44 52 43 60 l-3 15 -53 2 -52 3 0 -10z"/>
<path d="M963 1403 c4 -3 10 -3 14 0 3 4 0 7 -7 7 -7 0 -10 -3 -7 -7z"/>
<path d="M1055 1400 l-6 -10 15 0 c9 0 16 5 16 10 0 6 -4 10 -9 10 -6 0 -13 -4 -16 -10z"/>
<path d="M1100 1391 c-79 -26 -110 -42 -110 -58 0 -7 4 -13 9 -13 5 0 18 -3 28 -7 l18 -6 -8 8 c-8 10 55 48 110 65 21 7 42 16 48 21 l9 9 -24 -1 c-14 0 -50 -8 -80 -18z"/>
<path d="M1291 1379 c-69 -13 -241 -71 -236 -80 3 -4 22 -9 42 -12 106 -14 177 -29 201 -41 l26 -14 38 47 c39 47 47 78 26 99 -13 13 -33 14 -97 1z"/>
</g>


</svg>