<svg xmlns="http://www.w3.org/2000/svg" width="124.503" height="324" viewBox="0 0 124.503 324">
  <g id="LIFE" transform="translate(-2288.497 430)">
    <g id="Rectangle_34" data-name="Rectangle 34" transform="translate(2349 -430)" fill="#fff" stroke="#707070" stroke-width="2">
      <rect width="60" height="24" rx="10" stroke="none"/>
      <rect x="1" y="1" width="58" height="22" rx="9" fill="none"/>
    </g>
    <path id="Rectangle_35" data-name="Rectangle 35" d="M0,0H0A2,2,0,0,1,2,2V8a2,2,0,0,1-2,2H0a0,0,0,0,1,0,0V0A0,0,0,0,1,0,0Z" transform="translate(2411 -423)" fill="#737373"/>
    <rect id="Rectangle_36" data-name="Rectangle 36" width="50" height="16" rx="5" transform="translate(2354 -426)" fill="#1feb00"/>
    <path id="Path_109" data-name="Path 109" d="M-52.827,0h-1.465V-16.516L-58.5-16v-1.172l5.676-.854ZM-34.29-6.274a7.2,7.2,0,0,1-1.471,4.785A5,5,0,0,1-39.8.256,5.041,5.041,0,0,1-43.848-1.5a7.141,7.141,0,0,1-1.489-4.779V-11.5a7.186,7.186,0,0,1,1.477-4.773A5,5,0,0,1-39.82-18.03a5.015,5.015,0,0,1,4.047,1.758A7.166,7.166,0,0,1-34.29-11.5Zm-1.465-5.457a5.875,5.875,0,0,0-1.056-3.693,3.584,3.584,0,0,0-3.009-1.361,3.578,3.578,0,0,0-3.009,1.367,5.88,5.88,0,0,0-1.056,3.687v5.676a5.891,5.891,0,0,0,1.068,3.693A3.592,3.592,0,0,0-39.8-.977,3.536,3.536,0,0,0-36.8-2.356a5.958,5.958,0,0,0,1.05-3.7ZM-20.16-6.274a7.2,7.2,0,0,1-1.471,4.785A5,5,0,0,1-25.666.256,5.041,5.041,0,0,1-29.718-1.5a7.141,7.141,0,0,1-1.489-4.779V-11.5a7.186,7.186,0,0,1,1.477-4.773A5,5,0,0,1-25.69-18.03a5.015,5.015,0,0,1,4.047,1.758A7.166,7.166,0,0,1-20.16-11.5Zm-1.465-5.457a5.875,5.875,0,0,0-1.056-3.693,3.584,3.584,0,0,0-3.009-1.361A3.578,3.578,0,0,0-28.7-15.417a5.88,5.88,0,0,0-1.056,3.687v5.676a5.891,5.891,0,0,0,1.068,3.693A3.592,3.592,0,0,0-25.666-.977a3.536,3.536,0,0,0,2.991-1.379,5.958,5.958,0,0,0,1.05-3.7Zm4.486-2.625a3.757,3.757,0,0,1,.958-2.612A3.233,3.233,0,0,1-13.66-18.03a3.219,3.219,0,0,1,2.509,1.062,3.757,3.757,0,0,1,.958,2.612v.94a3.732,3.732,0,0,1-.952,2.594,3.2,3.2,0,0,1-2.49,1.056,3.275,3.275,0,0,1-2.539-1.056,3.7,3.7,0,0,1-.964-2.594Zm1.172.94a2.843,2.843,0,0,0,.6,1.831,2.082,2.082,0,0,0,1.727.757,2.007,2.007,0,0,0,1.678-.757,2.881,2.881,0,0,0,.592-1.831v-.94a2.912,2.912,0,0,0-.6-1.843,2.024,2.024,0,0,0-1.7-.769,2.041,2.041,0,0,0-1.7.769,2.893,2.893,0,0,0-.6,1.843ZM-8.2-4.358a3.741,3.741,0,0,1,.958-2.6A3.233,3.233,0,0,1-4.724-8.02,3.238,3.238,0,0,1-2.209-6.958a3.727,3.727,0,0,1,.964,2.6v.952A3.735,3.735,0,0,1-2.2-.8,3.214,3.214,0,0,1-4.7.256,3.275,3.275,0,0,1-7.239-.8,3.721,3.721,0,0,1-8.2-3.406Zm1.184.952a2.881,2.881,0,0,0,.6,1.843A2.064,2.064,0,0,0-4.7-.806a2.007,2.007,0,0,0,1.678-.757,2.9,2.9,0,0,0,.592-1.843v-.952a2.868,2.868,0,0,0-.6-1.855,2.051,2.051,0,0,0-1.7-.745,2.044,2.044,0,0,0-1.7.751,2.874,2.874,0,0,0-.6,1.849Zm-6.262,1.929-.9-.586,8.679-13.892.9.586Z" transform="translate(2347 -408)" fill="#2c3644"/>
    <g id="Rectangle_34-2" data-name="Rectangle 34" transform="translate(2349 -400)" fill="#fff" stroke="#707070" stroke-width="2">
      <rect width="60" height="24" rx="10" stroke="none"/>
      <rect x="1" y="1" width="58" height="22" rx="9" fill="none"/>
    </g>
    <path id="Rectangle_35-2" data-name="Rectangle 35" d="M0,0H0A2,2,0,0,1,2,2V8a2,2,0,0,1-2,2H0a0,0,0,0,1,0,0V0A0,0,0,0,1,0,0Z" transform="translate(2411 -393)" fill="#737373"/>
    <path id="Rectangle_36-2" data-name="Rectangle 36" d="M5,0H45a0,0,0,0,1,0,0V16a0,0,0,0,1,0,0H5a5,5,0,0,1-5-5V5A5,5,0,0,1,5,0Z" transform="translate(2354 -396)" fill="#79ff65"/>
    <path id="Path_110" data-name="Path 110" d="M-40.418-.977a3.973,3.973,0,0,0,3.113-1.294,5.225,5.225,0,0,0,1.16-3.613V-8.472A4.455,4.455,0,0,1-37.873-6.8a4.924,4.924,0,0,1-2.386.586,4.984,4.984,0,0,1-3.876-1.605A5.976,5.976,0,0,1-45.594-12a6.252,6.252,0,0,1,1.526-4.315,4.9,4.9,0,0,1,3.821-1.715,5.323,5.323,0,0,1,4.065,1.648,6.581,6.581,0,0,1,1.55,4.688v5.786a6.188,6.188,0,0,1-1.605,4.529A5.6,5.6,0,0,1-40.418.256a9.015,9.015,0,0,1-1.849-.2A9.481,9.481,0,0,1-44.08-.513l.269-1.184a6.936,6.936,0,0,0,1.581.555A8.8,8.8,0,0,0-40.418-.977Zm.159-6.47a4.287,4.287,0,0,0,2.612-.781,4.259,4.259,0,0,0,1.5-1.929v-1.7a5.447,5.447,0,0,0-1.1-3.65,3.679,3.679,0,0,0-2.942-1.282,3.413,3.413,0,0,0-2.808,1.379A5.334,5.334,0,0,0-44.08-12a5.111,5.111,0,0,0,1.019,3.253A3.365,3.365,0,0,0-40.259-7.446Zm20.1,1.172a7.2,7.2,0,0,1-1.471,4.785A5,5,0,0,1-25.666.256,5.041,5.041,0,0,1-29.718-1.5a7.141,7.141,0,0,1-1.489-4.779V-11.5a7.186,7.186,0,0,1,1.477-4.773A5,5,0,0,1-25.69-18.03a5.015,5.015,0,0,1,4.047,1.758A7.166,7.166,0,0,1-20.16-11.5Zm-1.465-5.457a5.875,5.875,0,0,0-1.056-3.693,3.584,3.584,0,0,0-3.009-1.361A3.578,3.578,0,0,0-28.7-15.417a5.88,5.88,0,0,0-1.056,3.687v5.676a5.891,5.891,0,0,0,1.068,3.693A3.592,3.592,0,0,0-25.666-.977a3.536,3.536,0,0,0,2.991-1.379,5.958,5.958,0,0,0,1.05-3.7Zm4.486-2.625a3.757,3.757,0,0,1,.958-2.612A3.233,3.233,0,0,1-13.66-18.03a3.219,3.219,0,0,1,2.509,1.062,3.757,3.757,0,0,1,.958,2.612v.94a3.732,3.732,0,0,1-.952,2.594,3.2,3.2,0,0,1-2.49,1.056,3.275,3.275,0,0,1-2.539-1.056,3.7,3.7,0,0,1-.964-2.594Zm1.172.94a2.843,2.843,0,0,0,.6,1.831,2.082,2.082,0,0,0,1.727.757,2.007,2.007,0,0,0,1.678-.757,2.881,2.881,0,0,0,.592-1.831v-.94a2.912,2.912,0,0,0-.6-1.843,2.024,2.024,0,0,0-1.7-.769,2.041,2.041,0,0,0-1.7.769,2.893,2.893,0,0,0-.6,1.843ZM-8.2-4.358a3.741,3.741,0,0,1,.958-2.6A3.233,3.233,0,0,1-4.724-8.02,3.238,3.238,0,0,1-2.209-6.958a3.727,3.727,0,0,1,.964,2.6v.952A3.735,3.735,0,0,1-2.2-.8,3.214,3.214,0,0,1-4.7.256,3.275,3.275,0,0,1-7.239-.8,3.721,3.721,0,0,1-8.2-3.406Zm1.184.952a2.881,2.881,0,0,0,.6,1.843A2.064,2.064,0,0,0-4.7-.806a2.007,2.007,0,0,0,1.678-.757,2.9,2.9,0,0,0,.592-1.843v-.952a2.868,2.868,0,0,0-.6-1.855,2.051,2.051,0,0,0-1.7-.745,2.044,2.044,0,0,0-1.7.751,2.874,2.874,0,0,0-.6,1.849Zm-6.262,1.929-.9-.586,8.679-13.892.9.586Z" transform="translate(2347 -378)" fill="#2c3644"/>
    <g id="Rectangle_34-3" data-name="Rectangle 34" transform="translate(2349 -370)" fill="#fff" stroke="#707070" stroke-width="2">
      <rect width="60" height="24" rx="10" stroke="none"/>
      <rect x="1" y="1" width="58" height="22" rx="9" fill="none"/>
    </g>
    <path id="Rectangle_35-3" data-name="Rectangle 35" d="M0,0H0A2,2,0,0,1,2,2V8a2,2,0,0,1-2,2H0a0,0,0,0,1,0,0V0A0,0,0,0,1,0,0Z" transform="translate(2411 -363)" fill="#737373"/>
    <path id="Rectangle_36-3" data-name="Rectangle 36" d="M5,0H40a0,0,0,0,1,0,0V16a0,0,0,0,1,0,0H5a5,5,0,0,1-5-5V5A5,5,0,0,1,5,0Z" transform="translate(2354 -366)" fill="#79ff65"/>
    <path id="Path_111" data-name="Path 111" d="M-34.583-13.306a4.026,4.026,0,0,1-.836,2.527A4.7,4.7,0,0,1-37.635-9.2a5.376,5.376,0,0,1,2.57,1.672,4.11,4.11,0,0,1,.983,2.722A4.6,4.6,0,0,1-35.676-1.08a6.007,6.007,0,0,1-4,1.337,6.466,6.466,0,0,1-4.205-1.331A4.537,4.537,0,0,1-45.521-4.81a4.081,4.081,0,0,1,1-2.734,5.483,5.483,0,0,1,2.661-1.672,4.811,4.811,0,0,1-2.307-1.569,3.945,3.945,0,0,1-.854-2.521,4.274,4.274,0,0,1,1.489-3.5A5.83,5.83,0,0,1-39.7-18.03,5.48,5.48,0,0,1-36.036-16.8,4.324,4.324,0,0,1-34.583-13.306ZM-35.548-4.8a3.474,3.474,0,0,0-1.208-2.734A4.3,4.3,0,0,0-39.7-8.594a4.653,4.653,0,0,0-3.119,1.062A3.422,3.422,0,0,0-44.068-4.8a3.437,3.437,0,0,0,1.245,2.783A4.753,4.753,0,0,0-39.674-.977,4.294,4.294,0,0,0-36.738-2.02,3.511,3.511,0,0,0-35.548-4.8Zm-.5-8.521a3.229,3.229,0,0,0-1.062-2.5,3.7,3.7,0,0,0-2.588-.97,4.124,4.124,0,0,0-2.777.934,3.159,3.159,0,0,0-1.093,2.533,3.181,3.181,0,0,0,1.111,2.533,4.11,4.11,0,0,0,2.783.958,3.667,3.667,0,0,0,2.576-.964A3.27,3.27,0,0,0-36.048-13.318ZM-20.16-6.274a7.2,7.2,0,0,1-1.471,4.785A5,5,0,0,1-25.666.256,5.041,5.041,0,0,1-29.718-1.5a7.141,7.141,0,0,1-1.489-4.779V-11.5a7.186,7.186,0,0,1,1.477-4.773A5,5,0,0,1-25.69-18.03a5.015,5.015,0,0,1,4.047,1.758A7.166,7.166,0,0,1-20.16-11.5Zm-1.465-5.457a5.875,5.875,0,0,0-1.056-3.693,3.584,3.584,0,0,0-3.009-1.361A3.578,3.578,0,0,0-28.7-15.417a5.88,5.88,0,0,0-1.056,3.687v5.676a5.891,5.891,0,0,0,1.068,3.693A3.592,3.592,0,0,0-25.666-.977a3.536,3.536,0,0,0,2.991-1.379,5.958,5.958,0,0,0,1.05-3.7Zm4.486-2.625a3.757,3.757,0,0,1,.958-2.612A3.233,3.233,0,0,1-13.66-18.03a3.219,3.219,0,0,1,2.509,1.062,3.757,3.757,0,0,1,.958,2.612v.94a3.732,3.732,0,0,1-.952,2.594,3.2,3.2,0,0,1-2.49,1.056,3.275,3.275,0,0,1-2.539-1.056,3.7,3.7,0,0,1-.964-2.594Zm1.172.94a2.843,2.843,0,0,0,.6,1.831,2.082,2.082,0,0,0,1.727.757,2.007,2.007,0,0,0,1.678-.757,2.881,2.881,0,0,0,.592-1.831v-.94a2.912,2.912,0,0,0-.6-1.843,2.024,2.024,0,0,0-1.7-.769,2.041,2.041,0,0,0-1.7.769,2.893,2.893,0,0,0-.6,1.843ZM-8.2-4.358a3.741,3.741,0,0,1,.958-2.6A3.233,3.233,0,0,1-4.724-8.02,3.238,3.238,0,0,1-2.209-6.958a3.727,3.727,0,0,1,.964,2.6v.952A3.735,3.735,0,0,1-2.2-.8,3.214,3.214,0,0,1-4.7.256,3.275,3.275,0,0,1-7.239-.8,3.721,3.721,0,0,1-8.2-3.406Zm1.184.952a2.881,2.881,0,0,0,.6,1.843A2.064,2.064,0,0,0-4.7-.806a2.007,2.007,0,0,0,1.678-.757,2.9,2.9,0,0,0,.592-1.843v-.952a2.868,2.868,0,0,0-.6-1.855,2.051,2.051,0,0,0-1.7-.745,2.044,2.044,0,0,0-1.7.751,2.874,2.874,0,0,0-.6,1.849Zm-6.262,1.929-.9-.586,8.679-13.892.9.586Z" transform="translate(2347 -348)" fill="#2c3644"/>
    <g id="Rectangle_34-4" data-name="Rectangle 34" transform="translate(2349 -340)" fill="#fff" stroke="#707070" stroke-width="2">
      <rect width="60" height="24" rx="10" stroke="none"/>
      <rect x="1" y="1" width="58" height="22" rx="9" fill="none"/>
    </g>
    <path id="Rectangle_35-4" data-name="Rectangle 35" d="M0,0H0A2,2,0,0,1,2,2V8a2,2,0,0,1-2,2H0a0,0,0,0,1,0,0V0A0,0,0,0,1,0,0Z" transform="translate(2411 -333)" fill="#737373"/>
    <path id="Rectangle_36-4" data-name="Rectangle 36" d="M5,0H35a0,0,0,0,1,0,0V16a0,0,0,0,1,0,0H5a5,5,0,0,1-5-5V5A5,5,0,0,1,5,0Z" transform="translate(2354 -336)" fill="#79ff65"/>
    <path id="Path_112" data-name="Path 112" d="M-34.071-16.528a27.713,27.713,0,0,0-4.5,6.989,19.462,19.462,0,0,0-1.508,7.782V0h-1.465V-1.758a19.41,19.41,0,0,1,1.569-7.837,28.165,28.165,0,0,1,4.388-6.934H-45.631v-1.245h11.56ZM-20.16-6.274a7.2,7.2,0,0,1-1.471,4.785A5,5,0,0,1-25.666.256,5.041,5.041,0,0,1-29.718-1.5a7.141,7.141,0,0,1-1.489-4.779V-11.5a7.186,7.186,0,0,1,1.477-4.773A5,5,0,0,1-25.69-18.03a5.015,5.015,0,0,1,4.047,1.758A7.166,7.166,0,0,1-20.16-11.5Zm-1.465-5.457a5.875,5.875,0,0,0-1.056-3.693,3.584,3.584,0,0,0-3.009-1.361A3.578,3.578,0,0,0-28.7-15.417a5.88,5.88,0,0,0-1.056,3.687v5.676a5.891,5.891,0,0,0,1.068,3.693A3.592,3.592,0,0,0-25.666-.977a3.536,3.536,0,0,0,2.991-1.379,5.958,5.958,0,0,0,1.05-3.7Zm4.486-2.625a3.757,3.757,0,0,1,.958-2.612A3.233,3.233,0,0,1-13.66-18.03a3.219,3.219,0,0,1,2.509,1.062,3.757,3.757,0,0,1,.958,2.612v.94a3.732,3.732,0,0,1-.952,2.594,3.2,3.2,0,0,1-2.49,1.056,3.275,3.275,0,0,1-2.539-1.056,3.7,3.7,0,0,1-.964-2.594Zm1.172.94a2.843,2.843,0,0,0,.6,1.831,2.082,2.082,0,0,0,1.727.757,2.007,2.007,0,0,0,1.678-.757,2.881,2.881,0,0,0,.592-1.831v-.94a2.912,2.912,0,0,0-.6-1.843,2.024,2.024,0,0,0-1.7-.769,2.041,2.041,0,0,0-1.7.769,2.893,2.893,0,0,0-.6,1.843ZM-8.2-4.358a3.741,3.741,0,0,1,.958-2.6A3.233,3.233,0,0,1-4.724-8.02,3.238,3.238,0,0,1-2.209-6.958a3.727,3.727,0,0,1,.964,2.6v.952A3.735,3.735,0,0,1-2.2-.8,3.214,3.214,0,0,1-4.7.256,3.275,3.275,0,0,1-7.239-.8,3.721,3.721,0,0,1-8.2-3.406Zm1.184.952a2.881,2.881,0,0,0,.6,1.843A2.064,2.064,0,0,0-4.7-.806a2.007,2.007,0,0,0,1.678-.757,2.9,2.9,0,0,0,.592-1.843v-.952a2.868,2.868,0,0,0-.6-1.855,2.051,2.051,0,0,0-1.7-.745,2.044,2.044,0,0,0-1.7.751,2.874,2.874,0,0,0-.6,1.849Zm-6.262,1.929-.9-.586,8.679-13.892.9.586Z" transform="translate(2347 -318)" fill="#2c3644"/>
    <g id="Rectangle_34-5" data-name="Rectangle 34" transform="translate(2349 -310)" fill="#fff" stroke="#707070" stroke-width="2">
      <rect width="60" height="24" rx="10" stroke="none"/>
      <rect x="1" y="1" width="58" height="22" rx="9" fill="none"/>
    </g>
    <path id="Rectangle_35-5" data-name="Rectangle 35" d="M0,0H0A2,2,0,0,1,2,2V8a2,2,0,0,1-2,2H0a0,0,0,0,1,0,0V0A0,0,0,0,1,0,0Z" transform="translate(2411 -303)" fill="#737373"/>
    <path id="Rectangle_36-5" data-name="Rectangle 36" d="M5,0H30a0,0,0,0,1,0,0V16a0,0,0,0,1,0,0H5a5,5,0,0,1-5-5V5A5,5,0,0,1,5,0Z" transform="translate(2354 -306)" fill="#f7bc00"/>
    <path id="Path_113" data-name="Path 113" d="M-39.1-18.03a9.517,9.517,0,0,1,1.971.208,6.287,6.287,0,0,1,1.7.6l-.378,1.2a6.836,6.836,0,0,0-1.5-.568,7.547,7.547,0,0,0-1.8-.189A3.808,3.808,0,0,0-42.182-15.3a5.927,5.927,0,0,0-1.215,3.87v2.441A5.4,5.4,0,0,1-41.5-10.626a5.375,5.375,0,0,1,2.563-.616A4.579,4.579,0,0,1-35.267-9.7a6.183,6.183,0,0,1,1.318,4.163,5.929,5.929,0,0,1-1.483,4.2,5.07,5.07,0,0,1-3.9,1.6,4.989,4.989,0,0,1-3.955-1.819,7.3,7.3,0,0,1-1.562-4.919v-4.81A7.1,7.1,0,0,1-43.2-16.138,5.225,5.225,0,0,1-39.1-18.03Zm-.244,7.983a4.321,4.321,0,0,0-2.545.775A3.887,3.887,0,0,0-43.4-7.3v.928a6.209,6.209,0,0,0,1.147,3.925A3.548,3.548,0,0,0-39.332-.977a3.5,3.5,0,0,0,2.863-1.294,5.005,5.005,0,0,0,1.056-3.271,5.01,5.01,0,0,0-.995-3.326A3.627,3.627,0,0,0-39.344-10.046ZM-20.16-6.274a7.2,7.2,0,0,1-1.471,4.785A5,5,0,0,1-25.666.256,5.041,5.041,0,0,1-29.718-1.5a7.141,7.141,0,0,1-1.489-4.779V-11.5a7.186,7.186,0,0,1,1.477-4.773A5,5,0,0,1-25.69-18.03a5.015,5.015,0,0,1,4.047,1.758A7.166,7.166,0,0,1-20.16-11.5Zm-1.465-5.457a5.875,5.875,0,0,0-1.056-3.693,3.584,3.584,0,0,0-3.009-1.361A3.578,3.578,0,0,0-28.7-15.417a5.88,5.88,0,0,0-1.056,3.687v5.676a5.891,5.891,0,0,0,1.068,3.693A3.592,3.592,0,0,0-25.666-.977a3.536,3.536,0,0,0,2.991-1.379,5.958,5.958,0,0,0,1.05-3.7Zm4.486-2.625a3.757,3.757,0,0,1,.958-2.612A3.233,3.233,0,0,1-13.66-18.03a3.219,3.219,0,0,1,2.509,1.062,3.757,3.757,0,0,1,.958,2.612v.94a3.732,3.732,0,0,1-.952,2.594,3.2,3.2,0,0,1-2.49,1.056,3.275,3.275,0,0,1-2.539-1.056,3.7,3.7,0,0,1-.964-2.594Zm1.172.94a2.843,2.843,0,0,0,.6,1.831,2.082,2.082,0,0,0,1.727.757,2.007,2.007,0,0,0,1.678-.757,2.881,2.881,0,0,0,.592-1.831v-.94a2.912,2.912,0,0,0-.6-1.843,2.024,2.024,0,0,0-1.7-.769,2.041,2.041,0,0,0-1.7.769,2.893,2.893,0,0,0-.6,1.843ZM-8.2-4.358a3.741,3.741,0,0,1,.958-2.6A3.233,3.233,0,0,1-4.724-8.02,3.238,3.238,0,0,1-2.209-6.958a3.727,3.727,0,0,1,.964,2.6v.952A3.735,3.735,0,0,1-2.2-.8,3.214,3.214,0,0,1-4.7.256,3.275,3.275,0,0,1-7.239-.8,3.721,3.721,0,0,1-8.2-3.406Zm1.184.952a2.881,2.881,0,0,0,.6,1.843A2.064,2.064,0,0,0-4.7-.806a2.007,2.007,0,0,0,1.678-.757,2.9,2.9,0,0,0,.592-1.843v-.952a2.868,2.868,0,0,0-.6-1.855,2.051,2.051,0,0,0-1.7-.745,2.044,2.044,0,0,0-1.7.751,2.874,2.874,0,0,0-.6,1.849Zm-6.262,1.929-.9-.586,8.679-13.892.9.586Z" transform="translate(2347 -288)" fill="#2c3644"/>
    <g id="Rectangle_34-6" data-name="Rectangle 34" transform="translate(2349 -280)" fill="#fff" stroke="#707070" stroke-width="2">
      <rect width="60" height="24" rx="10" stroke="none"/>
      <rect x="1" y="1" width="58" height="22" rx="9" fill="none"/>
    </g>
    <path id="Rectangle_35-6" data-name="Rectangle 35" d="M0,0H0A2,2,0,0,1,2,2V8a2,2,0,0,1-2,2H0a0,0,0,0,1,0,0V0A0,0,0,0,1,0,0Z" transform="translate(2411 -273)" fill="#737373"/>
    <path id="Rectangle_36-6" data-name="Rectangle 36" d="M5,0H25a0,0,0,0,1,0,0V16a0,0,0,0,1,0,0H5a5,5,0,0,1-5-5V5A5,5,0,0,1,5,0Z" transform="translate(2354 -276)" fill="#f7bc00"/>
    <path id="Path_114" data-name="Path 114" d="M-44.459-8l.977-9.778h8.643v1.355h-7.385l-.659,6.4a5.322,5.322,0,0,1,1.483-.94,6.153,6.153,0,0,1,2.179-.378,4.592,4.592,0,0,1,3.668,1.5,6.006,6.006,0,0,1,1.385,4.175,6.477,6.477,0,0,1-1.355,4.309A5.011,5.011,0,0,1-39.588.256,5.509,5.509,0,0,1-43.25-.97a4.314,4.314,0,0,1-1.4-3.632l.024-.073h1.318A3.587,3.587,0,0,0-42.3-1.929a3.8,3.8,0,0,0,2.71.952,3.623,3.623,0,0,0,2.972-1.2,5.342,5.342,0,0,0,.983-3.467A4.764,4.764,0,0,0-36.616-8.8a3.409,3.409,0,0,0-2.765-1.172,5.058,5.058,0,0,0-2.594.543,3.083,3.083,0,0,0-1.3,1.642Zm24.3,1.721a7.2,7.2,0,0,1-1.471,4.785A5,5,0,0,1-25.666.256,5.041,5.041,0,0,1-29.718-1.5a7.141,7.141,0,0,1-1.489-4.779V-11.5a7.186,7.186,0,0,1,1.477-4.773A5,5,0,0,1-25.69-18.03a5.015,5.015,0,0,1,4.047,1.758A7.166,7.166,0,0,1-20.16-11.5Zm-1.465-5.457a5.875,5.875,0,0,0-1.056-3.693,3.584,3.584,0,0,0-3.009-1.361A3.578,3.578,0,0,0-28.7-15.417a5.88,5.88,0,0,0-1.056,3.687v5.676a5.891,5.891,0,0,0,1.068,3.693A3.592,3.592,0,0,0-25.666-.977a3.536,3.536,0,0,0,2.991-1.379,5.958,5.958,0,0,0,1.05-3.7Zm4.486-2.625a3.757,3.757,0,0,1,.958-2.612A3.233,3.233,0,0,1-13.66-18.03a3.219,3.219,0,0,1,2.509,1.062,3.757,3.757,0,0,1,.958,2.612v.94a3.732,3.732,0,0,1-.952,2.594,3.2,3.2,0,0,1-2.49,1.056,3.275,3.275,0,0,1-2.539-1.056,3.7,3.7,0,0,1-.964-2.594Zm1.172.94a2.843,2.843,0,0,0,.6,1.831,2.082,2.082,0,0,0,1.727.757,2.007,2.007,0,0,0,1.678-.757,2.881,2.881,0,0,0,.592-1.831v-.94a2.912,2.912,0,0,0-.6-1.843,2.024,2.024,0,0,0-1.7-.769,2.041,2.041,0,0,0-1.7.769,2.893,2.893,0,0,0-.6,1.843ZM-8.2-4.358a3.741,3.741,0,0,1,.958-2.6A3.233,3.233,0,0,1-4.724-8.02,3.238,3.238,0,0,1-2.209-6.958a3.727,3.727,0,0,1,.964,2.6v.952A3.735,3.735,0,0,1-2.2-.8,3.214,3.214,0,0,1-4.7.256,3.275,3.275,0,0,1-7.239-.8,3.721,3.721,0,0,1-8.2-3.406Zm1.184.952a2.881,2.881,0,0,0,.6,1.843A2.064,2.064,0,0,0-4.7-.806a2.007,2.007,0,0,0,1.678-.757,2.9,2.9,0,0,0,.592-1.843v-.952a2.868,2.868,0,0,0-.6-1.855,2.051,2.051,0,0,0-1.7-.745,2.044,2.044,0,0,0-1.7.751,2.874,2.874,0,0,0-.6,1.849Zm-6.262,1.929-.9-.586,8.679-13.892.9.586Z" transform="translate(2347 -258)" fill="#2c3644"/>
    <g id="Rectangle_34-7" data-name="Rectangle 34" transform="translate(2349 -250)" fill="#fff" stroke="#707070" stroke-width="2">
      <rect width="60" height="24" rx="10" stroke="none"/>
      <rect x="1" y="1" width="58" height="22" rx="9" fill="none"/>
    </g>
    <path id="Rectangle_35-7" data-name="Rectangle 35" d="M0,0H0A2,2,0,0,1,2,2V8a2,2,0,0,1-2,2H0a0,0,0,0,1,0,0V0A0,0,0,0,1,0,0Z" transform="translate(2411 -243)" fill="#737373"/>
    <path id="Rectangle_36-7" data-name="Rectangle 36" d="M5,0H20a0,0,0,0,1,0,0V16a0,0,0,0,1,0,0H5a5,5,0,0,1-5-5V5A5,5,0,0,1,5,0Z" transform="translate(2354 -246)" fill="#f7bc00"/>
    <path id="Path_115" data-name="Path 115" d="M-36.243-5.725h2.783v1.233h-2.783V0H-37.7V-4.492h-8.167v-.83l8.02-12.451h1.6Zm-7.886,0H-37.7V-15.857l-.073-.024-.623,1.331Zm23.969-.549a7.2,7.2,0,0,1-1.471,4.785A5,5,0,0,1-25.666.256,5.041,5.041,0,0,1-29.718-1.5a7.141,7.141,0,0,1-1.489-4.779V-11.5a7.186,7.186,0,0,1,1.477-4.773A5,5,0,0,1-25.69-18.03a5.015,5.015,0,0,1,4.047,1.758A7.166,7.166,0,0,1-20.16-11.5Zm-1.465-5.457a5.875,5.875,0,0,0-1.056-3.693,3.584,3.584,0,0,0-3.009-1.361A3.578,3.578,0,0,0-28.7-15.417a5.88,5.88,0,0,0-1.056,3.687v5.676a5.891,5.891,0,0,0,1.068,3.693A3.592,3.592,0,0,0-25.666-.977a3.536,3.536,0,0,0,2.991-1.379,5.958,5.958,0,0,0,1.05-3.7Zm4.486-2.625a3.757,3.757,0,0,1,.958-2.612A3.233,3.233,0,0,1-13.66-18.03a3.219,3.219,0,0,1,2.509,1.062,3.757,3.757,0,0,1,.958,2.612v.94a3.732,3.732,0,0,1-.952,2.594,3.2,3.2,0,0,1-2.49,1.056,3.275,3.275,0,0,1-2.539-1.056,3.7,3.7,0,0,1-.964-2.594Zm1.172.94a2.843,2.843,0,0,0,.6,1.831,2.082,2.082,0,0,0,1.727.757,2.007,2.007,0,0,0,1.678-.757,2.881,2.881,0,0,0,.592-1.831v-.94a2.912,2.912,0,0,0-.6-1.843,2.024,2.024,0,0,0-1.7-.769,2.041,2.041,0,0,0-1.7.769,2.893,2.893,0,0,0-.6,1.843ZM-8.2-4.358a3.741,3.741,0,0,1,.958-2.6A3.233,3.233,0,0,1-4.724-8.02,3.238,3.238,0,0,1-2.209-6.958a3.727,3.727,0,0,1,.964,2.6v.952A3.735,3.735,0,0,1-2.2-.8,3.214,3.214,0,0,1-4.7.256,3.275,3.275,0,0,1-7.239-.8,3.721,3.721,0,0,1-8.2-3.406Zm1.184.952a2.881,2.881,0,0,0,.6,1.843A2.064,2.064,0,0,0-4.7-.806a2.007,2.007,0,0,0,1.678-.757,2.9,2.9,0,0,0,.592-1.843v-.952a2.868,2.868,0,0,0-.6-1.855,2.051,2.051,0,0,0-1.7-.745,2.044,2.044,0,0,0-1.7.751,2.874,2.874,0,0,0-.6,1.849Zm-6.262,1.929-.9-.586,8.679-13.892.9.586Z" transform="translate(2347 -228)" fill="#2c3644"/>
    <g id="Rectangle_34-8" data-name="Rectangle 34" transform="translate(2349 -220)" fill="#fff" stroke="#707070" stroke-width="2">
      <rect width="60" height="24" rx="10" stroke="none"/>
      <rect x="1" y="1" width="58" height="22" rx="9" fill="none"/>
    </g>
    <path id="Rectangle_35-8" data-name="Rectangle 35" d="M0,0H0A2,2,0,0,1,2,2V8a2,2,0,0,1-2,2H0a0,0,0,0,1,0,0V0A0,0,0,0,1,0,0Z" transform="translate(2411 -213)" fill="#737373"/>
    <path id="Rectangle_36-8" data-name="Rectangle 36" d="M5,0H15a0,0,0,0,1,0,0V16a0,0,0,0,1,0,0H5a5,5,0,0,1-5-5V5A5,5,0,0,1,5,0Z" transform="translate(2354 -216)" fill="#ff5501"/>
    <path id="Path_116" data-name="Path 116" d="M-40.015-9.741a4.081,4.081,0,0,0,2.942-.964,3.3,3.3,0,0,0,1-2.49A3.656,3.656,0,0,0-37-15.784a3.564,3.564,0,0,0-2.747-1,4.054,4.054,0,0,0-2.832,1.019A3.4,3.4,0,0,0-43.7-13.123h-1.367l-.024-.073a4.265,4.265,0,0,1,1.477-3.455,5.579,5.579,0,0,1,3.87-1.379,5.311,5.311,0,0,1,3.754,1.282,4.662,4.662,0,0,1,1.385,3.6,4.037,4.037,0,0,1-.763,2.393,4.538,4.538,0,0,1-2.094,1.6,4.549,4.549,0,0,1,2.362,1.6,4.462,4.462,0,0,1,.824,2.734,4.757,4.757,0,0,1-1.5,3.729A5.623,5.623,0,0,1-39.686.256a6.382,6.382,0,0,1-4-1.337,4.222,4.222,0,0,1-1.678-3.668l.024-.073h1.367a3.558,3.558,0,0,0,1.208,2.747,4.4,4.4,0,0,0,3.076,1.1A3.981,3.981,0,0,0-36.78-2a3.7,3.7,0,0,0,1.05-2.771,3.422,3.422,0,0,0-1.117-2.8A4.851,4.851,0,0,0-40.015-8.5h-1.636V-9.741ZM-20.16-6.274a7.2,7.2,0,0,1-1.471,4.785A5,5,0,0,1-25.666.256,5.041,5.041,0,0,1-29.718-1.5a7.141,7.141,0,0,1-1.489-4.779V-11.5a7.186,7.186,0,0,1,1.477-4.773A5,5,0,0,1-25.69-18.03a5.015,5.015,0,0,1,4.047,1.758A7.166,7.166,0,0,1-20.16-11.5Zm-1.465-5.457a5.875,5.875,0,0,0-1.056-3.693,3.584,3.584,0,0,0-3.009-1.361A3.578,3.578,0,0,0-28.7-15.417a5.88,5.88,0,0,0-1.056,3.687v5.676a5.891,5.891,0,0,0,1.068,3.693A3.592,3.592,0,0,0-25.666-.977a3.536,3.536,0,0,0,2.991-1.379,5.958,5.958,0,0,0,1.05-3.7Zm4.486-2.625a3.757,3.757,0,0,1,.958-2.612A3.233,3.233,0,0,1-13.66-18.03a3.219,3.219,0,0,1,2.509,1.062,3.757,3.757,0,0,1,.958,2.612v.94a3.732,3.732,0,0,1-.952,2.594,3.2,3.2,0,0,1-2.49,1.056,3.275,3.275,0,0,1-2.539-1.056,3.7,3.7,0,0,1-.964-2.594Zm1.172.94a2.843,2.843,0,0,0,.6,1.831,2.082,2.082,0,0,0,1.727.757,2.007,2.007,0,0,0,1.678-.757,2.881,2.881,0,0,0,.592-1.831v-.94a2.912,2.912,0,0,0-.6-1.843,2.024,2.024,0,0,0-1.7-.769,2.041,2.041,0,0,0-1.7.769,2.893,2.893,0,0,0-.6,1.843ZM-8.2-4.358a3.741,3.741,0,0,1,.958-2.6A3.233,3.233,0,0,1-4.724-8.02,3.238,3.238,0,0,1-2.209-6.958a3.727,3.727,0,0,1,.964,2.6v.952A3.735,3.735,0,0,1-2.2-.8,3.214,3.214,0,0,1-4.7.256,3.275,3.275,0,0,1-7.239-.8,3.721,3.721,0,0,1-8.2-3.406Zm1.184.952a2.881,2.881,0,0,0,.6,1.843A2.064,2.064,0,0,0-4.7-.806a2.007,2.007,0,0,0,1.678-.757,2.9,2.9,0,0,0,.592-1.843v-.952a2.868,2.868,0,0,0-.6-1.855,2.051,2.051,0,0,0-1.7-.745,2.044,2.044,0,0,0-1.7.751,2.874,2.874,0,0,0-.6,1.849Zm-6.262,1.929-.9-.586,8.679-13.892.9.586Z" transform="translate(2347 -198)" fill="#2c3644"/>
    <g id="Rectangle_34-9" data-name="Rectangle 34" transform="translate(2349 -190)" fill="#fff" stroke="#707070" stroke-width="2">
      <rect width="60" height="24" rx="10" stroke="none"/>
      <rect x="1" y="1" width="58" height="22" rx="9" fill="none"/>
    </g>
    <path id="Rectangle_35-9" data-name="Rectangle 35" d="M0,0H0A2,2,0,0,1,2,2V8a2,2,0,0,1-2,2H0a0,0,0,0,1,0,0V0A0,0,0,0,1,0,0Z" transform="translate(2411 -183)" fill="#737373"/>
    <path id="Rectangle_36-9" data-name="Rectangle 36" d="M5,0h5a0,0,0,0,1,0,0V16a0,0,0,0,1,0,0H5a5,5,0,0,1-5-5V5A5,5,0,0,1,5,0Z" transform="translate(2354 -186)" fill="#ff5501"/>
    <path id="Path_117" data-name="Path 117" d="M-34.058,0H-44.874V-1.123l5.847-6.824a17.027,17.027,0,0,0,2.161-3.021,5.107,5.107,0,0,0,.6-2.325,3.6,3.6,0,0,0-.873-2.557,3.366,3.366,0,0,0-2.582-.934,3.756,3.756,0,0,0-2.93,1.129,4.129,4.129,0,0,0-1.025,2.887h-1.367l-.024-.073a4.873,4.873,0,0,1,1.4-3.68,5.244,5.244,0,0,1,3.943-1.508,4.946,4.946,0,0,1,3.6,1.282A4.612,4.612,0,0,1-34.8-13.281,5.547,5.547,0,0,1-35.67-10.4a30.782,30.782,0,0,1-2.551,3.491l-4.81,5.615.024.061h8.948Zm13.9-6.274a7.2,7.2,0,0,1-1.471,4.785A5,5,0,0,1-25.666.256,5.041,5.041,0,0,1-29.718-1.5a7.141,7.141,0,0,1-1.489-4.779V-11.5a7.186,7.186,0,0,1,1.477-4.773A5,5,0,0,1-25.69-18.03a5.015,5.015,0,0,1,4.047,1.758A7.166,7.166,0,0,1-20.16-11.5Zm-1.465-5.457a5.875,5.875,0,0,0-1.056-3.693,3.584,3.584,0,0,0-3.009-1.361A3.578,3.578,0,0,0-28.7-15.417a5.88,5.88,0,0,0-1.056,3.687v5.676a5.891,5.891,0,0,0,1.068,3.693A3.592,3.592,0,0,0-25.666-.977a3.536,3.536,0,0,0,2.991-1.379,5.958,5.958,0,0,0,1.05-3.7Zm4.486-2.625a3.757,3.757,0,0,1,.958-2.612A3.233,3.233,0,0,1-13.66-18.03a3.219,3.219,0,0,1,2.509,1.062,3.757,3.757,0,0,1,.958,2.612v.94a3.732,3.732,0,0,1-.952,2.594,3.2,3.2,0,0,1-2.49,1.056,3.275,3.275,0,0,1-2.539-1.056,3.7,3.7,0,0,1-.964-2.594Zm1.172.94a2.843,2.843,0,0,0,.6,1.831,2.082,2.082,0,0,0,1.727.757,2.007,2.007,0,0,0,1.678-.757,2.881,2.881,0,0,0,.592-1.831v-.94a2.912,2.912,0,0,0-.6-1.843,2.024,2.024,0,0,0-1.7-.769,2.041,2.041,0,0,0-1.7.769,2.893,2.893,0,0,0-.6,1.843ZM-8.2-4.358a3.741,3.741,0,0,1,.958-2.6A3.233,3.233,0,0,1-4.724-8.02,3.238,3.238,0,0,1-2.209-6.958a3.727,3.727,0,0,1,.964,2.6v.952A3.735,3.735,0,0,1-2.2-.8,3.214,3.214,0,0,1-4.7.256,3.275,3.275,0,0,1-7.239-.8,3.721,3.721,0,0,1-8.2-3.406Zm1.184.952a2.881,2.881,0,0,0,.6,1.843A2.064,2.064,0,0,0-4.7-.806a2.007,2.007,0,0,0,1.678-.757,2.9,2.9,0,0,0,.592-1.843v-.952a2.868,2.868,0,0,0-.6-1.855,2.051,2.051,0,0,0-1.7-.745,2.044,2.044,0,0,0-1.7.751,2.874,2.874,0,0,0-.6,1.849Zm-6.262,1.929-.9-.586,8.679-13.892.9.586Z" transform="translate(2347 -168)" fill="#2c3644"/>
    <g id="Rectangle_34-10" data-name="Rectangle 34" transform="translate(2349 -160)" fill="#fff" stroke="#707070" stroke-width="2">
      <rect width="60" height="24" rx="10" stroke="none"/>
      <rect x="1" y="1" width="58" height="22" rx="9" fill="none"/>
    </g>
    <path id="Rectangle_35-10" data-name="Rectangle 35" d="M0,0H0A2,2,0,0,1,2,2V8a2,2,0,0,1-2,2H0a0,0,0,0,1,0,0V0A0,0,0,0,1,0,0Z" transform="translate(2411 -153)" fill="#737373"/>
    <path id="Rectangle_36-10" data-name="Rectangle 36" d="M5,0H5A0,0,0,0,1,5,0V16a0,0,0,0,1,0,0H5a5,5,0,0,1-5-5V5A5,5,0,0,1,5,0Z" transform="translate(2354 -156)" fill="#ff5501"/>
    <path id="Path_118" data-name="Path 118" d="M-38.7,0h-1.465V-16.516L-44.373-16v-1.172l5.676-.854ZM-20.16-6.274a7.2,7.2,0,0,1-1.471,4.785A5,5,0,0,1-25.666.256,5.041,5.041,0,0,1-29.718-1.5a7.141,7.141,0,0,1-1.489-4.779V-11.5a7.186,7.186,0,0,1,1.477-4.773A5,5,0,0,1-25.69-18.03a5.015,5.015,0,0,1,4.047,1.758A7.166,7.166,0,0,1-20.16-11.5Zm-1.465-5.457a5.875,5.875,0,0,0-1.056-3.693,3.584,3.584,0,0,0-3.009-1.361A3.578,3.578,0,0,0-28.7-15.417a5.88,5.88,0,0,0-1.056,3.687v5.676a5.891,5.891,0,0,0,1.068,3.693A3.592,3.592,0,0,0-25.666-.977a3.536,3.536,0,0,0,2.991-1.379,5.958,5.958,0,0,0,1.05-3.7Zm4.486-2.625a3.757,3.757,0,0,1,.958-2.612A3.233,3.233,0,0,1-13.66-18.03a3.219,3.219,0,0,1,2.509,1.062,3.757,3.757,0,0,1,.958,2.612v.94a3.732,3.732,0,0,1-.952,2.594,3.2,3.2,0,0,1-2.49,1.056,3.275,3.275,0,0,1-2.539-1.056,3.7,3.7,0,0,1-.964-2.594Zm1.172.94a2.843,2.843,0,0,0,.6,1.831,2.082,2.082,0,0,0,1.727.757,2.007,2.007,0,0,0,1.678-.757,2.881,2.881,0,0,0,.592-1.831v-.94a2.912,2.912,0,0,0-.6-1.843,2.024,2.024,0,0,0-1.7-.769,2.041,2.041,0,0,0-1.7.769,2.893,2.893,0,0,0-.6,1.843ZM-8.2-4.358a3.741,3.741,0,0,1,.958-2.6A3.233,3.233,0,0,1-4.724-8.02,3.238,3.238,0,0,1-2.209-6.958a3.727,3.727,0,0,1,.964,2.6v.952A3.735,3.735,0,0,1-2.2-.8,3.214,3.214,0,0,1-4.7.256,3.275,3.275,0,0,1-7.239-.8,3.721,3.721,0,0,1-8.2-3.406Zm1.184.952a2.881,2.881,0,0,0,.6,1.843A2.064,2.064,0,0,0-4.7-.806a2.007,2.007,0,0,0,1.678-.757,2.9,2.9,0,0,0,.592-1.843v-.952a2.868,2.868,0,0,0-.6-1.855,2.051,2.051,0,0,0-1.7-.745,2.044,2.044,0,0,0-1.7.751,2.874,2.874,0,0,0-.6,1.849Zm-6.262,1.929-.9-.586,8.679-13.892.9.586Z" transform="translate(2347 -138)" fill="#2c3644"/>
    <g id="Rectangle_34-11" data-name="Rectangle 34" transform="translate(2349 -130)" fill="#fff" stroke="#707070" stroke-width="2">
      <rect width="60" height="24" rx="10" stroke="none"/>
      <rect x="1" y="1" width="58" height="22" rx="9" fill="none"/>
    </g>
    <path id="Rectangle_35-11" data-name="Rectangle 35" d="M0,0H0A2,2,0,0,1,2,2V8a2,2,0,0,1-2,2H0a0,0,0,0,1,0,0V0A0,0,0,0,1,0,0Z" transform="translate(2411 -123)" fill="#737373"/>
    <path id="Path_119" data-name="Path 119" d="M-20.16-6.274a7.2,7.2,0,0,1-1.471,4.785A5,5,0,0,1-25.666.256,5.041,5.041,0,0,1-29.718-1.5a7.141,7.141,0,0,1-1.489-4.779V-11.5a7.186,7.186,0,0,1,1.477-4.773A5,5,0,0,1-25.69-18.03a5.015,5.015,0,0,1,4.047,1.758A7.166,7.166,0,0,1-20.16-11.5Zm-1.465-5.457a5.875,5.875,0,0,0-1.056-3.693,3.584,3.584,0,0,0-3.009-1.361A3.578,3.578,0,0,0-28.7-15.417a5.88,5.88,0,0,0-1.056,3.687v5.676a5.891,5.891,0,0,0,1.068,3.693A3.592,3.592,0,0,0-25.666-.977a3.536,3.536,0,0,0,2.991-1.379,5.958,5.958,0,0,0,1.05-3.7Zm4.486-2.625a3.757,3.757,0,0,1,.958-2.612A3.233,3.233,0,0,1-13.66-18.03a3.219,3.219,0,0,1,2.509,1.062,3.757,3.757,0,0,1,.958,2.612v.94a3.732,3.732,0,0,1-.952,2.594,3.2,3.2,0,0,1-2.49,1.056,3.275,3.275,0,0,1-2.539-1.056,3.7,3.7,0,0,1-.964-2.594Zm1.172.94a2.843,2.843,0,0,0,.6,1.831,2.082,2.082,0,0,0,1.727.757,2.007,2.007,0,0,0,1.678-.757,2.881,2.881,0,0,0,.592-1.831v-.94a2.912,2.912,0,0,0-.6-1.843,2.024,2.024,0,0,0-1.7-.769,2.041,2.041,0,0,0-1.7.769,2.893,2.893,0,0,0-.6,1.843ZM-8.2-4.358a3.741,3.741,0,0,1,.958-2.6A3.233,3.233,0,0,1-4.724-8.02,3.238,3.238,0,0,1-2.209-6.958a3.727,3.727,0,0,1,.964,2.6v.952A3.735,3.735,0,0,1-2.2-.8,3.214,3.214,0,0,1-4.7.256,3.275,3.275,0,0,1-7.239-.8,3.721,3.721,0,0,1-8.2-3.406Zm1.184.952a2.881,2.881,0,0,0,.6,1.843A2.064,2.064,0,0,0-4.7-.806a2.007,2.007,0,0,0,1.678-.757,2.9,2.9,0,0,0,.592-1.843v-.952a2.868,2.868,0,0,0-.6-1.855,2.051,2.051,0,0,0-1.7-.745,2.044,2.044,0,0,0-1.7.751,2.874,2.874,0,0,0-.6,1.849Zm-6.262,1.929-.9-.586,8.679-13.892.9.586Z" transform="translate(2347 -108)" fill="#2c3644"/>
  </g>
</svg>
