<svg xmlns="http://www.w3.org/2000/svg" width="30" height="30" viewBox="0 0 30 30">
  <g id="info" transform="translate(-106 -543)">
    <path id="Union_10" data-name="Union 10" d="M4,30a5.005,5.005,0,0,1-5-5V5A5.006,5.006,0,0,1,4,0H24a5.005,5.005,0,0,1,5,5V25a5.005,5.005,0,0,1-5,5ZM0,5V25a4,4,0,0,0,4,4H24a4,4,0,0,0,4-4V5a4,4,0,0,0-4-4H4A4.005,4.005,0,0,0,0,5ZM17,25.5A1.5,1.5,0,0,1,15.5,24V22A1.5,1.5,0,0,1,17,20.5h6A1.5,1.5,0,0,1,24.5,22v2A1.5,1.5,0,0,1,23,25.5Zm-13,0A1.5,1.5,0,0,1,2.5,24V22A1.5,1.5,0,0,1,4,20.5h6A1.5,1.5,0,0,1,11.5,22v2A1.5,1.5,0,0,1,10,25.5Zm13-8A1.5,1.5,0,0,1,15.5,16V14A1.5,1.5,0,0,1,17,12.5h6A1.5,1.5,0,0,1,24.5,14v2A1.5,1.5,0,0,1,23,17.5Zm-13,0A1.5,1.5,0,0,1,2.5,16V14A1.5,1.5,0,0,1,4,12.5h6A1.5,1.5,0,0,1,11.5,14v2A1.5,1.5,0,0,1,10,17.5Zm0-9A1.5,1.5,0,0,1,2.5,7V5A1.5,1.5,0,0,1,4,3.5H23A1.5,1.5,0,0,1,24.5,5V7A1.5,1.5,0,0,1,23,8.5Z" transform="translate(107 543)"/>
    <g id="Group_2" data-name="Group 2" transform="translate(39)">
      <g id="Path_4" data-name="Path 4" transform="translate(70 555)" fill="#fff">
        <path d="M 8 5.5 L 2 5.5 C 1.172899961471558 5.5 0.5 4.827099800109863 0.5 4 L 0.5 2 C 0.5 1.172899961471558 1.172899961471558 0.5 2 0.5 L 8 0.5 C 8.827099800109863 0.5 9.5 1.172899961471558 9.5 2 L 9.5 4 C 9.5 4.827099800109863 8.827099800109863 5.5 8 5.5 Z" stroke="none"/>
        <path d="M 2 1 C 1.448599815368652 1 1 1.448599815368652 1 2 L 1 4 C 1 4.551400184631348 1.448599815368652 5 2 5 L 8 5 C 8.551400184631348 5 9 4.551400184631348 9 4 L 9 2 C 9 1.448599815368652 8.551400184631348 1 8 1 L 2 1 M 2 0 L 8 0 C 9.104570388793945 0 10 0.8954300880432129 10 2 L 10 4 C 10 5.104569911956787 9.104570388793945 6 8 6 L 2 6 C 0.8954296112060547 6 0 5.104569911956787 0 4 L 0 2 C 0 0.8954300880432129 0.8954296112060547 0 2 0 Z" stroke="none" fill="#000"/>
      </g>
      <g id="Path_5" data-name="Path 5" transform="translate(70 563)" fill="#fff">
        <path d="M 8 5.5 L 2 5.5 C 1.172899961471558 5.5 0.5 4.827099800109863 0.5 4 L 0.5 2 C 0.5 1.172899961471558 1.172899961471558 0.5 2 0.5 L 8 0.5 C 8.827099800109863 0.5 9.5 1.172899961471558 9.5 2 L 9.5 4 C 9.5 4.827099800109863 8.827099800109863 5.5 8 5.5 Z" stroke="none"/>
        <path d="M 2 1 C 1.448599815368652 1 1 1.448599815368652 1 2 L 1 4 C 1 4.551400184631348 1.448599815368652 5 2 5 L 8 5 C 8.551400184631348 5 9 4.551400184631348 9 4 L 9 2 C 9 1.448599815368652 8.551400184631348 1 8 1 L 2 1 M 2 0 L 8 0 C 9.104570388793945 0 10 0.8954300880432129 10 2 L 10 4 C 10 5.104569911956787 9.104570388793945 6 8 6 L 2 6 C 0.8954296112060547 6 0 5.104569911956787 0 4 L 0 2 C 0 0.8954300880432129 0.8954296112060547 0 2 0 Z" stroke="none" fill="#000"/>
      </g>
      <g id="Path_3" data-name="Path 3" transform="translate(83 555)" fill="#fff">
        <path d="M 8 5.5 L 2 5.5 C 1.172899961471558 5.5 0.5 4.827099800109863 0.5 4 L 0.5 2 C 0.5 1.172899961471558 1.172899961471558 0.5 2 0.5 L 8 0.5 C 8.827099800109863 0.5 9.5 1.172899961471558 9.5 2 L 9.5 4 C 9.5 4.827099800109863 8.827099800109863 5.5 8 5.5 Z" stroke="none"/>
        <path d="M 2 1 C 1.448599815368652 1 1 1.448599815368652 1 2 L 1 4 C 1 4.551400184631348 1.448599815368652 5 2 5 L 8 5 C 8.551400184631348 5 9 4.551400184631348 9 4 L 9 2 C 9 1.448599815368652 8.551400184631348 1 8 1 L 2 1 M 2 0 L 8 0 C 9.104570388793945 0 10 0.8954300880432129 10 2 L 10 4 C 10 5.104569911956787 9.104570388793945 6 8 6 L 2 6 C 0.8954296112060547 6 0 5.104569911956787 0 4 L 0 2 C 0 0.8954300880432129 0.8954296112060547 0 2 0 Z" stroke="none" fill="#000"/>
      </g>
      <g id="Path_6" data-name="Path 6" transform="translate(83 563)" fill="#fff">
        <path d="M 8 5.5 L 2 5.5 C 1.172899961471558 5.5 0.5 4.827099800109863 0.5 4 L 0.5 2 C 0.5 1.172899961471558 1.172899961471558 0.5 2 0.5 L 8 0.5 C 8.827099800109863 0.5 9.5 1.172899961471558 9.5 2 L 9.5 4 C 9.5 4.827099800109863 8.827099800109863 5.5 8 5.5 Z" stroke="none"/>
        <path d="M 2 1 C 1.448599815368652 1 1 1.448599815368652 1 2 L 1 4 C 1 4.551400184631348 1.448599815368652 5 2 5 L 8 5 C 8.551400184631348 5 9 4.551400184631348 9 4 L 9 2 C 9 1.448599815368652 8.551400184631348 1 8 1 L 2 1 M 2 0 L 8 0 C 9.104570388793945 0 10 0.8954300880432129 10 2 L 10 4 C 10 5.104569911956787 9.104570388793945 6 8 6 L 2 6 C 0.8954296112060547 6 0 5.104569911956787 0 4 L 0 2 C 0 0.8954300880432129 0.8954296112060547 0 2 0 Z" stroke="none" fill="#000"/>
      </g>
      <g id="Path_2" data-name="Path 2" transform="translate(70 546)" fill="#16c0f3">
        <path d="M 21 5.5 L 2 5.5 C 1.172899961471558 5.5 0.5 4.827099800109863 0.5 4 L 0.5 2 C 0.5 1.172899961471558 1.172899961471558 0.5 2 0.5 L 21 0.5 C 21.82710075378418 0.5 22.5 1.172899961471558 22.5 2 L 22.5 4 C 22.5 4.827099800109863 21.82710075378418 5.5 21 5.5 Z" stroke="none"/>
        <path d="M 2 1 C 1.448600769042969 1 1 1.448599815368652 1 2 L 1 4 C 1 4.551400184631348 1.448600769042969 5 2 5 L 21 5 C 21.55139923095703 5 22 4.551400184631348 22 4 L 22 2 C 22 1.448599815368652 21.55139923095703 1 21 1 L 2 1 M 2 0 L 21 0 C 22.10457038879395 0 23 0.8954300880432129 23 2 L 23 4 C 23 5.104569911956787 22.10457038879395 6 21 6 L 2 6 C 0.8954296112060547 6 0 5.104569911956787 0 4 L 0 2 C 0 0.8954300880432129 0.8954296112060547 0 2 0 Z" stroke="none" fill="#000"/>
      </g>
    </g>
  </g>
</svg>
