<svg xmlns="http://www.w3.org/2000/svg" width="640.053" height="640.038" viewBox="0 0 640.053 640.038">
  <path id="Union_1" data-name="Union 1" d="M437.505,770.555A320.007,320.007,0,1,1,609.571,172.832v-.023h0A319.978,319.978,0,0,1,451.382,770.852Q444.461,770.852,437.505,770.555Zm106.161-66.177A271.545,271.545,0,0,0,695.58,564.786c42.714-92.115,31.542-204.728-37.922-287.512a270.994,270.994,0,0,0-26.98-27.853l-.106.117a268.94,268.94,0,0,0-171.433-68.585l-.005.138a269.934,269.934,0,1,0,84.533,523.287Z" transform="translate(-130.799 -130.814)"/>
</svg>
