<?xml version="1.0" encoding="iso-8859-1"?>
<!-- Generator: Adobe Illustrator 19.0.0, SVG Export Plug-In . SVG Version: 6.00 Build 0)  -->
<svg version="1.1" id="Capa_1" xmlns="http://www.w3.org/2000/svg" xmlns:xlink="http://www.w3.org/1999/xlink" x="0px" y="0px"
	 viewBox="0 0 512 512" style="enable-background:new 0 0 512 512;" xml:space="preserve">
<g>
	<g>
		<path d="M453.806,76.806l-36.483-36.484c-3.909-3.908-10.246-3.908-14.154,0c-3.908,3.908-3.909,10.246,0,14.154l36.483,36.484
			c1.955,1.955,4.516,2.932,7.077,2.932c2.561,0,5.123-0.978,7.077-2.932C457.715,87.051,457.716,80.714,453.806,76.806z"/>
	</g>
</g>
<g>
	<g>
		<path d="M465.279,92.423c-12.88,0-12.901,20.018,0,20.018C478.16,112.441,478.181,92.423,465.279,92.423z"/>
	</g>
</g>
<g>
	<g>
		<path d="M498.575,65.896l-52.463-52.453C437.451,4.774,425.932,0,413.677,0s-23.774,4.774-32.434,13.44L351.11,43.562
			c-0.002,0.002-0.003,0.003-0.005,0.005L40.712,353.96c-1.344,1.345-2.217,2.982-2.636,4.706L0.36,499.4
			c-0.926,3.454,0.062,7.139,2.59,9.669C4.852,510.97,7.408,512,10.027,512c0.864,0,1.735-0.112,2.59-0.341l140.944-37.773
			c0.029-0.008,0.055-0.021,0.084-0.028c0.392-0.108,0.78-0.237,1.159-0.394c0.026-0.011,0.05-0.024,0.075-0.035
			c0.338-0.143,0.669-0.31,0.993-0.492c0.09-0.051,0.178-0.104,0.266-0.157c0.26-0.157,0.513-0.328,0.762-0.511
			c0.084-0.062,0.17-0.12,0.251-0.185c0.309-0.243,0.611-0.501,0.895-0.787l0.001-0.001l310.387-310.377
			c0.002-0.002,0.004-0.003,0.005-0.005l30.138-30.139C516.45,112.887,516.45,83.785,498.575,65.896z M358.182,64.799l37.439,37.442
			L99.386,398.477l-37.441-37.44L358.182,64.799z M24.183,487.835l9.911-36.981l27.07,27.07L24.183,487.835z M83.49,471.941
			l-43.413-43.413l12.903-48.145L92.3,419.703c0.002,0.002,0.004,0.005,0.007,0.008s0.005,0.004,0.008,0.007l39.321,39.321
			L83.49,471.941z M150.971,450.064l-37.431-37.431l296.235-296.235l37.434,37.437L150.971,450.064z M484.423,116.622
			l-23.058,23.059l-44.462-44.467c-0.016-0.016-0.03-0.034-0.046-0.051s-0.034-0.03-0.051-0.046l-44.467-44.471L395.4,27.592
			c4.881-4.884,11.372-7.575,18.277-7.575c6.905,0,13.396,2.69,18.281,7.579l52.463,52.452
			C494.498,90.132,494.498,106.54,484.423,116.622z"/>
	</g>
</g>
<g>
</g>
<g>
</g>
<g>
</g>
<g>
</g>
<g>
</g>
<g>
</g>
<g>
</g>
<g>
</g>
<g>
</g>
<g>
</g>
<g>
</g>
<g>
</g>
<g>
</g>
<g>
</g>
<g>
</g>
</svg>
