<svg id="Capa_1" enable-background="new 0 0 512.002 512.002" height="512" viewBox="0 0 512.002 512.002" width="512" xmlns="http://www.w3.org/2000/svg"><g><g><path d="m202.787 100h20.713v67.745c0 11.717 9.532 21.25 21.25 21.25h22.501c11.717 0 21.25-9.533 21.25-21.25v-67.745h20.709.009c6.466 0 12.245-3.686 15.082-9.619 2.888-6.042 2.08-13.016-2.105-18.196l-53.112-65.829c-3.171-4.003-7.893-6.319-12.968-6.355-.042 0-.082 0-.123 0-5.048 0-9.769 2.264-12.972 6.229l-52.828 65.476c-4.352 5.006-5.414 12.138-2.694 18.272 2.741 6.182 8.599 10.022 15.288 10.022zm53.215-78.008 46.801 58.008h-24.303c-5.523 0-10 4.477-10 10v77.745c0 .666-.584 1.25-1.25 1.25h-22.5c-.666 0-1.25-.584-1.25-1.25v-77.745c0-5.523-4.477-10-10-10h-24.302z"/><path d="m63.493 220.844c2.16 6.272 7.805 10.758 14.477 11.469 6.725.716 12.979-2.437 16.323-8.229l10.356-17.938 58.669 33.873c3.263 1.884 6.888 2.846 10.567 2.846 1.851 0 3.716-.244 5.555-.737 5.492-1.472 10.075-4.983 12.906-9.888l11.251-19.486c5.858-10.148 2.369-23.169-7.778-29.027l-58.669-33.873 10.355-17.936c2.655-4.593 2.956-10.048.826-14.965-2.169-5.006-6.608-8.728-11.874-9.955-5.376-1.25-10.755 2.091-12.009 7.47-.954 4.094.755 8.187 3.998 10.46l-13.617 23.585c-1.326 2.297-1.686 5.026-.999 7.588s2.362 4.746 4.659 6.072l67.33 38.873c.576.333.79 1.13.457 1.707l-11.251 19.486c-.206.356-.528.506-.762.569-.233.063-.588.095-.945-.111l-67.329-38.873c-2.297-1.326-5.025-1.685-7.588-.999-2.562.687-4.746 2.362-6.072 4.659l-12.15 21.045-27.476-71.195c2.873-3.19 3.456-8.004 1.118-11.867-2.86-4.725-9.01-6.235-13.733-3.377-6.903 4.178-9.8 12.698-6.886 20.264z"/><path d="m137.15 362.147 58.668-33.872c10.147-5.858 13.637-18.88 7.778-29.028l-11.25-19.486c-2.831-4.904-7.415-8.416-12.907-9.887s-11.217-.722-16.121 2.109l-58.669 33.872-10.354-17.935c-3.233-5.605-9.322-8.769-15.876-8.259-6.675.52-12.311 4.706-14.706 10.921l-30.452 78.907c-1.883 4.749-1.527 9.998.979 14.413 2.515 4.43 6.865 7.428 11.941 8.226l83.119 13.012c1.079.21 2.164.312 3.24.312 5.418 0 10.634-2.591 13.93-7.114 3.983-5.465 4.38-12.458 1.036-18.252zm-18.661-12.32c-2.297 1.326-3.973 3.51-4.659 6.072-.687 2.562-.327 5.292.999 7.588l12.151 21.045-73.638-11.528 26.836-69.536 12.151 21.047c2.761 4.783 8.876 6.421 13.66 3.66l67.33-38.872c.355-.205.711-.173.944-.111.235.063.557.212.763.568l11.25 19.486c.333.577.119 1.375-.458 1.708z"/><path d="m309.214 412.002h-20.713v-67.745c0-11.717-9.532-21.25-21.25-21.25h-22.501c-11.717 0-21.25 9.532-21.25 21.25v67.745h-20.709c-.003 0-.006 0-.009 0-6.467 0-12.246 3.686-15.083 9.62-2.888 6.042-2.079 13.016 2.106 18.196l53.111 65.828c3.171 4.003 7.894 6.319 12.969 6.356h.123c5.048 0 9.769-2.264 12.972-6.229l52.827-65.476c4.352-5.006 5.415-12.138 2.695-18.272-2.741-6.183-8.599-10.023-15.288-10.023zm-53.214 78.008-46.802-58.008h24.302c5.523 0 10-4.477 10-10v-77.745c0-.666.584-1.25 1.25-1.25h22.501c.666 0 1.25.584 1.25 1.25v77.745c0 5.523 4.477 10 10 10h24.301z"/><path d="m478.8 369.646-30.291-78.488c-2.159-6.272-7.805-10.758-14.477-11.469-6.73-.716-12.979 2.437-16.323 8.229l-10.357 17.938-58.669-33.872c-4.904-2.832-10.629-3.582-16.121-2.11-5.491 1.471-10.075 4.982-12.906 9.887l-11.251 19.487c-5.858 10.148-2.369 23.169 7.778 29.027l58.669 33.873-10.354 17.935c-3.238 5.602-2.938 12.453.785 17.879 3.265 4.76 8.503 7.487 14.101 7.487.896 0 1.802-.07 2.709-.212l83.563-13.082c5.054-.744 9.42-3.676 11.99-8.054 2.58-4.393 3.001-9.66 1.154-14.455zm-93.779 14.888 12.151-21.046c2.762-4.783 1.123-10.899-3.66-13.66l-67.33-38.873c-.576-.333-.79-1.13-.457-1.707l11.25-19.486c.206-.356.528-.506.762-.569.098-.026.218-.047.35-.047.182 0 .388.04.595.159l67.329 38.872c4.781 2.762 10.898 1.123 13.66-3.66l12.151-21.045 26.835 69.536z"/><path d="m374.852 149.854-58.669 33.873c-10.147 5.859-13.637 18.88-7.778 29.028l11.25 19.485c2.832 4.905 7.416 8.416 12.907 9.888 1.839.493 3.704.736 5.555.736 3.678 0 7.304-.962 10.565-2.846l58.669-33.872 10.354 17.935c3.232 5.605 9.317 8.767 15.876 8.26 6.676-.52 12.312-4.707 14.706-10.921l30.452-78.908c1.883-4.749 1.527-9.997-.979-14.412-2.515-4.43-6.865-7.427-11.941-8.226l-83.118-13.012c-6.509-1.266-13.219 1.38-17.171 6.803-3.983 5.465-4.38 12.459-1.035 18.251zm18.66 12.321c4.783-2.761 6.422-8.877 3.66-13.66l-12.15-21.045 73.638 11.528-26.836 69.536-12.151-21.046c-2.761-4.784-8.878-6.422-13.66-3.66l-67.33 38.872c-.356.205-.71.173-.944.111-.234-.063-.557-.212-.763-.568l-11.25-19.486c-.333-.577-.119-1.375.458-1.708z"/><path d="m89.654 133.191c5.523 0 10-4.477 10-10s-4.477-10-10-10h-.007c-5.523 0-9.996 4.477-9.996 10s4.48 10 10.003 10z"/></g></g></svg>