<svg xmlns="http://www.w3.org/2000/svg" width="408.006" height="496.005" viewBox="0 0 408.006 496.005">
  <g id="uploadSound" transform="translate(-56 -7.995)">
    <path id="Path_289" data-name="Path 289" d="M376,8a88.023,88.023,0,0,0-75.67,43.13A104,104,0,0,0,112,112V272a104,104,0,1,0,208,0V163.83A87.983,87.983,0,1,0,376,8ZM304,152V272a88.091,88.091,0,0,1-48,78.37c0-34.788-16-34.788-16,6.3a86.4,86.4,0,0,1-16,2.96c0-68.048-16-68.048-16,0a86.4,86.4,0,0,1-16-2.96c0-41.088-16-41.088-16-6.3A88.091,88.091,0,0,1,128,272V112a88.091,88.091,0,0,1,48-78.37c0,34.788,16,34.788,16-6.3a86.4,86.4,0,0,1,16-2.96c0,68.048,16,68.048,16,0a88.168,88.168,0,0,1,16,2.95c0,41.1,16,41.1,16,6.27a88.406,88.406,0,0,1,36.44,34.79A88.139,88.139,0,0,0,291.33,120c-15.748,0-15.748,16,4.67,16a14.812,14.812,0,0,0,1.55-.15s4.05,7.257,6.45,10.65Zm72,16a72,72,0,1,1,72-72A72,72,0,0,1,376,168Z"/>
    <path id="Path_290" data-name="Path 290" d="M421.255,88H384V50.745a8,8,0,1,0-16,0V88H330.745a8,8,0,0,0,0,16H368v37.255a8,8,0,0,0,16,0V104h37.255a8,8,0,0,0,0-16Z"/>
    <path id="Path_291" data-name="Path 291" d="M216,120a8,8,0,0,0-8,8V256a8,8,0,0,0,16,0V128A8,8,0,0,0,216,120Z"/>
    <path id="Path_292" data-name="Path 292" d="M352,184a24.027,24.027,0,0,0-24,24v64A112.136,112.136,0,0,1,216,384h-.66C153.948,383.645,104,332.811,104,270.68V208a24,24,0,0,0-48,0v62.529c0,80.717,59.151,147.91,136,159.648V456H120a8,8,0,0,0-7.761,6.06l-8,32A8,8,0,0,0,112,504H320a8,8,0,0,0,7.761-9.94l-8-32A8,8,0,0,0,312,456H240V430.213A160.28,160.28,0,0,0,376,272V208A24.027,24.027,0,0,0,352,184ZM305.754,472l4,16H122.246l4-16ZM208,456V432h16v24ZM360,272A144.172,144.172,0,0,1,216,416h-.409C136.415,415.779,72,350.521,72,270.529V208a8,8,0,0,1,16,0v62.68C88,341.58,145.085,399.594,215.252,400A128.135,128.135,0,0,0,344,272V208a8,8,0,0,1,16,0Z"/>
  </g>
</svg>
