<svg id="Capa_1" enable-background="new 0 0 510 510" height="512" viewBox="0 0 510 510" width="512" xmlns="http://www.w3.org/2000/svg"><path id="XMLID_1160_" d="m143 358.471v-82h367v-103.485h-367v-5.509c0-25.741-5.774-51.667-16.7-74.976l-43.3-92.371-43.3 92.372c-10.926 23.309-16.7 49.234-16.7 74.976v190.993h44v61.035h-67v90.364h510v-90.364h-83v-26.368h21.333v-30h-72.666v30h21.333v26.368h-127v-26.368h21.333v-30h-72.666v30h21.333v26.368h-143v-61.035zm337 121.399h-450v-30.364h450zm0-233.399h-46v-43.484h46zm-76-43.485v43.484h-261v-43.484zm-351-35.508c0-21.369 4.794-42.893 13.864-62.243l16.136-34.423 16.136 34.423c9.07 19.351 13.864 40.874 13.864 62.243v160.993h-60z"/></svg>