<svg id="Capa_1" enable-background="new 0 0 512 512" height="512" viewBox="0 0 512 512" width="512" xmlns="http://www.w3.org/2000/svg"><g><path d="m464.5 0h-14.643c-4.143 0-7.5 3.358-7.5 7.5s3.357 7.5 7.5 7.5h14.643c17.921 0 32.5 14.58 32.5 32.5v69h-482v-69c0-17.92 14.579-32.5 32.5-32.5h367.357c4.143 0 7.5-3.358 7.5-7.5s-3.357-7.5-7.5-7.5h-367.357c-26.191 0-47.5 21.309-47.5 47.5v311.857c0 4.142 3.357 7.5 7.5 7.5s7.5-3.358 7.5-7.5v-227.857h482v333c0 17.92-14.579 32.5-32.5 32.5h-417c-17.921 0-32.5-14.58-32.5-32.5v-70.143c0-4.142-3.357-7.5-7.5-7.5s-7.5 3.358-7.5 7.5v70.143c0 26.191 21.309 47.5 47.5 47.5h417c26.191 0 47.5-21.309 47.5-47.5 0-13.164 0-407.617 0-417 0-26.191-21.309-47.5-47.5-47.5z"/><path d="m66 148.25c-12.406 0-22.5 10.093-22.5 22.5v104.109c-8.314.267-15 7.097-15 15.475v24c0 8.378 6.686 15.208 15 15.475v125.941c0 12.407 10.094 22.5 22.5 22.5s22.5-10.093 22.5-22.5v-125.942c8.314-.267 15-7.097 15-15.475v-24c0-8.378-6.686-15.208-15-15.475v-104.108c0-12.407-10.094-22.5-22.5-22.5zm-7.5 22.5c0-4.136 3.364-7.5 7.5-7.5s7.5 3.364 7.5 7.5v104.083h-15zm15 285c0 4.136-3.364 7.5-7.5 7.5s-7.5-3.364-7.5-7.5v-125.917h15zm15-141.417c0 .276-.225.5-.5.5-19.038 0-23.938 0-44 0-.275 0-.5-.224-.5-.5 0-25.091-.318-24.5.5-24.5h44c.275 0 .5.224.5.5z"/><path d="m160.307 148.25c-12.406 0-22.5 10.093-22.5 22.5v19.069c-8.314.267-15 7.097-15 15.475v24c0 8.378 6.686 15.208 15 15.475v210.981c0 12.407 10.094 22.5 22.5 22.5s22.5-10.093 22.5-22.5v-210.981c8.314-.267 15-7.097 15-15.475v-24c0-8.378-6.686-15.208-15-15.475v-19.069c0-12.407-10.094-22.5-22.5-22.5zm-7.5 22.5c0-4.136 3.364-7.5 7.5-7.5s7.5 3.364 7.5 7.5v19.044h-15zm15 285c0 4.136-3.364 7.5-7.5 7.5s-7.5-3.364-7.5-7.5v-210.956h15zm15-226.456c0 .832 1.648.5-44.5.5-.275 0-.5-.224-.5-.5v-24c0-.276.225-.5.5-.5h44c.275 0 .5.224.5.5z"/><path d="m257.387 148.25c-12.406 0-22.5 10.093-22.5 22.5v160.802c-8.314.267-15 7.097-15 15.475v24c0 8.378 6.686 15.208 15 15.475v69.249c0 12.407 10.094 22.5 22.5 22.5s22.5-10.093 22.5-22.5v-69.249c8.314-.267 15-7.097 15-15.475v-24c0-8.378-6.686-15.208-15-15.475v-160.802c0-12.407-10.094-22.5-22.5-22.5zm-7.5 22.5c0-4.136 3.364-7.5 7.5-7.5s7.5 3.364 7.5 7.5v160.776h-15zm15 285c0 4.136-3.364 7.5-7.5 7.5s-7.5-3.364-7.5-7.5v-69.224h15zm15-84.724c0 .276-.225.5-.5.5-19.038 0-23.938 0-44 0-.275 0-.5-.224-.5-.5v-24c0-.276.225-.5.5-.5h44c.275 0 .5.224.5.5z"/><path d="m351.693 148.25c-12.406 0-22.5 10.093-22.5 22.5v19.069c-8.314.267-15 7.097-15 15.475v24c0 8.378 6.686 15.208 15 15.475v210.981c0 12.407 10.094 22.5 22.5 22.5s22.5-10.093 22.5-22.5v-210.981c8.314-.267 15-7.097 15-15.475v-24c0-8.378-6.686-15.208-15-15.475v-19.069c0-12.407-10.093-22.5-22.5-22.5zm-7.5 22.5c0-4.136 3.364-7.5 7.5-7.5s7.5 3.364 7.5 7.5v19.044h-15zm15 285c0 4.136-3.364 7.5-7.5 7.5s-7.5-3.364-7.5-7.5v-210.956h15zm15-226.456c0 .276-.225.5-.5.5-19.038 0-23.938 0-44 0-.275 0-.5-.224-.5-.5v-24c0-.276.225-.5.5-.5h44c.275 0 .5.224.5.5z"/><path d="m446 148.25c-12.406 0-22.5 10.093-22.5 22.5v75.762c-8.314.267-15 7.097-15 15.475v24c0 8.378 6.686 15.208 15 15.475v154.288c0 12.407 10.094 22.5 22.5 22.5s22.5-10.093 22.5-22.5v-154.289c8.314-.267 15-7.097 15-15.475v-24c0-8.378-6.686-15.208-15-15.475v-75.761c0-12.407-10.094-22.5-22.5-22.5zm-7.5 22.5c0-4.136 3.364-7.5 7.5-7.5s7.5 3.364 7.5 7.5v75.737h-15zm15 285c0 4.135-3.364 7.5-7.5 7.5s-7.5-3.365-7.5-7.5v-154.263h15zm15-169.763c0 .276-.225.5-.5.5-19.038 0-23.938 0-44 0-.275 0-.5-.224-.5-.5v-24c0-.276.225-.5.5-.5h44c.275 0 .5.224.5.5z"/><path d="m290.333 43.75v44c0 7.444 6.056 13.5 13.5 13.5h155.837c7.444 0 13.5-6.056 13.5-13.5v-44c0-7.444-6.056-13.5-13.5-13.5h-155.837c-7.444 0-13.5 6.056-13.5 13.5zm15 1.5h152.837v41h-152.837z"/><path d="m38.83 65.75c0 19.575 15.925 35.5 35.5 35.5s35.5-15.925 35.5-35.5-15.925-35.5-35.5-35.5-35.5 15.925-35.5 35.5zm56 0c0 11.304-9.196 20.5-20.5 20.5s-20.5-9.196-20.5-20.5 9.196-20.5 20.5-20.5 20.5 9.196 20.5 20.5z"/><path d="m128.652 65.75c0 19.575 15.925 35.5 35.5 35.5s35.5-15.925 35.5-35.5-15.925-35.5-35.5-35.5-35.5 15.925-35.5 35.5zm56 0c0 11.304-9.196 20.5-20.5 20.5s-20.5-9.196-20.5-20.5 9.196-20.5 20.5-20.5 20.5 9.196 20.5 20.5z"/><path d="m231.848 30.25c-7.444 0-13.5 6.056-13.5 13.5v44c0 7.444 6.056 13.5 13.5 13.5h26.163c7.444 0 13.5-6.056 13.5-13.5v-44c0-7.444-6.056-13.5-13.5-13.5zm24.663 56h-23.163v-41h23.163z"/></g></svg>