<svg xmlns="http://www.w3.org/2000/svg" width="30" height="30" viewBox="0 0 30 30">
  <g id="_25" data-name="25" transform="translate(757 -4324)">
    <rect id="Rectangle_94" data-name="Rectangle 94" width="7" height="8" transform="translate(-735 4335)" fill="#e7ff6e"/>
    <rect id="Rectangle_95" data-name="Rectangle 95" width="1" height="8" transform="translate(-742 4335)"/>
    <rect id="Rectangle_96" data-name="Rectangle 96" width="1" height="8" transform="translate(-735 4335)"/>
    <rect id="Rectangle_97" data-name="Rectangle 97" width="1" height="8" transform="translate(-749 4335)"/>
    <path id="Subtraction_3" data-name="Subtraction 3" d="M-869,3771h-20a5.006,5.006,0,0,1-5-5v-20a5.006,5.006,0,0,1,5-5h20a5.006,5.006,0,0,1,5,5v20A5.006,5.006,0,0,1-869,3771Zm-24-10v5a4,4,0,0,0,4,4h20a4,4,0,0,0,4-4v-5Zm0-9v8h28v-8Zm4-10a4,4,0,0,0-4,4v5h28v-5a4,4,0,0,0-4-4Z" transform="translate(137 583)"/>
  </g>
</svg>
