<svg xmlns="http://www.w3.org/2000/svg" width="512" height="512" viewBox="0 0 512 512">
  <g id="Group_103" data-name="Group 103" transform="translate(-1346 -4750)">
<!--    <path id="Union_13" data-name="Union 13" d="M0,208.869V59.329L44.7,17.88H81.068l1.62,3.392L125.515,0l43.531,56.077L217,0h16.255L217.944,91.838H230v79.646l-142.227,6.5-16.254,8.127v22.756ZM148.728,104.841l37.385,5.689L199.93,91.838h7.276L156.855,62.58,127.076,91.191Z" transform="translate(1352.978 5041.921)" fill="#ffef1e" stroke="#707070" stroke-width="1"/>-->
<!--    <path id="Path_288" data-name="Path 288" d="M1519.116,5113.683l31.354,18.45-14.629,29.258,14.629,57.7-58.516,4.064,13-61.767-19.505-36.573Z" fill="#ff9f1e" stroke="#707070" stroke-width="1"/>-->
<!--    <path id="Path_285" data-name="Path 285" d="M1438.923,4839.147h26.007l9.753-28.445h91.838l7.314,22.756,22.756,9.753,10.565-53.64-22.756-28.445h-119.47l-30.883,34.134Z" fill="#ff9f1e" stroke="#707070" stroke-width="1"/>-->
    <path id="Path_276" data-name="Path 276" d="M147.493,140.033v-8.282a7.5,7.5,0,0,0-15,0v8.282a7.5,7.5,0,0,0,15,0Z" transform="translate(1346 4750)"/>
    <path id="Path_277" data-name="Path 277" d="M206.242,147.533a7.5,7.5,0,0,0,7.5-7.5v-8.282a7.5,7.5,0,1,0-15,0v8.282A7.5,7.5,0,0,0,206.242,147.533Z" transform="translate(1346 4750)"/>
    <path id="Path_278" data-name="Path 278" d="M201.126,187.28a7.5,7.5,0,1,0-12.984-7.512,17.348,17.348,0,0,1-30.052,0,7.5,7.5,0,1,0-12.984,7.51,32.348,32.348,0,0,0,56.02,0Z" transform="translate(1346 4750)"/>
    <path id="Path_279" data-name="Path 279" d="M512,272.566A24.091,24.091,0,0,0,487.938,248.5H304.018a7.5,7.5,0,1,0,0,15h183.92A9.074,9.074,0,0,1,497,272.566V454.792a9.074,9.074,0,0,1-9.062,9.067H256.07a9.074,9.074,0,0,1-9.062-9.067V272.566a9.075,9.075,0,0,1,9.062-9.066h17.947a7.5,7.5,0,0,0,0-15H256.07a24.091,24.091,0,0,0-24.062,24.066v15.485l-9.985-4V249.077a90.411,90.411,0,0,0,41.091-68.407h9.376A24.091,24.091,0,0,0,296.552,156.6V123.469A24.091,24.091,0,0,0,272.49,99.4h-9.062V48.917A48.967,48.967,0,0,0,214.523,0H131.714A48.967,48.967,0,0,0,82.808,48.917V99.4H73.746a24.091,24.091,0,0,0-24.062,24.066V156.6a24.091,24.091,0,0,0,24.062,24.067h9.377a90.408,90.408,0,0,0,41.089,68.407v34.979L88.862,298.2l-15.118,0A73.839,73.839,0,0,0,0,371.967v57.739a7.5,7.5,0,0,0,15,0V371.967A58.821,58.821,0,0,1,73.745,313.2H85.229l27.449,68.638a15.77,15.77,0,0,0,23.407,7.272l1.525-1.017,11.1,18.5-9.542,57.268H82.17a15.8,15.8,0,0,0-15.781,15.783v16.566c0,.267.027.527.04.791H15.781a.783.783,0,0,1-.781-.783V459.706a7.5,7.5,0,0,0-15,0v36.511A15.8,15.8,0,0,0,15.781,512l480.719-.008a15.517,15.517,0,0,0,15.5-15.5V479.359a15.44,15.44,0,0,0-4.37-10.763,23.93,23.93,0,0,0,4.37-13.8ZM207.074,463.859l-9.542-57.268,11.1-18.495,1.524,1.016a15.767,15.767,0,0,0,21.858-4.352v70.031a23.916,23.916,0,0,0,1.779,9.067H207.074Zm24.934-118.544L219.629,376.27a.738.738,0,0,1-.494.457.728.728,0,0,1-.663-.1L183.336,353.2l34.225-54.777,14.448,5.781v41.109ZM272.49,114.4a9.074,9.074,0,0,1,9.062,9.067V156.6a9.074,9.074,0,0,1-9.062,9.066h-9.062V114.4ZM131.714,15h82.809a33.95,33.95,0,0,1,33.9,33.917V82.834h-9.061a9.074,9.074,0,0,1-9.062-9.066V64.7h.783a7.5,7.5,0,0,0,0-15H115.151a7.5,7.5,0,0,0,0,15h.78v9.067a9.074,9.074,0,0,1-9.062,9.066h-9.06V48.916A33.948,33.948,0,0,1,131.714,15ZM64.684,156.6V123.468a9.074,9.074,0,0,1,9.062-9.066h9.062V165.67H73.745a9.076,9.076,0,0,1-9.061-9.068ZM97.809,173.17V97.834h9.06A24.091,24.091,0,0,0,130.93,73.768V64.7H215.3v9.067a24.091,24.091,0,0,0,24.062,24.066h9.061v75.336a75.308,75.308,0,1,1-150.616,0ZM173.118,263.5a89.8,89.8,0,0,0,33.9-6.613v30.094l-33.9,54.267-33.906-54.268V256.889A89.819,89.819,0,0,0,173.118,263.5ZM127.1,376.728a.738.738,0,0,1-.494-.457l-26.551-66.392,28.62-11.453L162.9,353.2l-35.136,23.429a.73.73,0,0,1-.663.1Zm46.018-12.31,23.015,15.347-10.7,17.836H160.8l-10.7-17.837ZM162.91,412.6h20.417l8.54,51.259h-37.5ZM81.388,479.643a.783.783,0,0,1,.781-.783H232.033c-.005.167-.025.331-.025.5v17.133c0,.169.02.333.025.5H82.17a.783.783,0,0,1-.781-.783V479.643ZM497,496.492a.5.5,0,0,1-.5.5H247.508a.5.5,0,0,1-.5-.5V479.359a.5.5,0,0,1,.5-.5H496.5a.5.5,0,0,1,.5.5Z" transform="translate(1346 4750)"/>
    <path id="Path_280" data-name="Path 280" d="M281.694,413.666a15.517,15.517,0,0,0,15.5,15.5h149.62a15.517,15.517,0,0,0,15.5-15.5V313.7a15.517,15.517,0,0,0-15.5-15.5H297.194a15.517,15.517,0,0,0-15.5,15.5Zm15-99.966a.5.5,0,0,1,.5-.5h149.62a.5.5,0,0,1,.5.5v99.966a.5.5,0,0,1-.5.5H297.194a.5.5,0,0,1-.5-.5Z" transform="translate(1346 4750)"/>
    <path id="Path_281" data-name="Path 281" d="M355.442,147.533h8.281a.783.783,0,0,1,.781.783v24.851a15.766,15.766,0,0,0,25.251,12.625l50.792-38.1a.777.777,0,0,1,.465-.154h13.8A40.675,40.675,0,0,0,495.438,106.9V40.634A40.676,40.676,0,0,0,454.814,0H355.442a40.676,40.676,0,0,0-40.624,40.634V106.9a40.674,40.674,0,0,0,40.624,40.633Zm-25.624-106.9A25.658,25.658,0,0,1,355.442,15h99.372a25.658,25.658,0,0,1,25.624,25.634V106.9a25.658,25.658,0,0,1-25.624,25.633h-13.8a15.866,15.866,0,0,0-9.469,3.158l-50.79,38.1a.782.782,0,0,1-1.249-.627V148.314a15.8,15.8,0,0,0-15.781-15.782h-8.281A25.658,25.658,0,0,1,329.818,106.9Z" transform="translate(1346 4750)"/>
    <path id="Path_282" data-name="Path 282" d="M355.442,48.134h99.372a7.5,7.5,0,0,0,0-15H355.442a7.5,7.5,0,0,0,0,15Z" transform="translate(1346 4750)"/>
    <path id="Path_283" data-name="Path 283" d="M355.442,81.267h99.372a7.5,7.5,0,0,0,0-15H355.442a7.5,7.5,0,0,0,0,15Z" transform="translate(1346 4750)"/>
    <path id="Path_284" data-name="Path 284" d="M355.442,114.4h33.124a7.5,7.5,0,0,0,0-15H355.442a7.5,7.5,0,0,0,0,15Z" transform="translate(1346 4750)"/>
  </g>
</svg>
