<?xml version="1.0"?>
<svg xmlns="http://www.w3.org/2000/svg" id="line_Icons" data-name="line Icons" viewBox="0 0 74 74" width="512" height="512"><path d="M67.645,45.811H28.087a2.162,2.162,0,0,1-2.159-2.16V28.182a1,1,0,0,1,2,0V43.651a.158.158,0,0,0,.159.16H67.645a.158.158,0,0,0,.16-.16V16.425H27.928V22.2a1,1,0,0,1-2,0V15.425a1,1,0,0,1,1-1H68.8a1,1,0,0,1,1,1V43.651A2.162,2.162,0,0,1,67.645,45.811Z"/><path d="M14.8,20.029a6.916,6.916,0,1,1,6.917-6.916A6.924,6.924,0,0,1,14.8,20.029ZM14.8,8.2a4.916,4.916,0,1,0,4.917,4.916A4.921,4.921,0,0,0,14.8,8.2Z"/><path d="M11.454,67.8a4.39,4.39,0,0,1-4.4-4.371V42.191a1,1,0,0,1,2,0v21.24A2.391,2.391,0,0,0,11.6,65.8a2.3,2.3,0,0,0,1.7-.965,2.523,2.523,0,0,0,.417-1.262c.053-.58.081-1.17.081-1.754V45.771a1,1,0,0,1,2,0V61.818c0,.645-.03,1.3-.089,1.938a4.472,4.472,0,0,1-.791,2.255,4.294,4.294,0,0,1-3.2,1.785C11.633,67.8,11.543,67.8,11.454,67.8Z"/><path d="M18.148,67.8c-.089,0-.179,0-.268-.008a4.294,4.294,0,0,1-3.2-1.784,4.471,4.471,0,0,1-.792-2.255c-.059-.643-.089-1.294-.089-1.937V45.771a1,1,0,0,1,2,0V61.818c0,.582.027,1.172.08,1.754a2.522,2.522,0,0,0,.418,1.262A2.3,2.3,0,0,0,18,65.8a2.392,2.392,0,0,0,2.538-2.367V30.05a2.871,2.871,0,0,1,2.867-2.868h9.615a2.009,2.009,0,0,0,1.413-.585,1.969,1.969,0,0,0,.573-1.4,1.993,1.993,0,0,0-1.986-2H9.259A5.264,5.264,0,0,0,4,28.459v14.1a1.536,1.536,0,0,0,1.544,1.524,1.469,1.469,0,0,0,1.514-1.452V30.122a1,1,0,0,1,2,0V42.631a3.456,3.456,0,0,1-3.453,3.452A3.552,3.552,0,0,1,2,42.559v-14.1A7.267,7.267,0,0,1,9.259,21.2H33.023a3.991,3.991,0,1,1,0,7.982H23.408a.868.868,0,0,0-.867.868V63.432A4.392,4.392,0,0,1,18.148,67.8Z"/><path d="M71,16.425H24.731a1,1,0,0,1,0-2H71a1,1,0,1,1,0,2Z"/><path d="M71,45.811H24.731a1,1,0,1,1,0-2H71a1,1,0,0,1,0,2Z"/><path d="M64.909,66.637H58.8a1,1,0,0,1-.757-.346L47.866,54.5,37.684,66.291a1,1,0,0,1-.757.346h-6.1a1,1,0,0,1-.752-1.659l12.784-14.6V44.811a1,1,0,0,1,1-1h8.023a1,1,0,0,1,1,1v5.5L65.663,64.979a1,1,0,0,1-.754,1.657Zm-5.647-2H62.71L51.124,51.347a1,1,0,0,1-.246-.657V45.811H44.854V50.75a1,1,0,0,1-.248.659L33.027,64.637h3.442l10.64-12.321a1.034,1.034,0,0,1,1.514,0Z"/></svg>
