<svg id="Layer_1" enable-background="new 0 0 512 512" height="512" viewBox="0 0 512 512" width="512" xmlns="http://www.w3.org/2000/svg"><g><path d="m502 166c5.522 0 10-4.477 10-10v-80c0-5.523-4.478-10-10-10h-80c-5.522 0-10 4.477-10 10v30h-312v-30c0-5.523-4.478-10-10-10h-80c-5.522 0-10 4.477-10 10v80c0 5.523 4.478 10 10 10h30v180h-30c-5.522 0-10 4.477-10 10v80c0 5.523 4.478 10 10 10h80c5.522 0 10-4.477 10-10v-30h312v30c0 5.523 4.478 10 10 10h80c5.522 0 10-4.477 10-10v-80c0-5.523-4.478-10-10-10h-30v-180zm-70-80h60v60h-60zm-412 0h60v60h-60zm60 340h-60v-60h60zm412 0h-60v-60h60zm-40-80h-30c-5.522 0-10 4.477-10 10v30h-312v-30c0-5.523-4.478-10-10-10h-30v-180h30c5.522 0 10-4.477 10-10v-30h312v30c0 5.523 4.478 10 10 10h30z"/><path d="m296 316h-3.406l-57.402-133.939c-1.577-3.677-5.192-6.061-9.192-6.061h-40c-4 0-7.615 2.384-9.191 6.061l-57.403 133.939h-13.406c-13.268.529-13.258 19.476 0 20h40c13.268-.529 13.258-19.476 0-20h-4.834l12.857-30h63.955l12.857 30h-4.835c-13.268.529-13.258 19.476 0 20h70c13.268-.529 13.258-19.476 0-20zm-133.406-50 23.406-54.614 23.406 54.614zm38.571-70h18.241l51.428 120h-18.241z"/><path d="m375.435 231.963c-1.595-3.616-5.17-5.952-9.122-5.963h-.026c-3.941 0-7.517 2.315-9.127 5.915l-40.286 90c-2.257 5.041.001 10.957 5.041 13.213 5.045 2.258 10.958-.001 13.213-5.042l10.78-24.086h40.336l10.607 24.037c2.231 5.104 8.254 7.323 13.186 5.112 5.053-2.229 7.342-8.133 5.111-13.186zm-20.574 54.037 11.36-25.378 11.198 25.378z"/></g></svg>