<svg id="Capa_1" enable-background="new 0 0 512 512" height="512" viewBox="0 0 512 512" width="512" xmlns="http://www.w3.org/2000/svg"><g><path d="m442.056 195.826c-4.169 0-7.548 3.379-7.548 7.548v269.771c0 13.101-10.658 23.76-23.759 23.76h-352.215c-13.101 0-23.759-10.659-23.759-23.76v-49.947c0-4.169-3.379-7.548-7.548-7.548s-7.548 3.379-7.548 7.548v49.947c0 21.425 17.431 38.855 38.855 38.855h352.215c21.424 0 38.855-17.43 38.855-38.856v-269.771c0-4.168-3.379-7.547-7.548-7.547z"/><path d="m27.227 394.077c4.169 0 7.548-3.379 7.548-7.548v-285.034h399.734v11.994c0 4.169 3.379 7.548 7.548 7.548s7.548-3.379 7.548-7.548v-74.633c-.001-21.426-17.432-38.856-38.856-38.856h-352.215c-21.424 0-38.855 17.43-38.855 38.856v347.674c0 4.168 3.379 7.547 7.548 7.547zm7.548-355.221c0-13.101 10.658-23.76 23.759-23.76h352.215c13.101 0 23.759 10.659 23.759 23.76v47.544h-399.733z"/><path d="m87.824 256.405c3.89 1.485 8.255-.471 9.739-4.367l6.686-17.556h44.665l6.618 17.535c1.763 2.704 4.219 6.132 9.726 4.396 3.9-1.471 5.868-5.826 4.396-9.726l-33.971-90.017c-.026-.07-.053-.139-.082-.207-1.49-3.621-4.98-5.958-8.893-5.958-.004 0-.008 0-.011 0-3.918.004-7.408 2.35-8.891 5.976-.024.057-.046.114-.068.172l-34.283 90.013c-1.482 3.895.474 8.255 4.369 9.739zm38.861-80.828 16.534 43.81h-33.219z"/><path d="m227.054 149.154h-26.52c-4.169 0-7.548 3.379-7.548 7.548v91.3c.073 3.11 2.467 7.305 7.581 7.548.244-.001 31.118-.108 31.118-.108 17.712 0 32.123-14.41 32.123-32.123 0-11.416-5.991-21.453-14.99-27.152 4.231-4.981 6.791-11.424 6.791-18.456.002-15.746-12.809-28.557-28.555-28.557zm0 15.096c7.423 0 13.461 6.038 13.461 13.461 0 7.422-6.038 13.46-13.461 13.46l-18.972.026v-26.947zm4.632 76.096c-4.284 0-15.828.044-23.604.076v-34.095c2.818-.012 23.604-.036 23.604-.036 9.389 0 17.027 7.638 17.027 17.027.001 9.39-7.637 17.028-17.027 17.028z"/><path d="m334.99 164.25c7.635 0 15 2.249 21.298 6.503 3.454 2.332 8.146 1.426 10.479-2.029 2.333-3.454 1.425-8.146-2.029-10.479-8.804-5.947-19.09-9.09-29.748-9.09-29.334 0-53.198 23.864-53.198 53.198 0 29.333 23.864 53.197 53.198 53.197 11.612 0 22.012-3.795 30.074-10.976 1.583-1.41 3.087-2.961 4.469-4.61 2.678-3.194 2.259-7.954-.935-10.633-3.193-2.678-7.955-2.26-10.633.935-.914 1.09-1.904 2.111-2.941 3.036-5.329 4.746-12.069 7.153-20.034 7.153-21.01 0-38.103-17.092-38.103-38.102s17.093-38.103 38.103-38.103z"/><path d="m87.824 398.981c3.89 1.483 8.255-.471 9.739-4.367l6.686-17.556h44.665l6.618 17.535c1.763 2.704 4.219 6.132 9.726 4.396 3.9-1.471 5.868-5.826 4.396-9.726l-33.971-90.017c-.027-.07-.054-.14-.083-.209-1.49-3.619-4.98-5.955-8.893-5.955-.004 0-.008 0-.012 0-3.917.004-7.406 2.35-8.889 5.975-.024.057-.046.114-.068.172l-34.283 90.013c-1.482 3.895.474 8.255 4.369 9.739zm38.861-80.828 16.534 43.81h-33.219z"/><path d="m192.987 390.577c.073 3.11 2.467 7.305 7.581 7.548.244-.001 24.481-.108 31.118-.108 17.712 0 32.123-14.41 32.123-32.123 0-11.416-5.991-21.453-14.989-27.152 4.231-4.982 6.791-11.424 6.791-18.457 0-15.746-12.81-28.555-28.556-28.555h-26.52c-4.169 0-7.548 3.379-7.548 7.548zm38.699-7.655c-4.284 0-15.828.044-23.604.076v-34.095c2.883-.012 6.231-.025 9.378-.036h14.226c9.389 0 17.027 7.638 17.027 17.027.001 9.39-7.637 17.028-17.027 17.028zm-4.632-76.096c7.423 0 13.461 6.038 13.461 13.46 0 7.423-6.038 13.461-13.461 13.461-1.955 0-5.641.011-9.658.025h-9.315v-26.945h18.973z"/><path d="m74.731 422.191c0 4.169 3.379 7.548 7.548 7.548 8.308 0 11.999 2.737 17.106 6.525 5.705 4.23 12.803 9.494 26.097 9.494s20.392-5.265 26.096-9.494c5.107-3.788 8.798-6.525 17.104-6.525s11.997 2.737 17.104 6.525c5.704 4.23 12.802 9.494 26.096 9.494 13.295 0 20.393-5.265 26.098-9.494 5.107-3.788 8.798-6.525 17.105-6.525 8.306 0 11.997 2.737 17.104 6.525 5.704 4.23 12.803 9.494 26.097 9.494 13.295 0 20.395-5.265 26.099-9.494 5.108-3.788 8.8-6.525 17.108-6.525 8.309 0 12.001 2.737 17.109 6.525 5.705 4.23 12.804 9.494 26.099 9.494 4.169 0 7.548-3.379 7.548-7.548s-3.379-7.548-7.548-7.548c-8.309 0-12.001-2.737-17.109-6.525-5.705-4.23-12.804-9.495-26.099-9.495s-20.394 5.265-26.098 9.495c-5.108 3.788-8.8 6.525-17.109 6.525-8.307 0-11.998-2.737-17.105-6.525-5.704-4.23-12.803-9.495-26.096-9.495-13.294 0-20.392 5.265-26.097 9.495-5.107 3.788-8.798 6.525-17.106 6.525-8.306 0-11.997-2.737-17.104-6.525-5.704-4.23-12.802-9.495-26.096-9.495s-20.392 5.265-26.096 9.495c-5.107 3.788-8.798 6.525-17.104 6.525-8.307 0-11.998-2.737-17.105-6.525-5.705-4.23-12.803-9.495-26.098-9.495-4.169.001-7.548 3.38-7.548 7.549z"/><path d="m334.683 293.081c-29.333 0-53.197 23.864-53.197 53.197s23.864 53.197 53.197 53.197c29.334 0 53.198-23.864 53.198-53.197 0-29.332-23.864-53.197-53.198-53.197zm0 91.299c-21.01 0-38.102-17.092-38.102-38.102s17.092-38.102 38.102-38.102 38.103 17.092 38.103 38.102-17.093 38.102-38.103 38.102z"/><path d="m79.9 36.702c-7.757 0-14.045 6.288-14.045 14.046s6.288 14.045 14.045 14.045 14.046-6.288 14.046-14.046-6.289-14.045-14.046-14.045z"/><circle cx="123.108" cy="50.748" r="14.046"/><circle cx="166.315" cy="50.748" r="14.046"/><path d="m490.11 110.917c-2.947-2.945-7.726-2.947-10.675 0l-56.166 56.166-28.234-28.235c-2.948-2.946-7.727-2.946-10.675 0-2.947 2.948-2.947 7.727 0 10.675l33.571 33.571c1.474 1.473 3.405 2.21 5.337 2.21 1.931 0 3.863-.737 5.337-2.21l61.503-61.502c2.95-2.949 2.95-7.727.002-10.675z"/></g></svg>