<svg xmlns="http://www.w3.org/2000/svg" width="29.764" height="26.438" viewBox="0 0 29.764 26.438">
  <g id="_9" data-name="9" transform="translate(0 -17.333)">
    <path id="Path_271" data-name="Path 271" d="M24.577,68.776a3.239,3.239,0,0,0-5.633-.822,3.238,3.238,0,0,0-5.261-.938V60.465a3.237,3.237,0,0,0-6.475,0v6.472a.465.465,0,1,0,.93,0V60.465a2.307,2.307,0,0,1,4.615,0V76.546a.465.465,0,1,0,.93,0V69.284a2.311,2.311,0,0,1,3.939-1.632,2.7,2.7,0,0,1,.676,2.24v6.654a.465.465,0,1,0,.93,0V69.891a2.31,2.31,0,0,1,3.939-1.631,2.956,2.956,0,0,1,.676,2.463v5.822a.465.465,0,1,0,.93,0V70.723a2.03,2.03,0,1,1,4.06,0v6.714a5.3,5.3,0,0,1-5.3,5.3h-10.1a5.272,5.272,0,0,1-5.23-4.449c-.091-.555-.068.347-.068-13.252a.465.465,0,1,0-.93,0v4.29L5.479,67.594A3.213,3.213,0,0,0,.927,72.13l6.389,6.456a6.226,6.226,0,0,0,6.12,5.079h10.1a6.235,6.235,0,0,0,6.228-6.228V70.723A2.963,2.963,0,0,0,24.577,68.776ZM.93,69.873a2.282,2.282,0,0,1,3.892-1.621l2.387,2.387v6.515l-5.62-5.679a2.265,2.265,0,0,1-.659-1.6Z" transform="translate(0 -39.894)"/>
  </g>
</svg>
