<svg xmlns="http://www.w3.org/2000/svg" width="78" height="372" viewBox="0 0 78 372">
  <g id="flags" transform="translate(-1429 -168)">
    <g id="Group_3" data-name="Group 3" transform="translate(1427 290)">
      <g id="Group_2" data-name="Group 2">
        <g id="Group_1" data-name="Group 1">
          <path id="Path_1" data-name="Path 1" d="M18.563,4H63.437c4.285,0,6.348.4,8.493,1.545a10.9,10.9,0,0,1,4.525,4.525C77.6,12.215,78,14.278,78,18.563V47.437c0,4.285-.4,6.348-1.545,8.493a10.9,10.9,0,0,1-4.525,4.525C69.785,61.6,67.722,62,63.437,62H18.563c-4.285,0-6.348-.4-8.493-1.545A10.9,10.9,0,0,1,5.545,55.93C4.4,53.785,4,51.722,4,47.437V18.563c0-4.285.4-6.348,1.545-8.493A10.9,10.9,0,0,1,10.07,5.545C12.215,4.4,14.278,4,18.563,4Z" fill="#eee" stroke="#fff" stroke-width="4" fill-rule="evenodd"/>
          <path id="Path_2" data-name="Path 2" d="M18.563,6H63.437c4.368,0,5.953.455,7.55,1.309a8.9,8.9,0,0,1,3.7,3.7,10.136,10.136,0,0,1,.467.987H6.842a10.135,10.135,0,0,1,.467-.987,8.9,8.9,0,0,1,3.7-3.7C12.61,6.455,14.195,6,18.563,6ZM76,18c0,.182,0,.37,0,.563V24H6V18.563c0-.193,0-.38,0-.563Zm0,12v6H6V30Zm0,17.437c0,.193,0,.38,0,.563H6c0-.182,0-.37,0-.563V42H76ZM75.158,54a10.134,10.134,0,0,1-.467.987,8.9,8.9,0,0,1-3.7,3.7c-1.6.854-3.182,1.309-7.55,1.309H18.563c-4.368,0-5.953-.455-7.55-1.309a8.9,8.9,0,0,1-3.7-3.7A10.18,10.18,0,0,1,6.842,54H75.158Z" fill="#ff4b4b" fill-rule="evenodd"/>
          <path id="Path_3" data-name="Path 3" d="M18.563,6H41V30H6V18.563c0-4.368.455-5.953,1.309-7.55a8.9,8.9,0,0,1,3.7-3.7C12.61,6.455,14.195,6,18.563,6Z" fill="#1cb0f6" fill-rule="evenodd"/>
          <path id="Path_4" data-name="Path 4" d="M33.806,15.6l-1.275.67a.82.82,0,0,1-1.19-.863l.244-1.42a.417.417,0,0,0-.12-.37l-1.031-1a.82.82,0,0,1,.454-1.4l1.426-.207a.417.417,0,0,0,.313-.228l.638-1.292a.82.82,0,0,1,1.47,0l.638,1.292a.416.416,0,0,0,.313.228l1.426.207a.82.82,0,0,1,.454,1.4L36.535,13.62a.417.417,0,0,0-.12.368l.243,1.42a.82.82,0,0,1-1.189.865L34.194,15.6a.417.417,0,0,0-.388,0Zm0,10-1.275.67a.82.82,0,0,1-1.19-.863l.244-1.42a.417.417,0,0,0-.12-.37l-1.031-1a.82.82,0,0,1,.454-1.4l1.426-.207a.417.417,0,0,0,.313-.228l.638-1.292a.82.82,0,0,1,1.47,0l.638,1.292a.416.416,0,0,0,.313.228l1.426.207a.82.82,0,0,1,.454,1.4L36.535,23.62a.417.417,0,0,0-.12.368l.243,1.42a.82.82,0,0,1-1.189.865L34.194,25.6a.417.417,0,0,0-.388,0Zm-10-10-1.275.67a.82.82,0,0,1-1.19-.863l.244-1.42a.417.417,0,0,0-.12-.37l-1.031-1a.82.82,0,0,1,.454-1.4l1.426-.207a.417.417,0,0,0,.313-.228l.638-1.292a.82.82,0,0,1,1.47,0l.638,1.292a.416.416,0,0,0,.313.228l1.426.207a.82.82,0,0,1,.454,1.4L26.535,13.62a.417.417,0,0,0-.12.368l.243,1.42a.82.82,0,0,1-1.189.865L24.194,15.6a.417.417,0,0,0-.388,0Zm0,10-1.275.67a.82.82,0,0,1-1.19-.863l.244-1.42a.417.417,0,0,0-.12-.37l-1.031-1a.82.82,0,0,1,.454-1.4l1.426-.207a.417.417,0,0,0,.313-.228l.638-1.292a.82.82,0,0,1,1.47,0l.638,1.292a.416.416,0,0,0,.313.228l1.426.207a.82.82,0,0,1,.454,1.4L26.535,23.62a.417.417,0,0,0-.12.368l.243,1.42a.82.82,0,0,1-1.189.865L24.194,25.6A.417.417,0,0,0,23.806,25.6Zm-10-10-1.275.67a.82.82,0,0,1-1.19-.863l.244-1.42a.417.417,0,0,0-.12-.37l-1.031-1a.82.82,0,0,1,.454-1.4l1.426-.207a.417.417,0,0,0,.313-.228l.638-1.292a.82.82,0,0,1,1.47,0l.638,1.292a.416.416,0,0,0,.313.228l1.426.207a.82.82,0,0,1,.454,1.4L16.535,13.62a.417.417,0,0,0-.12.368l.243,1.42a.82.82,0,0,1-1.189.865L14.194,15.6a.417.417,0,0,0-.388,0Zm0,10-1.275.67a.82.82,0,0,1-1.19-.863l.244-1.42a.417.417,0,0,0-.12-.37l-1.031-1a.82.82,0,0,1,.454-1.4l1.426-.207a.417.417,0,0,0,.313-.228l.638-1.292a.82.82,0,0,1,1.47,0l.638,1.292a.416.416,0,0,0,.313.228l1.426.207a.82.82,0,0,1,.454,1.4L16.535,23.62a.417.417,0,0,0-.12.368l.243,1.42a.82.82,0,0,1-1.189.865L14.194,25.6a.417.417,0,0,0-.388,0Z" fill="#fff"/>
        </g>
      </g>
    </g>
    <g id="Group_6" data-name="Group 6" transform="translate(1427 352)">
      <g id="Group_5" data-name="Group 5">
        <g id="Group_4" data-name="Group 4">
          <path id="Path_5" data-name="Path 5" d="M18.563,4H63.437c4.285,0,6.348.4,8.493,1.545a10.9,10.9,0,0,1,4.525,4.525C77.6,12.215,78,14.278,78,18.563V47.437c0,4.285-.4,6.348-1.545,8.493a10.9,10.9,0,0,1-4.525,4.525C69.785,61.6,67.722,62,63.437,62H18.563c-4.285,0-6.348-.4-8.493-1.545A10.9,10.9,0,0,1,5.545,55.93C4.4,53.785,4,51.722,4,47.437V18.563c0-4.285.4-6.348,1.545-8.493A10.9,10.9,0,0,1,10.07,5.545C12.215,4.4,14.278,4,18.563,4Z" fill="#ff4b4b" stroke="#fff" stroke-width="4" fill-rule="evenodd"/>
          <path id="Path_6" data-name="Path 6" d="M6,21.429H76V44.57H6Z" fill="#ffc800" fill-rule="evenodd"/>
          <path id="Path_7" data-name="Path 7" d="M33.222,27.214a1.945,1.945,0,0,1,1.945,1.945v7.682a1.945,1.945,0,0,1-3.89,0V29.16a1.945,1.945,0,0,1,1.945-1.945Zm-19.444,0a1.944,1.944,0,0,1,1.944,1.945v7.682a1.944,1.944,0,1,1-3.889,0V29.16a1.945,1.945,0,0,1,1.945-1.945Z" fill="#fff" fill-rule="evenodd"/>
          <path id="Path_8" data-name="Path 8" d="M19.417,25.286h8.166a1.749,1.749,0,0,1,1.75,1.75v7.845a5.833,5.833,0,0,1-11.666,0V27.036a1.749,1.749,0,0,1,1.75-1.75Z" fill="#ff4b4b" fill-rule="evenodd"/>
        </g>
      </g>
    </g>
    <g id="Group_9" data-name="Group 9" transform="translate(1427 414)">
      <g id="Group_8" data-name="Group 8">
        <g id="Group_7" data-name="Group 7">
          <path id="Path_9" data-name="Path 9" d="M18.563,4H63.437c4.285,0,6.348.4,8.493,1.545a10.9,10.9,0,0,1,4.525,4.525C77.6,12.215,78,14.278,78,18.563V47.437c0,4.285-.4,6.348-1.545,8.493a10.9,10.9,0,0,1-4.525,4.525C69.785,61.6,67.722,62,63.437,62H18.563c-4.285,0-6.348-.4-8.493-1.545A10.9,10.9,0,0,1,5.545,55.93C4.4,53.785,4,51.722,4,47.437V18.563c0-4.285.4-6.348,1.545-8.493A10.9,10.9,0,0,1,10.07,5.545C12.215,4.4,14.278,4,18.563,4Z" fill="#eee" stroke="#fff" stroke-width="4"/>
          <path id="Path_10" data-name="Path 10" d="M29.625,6V60H18.563c-4.368,0-5.953-.455-7.55-1.309a8.9,8.9,0,0,1-3.7-3.7C6.455,53.39,6,51.805,6,47.437V18.563c0-4.368.455-5.953,1.309-7.55a8.9,8.9,0,0,1,3.7-3.7C12.61,6.455,14.195,6,18.563,6Z" fill="#1cb0f6"/>
          <path id="Path_11" data-name="Path 11" d="M52.375,6H63.437c4.368,0,5.953.455,7.55,1.309a8.9,8.9,0,0,1,3.7,3.7c.854,1.6,1.309,3.182,1.309,7.55V47.437c0,4.368-.455,5.953-1.309,7.55a8.9,8.9,0,0,1-3.7,3.7c-1.6.854-3.182,1.309-7.55,1.309H52.375Z" fill="#ff4b4b"/>
        </g>
      </g>
    </g>
    <g id="Group_12" data-name="Group 12" transform="translate(1427 228)">
      <g id="Group_11" data-name="Group 11">
        <g id="Group_10" data-name="Group 10">
          <path id="Path_12" data-name="Path 12" d="M18.563,4H63.437c4.285,0,6.348.4,8.493,1.545a10.9,10.9,0,0,1,4.525,4.525C77.6,12.215,78,14.278,78,18.563V47.437c0,4.285-.4,6.348-1.545,8.493a10.9,10.9,0,0,1-4.525,4.525C69.785,61.6,67.722,62,63.437,62H18.563c-4.285,0-6.348-.4-8.493-1.545A10.9,10.9,0,0,1,5.545,55.93C4.4,53.785,4,51.722,4,47.437V18.563c0-4.285.4-6.348,1.545-8.493A10.9,10.9,0,0,1,10.07,5.545C12.215,4.4,14.278,4,18.563,4Z" fill="#ff4b4b" stroke="#fff" stroke-width="4"/>
          <path id="Path_13" data-name="Path 13" d="M76,42v5.437c0,4.368-.455,5.953-1.309,7.55a8.9,8.9,0,0,1-3.7,3.7c-1.6.854-3.182,1.309-7.55,1.309H18.563c-4.368,0-5.953-.455-7.55-1.309a8.9,8.9,0,0,1-3.7-3.7C6.455,53.39,6,51.805,6,47.437V42Z" fill="#ffc800"/>
          <path id="Path_14" data-name="Path 14" d="M18.563,6H63.437c4.368,0,5.953.455,7.55,1.309a8.9,8.9,0,0,1,3.7,3.7c.854,1.6,1.309,3.182,1.309,7.55V24H6V18.563c0-4.368.455-5.953,1.309-7.55a8.9,8.9,0,0,1,3.7-3.7C12.61,6.455,14.195,6,18.563,6Z" fill="#4c4c4c"/>
        </g>
      </g>
    </g>
    <g id="Group_18" data-name="Group 18" transform="translate(1427 476)">
      <g id="Group_17" data-name="Group 17">
        <g id="Group_16" data-name="Group 16">
          <path id="Path_16" data-name="Path 16" d="M18.563,4H63.437c4.285,0,6.348.4,8.493,1.545a10.9,10.9,0,0,1,4.525,4.525C77.6,12.215,78,14.278,78,18.563V47.437c0,4.285-.4,6.348-1.545,8.493a10.9,10.9,0,0,1-4.525,4.525C69.785,61.6,67.722,62,63.437,62H18.563c-4.285,0-6.348-.4-8.493-1.545A10.9,10.9,0,0,1,5.545,55.93C4.4,53.785,4,51.722,4,47.437V18.563c0-4.285.4-6.348,1.545-8.493A10.9,10.9,0,0,1,10.07,5.545C12.215,4.4,14.278,4,18.563,4Z" fill="#eee" stroke="#fff" stroke-width="4"/>
          <path id="Path_17" data-name="Path 17" d="M29.625,6V60H18.563c-4.368,0-5.953-.455-7.55-1.309a8.9,8.9,0,0,1-3.7-3.7C6.455,53.39,6,51.805,6,47.437V18.563c0-4.368.455-5.953,1.309-7.55a8.9,8.9,0,0,1,3.7-3.7C12.61,6.455,14.195,6,18.563,6Z" fill="#78c800"/>
          <path id="Path_18" data-name="Path 18" d="M52.375,6H63.437c4.368,0,5.953.455,7.55,1.309a8.9,8.9,0,0,1,3.7,3.7c.854,1.6,1.309,3.182,1.309,7.55V47.437c0,4.368-.455,5.953-1.309,7.55a8.9,8.9,0,0,1-3.7,3.7c-1.6.854-3.182,1.309-7.55,1.309H52.375Z" fill="#ff4b4b"/>
        </g>
      </g>
    </g>
    <g id="Group_34" data-name="Group 34" transform="translate(-65 -240)">
      <g id="Group_32" data-name="Group 32" transform="translate(1492 406)">
        <g id="Group_11-2" data-name="Group 11">
          <g id="Group_10-2" data-name="Group 10">
            <path id="Path_12-2" data-name="Path 12" d="M18.563,4H63.437c4.285,0,6.348.4,8.493,1.545a10.9,10.9,0,0,1,4.525,4.525C77.6,12.215,78,14.278,78,18.563V47.437c0,4.285-.4,6.348-1.545,8.493a10.9,10.9,0,0,1-4.525,4.525C69.785,61.6,67.722,62,63.437,62H18.563c-4.285,0-6.348-.4-8.493-1.545A10.9,10.9,0,0,1,5.545,55.93C4.4,53.785,4,51.722,4,47.437V18.563c0-4.285.4-6.348,1.545-8.493A10.9,10.9,0,0,1,10.07,5.545C12.215,4.4,14.278,4,18.563,4Z" fill="#fff" stroke="#fff" stroke-width="4"/>
            <path id="Path_13-2" data-name="Path 13" d="M76,42v5.437c0,4.368-.455,5.953-1.309,7.55a8.9,8.9,0,0,1-3.7,3.7c-1.6.854-3.182,1.309-7.55,1.309H18.563c-4.368,0-5.953-.455-7.55-1.309a8.9,8.9,0,0,1-3.7-3.7C6.455,53.39,6,51.805,6,47.437V42Z" fill="#da0000"/>
            <path id="Path_14-2" data-name="Path 14" d="M18.563,6H63.437c4.368,0,5.953.455,7.55,1.309a8.9,8.9,0,0,1,3.7,3.7c.854,1.6,1.309,3.182,1.309,7.55V24H6V18.563c0-4.368.455-5.953,1.309-7.55a8.9,8.9,0,0,1,3.7-3.7C12.61,6.455,14.195,6,18.563,6Z" fill="#239f40"/>
          </g>
        </g>
      </g>
      <g id="Group_33" data-name="Group 33" transform="translate(-77.718 -45.373)">
        <g id="emblem_half" transform="translate(1606.712 477.373)">
          <path id="Path_41" data-name="Path 41" d="M-24.667-22.178a6.044,6.044,0,0,0,7.135-2.785,6.044,6.044,0,0,0-1.326-7.544,6.626,6.626,0,0,1,.285,6.959,6.626,6.626,0,0,1-6.095,3.37" transform="translate(24.667 34.133)" fill="#da0000"/>
          <path id="Path_42" data-name="Path 42" d="M20.277-24.054a5.062,5.062,0,0,0,2.48-5.086,5.062,5.062,0,0,0-3.783-4.207,6.626,6.626,0,0,1,2.58,4.376,6.626,6.626,0,0,1-1.277,4.917" transform="translate(-12.548 34.849)" fill="#da0000"/>
          <path id="Path_43" data-name="Path 43" d="M-1.919-23.584l-.331-6.626.331-5.217a2.054,2.054,0,0,0,.782.657v3.895L-1.4-24.294Z" transform="translate(5.551 36.623)" fill="#da0000"/>
          <path id="Path_44" data-name="Path 44" d="M-.9-42.767l.133.124a.956.956,0,0,0,1.237.291.956.956,0,0,0,.433-1.2.9.9,0,0,1-.736.723.9.9,0,0,1-.934-.438" transform="translate(4.4 43.547)" fill="#da0000"/>
        </g>
        <g id="Group_31" data-name="Group 31" transform="translate(1613.977 490.412) rotate(180)">
          <path id="Path_45" data-name="Path 45" d="M0,.3A6.044,6.044,0,0,1,5.809,10.625,6.626,6.626,0,0,0,0,.3" transform="translate(0 0.788)" fill="#da0000"/>
          <path id="Path_46" data-name="Path 46" d="M1.3,0a5.062,5.062,0,0,1,2.48,5.086A5.062,5.062,0,0,1,0,9.293,6.626,6.626,0,0,0,2.58,4.917,6.626,6.626,0,0,0,1.3,0" transform="translate(6.426 2.244)" fill="#da0000"/>
          <path id="Path_47" data-name="Path 47" d="M.331,0,0,6.626l.331,5.217a2.054,2.054,0,0,1,.782-.657V7.292L.847.71Z" transform="translate(3.301 0)" fill="#da0000"/>
          <path id="Path_48" data-name="Path 48" d="M0,.531.133.406a.956.956,0,0,1,1.67.9.9.9,0,0,0-1.67-.285" transform="translate(3.5 11.728)" fill="#da0000"/>
        </g>
      </g>
    </g>
  </g>
</svg>
