<?xml version="1.0" encoding="UTF-8" standalone="no"?> <svg height="555pt" viewBox="-17 -37 555.99803 555" width="555pt" xmlns="http://www.w3.org/2000/svg"><path d="m513.511719 51.679688-166.011719-51.882813c-.128906 0-.128906 0-.253906-.128906l-.25-.121094c-2.117188-.625-4.363282-.625-6.484375.121094l-163.019531 50.890625-162.898438-50.890625c-5.863281-1.871094-12.226562 1.496093-14.097656 7.363281-.371094 1.121094-.496094 2.242188-.496094 3.367188v405.371093c0 4.863281 3.117188 9.226563 7.730469 10.722657l166.269531 54.011718c2.492188.75 5.113281.75 7.609375-.25l162.644531-64.984375 162.398438 52.761719c5.859375 1.871094 12.222656-1.371094 14.09375-7.238281.375-1.121094.5-2.238281.5-3.488281v-394.894532c.125-4.863281-3.121094-9.230468-7.734375-10.730468zm-324.792969 18.964843 143.8125-44.90625v370.074219l-143.8125 57.5zm-166.265625-44.90625 143.8125 44.90625v383.792969l-143.8125-46.773438zm476.464844 416.226563-143.8125-46.777344v-369.449219l143.8125 44.90625zm0 0"/><path d="m44.277344 188.511719 84.816406 24.945312c5.988281 1.746094 12.226562-1.621093 13.96875-7.609375.25-1 .503906-2.117187.503906-3.117187v-58.625c0-4.988281-3.246094-9.351563-8.109375-10.726563l-84.816406-24.945312c-5.984375-1.746094-12.222656 1.621094-13.972656 7.609375-.246094 1-.496094 2.121093-.496094 3.117187v58.625c0 4.988282 3.246094 9.355469 8.105469 10.726563zm14.347656-54.382813 62.363281 18.335938v35.296875l-62.363281-18.332031zm0 0"/><path d="m135.332031 266.839844-84.816406-24.945313c-5.988281-1.746093-12.222656 1.746094-13.847656 7.734375-1.742188 5.863282 1.625 12.097656 7.609375 13.84375l84.816406 24.945313c5.988281 1.75 12.226562-1.621094 13.96875-7.484375 1.75-6.109375-1.621094-12.34375-7.730469-14.09375.125 0 .125 0 0 0zm0 0"/><path d="m94.667969 304.761719-44.027344-12.976563c-5.984375-1.742187-12.222656 1.75-13.84375 7.738282-1.746094 5.859374 1.621094 12.097656 7.609375 13.839843l44.023438 12.976563c5.988281 1.742187 12.226562-1.75 13.847656-7.738282 1.625-5.984374-1.742188-12.097656-7.609375-13.839843zm0 0"/><path d="m313.945312 197.242188c-2.992187-2.121094-6.859374-2.621094-10.355468-1.246094l-90.429688 33.675781c-4.363281 1.621094-7.355468 5.863281-7.355468 10.605469l.25 68.847656c0 6.238281 5.113281 11.226562 11.222656 11.226562 1.375 0 2.746094-.25 3.992187-.75l90.179688-35.046874c4.367187-1.621094 7.109375-5.867188 7.109375-10.480469v-67.601563c.125-3.617187-1.617188-7.109375-4.613282-9.230468zm-17.710937 69.101562-67.851563 26.320312-.128906-44.65625 67.980469-25.320312zm0 0"/><path d="m304.09375 135.871094-90.429688 28.191406c-5.988281 1.746094-9.355468 8.109375-7.484374 13.96875 1.746093 5.988281 8.105468 9.355469 13.96875 7.484375.125 0 .125 0 .25-.121094l90.425781-28.316406c5.863281-1.871094 9.109375-8.230469 7.238281-14.089844-1.871094-5.742187-8.109375-8.988281-13.96875-7.117187zm0 0"/><path d="m215.78125 137.121094 95.042969-29.683594c5.863281-1.871094 9.109375-8.234375 7.238281-14.09375-1.871094-5.863281-8.109375-9.105469-13.96875-7.234375l-95.042969 29.683594c-5.867187 1.871093-9.234375 8.109375-7.363281 14.097656 1.871094 5.734375 8.105469 8.980469 14.09375 7.230469zm0 0"/><path d="m303.46875 325.835938-90.179688 35.050781c-5.742187 2.246093-8.605468 8.734375-6.363281 14.46875 2.246094 5.738281 8.730469 8.609375 14.46875 6.363281l90.183594-35.050781c5.734375-2.242188 8.601563-8.734375 6.355469-14.46875-2.238282-5.738281-8.730469-8.609375-14.464844-6.363281zm0 0"/><path d="m375.5625 275.824219 87.9375 28.5625c5.859375 1.871093 12.21875-1.375 14.089844-7.359375 1.871094-5.867188-1.371094-12.101563-7.109375-14.09375l-87.933594-28.566406c-5.863281-1.871094-12.226563 1.375-14.097656 7.359374-1.871094 5.863282 1.25 12.097657 7.113281 14.097657zm0 0"/><path d="m385.289062 197.242188 74.589844 23.324218c5.859375 1.871094 12.222656-1.371094 14.09375-7.234375 1.871094-5.859375-1.371094-12.222656-7.234375-14.09375h-.121093l-74.589844-23.324219c-5.988282-1.871093-12.222656 1.496094-13.96875 7.484376-1.871094 5.859374 1.367187 12.097656 7.230468 13.84375zm0 0"/></svg>