<svg xmlns="http://www.w3.org/2000/svg" width="512" height="427.408" viewBox="0 0 512 427.408">
  <g id="megaphone" transform="translate(0 -42.295)">
    <g id="Group_94" data-name="Group 94">
      <path id="Path_262" data-name="Path 262" d="M77.738,337.983l26.7,124.215h40.394V326.641Z" fill="#f5f8f9"/>
      <path id="Path_263" data-name="Path 263" d="M331.174,410.294C292.842,334.115,242.945,295.8,154.716,295.8V164.295c88.229,0,144.829-35.225,176.458-114.492Z" fill="#f5f8f9"/>
      <path id="Path_264" data-name="Path 264" d="M331.173,366.865v43.429c-38.332-76.184-88.23-114.5-176.46-114.5V252.369C242.943,252.369,292.841,290.681,331.173,366.865Z" fill="#e8edf2"/>
      <path id="Path_265" data-name="Path 265" d="M331.174,410.294h15.055a25,25,0,0,0,25-25V74.8a25,25,0,0,0-25-25H331.174Z" fill="#ff5454"/>
      <path id="Path_266" data-name="Path 266" d="M371.228,341.731V385.26a25.03,25.03,0,0,1-25.034,25.034h-15.02V366.765h15.02A25.031,25.031,0,0,0,371.228,341.731Z" fill="#eb5569"/>
      <path id="Path_267" data-name="Path 267" d="M67.592,164.295h87.124V295.8H67.592Z" fill="#ff5454"/>
      <path id="Path_268" data-name="Path 268" d="M67.6,252.249h87.119V295.8H67.6Z" fill="#eb5569"/>
      <path id="Path_269" data-name="Path 269" d="M67.511,295.8h.082V164.295h-.082a60,60,0,0,0-60,60V235.8A60,60,0,0,0,67.511,295.8Z" fill="#ff5454"/>
      <path id="Path_270" data-name="Path 270" d="M67.6,252.319V295.8A60.078,60.078,0,0,1,7.513,235.716V224.381a59.932,59.932,0,0,1,17.594-42.488c.851-.851,1.732-1.682,2.634-2.483-.13,1.622-.2,3.264-.2,4.917v11.335A60.077,60.077,0,0,0,67.6,252.319Z" fill="#eb5569"/>
      <g id="Group_93" data-name="Group 93">
        <path id="Path_271" data-name="Path 271" d="M154.716,203.512h53.072v53.072H154.716Z" fill="#aa9ea9"/>
        <path id="Path_272" data-name="Path 272" d="M371.231,170.107V289.99a37.151,37.151,0,0,0,33.986-37.02V207.128A37.151,37.151,0,0,0,371.231,170.107Z" fill="#aa9ea9"/>
        <path id="Path_273" data-name="Path 273" d="M67.592,295.8v43.9l87.124-14.727V295.8Z" fill="#aa9ea9"/>
      </g>
      <path id="Path_274" data-name="Path 274" d="M115.5,371.005V331.6l29.333-4.958v49.371H120.506a5.007,5.007,0,0,1-5.006-5.008Z" fill="#f07281"/>
    </g>
    <g id="Group_95" data-name="Group 95">
      <path id="Path_275" data-name="Path 275" d="M378.731,163.772V74.8a32.537,32.537,0,0,0-32.5-32.5H331.18a7.5,7.5,0,0,0-6.945,4.675c-.007.016-.018.029-.025.046-29.884,74.894-83.743,109.776-169.5,109.776-.023,0-.045,0-.068,0h-28.7a7.5,7.5,0,0,0,0,15h21.27v116.51H75.084V171.8H93.261a7.5,7.5,0,0,0,0-15H67.574c-.025,0-.049,0-.074,0A67.576,67.576,0,0,0,0,224.291V235.8a67.589,67.589,0,0,0,60.084,67.084V339.7a7.5,7.5,0,0,0,8.75,7.395l3.072-.519L80.9,388.41a7.5,7.5,0,1,0,14.665-3.153l-8.852-41.184,21.282-3.6v30.533A12.522,12.522,0,0,0,120.5,383.516h16.83V454.7H110.49l-7.9-36.756A7.5,7.5,0,0,0,87.928,421.1l9.17,42.681a7.5,7.5,0,0,0,7.333,5.924h40.4a7.5,7.5,0,0,0,7.5-7.5V332.983l3.631-.614a7.5,7.5,0,0,0,6.25-7.395V303.4c76.694,1.946,124.05,34.327,162.266,110.274.006.013.018.022.025.034a7.492,7.492,0,0,0,6.678,4.1h15.051a32.537,32.537,0,0,0,32.5-32.5v-34.78a7.5,7.5,0,0,0-15,0V385.3a17.521,17.521,0,0,1-17.5,17.5h-7.551V57.295h7.551a17.521,17.521,0,0,1,17.5,17.5v243.04a7.5,7.5,0,0,0,15,0v-21.51a44.962,44.962,0,0,0,33.992-43.354V207.127a44.963,44.963,0,0,0-33.993-43.355ZM162.212,211.011h38.074v38.075H162.212Zm-15,107.625-4.28.724-14.39,2.432-52.061,8.8c-.014,0-.027.007-.041.009l-1.356.229V303.3h72.127v15.331ZM15,235.8V224.292a52.582,52.582,0,0,1,45.081-51.968V287.783A52.581,52.581,0,0,1,15,235.8ZM122.994,368.518V337.942l.01,0,14.325-2.421v33H122.994ZM162.212,288.4v-24.31h45.574a7.5,7.5,0,0,0,7.5-7.5V203.511a7.5,7.5,0,0,0-7.5-7.5H162.212v-24.3c76.18-1.733,128.313-30.229,161.469-88.766V381.386c-38.677-62.8-88.481-91.2-161.469-92.99Zm235.512-35.425a29.873,29.873,0,0,1-18.992,27.665V179.461a29.874,29.874,0,0,1,18.992,27.665Z"/>
      <path id="Path_276" data-name="Path 276" d="M452.455,65.921l-34.7,34.7a7.5,7.5,0,0,0,10.608,10.606l34.7-34.7a7.5,7.5,0,0,0-10.608-10.606Z"/>
      <path id="Path_277" data-name="Path 277" d="M474.465,200.4a7.457,7.457,0,0,0,4.153-1.261l30.042-20.028a7.5,7.5,0,0,0-8.32-12.48L470.3,186.664a7.5,7.5,0,0,0,4.167,13.741Z"/>
      <path id="Path_278" data-name="Path 278" d="M508.66,280.981l-30.042-20.028a7.5,7.5,0,0,0-8.32,12.48l30.042,20.028a7.5,7.5,0,0,0,8.32-12.48Z"/>
      <path id="Path_279" data-name="Path 279" d="M428.365,348.872a7.5,7.5,0,1,0-10.607,10.606l34.7,34.7a7.5,7.5,0,0,0,10.608-10.606Z"/>
    </g>
  </g>
</svg>
