<svg height="512" viewBox="0 0 60 52" width="512" xmlns="http://www.w3.org/2000/svg"><path id="Shape" d="m6.31 21.08c1.17.52 1.17.45 6 1.41.5800103.5479966 1.3544384.8423468 2.1520079.8179506.7975695-.0243963 1.5525593-.3655286 2.0979921-.9479506l2.9 1.15-.31.44c-1.2487303 1.7713489-1.380626 4.0989209-.34 6 2.19 3.93 5.45 9.05 9.19 11.59v9.35c0 1.1045695.8954305 2 2 2h16c1.1045695 0 2-.8954305 2-2v-8.43c2.3698546-.6962125 3.998157-2.8699961 4-5.34v-.74l1.18.47c1.9856074.7878691 4.239879-.1235259 5.12-2.07l1.34-3c.8724352-1.9440768.0676869-4.2307931-1.83-5.2l-3.81-1.92v-6.27c.004934-1.724762-.9807034-3.2991937-2.5343213-4.0482595s-3.399287-.5397282-4.7456787.5382595c-.4757243-1.3683601-1.5877612-2.4194992-2.980718-2.8174868-1.3929569-.3979877-2.8924579-.0930023-4.019282.8174868-.4794934-1.3651841-1.5914664-2.4129188-2.9827359-2.8104244-1.3912695-.39750559-2.8889177-.0953769-4.0172641.8104244-.5731647-1.57975702-1.9822307-2.70587945-3.6494808-2.91665696-1.6672501-.2107775-3.3122383.52924452-4.2605192 1.91665696l-2.14-1.09c.0839723-.79175472-.1502374-1.58441602-.6510401-2.20338571-.5008028-.6189697-1.2271174-1.01347335-2.0189599-1.09661429-4.13-3.13-3.9-3-5-3.54-2.540997-1.17040279-5.44637323-1.26772929-8.06-.27-3.96410021 1.50897531-6.63422509 5.25096078-6.77189491 9.4903173-.13766983 4.2393566 2.28404914 8.1466957 6.14189491 9.9096827zm11.22-.48 4.48-10 2.06 1c-.07.7-.07-.08-.07 5.4l-3.36 4.81zm29.57 20c-.6988175.2653361-1.1443064.9538189-1.1 1.7v8.59h-16v-8.29c.7329499.2952901 1.5106075.4643461 2.3.5.5522847 0 1-.4477153 1-1s-.4477153-1-1-1c-4.54-.1-9.54-8.1-11.73-12.1-.6723837-1.2364861-.5871766-2.7469763.22-3.9l5.28-7.54c.1950331-.2824825.5213251-.4451868.864301-.4309807s.6546947.2033369.825699.5009807c1.1 2-.19 4.71-1.05 6.11-.3844536.5828202-.4604163 1.3165428-.2035164 1.9657626.2568998.6492198.8143562 1.1322951 1.4935164 1.2942374 2.6109996.7994092 5.1392556 1.8475471 7.55 3.13 2.2175285.9022586 3.5482685 3.1858741 3.24 5.56-.0482309.3572656.0978009.7131235.3830866.9335254.2852856.2204019.6664835.2718637 1 .135.3335165-.1368636.5686825-.4412598.6169134-.7985254.1656071-1.2261318.0070058-2.4742555-.46-3.62 1.5835204.931477 3.5800631.7757467 5-.39.6997386 1.9284285 2.6319528 3.124167 4.67 2.89v2.28c-.0031468 1.7108309-1.2195652 3.178922-2.9 3.5zm9.81-12.24c.9691424.4875464 1.3728833 1.6588387.91 2.64l-1.34 3c-.4528897.9597199-1.5765042 1.3986317-2.56 1l-1.92-.77v-.1c1.2505496-.8334071 2.0012353-2.2371893 2-3.74v-3.49zm-7.41-12.47c1.3807119 0 2.5 1.1192881 2.5 2.5v12c0 1.3807119-1.1192881 2.5-2.5 2.5s-2.5-1.1192881-2.5-2.5v-12c0-1.3807119 1.1192881-2.5 2.5-2.5zm-7-2c1.3807119 0 2.5 1.1192881 2.5 2.5v12c0 1.3807119-1.1192881 2.5-2.5 2.5s-2.5-1.1192881-2.5-2.5v-12c0-1.3807119 1.1192881-2.5 2.5-2.5zm-7-2c1.3784352.0054809 2.4945191 1.1215648 2.5 2.5v12c.0021971.8690112-.4488237 1.6763007-1.19 2.13-1.09-.61-2.71-1.35-3.76-1.81-.07-.55 0 1.4 0-12.32-.0002723-1.361419 1.0888532-2.4727716 2.45-2.5zm-7-2c1.3784352.00548092 2.4945191 1.1215648 2.5 2.5v12c.0001585.4715493-.1352152.9332086-.39 1.33-.88-.33-1.58-.55-2.11-.69-.0517222-.0129612-.0935888-.0508366-.1116499-.1010061-.018061-.0501694-.0099427-.1060394.0216499-.1489939 1.88-3.07 2.28-6 1.11-8.11-.676255-1.2611341-2.1623133-1.85218-3.52-1.4 0-3-.06-3.19.19-3.8.3731821-.9505043 1.2888667-1.57681672 2.31-1.58zm-7.88-1c-.14.29-5.26 11.68-5.35 11.9-.1822902.3655404-.5685766.5834669-.9757126.5504558-.407136-.033011-.7532681-.3103228-.8742874-.7004558-.17-.47-.44.37 5.37-12.55.1090754-.24354412.3109678-.43338991.560754-.52729447.2497861-.09390455.5267435-.08407752.769246.02729447.4693426.22572133.6868653.77387871.5 1.26zm-2.94-2.63c-.65.59-.29.05-6 12.82-.164235.3721425-.2526246.7732952-.26 1.18l-3.32-.64 6.9-15.38zm-14.8 1.74c1.76582186-3.94387894 6.21739251-5.92618533 10.33-4.6l-6.93 15.4c-3.72654392-2.2023115-5.19288206-6.8600915-3.4-10.8z" transform="translate(0 -1)"/></svg>