<svg height="512pt" viewBox="0 0 512 512" width="512pt" xmlns="http://www.w3.org/2000/svg"><path d="m437.019531 74.980469c-48.351562-48.351563-112.640625-74.980469-181.019531-74.980469s-132.667969 26.628906-181.019531 74.980469c-48.351563 48.351562-74.980469 112.640625-74.980469 181.019531s26.628906 132.667969 74.980469 181.019531c48.351562 48.351563 112.640625 74.980469 181.019531 74.980469s132.667969-26.628906 181.019531-74.980469c48.351563-48.351562 74.980469-112.640625 74.980469-181.019531s-26.628906-132.667969-74.980469-181.019531zm-340.824219 21.214843c42.683594-42.6875 99.4375-66.195312 159.804688-66.195312 55.339844 0 107.632812 19.769531 148.84375 55.941406l-60.851562 60.851563h-17.550782l-4.25-47.148438c-.699218-7.730469-7.175781-13.652343-14.9375-13.652343h-102.507812c-7.761719 0-14.242188 5.921874-14.9375 13.652343l-4.253906 47.148438h-34.394532v-8.121094c0-8.285156-6.714844-15-15-15-8.28125 0-15 6.714844-15 15v8.121094h-17.160156c-8.285156 0-15 6.714843-15 15v189.210937c0 8.28125 6.714844 15 15 15h20.785156l-38.84375 38.839844c-36.171875-41.210938-55.941406-93.503906-55.941406-148.84375 0-60.367188 23.507812-117.121094 66.195312-159.804688zm145.675782 80.597657c-37.875 6.703125-66.738282 39.835937-66.738282 79.605469 0 16.78125 5.144532 32.386718 13.933594 45.324218l-34.28125 34.28125h-35.785156v-159.210937zm64.996094 79.605469c0 28.046874-22.820313 50.867187-50.867188 50.867187-8.679688 0-16.855469-2.191406-24.011719-6.039063l68.839844-68.839843c3.847656 7.15625 6.039063 15.332031 6.039063 24.011719zm-95.964844 23.488281c-3.675782-7.035157-5.769532-15.019531-5.769532-23.488281 0-28.046876 22.820313-50.867188 50.867188-50.867188 8.46875 0 16.453125 2.089844 23.488281 5.769531zm4.777344-133.09375 2.773437-30.800781h75.089844l2.777343 30.800781zm-5.46875 176.210937c9.332031 6.433594 20.074218 10.949219 31.660156 13h-44.664063zm126.65625-66.605468c0-16.988282-5.277344-32.761719-14.261719-45.789063l33.816406-33.816406h36.578125v159.210937h-122.875c37.875-6.703125 66.742188-39.835937 66.742188-79.605468zm-35.542969-66.9375c-9.21875-6.261719-19.800781-10.652344-31.195313-12.667969h43.863282zm114.480469 226.34375c-42.683594 42.6875-99.4375 66.195312-159.804688 66.195312-55.339844 0-107.632812-19.769531-148.84375-55.941406l60.054688-60.054688h240.789062c8.285156 0 15-6.714844 15-15v-189.210937c0-8.285157-6.714844-15-15-15h-21.578125l39.636719-39.636719c36.171875 41.210938 55.941406 93.503906 55.941406 148.84375 0 60.367188-23.507812 117.121094-66.195312 159.804688zm0 0"/></svg>