<svg id="Layer_1" enable-background="new 0 0 512 512" height="512" viewBox="0 0 512 512" width="512" xmlns="http://www.w3.org/2000/svg"><path d="m384.533 0h-257.066c-70.285 0-127.467 57.182-127.467 127.467v257.066c0 70.285 57.182 127.467 127.467 127.467h257.066c70.285 0 127.467-57.182 127.467-127.467v-257.066c0-70.285-57.182-127.467-127.467-127.467zm0 482h-257.066c-53.743 0-97.467-43.724-97.467-97.467v-257.066c0-21.471 6.984-41.338 18.792-57.462l101.552 101.552-10.352 5.176h-60.725c-8.284 0-15 6.716-15 15v128.533c0 8.284 6.716 15 15 15h60.727l125.365 62.683c4.653 2.327 10.174 2.075 14.594-.656 4.423-2.733 7.114-7.562 7.114-12.76v-76.254l154.928 154.928c-16.123 11.809-35.991 18.793-57.462 18.793zm-127.467-246.146-56.078-56.077 56.078-28.039zm0 42.425v81.983l-98.533-49.267v-109.991l14.172-7.086zm-128.533-71.546v98.533h-34.266v-98.533zm353.467 177.8c0 21.471-6.984 41.338-18.792 57.462l-61.439-61.439c29.718-34.673 45.929-78.357 45.929-124.556 0-51.237-19.933-99.386-56.125-135.574-5.859-5.857-15.356-5.856-21.214.001-5.857 5.858-5.856 15.356.001 21.214 30.526 30.522 47.338 71.136 47.338 114.359 0 38.178-13.124 74.314-37.221 103.264l-24.362-24.362c17.711-22.386 27.327-49.897 27.327-78.903 0-34.063-13.252-66.07-37.315-90.129-5.857-5.857-15.355-5.857-21.213.002-5.857 5.858-5.856 15.355.002 21.213 18.396 18.393 28.526 42.866 28.526 68.914 0 20.971-6.572 40.92-18.731 57.498l-47.645-47.645v-138.385c0-5.198-2.691-10.026-7.114-12.76-4.422-2.733-9.942-2.981-14.594-.656l-86.73 43.365-108.623-108.624c16.123-11.808 35.991-18.792 57.462-18.792h257.066c53.743 0 97.467 43.724 97.467 97.467z"/></svg>