<svg xmlns="http://www.w3.org/2000/svg" width="64.434" height="53.788" viewBox="0 0 64.434 53.788">
  <g id="play1" transform="translate(-40.5 -244)">
    <g id="play" transform="translate(40.5 201.705)">
      <g id="Group_111" data-name="Group 111" transform="translate(0.945 43.24)">
        <path id="Path_336" data-name="Path 336" d="M77.738,328.068,81.1,343.7h5.083v-17.06Z" transform="translate(-68.9 -291.802)" fill="#f5f8f9"/>
        <path id="Path_337" data-name="Path 337" d="M176.923,95.17c-4.824-9.587-11.1-14.409-22.207-14.409V64.212c11.1,0,18.226-4.433,22.207-14.409Z" transform="translate(-136.191 -49.803)" fill="#f5f8f9"/>
        <path id="Path_338" data-name="Path 338" d="M176.92,266.778v5.465c-4.824-9.588-11.1-14.409-22.207-14.409v-5.465C165.817,252.369,172.1,257.19,176.92,266.778Z" transform="translate(-136.188 -226.877)" fill="#e8edf2"/>
        <path id="Path_339" data-name="Path 339" d="M331.174,95.17h1.895a3.146,3.146,0,0,0,3.146-3.146V52.949a3.146,3.146,0,0,0-3.146-3.146h-1.895Z" transform="translate(-290.442 -49.803)" fill="#d8d8d8"/>
        <path id="Path_340" data-name="Path 340" d="M336.215,341.731v5.478a3.15,3.15,0,0,1-3.15,3.15h-1.89v-5.478h1.89A3.15,3.15,0,0,0,336.215,341.731Z" transform="translate(-290.442 -304.993)" fill="#9e9e9e"/>
        <path id="Path_341" data-name="Path 341" d="M67.592,164.295H78.556v16.55H67.592Z" transform="translate(-60.031 -149.886)" fill="#d8d8d8"/>
        <path id="Path_342" data-name="Path 342" d="M67.6,252.249H78.559v5.481H67.6Z" transform="translate(-60.034 -226.772)" fill="#9e9e9e"/>
        <path id="Path_343" data-name="Path 343" d="M15.062,180.845h.01v-16.55h-.01a7.551,7.551,0,0,0-7.551,7.551v1.448A7.551,7.551,0,0,0,15.062,180.845Z" transform="translate(-7.511 -149.886)" fill="#d8d8d8"/>
        <path id="Path_344" data-name="Path 344" d="M15.074,188.585v5.472A7.561,7.561,0,0,1,7.513,186.5v-1.426a7.542,7.542,0,0,1,2.214-5.347c.107-.107.218-.212.331-.312-.016.2-.025.411-.025.619v1.426A7.561,7.561,0,0,0,15.074,188.585Z" transform="translate(-7.513 -163.099)" fill="#9e9e9e"/>
        <g id="Group_110" data-name="Group 110" transform="translate(7.561 15.14)">
          <path id="Path_345" data-name="Path 345" d="M154.716,203.512h6.679v6.679h-6.679Z" transform="translate(-143.752 -199.308)" fill="#aa9ea9"/>
          <path id="Path_346" data-name="Path 346" d="M371.231,170.107v15.087a4.675,4.675,0,0,0,4.277-4.659v-5.769A4.675,4.675,0,0,0,371.231,170.107Z" transform="translate(-333.019 -170.107)" fill="#aa9ea9"/>
          <path id="Path_347" data-name="Path 347" d="M67.592,295.8v5.524l10.964-1.853V295.8Z" transform="translate(-67.592 -279.984)" fill="#aa9ea9"/>
        </g>
        <path id="Path_348" data-name="Path 348" d="M115.5,332.225v-4.959l3.691-.624v6.213H116.13A.63.63,0,0,1,115.5,332.225Z" transform="translate(-101.91 -291.802)" fill="#b0b0b0"/>
      </g>
      <g id="Group_112" data-name="Group 112" transform="translate(0 42.295)">
        <path id="Path_349" data-name="Path 349" d="M47.662,57.583v-11.2a4.1,4.1,0,0,0-4.09-4.09H41.678a.944.944,0,0,0-.874.588l0,.006C37.04,52.314,30.262,56.7,19.47,56.7H15.849a.944.944,0,1,0,0,1.888h2.677V73.255H9.449V58.592h2.288a.944.944,0,1,0,0-1.888H8.495A8.5,8.5,0,0,0,0,65.2v1.449A8.506,8.506,0,0,0,7.561,75.09v4.633a.944.944,0,0,0,1.1.931l.387-.065,1.132,5.265a.944.944,0,0,0,1.846-.4l-1.114-5.183,2.678-.453v3.842a1.576,1.576,0,0,0,1.574,1.574h2.118V94.2H13.9l-.994-4.626a.944.944,0,0,0-1.846.4l1.154,5.371a.944.944,0,0,0,.923.746h5.084a.944.944,0,0,0,.944-.944V78.877l.457-.077a.944.944,0,0,0,.787-.931V75.154c9.652.245,15.611,4.32,20.421,13.878l0,0a.943.943,0,0,0,.84.516h1.894a4.1,4.1,0,0,0,4.09-4.09V81.085a.944.944,0,1,0-1.888,0v4.377a2.2,2.2,0,0,1-2.2,2.2h-.95V44.183h.95a2.2,2.2,0,0,1,2.2,2.2V76.971a.944.944,0,0,0,1.888,0V74.264a5.658,5.658,0,0,0,4.278-5.456V63.039A5.658,5.658,0,0,0,47.662,57.583ZM20.414,63.528h4.792v4.792H20.414ZM18.526,77.072l-.539.091-1.811.306L9.625,78.576H9.62l-.171.029V75.142h9.077v1.929ZM1.888,66.648V65.2a6.617,6.617,0,0,1,5.673-6.54v14.53A6.617,6.617,0,0,1,1.888,66.648Zm13.591,16.7V79.5h0l1.8-.3v4.153h-1.8Zm4.935-10.083V70.207h5.735a.944.944,0,0,0,.944-.944V62.584a.944.944,0,0,0-.944-.944H20.414V58.581c9.587-.218,16.148-3.8,20.32-11.171V84.969c-4.867-7.9-11.135-11.477-20.32-11.7Zm29.639-4.458a3.759,3.759,0,0,1-2.39,3.482V59.557a3.76,3.76,0,0,1,2.39,3.482Z" transform="translate(0 -42.295)"/>
        <path id="Path_350" data-name="Path 350" d="M420.2,64l-4.367,4.367a.944.944,0,0,0,1.335,1.335l4.366-4.367A.944.944,0,0,0,420.2,64Z" transform="translate(-363.264 -61.027)"/>
        <path id="Path_351" data-name="Path 351" d="M467.9,169.784a.939.939,0,0,0,.523-.159l3.781-2.52a.944.944,0,0,0-1.047-1.571l-3.781,2.52a.944.944,0,0,0,.524,1.729Z" transform="translate(-408.192 -149.887)"/>
        <path id="Path_352" data-name="Path 352" d="M472.206,262.372l-3.781-2.52a.944.944,0,1,0-1.047,1.571l3.781,2.52a.944.944,0,0,0,1.047-1.571Z" transform="translate(-408.192 -232.334)"/>
        <path id="Path_353" data-name="Path 353" d="M417.173,346.952a.944.944,0,0,0-1.335,1.335l4.367,4.367a.944.944,0,0,0,1.335-1.335Z" transform="translate(-363.264 -308.37)"/>
      </g>
    </g>
  </g>
</svg>
