<svg xmlns="http://www.w3.org/2000/svg" width="20" height="24" viewBox="0 0 20 24">
  <g id="textformat" transform="translate(-2)">
    <path id="Path_280" data-name="Path 280" d="M19.5,24H4.5A2.5,2.5,0,0,1,2,21.5V2.5A2.5,2.5,0,0,1,4.5,0h15A2.5,2.5,0,0,1,22,2.5v19A2.5,2.5,0,0,1,19.5,24ZM4.5,1A1.5,1.5,0,0,0,3,2.5v19A1.5,1.5,0,0,0,4.5,23h15A1.5,1.5,0,0,0,21,21.5V2.5A1.5,1.5,0,0,0,19.5,1Z"/>
    <path id="Path_281" data-name="Path 281" d="M11.5,10a.5.5,0,0,1-.5-.5V9H6v.5a.5.5,0,0,1-1,0v-1A.5.5,0,0,1,5.5,8h6a.5.5,0,0,1,.5.5v1A.5.5,0,0,1,11.5,10Z"/>
    <path id="Path_282" data-name="Path 282" d="M8.5,15a.5.5,0,0,1-.5-.5v-6a.5.5,0,0,1,1,0v6A.5.5,0,0,1,8.5,15Z"/>
    <path id="Path_283" data-name="Path 283" d="M9.5,15h-2a.5.5,0,0,1,0-1h2a.5.5,0,0,1,0,1Z"/>
    <path id="Path_284" data-name="Path 284" d="M18.5,9h-4a.5.5,0,0,1,0-1h4a.5.5,0,0,1,0,1Z"/>
    <path id="Path_285" data-name="Path 285" d="M18.5,12h-4a.5.5,0,0,1,0-1h4a.5.5,0,0,1,0,1Z"/>
    <path id="Path_286" data-name="Path 286" d="M18.5,15h-4a.5.5,0,0,1,0-1h4a.5.5,0,0,1,0,1Z"/>
    <path id="Path_287" data-name="Path 287" d="M18.5,18H5.5a.5.5,0,0,1,0-1h13a.5.5,0,0,1,0,1Z"/>
    <path id="Path_288" data-name="Path 288" d="M18.5,21H5.5a.5.5,0,0,1,0-1h13a.5.5,0,0,1,0,1Z"/>
    <path id="Path_289" data-name="Path 289" d="M32.692,15.4H16.077C14.93,15.4,14,15.089,14,14.7s.93-.7,2.077-.7H32.692c1.146,0,2.077.314,2.077.7S33.838,15.4,32.692,15.4Z" transform="matrix(0.656, -0.755, 0.755, 0.656, -14.751, 22.758)"/>
    <path id="Path_290" data-name="Path 290" d="M32.692,15.4H16.077C14.93,15.4,14,15.089,14,14.7s.93-.7,2.077-.7H32.692c1.146,0,2.077.314,2.077.7S33.838,15.4,32.692,15.4Z" transform="translate(19.189 41.637) rotate(-135)"/>
  </g>
</svg>
