<svg xmlns="http://www.w3.org/2000/svg" width="20.585" height="20" viewBox="0 0 20.585 20">
  <path id="reset" d="M18.523,8.232A10.011,10.011,0,0,0,4.5,6.37,10.044,10.044,0,0,0,2.791,8.041L2.344,5.512A.508.508,0,0,0,1.755,5.1L.42,5.335a.508.508,0,0,0-.412.589l1.061,6.009a.508.508,0,0,0,.589.412l6.009-1.061a.508.508,0,0,0,.412-.589L7.844,9.361a.508.508,0,0,0-.589-.412l-2.5.442A7.66,7.66,0,0,1,5.945,8.254a7.628,7.628,0,1,1,9.273,12.114,7.542,7.542,0,0,1-4.62,1.572,7.788,7.788,0,0,1-1.021-.068A7.634,7.634,0,0,1,3.06,15.588a.509.509,0,0,0-.586-.417L1.136,15.4a.509.509,0,0,0-.417.586,10.007,10.007,0,0,0,8.545,8.243,10.184,10.184,0,0,0,1.336.089A10,10,0,0,0,18.523,8.232Z" transform="translate(0 -4.314)" fill="#231f20"/>
</svg>
