<svg xmlns="http://www.w3.org/2000/svg" width="41.211" height="43" viewBox="0 0 41.211 43">
  <path id="share-line" d="M36.115,31.443a6.676,6.676,0,0,0-4.807,2.07L15.032,25.368a5.968,5.968,0,0,0,0-3.739l16.3-8.292a6.836,6.836,0,1,0-1.429-2.27L13.763,19.279a6.676,6.676,0,1,0,0,8.452l16.1,8.1a6.582,6.582,0,0,0-.414,2.283,6.676,6.676,0,1,0,6.676-6.676Zm0-26.7a4.006,4.006,0,1,1-4.006,4.006,4.006,4.006,0,0,1,4.006-4.006ZM8.7,27.437a4.006,4.006,0,1,1,4.006-4.006A4.006,4.006,0,0,1,8.7,27.437ZM36.115,42.125a4.006,4.006,0,1,1,4.006-4.006A4.006,4.006,0,0,1,36.115,42.125Z" transform="translate(-1.919 -1.795)" fill="#373b43"/>
</svg>
