<svg xmlns="http://www.w3.org/2000/svg" width="103.351" height="79.292" viewBox="0 0 103.351 79.292">
  <g id="_3.Multimedia" data-name="3.Multimedia" transform="translate(-0.25 -0.226)">
    <g id="Multimedia-_Stroke_" data-name="Multimedia-(Stroke)" transform="translate(-498 -112)">
      <g id="_3-multimeda-sound-loud" data-name="3-multimeda-sound-loud" transform="translate(500 114)">
        <path id="Layer-1" d="M15,53H3a3,3,0,0,1-3-3V26H0a3,3,0,0,1,3-3H15" fill="#0fe0e0" stroke="#263238" stroke-linecap="round" stroke-linejoin="round" stroke-width="3.5" fill-rule="evenodd"/>
        <path id="Layer-2" d="M41.155.942C43.278-.828,45-.032,45,2.728V73.016c0,2.756-1.721,3.557-3.845,1.787L15,53.009V22.735Z" fill="#0fe0e0" stroke="#263238" stroke-linecap="round" stroke-linejoin="round" stroke-width="3.5" fill-rule="evenodd"/>
        <path id="Layer-3" d="M73,75.137A39.015,39.015,0,0,0,73.013,1" fill="none" stroke="#263238" stroke-linecap="round" stroke-linejoin="round" stroke-width="3.5" fill-rule="evenodd"/>
        <path id="Layer-4" d="M67,61.463A24.008,24.008,0,0,0,67.035,15" fill="none" stroke="#263238" stroke-linecap="round" stroke-linejoin="round" stroke-width="3.5" fill-rule="evenodd"/>
        <path id="Layer-5" d="M60,48h0a10,10,0,1,0,0-20" fill="none" stroke="#263238" stroke-linecap="round" stroke-linejoin="round" stroke-width="3.5" fill-rule="evenodd"/>
      </g>
    </g>
  </g>
</svg>
