<svg xmlns="http://www.w3.org/2000/svg" width="26.525" height="19.225" viewBox="0 0 26.525 19.225">
  <path id="soundRecord" d="M20.007,5.211v5.314a3.219,3.219,0,0,1,0,5.47v5.318a8.231,8.231,0,0,0,0-16.1Zm1.861,8.743a1.34,1.34,0,0,0,.062-.693l3.834-1.035a4.752,4.752,0,0,1-.246,3.516Zm-.878-.693a2.68,2.68,0,0,1-.982,2.067V11.195A2.686,2.686,0,0,1,20.99,13.261ZM0,22.875H19.225V3.65H0ZM5.217,16.82a2.381,2.381,0,0,1,1.333.042V7.9L14,6.694V16.8a1.875,1.875,0,0,1-1.6,1.747,1.81,1.81,0,0,1-2.3-1,1.807,1.807,0,0,1,1.563-1.966,2.341,2.341,0,0,1,1.354.045V9.538l-5.458,1-.025,7.569h0a1.912,1.912,0,0,1-1.581,1.649c-1.055.268-2.162-.237-2.278-.988A1.788,1.788,0,0,1,5.217,16.82Z" transform="translate(0 -3.65)"/>
</svg>
