<svg xmlns="http://www.w3.org/2000/svg" width="301.628" height="550.692" viewBox="0 0 301.628 550.692">
  <g id="Group_106" data-name="Group 106" transform="translate(-35.627 -137.834)">
    <g id="Group_108" data-name="Group 108" transform="translate(-52.373 -53.166)">
      <path id="Union_28" data-name="Union 28" d="M152.494,460.673V385.038a84.179,84.179,0,0,0,33.271-8.181,93.29,93.29,0,0,0,29.668-22.462,106.011,106.011,0,0,0,20-33.314A115.144,115.144,0,0,0,242.76,282h.013V194.378H169.133V250.2H10V85.252A193.643,193.643,0,0,1,22.536,17a183.78,183.78,0,0,1,14.5-29.77A174.53,174.53,0,0,1,56.187-38.7a163.428,163.428,0,0,1,23.182-21.39,152.219,152.219,0,0,1,26.586-16.148,143.816,143.816,0,0,1,29.364-10.2A141.4,141.4,0,0,1,166.838-90c.788,0,1.561.006,2.295.018v75.636a84.18,84.18,0,0,0-33.271,8.181A93.231,93.231,0,0,0,106.194,16.3a105.981,105.981,0,0,0-20,33.314,115.191,115.191,0,0,0-7.322,39.077h-.013v87.626h73.639V120.5H311.628V285.44a193.627,193.627,0,0,1-12.536,68.251,183.763,183.763,0,0,1-14.5,29.77,174.449,174.449,0,0,1-19.153,25.931,163.348,163.348,0,0,1-23.182,21.39,152.318,152.318,0,0,1-26.585,16.149,141.282,141.282,0,0,1-60.884,13.761C154.021,460.692,153.248,460.686,152.494,460.673Z" transform="translate(78 281)" fill="rgba(0,0,0,0.1)"/>
    </g>
    <text id="LANGUAJ" transform="translate(188 239)" fill="#333" font-size="64" font-family="Roboto-Bold, Roboto" font-weight="700"><tspan x="-105.594" y="0">languaj</tspan></text>
    <g id="Group_43" data-name="Group 43" transform="translate(-10.001 2.226)">
      <text id="Repeat_again" data-name="Repeat again" transform="translate(198.001 583.774)" fill="#333" font-size="33" font-family="Arial-BoldMT, Arial" font-weight="700"><tspan x="-102.698" y="0">Repeat again</tspan></text>
    </g>
    <path id="Subtraction_3" data-name="Subtraction 3" d="M104,222.333H0v-107.8a126.555,126.555,0,0,1,8.193-44.6,120.12,120.12,0,0,1,9.475-19.456A113.992,113.992,0,0,1,30.185,33.527a106.735,106.735,0,0,1,15.151-13.98A99.513,99.513,0,0,1,62.71,8.993,92.328,92.328,0,0,1,102.5,0c.5,0,1.007,0,1.5.012v49.43A55.019,55.019,0,0,0,82.256,54.79a60.949,60.949,0,0,0-19.39,14.68A69.28,69.28,0,0,0,49.793,91.242a75.249,75.249,0,0,0-4.785,25.539H45v57.267h59v48.284Z" transform="translate(298 536.333) rotate(180)" fill="#fff"/>
    <path id="Subtraction_6" data-name="Subtraction 6" d="M104,222.333H0v-107.8a126.563,126.563,0,0,1,8.193-44.6,120.1,120.1,0,0,1,9.475-19.456A114.044,114.044,0,0,1,30.185,33.526a106.813,106.813,0,0,1,15.15-13.98A99.518,99.518,0,0,1,62.711,8.993,94,94,0,0,1,81.9,2.325,92.384,92.384,0,0,1,102.5,0c.515,0,1.02,0,1.5.012V49.443a55.015,55.015,0,0,0-21.744,5.346,60.933,60.933,0,0,0-19.39,14.68A69.271,69.271,0,0,0,49.793,91.242a75.29,75.29,0,0,0-4.785,25.538H45v57.267h59v48.284Z" transform="translate(78 281)" fill="#333"/>
  </g>
</svg>
