<svg xmlns="http://www.w3.org/2000/svg" width="25.847" height="30.694" viewBox="0 0 25.847 30.694">
  <g id="studentView" transform="translate(-3090 -1527)">
    <path id="Union_36" data-name="Union 36" d="M20.331,29.307V19.183h-.519V29.307a1.387,1.387,0,0,1-2.774,0V16.736a1.392,1.392,0,0,0,.9-.647,4.442,4.442,0,0,0,.535-1.686,1.122,1.122,0,0,0,.2-1.805c.009-.092.019-.181.028-.263a15.668,15.668,0,0,0,.1-1.836c0-.311-.008-.561-.016-.721h3.454a.86.86,0,0,1,.205.026,2.012,2.012,0,0,1,.6.1,2.478,2.478,0,0,1,.326.134,3.174,3.174,0,0,1,1.2,1.117c.737,1.127,1.278,3,1.283,6.385,0,.657-.022,1.372-.067,2.149a.9.9,0,0,1-.895.844h-.053a.9.9,0,0,1-.844-.948c.044-.747.064-1.426.064-2.045a13.875,13.875,0,0,0-.581-4.558c-.047-.13-.094-.247-.142-.353a3.455,3.455,0,0,0-.224-.427v17.1a1.387,1.387,0,0,1-2.774,0ZM7.483,29.093V17.411h-.6V29.093a1.6,1.6,0,1,1-3.2,0V14.588a1.6,1.6,0,0,0,1.033-.746A5.133,5.133,0,0,0,5.334,11.9a1.3,1.3,0,0,0,.229-2.083c.011-.105.022-.208.033-.3a18.281,18.281,0,0,0,.12-2.118c0-.359-.01-.647-.019-.832H9.682a1.021,1.021,0,0,1,.237.029,2.366,2.366,0,0,1,.689.122,2.811,2.811,0,0,1,.377.155,3.659,3.659,0,0,1,1.382,1.289c.851,1.3,1.474,3.461,1.48,7.367,0,.758-.024,1.581-.076,2.479a1.035,1.035,0,0,1-1.032.975c-.021,0-.04,0-.061,0A1.035,1.035,0,0,1,11.7,17.88c.05-.861.073-1.645.073-2.358a16,16,0,0,0-.67-5.26c-.055-.15-.11-.284-.165-.407a4.015,4.015,0,0,0-.259-.493V29.093a1.6,1.6,0,1,1-3.2,0Zm6.474-12.9a3.873,3.873,0,0,1,.13-1.493.072.072,0,0,0,.024.044,1.558,1.558,0,0,0,.643.318,2.365,2.365,0,0,0,.566.062h0a6.673,6.673,0,0,0,1.491-.22v5.2A5.331,5.331,0,0,1,13.956,16.194ZM.127,13.964a4.484,4.484,0,0,1,.15-1.723.085.085,0,0,0,.028.05,1.791,1.791,0,0,0,.742.367,2.691,2.691,0,0,0,.653.071h0a7.674,7.674,0,0,0,1.72-.253v6C1.667,17.857.271,15.407.127,13.964Zm16.911.886c.146-.038.3-.079.461-.125a2.774,2.774,0,0,1-.319.878.925.925,0,0,1-.142.169Zm-2.232,0a1.337,1.337,0,0,1-.551-.272.809.809,0,0,1-.1-.1l0,0a1.177,1.177,0,0,1-.3-.784,1.631,1.631,0,0,1,.261-.835,4.122,4.122,0,0,1,.451-.595,12.046,12.046,0,0,1,1.155-1.1c.449-.384.892-.729,1.2-.962.247-.187.407-.3.412-.306a.9.9,0,0,1,.558-.167c0,.038,0,.089.007.156.006.149.013.363.013.624a14.971,14.971,0,0,1-.1,1.73c0,.027-.006.058-.01.085a1.118,1.118,0,0,0-.22.046l-.537.173v-.148c-.075.063-.149.126-.224.191v.03c-.707.229-1.281.42-1.517.5h.023a9.423,9.423,0,0,0,2.323-.532.9.9,0,1,1,.541,1.711,10.607,10.607,0,0,1-2.864.616A2.194,2.194,0,0,1,14.806,14.845ZM3.683,12.411c.167-.043.344-.091.531-.144a3.225,3.225,0,0,1-.367,1.012,1.057,1.057,0,0,1-.164.194Zm-2.576-.005a1.55,1.55,0,0,1-.636-.313,1,1,0,0,1-.119-.121l0,.005a1.357,1.357,0,0,1-.348-.9,1.875,1.875,0,0,1,.3-.964,4.672,4.672,0,0,1,.52-.687A13.917,13.917,0,0,1,2.155,8.149c.518-.444,1.029-.841,1.383-1.11.285-.216.47-.349.476-.354a1.029,1.029,0,0,1,.644-.193c0,.043.005.1.008.179.007.171.014.418.014.719a17.09,17.09,0,0,1-.113,2c0,.031-.006.067-.011.1a1.311,1.311,0,0,0-.254.052l-.62.2V9.57c-.086.072-.173.145-.259.22v.033c-.815.266-1.477.485-1.75.576H1.7a10.844,10.844,0,0,0,2.681-.614,1.035,1.035,0,0,1,.624,1.975,12.232,12.232,0,0,1-3.3.71A2.5,2.5,0,0,1,1.107,12.406Zm16.441-5.79A2.523,2.523,0,1,1,20.071,9.14,2.523,2.523,0,0,1,17.548,6.616ZM4.271,2.911A2.912,2.912,0,1,1,7.182,5.823,2.912,2.912,0,0,1,4.271,2.911Z" transform="translate(3090 1527)"/>
  </g>
</svg>
