<svg id="success" xmlns="http://www.w3.org/2000/svg" width="191.595" height="191.595" viewBox="0 0 191.595 191.595">
  <g id="Group_113" data-name="Group 113" transform="translate(54.285 3.193)">
    <circle id="Ellipse_45" data-name="Ellipse 45" cx="16" cy="16" r="16" transform="translate(25.715 0.401)" fill="#ffc931"/>
    <path id="Path_354" data-name="Path 354" d="M177.512,81.445l9.58,38.319h15.966l-9.58-44.705V52.705h6.387a19.089,19.089,0,0,0,7.932-1.734c-.354-.236-.7-.479-1.073-.69.374.211.718.457,1.073.69a19.144,19.144,0,0,0,11.227-17.426V8H206.251V33.546a6.385,6.385,0,0,1-6.386,6.386H155.159a6.385,6.385,0,0,1-6.386-6.386V8H136V33.546a19.158,19.158,0,0,0,19.159,19.159h6.386V75.058l-9.58,44.705h15.966Z" transform="translate(-136 -8)" fill="#ffc931"/>
  </g>
  <path id="Path_355" data-name="Path 355" d="M138.031,359.966,122.064,344,106.1,359.966,90.132,344,74.166,359.966l-15.51-15.51L17.144,395.092H195.052L153.54,344.457Zm-47.9,22.353h0Zm12.773,0h0Zm12.773,0h0Z" transform="translate(-10.301 -206.69)" fill="#406af2"/>
  <path id="Path_356" data-name="Path 356" d="M152.62,310.353l15.966,15.966,15.966-15.966,15.966,15.966,15.51-15.51L197.325,288H139.847l-18.7,22.809,15.51,15.51Z" transform="translate(-72.789 -173.043)" fill="#4bdddd"/>
  <g id="Group_114" data-name="Group 114" transform="translate(3.193 3.193)">
    <ellipse id="Ellipse_46" data-name="Ellipse 46" cx="19.5" cy="19" rx="19.5" ry="19" transform="translate(-0.193 0.401)" fill="#ffc931"/>
    <ellipse id="Ellipse_47" data-name="Ellipse 47" cx="19" cy="19.5" rx="19" ry="19.5" transform="translate(146.807 95.401)" fill="#ffc931"/>
  </g>
  <path id="Path_357" data-name="Path 357" d="M8.45,222.353H62A19.143,19.143,0,0,0,27.37,208.271,12.659,12.659,0,0,0,8.45,222.353Z" transform="translate(-4.807 -120.169)" fill="#c9f4f3"/>
  <path id="Path_358" data-name="Path 358" d="M286.387,167.439c9.759,1.807,17.582,2.264,25.108-4.991,4.93-4.755,10.206-15.9,16.777-18.134-5.215,1.772-11.087-.655-15.047-4.483s-6.473-8.864-9.216-13.642-5.971-9.554-10.761-12.268l-3.669,2.427H280V138.7Z" transform="translate(-168.236 -68.448)" fill="#d13330"/>
  <path id="Path_359" data-name="Path 359" d="M265.546,288H240v38.319l15.966-15.966,15.966,15.966,15.51-15.51L268.739,288Z" transform="translate(-144.203 -173.043)" fill="#42c2c2"/>
  <path id="Path_360" data-name="Path 360" d="M240,395.092h88.954l-41.512-50.635-15.51,15.51L255.966,344,240,359.966Z" transform="translate(-144.203 -206.69)" fill="#385ed6"/>
  <g id="Group_115" data-name="Group 115" transform="translate(95.797 3.193)">
    <path id="Path_361" data-name="Path 361" d="M255.966,23.966A15.968,15.968,0,0,0,240,8V39.932A15.968,15.968,0,0,0,255.966,23.966Z" transform="translate(-240 -8)" fill="#e6b52c"/>
    <path id="Path_362" data-name="Path 362" d="M249.58,119.764h15.966l-9.58-44.705V52.705h6.387a19.2,19.2,0,0,0,19.159-19.159V8H268.739V33.546a6.385,6.385,0,0,1-6.386,6.386H240V81.445Z" transform="translate(-240 -8)" fill="#e6b52c"/>
  </g>
  <g id="Group_116" data-name="Group 116">
    <path id="Path_363" data-name="Path 363" d="M127,112.932a3.2,3.2,0,0,0-2.468-1.169h-.61l-1.91-8.912a44.36,44.36,0,0,0,6.026.466A23.7,23.7,0,0,0,145.475,96.3a54.3,54.3,0,0,0,5.812-7.245c3.05-4.237,6.5-9.043,9.768-10.161,0,0,.006,0,.013-.006a3.193,3.193,0,1,0-2.056-6.045H159c-4.311,1.478-9.05-1.108-11.793-3.758-3.021-2.915-5.151-6.7-7.405-10.71l-1.261-2.222a45.408,45.408,0,0,0-6.974-9.58A22.3,22.3,0,0,0,140.5,28.739V3.193A3.192,3.192,0,0,0,137.31,0H124.537a3.192,3.192,0,0,0-3.193,3.193V28.739a3.2,3.2,0,0,1-3.193,3.193h-8.111a19.16,19.16,0,1,0-28.484,0H73.445a3.2,3.2,0,0,1-3.193-3.193V3.193A3.192,3.192,0,0,0,67.058,0H54.285a3.192,3.192,0,0,0-3.193,3.193V28.739A22.379,22.379,0,0,0,73.445,51.092h3.193V69.916l-8.97,41.847h-.61a3.2,3.2,0,0,0-2.468,1.169L5.333,185.208H0v6.386H191.595v-6.386h-5.333Zm6-53.6,1.233,2.175c2.379,4.231,4.841,8.606,8.532,12.173a22.417,22.417,0,0,0,8.331,5.112c-1.75,2.012-3.388,4.289-5,6.53a51.051,51.051,0,0,1-5.058,6.377c-5.7,5.492-11.534,5.936-20.462,4.458l-5.623-26.242V51.092h3.193a22.2,22.2,0,0,0,7.469-1.309C128.656,52.254,130.965,55.786,133.005,59.334ZM83.024,19.159A12.773,12.773,0,1,1,95.8,31.932,12.786,12.786,0,0,1,83.024,19.159Zm-.07,51.762a3.168,3.168,0,0,0,.07-.671V47.9a3.192,3.192,0,0,0-3.193-3.193H73.445A15.984,15.984,0,0,1,57.478,28.739V6.386h6.386V28.739a9.591,9.591,0,0,0,9.58,9.58H118.15a9.591,9.591,0,0,0,9.58-9.58V6.386h6.386V28.739A15.984,15.984,0,0,1,118.15,44.705h-6.386A3.192,3.192,0,0,0,108.57,47.9V70.251a3.168,3.168,0,0,0,.07.671l8.753,40.842h-9.522l-8.976-35.9a3.192,3.192,0,0,0-6.195,0l-8.976,35.9H74.2Zm18.332,40.842H90.308L95.8,89.8ZM68.569,118.15h54.458l15.909,19.405L127.73,148.76l-13.709-13.709a3.19,3.19,0,0,0-4.515,0L95.8,148.76,82.089,135.052a3.19,3.19,0,0,0-4.515,0L63.865,148.76,52.66,137.555ZM13.59,185.208l35-42.69,13.016,13.016a3.19,3.19,0,0,0,4.515,0l13.709-13.709L93.54,155.533a3.19,3.19,0,0,0,4.515,0l13.709-13.709,13.709,13.709a3.192,3.192,0,0,0,4.515,0L143,142.518l35,42.69Z" fill="#2a0e54"/>
    <rect id="Rectangle_106" data-name="Rectangle 106" width="6" height="6" transform="translate(93 172.595)" fill="#2a0e54"/>
    <rect id="Rectangle_107" data-name="Rectangle 107" width="7" height="6" transform="translate(105 172.595)" fill="#2a0e54"/>
    <rect id="Rectangle_108" data-name="Rectangle 108" width="6" height="6" transform="translate(80 172.595)" fill="#2a0e54"/>
    <path id="Path_364" data-name="Path 364" d="M19.159,41.512a3.193,3.193,0,0,0,6.386,0A15.984,15.984,0,0,1,41.512,25.546a3.193,3.193,0,0,0,0-6.386A15.984,15.984,0,0,1,25.546,3.193a3.193,3.193,0,0,0-6.386,0A15.984,15.984,0,0,1,3.193,19.159a3.193,3.193,0,0,0,0,6.386A15.984,15.984,0,0,1,19.159,41.512ZM22.353,14.7a22.563,22.563,0,0,0,7.654,7.654,22.563,22.563,0,0,0-7.654,7.654A22.563,22.563,0,0,0,14.7,22.353,22.563,22.563,0,0,0,22.353,14.7Z" fill="#2a0e54"/>
    <path id="Path_365" data-name="Path 365" d="M409.512,259.159a15.984,15.984,0,0,1-15.966-15.966,3.193,3.193,0,1,0-6.386,0,15.984,15.984,0,0,1-15.966,15.966,3.193,3.193,0,0,0,0,6.386,15.984,15.984,0,0,1,15.966,15.966,3.193,3.193,0,1,0,6.386,0,15.984,15.984,0,0,1,15.966-15.966,3.193,3.193,0,0,0,0-6.386Zm-19.159,10.847a22.535,22.535,0,0,0-7.654-7.654,22.535,22.535,0,0,0,7.654-7.654,22.535,22.535,0,0,0,7.654,7.654A22.563,22.563,0,0,0,390.353,270.007Z" transform="translate(-221.111 -144.203)" fill="#2a0e54"/>
    <path id="Path_366" data-name="Path 366" d="M3.647,220.739H57.191a3.194,3.194,0,0,0,3.149-2.666,22.333,22.333,0,0,0-38.686-18.6,15.668,15.668,0,0,0-5.687-1.083A15.984,15.984,0,0,0,0,214.353a15.777,15.777,0,0,0,.556,4A3.192,3.192,0,0,0,3.647,220.739Zm12.32-15.966a9.436,9.436,0,0,1,4.94,1.421,3.19,3.19,0,0,0,4.282-.91,15.96,15.96,0,0,1,29.1,9.069H6.386A9.591,9.591,0,0,1,15.966,204.773Z" transform="translate(0 -115.362)" fill="#2a0e54"/>
  </g>
</svg>
