<svg xmlns="http://www.w3.org/2000/svg" width="48.813" height="47.985" viewBox="0 0 48.813 47.985">
  <g id="teacher1" transform="translate(-15.998 -24)">
    <path id="Path_262" data-name="Path 262" d="M72,42.2V38.065a14.065,14.065,0,0,1,28.129,0V42.2Z" transform="translate(-50.21 0)" fill="#734b39"/>
    <circle id="Ellipse_36" data-name="Ellipse 36" cx="3.5" cy="3.5" r="3.5" transform="translate(42.998 39)" fill="#f0c6a4"/>
    <ellipse id="Ellipse_37" data-name="Ellipse 37" cx="3" cy="3.5" rx="3" ry="3.5" transform="translate(21.998 39)" fill="#f0c6a4"/>
    <path id="Path_263" data-name="Path 263" d="M104,95.446h7.446c3.655,0,6.619-3.334,6.619-7.446a7.446,7.446,0,0,1,7.446,7.446v3.309a10.755,10.755,0,0,1-21.511,0Z" transform="translate(-78.901 -57.381)" fill="#f7cca9"/>
    <path id="Path_264" data-name="Path 264" d="M87.439,299.309v16.547H56V299.309A3.309,3.309,0,0,1,59.309,296h24.82A3.309,3.309,0,0,1,87.439,299.309Z" transform="translate(-35.865 -243.871)" fill="#e9eef2"/>
    <path id="Path_265" data-name="Path 265" d="M360,344h11.583v14.892H360Z" transform="translate(-308.426 -286.907)" fill="#eb423f"/>
    <path id="Path_266" data-name="Path 266" d="M396.137,369.655h-3.309a.827.827,0,0,1,0-1.655h3.309a.827.827,0,0,1,0,1.655Z" transform="translate(-337.117 -308.425)" fill="#ffb632"/>
    <path id="Path_267" data-name="Path 267" d="M390.688,401.655h-4.861a.827.827,0,0,1,0-1.655h4.861a.827.827,0,0,1,0,1.655Z" transform="translate(-330.841 -337.115)" fill="#ffb632"/>
    <path id="Path_268" data-name="Path 268" d="M1.655,0H3.309A1.655,1.655,0,0,1,4.964,1.655V4.964H0V1.655A1.655,1.655,0,0,1,1.655,0Z" transform="translate(64.811 67.021) rotate(90)" fill="#f7cca9"/>
    <path id="Path_269" data-name="Path 269" d="M25.1,290.2a.827.827,0,0,1-.741-.457l-8.273-16.547a.827.827,0,1,1,1.48-.74L25.839,289a.827.827,0,0,1-.739,1.2Z" transform="translate(0 -222.349)" fill="#c3c6c7"/>
    <path id="Path_270" data-name="Path 270" d="M248,344h11.583v14.892H248Z" transform="translate(-208.009 -286.907)" fill="#d13330"/>
    <path id="Path_271" data-name="Path 271" d="M1.655,0H3.309A1.655,1.655,0,0,1,4.964,1.655V4.964H0V1.655A1.655,1.655,0,0,1,1.655,0Z" transform="translate(23.444 71.985) rotate(-90)" fill="#f7cca9"/>
    <path id="Path_272" data-name="Path 272" d="M179.309,242.479a5.272,5.272,0,0,1-2.941-.962.827.827,0,0,1,.918-1.377,3.309,3.309,0,0,0,4.046,0,.827.827,0,1,1,.918,1.377A5.272,5.272,0,0,1,179.309,242.479Z" transform="translate(-143.454 -193.663)" fill="#452d23"/>
    <path id="Path_273" data-name="Path 273" d="M200,296h1.655v19.856H200Z" transform="translate(-164.973 -243.871)" fill="#e1e3e6"/>
    <path id="Path_274" data-name="Path 274" d="M184,358.892,184.827,344h3.309l.827,14.892H184Z" transform="translate(-150.628 -286.907)" fill="#4f5659"/>
    <path id="Path_275" data-name="Path 275" d="M192,296h3.309v4.964H192Z" transform="translate(-157.8 -243.871)" fill="#606669"/>
    <path id="Path_276" data-name="Path 276" d="M158.619,296,152,300.964V296Z" transform="translate(-121.937 -243.871)" fill="#dadcde"/>
    <path id="Path_277" data-name="Path 277" d="M200,296l6.619,4.964V296Z" transform="translate(-164.973 -243.871)" fill="#dadcde"/>
    <path id="Path_278" data-name="Path 278" d="M110.619,152a4.144,4.144,0,0,0-4.053,3.309H104v1.655h2.565A4.137,4.137,0,1,0,110.619,152Zm0,6.619a2.482,2.482,0,1,1,2.482-2.482A2.482,2.482,0,0,1,110.619,158.619Z" transform="translate(-78.901 -114.763)" fill="#4f5659"/>
    <ellipse id="Ellipse_38" data-name="Ellipse 38" cx="1" cy="0.5" rx="1" ry="0.5" transform="translate(30.998 41)" fill="#452d23"/>
    <path id="Path_279" data-name="Path 279" d="M218.763,155.307H216.2a4.137,4.137,0,1,0,0,1.655h2.565Zm-6.619,3.309a2.482,2.482,0,1,1,2.482-2.482,2.482,2.482,0,0,1-2.482,2.482Z" transform="translate(-172.153 -114.761)" fill="#4f5659"/>
    <ellipse id="Ellipse_39" data-name="Ellipse 39" cx="1" cy="0.5" rx="1" ry="0.5" transform="translate(38.998 41)" fill="#452d23"/>
  </g>
</svg>
