<svg xmlns="http://www.w3.org/2000/svg" viewBox="0 0 120.84 224.63"><defs><style>.cls-1,.cls-16,.cls-25{fill:#ffad4a;}.cls-2{fill:#000201;}.cls-3{fill:#ffd297;}.cls-11,.cls-17,.cls-18,.cls-21,.cls-4{fill:#fff;}.cls-5{fill:#854277;}.cls-6,.cls-8{fill:#66245d;}.cls-6{opacity:0.4;}.cls-7{fill:#c170b2;}.cls-9{fill:#fdc6a2;}.cls-10,.cls-12{fill:#e89176;}.cls-10{opacity:0.75;}.cls-11{opacity:0.55;isolation:isolate;}.cls-13,.cls-14,.cls-20{fill:#ff9976;}.cls-13{opacity:0.25;}.cls-15{fill:#181828;}.cls-16,.cls-18{opacity:0.35;}.cls-17,.cls-20{opacity:0.6;}.cls-19{fill:#ef8847;}.cls-21{opacity:0.5;}.cls-22{fill:#e1fbff;}.cls-23{fill:#f9968f;}.cls-24{fill:#e25959;}.cls-25{opacity:0.45;}</style></defs><title>Asset 7</title><g id="Layer_2" data-name="Layer 2"><g id="Layer_1-2" data-name="Layer 1"><path class="cls-1" d="M85.45,10.47S97,11.72,116,2.74a1.14,1.14,0,0,1,1.32,1.81c-7.47,7.77-24.26,22.54-41.29,19.09"/><path class="cls-2" d="M81.39,25a27.76,27.76,0,0,1-5.49-.54,1.26,1.26,0,0,1-1-1.49,1.24,1.24,0,0,1,1.48-1c16.71,3.4,33.63-12,40.12-18.73-19,9.24-30.62,8.11-31.11,8.05a1.26,1.26,0,0,1,.27-2.5c.11,0,11.53,1.07,29.89-7.62a2.38,2.38,0,0,1,3,.76A2.34,2.34,0,0,1,118.34,5C110.81,12.88,96.66,25,81.39,25Z"/><path class="cls-3" d="M37.34,22.33S26.66,17.68,5.86,20.6a1.13,1.13,0,0,1-.73-2.11C14.58,13.29,35,4.2,50.23,12.57"/><path class="cls-4" d="M11.92,17.79a1.26,1.26,0,0,1-.52-2.41c.36-.17,8.9-4,12.58-4.25a1.28,1.28,0,0,1,1.35,1.15,1.26,1.26,0,0,1-1.16,1.36c-2.69.21-9.39,3-11.74,4A1.34,1.34,0,0,1,11.92,17.79Z"/><path class="cls-2" d="M37.34,23.29a.84.84,0,0,1-.38-.08c-.11-.05-10.73-4.5-31-1.66a2.1,2.1,0,0,1-2.3-1.42,2.06,2.06,0,0,1,1-2.49c10.61-5.83,30.69-14.35,46-5.92a1,1,0,1,1-.93,1.69C34.7,5.12,13.85,14.79,5.6,19.33c0,.33.06.32.12.32,20.83-2.92,31.55,1.61,32,1.8a1,1,0,0,1,.5,1.26A1,1,0,0,1,37.34,23.29Z"/><path class="cls-3" d="M24.83,53.14S17.29,62,14.06,82.77a1.13,1.13,0,0,1-2.23.08C9.59,72.31,6.8,50.12,19.21,38"/><path class="cls-2" d="M14.89,84.9c-1.43,0-3.69-.38-4-1.85C8.38,71.21,6,49.53,18.54,37.28a1,1,0,1,1,1.34,1.38c-12.29,12-9.07,34.77-7.11,44a5.7,5.7,0,0,0,3.38.15c2.05-13,5.26-17.72,7.59-19.34a3.74,3.74,0,0,1,2.74-.81,1,1,0,0,1-.35,1.89C26,64.56,21,64.41,18,83.27c-.09.58-.58,1.56-2.92,1.63Z"/><path class="cls-1" d="M97.59,59.72s7,9.33,8.92,30.24a1.13,1.13,0,0,0,2.22.22c2.88-10.39,7-32.36-4.61-45.25"/><path class="cls-2" d="M106.08,92.05c-.27,0-.52,0-.74,0-2.33-.21-2.77-1.22-2.82-1.81C100.76,71.23,95.74,71,95.58,71h0a1,1,0,0,1-1-.87.92.92,0,0,1,.79-1,3.61,3.61,0,0,1,2.68,1c2.23,1.76,5.15,6.62,6.39,19.77a5.05,5.05,0,0,0,3.46-.08c2.44-8.94,7.06-31.44-4.47-44.21a1,1,0,1,1,1.43-1.29c11.73,13,8,34.49,4.82,46.16C109.3,91.71,107.48,92.05,106.08,92.05Z"/><path class="cls-5" d="M60.38,148.41h0A51.57,51.57,0,0,1,112,200v0a23.89,23.89,0,0,1-23.89,23.89H32.7A23.89,23.89,0,0,1,8.82,200v0a51.57,51.57,0,0,1,51.57-51.57Z"/><path class="cls-6" d="M72.55,184.28c13.68-6.84,8.72-9.65,11.45-30.62,0,0,6.5,3.88,6.54,3.87,2.7,1.83,4.49,5.2,6.81,7.52a51.47,51.47,0,0,1,15.1,36.48c0,6.59-2.91,11.05-7.24,15.39s-7.73,5.3-16.21,6.74H33.65c-4.24.1-4.63-.5-6.77-1.14-4.13-1.24-6.44-2.94-7.12-7.2a15.65,15.65,0,0,1,.32-7.31c1.45-4.42,5.58-7.87,10.37-10.66A53.34,53.34,0,0,1,48.73,191Z"/><path class="cls-7" d="M13.74,183a1,1,0,0,1-.33-.06,1,1,0,0,1-.63-1.3c.32-.9,8-22.29,27.33-28.81a1,1,0,0,1,.64,1.93c-18.38,6.19-26,27.34-26,27.56A1,1,0,0,1,13.74,183Z"/><path class="cls-8" d="M111.5,198.64a23.88,23.88,0,0,1-23.9,23.87H32.23A24.33,24.33,0,0,1,24,221.06a15.47,15.47,0,0,1,0-6.32,15.89,15.89,0,0,1,8.82-11c8.63-3.93,18.52.48,28,.91,13.19.6,26-7.23,32.93-18.5a46.49,46.49,0,0,0,6.43-19.83A51.29,51.29,0,0,1,111.5,198.64Z"/><path class="cls-2" d="M88.53,224.63H33.17A25.14,25.14,0,0,1,8.06,199.52c0-1.35,0-2.68.15-4a1.24,1.24,0,0,1,1.31-1.12,1.21,1.21,0,0,1,1.12,1.3c-.09,1.26-.14,2.53-.14,3.82a22.69,22.69,0,0,0,22.67,22.66H88.53a22.68,22.68,0,0,0,22.66-22.66,50.35,50.35,0,0,0-98.62-14.33,1.22,1.22,0,1,1-2.34-.7,52.8,52.8,0,0,1,103.41,15A25.15,25.15,0,0,1,88.53,224.63Z"/><rect class="cls-9" x="50.9" y="131.83" width="21.3" height="28.7" rx="10.65"/><path class="cls-10" d="M71.82,139.37v7.4a9.82,9.82,0,0,1-.31,2.49c-11.28.91-17.52-5-20.34-13.53a10.19,10.19,0,0,1,2.15-3.55,10.64,10.64,0,0,1,18.5,7.19Z"/><circle class="cls-8" cx="87.3" cy="191.3" r="5.74"/><circle class="cls-8" cx="79.52" cy="196.44" r="1.69"/><path class="cls-2" d="M15.3,204.43a.85.85,0,0,1-.31-.06.81.81,0,0,1-.45-1.06v0L19,192.71a.82.82,0,1,1,1.51.64l-4.47,10.56A.81.81,0,0,1,15.3,204.43Z"/><path class="cls-2" d="M20.66,199.52a.87.87,0,0,1-.32-.06.81.81,0,0,1-.45-1.06v0l2.39-5.66a.82.82,0,1,1,1.52.64L21.41,199A.81.81,0,0,1,20.66,199.52Z"/><path class="cls-4" d="M25.42,89.6a1,1,0,0,1-1-1V74.43a1,1,0,1,1,2,0V88.58A1,1,0,0,1,25.42,89.6Z"/><ellipse class="cls-4" cx="25.42" cy="94.32" rx="1.36" ry="1.84"/><path class="cls-2" d="M61.55,161.69a11.83,11.83,0,0,1-11.81-11.81v-7.4a11.81,11.81,0,0,1,23.61,0v7.4A11.82,11.82,0,0,1,61.55,161.69Zm0-28.7a9.51,9.51,0,0,0-9.5,9.49v7.4a9.5,9.5,0,1,0,19,0v-7.4A9.5,9.5,0,0,0,61.55,133Z"/><circle class="cls-11" cx="43.87" cy="137.37" r="0.55"/><circle class="cls-11" cx="51.55" cy="140.05" r="0.73"/><ellipse class="cls-4" cx="43.4" cy="132.58" rx="2.22" ry="1.27" transform="matrix(0.31, -0.95, 0.95, 0.31, -96.1, 132.06)"/><circle class="cls-11" cx="47.41" cy="133.82" r="0.71"/><path class="cls-11" d="M45.23,134.54a.56.56,0,0,1,.56.55.56.56,0,1,1-.56-.55Z"/><circle class="cls-11" cx="45.96" cy="129.99" r="0.73"/><path class="cls-9" d="M15.05,74.66l5.1.1A12.08,12.08,0,0,1,32,87h0A12,12,0,0,1,19.74,98.85h0l-5.1-.1A12.09,12.09,0,0,1,2.8,86.48h0A12,12,0,0,1,15.05,74.65h0Z"/><path class="cls-2" d="M20,100h-.23l-5.11-.1A13.16,13.16,0,0,1,6.78,97.1a1.12,1.12,0,0,1,1.38-1.77,10.85,10.85,0,0,0,6.5,2.3l5.1.11H20a10.93,10.93,0,0,0,.18-21.86l-5.1-.1h-.16A10.91,10.91,0,0,0,3.92,86.5a11,11,0,0,0,.81,4.32,1.12,1.12,0,0,1-.61,1.46,1.13,1.13,0,0,1-1.46-.61,13.15,13.15,0,0,1,3-14.45,12.78,12.78,0,0,1,9.37-3.69h.13l5,.1A13.24,13.24,0,0,1,33.09,87.05,13.14,13.14,0,0,1,20,100Z"/><path class="cls-12" d="M16.39,80.91,19,81a6.29,6.29,0,0,1,6.14,6.4h0a6.31,6.31,0,0,1-6.39,6.14l-2.65,0A6.29,6.29,0,0,1,10,87.06h0A6.29,6.29,0,0,1,16.39,80.91Z"/><path class="cls-4" d="M8,82.56a4.51,4.51,0,0,1,2.24-2.43c.88-.34.52-1.78-.4-1.43a5.82,5.82,0,0,0-3.14,3.14c-.38.87.91,1.63,1.29.76Z"/><ellipse class="cls-4" cx="6.26" cy="85.35" rx="1.19" ry="0.95" transform="translate(-79.09 79.07) rotate(-81.6)"/><path class="cls-9" d="M102.75,74.66l5.1.1a12.09,12.09,0,0,1,11.87,12.3h0a12,12,0,0,1-12.23,11.82h0l-5.1-.1A12.09,12.09,0,0,1,90.51,86.51h0a12,12,0,0,1,12.23-11.82h0Z"/><path class="cls-2" d="M107.7,100h-.23l-5.14-.1A13.25,13.25,0,0,1,89.39,86.49a13.14,13.14,0,0,1,13.1-12.92,1.27,1.27,0,0,1,.28,0l5.1.1A13.19,13.19,0,0,1,107.7,100Zm-5.16-24.2a10.93,10.93,0,0,0-.17,21.86l5.1.09h.19a10.94,10.94,0,0,0,.17-21.88l-4.84-.1a1.24,1.24,0,0,1-.27,0Z"/><path class="cls-12" d="M104,80.91l2.66.06a6.28,6.28,0,0,1,6.13,6.39h0a6.26,6.26,0,0,1-6.38,6.13l-2.65,0a6.27,6.27,0,0,1-6.14-6.39h0A6.29,6.29,0,0,1,104,80.91Z"/><path class="cls-4" d="M94.29,83.4A4.45,4.45,0,0,1,96.52,81c.88-.35.5-1.79-.4-1.44A5.8,5.8,0,0,0,93,82.66c-.38.87.9,1.63,1.28.77Z"/><ellipse class="cls-4" cx="92.59" cy="86.17" rx="1.19" ry="0.95" transform="translate(-6.18 165.18) rotate(-81.6)"/><path class="cls-9" d="M91.76,18.68c.52.45,1,.93,1.46,1.4A44.67,44.67,0,0,1,106.35,51.8V98a44.81,44.81,0,0,1-89.61,1V51.8A44.72,44.72,0,0,1,31.32,18.7C46.21,5.09,76.82,5.18,91.76,18.68Z"/><path class="cls-13" d="M106.52,50.87V97.11a44.8,44.8,0,0,1-44.65,45h-.15V7.61C73.1,7.61,84.47,11,91.94,17.75c.53.45,1,.93,1.46,1.41A44.67,44.67,0,0,1,106.52,50.87Z"/><path class="cls-14" d="M106.35,50.59V96.81a44.83,44.83,0,0,1-44.66,45c-1.1,0-2.2,0-3.29-.11C81.72,140,102.1,120.54,102,96.81V50.59c0-11.89-6.75-23.3-15.16-31.71-.49-.48-1-.95-1.47-1.4C78.59,11.33,68.56,8,58.24,7.42c12.43-.71,25.33,2.66,33.51,10.06.52.45,1,.92,1.46,1.4A44.73,44.73,0,0,1,106.35,50.59Z"/><path class="cls-4" d="M63.78,142.21c-.8.06-1.62.08-2.44.08a45.66,45.66,0,0,1-29.16-10.12,48.23,48.23,0,0,1-5.76-5.94,41.59,41.59,0,0,1-9.75-27V53.05c0-13.84,4.72-25.25,13.14-33.65.49-.49.94-.95,1.46-1.4C39.28,10.75,51.81,7.37,64,7.9,53.47,8.34,43.14,11.72,36.21,18c-.52.45-1,.91-1.46,1.4-8.42,8.4-14.56,20-14.54,31.87V97.49C20.13,121.41,40.22,140.85,63.78,142.21Z"/><path class="cls-2" d="M27.13,127.35a1.22,1.22,0,0,1-.94-.44A46.17,46.17,0,0,1,15.52,98.27V70A1.23,1.23,0,0,1,18,70V98.25a43.55,43.55,0,0,0,10.1,27.09,1.22,1.22,0,0,1-.16,1.72A1.24,1.24,0,0,1,27.13,127.35Z"/><path class="cls-2" d="M61.54,143.46a45.91,45.91,0,0,1-30.81-11.84,1.22,1.22,0,1,1,1.64-1.81A44.1,44.1,0,0,0,61.69,141a43.6,43.6,0,0,0,43.44-43.74V51.06A43.73,43.73,0,0,0,92.36,20.21l-.3-.29c-.36-.36-.71-.72-1.1-1.06-14.65-13.24-44.32-13.24-58.82,0A43.53,43.53,0,0,0,18,51.06a1.22,1.22,0,0,1-1.22,1.22h0a1.22,1.22,0,0,1-1.22-1.22,46,46,0,0,1,15-34c15.3-14,46.62-14,62.08,0,.41.36.81.75,1.2,1.14l.3.3a46.15,46.15,0,0,1,13.49,32.58V97.28A46,46,0,0,1,61.7,143.46Z"/><path class="cls-2" d="M16.74,64.12a1.22,1.22,0,0,1-1.22-1.22v-5a1.23,1.23,0,0,1,2.45,0v5A1.23,1.23,0,0,1,16.74,64.12Z"/><ellipse class="cls-15" cx="46.62" cy="78.1" rx="5.68" ry="7.2"/><ellipse class="cls-4" cx="44.59" cy="75.48" rx="2.09" ry="2.29"/><ellipse class="cls-15" cx="76.56" cy="78.1" rx="5.68" ry="7.2"/><ellipse class="cls-4" cx="74.52" cy="75.48" rx="2.09" ry="2.29"/><path class="cls-4" d="M21.63,175.77a1,1,0,0,1-.53-.15,1,1,0,0,1-.34-1.4,41.5,41.5,0,0,1,4-5.48,1,1,0,1,1,1.54,1.33,39.21,39.21,0,0,0-3.77,5.21A1,1,0,0,1,21.63,175.77Z"/><circle class="cls-4" cx="28.48" cy="166.72" r="1.42"/><circle class="cls-7" cx="36.57" cy="158.51" r="1.56"/><circle class="cls-7" cx="35.04" cy="161.59" r="1.03"/><path class="cls-2" d="M86.34,211.26h20.83a1.07,1.07,0,0,1,0,2.13H86.34a1.07,1.07,0,0,1,0-2.13Z"/><path class="cls-2" d="M76.81,211.26h2.94a1.07,1.07,0,0,1,0,2.13H76.81a1.07,1.07,0,0,1,0-2.13Z"/><rect class="cls-4" x="18.98" y="83.99" width="2.21" height="11.91" rx="1.1"/><rect class="cls-14" x="100.51" y="58.07" width="2.21" height="11.91" rx="1.1"/><circle class="cls-2" cx="10.26" cy="189.4" r="1.3"/><ellipse class="cls-4" cx="26.44" cy="118.55" rx="2.22" ry="1.27" transform="translate(-94.41 106.35) rotate(-71.66)"/><circle class="cls-11" cx="30.45" cy="119.79" r="0.71"/><path class="cls-11" d="M28.27,120.52a.54.54,0,0,1,.55.55.55.55,0,0,1-.55.55.55.55,0,0,1-.55-.55.55.55,0,0,1,.55-.55Z"/><circle class="cls-11" cx="29" cy="115.97" r="0.73"/><path class="cls-3" d="M107.37,24.84c-.2-.58,0-.32-.15-.67l-6.86,3.34a33.85,33.85,0,0,0,7-2.67,54.2,54.2,0,0,1,2,6.1l1.31,5.78a46.38,46.38,0,0,1,.81,10.37,15.91,15.91,0,0,1-3.66,9.56C105.3,52.91,95.26,41.71,91.5,36.74a19.12,19.12,0,0,1-8.4,4.52c-11.78,3.38-25.35,1.89-34.93-5.8l.1.22C36.16,41.76,25.46,53.09,17.21,63.84c-2.29-2.4-2.57-8.48-2.27-11.81a.67.67,0,0,1,.21-.2l-.21.15V52C10.18,56.82,5,62.6,1.67,68.22A75.5,75.5,0,0,1,7.43,36.49l6-10.67s5-5.68,10-8.75l4.67-1.77v.13l.43-.28-.43.15v0c.58-3.71,3.78-6.41,6.76-8.71l4.37-2.29s16-5.9,27.06-1.67L75.69,6a122,122,0,0,0,43.13,9.56A35,35,0,0,1,107.37,24.84Z"/><path class="cls-3" d="M16.26,50.69c-.38.38-.74.73-1.11,1.14"/><path class="cls-3" d="M91.5,36.74c-.33-.43-.6-.83-.83-1.16"/><path class="cls-1" d="M107.36,25.2c-.2-.58,0-.31-.15-.66l-6.86,3.33a33.64,33.64,0,0,0,7-2.67,57.68,57.68,0,0,1,2.07,6.07l1.36,5.61a47.47,47.47,0,0,1,.68,10.57c-.25,3.48-3.4,8.21-5.72,10.78-2.52-3.73-9.51-18.08-14.68-20.73-2.15,2.22-4.92,3.24-8,4.12A45,45,0,0,1,73,43.28l.08-.07c4.31-5.5,11-7.48,14-13.76,2.37-4.94.34-14.52,5-17.45a121.74,121.74,0,0,0,26.71,4A34.92,34.92,0,0,1,107.36,25.2Z"/><path class="cls-16" d="M119,15.6c-.11.1-.18.23-.28.33A121.71,121.71,0,0,1,92.29,12c-4.62,2.93-2.6,12.51-5,17.46-3,6.15-9.62,8.45-13.94,13.73a37.37,37.37,0,0,1-22.79-6.09,18.93,18.93,0,0,1,1.47-3.76c1.81-3.53,4.64-6.41,7.24-9.43,1.79-2.07,3.48-4.24,5.09-6.49A18.38,18.38,0,0,0,67.32,12a15.79,15.79,0,0,0,.48-4.84,24.34,24.34,0,0,0-.53-4.24L75.87,6A122.27,122.27,0,0,0,119,15.6Z"/><path class="cls-3" d="M72.89,67.36l13.64-.25a3.83,3.83,0,0,0,3.75-3.6h0a3.85,3.85,0,0,0-3.3-4L73.46,57.63a3.83,3.83,0,0,0-4.34,3.57L69,63.31A3.83,3.83,0,0,0,72.89,67.36Z"/><path class="cls-1" d="M72.89,67.36l13.64-.25a3.83,3.83,0,0,0,3.75-3.6h0c.11-2,.51,1.29-1.47,1l-18.35.37c-2.21-.3-1.21-5.93-1.34-3.7L69,63.31A3.83,3.83,0,0,0,72.89,67.36Z"/><path class="cls-2" d="M72.82,68a4.52,4.52,0,0,1-4.5-4.77l.13-2.11a4.54,4.54,0,0,1,1.63-3.22,4.49,4.49,0,0,1,3.47-1l5.36.74a.67.67,0,0,1,.57.76.65.65,0,0,1-.76.58l-5.35-.74a3.16,3.16,0,0,0-2.43.69,3.12,3.12,0,0,0-1.14,2.25l-.12,2.11a3.15,3.15,0,0,0,3.2,3.33l13.64-.25a3.15,3.15,0,0,0,.37-6.26l-2.31-.32a.68.68,0,0,1,.18-1.34l2.31.32a4.5,4.5,0,0,1-.53,9L72.9,68Z"/><circle class="cls-1" cx="75.95" cy="64.57" r="1.01"/><circle class="cls-1" cx="78.65" cy="63.52" r="0.54"/><circle class="cls-1" cx="72.3" cy="64.54" r="1.3"/><path class="cls-3" d="M49.65,67.36,36,67.11a3.83,3.83,0,0,1-3.75-3.6h0a3.84,3.84,0,0,1,3.3-4l13.51-1.86a3.83,3.83,0,0,1,4.34,3.57l.13,2.11A3.83,3.83,0,0,1,49.65,67.36Z"/><path class="cls-1" d="M49.65,67.36,36,67.11a3.83,3.83,0,0,1-3.75-3.6h0c-.12-2-.51,1.29,1.47,1l18.35.37c2.2-.3,1.2-5.93,1.33-3.7l.13,2.11A3.83,3.83,0,0,1,49.65,67.36Z"/><path class="cls-2" d="M49.72,68h-.08L36,67.78a4.5,4.5,0,0,1-.53-9l2.31-.32A.68.68,0,1,1,38,59.85l-2.31.32A3.15,3.15,0,0,0,36,66.43l13.64.25a3.09,3.09,0,0,0,2.33-1,3.14,3.14,0,0,0,.87-2.37l-.13-2.11A3.08,3.08,0,0,0,51.59,59a3.14,3.14,0,0,0-2.43-.69L43.81,59a.65.65,0,0,1-.76-.58.68.68,0,0,1,.58-.76L49,57a4.5,4.5,0,0,1,3.47,1,4.55,4.55,0,0,1,1.64,3.22l.13,2.11A4.52,4.52,0,0,1,49.72,68Z"/><circle class="cls-1" cx="46.59" cy="64.57" r="1.01"/><circle class="cls-1" cx="43.88" cy="63.52" r="0.54"/><circle class="cls-1" cx="50.23" cy="64.54" r="1.3"/><path class="cls-2" d="M109,32.39a1.27,1.27,0,0,1-1.23-1A31.66,31.66,0,0,0,106,25.59a1.26,1.26,0,0,1,2.27-1.11,36.47,36.47,0,0,1,2,6.35,1.26,1.26,0,0,1-.94,1.52A1.35,1.35,0,0,1,109,32.39Z"/><circle class="cls-2" cx="70.15" cy="4.3" r="1.3"/><circle class="cls-2" cx="110.31" cy="35.99" r="1.3"/><circle class="cls-2" cx="10.44" cy="30.99" r="1.3"/><circle class="cls-2" cx="59.57" cy="41.49" r="1.3"/><path class="cls-2" d="M70.64,44.41a42.78,42.78,0,0,1-6.52-.49,1.26,1.26,0,0,1,.38-2.49,42,42,0,0,0,17.89-1.19c3.43-1,7.65-2.85,9.38-6.26a36.14,36.14,0,0,1-24.9-18.67,1.25,1.25,0,0,1,.54-1.69,1.28,1.28,0,0,1,1.7.54A33.56,33.56,0,0,0,93.68,31.75a1.29,1.29,0,0,1,.87.57,1.22,1.22,0,0,1,.15,1c-1.5,5.38-7.15,8-11.62,9.32A45,45,0,0,1,70.64,44.41Z"/><path class="cls-2" d="M55.2,41.34a1.24,1.24,0,0,1-.5-.1,33,33,0,0,1-7.53-4.66,1.26,1.26,0,0,1,1.58-2,29.92,29.92,0,0,0,7,4.32,1.26,1.26,0,0,1-.5,2.41Z"/><path class="cls-2" d="M100,29a1.25,1.25,0,0,1-.31-2.47,34.18,34.18,0,0,0,16.11-9.54A123.46,123.46,0,0,1,74.83,7.4a1.26,1.26,0,0,1,1-2.32,120.67,120.67,0,0,0,42.69,9.46,1.29,1.29,0,0,1,1.1.74,1.25,1.25,0,0,1-.17,1.31A36.6,36.6,0,0,1,100.3,28.91,1.17,1.17,0,0,1,100,29Z"/><path class="cls-2" d="M106.24,61a1.65,1.65,0,0,1-.31,0A1.25,1.25,0,0,1,105,60c-2.13-8.49-6.47-14.37-10.43-19a1.26,1.26,0,1,1,1.91-1.63,49.17,49.17,0,0,1,10.22,17.42,27.84,27.84,0,0,0,3.13-9.63,45.18,45.18,0,0,0,0-6.48,1.26,1.26,0,0,1,2.5-.27,45.82,45.82,0,0,1,0,6.93c-.26,3.67-2.63,10.38-5.19,13.21A1.25,1.25,0,0,1,106.24,61Z"/><path class="cls-4" d="M3.54,59.7H3.41a1.27,1.27,0,0,1-1.13-1.38C2.33,57.81,3.55,46,7.73,37A1.26,1.26,0,1,1,10,38.06C6,46.69,4.8,58.44,4.79,58.56A1.27,1.27,0,0,1,3.54,59.7Z"/><path class="cls-4" d="M15.6,54.54h-.12a1.26,1.26,0,0,1-1.13-1.38c.05-.5,1.26-12.29,5.45-21.31a1.26,1.26,0,0,1,2.29,1.06c-4,8.64-5.22,20.39-5.24,20.5A1.26,1.26,0,0,1,15.6,54.54Z"/><path class="cls-2" d="M1.31,69.67a1,1,0,0,1-.3,0,1.26,1.26,0,0,1-1-1.17A77.12,77.12,0,0,1,5.9,36.19a1.26,1.26,0,1,1,2.33,1A74.73,74.73,0,0,0,2.54,64.05a85.07,85.07,0,0,1,11-13.44,1.26,1.26,0,0,1,1.78,1.79A81.53,81.53,0,0,0,2.4,69.05,1.27,1.27,0,0,1,1.31,69.67Z"/><circle class="cls-4" cx="7.31" cy="46.75" r="1.52"/><circle class="cls-17" cx="7.3" cy="50.72" r="0.88"/><circle class="cls-17" cx="11.49" cy="45.13" r="1.06"/><circle class="cls-18" cx="9.95" cy="48.77" r="0.72"/><circle class="cls-2" cx="17.01" cy="41.37" r="1.3"/><circle class="cls-19" cx="27.7" cy="78.99" r="1.3"/><path class="cls-2" d="M18.19,38.74a1.2,1.2,0,0,1-.45-.09A1.24,1.24,0,0,1,17,37a62.83,62.83,0,0,1,4.88-10,1.29,1.29,0,0,1,1.74-.42,1.26,1.26,0,0,1,.42,1.73,59,59,0,0,0-4.69,9.54A1.26,1.26,0,0,1,18.19,38.74Z"/><path class="cls-2" d="M16.85,65.27a1.26,1.26,0,0,1-.9-.38c-3.12-3.26-3-10.68-2.43-14.56.25-1.69.57-3.39,1-5a1.26,1.26,0,1,1,2.45.58c-.37,1.59-.68,3.22-.92,4.84-.54,3.75-.36,8.5.91,11.17,10.2-13,20.42-22.12,30.4-27.11A1.26,1.26,0,0,1,48.45,37c-10,5-20.28,14.34-30.6,27.77a1.25,1.25,0,0,1-.93.49Z"/><path class="cls-4" d="M16.06,26.72a1.26,1.26,0,0,1-.89-2.15,78.78,78.78,0,0,1,7.17-6.41,1.26,1.26,0,0,1,1.45,2.07A80.12,80.12,0,0,0,17,26.35,1.23,1.23,0,0,1,16.06,26.72Z"/><path class="cls-2" d="M13,27.27a1.26,1.26,0,0,1-.95-2.09,54.23,54.23,0,0,1,10.29-9,1.26,1.26,0,1,1,1.32,2.15C18.9,21.26,14,26.79,14,26.85A1.27,1.27,0,0,1,13,27.27Z"/><path class="cls-2" d="M28.15,19.2a1.27,1.27,0,0,1-1-.46,4.34,4.34,0,0,1-.72-3.47c.64-4.09,3.91-6.94,7.22-9.51a1.25,1.25,0,1,1,1.54,2c-3,2.36-5.77,4.74-6.27,7.92a2,2,0,0,0,.19,1.49,1.25,1.25,0,0,1-1,2.05Z"/><path class="cls-2" d="M38.81,5.72a1.27,1.27,0,0,1-1.18-.83,1.25,1.25,0,0,1,.75-1.61c.67-.25,16.59-6,28-1.65a1.25,1.25,0,0,1,.73,1.62A1.28,1.28,0,0,1,65.44,4C55,0,39.4,5.59,39.24,5.64A1.26,1.26,0,0,1,38.81,5.72Z"/><path class="cls-2" d="M22.52,45.4a.87.87,0,0,1-.32-.06.82.82,0,0,1-.45-1.05l0,0,4.45-10.52a.82.82,0,1,1,1.5.64L23.27,44.88A.81.81,0,0,1,22.52,45.4Z"/><path class="cls-2" d="M28.44,40.32a.71.71,0,0,1-.32-.07.82.82,0,0,1-.45-1l0,0,2.38-5.63a.81.81,0,1,1,1.5.63L29.19,39.8A.81.81,0,0,1,28.44,40.32Z"/><circle class="cls-1" cx="87.23" cy="15.97" r="0.95"/><circle class="cls-1" cx="87.32" cy="18.58" r="0.68"/><circle class="cls-1" cx="87.6" cy="24.74" r="3.88"/><circle class="cls-1" cx="81.44" cy="25.08" r="0.65"/><circle class="cls-1" cx="81.58" cy="36.05" r="1.69"/><circle class="cls-1" cx="78.79" cy="35.96" r="0.43"/><path class="cls-2" d="M32.36,18.15a1.23,1.23,0,0,1-1-.51,1.26,1.26,0,0,1,.27-1.76A28.23,28.23,0,0,1,46.34,11h0a1.26,1.26,0,0,1,0,2.52,26.12,26.12,0,0,0-13.28,4.42A1.24,1.24,0,0,1,32.36,18.15Z"/><path class="cls-20" d="M81,95.74A15.77,15.77,0,0,1,65.6,83.21a1.26,1.26,0,1,1,2.47-.51,13.2,13.2,0,0,0,26-.49,1.26,1.26,0,1,1,2.48.42A15.64,15.64,0,0,1,81,95.74Z"/><path class="cls-20" d="M42.28,95.8a15.32,15.32,0,0,1-14.89-12,1.22,1.22,0,1,1,2.39-.51A12.8,12.8,0,0,0,55,82.22a1.23,1.23,0,0,1,1.37-1,1.21,1.21,0,0,1,1,1.37A15.27,15.27,0,0,1,42.28,95.8Z"/><path class="cls-19" d="M56.76,78.32l-.89-.89A9,9,0,0,1,61.63,75h0A7.42,7.42,0,0,1,67,77.43l-.9.88a6.28,6.28,0,0,0-4.43-2.1h0A7.78,7.78,0,0,0,56.76,78.32Z"/><path class="cls-19" d="M81,93.79a16.11,16.11,0,1,1,16.1-16.1A16.12,16.12,0,0,1,81,93.79Zm0-28.92A12.82,12.82,0,1,0,93.82,77.69,12.83,12.83,0,0,0,81,64.87Z"/><polygon class="cls-21" points="41.76 92.79 37.62 92.06 32.46 66.63 35.87 64.61 41.76 92.79"/><polygon class="cls-21" points="44.98 91.6 43.6 91.96 37.62 64.52 38.81 63.41 44.98 91.6"/><path class="cls-19" d="M42.22,93.79a16,16,0,0,1-15-10.23,1.64,1.64,0,1,1,3.06-1.2A12.82,12.82,0,1,0,42.22,64.87,12.88,12.88,0,0,0,29.68,75a1.64,1.64,0,1,1-3.2-.69,16.1,16.1,0,1,1,15.74,19.5Z"/><path class="cls-3" d="M44.8,96H80.48a8.73,8.73,0,0,1,8.73,8.73V132a26.57,26.57,0,0,1-26.57,26.57h0A26.57,26.57,0,0,1,36.07,132V104.74A8.73,8.73,0,0,1,44.8,96Z"/><path class="cls-3" d="M44.8,96H80.48a8.73,8.73,0,0,1,8.73,8.73V132a26.57,26.57,0,0,1-26.57,26.57h0A26.57,26.57,0,0,1,36.07,132V104.74A8.73,8.73,0,0,1,44.8,96Z"/><path class="cls-1" d="M89.74,104.39v27.22a26.56,26.56,0,0,1-47.55,16.27A26.53,26.53,0,0,0,85.13,127V99.78a9.13,9.13,0,0,0-.68-3.41A8.71,8.71,0,0,1,89.74,104.39Z"/><path class="cls-2" d="M62.64,159.58A27.65,27.65,0,0,1,35,132v-8.74a1,1,0,0,1,2.1,0V132a25.52,25.52,0,0,0,51,0V104.74a7.69,7.69,0,0,0-7.68-7.68H44.8a7.69,7.69,0,0,0-7.68,7.68V113a1.05,1.05,0,0,1-2.1,0v-8.22A9.79,9.79,0,0,1,44.8,95H80.48a9.79,9.79,0,0,1,9.78,9.78V132A27.65,27.65,0,0,1,62.64,159.58Z"/><path class="cls-15" d="M81.74,103.39c-.56,11.79-10.35,20.69-20.49,20.69a20.6,20.6,0,0,1-20.28-17c.48.42.31-4,.91-3.63.18.1,13.65-.51,13.85-.41C65,108.59,75,104.09,81.74,103.39Z"/><path class="cls-4" d="M79.59,103l-.12.44c-.12.73-.3,3.29-.61,3.67-5.48,6.8-28.73,6.17-34.92,0-.36-.36-.49-3.1-.53-4l0-.12Z"/><path class="cls-22" d="M77.91,103.22l-.11.16a1.13,1.13,0,0,1-.55.63c-5,2.52-26.07,2.28-31.69,0a.82.82,0,0,1-.48-.75v0Z"/><path class="cls-2" d="M62.36,112.33c-6.92,0-15-1.48-18.54-5-.16-.16-.64-.64-.73-4.09a.75.75,0,0,1,.72-.77h0a.75.75,0,0,1,.75.73,13.53,13.53,0,0,0,.35,3.15c3,3,11.37,4.88,19.79,4.42,6.42-.34,11.43-2,13.41-4.44a22.91,22.91,0,0,0,.33-2.4c0-.36.07-.66.1-.85a.74.74,0,0,1,1.47.22c0,.17,0,.46-.09.79-.22,2-.35,2.8-.66,3.18-2.27,2.8-7.55,4.62-14.48,5C64,112.3,63.19,112.33,62.36,112.33Z"/><path class="cls-23" d="M77.08,116.93a20.68,20.68,0,0,1-15.49,7,20.25,20.25,0,0,1-4.94-.6,4.5,4.5,0,0,1,0-.94c1-3.83,5-6.43,8.8-7.54a14.21,14.21,0,0,1,11.45,1.66S76.93,116.65,77.08,116.93Z"/><path class="cls-2" d="M61.5,124.88a21.66,21.66,0,0,1-21.63-20.43,2.13,2.13,0,0,1,.58-1.59,2.22,2.22,0,0,1,1.6-.69H81a2.18,2.18,0,0,1,1.59.69,2.15,2.15,0,0,1,.59,1.59A21.66,21.66,0,0,1,61.5,124.88ZM42.05,104.27a19.52,19.52,0,0,0,39,.06l-.08-.06Z"/><path class="cls-2" d="M56.49,123.08a.8.8,0,0,1-.33-.08.76.76,0,0,1-.37-1,14.79,14.79,0,0,1,21.37-6.21.78.78,0,0,1-.83,1.31,13.24,13.24,0,0,0-19.14,5.55A.78.78,0,0,1,56.49,123.08Z"/><circle class="cls-23" cx="61.61" cy="92.47" r="6.52"/><path class="cls-24" d="M68.13,92.47a6.53,6.53,0,0,1-13,0c0-3.6,2.73,4.07,6.33,4.07S68.13,88.87,68.13,92.47Z"/><path class="cls-2" d="M61.61,100.49A7.38,7.38,0,1,1,69,93.12,7.39,7.39,0,0,1,61.61,100.49Zm0-13a5.67,5.67,0,1,0,5.67,5.67A5.67,5.67,0,0,0,61.61,87.45Z"/><circle class="cls-2" cx="36.07" cy="118.02" r="1.3"/><circle class="cls-1" cx="69.37" cy="150.44" r="2.83"/><circle class="cls-1" cx="78.23" cy="145.46" r="2.49"/><circle class="cls-25" cx="70.4" cy="143.77" r="1.41"/><circle class="cls-25" cx="64.11" cy="145.98" r="0.8"/><circle class="cls-25" cx="72.46" cy="139.43" r="2.06"/><circle class="cls-1" cx="63.15" cy="153.08" r="1.8"/><circle class="cls-1" cx="72.83" cy="145.82" r="0.64"/><path class="cls-4" d="M40,128.94a1.06,1.06,0,0,1-1.05-1v-7.38a1,1,0,1,1,2.1,0v7.38A1,1,0,0,1,40,128.94Z"/><ellipse class="cls-4" cx="39.95" cy="131.83" rx="1.19" ry="0.95" transform="translate(-96.3 152.1) rotate(-81.6)"/></g></g></svg>