<svg xmlns="http://www.w3.org/2000/svg" viewBox="0 0 124.07 188.45"><defs><style>.cls-1,.cls-13,.cls-17,.cls-18{fill:#fff;}.cls-14,.cls-2,.cls-3{fill:#a2ced7;}.cls-2{opacity:0.4;}.cls-4{fill:#000201;}.cls-5{fill:#cc8662;}.cls-6,.cls-7{fill:#a35634;}.cls-11,.cls-7{opacity:0.45;}.cls-8{fill:#5e5e5e;}.cls-10,.cls-11,.cls-9{fill:#303030;}.cls-10{opacity:0.29;}.cls-12{fill:#ffd297;}.cls-13{opacity:0.55;isolation:isolate;}.cls-14,.cls-18{opacity:0.35;}.cls-15{fill:#fc5454;}.cls-16{fill:#ce1313;}.cls-17{opacity:0.6;}</style></defs><title>Asset 6</title><g id="Layer_2" data-name="Layer 2"><g id="Layer_1-2" data-name="Layer 1"><path class="cls-1" d="M54,130.35H67.87a36.06,36.06,0,0,1,36.06,36.06v0a20.82,20.82,0,0,1-20.82,20.82H38.79A20.82,20.82,0,0,1,18,166.41v0A36.06,36.06,0,0,1,54,130.35Z" transform="translate(-2.46 0.96) rotate(-0.89)"/><path class="cls-2" d="M102.34,166v.33a20.85,20.85,0,0,1-20.51,20.83l-41.6.63a48.71,48.71,0,0,1-1-8.5c-.1-5.12,1-10.44,4-14.63,6.61-9.18,20.43-10.72,27.17-19.8a30.34,30.34,0,0,0,3.53-6.69c.83-2.06,1.56-4.16,2.22-6.28A36.09,36.09,0,0,1,102.34,166Z"/><path class="cls-3" d="M103.57,166.41a20.79,20.79,0,0,1-20.83,20.82H50a22.3,22.3,0,0,1,9.57-15.32c4.71-3.12,10.44-4.28,15.63-6.53A40.67,40.67,0,0,0,96,144.29,35.66,35.66,0,0,1,103.57,166.41Z"/><path class="cls-4" d="M23.69,162.59a.88.88,0,0,1-.32-.07.83.83,0,0,1-.45-1.06l0,0,4.47-10.57a.82.82,0,1,1,1.51.64l-4.48,10.56A.8.8,0,0,1,23.69,162.59Z"/><path class="cls-4" d="M29,157.68a.87.87,0,0,1-.31-.07.81.81,0,0,1-.45-1.06v0l2.39-5.66a.82.82,0,1,1,1.51.64l-2.39,5.65A.82.82,0,0,1,29,157.68Z"/><circle class="cls-4" cx="21.26" cy="151.42" r="1.3"/><path class="cls-4" d="M83.11,188.45H38.79a22.07,22.07,0,0,1-22-22,37.1,37.1,0,0,1,1.41-10.17,1.22,1.22,0,0,1,1.51-.85,1.23,1.23,0,0,1,.84,1.51,35,35,0,0,0-1.31,9.51A19.62,19.62,0,0,0,38.79,186H83.11a19.62,19.62,0,0,0,19.6-19.6,34.88,34.88,0,0,0-34.84-34.84H54a34.72,34.72,0,0,0-18.48,5.3,1.22,1.22,0,0,1-1.3-2.07A37.2,37.2,0,0,1,54,129.13H67.87a37.33,37.33,0,0,1,37.29,37.28A22.07,22.07,0,0,1,83.11,188.45Z"/><path class="cls-4" d="M23.64,148.2A1.16,1.16,0,0,1,23,148a1.21,1.21,0,0,1-.37-1.68,37.27,37.27,0,0,1,7-8.06,1.22,1.22,0,0,1,1.6,1.84,35,35,0,0,0-6.51,7.54A1.23,1.23,0,0,1,23.64,148.2Z"/><path class="cls-5" d="M52.68,103.27H67.8a0,0,0,0,1,0,0v28.18A7.56,7.56,0,0,1,60.24,139h0a7.56,7.56,0,0,1-7.56-7.56V103.27A0,0,0,0,1,52.68,103.27Z"/><path class="cls-6" d="M52.68,89.09H67.8a0,0,0,0,1,0,0v28.18a7.56,7.56,0,0,1-7.56,7.56h0a7.56,7.56,0,0,1-7.56-7.56V89.09A0,0,0,0,1,52.68,89.09Z"/><path class="cls-4" d="M60.24,140a8.57,8.57,0,0,1-8.57-8.56V103.26a1,1,0,0,1,1-1H67.8a1,1,0,0,1,1,1v28.19A8.58,8.58,0,0,1,60.24,140Zm-6.55-35.74v27.18a6.55,6.55,0,0,0,13.1,0V104.27Z"/><circle class="cls-5" cx="11.95" cy="68.35" r="8.28"/><path class="cls-4" d="M12,77.85a9.5,9.5,0,1,1,9.49-9.5A9.52,9.52,0,0,1,12,77.85Zm0-16.56A7.06,7.06,0,1,0,19,68.35,7.07,7.07,0,0,0,12,61.29Z"/><circle class="cls-5" cx="111.92" cy="68.35" r="8.28"/><circle class="cls-6" cx="111.75" cy="68.35" r="4.17"/><circle class="cls-6" cx="12.03" cy="68.35" r="4.17"/><path class="cls-4" d="M111.92,77.85a9.5,9.5,0,1,1,9.5-9.5A9.52,9.52,0,0,1,111.92,77.85Zm0-16.56A7.06,7.06,0,1,0,119,68.35,7.06,7.06,0,0,0,111.92,61.29Z"/><rect class="cls-5" x="14.05" y="19.53" width="96.1" height="98.12" rx="40.47"/><path class="cls-1" d="M59.19,116.92l-5.53.54c-22.35,0-39.85-18.66-39.85-41V59.25A40.45,40.45,0,0,1,54.27,18.79h4.92A40.45,40.45,0,0,0,18.73,59.25v17.2A40.46,40.46,0,0,0,59.19,116.92Z"/><path class="cls-7" d="M109,60.74V77.92a40.48,40.48,0,0,1-40.49,40.46H60.9V20.28h7.57A40.48,40.48,0,0,1,109,60.74Z"/><path class="cls-6" d="M109,60.46V77.64A40.45,40.45,0,0,1,68.58,118.1h-5.9a40.48,40.48,0,0,0,40.49-40.46V60.46A40.48,40.48,0,0,0,62.68,20h5.9A40.45,40.45,0,0,1,109,60.46Z"/><path class="cls-8" d="M109.74,59.21V76.39a37.79,37.79,0,0,1-.26,4.54,1.8,1.8,0,0,1-.25-.2,12.29,12.29,0,0,1-4.56-9.54V62.57C103.36,55.91,98.23,51,91.83,48.9c-4-1.34-8.2-1.36-12.36-1.36-3.23,0-9.72,0-15.19,0a33.4,33.4,0,0,0,1-3.48c.61-2.07,1.14-4.47,3-5.45a8.08,8.08,0,0,1,2.78-.66,23.17,23.17,0,0,0,9.3-3.43c3.33-2.14,6.31-5.75,5.73-9.69a8.85,8.85,0,0,0-1-2.85A40.51,40.51,0,0,1,109.74,59.21Z"/><path class="cls-9" d="M110,60.32V77.5a40,40,0,0,1-.25,4.54,1.8,1.8,0,0,1-.25-.2,2.7,2.7,0,0,1-.31-.28A12.15,12.15,0,0,1,105,72.3V63.68A19.49,19.49,0,0,0,103.34,59,40.28,40.28,0,0,0,86.26,28.51a6.85,6.85,0,0,0,.12-2.6,5.46,5.46,0,0,0-.2-.91,8.75,8.75,0,0,0-.78-1.94A40.51,40.51,0,0,1,110,60.32Z"/><path class="cls-9" d="M87.32,35.09c-3.1,2.32-6.75,5.08-10.6,5.61a8,8,0,0,0-2.78.66c-1.89,1-2.48,2.13-3.09,4.2a15.38,15.38,0,0,1-.6,1.77H64.32a19.32,19.32,0,0,0,.93-2.57c.61-2.07,1.14-4.47,3-5.45a8.08,8.08,0,0,1,2.78-.66,23,23,0,0,0,11.72-5.22A9.28,9.28,0,0,0,86,28.07a8,8,0,0,0-.93-5.39,38.53,38.53,0,0,1,6.58,3.61v.05A10.91,10.91,0,0,1,87.32,35.09Z"/><path class="cls-8" d="M33.27,48l-.48,0a24.37,24.37,0,0,0-4.71,2.09c-.44.32-.87.66-1.28,1-4.29,3.68-7.69,9.63-7.69,15.29l1.2,4.31a12.26,12.26,0,0,1-4.57,9.54l-.23.1c-.15-1.46-.53-3.18-.53-4.7l.31-16.92a40.2,40.2,0,0,1,6.13-21.42,8.51,8.51,0,0,0,.4,1.06,17.56,17.56,0,0,0,10.29,9.16A5.4,5.4,0,0,1,33.27,48Z"/><path class="cls-4" d="M21.41,101.68a1.25,1.25,0,0,1-1-.52,41.45,41.45,0,0,1-7.58-24,1.22,1.22,0,0,1,2.44,0A39,39,0,0,0,22.4,99.75a1.23,1.23,0,0,1-1,1.93Z"/><path class="cls-4" d="M32,112a1.12,1.12,0,0,1-.68-.21,41.73,41.73,0,0,1-7.46-6.4,1.22,1.22,0,0,1,1.8-1.65,39.54,39.54,0,0,0,7,6A1.22,1.22,0,0,1,32,112Z"/><path class="cls-4" d="M69.69,118.87H54.52a41.44,41.44,0,0,1-15.81-3.1,1.22,1.22,0,1,1,.92-2.26,39,39,0,0,0,14.89,2.92H69.69a39.29,39.29,0,0,0,39.24-39.25V60A39.29,39.29,0,0,0,69.69,20.75H54.52a39,39,0,0,0-31.17,15.4,1.22,1.22,0,0,1-1.94-1.49A41.43,41.43,0,0,1,54.52,18.31H69.69A41.74,41.74,0,0,1,111.38,60V77.18A41.74,41.74,0,0,1,69.69,118.87Z"/><path class="cls-8" d="M48.41,49.91a4,4,0,0,0,2.08,2.75,9.06,9.06,0,0,0,3.44.92,11.75,11.75,0,0,0,5.21-.38c3.48-1.23,5.54-4.84,6.56-8.38.59-2.06,1.14-4.46,3-5.45a8.13,8.13,0,0,1,2.76-.65,23.11,23.11,0,0,0,9.32-3.43c3.33-2.15,6.29-5.76,5.72-9.69a12.83,12.83,0,0,0-2.4-5.16c-2.49-3.72-5.2-7.37-8.8-10s-8.24-4.19-12.59-3.2a6.26,6.26,0,0,1-1.86.28c-1.4-.09-2.44-1.29-3.47-2.25a14.71,14.71,0,0,0-16.62-2,15.68,15.68,0,0,0-7.8,15l-.62-.16a14.38,14.38,0,0,0-11.24,7.6c-2.2,4.19-1.59,10,.37,14.26a17.55,17.55,0,0,0,10.31,9.17,4.44,4.44,0,0,1,1.72.83,4.77,4.77,0,0,1,1,2.48C35.36,56,38,58.75,41,60.87c2.76,2,12,1.65,10.13.28A8.55,8.55,0,0,1,48.41,49.91Z"/><path class="cls-10" d="M80.83,34.94a23.16,23.16,0,0,1-9.31,3.43,8.55,8.55,0,0,0-2.75.63c-1.91,1-2.44,3.41-3,5.48-1,3.53-3.08,7.13-6.56,8.37a11.64,11.64,0,0,1-5.19.38,8.93,8.93,0,0,1-3.43-.93,3.84,3.84,0,0,1-2.1-2.75,8.55,8.55,0,0,0,2.7,11.25C53,62.16,43.78,62.51,41,60.52a18.3,18.3,0,0,1-5-5.15c.78-4.87,2.44-10.16,6.91-12,3.1-1.27,6.73-.51,9.81-1.8,4.11-1.74,6-6.58,9.71-9C65,30.78,68.3,30.37,71,28.81c4.92-2.85,8-7.55,9.66-13,.79,1.2-.07,1.73-.25-.12a33.65,33.65,0,0,1,3.73,4.37,13.14,13.14,0,0,1,2.4,5.17C87.14,29.16,84.16,32.8,80.83,34.94Z"/><path class="cls-4" d="M109.66,82.8a1.27,1.27,0,0,1-.79-.28,13.47,13.47,0,0,1-5-10.54V63.36A18.35,18.35,0,0,0,91.9,50a29.2,29.2,0,0,0-8.4-1.25,1.27,1.27,0,0,1-1.22-1.3,1.25,1.25,0,0,1,1.3-1.23,31.89,31.89,0,0,1,9.12,1.39,20.88,20.88,0,0,1,13.63,15.54l0,8.86a10.94,10.94,0,0,0,4.1,8.57,1.27,1.27,0,0,1-.8,2.25Z"/><path class="cls-4" d="M72.32,48.67h0l-7.22,0a1.26,1.26,0,1,1,0-2.52h0l7.21,0a1.27,1.27,0,0,1,0,2.53Z"/><path class="cls-4" d="M21,59.27a1.21,1.21,0,0,1-.61-.16,1.25,1.25,0,0,1-.5-1.71,21.41,21.41,0,0,1,6.2-7,14.23,14.23,0,0,1,5.15-2.28,1.23,1.23,0,0,1,1.51.94,1.25,1.25,0,0,1-.94,1.51A11.82,11.82,0,0,0,27.6,52.4a18.75,18.75,0,0,0-5.47,6.21A1.26,1.26,0,0,1,21,59.27Z"/><path class="cls-4" d="M14.51,82.8a1.28,1.28,0,0,1-1-.47,1.27,1.27,0,0,1,.2-1.78A11,11,0,0,0,17.81,72V66.26a1.27,1.27,0,0,1,2.53,0V72a13.48,13.48,0,0,1-5,10.54A1.23,1.23,0,0,1,14.51,82.8Z"/><path class="cls-4" d="M55,54.66a18.16,18.16,0,0,1-2.1-.13A10.26,10.26,0,0,1,49,53.46a5.21,5.21,0,0,1-2.72-3.68,1.26,1.26,0,0,1,1.07-1.43,1.28,1.28,0,0,1,1.43,1.07,2.68,2.68,0,0,0,1.44,1.83,7.83,7.83,0,0,0,3,.77,10.43,10.43,0,0,0,4.66-.31c3.49-1.24,5.11-5.26,5.77-7.55l.14-.48c.57-2,1.29-4.57,3.52-5.74a8,8,0,0,1,2.83-.73l.34-.05a21.7,21.7,0,0,0,8.8-3.24c2.83-1.82,5.67-5,5.16-8.44a11.9,11.9,0,0,0-2.2-4.65c-.79-1.18-1.85-2.72-3-4.2a1.26,1.26,0,0,1,2-1.56c1.21,1.54,2.31,3.14,3.12,4.36a13.88,13.88,0,0,1,2.61,5.68c.67,4.64-2.81,8.69-6.29,10.93a24.27,24.27,0,0,1-9.83,3.62l-.36.05a5.94,5.94,0,0,0-2,.47c-1.27.66-1.78,2.45-2.27,4.19l-.14.49c-.79,2.75-2.8,7.61-7.35,9.22A10.8,10.8,0,0,1,55,54.66Z"/><path class="cls-4" d="M74.41,11.37a1.31,1.31,0,0,1-.75-.24c-3.7-2.73-7.93-3.81-11.57-3l-.28.07a6.53,6.53,0,0,1-1.94.24A6.35,6.35,0,0,1,56,6.26l-.41-.39A1.26,1.26,0,0,1,57.35,4l.44.42a4.43,4.43,0,0,0,2.26,1.5,4.57,4.57,0,0,0,1.17-.18l.31-.08c4.37-1,9.33.26,13.62,3.41a1.26,1.26,0,0,1-.74,2.28Z"/><circle class="cls-4" cx="27.46" cy="19.44" r="1.3"/><circle class="cls-4" cx="19.72" cy="62.09" r="1.3"/><circle class="cls-4" cx="77.75" cy="47.35" r="1.3"/><circle class="cls-4" cx="35.38" cy="112.93" r="1.3"/><circle class="cls-4" cx="77.61" cy="12.49" r="1.3"/><circle class="cls-9" cx="77.79" cy="40.39" r="1.17"/><circle class="cls-9" cx="82.49" cy="37.85" r="0.77"/><circle class="cls-11" cx="81.42" cy="40.7" r="0.43"/><circle class="cls-9" cx="75.37" cy="42.51" r="0.71"/><circle class="cls-9" cx="88.6" cy="33.89" r="0.92"/><circle class="cls-11" cx="86.48" cy="37.72" r="0.58"/><circle class="cls-11" cx="84.83" cy="40.06" r="1.25"/><path class="cls-4" d="M43.88,26.09a.81.81,0,0,1-.58-.23,12,12,0,0,1-2-2.7A.82.82,0,0,1,41.59,22a.83.83,0,0,1,1.12.33,10,10,0,0,0,1.75,2.32.82.82,0,0,1-.58,1.4Z"/><path class="cls-4" d="M51.34,29.21a11.34,11.34,0,0,1-4.67-1,.82.82,0,1,1,.68-1.5,9.28,9.28,0,0,0,12.92-6,10,10,0,0,0-.93-7.47.82.82,0,0,1,1.44-.79,11.63,11.63,0,0,1,1.07,8.69,10.88,10.88,0,0,1-10.51,8.11Z"/><path class="cls-4" d="M31.55,41.06a6.66,6.66,0,0,1-5.8-3.47.82.82,0,0,1,.32-1.12.81.81,0,0,1,1.11.32,4.9,4.9,0,0,0,6.6,2.06A4.66,4.66,0,0,0,36,36a5.1,5.1,0,0,0-.47-3.78A.82.82,0,0,1,37,31.39a6.65,6.65,0,0,1,.61,5,6.24,6.24,0,0,1-6.06,4.68Z"/><path class="cls-4" d="M49.48,43.76a6.66,6.66,0,0,1-5.8-3.47.82.82,0,1,1,1.43-.79,4.79,4.79,0,1,0,8.38-4.62.82.82,0,0,1,1.44-.79A6.54,6.54,0,0,1,52.5,43,6.2,6.2,0,0,1,49.48,43.76Z"/><path class="cls-12" d="M113.8,75.23a9.51,9.51,0,1,0,9.51,9.51A9.52,9.52,0,0,0,113.8,75.23Zm0,13.36a3.85,3.85,0,1,1,3.85-3.85A3.85,3.85,0,0,1,113.8,88.59Z"/><path class="cls-4" d="M113.8,95a10.27,10.27,0,1,1,10.27-10.26A10.28,10.28,0,0,1,113.8,95Zm0-19a8.77,8.77,0,1,0,8.77,8.77A8.77,8.77,0,0,0,113.8,76Z"/><path class="cls-4" d="M113.8,89.34a4.61,4.61,0,1,1,4.61-4.6A4.61,4.61,0,0,1,113.8,89.34Zm0-7.71a3.11,3.11,0,1,0,3.1,3.11A3.11,3.11,0,0,0,113.8,81.63Z"/><path class="cls-1" d="M34.26,15a1.12,1.12,0,0,1-.32,0A1.26,1.26,0,0,1,33,13.43c0-.13,3.53-13,15.53-11.25a1.26,1.26,0,0,1,1.07,1.43A1.29,1.29,0,0,1,48.2,4.68c-9.8-1.43-12.61,8.94-12.72,9.38A1.26,1.26,0,0,1,34.26,15Z"/><ellipse class="cls-1" cx="23.48" cy="94.61" rx="2.22" ry="1.27" transform="translate(-73.71 87.13) rotate(-71.66)"/><circle class="cls-13" cx="27.49" cy="95.85" r="0.71"/><path class="cls-13" d="M25.31,96.57a.55.55,0,0,1,.55.55.54.54,0,0,1-.55.55.55.55,0,0,1-.55-.55.55.55,0,0,1,.55-.55Z"/><circle class="cls-13" cx="26.04" cy="92.02" r="0.73"/><path class="cls-1" d="M15.6,60.9h0a1,1,0,0,1-.92-1,47.06,47.06,0,0,1,1.53-11.11,1,1,0,0,1,1.18-.65A1,1,0,0,1,18,49.34,44.66,44.66,0,0,0,16.54,60,.94.94,0,0,1,15.6,60.9Z"/><path class="cls-4" d="M14.05,79a1.22,1.22,0,0,1-1.22-1.22V60a41.41,41.41,0,0,1,3.42-16.56,1.24,1.24,0,0,1,1.61-.64,1.22,1.22,0,0,1,.63,1.61A38.9,38.9,0,0,0,15.27,60V77.74A1.21,1.21,0,0,1,14.05,79Z"/><path class="cls-4" d="M32.07,19.2a1.25,1.25,0,0,1-1.25-1.13A17,17,0,0,1,39.26,1.86,16.11,16.11,0,0,1,52.33,1a1.26,1.26,0,0,1-.86,2.37,13.57,13.57,0,0,0-11,.72,14.37,14.37,0,0,0-7.14,13.75A1.27,1.27,0,0,1,32.2,19.2Z"/><circle class="cls-3" cx="63.58" cy="169.98" r="1.5"/><circle class="cls-3" cx="69.38" cy="167.74" r="1.47"/><circle class="cls-3" cx="58.21" cy="173.64" r="3.32"/><circle class="cls-14" cx="58.57" cy="167.68" r="1.04"/><circle class="cls-14" cx="63" cy="167.13" r="0.52"/><circle class="cls-14" cx="55.26" cy="168.42" r="0.52"/><circle class="cls-14" cx="65.27" cy="165.53" r="1.41"/><circle class="cls-14" cx="53.42" cy="170.94" r="1.17"/><path class="cls-12" d="M10.27,74a9.51,9.51,0,1,0,9.51,9.51A9.52,9.52,0,0,0,10.27,74Zm0,13.36a3.85,3.85,0,1,1,3.85-3.85A3.85,3.85,0,0,1,10.27,87.36Z"/><path class="cls-4" d="M10.27,93.78a10.27,10.27,0,0,1-3-.44.76.76,0,0,1-.51-.93.75.75,0,0,1,.94-.51A8.77,8.77,0,1,0,1.5,83.51a9,9,0,0,0,.34,2.43,8.77,8.77,0,0,0,.74,1.79.75.75,0,1,1-1.31.72A9.82,9.82,0,0,1,.4,86.36,10.49,10.49,0,0,1,0,83.51,10.27,10.27,0,1,1,10.27,93.78Z"/><path class="cls-4" d="M10.27,88.12a4.61,4.61,0,1,1,4.61-4.61A4.62,4.62,0,0,1,10.27,88.12Zm0-7.72a3.11,3.11,0,1,0,3.1,3.11A3.12,3.12,0,0,0,10.27,80.4Z"/><path class="cls-8" d="M50.05,68.81l-11.72-.7a3.29,3.29,0,0,1-3.09-3.23h0c0-1.71,1.26-1.44,3-1.61L49.9,62.15a3.28,3.28,0,0,1,3.6,3.21l0,.1A3.3,3.3,0,0,1,50.05,68.81Z"/><path class="cls-9" d="M50.05,68.81l-11.72-.7a3.29,3.29,0,0,1-3.09-3.23h0c0-1.71-.49,1.1,1.22.93l15.76,1c1.91-.18,1.25-3.33,1.28-1.42l0,.1A3.3,3.3,0,0,1,50.05,68.81Z"/><path class="cls-4" d="M50.24,69.4H50l-11.71-.7a3.9,3.9,0,0,1-3.65-3.8c0-2,1.49-2.08,2.72-2.14l.79-.06,2-.19a.58.58,0,0,1,.12,1.16l-2,.19-.84.06c-1.47.08-1.62.17-1.61,1a2.73,2.73,0,0,0,2.55,2.66l11.71.7a2.74,2.74,0,0,0,2-.75A2.68,2.68,0,0,0,53,65.54a1.55,1.55,0,0,1,0-.17,2.66,2.66,0,0,0-.9-2A2.63,2.63,0,0,0,50,62.73l-4.62.44a.58.58,0,0,1-.64-.52.59.59,0,0,1,.53-.64l4.62-.44a4,4,0,0,1,2.95,1,3.87,3.87,0,0,1,1.29,2.75.79.79,0,0,1,0,.17,3.87,3.87,0,0,1-3.88,4Z"/><circle class="cls-9" cx="47.52" cy="66.3" r="0.87"/><circle class="cls-9" cx="45.23" cy="65.31" r="0.46"/><circle class="cls-9" cx="50.65" cy="66.4" r="1.12"/><path class="cls-8" d="M72.59,68.2l11.72-.69a3.29,3.29,0,0,0,3.1-3.23h0c0-1.72-1.27-1.45-3-1.61L72.75,61.54a3.3,3.3,0,0,0-3.61,3.22l0,.1A3.28,3.28,0,0,0,72.59,68.2Z"/><path class="cls-9" d="M72.59,68.2l11.72-.69a3.29,3.29,0,0,0,3.1-3.23h0c0-1.72.48,1.09-1.23.93l-15.76,1c-1.91-.19-1.24-3.34-1.28-1.42l0,.1A3.28,3.28,0,0,0,72.59,68.2Z"/><path class="cls-4" d="M72.4,68.79a3.87,3.87,0,0,1-2.69-1.08,3.92,3.92,0,0,1-1.19-2.86,1.16,1.16,0,0,1,0-.18,3.86,3.86,0,0,1,1.29-2.74,3.92,3.92,0,0,1,3-1l4.63.45a.58.58,0,0,1,.52.64.6.6,0,0,1-.64.52l-4.62-.45a2.62,2.62,0,0,0-2.06.68,2.71,2.71,0,0,0-.91,2,.57.57,0,0,1,0,.18,2.65,2.65,0,0,0,.83,1.92,2.69,2.69,0,0,0,2,.75l11.72-.69a2.73,2.73,0,0,0,2.54-2.66c0-.79-.13-.88-1.61-1l-.83-.06-2-.19a.59.59,0,0,1-.53-.64.57.57,0,0,1,.64-.52l2,.19.78,0c1.23.07,2.76.16,2.72,2.15a3.9,3.9,0,0,1-3.64,3.8l-11.72.7Z"/><circle class="cls-9" cx="75.12" cy="65.7" r="0.87"/><circle class="cls-9" cx="77.42" cy="64.7" r="0.46"/><circle class="cls-9" cx="71.99" cy="65.8" r="1.12"/><rect class="cls-4" x="41.22" y="71.5" width="7.02" height="15.84" rx="3.51"/><path class="cls-4" d="M46.21,63.36a14.1,14.1,0,0,1-13.82-11l-.08-.33a3.22,3.22,0,0,0-.57-1.52,3.17,3.17,0,0,0-1.09-.5,19,19,0,0,1-11.22-9.89,17.24,17.24,0,0,1,.32-14.82,15.84,15.84,0,0,1,3.15-4.13,1.26,1.26,0,0,1,1.73,1.84A13,13,0,0,0,22,26.53a14.64,14.64,0,0,0-.25,12.59,16.35,16.35,0,0,0,9.56,8.5,5.42,5.42,0,0,1,2.19,1.11,5.19,5.19,0,0,1,1.3,2.81l.07.3a11.62,11.62,0,0,0,13.53,8.8,11.85,11.85,0,0,1-2-4.44,1.26,1.26,0,0,1,2.47-.54,9.51,9.51,0,0,0,2.66,4.7,1.27,1.27,0,0,1-.39,2.14A14.25,14.25,0,0,1,46.21,63.36Z"/><circle class="cls-6" cx="60.69" cy="83.99" r="3.5"/><path class="cls-4" d="M60.69,88.08A4.09,4.09,0,1,1,64.78,84,4.09,4.09,0,0,1,60.69,88.08Zm0-7A2.92,2.92,0,1,0,63.61,84,2.91,2.91,0,0,0,60.69,81.08Z"/><circle class="cls-4" cx="4.19" cy="90.86" r="1.3"/><path class="cls-1" d="M3.66,80.54a.59.59,0,0,1-.31-.09.62.62,0,0,1-.23-.86,9,9,0,0,1,5-4,.63.63,0,0,1,.41,1.19,7.66,7.66,0,0,0-4.28,3.46A.65.65,0,0,1,3.66,80.54Z"/><path class="cls-1" d="M2.67,83.19H2.58A.63.63,0,0,1,2,82.48a6.43,6.43,0,0,1,.23-1,.63.63,0,0,1,1.21.37,5.29,5.29,0,0,0-.19.76A.63.63,0,0,1,2.67,83.19Z"/><path class="cls-15" d="M69.86,96.14s-2.4,7-8.73,7h-.26c-6.35,0-8.72-7-8.72-7Z"/><path class="cls-16" d="M69.86,95.72s-2.4,7-8.73,7h-.26c-6.35,0-8.72-7-8.72-7h.63c1.06,2,3.57,5.63,8.12,5.63h.26c4.54,0,7.06-3.6,8.12-5.63Z"/><path class="cls-4" d="M61.13,103.71h-.26c-6.69,0-9.24-7.31-9.27-7.38a.58.58,0,0,1,.55-.77H69.86a.58.58,0,0,1,.47.24.59.59,0,0,1,.08.53C70.38,96.4,67.8,103.71,61.13,103.71Zm-8.1-7c.81,1.74,3.21,5.83,7.84,5.83h.26c4.62,0,7-4.08,7.85-5.83Z"/><path class="cls-15" d="M70.66,95.91l-6,.26-3.45.34h-.43l-3.45-.34-6-.26c2.73,0,6.31-3.53,7.54-3.21a13.9,13.9,0,0,1,2.18.81,13.9,13.9,0,0,1,2.18-.81C64.46,92.38,67.93,95.91,70.66,95.91Z"/><path class="cls-4" d="M60.79,97.09l-3.51-.34-6-.26a.58.58,0,0,1,0-1.16c1.35,0,3.09-1.06,4.48-1.92s2.42-1.49,3.21-1.28a16.88,16.88,0,0,1,2,.74,14.31,14.31,0,0,1,2-.73c.82-.21,1.79.41,3.16,1.27s3.07,1.92,4.42,1.92a.59.59,0,0,1,.59.57.58.58,0,0,1-.56.59l-6,.26Zm-6.18-1.62,2.75.12,3.48.34h.38l3.39-.34,2.81-.12c-.63-.34-1.24-.72-1.8-1.08a7.92,7.92,0,0,0-2.23-1.13,12.69,12.69,0,0,0-2.08.78.62.62,0,0,1-.5,0,13.78,13.78,0,0,0-2.09-.78,7.56,7.56,0,0,0-2.29,1.15C55.87,94.75,55.25,95.13,54.61,95.47Z"/><circle class="cls-1" cx="41.04" cy="6.97" r="1.52"/><circle class="cls-17" cx="39.02" cy="10.38" r="0.88"/><circle class="cls-17" cx="45.46" cy="7.71" r="1.06"/><circle class="cls-18" cx="42.29" cy="10.06" r="0.72"/><circle class="cls-17" cx="24.42" cy="37.94" r="0.72"/><circle class="cls-18" cx="23.76" cy="34.27" r="0.72"/><circle class="cls-17" cx="23.11" cy="28.1" r="1.06"/><rect class="cls-4" x="76.11" y="71.5" width="7.02" height="15.84" rx="3.51"/><circle class="cls-1" cx="76.09" cy="77.91" r="2.25"/><path class="cls-4" d="M83.32,75.63a17.74,17.74,0,0,0,3.14-3.28,26.28,26.28,0,0,1-3.15,1.88,17.33,17.33,0,0,0,2.19-4.09,20.37,20.37,0,0,1-4.22,4c-1,.58-.6.82,0,.91-1,.25-.83.53-.41.77,0,.47,1.42,1.44,1.42,1.44a17.68,17.68,0,0,0,5.21-2.18A25.7,25.7,0,0,1,83.32,75.63Z"/><path class="cls-4" d="M40.62,75.63a17.74,17.74,0,0,1-3.14-3.28,26.64,26.64,0,0,0,3.14,1.88,17.67,17.67,0,0,1-2.18-4.09,20.37,20.37,0,0,0,4.22,4c1,.58.6.82,0,.91,1,.25.83.53.41.77,0,.47-1.42,1.44-1.42,1.44a17.68,17.68,0,0,1-5.21-2.18A25.7,25.7,0,0,0,40.62,75.63Z"/><circle class="cls-1" cx="41.36" cy="77.91" r="2.25"/></g></g></svg>