<svg xmlns="http://www.w3.org/2000/svg" viewBox="0 0 123.64 232.03"><defs><style>.cls-1{fill:#854277;}.cls-2,.cls-4{fill:#66245d;}.cls-2,.cls-20{opacity:0.4;}.cls-3{fill:#c170b2;}.cls-5{fill:#000201;}.cls-6{fill:#fdc6a2;}.cls-10,.cls-7{fill:#e89176;}.cls-7{opacity:0.75;}.cls-8,.cls-9{fill:#fff;}.cls-9{opacity:0.55;isolation:isolate;}.cls-11,.cls-12{fill:#ff9976;}.cls-11{opacity:0.25;}.cls-13{fill:#181828;}.cls-14{fill:#af143b;}.cls-15{fill:#91052d;}.cls-16{fill:#ffdede;}.cls-17{fill:#ea3d90;}.cls-18{fill:#ff7dc7;}.cls-19{fill:#ffe8dc;}.cls-20,.cls-22{fill:#ffddd7;}.cls-21{fill:#ce7057;}</style></defs><title>Asset 11</title><g id="Layer_2" data-name="Layer 2"><g id="Layer_1-2" data-name="Layer 1"><path class="cls-1" d="M63.18,155.82h0a51.57,51.57,0,0,1,51.57,51.57v0a23.89,23.89,0,0,1-23.89,23.89H35.5a23.89,23.89,0,0,1-23.89-23.89v0A51.57,51.57,0,0,1,63.18,155.82Z"/><path class="cls-2" d="M75.35,191.69C89,184.85,84.06,182,86.79,161.07c0,0,6.5,3.88,6.54,3.86,2.71,1.84,4.5,5.21,6.82,7.53a51.45,51.45,0,0,1,15.1,36.47c0,6.6-2.91,11.06-7.25,15.4s-7.73,5.3-16.2,6.74H36.44c-4.24.09-4.63-.51-6.77-1.14-4.13-1.24-6.44-3-7.11-7.2a15.52,15.52,0,0,1,.32-7.31c1.45-4.42,5.57-7.88,10.36-10.67a53.38,53.38,0,0,1,18.29-6.34Z"/><path class="cls-3" d="M17.27,191.18a1,1,0,0,1-.33-.06,1,1,0,0,1-.63-1.29c.32-.91,8-22.3,27.33-28.82a1,1,0,1,1,.65,1.93c-18.39,6.2-26,27.35-26.06,27.56A1,1,0,0,1,17.27,191.18Z"/><path class="cls-4" d="M114.29,206.05A23.87,23.87,0,0,1,90.4,229.92H35a24.11,24.11,0,0,1-8.28-1.46,15.25,15.25,0,0,1,0-6.31,15.89,15.89,0,0,1,8.82-11c8.63-3.92,18.51.49,28,.92,13.19.6,26-7.23,32.93-18.5a46.49,46.49,0,0,0,6.43-19.83A51.28,51.28,0,0,1,114.29,206.05Z"/><path class="cls-5" d="M91.32,232H36a25.14,25.14,0,0,1-25.11-25.1c0-1.35.06-2.68.15-4a1.25,1.25,0,0,1,1.31-1.13,1.23,1.23,0,0,1,1.13,1.31c-.1,1.26-.14,2.53-.14,3.82A22.69,22.69,0,0,0,36,229.59H91.32A22.69,22.69,0,0,0,114,206.93,50.36,50.36,0,0,0,15.36,192.6a1.21,1.21,0,0,1-1.51.82A1.22,1.22,0,0,1,13,191.9a52.8,52.8,0,0,1,103.41,15A25.13,25.13,0,0,1,91.32,232Z"/><rect class="cls-6" x="53.69" y="139.24" width="21.3" height="28.7" rx="10.65"/><path class="cls-7" d="M74.61,146.78v7.4a9.27,9.27,0,0,1-.31,2.48c-11.27.91-17.51-5-20.34-13.52a10.37,10.37,0,0,1,2.16-3.55,10.63,10.63,0,0,1,18.49,7.19Z"/><circle class="cls-4" cx="90.1" cy="198.71" r="5.74"/><circle class="cls-4" cx="82.31" cy="203.85" r="1.69"/><path class="cls-5" d="M18.1,211.84a.87.87,0,0,1-.32-.06.82.82,0,0,1-.45-1.06l0,0,4.47-10.57a.81.81,0,0,1,1.07-.44.83.83,0,0,1,.44,1.08l-4.48,10.56A.81.81,0,0,1,18.1,211.84Z"/><path class="cls-5" d="M23.45,206.93a.81.81,0,0,1-.31-.06.82.82,0,0,1-.46-1.06l0,0,2.39-5.66a.82.82,0,1,1,1.51.64l-2.39,5.65A.81.81,0,0,1,23.45,206.93Z"/><path class="cls-8" d="M28.21,97a1,1,0,0,1-1-1V81.84a1,1,0,0,1,2,0V96A1,1,0,0,1,28.21,97Z"/><ellipse class="cls-8" cx="28.21" cy="101.72" rx="1.36" ry="1.84"/><path class="cls-5" d="M64.34,169.09a11.81,11.81,0,0,1-11.8-11.8v-7.4a11.8,11.8,0,0,1,23.6,0v7.4A11.81,11.81,0,0,1,64.34,169.09Zm0-28.69a9.5,9.5,0,0,0-9.49,9.49v7.4a9.49,9.49,0,1,0,19,0v-7.4A9.49,9.49,0,0,0,64.34,140.4Z"/><circle class="cls-9" cx="46.66" cy="144.78" r="0.55"/><circle class="cls-9" cx="54.35" cy="147.45" r="0.73"/><ellipse class="cls-8" cx="46.2" cy="139.98" rx="2.22" ry="1.27" transform="translate(-101.21 139.79) rotate(-71.66)"/><circle class="cls-9" cx="50.21" cy="141.23" r="0.71"/><path class="cls-9" d="M48,142a.55.55,0,0,1,.55.55.55.55,0,0,1-.55.55.55.55,0,0,1-.55-.55A.54.54,0,0,1,48,142Z"/><circle class="cls-9" cx="48.76" cy="137.4" r="0.73"/><path class="cls-6" d="M17.85,82.07l5.1.1A12.09,12.09,0,0,1,34.77,94.44h0a12,12,0,0,1-12.23,11.82h0l-5.1-.1A12.1,12.1,0,0,1,5.59,93.89h0A12,12,0,0,1,17.85,82.06h0Z"/><path class="cls-5" d="M22.75,107.38h-.23l-5.11-.1a13.06,13.06,0,0,1-7.83-2.78A1.12,1.12,0,0,1,11,102.74a10.92,10.92,0,0,0,6.51,2.3l5.1.1h.18a10.93,10.93,0,0,0,.18-21.86l-5.1-.09h-.15a10.92,10.92,0,0,0-11,10.73,11,11,0,0,0,.82,4.32,1.12,1.12,0,0,1-2.08.84A13.16,13.16,0,0,1,17.87,80.94H18l5,.1A13.23,13.23,0,0,1,35.88,94.46a13.13,13.13,0,0,1-13.13,12.92Z"/><path class="cls-10" d="M19.18,88.32l2.65.05A6.28,6.28,0,0,1,28,94.77h0a6.29,6.29,0,0,1-6.38,6.14l-2.66-.06a6.26,6.26,0,0,1-6.13-6.39h0A6.27,6.27,0,0,1,19.18,88.32Z"/><path class="cls-8" d="M10.79,90A4.5,4.5,0,0,1,13,87.54c.88-.34.52-1.79-.4-1.43a5.9,5.9,0,0,0-3.14,3.13c-.37.88.91,1.64,1.29.77Z"/><ellipse class="cls-8" cx="9.05" cy="92.76" rx="1.19" ry="0.95" transform="translate(-84.03 88.16) rotate(-81.6)"/><path class="cls-6" d="M105.54,82.07l5.1.1a12.09,12.09,0,0,1,11.88,12.3h0a12,12,0,0,1-12.23,11.82h-.05l-5.1-.1A12.08,12.08,0,0,1,93.31,93.92h0A12,12,0,0,1,105.54,82.1h0Z"/><path class="cls-5" d="M110.5,107.41h-.23l-5.15-.1A13.17,13.17,0,0,1,105.3,81a.77.77,0,0,1,.26,0l5.1.1a13.18,13.18,0,0,1-.16,26.36Zm-5.17-24.2a10.93,10.93,0,0,0-.16,21.86l5.1.1a11.3,11.3,0,0,0,7.8-3.06,10.84,10.84,0,0,0,3.33-7.66,11,11,0,0,0-10.78-11.17l-4.85-.09a1.06,1.06,0,0,1-.25,0Z"/><path class="cls-10" d="M106.8,88.32l2.65.06a6.28,6.28,0,0,1,6.14,6.39h0a6.27,6.27,0,0,1-6.38,6.13l-2.66-.05a6.27,6.27,0,0,1-6.13-6.39h0A6.29,6.29,0,0,1,106.8,88.32Z"/><path class="cls-8" d="M97.09,90.81a4.5,4.5,0,0,1,2.23-2.45c.88-.34.5-1.78-.4-1.43a5.82,5.82,0,0,0-3.14,3.14c-.37.86.91,1.62,1.29.76Z"/><ellipse class="cls-8" cx="95.39" cy="93.58" rx="1.19" ry="0.95" transform="matrix(0.15, -0.99, 0.99, 0.15, -11.12, 174.27)"/><path class="cls-6" d="M94.55,25.35c.53.45,1,.93,1.47,1.4a44.68,44.68,0,0,1,13.12,31.72v46.22a44.8,44.8,0,0,1-89.6,1V58.47a44.73,44.73,0,0,1,14.57-33.1C49,11.77,79.62,11.85,94.55,25.35Z"/><path class="cls-11" d="M109.31,58.28v46.23a44.8,44.8,0,0,1-44.65,45h-.15V15c11.38,0,22.76,3.38,30.22,10.15.53.45,1,.93,1.47,1.41A44.66,44.66,0,0,1,109.31,58.28Z"/><path class="cls-12" d="M109.14,58v46.22a44.81,44.81,0,0,1-44.66,45c-1.1,0-2.2,0-3.28-.11,23.32-1.66,43.7-21.12,43.62-44.85V58c0-11.9-6.75-23.3-15.16-31.71-.48-.49-1-.95-1.47-1.4C81.39,18.74,71.36,15.38,61,14.82c12.44-.7,25.33,2.67,33.52,10.07.52.45,1,.91,1.45,1.4A44.67,44.67,0,0,1,109.14,58Z"/><path class="cls-8" d="M66.57,149.62c-.8.06-1.62.07-2.44.07-24.74-.07-44.74-20.2-44.66-43V60.46c0-13.84,4.71-25.25,13.14-33.65.48-.49.93-1,1.45-1.4,8-7.25,20.55-10.63,32.74-10.11-10.54.45-20.86,3.83-27.8,10.11-.52.44-1,.91-1.45,1.4a44.65,44.65,0,0,0-13.14,31.7v46.22A44.81,44.81,0,0,0,66.57,149.62Z"/><path class="cls-5" d="M29.92,134.76a1.23,1.23,0,0,1-.94-.44,46.22,46.22,0,0,1-10.66-28.64V77.37a1.22,1.22,0,0,1,2.44,0v28.28a43.72,43.72,0,0,0,10.1,27.1,1.23,1.23,0,0,1-.15,1.72A1.24,1.24,0,0,1,29.92,134.76Z"/><path class="cls-5" d="M64.33,150.87A45.87,45.87,0,0,1,33.53,139a1.22,1.22,0,0,1,1.63-1.81,43.49,43.49,0,0,0,29.17,11.2h.16a43.57,43.57,0,0,0,43.43-43.73V58.47A43.76,43.76,0,0,0,95.16,27.62l-.3-.3c-.36-.35-.72-.71-1.11-1.05C79.1,13,49.43,13,34.94,26.27A43.57,43.57,0,0,0,20.76,58.46a1.22,1.22,0,0,1-1.22,1.23h0a1.22,1.22,0,0,1-1.22-1.22,46,46,0,0,1,15-34c15.3-14,46.63-14,62.08,0,.42.37.81.76,1.21,1.15l.3.3a46.22,46.22,0,0,1,13.49,32.58v46.22a46.06,46.06,0,0,1-45.88,46.18Z"/><path class="cls-5" d="M19.54,71.53a1.22,1.22,0,0,1-1.22-1.23v-5a1.22,1.22,0,0,1,2.44,0v5A1.23,1.23,0,0,1,19.54,71.53Z"/><ellipse class="cls-13" cx="49.42" cy="85.5" rx="5.68" ry="7.2"/><ellipse class="cls-8" cx="47.38" cy="82.89" rx="2.09" ry="2.29"/><ellipse class="cls-13" cx="79.36" cy="85.5" rx="5.68" ry="7.2"/><ellipse class="cls-8" cx="77.32" cy="82.89" rx="2.09" ry="2.29"/><path class="cls-8" d="M24.42,183.18a1,1,0,0,1-.52-.15,1,1,0,0,1-.35-1.4,42.7,42.7,0,0,1,4-5.48,1,1,0,0,1,1.55,1.33,39.53,39.53,0,0,0-3.78,5.21A1,1,0,0,1,24.42,183.18Z"/><circle class="cls-8" cx="31.27" cy="174.13" r="1.42"/><circle class="cls-3" cx="39.36" cy="165.91" r="1.56"/><circle class="cls-3" cx="37.84" cy="169" r="1.03"/><path class="cls-12" d="M40,52.64h65.4a0,0,0,0,1,0,0v5a0,0,0,0,1,0,0H45a5,5,0,0,1-5-5v0A0,0,0,0,1,40,52.64Z"/><path class="cls-5" d="M89.13,218.67H110a1.06,1.06,0,0,1,0,2.12H89.13a1.06,1.06,0,0,1,0-2.12Z"/><path class="cls-5" d="M79.6,218.67h2.94a1.06,1.06,0,0,1,0,2.12H79.6a1.06,1.06,0,1,1,0-2.12Z"/><path class="cls-14" d="M52.86,105.62H79.73a4.71,4.71,0,0,1,4.71,4.71v6.15a19.86,19.86,0,0,1-19.86,19.86h0a19.86,19.86,0,0,1-19.86-19.86h0v-6.89a4,4,0,0,1,4-4Z"/><path class="cls-15" d="M68.71,135.9a19.88,19.88,0,0,1-23.56-15.33,20.17,20.17,0,0,1-.43-4.1v-7.66a3.2,3.2,0,0,1,3.2-3.2H53v10.86A19.86,19.86,0,0,0,68.71,135.9Z"/><path class="cls-8" d="M51.48,105.61H81A3.4,3.4,0,0,1,84.44,109v8.65h-33Z"/><path class="cls-16" d="M51.48,105.61H80.75a3.69,3.69,0,0,1,3.69,3.69v1.33h-33Z"/><path class="cls-13" d="M84.44,118.75h-33a1.06,1.06,0,0,1-1.06-1.06h0V105.62c0-.59.48.8,1.06.8s1.06-1.39,1.06-.8v11h31.9c.58-.05-.77.38-.72,1s1.48,1.1.9,1.15h-.18Z"/><path class="cls-17" d="M82.83,120.08v3.75c-4.27,6.5-6.28,12.3-14.08,12.3-2.37,0-4.74,1.22-6.81.08l-.11-.84a14.75,14.75,0,0,1-.25-2.73,14.32,14.32,0,0,1,21.18-12.59Z"/><path class="cls-13" d="M61.88,136.66a.77.77,0,0,1-.74-.61A15.11,15.11,0,0,1,76,118.1a15,15,0,0,1,7.18,1.83.75.75,0,0,1-.71,1.32,13.58,13.58,0,0,0-19.81,14.51.76.76,0,0,1-.6.88Z"/><path class="cls-18" d="M65.32,125.76a.37.37,0,0,1-.37-.38.33.33,0,0,1,.06-.19,13.77,13.77,0,0,1,9.89-5.54.38.38,0,0,1,.4.34.37.37,0,0,1-.34.4,13.23,13.23,0,0,0-9.33,5.21A.38.38,0,0,1,65.32,125.76Z"/><ellipse class="cls-18" cx="66.76" cy="124.9" rx="1.41" ry="0.89" transform="translate(-73.87 108.15) rotate(-55.08)"/><circle class="cls-18" cx="69.22" cy="124.18" r="0.46"/><circle class="cls-18" cx="68.3" cy="126.63" r="0.46"/><path class="cls-5" d="M64.58,137.56A21.11,21.11,0,0,1,43.5,116.48v-7.33a4.76,4.76,0,0,1,4.76-4.75H80.91a4.76,4.76,0,0,1,4.76,4.75v7.33A21.11,21.11,0,0,1,64.58,137.56ZM48.26,106.84A2.31,2.31,0,0,0,46,109.15v7.33a18.64,18.64,0,1,0,37.27,0v-7.33a2.32,2.32,0,0,0-2.31-2.31Z"/><path class="cls-5" d="M66.11,107.14a1,1,0,0,1-1-.68,28,28,0,0,1-1.79-8.32v-7A1,1,0,0,1,65.44,91a.54.54,0,0,1,0,.18v6.91a26.58,26.58,0,0,0,1.66,7.67,1.05,1.05,0,0,1-.61,1.35A1,1,0,0,1,66.11,107.14Z"/><rect class="cls-8" x="23.34" y="90.84" width="2.21" height="11.91" rx="1.1"/><rect class="cls-12" x="103.31" y="65.47" width="2.21" height="11.91" rx="1.1"/><rect class="cls-19" x="28.05" y="65.93" width="3.64" height="19.65" rx="1.82"/><path class="cls-10" d="M84,14.68H59.18A34,34,0,0,0,32.09,1.22H1.22C1.22,25.9,14.06,53.1,45.43,52.8h60.45a7.89,7.89,0,0,0,7.62-9.95C109.58,28.44,97.86,14.68,84,14.68Z"/><path class="cls-20" d="M50.82,7.58C37.64,34.33,5.64,30,2.81,16.3c.45-2.53-1.59-1.16-1.59-15.08H32.1C42.36,1.22,44.18,2.53,50.82,7.58Z"/><path class="cls-21" d="M100.37,20c6,4.25,10.45,14.45,12.3,23.73a7.28,7.28,0,0,1-7.15,8.69H43.38c-13.71,0-32.56-9.61-35.12-22.91,7.86,6.18,17.59,13.61,27.59,13.58H96.72c9,0,10.09-15.86,4.11-22.63l-.46-.49"/><rect class="cls-22" x="8.66" y="3.84" width="19.84" height="3.68" rx="1.83"/><path class="cls-8" d="M46.28,8.24a2,2,0,0,1-.63-.1l-5.72-2a27.91,27.91,0,0,0-9.15-1.55h-25A1.88,1.88,0,1,1,5.52.82H30.78A31.28,31.28,0,0,1,41.16,2.55l5.72,2a1.89,1.89,0,0,1-.61,3.66Z"/><path class="cls-5" d="M105.35,54H45.43c-14.13,0-25.3-4.76-33.21-14a1.22,1.22,0,0,1,1.86-1.59c7.42,8.71,18,13.14,31.35,13.18h59.92a7.52,7.52,0,0,0,5.84-2.77,7.16,7.16,0,0,0,1.53-6c-1.88-9.54-8.12-25.72-28.79-26.95H59.18a1.21,1.21,0,0,1-1-.49,33,33,0,0,0-26.12-13H2.45A74.72,74.72,0,0,0,4,16.73a1.22,1.22,0,1,1-2.39.51A77.63,77.63,0,0,1,0,1.22,1.22,1.22,0,0,1,1.22,0H32.09A35.42,35.42,0,0,1,59.78,13.45H84c16.36,1,27.68,11.51,31.11,28.91a9.6,9.6,0,0,1-2,8A10,10,0,0,1,105.35,54Z"/><path class="cls-5" d="M9,34.64A1.23,1.23,0,0,1,8,34a50.69,50.69,0,0,1-4-8.43,1.22,1.22,0,0,1,2.29-.84,47.75,47.75,0,0,0,3.77,8,1.21,1.21,0,0,1-.43,1.67A1.17,1.17,0,0,1,9,34.64Z"/><circle class="cls-21" cx="94.09" cy="43.33" r="4.16"/><circle class="cls-21" cx="86.76" cy="39.96" r="1.78"/><circle class="cls-22" cx="12.99" cy="8.35" r="1.78"/><circle class="cls-21" cx="44.08" cy="43.45" r="7.13"/></g></g></svg>