<svg id="Layer_1" enable-background="new 0 0 512 512" height="512" viewBox="0 0 512 512" width="512" xmlns="http://www.w3.org/2000/svg"><g><g><path d="m343.764 174.912-70.912-52.002h-19.517l-8.002 37.09 10.667 24.956 52.282 38.34c30.685 22.501 49.004 58.652 49.004 96.703v128h30v64h30v-191.999c0-57.089-27.485-111.328-73.522-145.088z" fill="#ae632c"/><path d="m239.148 122.91-70.912 52.002c-46.037 33.76-73.522 87.999-73.522 145.088v192h30v-64h30v-128c0-38.051 18.319-74.202 49.004-96.703l52.282-38.341v-62.046z" fill="#c97840"/></g><g><path d="m271 29.657v-29.657h-15l-10.667 31.999 10.667 25.668c15.256 0 27.667 12.411 27.667 27.667 0 15.255-12.411 27.666-27.667 27.666l-10.667 15 10.667 15c31.798 0 57.667-25.869 57.667-57.667 0-26.609-18.121-49.056-42.667-55.676z" fill="#a0aab7"/><path d="m228.333 85.333c0-15.255 12.411-27.667 27.667-27.667v-57.666h-15v29.657c-24.546 6.62-42.667 29.067-42.667 55.676 0 31.798 25.869 57.667 57.667 57.667v-30c-15.256 0-27.667-12.411-27.667-27.667z" fill="#daeaec"/></g><g><path d="m441.667 405.333h-185.667l-10.667 39.5 10.667 39.5h185.667z" fill="#f90"/><path d="m70.333 405.333h185.667v79h-185.667z" fill="#ffd321"/></g></g></svg>