<svg id="Layer_1" enable-background="new 0 0 512 512" height="512" viewBox="0 0 512 512" width="512" xmlns="http://www.w3.org/2000/svg"><g><g><path d="m133.596 31.905h-31.905v30h22.713v22.712h30v-31.905z" fill="#daeaec"/><path d="m186.308 22.712h-22.712v-22.712h-30v31.905l20.808 20.807h31.904z" fill="#a0aab7"/><path d="m133.596 31.905h20.808v20.808h-20.808z" fill="#32393f"/></g><g><path d="m378.404 75.288-20.808 20.807v31.905h30v-22.712h22.713v-30z" fill="#a0aab7"/><path d="m378.404 75.288v-31.905h-30v22.712h-22.712v30h31.904z" fill="#daeaec"/><path d="m357.596 75.288h20.808v20.808h-20.808z" fill="#262b2f"/></g><g><g><path d="m322.522 166.906c-4.252-4.385-8.649-8.921-13.235-13.821-30.511-32.607-53.287-71.247-53.287-71.247l-10.667 67.829 10.667 63.666 83.126-27.913c-5.313-6.527-10.98-12.714-16.604-18.514z" fill="#ae632c"/><path d="m244.993 87.038c-33.605 15.876-54.542 36.915-62.232 62.533-4.832 16.099-3.328 30.876-.486 41.844l73.725 21.918v-131.495z" fill="#c97840"/></g><g><path d="m364.741 232.716.015.003c-4.065-17.083-13.998-33.008-25.63-47.299h-83.126l-21.333 59.913 21.333 68.882h46.667c35.509 0 64.397-28.888 64.397-64.397 0-5.922-.82-11.652-2.323-17.102z" fill="#8c5023"/><path d="m209.397 185.42c-35.509 0-64.397 28.889-64.397 64.398s28.888 64.397 64.397 64.397h46.603v-128.795z" fill="#ae632c"/></g><g><path d="m355.936 284.313h-99.936l-20 64.397 20 64.397h99.936c35.509 0 64.397-28.888 64.397-64.397 0-35.508-28.888-64.397-64.397-64.397z" fill="#ae632c"/><path d="m156.064 284.313c-35.509 0-64.397 28.889-64.397 64.398s28.888 64.397 64.397 64.397h99.936v-128.795z" fill="#c97840"/></g><g><path d="m404.936 383.206h-148.936l-20 64.397 20 64.397h148.936c35.509 0 64.397-28.888 64.397-64.397s-28.888-64.397-64.397-64.397z" fill="#8c5023"/><path d="m107.064 383.206c-35.509 0-64.397 28.888-64.397 64.397s28.888 64.397 64.397 64.397h148.936v-128.794z" fill="#ae632c"/></g></g></g></svg>