<svg id="Layer_1" enable-background="new 0 0 512 512" height="512" viewBox="0 0 512 512" width="512" xmlns="http://www.w3.org/2000/svg"><g><g><path d="m392.667 0h-136.313l-21 263.683 21 248.317h136.313c35.841 0 65-29.159 65-65v-382c0-35.841-29.159-65-65-65z" fill="#daeaec"/><path d="m54.334 0h202.02v512h-202.02z" fill="#f1f1f4"/></g><path d="m334.553 402.021h51.333v30h-51.333z" fill="#8e98a5"/><path d="m298.667 343.679h87.219v30h-87.219z" fill="#8e98a5"/><g><path d="m256 69.157-11.924 101.55 11.924 100.803c55.789 0 101.177-45.388 101.177-101.177s-45.388-101.176-101.177-101.176z" fill="#ff3838"/><path d="m154.823 170.333c0 55.789 45.388 101.177 101.177 101.177v-202.353c-55.789 0-101.177 45.387-101.177 101.176z" fill="#ff5c5c"/></g><g><path d="m271 155.333v-32.999h-15l-10.667 48.333 10.667 47.666h15v-33h33v-30z" fill="#f7f0eb"/><path d="m241 122.334v32.999h-33v30h33v33h15v-95.999z" fill="#fffbf5"/></g><path d="m256 372.168c0-14.018-10.745-25.382-24-25.382-6.686 0-12.73 2.894-17.082 7.558.703-2.388 1.082-4.926 1.082-7.558 0-14.018-10.745-25.382-24-25.382s-24 11.364-24 25.382c0 2.632.379 5.171 1.082 7.558-4.352-4.665-10.397-7.558-17.082-7.558-13.255 0-24 11.364-24 25.382 0 8.358 3.821 15.771 9.715 20.396-3.291 7.874-5.08 16.479-5.08 25.296 0 13.121 10.093 23.796 22.499 23.796h73.731c12.406 0 22.499-10.675 22.499-23.796 0-8.817-1.789-17.423-5.08-25.296 5.895-4.625 9.716-12.038 9.716-20.396z" fill="#8e98a5"/></g></svg>