<svg id="Layer_1" enable-background="new 0 0 509.893 509.893" height="512" viewBox="0 0 509.893 509.893" width="512" xmlns="http://www.w3.org/2000/svg"><g><g><g><path d="m78.932 406.405 77.1 77.483 254.825-253.768-81.854-73.787-135.985 100.826z" fill="#fdd278"/><path d="m246.716 82.154-246.716 244.926 78.932 79.325 250.071-250.072z" fill="#ffe7ab"/></g><path d="m471.99 91.414c-21.328-21.434-56.218-21.622-77.777-.42l-56.321 56.174 72.414 83.485 61.445-61.19c10.464-10.388 16.251-24.23 16.297-38.975s-5.657-28.621-16.058-39.074z" fill="#daeaec"/><path d="m424.56 291.159h30v30h-30z" fill="#0dca71"/><path d="m479.893 227.159h30v30h-30z" fill="#f90"/><g><path d="m459.032 199.277-86.271-86.701-65.535 35.701-25.662 55.496 86.046 86.474z" fill="#0cba68"/><path d="m286.618 26.005-91.423 90.969 86.369 86.799 91.197-91.197z" fill="#0dca71"/></g></g><g><path d="m138.134 347.203-4.406 30.302 29.687 4.317 7.319-50.333-8.423-8.464-19.752 9.84z" fill="#ff7b00"/><path d="m153.805 314.476-50.368 7.069 4.17 29.709 30.561-4.289-.034.238 24.177-24.178z" fill="#f90"/></g><g><path d="m239.205 246.428-.197-.099-64.116 34.542-29.549 59.123c8.869 8.868 20.522 13.308 32.179 13.308 11.618 0 23.238-4.408 32.104-13.23l20.462-20.361c18.224-18.133 22.781-45.783 11.341-68.805z" fill="#f90"/><path d="m234.738 244.18c-22.962-11.552-50.636-7.133-68.859 10.999l-20.462 20.36c-8.618 8.576-13.382 19.994-13.412 32.152-.03 12.159 4.676 23.601 13.252 32.219.028.028.058.054.086.082l93.665-93.665z" fill="#ffd321"/></g></g></svg>