<svg id="Layer_1" enable-background="new 0 0 512 512" height="512" viewBox="0 0 512 512" width="512" xmlns="http://www.w3.org/2000/svg"><g><g><path d="m448 116.292c0-8.822-7.178-16-16-16h-176l-21.333 113.042 21.333 91.707h192z" fill="#daeaec"/><path d="m80 100.292c-8.822 0-16 7.178-16 16v188.749h192v-204.749z" fill="#f1f1f4"/></g><g><path d="m409.667 215.739-9.615-3.698c-45.773-17.605-94.912-26.408-144.052-26.408l-21.333 59.701 21.333 50.333h153.667z" fill="#32393f"/><path d="m111.948 212.041-9.615 3.698v79.927h153.667v-110.033c-49.139 0-98.278 8.803-144.052 26.408z" fill="#5e6b75"/></g><path d="m512 275.041v-97.916c0-42.366-34.467-76.833-76.833-76.833s-76.834 34.467-76.834 76.833v126.542z" fill="#ff3838"/><path d="m153.667 303.667v-126.542c0-42.366-34.467-76.833-76.834-76.833-42.366 0-76.833 34.468-76.833 76.833v97.916z" fill="#ff5c5c"/><g><path d="m512 275.041h-256l-10.667 66.293 10.667 70.374h256z" fill="#c6001c"/><path d="m0 275.041h256v136.667h-256z" fill="#ff3838"/></g></g></svg>