<svg id="Layer_1" enable-background="new 0 0 512 512" height="512" viewBox="0 0 512 512" width="512" xmlns="http://www.w3.org/2000/svg"><g><g><path d="m439.472 295.667-183.472-186.743-20 232.576 20 170.5h123.316z" fill="#fddb93"/><path d="m70.999 290.167 61.686 221.833h123.315v-403.076z" fill="#ffe7ab"/></g><g><path d="m256 0-10.667 21.333 10.667 8.667c20.518 0 37.212 16.693 37.212 37.212 0 11.664-13.188 46.052-28.216 80.455h32.754c13.057-30.776 25.461-64.27 25.461-80.455.001-37.061-30.15-67.212-67.211-67.212z" fill="#daeaec"/><path d="m188.788 67.212c0 16.185 12.404 49.678 25.461 80.455h32.755c-15.028-34.402-28.216-68.791-28.216-80.455 0-20.519 16.693-37.212 37.212-37.212v-30c-37.061 0-67.212 30.151-67.212 67.212z" fill="#f1f1f4"/></g><g><path d="m266.443 108.924h-10.443l-10.667 19.075 10.667 12.588v-.001l206.892 200.614 20.885-21.537z" fill="#ae632c"/><path d="m245.558 108.924-217.335 210.739 20.884 21.537 206.893-200.613v-31.663z" fill="#c97840"/></g><g><path d="m256 236.399-10.667 62.267 10.667 65.733c35.346 0 64-28.654 64-64s-28.654-64-64-64z" fill="#262b2f"/><path d="m192 300.399c0 35.346 28.654 64 64 64v-128c-35.346.001-64 28.654-64 64z" fill="#32393f"/></g><g><path d="m256 216.799-10.667 16.534 10.667 13.466c29.556 0 53.601 24.045 53.601 53.601 0 29.555-24.045 53.6-53.601 53.6l-10.667 18 10.667 12c46.098 0 83.601-37.503 83.601-83.6 0-46.098-37.503-83.601-83.601-83.601z" fill="#f90"/><path d="m202.4 300.4c0-29.556 24.045-53.601 53.6-53.601v-30c-46.097 0-83.6 37.503-83.6 83.601 0 46.097 37.503 83.6 83.6 83.6v-30c-29.555 0-53.6-24.045-53.6-53.6z" fill="#ffd321"/></g><g><path d="m256 416-10.667 32.523 10.667 31.477c17.645 0 32-14.355 32-32s-14.355-32-32-32z" fill="#ae632c"/><path d="m224 448c0 17.645 14.355 32 32 32v-64c-17.645 0-32 14.355-32 32z" fill="#c97840"/></g></g></svg>