<svg id="Layer_1" enable-background="new 0 0 512 512" height="512" viewBox="0 0 512 512" width="512" xmlns="http://www.w3.org/2000/svg"><g><g><path d="m145 480h30v32h-30z" fill="#ffd321"/></g><g><path d="m337 480h30v32h-30z" fill="#f90"/></g><g><path d="m256 0-10 15 10 15h49v52.666h30v-82.666z" fill="#f90"/><path d="m177 0v82.666h30v-52.666h49v-30z" fill="#ffd321"/></g><g><path d="m453.793 275.167c0-50.646-6.549-101.293-19.646-150.532-10.175-38.252-45.495-64.968-85.894-64.968h-92.253l-20 88 20 161.667z" fill="#fddb93"/><path d="m256 275.167-21.333 108.833 21.333 106.667h92.253c40.399 0 75.719-26.716 85.894-64.968 13.098-49.239 19.646-99.886 19.646-150.532z" fill="#0cba68"/><path d="m77.854 124.634c-13.098 49.239-19.647 99.886-19.647 150.532l197.793 34.167v-249.666h-92.254c-40.397 0-75.717 26.715-85.892 64.967z" fill="#ffe7ab"/><path d="m58.207 275.167c0 50.646 6.549 101.293 19.647 150.532 10.175 38.252 45.495 64.968 85.893 64.968h92.253v-215.5z" fill="#0dca71"/></g><g><path d="m352 138.667h-96l-20 136.5 20 136.5h96z" fill="#32393f"/><path d="m160 138.667h96v273h-96z" fill="#5e6b75"/></g><g><path d="m367 123.666h-111l-10 15 10 15h81v61h-81l-10 15.396 10 14.604h17v61h-17l-10 15 10 15h81v61h-81l-10 15 10 15h111zm-30 182.001h-34v-61h34z" fill="#f7f0eb"/><path d="m175 396.667v-61h81v-30h-81v-61h81v-30h-81v-61h81v-30.001h-111v303.001h111v-30z" fill="#fffbf5"/></g></g></svg>