<svg id="Layer_1" enable-background="new 0 0 512 512" height="512" viewBox="0 0 512 512" width="512" xmlns="http://www.w3.org/2000/svg"><g><g><g><path d="m209.335 197-7.967-79.667h-18.655l-9.57-82.862c-2.269-19.629-18.863-34.436-38.616-34.469l-16.333 106.666 16.332 90.332z" fill="#12b0ff"/><path d="m95.777 34.471-9.571 82.862h-18.655l-7.967 79.667h74.942v-196.998c-.022 0-.044-.002-.066-.002-19.783 0-36.413 14.82-38.683 34.471z" fill="#86c3fd"/></g><g><g><path d="m134.526 451.667 115.672-10-18.34-168.667-97.332-10-10 97.106z" fill="#86c3fd"/><path d="m134.526 263-97.465 10-18.34 168.667 115.805 10z" fill="#9ecffd"/></g><path d="m231.858 273-9.275-85.301h-88.057l-10 43.555 10 41.746z" fill="#daeaec"/><path d="m134.526 512h123.32l-7.648-70.333h-115.672l-10 27.772z" fill="#daeaec"/><g fill="#f1f1f4"><path d="m37.061 273h97.465v-85.301h-88.19z"/><path d="m18.721 441.667-7.648 70.333h123.453v-70.333z"/></g></g></g><g><g><path d="m323.76 145.105-10 162.167 10 162.167c89.562 0 162.167-72.604 162.167-162.167-.001-89.562-72.605-162.167-162.167-162.167z" fill="#f7f0eb"/><path d="m161.593 307.272c0 89.562 72.605 162.167 162.166 162.167v-324.334c-89.561 0-162.166 72.605-162.166 162.167z" fill="#fffbf5"/></g><g><g><path d="m260.953 398.44h-30v-68.334h43.333l-13.333 30z" fill="#5e6b75"/></g><g><path d="m222.926 271.772h53.333v30h-53.333z" fill="#5e6b75"/></g><g><path d="m417.361 398.44h-30v-38.334l-13.334-30h43.334z" fill="#32393f"/></g><g><path d="m372.259 271.772h53.334v30h-53.334z" fill="#32393f"/></g><g><path d="m271.926 192.543h30v38.46h-30z" fill="#c97840" transform="matrix(.832 -.555 .555 .832 -69.281 194.73)"/></g><g><path d="m342.363 196.773h38.459v29.999h-38.459z" fill="#ae632c" transform="matrix(.555 -.832 .832 .555 -15.189 395.165)"/></g><g><path d="m324.26 360.106h62.999v-88.334l-62.999-11.102-7.543 52.798z" fill="#ae632c"/><path d="m324.26 271.772h63v-1.333c0-34.738-28.262-63-63-63l-7.542 45.688z" fill="#32393f"/><path d="m261.259 271.772v88.334h63.001v-99.436z" fill="#c97840"/><path d="m261.259 270.44v1.333h63v-64.333c-34.738-.001-63 28.261-63 63z" fill="#5e6b75"/></g></g><g><path d="m323.76 130.105-10 15.895 10 14.105c81.148 0 147.167 66.019 147.167 147.167s-66.019 147.167-147.167 147.167l-10 14.995 10 15.005c97.69 0 177.167-79.477 177.167-177.167s-79.477-177.167-177.167-177.167z" fill="#c0e0fe"/><path d="m176.593 307.272c0-81.148 66.019-147.167 147.167-147.167v-30c-97.69 0-177.167 79.477-177.167 177.167s79.477 177.167 177.167 177.167v-30c-81.149 0-147.167-66.019-147.167-147.167z" fill="#cfe7fe"/></g></g></g></svg>