<svg id="Layer_1" enable-background="new 0 0 512 512" height="512" viewBox="0 0 512 512" width="512" xmlns="http://www.w3.org/2000/svg"><g><g><path d="m256 343.982-10.667 72.005 10.667 91.297c45.023 0 81.651-36.629 81.651-81.651s-36.629-81.651-81.651-81.651z" fill="#ebb65b"/><path d="m174.348 425.633c0 45.022 36.629 81.651 81.651 81.651v-163.302c-45.022 0-81.651 36.628-81.651 81.651z" fill="#ffc663"/></g><g><path d="m219.074 85.014c-.536-1.024-13.478-25.329-44.01-46.851-27.661-19.498-75.934-40.709-148.822-31.027l-8.54 1.134-3.324 7.947c-.546 1.306-13.381 32.452-14.323 74.695-1.265 56.613 19.464 106.352 59.945 143.841l10.441 9.67 153.821-149.495z" fill="#ffc663"/><g><path d="m132.101 123.779c-27.805-34.222-64.174-31.521-65.708-31.389l.105-.01-2.996-29.85c2.168-.218 53.594-4.792 91.883 42.331z" fill="#ea9b58"/></g></g><g><path d="m292.926 85.014c.536-1.024 13.477-25.329 44.01-46.851 27.661-19.498 75.934-40.709 148.823-31.027l8.539 1.134 3.324 7.947c.546 1.305 13.381 32.452 14.324 74.695 1.264 56.613-19.465 106.352-59.945 143.841l-10.441 9.67-153.822-149.495z" fill="#ebb65b"/><g><path d="m379.898 123.779c27.806-34.222 64.174-31.521 65.708-31.389l-.105-.01 2.996-29.85c-2.168-.218-53.594-4.792-91.883 42.331z" fill="#d88a55"/></g></g><path d="m28.352 339.378h68.858v30h-68.858z" fill="#daeaec"/><path d="m41.239 407.915h81.149v30h-81.149z" fill="#daeaec" transform="matrix(.899 -.438 .438 .899 -177.03 78.603)"/><path d="m414.79 339.378h68.858v30h-68.858z" fill="#cedfe2"/><path d="m415.186 382.34h30v81.149h-30z" fill="#cedfe2" transform="matrix(.438 -.899 .899 .438 -138.46 624.306)"/><g><path d="m256 28.987-21.333 209.316 21.333 194.342c13.941 23.403 39.455 38.74 68.207 38.737.35 0 .708-.003 1.059-.007 27.405-.359 52.298-14.489 66.59-37.799l1.179-1.922c26.876-43.819 71.859-117.159 71.859-193.773 0-115.185-93.71-208.894-208.894-208.894z" fill="#fdd278"/><path d="m47.105 237.881c0 76.614 44.983 149.954 71.859 193.773l1.179 1.922c14.292 23.31 39.185 37.44 66.59 37.799 29.216.39 55.155-15.043 69.265-38.732 0 .001.001.001.001.001v-403.657c-115.184 0-208.894 93.709-208.894 208.894z" fill="#ffdf8e"/></g><g><path d="m265.528 321.342h-9.528l-10.667 30.645 10.667 42.707 25.592-15.355c9.405-5.643 15.159-15.806 15.159-26.774 0-17.244-13.979-31.223-31.223-31.223z" fill="#c97840"/><path d="m246.471 321.342c-17.244 0-31.223 13.979-31.223 31.223 0 10.968 5.754 21.131 15.159 26.774l25.593 15.356v-73.352h-9.529z" fill="#d88a55"/></g><g><path d="m156.171 216.13h30v60.592h-30z" fill="#32393f"/></g><g><path d="m325.829 216.13h30v60.592h-30z" fill="#262b2f"/></g></g></svg>