<svg id="Layer_1" enable-background="new 0 0 512 512" height="512" viewBox="0 0 512 512" width="512" xmlns="http://www.w3.org/2000/svg"><g><g><path d="m48.733 376.796h68.857v30h-68.857z" fill="#daeaec"/><path d="m61.62 445.333h81.15v30h-81.15z" fill="#daeaec" transform="matrix(.899 -.438 .438 .899 -191.365 91.316)"/><g fill="#cedfe2"><path d="m394.409 376.796h68.857v30h-68.857z"/><path d="m394.806 419.758h30v81.15h-30z" transform="matrix(.438 -.899 .899 .438 -183.545 627.011)"/></g></g><g><g><path d="m226.99 209.309 1.029-27.124c1.877-49.46-4.498-98.888-18.864-146.253-8.206-27.056-36.987-42.139-63.904-33.492-28.196 9.058-42.622 40.287-31.24 67.628l57.966 139.242h55.013z" fill="#daeaec"/></g><path d="m285.01 209.309h55.012l57.966-139.242c11.382-27.341-3.044-58.569-31.24-67.628-26.917-8.647-55.698 6.437-63.904 33.492-14.366 47.365-20.741 96.793-18.864 146.253z" fill="#cedfe2"/></g><g><path d="m256 167.035-21.333 174.298 21.333 147.308c12.357 14.691 30.609 23.36 50.292 23.359.291 0 .587-.002.878-.006 24.193-.317 43.788-15.92 55.965-28.954 21.09-22.575 60.975-82.538 60.975-147.896-.001-92.695-75.414-168.109-168.11-168.109z" fill="#daeaec"/><path d="m87.891 335.144c0 65.357 39.885 125.32 60.975 147.896 12.177 13.034 31.771 28.637 55.965 28.954 20.045.251 38.63-8.445 51.17-23.353v-321.606c-92.697 0-168.11 75.414-168.11 168.109z" fill="#f1f1f4"/></g><g><g><path d="m161.505 298.667h30v60.592h-30z" fill="#32393f"/></g><g><path d="m320.495 298.667h30v60.592h-30z" fill="#262b2f"/></g></g><g><path d="m264.143 394.667h-8.143l-10.667 32 10.667 30.686 21.871-13.122c8.037-4.822 12.955-13.508 12.955-22.88-.001-14.738-11.947-26.684-26.683-26.684z" fill="#c97840"/><path d="m247.857 394.667c-14.737 0-26.683 11.946-26.683 26.683 0 9.373 4.918 18.058 12.955 22.88l21.871 13.123v-62.686z" fill="#d88a55"/></g></g></svg>