<svg id="Layer_1" enable-background="new 0 0 511.421 511.421" height="512" viewBox="0 0 511.421 511.421" width="512" xmlns="http://www.w3.org/2000/svg"><g><path d="m102.775 145c-47.456 0-86.064 38.608-86.064 86.064v29.269h168.667v-115.333z" fill="#0dca71"/><path d="m432.861 377.842-43.029-70.843-95.051 60.211 83.943 144.211 25.258-15.341c40.56-24.637 53.516-77.678 28.879-118.238z" fill="#0cba68"/><path d="m121.59 306.999-43.03 70.843c-24.636 40.56-11.681 93.601 28.88 118.238l25.258 15.34 83.943-144.211z" fill="#0dca71"/><path d="m408.646 145h-82.602v115.333h168.666v-29.269c0-47.456-38.608-86.064-86.064-86.064z" fill="#0cba68"/><g><path d="m345.878 90.167c0-49.718-40.449-90.167-90.167-90.167l-10.667 85.333 10.667 82.103h90.168v-77.269z" fill="#0cba68"/><path d="m255.71 0c-49.718 0-90.167 40.449-90.167 90.167v77.269h90.167z" fill="#0dca71"/></g><g><path d="m420.044 269.326c0-62.386-31.773-117.136-79.239-147.388l-85.095 147.388z" fill="#ebb65b"/><path d="m255.711 269.326 85.095-147.388c-24.836-15.829-53.969-24.952-85.095-24.952l-10.667 63.014z" fill="#fdd278"/><path d="m91.377 269.326h164.333l-85.094-147.388c-47.466 30.252-79.239 85.002-79.239 147.388z" fill="#ffc663"/><path d="m255.71 96.985c-31.126 0-60.258 9.123-85.094 24.952l85.094 147.388z" fill="#ffe7ab"/><path d="m255.711 269.326-10.667 114.674 10.667 57.667c31.126 0 60.258-9.123 85.095-24.952z" fill="#ebb65b"/><path d=""/><path d="m255.711 269.326 85.095 147.388c47.466-30.252 79.239-85.002 79.239-147.388z" fill="#fdd278"/><path d=""/><path d="m170.616 416.714c24.836 15.829 53.968 24.952 85.094 24.952v-172.34z" fill="#ffc663"/><path d="m255.711 269.326h-164.334c0 62.386 31.773 117.135 79.239 147.388z" fill="#ffe7ab"/><path d="m337.031 269.326-40.66-70.426h-40.66l-10.667 67.767 10.667 73.084h40.66z" fill="#ffe5a5"/><path d="m215.05 198.9-40.66 70.426 40.66 70.425h40.661v-140.851z" fill="#fffaed"/></g></g></svg>