<svg xmlns="http://www.w3.org/2000/svg" width="369.125" height="63.55" viewBox="0 0 369.125 63.55">
  <g id="logo" transform="translate(-126 -29)">
    <g id="Group_1" data-name="Group 1" transform="translate(126 29)">
      <path id="Subtraction_3" data-name="Subtraction 3" d="M25.885,55.337H0V28.507A31.5,31.5,0,0,1,2.039,17.4,29.9,29.9,0,0,1,4.4,12.562,28.372,28.372,0,0,1,7.513,8.344a26.566,26.566,0,0,1,3.771-3.479,24.768,24.768,0,0,1,4.324-2.627A22.98,22.98,0,0,1,25.511,0c.125,0,.251,0,.373,0v12.3a13.694,13.694,0,0,0-5.412,1.331,15.17,15.17,0,0,0-4.826,3.654,17.243,17.243,0,0,0-3.254,5.419A18.729,18.729,0,0,0,11.2,29.066h0V43.319H25.885V55.337Z" transform="translate(54.756 63.55) rotate(180)" fill="#2b3647"/>
      <path id="Subtraction_5" data-name="Subtraction 5" d="M25.885,55.337H0V28.507A31.5,31.5,0,0,1,2.039,17.4,29.893,29.893,0,0,1,4.4,12.562,28.385,28.385,0,0,1,7.513,8.344a26.585,26.585,0,0,1,3.771-3.479,24.769,24.769,0,0,1,4.325-2.627A23.4,23.4,0,0,1,20.385.579,22.994,22.994,0,0,1,25.511,0l.373,0v12.3a13.693,13.693,0,0,0-5.412,1.331,15.166,15.166,0,0,0-4.826,3.654,17.241,17.241,0,0,0-3.254,5.419A18.739,18.739,0,0,0,11.2,29.066h0V43.319H25.885V55.337Z" transform="translate(0)" fill="#fff"/>
    </g>
    <g id="Group_363" data-name="Group 363" transform="translate(-1051.987 -81.391)">
      <path id="Path_797" data-name="Path 797" d="M-82.481-5.687h16.555V0H-89.9V-36.969h7.414ZM-45.36,0a15.594,15.594,0,0,1-.7-1.98,13.777,13.777,0,0,1-.419-2.133A10.162,10.162,0,0,1-49.5-.787,7.573,7.573,0,0,1-53.968.533,9.277,9.277,0,0,1-60.62-1.688a7.959,7.959,0,0,1-2.336-6.056A7.244,7.244,0,0,1-59.846-14q3.11-2.222,9.077-2.222H-46.6v-2.184a4.274,4.274,0,0,0-1.041-3.072,4.086,4.086,0,0,0-3.1-1.092,4.027,4.027,0,0,0-2.78.876,3.058,3.058,0,0,0-.978,2.4h-7.135l-.051-.152a6.968,6.968,0,0,1,3.034-6,13.179,13.179,0,0,1,8.392-2.526,12.3,12.3,0,0,1,8.011,2.488,8.667,8.667,0,0,1,3.06,7.135v11.35A21.465,21.465,0,0,0-38.9-3.377,18.22,18.22,0,0,0-37.972,0ZM-52.14-4.951a6.317,6.317,0,0,0,3.453-.965A5.194,5.194,0,0,0-46.6-8.15v-3.885h-4.164a4.936,4.936,0,0,0-3.567,1.168A3.838,3.838,0,0,0-55.542-8a2.865,2.865,0,0,0,.9,2.222A3.566,3.566,0,0,0-52.14-4.951Zm25.289-22.521.33,3.936a10.048,10.048,0,0,1,3.377-3.275,8.766,8.766,0,0,1,4.494-1.168,8.169,8.169,0,0,1,6.5,2.679q2.336,2.679,2.336,8.468V0h-7.439V-16.809a6.577,6.577,0,0,0-1.028-4.177,3.79,3.79,0,0,0-3.085-1.231,6.474,6.474,0,0,0-2.907.622,5.675,5.675,0,0,0-2.069,1.714V0h-7.414V-27.473ZM-5.37-13.508q0-6.5,2.818-10.486A9.143,9.143,0,0,1,5.37-27.98a7.8,7.8,0,0,1,4.063,1.041,9.118,9.118,0,0,1,3,2.971l.584-3.5h6.373V-.127a10.21,10.21,0,0,1-3.5,8.29Q12.378,11.1,6.106,11.1a18.623,18.623,0,0,1-4.418-.571A20.516,20.516,0,0,1-2.628,8.963l1.244-5.535A17.014,17.014,0,0,0,2.133,4.659a17.426,17.426,0,0,0,3.923.419,6.636,6.636,0,0,0,4.481-1.27A5.025,5.025,0,0,0,11.972-.152V-2.641A8.294,8.294,0,0,1,9.1-.279,8.458,8.458,0,0,1,5.319.533,9.323,9.323,0,0,1-2.552-3.174q-2.818-3.707-2.818-9.8Zm7.414.533A11.288,11.288,0,0,0,3.25-7.3,4.214,4.214,0,0,0,7.2-5.23a6.119,6.119,0,0,0,2.882-.622,4.752,4.752,0,0,0,1.892-1.815V-19.576a5.067,5.067,0,0,0-1.892-1.955,5.545,5.545,0,0,0-2.831-.686A4.158,4.158,0,0,0,3.288-19.8a13.749,13.749,0,0,0-1.244,6.3ZM41.907-4.062a9.327,9.327,0,0,1-3.225,3.4A8.548,8.548,0,0,1,34.138.533a8.354,8.354,0,0,1-6.792-2.945Q24.9-5.357,24.9-11.553v-15.92h7.389V-11.5q0,3.605.978,4.938A3.512,3.512,0,0,0,36.3-5.23,7.388,7.388,0,0,0,39.343-5.8,5.136,5.136,0,0,0,41.425-7.49V-27.473h7.414V0H42.694ZM70.624,0a15.594,15.594,0,0,1-.7-1.98,13.776,13.776,0,0,1-.419-2.133A10.162,10.162,0,0,1,66.485-.787,7.573,7.573,0,0,1,62.017.533a9.277,9.277,0,0,1-6.652-2.222,7.959,7.959,0,0,1-2.336-6.056A7.244,7.244,0,0,1,56.139-14q3.11-2.222,9.077-2.222H69.38v-2.184a4.274,4.274,0,0,0-1.041-3.072,4.086,4.086,0,0,0-3.1-1.092,4.027,4.027,0,0,0-2.78.876,3.058,3.058,0,0,0-.978,2.4H54.349l-.051-.152a6.968,6.968,0,0,1,3.034-6,13.179,13.179,0,0,1,8.392-2.526,12.3,12.3,0,0,1,8.011,2.488,8.667,8.667,0,0,1,3.06,7.135v11.35a21.466,21.466,0,0,0,.292,3.631A18.22,18.22,0,0,0,78.013,0ZM63.845-4.951A6.317,6.317,0,0,0,67.3-5.916,5.194,5.194,0,0,0,69.38-8.15v-3.885H65.216a4.936,4.936,0,0,0-3.567,1.168A3.838,3.838,0,0,0,60.442-8a2.865,2.865,0,0,0,.9,2.222A3.566,3.566,0,0,0,63.845-4.951ZM90.353-27.473V1.016q0,4.824-2.564,7.452A9.51,9.51,0,0,1,80.653,11.1a15.484,15.484,0,0,1-1.854-.1,15.371,15.371,0,0,1-1.777-.33L77.378,5a9.482,9.482,0,0,0,1.168.229,9.63,9.63,0,0,0,1.244.076A2.746,2.746,0,0,0,82.1,4.253a5.282,5.282,0,0,0,.813-3.237V-27.473ZM90.2-34.1H82.761v-5.51H90.2Z" transform="translate(1342.378 156)" fill="#2b3647"/>
      <path id="Path_798" data-name="Path 798" d="M3.5,0H-3.91V-6.5H3.5Z" transform="translate(1442.378 146)" fill="#2b3647"/>
      <path id="Path_799" data-name="Path 799" d="M-36.258-5.154A4.126,4.126,0,0,0-33.186-6.31a4.2,4.2,0,0,0,1.143-3.085h6.754l.051.152a8.6,8.6,0,0,1-3.1,6.97A11.584,11.584,0,0,1-36.258.533q-6.094,0-9.42-3.9A14.813,14.813,0,0,1-49-13.33v-.762a14.911,14.911,0,0,1,3.313-9.966q3.313-3.923,9.382-3.923a11.33,11.33,0,0,1,8.1,2.895,9.673,9.673,0,0,1,2.971,7.617l-.051.152h-6.754a5.482,5.482,0,0,0-1.13-3.542,3.8,3.8,0,0,0-3.136-1.409,4.231,4.231,0,0,0-4.075,2.3,12.6,12.6,0,0,0-1.206,5.878v.762a12.555,12.555,0,0,0,1.206,5.916A4.289,4.289,0,0,0-36.258-5.154Zm14.193-8.836a14.743,14.743,0,0,1,3.428-10.067q3.428-3.923,9.5-3.923,6.094,0,9.547,3.91A14.664,14.664,0,0,1,3.859-13.99v.533A14.687,14.687,0,0,1,.419-3.364Q-3.021.533-9.09.533q-6.094,0-9.534-3.9a14.687,14.687,0,0,1-3.44-10.093Zm7.389.533a11.952,11.952,0,0,0,1.32,6.03A4.558,4.558,0,0,0-9.09-5.154a4.513,4.513,0,0,0,4.2-2.285,11.872,11.872,0,0,0,1.333-6.018v-.533A11.751,11.751,0,0,0-4.9-19.957a4.553,4.553,0,0,0-4.24-2.311,4.5,4.5,0,0,0-4.2,2.323,11.857,11.857,0,0,0-1.333,5.954ZM15.311-27.473l.3,3.631a9.229,9.229,0,0,1,3.313-3.06,9.529,9.529,0,0,1,4.608-1.079,8.392,8.392,0,0,1,4.52,1.168A7.205,7.205,0,0,1,30.9-23.283a9.522,9.522,0,0,1,3.3-3.453,8.957,8.957,0,0,1,4.773-1.244A7.827,7.827,0,0,1,45.386-25.1q2.349,2.882,2.349,8.8V0H40.32V-16.326q0-3.3-1.016-4.6a3.605,3.605,0,0,0-3.021-1.295,5.176,5.176,0,0,0-2.729.7,5.087,5.087,0,0,0-1.841,1.942q0,.482.025.825t.025.7V0H24.375V-16.326q0-3.225-1.016-4.558a3.589,3.589,0,0,0-3.047-1.333,5.75,5.75,0,0,0-2.628.571,5.04,5.04,0,0,0-1.866,1.612V0H8.43V-27.473Z" transform="translate(1499.378 156)" fill="#2b3647"/>
    </g>
  </g>
</svg>
