<svg xmlns="http://www.w3.org/2000/svg" width="427.671" height="410" viewBox="0 0 427.671 410">
  <g id="Marketer" transform="translate(-20.64 -59.717)">
    <g id="Group_19" data-name="Group 19" transform="translate(20.64 76.924)">
      <path id="Path_32" data-name="Path 32" d="M464.54,267.046a80.462,80.462,0,0,1,37.583,9.82,72.411,72.411,0,0,1,21.9,18.035c12.067,15.07,16.851,37.182,8.612,53.735-6.911,13.835-22.061,23.779-22.22,39.714-.213,18.591,20.041,30.944,37.743,34.773,17.649,3.829,37.477,4.571,50.767,17.788,11.429,11.365,14.459,29.585,10.685,44.9-3.774,15.256-13.4,27.979-24.081,38.85C558.738,551.9,524.344,569.752,489.1,583.9a601.8,601.8,0,0,1-236.61,42.556c-20.307-.432-43.006-2.965-57.252-18.9-14.353-16.059-14.831-41.444-5.422-59.85s26.686-30.759,44.76-39.714c18.074-9.018,37.477-15.256,55.019-25.2,13.29-7.474,26.9-21.741,21.264-37.059-3.987-10.87-15.788-16.12-26.154-20.567-14.619-6.238-29.237-13.526-41.2-24.52s-21.157-26.25-22.061-42.37c-.851-15.07,5.582-29.462,15.1-40.27s21.9-18.406,34.606-24.953C321.33,267.293,429.615,266.552,464.54,267.046Z" transform="translate(-183.477 -266.958)" fill="#f7f7f7"/>
    </g>
    <ellipse id="XMLID_2608_" cx="153.275" cy="24.216" rx="153.275" ry="24.216" transform="translate(91.135 421.285)" fill="#2b3647"/>
    <path id="XMLID_40_" d="M321.563,438.5H167.138a16.471,16.471,0,0,1-16.468-16.474V83.283a16.471,16.471,0,0,1,16.468-16.474H321.562A16.471,16.471,0,0,1,338.03,83.283V422.029A16.469,16.469,0,0,1,321.563,438.5Z" transform="translate(0.055 0)" fill="#0c486f"/>
    <rect id="XMLID_39_" width="59.019" height="6.558" transform="translate(216.303 83.671)" fill="#1f313d"/>
    <circle id="XMLID_33_" cx="15.457" cy="15.457" r="15.457" transform="translate(230.824 399.034)" fill="#1f313d"/>
    <rect id="XMLID_34_" width="157.383" height="146.578" transform="translate(167.59 101.47)" fill="#d3d3d3"/>
    <circle id="XMLID_2308_" cx="10.518" cy="10.518" r="10.518" transform="translate(230.092 136.594)" fill="#f3f3f3"/>
    <rect id="XMLID_32_" width="157.383" height="141.958" transform="translate(167.59 248.141)" fill="#f7f7f5"/>
    <rect id="XMLID_2015_" width="111.168" height="6.558" transform="translate(190.697 304.961)" fill="#d3d3d3"/>
    <g id="XMLID_30_" transform="translate(190.902 319.111)">
      <rect id="XMLID_31_" width="31.227" height="6.558" fill="#2995f5"/>
      <rect id="XMLID_1456_" width="31.227" height="6.558" transform="translate(39.868)" fill="#2995f5"/>
      <rect id="XMLID_1459_" width="31.227" height="6.558" transform="translate(79.736)" fill="#2995f5"/>
    </g>
    <rect id="XMLID_2200_" width="47.505" height="47.029" transform="translate(167.57 343.08)" fill="#d3d3d3"/>
    <rect id="XMLID_2201_" width="101.298" height="47.029" transform="translate(223.687 343.08)" fill="#d3d3d3"/>
    <rect id="XMLID_1455_" width="9.295" height="94.93" transform="translate(315.702 248.127)" fill="#eaeae8"/>
    <path id="XMLID_2305_" d="M266.826,187.348l-51.789-30.087-47.5,34.694v56.093Z" transform="translate(0.044 0.04)" fill="#f2f2f2"/>
    <path id="XMLID_2306_" d="M167.533,248.048,286.2,150.7l38.721,39.03v58.315Z" transform="translate(0.057 0.038)" fill="#f3f3f3"/>
    <g id="XMLID_2581_" transform="translate(66.36 111.966)">
      <g id="XMLID_2445_" transform="translate(254.703 146.133)">
        <circle id="XMLID_2447_" cx="12.201" cy="12.201" r="12.201" fill="#f44"/>
        <path id="XMLID_2446_" d="M340.427,265.859c-2.382-4.868-7.25,1.761-7.25,1.761s-4.868-6.629-7.25-1.761,7.25,10.668,7.25,10.668S342.809,270.727,340.427,265.859Z" transform="translate(-320.976 -258.099)" fill="#fff"/>
      </g>
      <g id="XMLID_2547_" transform="translate(56.925 93.91)">
        <circle id="XMLID_2549_" cx="9.967" cy="9.967" r="9.967" transform="translate(0 14.095) rotate(-45)" fill="#f44"/>
        <path id="XMLID_2548_" d="M143.286,216.343c-1.946-3.977-5.923,1.438-5.923,1.438s-3.977-5.415-5.923-1.438,5.923,8.715,5.923,8.715S145.232,220.32,143.286,216.343Z" transform="translate(-123.265 -205.876)" fill="#fff"/>
      </g>
      <g id="XMLID_2584_" transform="translate(329.303)">
        <circle id="XMLID_2586_" cx="7.091" cy="7.091" r="7.091" fill="#2a94f5"/>
        <path id="XMLID_2585_" d="M406.85,116.476c-1.384-2.829-4.214,1.023-4.214,1.023s-2.829-3.853-4.214-1.023,4.214,6.2,4.214,6.2S408.235,119.305,406.85,116.476Z" transform="translate(-395.546 -111.966)" fill="#fff"/>
      </g>
      <g id="XMLID_2550_" transform="translate(0 178.818)">
        <circle id="XMLID_2552_" cx="9.967" cy="9.967" r="9.967" transform="translate(0 14.095) rotate(-45)" fill="#ce5974"/>
        <path id="XMLID_2551_" d="M86.381,301.252c-1.946-3.977-5.923,1.439-5.923,1.439s-3.977-5.415-5.923-1.439,5.923,8.716,5.923,8.716S88.327,305.229,86.381,301.252Z" transform="translate(-66.36 -290.784)" fill="#fff"/>
      </g>
      <g id="XMLID_2568_" transform="translate(40.704 129.586)">
        <circle id="XMLID_2570_" cx="9.967" cy="9.967" r="9.967" transform="translate(0 14.095) rotate(-45)" fill="#f44"/>
        <path id="XMLID_2569_" d="M127.086,252.02c-1.946-3.977-5.923,1.439-5.923,1.439s-3.977-5.416-5.923-1.439,5.923,8.716,5.923,8.716S129.032,256,127.086,252.02Z" transform="translate(-107.065 -241.552)" fill="#fff"/>
      </g>
      <g id="XMLID_2523_" transform="translate(325.508 89.961)">
        <circle id="XMLID_2525_" cx="21.279" cy="21.279" r="21.279" fill="#f44"/>
        <path id="XMLID_2524_" d="M425.675,215.459c-4.155-8.491-12.646,3.071-12.646,3.071s-8.49-11.562-12.645-3.071,12.645,18.607,12.645,18.607S429.83,223.95,425.675,215.459Z" transform="translate(-391.751 -201.927)" fill="#fff"/>
      </g>
      <g id="XMLID_2414_" transform="translate(30.427 59.311)">
        <circle id="XMLID_2418_" cx="15.813" cy="15.813" r="15.813" transform="matrix(0.161, -0.987, 0.987, 0.161, 0, 31.215)" fill="#f44"/>
        <path id="XMLID_2417_" d="M124.327,183.674c-3.088-6.309-9.4,2.282-9.4,2.282s-6.309-8.592-9.4-2.282,9.4,13.827,9.4,13.827S127.415,189.983,124.327,183.674Z" transform="translate(-96.787 -171.277)" fill="#fff"/>
      </g>
    </g>
    <circle id="XMLID_2444_" cx="25.085" cy="25.085" r="25.085" transform="matrix(0.637, -0.771, 0.771, 0.637, 349.195, 284.559)" fill="#0c548f"/>
    <g id="XMLID_2441_" transform="translate(368.686 265.321)">
      <path id="XMLID_2443_" d="M400.218,280.279a2.388,2.388,0,0,0-2.388-2.388h-8.943V269.6a4.354,4.354,0,0,0-4.354-4.354,26.356,26.356,0,0,1-2.156,6.006l-6.131,11.879v13.859h18.073a2.388,2.388,0,1,0,0-4.776h1.5a2.388,2.388,0,0,0,0-4.776h1.264a2.388,2.388,0,0,0,0-4.776h.749A2.386,2.386,0,0,0,400.218,280.279Z" transform="translate(-368.568 -265.25)" fill="#fff"/>
      <rect id="XMLID_2442_" width="6.18" height="13.859" transform="translate(0 17.885)" fill="#fff"/>
    </g>
    <g id="XMLID_2531_" transform="translate(133.765 334.311)">
      <circle id="XMLID_2535_" cx="19.79" cy="19.79" r="19.79" fill="#0c548f"/>
      <g id="XMLID_2532_" transform="translate(7.306 7.268)">
        <path id="XMLID_2534_" d="M166.016,353.338a1.884,1.884,0,0,0-1.884-1.884h-7.055v-6.538a3.435,3.435,0,0,0-3.435-3.435,20.765,20.765,0,0,1-1.7,4.738L147.1,355.59v10.933h14.258a1.884,1.884,0,0,0,0-3.768h1.182a1.884,1.884,0,1,0,0-3.768h1a1.884,1.884,0,1,0,0-3.768h.591A1.879,1.879,0,0,0,166.016,353.338Z" transform="translate(-141.047 -341.481)" fill="#fff"/>
        <rect id="XMLID_2533_" width="4.876" height="10.933" transform="translate(0 14.111)" fill="#fff"/>
      </g>
    </g>
    <g id="XMLID_2553_" transform="translate(392.728 140.522)">
      <circle id="XMLID_2557_" cx="12.101" cy="12.101" r="12.101" transform="translate(0 17.113) rotate(-45)" fill="#0c548f"/>
      <g id="XMLID_2554_" transform="translate(9.484 9.454)">
        <path id="XMLID_2556_" d="M417.361,157.2a1.152,1.152,0,0,0-1.152-1.152h-4.314v-4a2.1,2.1,0,0,0-2.1-2.1,12.71,12.71,0,0,1-1.04,2.9l-2.958,5.73v6.685h8.718a1.152,1.152,0,1,0,0-2.3h.723a1.152,1.152,0,1,0,0-2.3h.61a1.152,1.152,0,1,0,0-2.3h.361A1.149,1.149,0,0,0,417.361,157.2Z" transform="translate(-402.094 -149.948)" fill="#fff"/>
        <rect id="XMLID_2555_" width="2.981" height="6.685" transform="translate(0 8.628)" fill="#fff"/>
      </g>
    </g>
    <g id="XMLID_2571_" transform="translate(97.814 270.44)">
      <circle id="XMLID_2575_" cx="12.101" cy="12.101" r="12.101" transform="translate(0 17.113) rotate(-45)" fill="#0c548f"/>
      <g id="XMLID_2572_" transform="translate(9.482 9.458)">
        <path id="XMLID_2574_" d="M122.564,287.074a1.152,1.152,0,0,0-1.152-1.152H117.1v-4a2.1,2.1,0,0,0-2.1-2.1,12.71,12.71,0,0,1-1.04,2.9L111,288.451v6.685h8.718a1.152,1.152,0,0,0,0-2.3h.723a1.152,1.152,0,0,0,0-2.3h.61a1.152,1.152,0,0,0,0-2.3h.361A1.149,1.149,0,0,0,122.564,287.074Z" transform="translate(-107.296 -279.824)" fill="#fff"/>
        <rect id="XMLID_2573_" width="2.981" height="6.685" transform="translate(0 8.627)" fill="#fff"/>
      </g>
    </g>
    <g id="XMLID_2576_" transform="translate(282.484 66.559)">
      <circle id="XMLID_2580_" cx="12.101" cy="12.101" r="12.101" transform="translate(0 17.113) rotate(-45)" fill="#0c548f"/>
      <g id="XMLID_2577_" transform="translate(9.482 9.455)">
        <path id="XMLID_2579_" d="M307.157,83.264a1.152,1.152,0,0,0-1.152-1.152h-4.314v-4a2.1,2.1,0,0,0-2.1-2.1,12.71,12.71,0,0,1-1.04,2.9l-2.958,5.73v6.685h8.718a1.152,1.152,0,1,0,0-2.3h.723a1.152,1.152,0,1,0,0-2.3h.61a1.152,1.152,0,1,0,0-2.3H306A1.149,1.149,0,0,0,307.157,83.264Z" transform="translate(-291.889 -76.014)" fill="#fff"/>
        <rect id="XMLID_2578_" width="2.981" height="6.685" transform="translate(0 8.628)" fill="#fff"/>
      </g>
    </g>
    <g id="XMLID_2583_" transform="translate(215.765 59.717)">
      <circle id="XMLID_2606_" cx="7.779" cy="7.779" r="7.779" fill="#0c548f"/>
      <g id="XMLID_2603_" transform="translate(2.871 2.856)">
        <path id="XMLID_2605_" d="M228.4,67.234a.741.741,0,0,0-.741-.741h-2.773v-2.57a1.349,1.349,0,0,0-1.35-1.35,8.174,8.174,0,0,1-.669,1.863l-1.9,3.684v4.3h5.6a.741.741,0,0,0,0-1.482h.465a.74.74,0,0,0,0-1.481h.392a.74.74,0,0,0,0-1.481h.232A.74.74,0,0,0,228.4,67.234Z" transform="translate(-218.586 -62.573)" fill="#fff"/>
        <rect id="XMLID_2604_" width="1.917" height="4.298" transform="translate(0 5.547)" fill="#fff"/>
      </g>
    </g>
    <g id="XMLID_2397_" transform="translate(145.4 255.428)">
      <circle id="XMLID_2408_" cx="21.5" cy="21.5" r="21.5" fill="#ffbe56"/>
      <g id="XMLID_2398_" transform="translate(6.443 11.191)">
        <g id="XMLID_2405_" transform="translate(1.717 11.751)">
          <path id="XMLID_2406_" d="M180.211,278.3a13.34,13.34,0,1,1-26.68,0Z" transform="translate(-153.531 -278.3)" fill="#2a94f5"/>
        </g>
        <g id="XMLID_2399_">
          <g id="XMLID_2403_" transform="translate(0 0.002)">
            <path id="XMLID_2404_" d="M162.571,274.05a.827.827,0,0,1-.812-.673c-.576-3.046-2.285-5.173-4.157-5.173s-3.581,2.126-4.148,5.171a.827.827,0,0,1-1.626-.3c.727-3.9,3.048-6.522,5.775-6.522s5.045,2.621,5.782,6.52a.826.826,0,0,1-.659.966A1.027,1.027,0,0,1,162.571,274.05Z" transform="translate(-151.814 -266.551)" fill="#30201d"/>
          </g>
          <g id="XMLID_2401_" transform="translate(18.53)">
            <path id="XMLID_2402_" d="M181.1,274.05a.828.828,0,0,1-.812-.673c-.576-3.046-2.285-5.173-4.158-5.173s-3.581,2.126-4.148,5.171a.827.827,0,1,1-1.626-.3c.728-3.9,3.049-6.522,5.775-6.522s5.046,2.621,5.783,6.52a.83.83,0,0,1-.814.981Z" transform="translate(-170.344 -266.549)" fill="#30201d"/>
          </g>
        </g>
      </g>
    </g>
    <g id="XMLID_2513_" transform="translate(337.86 113.878)">
      <circle id="XMLID_2522_" cx="12.644" cy="12.644" r="12.644" fill="#ffbe56"/>
      <g id="XMLID_2514_" transform="translate(3.789 6.582)">
        <g id="XMLID_2520_" transform="translate(1.01 6.91)">
          <path id="XMLID_2521_" d="M358.256,127.37a7.845,7.845,0,0,1-15.69,0h15.69Z" transform="translate(-342.566 -127.37)" fill="#2a94f5"/>
        </g>
        <g id="XMLID_2515_">
          <g id="XMLID_2518_">
            <path id="XMLID_2519_" d="M347.882,124.871a.485.485,0,0,1-.477-.4c-.339-1.791-1.344-3.042-2.445-3.042s-2.106,1.25-2.44,3.041a.486.486,0,1,1-.956-.178c.427-2.294,1.792-3.836,3.4-3.836s2.967,1.541,3.4,3.834a.486.486,0,0,1-.388.568A.458.458,0,0,1,347.882,124.871Z" transform="translate(-341.556 -120.46)" fill="#30201d"/>
          </g>
          <g id="XMLID_2516_" transform="translate(10.898)">
            <path id="XMLID_2517_" d="M358.78,124.871a.485.485,0,0,1-.477-.4c-.339-1.791-1.344-3.042-2.445-3.042s-2.106,1.25-2.44,3.041a.486.486,0,1,1-.956-.179c.428-2.294,1.793-3.835,3.4-3.835s2.968,1.541,3.4,3.834a.486.486,0,0,1-.388.568A.476.476,0,0,1,358.78,124.871Z" transform="translate(-352.454 -120.46)" fill="#30201d"/>
          </g>
        </g>
      </g>
    </g>
    <g id="XMLID_2537_" transform="translate(85.173 134.516)">
      <circle id="XMLID_2546_" cx="9.583" cy="9.583" r="9.583" fill="#ffbe56"/>
      <g id="XMLID_2538_" transform="translate(2.871 4.988)">
        <g id="XMLID_2544_" transform="translate(0.766 5.237)">
          <path id="XMLID_2545_" d="M100.7,144.716a5.946,5.946,0,1,1-11.892,0Z" transform="translate(-88.81 -144.716)" fill="#2a94f5"/>
        </g>
        <g id="XMLID_2539_">
          <g id="XMLID_2542_">
            <path id="XMLID_2543_" d="M92.839,142.822a.369.369,0,0,1-.362-.3c-.257-1.358-1.018-2.306-1.853-2.306s-1.6.948-1.849,2.3a.369.369,0,0,1-.725-.135c.324-1.739,1.358-2.907,2.574-2.907s2.249,1.168,2.577,2.906a.368.368,0,0,1-.294.43A.308.308,0,0,1,92.839,142.822Z" transform="translate(-88.044 -139.479)" fill="#30201d"/>
          </g>
          <g id="XMLID_2540_" transform="translate(8.261)">
            <path id="XMLID_2541_" d="M101.1,142.822a.369.369,0,0,1-.362-.3c-.257-1.358-1.019-2.306-1.853-2.306s-1.6.948-1.849,2.3a.369.369,0,0,1-.725-.135c.324-1.739,1.359-2.907,2.574-2.907s2.249,1.168,2.578,2.906a.368.368,0,0,1-.294.43A.336.336,0,0,1,101.1,142.822Z" transform="translate(-96.305 -139.479)" fill="#30201d"/>
          </g>
        </g>
      </g>
    </g>
    <circle id="XMLID_2602_" cx="9.583" cy="9.583" r="9.583" transform="translate(83.625 236.655)" fill="#ffbe56"/>
    <g id="XMLID_2594_" transform="translate(86.496 241.644)">
      <g id="XMLID_2600_" transform="translate(0.766 5.237)">
        <path id="XMLID_2601_" d="M99.154,246.821a5.946,5.946,0,0,1-11.892,0Z" transform="translate(-87.262 -246.821)" fill="#2a94f5"/>
      </g>
      <g id="XMLID_2595_">
        <g id="XMLID_2598_">
          <path id="XMLID_2599_" d="M91.291,244.927a.369.369,0,0,1-.362-.3c-.257-1.358-1.018-2.306-1.853-2.306s-1.6.948-1.849,2.3a.369.369,0,0,1-.725-.135c.324-1.739,1.358-2.907,2.574-2.907s2.249,1.168,2.577,2.906a.368.368,0,0,1-.294.43A.308.308,0,0,1,91.291,244.927Z" transform="translate(-86.496 -241.584)" fill="#30201d"/>
        </g>
        <g id="XMLID_2596_" transform="translate(8.261)">
          <path id="XMLID_2597_" d="M99.552,244.927a.369.369,0,0,1-.362-.3c-.257-1.358-1.019-2.306-1.853-2.306s-1.6.948-1.849,2.3a.369.369,0,0,1-.725-.135c.324-1.739,1.359-2.907,2.574-2.907s2.249,1.168,2.578,2.906a.368.368,0,0,1-.294.43A.336.336,0,0,1,99.552,244.927Z" transform="translate(-94.757 -241.584)" fill="#30201d"/>
        </g>
      </g>
    </g>
    <g id="XMLID_2558_" transform="translate(283.345 124.844)">
      <circle id="XMLID_2567_" cx="9.557" cy="9.557" r="9.557" fill="#ffbe56"/>
      <g id="XMLID_2559_" transform="translate(2.863 4.974)">
        <g id="XMLID_2565_" transform="translate(0.764 5.224)">
          <path id="XMLID_2566_" d="M298.759,135.02a5.93,5.93,0,1,1-11.86,0Z" transform="translate(-286.899 -135.02)" fill="#2a94f5"/>
        </g>
        <g id="XMLID_2560_">
          <g id="XMLID_2563_">
            <path id="XMLID_2564_" d="M290.917,133.131a.369.369,0,0,1-.361-.3c-.256-1.354-1.016-2.3-1.848-2.3s-1.592.945-1.844,2.3a.368.368,0,1,1-.723-.135c.323-1.734,1.355-2.9,2.567-2.9s2.243,1.165,2.57,2.9a.366.366,0,0,1-.293.429A.308.308,0,0,1,290.917,133.131Z" transform="translate(-286.135 -129.796)" fill="#30201d"/>
          </g>
          <g id="XMLID_2561_" transform="translate(8.238 0.001)">
            <path id="XMLID_2562_" d="M299.155,133.131a.369.369,0,0,1-.361-.3c-.256-1.354-1.016-2.3-1.848-2.3s-1.592.945-1.844,2.3a.368.368,0,1,1-.723-.135c.323-1.734,1.355-2.9,2.567-2.9s2.243,1.165,2.571,2.9a.366.366,0,0,1-.293.429A.4.4,0,0,1,299.155,133.131Z" transform="translate(-294.373 -129.797)" fill="#30201d"/>
          </g>
        </g>
      </g>
    </g>
    <path id="XMLID_2396_" d="M222.585,114.651H149.27a7.354,7.354,0,0,0-7.332,7.332v15.006a7.354,7.354,0,0,0,7.332,7.332h51.841l11.928,11.459-1.6-11.459h11.147a7.354,7.354,0,0,0,7.332-7.332V121.983A7.354,7.354,0,0,0,222.585,114.651Z" transform="translate(0.032)" fill="#2a94f5"/>
    <path id="XMLID_2394_" d="M172.055,123.248c-3.352-6.849-10.2,2.477-10.2,2.477s-6.849-9.326-10.2-2.477,10.2,15.009,10.2,15.009S175.406,130.1,172.055,123.248Z" transform="translate(0.029)" fill="#fff"/>
    <path id="XMLID_2530_" d="M293.5,331.859h73.316a7.353,7.353,0,0,1,7.331,7.331V354.2a7.353,7.353,0,0,1-7.331,7.331H314.973l-11.929,11.459,1.6-11.459H293.5a7.353,7.353,0,0,1-7.331-7.331V339.19A7.353,7.353,0,0,1,293.5,331.859Z" transform="translate(0.092 0.097)" fill="#2a94f5"/>
    <path id="XMLID_2528_" d="M316.284,340.456c-3.352-6.849-10.2,2.477-10.2,2.477s-6.849-9.326-10.2-2.477,10.2,15.009,10.2,15.009S319.635,347.3,316.284,340.456Z" transform="translate(0.078 0.093)" fill="#fff"/>
    <g id="Group_270" data-name="Group 270" transform="translate(174.102 97.252)">
      <path id="Path_494" data-name="Path 494" d="M323.492,236.775s-1.468-7.093.879-9,9.459-8.5,10.79-7.744,3.511,5.226,2.8,7.847-9.674,12.1-9.674,12.1Z" transform="translate(-173.984 -97.252)" fill="#d9935c"/>
      <g id="Group_269" data-name="Group 269" transform="translate(55.745 189.275)">
        <path id="Path_495" data-name="Path 495" d="M276.791,333.134c-.749,14.57-3.29,35.361-5.177,56.377H239.748c-.685-5.634-1.681-11.126-2.781-16.486-1.785-8.686-3.839-17.041-5.278-25.124-2.9-16.271-2.357-28.988.155-38.856a46.788,46.788,0,0,1,9.883-19.57c9.035-10.351,34.193,9.878,34.193,9.878S277.532,318.648,276.791,333.134Z" transform="translate(-229.729 -286.527)" fill="#0e538c"/>
      </g>
      <path id="Path_496" data-name="Path 496" d="M262.318,337.765s-.007.1-.022.3a320.748,320.748,0,0,1-8.531,51.44H239.749c-.685-5.634-1.681-11.126-2.781-16.486,2.388-14.054,4.658-25.216,4.658-25.216Z" transform="translate(-173.984 -97.252)" fill="#0d4871"/>
      <path id="Path_497" data-name="Path 497" d="M264.185,331.84c-.344,1.381-1.015,3.566-1.889,6.23-3.6,10.922-10.644,29.9-12.652,34.647-2.35,5.552-4.566,11.167-6.654,16.794H208.116c.719-13.529.9-41.618,1.548-49.1,2.621-30.071,8.311-33,8.311-33l13.87,1.628,32.321,3.793S269.471,310.543,264.185,331.84Z" transform="translate(-173.984 -97.252)" fill="#0e538c"/>
      <path id="Path_498" data-name="Path 498" d="M270.021,169.108c1.56-12.742-2.419-33.13-27.85-29.872s-33.445,28.251-28.316,39.363-7.383,13.793-11.311,25.743c-3.374,10.266-4.551,23.013-10.011,28.733-17.6,18.443,16.9,46.805,37.7,40.825,37.891-10.893,42.771-12.519,41.426-42.291-.689-15.254-12.557-21.164-5.022-25.577C284.843,195.371,266.49,197.939,270.021,169.108Z" transform="translate(-173.984 -97.252)" fill="#163560"/>
      <path id="Path_499" data-name="Path 499" d="M262.326,210.012l-7.544,11.3-15.132-.739-7-18.11s1.3-.239,2.37-11c.261-2.826.522-6.37.761-10.827a.03.03,0,0,1,0-.044c0-.369.022-.739.043-1.109l1.957.587,16.958,5.174s-.087.566-.2,1.544a38.169,38.169,0,0,0,.5,10.7C255.955,201.968,258,206.751,262.326,210.012Z" transform="translate(-173.984 -97.252)" fill="#d9935c"/>
      <path id="Path_500" data-name="Path 500" d="M262.376,201.822c-.973,0-17.488-3.361-45.378,3.774,0,0,15.275,69.981,10.086,83.172a139.353,139.353,0,0,0-7.161,24.9l56.292.7s-.787-45.273,1.808-61.3S262.376,201.822,262.376,201.822Z" transform="translate(-173.984 -97.252)" fill="#d9935c"/>
      <path id="Path_501" data-name="Path 501" d="M323.2,229.709s-17.98,24.394-21.154,24.154c-3.413-.282-11.979-30.59-18.458-41.765-4.542-7.8-20.187-10.132-21.209-10.276h0l-.05-.007.038.154c-.134,1.443-1.409,13.017-7.815,14.074-11.814,1.95-21.336-8.874-24.117-13.23,0,0-13.57,3.424-17.552,7.965-3.772,4.3,1.389,36.146,2.535,39.2.991,2.621,1.927,5.18,2.742,7.75a54.075,54.075,0,0,1,2.719,22.155c-.823,9.264-9.478,30.431-7.606,34.94,1.962,4.735,4.688,7.134,10.652,8.5,4.111.948,9.759,1.4,17.755,1.8,16.959.843,35.132-1.289,37.605-9.351,1.186-3.869.729-18.842.1-25.753-.825-9.085-.028-20.68.766-31.335l.114.176a.022.022,0,0,0,.022.022c1.826,2.8,3.935,5.8,6.088,8.609,3.261,4.2,6.653,7.871,9.544,9.566a7.763,7.763,0,0,0,2.022.848,13.6,13.6,0,0,0,9.327-1.631,14.131,14.131,0,0,0,1.783-1.2c10.653-8.457,20.132-34.873,20.132-34.873C330.2,234.058,323.2,229.709,323.2,229.709Z" transform="translate(-173.984 -97.252)" fill="#ffbe55"/>
      <path id="Path_502" data-name="Path 502" d="M213.269,314.822c1.962,4.735,4.688,7.134,10.652,8.5,7.972-1.533,13.23-16.2,15.937-23.422,3.12-8.32-9.719-47.337-14.205-46.947-3.335.289-6.518,4.918-6.627,7.7,2.157,6.783,2.6,10.74,1.848,19.223C220.052,289.145,211.4,310.313,213.269,314.822Z" transform="translate(-173.984 -97.252)" fill="#e7a329"/>
      <path id="Path_503" data-name="Path 503" d="M307.265,276.279a13.6,13.6,0,0,1-9.327,1.631,7.764,7.764,0,0,1-2.022-.848c-2.892-1.7-6.283-5.37-9.544-9.566-2.152-2.8-4.261-5.8-6.088-8.609.413-1.522,1.913-2.239,6.761,2.739,8.153,8.37,9.653,13.98,14.828,14.415C303.656,276.192,305.46,276.279,307.265,276.279Z" transform="translate(-173.984 -97.252)" fill="#e7a329"/>
      <path id="Path_504" data-name="Path 504" d="M255.042,197.489c-5.37,1.478-18.48-15.806-19.263-16.85l-.044-.044h.044l2-.522,16.958,5.174s-.087.566-.2,1.544A38.261,38.261,0,0,0,255.042,197.489Z" transform="translate(-173.984 -97.252)" fill="#cc7c46"/>
      <path id="Path_505" data-name="Path 505" d="M259.681,186.541s-22.652,4.549-25.267-9.6-7.3-23.092,7.051-26.6,18.168,1.376,20.19,5.886S265.505,184.993,259.681,186.541Z" transform="translate(-173.984 -97.252)" fill="#d9935c"/>
      <path id="Path_506" data-name="Path 506" d="M261.939,147.811c-11.174-11.012-20.95-4.557-18.52-1.611-4.031-.069-9.559.772-13.391,5.083-6.7,7.535,5.533,33.085,5.533,33.085s-1.452-16.469,6-24.613a31.071,31.071,0,0,0,6.2-9.205,15.778,15.778,0,0,0,4.526,2.617c7.208,2.529,11.168,14.125,11.168,14.125C266.026,161.881,266.753,152.555,261.939,147.811Z" transform="translate(-173.984 -97.252)" fill="#163560"/>
      <path id="Path_507" data-name="Path 507" d="M235.351,292.29l5.048,2.433c2.234.656,3.107,1.263,4.448,1.113a14.99,14.99,0,0,1,14.293,6.155s2.286,3.747-.959,4.134-2.091-.2-6.646.443-9.145-3.662-10.572-5.216l-5.287-1.937Z" transform="translate(-173.984 -97.252)" fill="#d9935c"/>
      <path id="Path_508" data-name="Path 508" d="M230.429,202.813s-13.389.53-19.6,6.307c-7.021,6.533-19.609,46.156-19.609,71.039,0,0-.253,13.706,47.432,22.94a13.861,13.861,0,0,0,3.142-3.722,14.2,14.2,0,0,0,1.517-5.462s-27.962-15.859-28.968-20.851C213.005,266.4,232.146,240.456,230.429,202.813Z" transform="translate(-173.984 -97.252)" fill="#ffbe55"/>
      <path id="Path_509" data-name="Path 509" d="M380.665,203.109a463.189,463.189,0,0,0-86.7-7.242L291.229,183l-3-14.1s49.331-11.966,81.651-34.82Z" transform="translate(-173.984 -97.252)" fill="#4f80ff"/>
      <path id="Path_510" data-name="Path 510" d="M380.665,203.109h0a6.012,6.012,0,0,0,5.3-7.02l-10.637-58.94c-.515-2.856-2.587-3.761-5.441-3.068Z" transform="translate(-173.984 -97.252)" fill="#ffbe55"/>
      <path id="Path_511" data-name="Path 511" d="M334.825,197.251a430.346,430.346,0,0,1,45.841,5.858s-44.92-21.574-89.435-20.11l2.732,12.868c8.369-.113,16.494.042,24.2.373-.014.237-.02.477-.013.719l1.165,40.578a8.355,8.355,0,0,0,8.566,8.088h0a8.355,8.355,0,0,0,8.088-8.566Z" transform="translate(-173.984 -97.252)" fill="#0c538e"/>
      <path id="Path_512" data-name="Path 512" d="M306.968,195.9l-12.773.1c.188.039-11.909.346-13.959-10.788a8.649,8.649,0,0,1-.35-2.387c-.754-13.573,6.758-14.775,6.758-14.775l17.028-3.573,1.978,18.988-.013.063Z" transform="translate(-173.984 -97.252)" fill="#ffbe55"/>
      <path id="Path_513" data-name="Path 513" d="M306.968,195.9l-12.773.1c.188.039-11.909.346-13.959-10.788,7.893-3.964,25.413-1.747,25.413-1.747l-.013.063Z" transform="translate(-173.984 -97.252)" fill="#e7a329"/>
      <rect id="Rectangle_62" data-name="Rectangle 62" width="245.13" height="251.212" fill="none"/>
    </g>
  </g>
</svg>
