<?xml version="1.0" encoding="iso-8859-1"?>
<!-- Generator: Adobe Illustrator 19.0.0, SVG Export Plug-In . SVG Version: 6.00 Build 0)  -->
<svg version="1.1" id="Layer_1" xmlns="http://www.w3.org/2000/svg" xmlns:xlink="http://www.w3.org/1999/xlink" x="0px" y="0px"
	 viewBox="0 0 512.001 512.001" style="enable-background:new 0 0 512.001 512.001;" xml:space="preserve">
<path style="fill:#5B5D6E;" d="M254.131,281.71l-78.006-21.274h-71L27.119,281.71C15.536,284.87,7.5,295.391,7.5,307.397v183.789
	h266.25V307.397C273.75,295.391,265.714,284.87,254.131,281.71z"/>
<path style="fill:#D5DCED;" d="M176.125,260.436h-71l-25.941,7.075c2.686,24.895,14.443,110.973,53.737,176.197
	c3.511,5.828,11.897,5.828,15.408,0c39.294-65.224,51.051-151.302,53.737-176.197L176.125,260.436z"/>
<path style="fill:#E6AF78;" d="M96.25,229.374v31.063c0,24.508,19.867,44.375,44.375,44.375S185,284.944,185,260.436v-31.063
	L96.25,229.374L96.25,229.374z"/>
<path style="fill:#D29B6E;" d="M96.25,259.535c13.523,6.215,28.517,9.776,44.375,9.776s30.852-3.561,44.375-9.776v-30.161H96.25
	V259.535z"/>
<path style="fill:#FF507D;" d="M140.625,455.686c8.051-11.714,15.039-24.369,21.184-37.375L149.5,287.061h-17.75l-12.309,131.25
	C125.586,431.317,132.574,443.972,140.625,455.686z"/>
<path style="fill:#D23C69;" d="M149.5,331.436h-17.75c-4.902,0-8.875-3.973-8.875-8.875v-17.75c0-4.902,3.973-8.875,8.875-8.875
	h17.75c4.902,0,8.875,3.973,8.875,8.875v17.75C158.375,327.463,154.402,331.436,149.5,331.436z"/>
<path style="fill:#D29B6E;" d="M96.25,249.688c13.329,6.837,28.394,10.748,44.375,10.748s31.046-3.911,44.375-10.748v-20.314H96.25
	V249.688z"/>
<path style="fill:#F0C087;" d="M220.5,127.311v-53.25H60.75v53.25c-9.803,0-17.75,7.947-17.75,17.75s7.947,17.75,17.75,17.75
	c0,44.114,35.761,79.875,79.875,79.875s79.875-35.761,79.875-79.875c9.803,0,17.75-7.947,17.75-17.75S230.303,127.311,220.5,127.311
	z"/>
<path style="fill:#E6AF78;" d="M105.125,162.811v-88.75H60.75v53.25c-9.803,0-17.75,7.947-17.75,17.75s7.947,17.75,17.75,17.75
	c0,44.114,35.761,79.875,79.875,79.875c7.708,0,15.136-1.151,22.188-3.188C129.506,229.875,105.125,199.217,105.125,162.811z"/>
<path style="fill:#785546;" d="M199.079,114.152c1.54,8.795,9.991,14.704,18.818,13.356c0.848-0.129,1.717-0.197,2.603-0.197
	c3.25,0,6.255,0.937,8.875,2.462V74.061c0-13.278-7.376-24.717-18.171-30.805C209.186,30.551,198.273,20.811,185,20.811h-71
	c-34.311,0-62.125,27.814-62.125,62.125v46.837c2.62-1.525,5.625-2.462,8.875-2.462c1.242,0,2.449,0.131,3.612,0.381
	c8.541,1.833,17.034-3.206,19.18-11.674l0,0l2.182-8.73c0.965-3.858,4.347-6.609,8.322-6.717
	c18.49-0.499,70.926-3.185,99.828-17.636l5.167,31.003C199.054,114.01,199.066,114.081,199.079,114.152z"/>
<path style="fill:#64463C;" d="M105.125,74.061c0-29.409,23.841-53.25,53.25-53.25H114c-34.31,0-62.125,27.814-62.125,62.125v46.837
	c2.62-1.525,5.625-2.462,8.875-2.462c1.141,0,2.253,0.111,3.329,0.323c8.644,1.701,17.299-3.076,19.463-11.615l2.182-8.73
	c0.964-3.858,4.346-6.609,8.322-6.717c2.913-0.079,6.704-0.216,11.078-0.441L105.125,74.061L105.125,74.061z"/>
<g>
	<path style="fill:#464655;" d="M7.5,307.397v183.79h44.375v-142L14.42,289.619C10.118,294.39,7.5,300.629,7.5,307.397z"/>
	<path style="fill:#464655;" d="M273.75,307.397v183.79h-44.375v-142l37.455-59.567C271.132,294.39,273.75,300.629,273.75,307.397z"
		/>
</g>
<g>
	<path style="fill:#E4EAF8;" d="M114,322.561l26.625-35.5L96.25,260.436l-17.066,7.075c0.778,7.214,2.362,19.677,5.113,35.168
		L114,322.561z"/>
	<path style="fill:#E4EAF8;" d="M167.25,322.561l-26.625-35.5L185,260.436l17.066,7.075c-0.778,7.214-2.362,19.677-5.113,35.168
		L167.25,322.561z"/>
</g>
<path style="fill:#D59F63;" d="M380.25,56.311L380.25,56.311c-53.917,0-97.625,43.708-97.625,97.625v26.625H327l97.625,35.5
	c29.409,0,53.25-23.841,53.25-53.25v-8.875C477.875,100.019,434.167,56.311,380.25,56.311z"/>
<path style="fill:#CD915A;" d="M403.524,59.221c-7.471-1.831-15.238-2.909-23.274-2.909c-53.917,0-97.625,43.708-97.625,97.625
	v26.625h62.125v-44.375C344.75,99.389,369.667,68.486,403.524,59.221z"/>
<polygon style="fill:#D5DCED;" points="451.25,233.811 309.25,233.811 282.625,348.354 477.875,348.354 "/>
<path style="fill:#FAD7A5;" d="M487.763,342.492l-60.856-24.342c-6.739-2.696-11.158-9.222-11.158-16.48v-32.358h-71v32.358
	c0,7.258-4.419,13.785-11.158,16.48l-60.856,24.342C262.628,346.535,256,356.325,256,367.212v35.224
	c0,4.902,3.973,8.875,8.875,8.875l0,0v79.875h230.75v-79.875l0,0c4.902,0,8.875-3.973,8.875-8.875v-35.224
	C504.5,356.325,497.872,346.535,487.763,342.492z"/>
<path style="fill:#F0C891;" d="M380.25,313.686c12.81,0,25.035-2.378,36.41-6.523c-0.572-1.749-0.91-3.589-0.91-5.494v-32.358h-71
	v32.358c0,1.906-0.338,3.745-0.91,5.494C355.215,311.308,367.44,313.686,380.25,313.686z"/>
<path style="fill:#FFE1B4;" d="M380.25,287.061L380.25,287.061c-44.114,0-79.875-35.761-79.875-79.875v-35.5
	c25.533,0,37.293-18.364,41.883-28.676c1.385-3.112,5.248-4.122,7.968-2.07c37.601,28.368,109.9,7.141,109.9,66.246l0,0
	C460.125,251.3,424.364,287.061,380.25,287.061z"/>
<path style="fill:#E4EAF8;" d="M487.763,342.492l-20.121-8.048c-19.958,19.671-51.597,32.493-87.411,32.493
	c-35.816,0-67.545-12.769-87.503-32.441l-19.991,7.996C262.628,346.535,256,356.325,256,367.212v44.099h44.375v79.875h159.75
	v-79.875H504.5v-44.1C504.5,356.325,497.872,346.535,487.763,342.492z"/>
<g>
	<path style="fill:#D5DCED;" d="M300.375,400.914c0-4.708-1.87-9.222-5.199-12.551l-35.138-35.138
		c-2.553,4.123-4.038,8.922-4.038,13.988v44.099h44.375V400.914z"/>
	<path style="fill:#D5DCED;" d="M460.125,400.914c0-4.708,1.87-9.222,5.199-12.551l35.138-35.138
		c2.553,4.123,4.038,8.922,4.038,13.988v44.099h-44.375V400.914z"/>
</g>
<circle style="fill:#D5DCED;" cx="362.5" cy="56.309" r="17.75"/>
<circle style="fill:#E4EAF8;" cx="327" cy="74.059" r="26.625"/>
<path style="fill:#FAD098;" d="M344.75,207.186v-66.638c-1.038,0.524-1.967,1.284-2.492,2.462
	c-4.59,10.312-16.35,28.676-41.883,28.676v0.001c-9.802,0-17.75,7.947-17.75,17.75s7.948,17.75,17.75,17.75h0.114
	c1.184,35.562,24.433,67.608,58.902,77.04c15.247,4.173,29.81,3.471,43.047-0.353C369.13,274.25,344.75,243.592,344.75,207.186z"/>
<path d="M140.625,205.811c8.977,0,17.57-4.247,23.575-11.65c2.609-3.217,2.116-7.94-1.101-10.55
	c-3.216-2.608-7.939-2.117-10.549,1.101c-3.19,3.934-7.425,6.1-11.925,6.1s-8.735-2.166-11.925-6.1
	c-2.609-3.217-7.333-3.709-10.549-1.101c-3.217,2.609-3.71,7.333-1.101,10.55C123.055,201.565,131.648,205.811,140.625,205.811z"/>
<path d="M105.125,161.436c4.142,0,7.5-3.358,7.5-7.5v-8.875c0-4.142-3.358-7.5-7.5-7.5s-7.5,3.358-7.5,7.5v8.875
	C97.625,158.078,100.983,161.436,105.125,161.436z"/>
<path d="M176.125,161.436c4.142,0,7.5-3.358,7.5-7.5v-8.875c0-4.142-3.358-7.5-7.5-7.5s-7.5,3.358-7.5,7.5v8.875
	C168.625,158.078,171.983,161.436,176.125,161.436z"/>
<path d="M51.875,341.686c-4.142,0-7.5,3.358-7.5,7.5v142c0,4.142,3.358,7.5,7.5,7.5s7.5-3.358,7.5-7.5v-142
	C59.375,345.044,56.017,341.686,51.875,341.686z"/>
<path d="M229.375,341.686c-4.142,0-7.5,3.358-7.5,7.5v142c0,4.142,3.358,7.5,7.5,7.5s7.5-3.358,7.5-7.5v-142
	C236.875,345.044,233.517,341.686,229.375,341.686z"/>
<path d="M380.25,250.186c8.977,0,17.57-4.247,23.575-11.65c2.609-3.217,2.116-7.94-1.101-10.55
	c-3.216-2.608-7.94-2.117-10.549,1.101c-3.19,3.934-7.425,6.1-11.925,6.1s-8.735-2.166-11.925-6.1
	c-2.609-3.217-7.333-3.709-10.549-1.101c-3.217,2.609-3.71,7.333-1.101,10.55C362.68,245.94,371.273,250.186,380.25,250.186z"/>
<path d="M344.75,205.811c4.142,0,7.5-3.358,7.5-7.5v-8.875c0-4.142-3.358-7.5-7.5-7.5s-7.5,3.358-7.5,7.5v8.875
	C337.25,202.453,340.608,205.811,344.75,205.811z"/>
<path d="M415.75,205.811c4.142,0,7.5-3.358,7.5-7.5v-8.875c0-4.142-3.358-7.5-7.5-7.5s-7.5,3.358-7.5,7.5v8.875
	C408.25,202.453,411.608,205.811,415.75,205.811z"/>
<path d="M490.549,335.528l-6.239-2.496l-25.163-88.333c2.753-5.77,4.89-11.837,6.312-18.103c1.437-6.332,2.166-12.863,2.166-19.411
	c0-43.685-31.643-49.967-62.243-56.042c-19.57-3.885-39.806-7.902-55.947-20.814c-1.766-1.413-4.077-1.948-6.286-1.466
	s-4.085,1.939-5.103,3.959c-0.042,0.083-4.244,8.355-11.351,16.41c-6.019,6.822-15.472,14.954-26.321,14.954
	c-3.648,0-7.115,0.784-10.25,2.183v-12.433c0-18.784,5.926-37.127,16.766-52.328c5.644,4.131,12.594,6.578,20.109,6.578
	c17.069,0,31.25-12.598,33.737-28.983c3.235,1.51,6.839,2.358,10.638,2.358c10.854,0,20.128-6.884,23.691-16.515
	c19.751,3.269,37.87,13.023,51.57,27.935c15.309,16.663,23.739,38.311,23.739,60.955v17.75c0,4.142,3.358,7.5,7.5,7.5
	s7.5-3.358,7.5-7.5v-17.75c0-26.414-9.835-51.665-27.693-71.104c-16.369-17.817-38.154-29.33-61.861-32.854
	c-2.817-10.868-12.709-18.917-24.445-18.917c-10.671,0-19.81,6.657-23.5,16.033c-5.775-4.48-13.016-7.158-20.875-7.158
	c-18.816,0-34.125,15.309-34.125,34.125c0,5.748,1.434,11.164,3.955,15.921c-14.015,18.276-21.705,40.833-21.705,63.954v35.5
	c0,11.398,7.592,21.057,17.985,24.185c0.32,4.379,0.965,8.723,1.931,12.977c1.422,6.265,3.558,12.333,6.312,18.102l-25.163,88.333
	l-6.238,2.496c-13.031,5.212-21.451,17.649-21.451,31.684v44.104c0,1.99,0.791,3.898,2.198,5.305
	c1.407,1.406,3.314,2.195,5.302,2.195c0.001,0,0.002,0,0.003,0h1.372v72.372c0,4.142,3.358,7.5,7.5,7.5s7.5-3.358,7.5-7.5v-72.375
	h20.5v72.375c0,4.142,3.358,7.5,7.5,7.5s7.5-3.358,7.5-7.5v-93.19c0-10.684-5.103-20.89-13.65-27.3l-24.03-18.022
	c1.56-1.328,3.344-2.428,5.327-3.222l12.118-4.847c19.442,18.442,54.652,29.829,92.645,29.829c38.222,0,73.149-11.337,92.62-29.811
	l12.073,4.829c1.983,0.793,3.768,1.894,5.327,3.221l-24.03,18.023c-8.547,6.41-13.65,16.616-13.65,27.3v93.188
	c0,4.142,3.358,7.5,7.5,7.5s7.5-3.358,7.5-7.5v-72.375h20.5v72.375c0,4.142,3.358,7.5,7.5,7.5s7.5-3.358,7.5-7.5v-72.375h1.375
	c1.989,0,3.897-0.79,5.303-2.196c1.407-1.407,2.197-3.314,2.197-5.304v-44.1C512,353.177,503.58,340.741,490.549,335.528z
	 M371.375,46.061c5.652,0,10.25,4.598,10.25,10.25s-4.598,10.25-10.25,10.25s-10.25-4.598-10.25-10.25
	S365.723,46.061,371.375,46.061z M327,54.936c10.545,0,19.125,8.579,19.125,19.125S337.545,93.186,327,93.186
	s-19.125-8.579-19.125-19.125S316.455,54.936,327,54.936z M466.709,325.992l-37.015-14.806c-3.914-1.566-6.443-5.301-6.443-9.517
	v-18.433c4.164-2.35,8.147-5.039,11.89-8.064c4.919-3.976,9.363-8.472,13.283-13.368L466.709,325.992z M290.125,189.436
	c0-5.652,4.598-10.25,10.25-10.25c22.743,0,39.239-20.594,46.688-32.116c17.491,11.262,37.496,15.233,55.398,18.787
	c32.963,6.544,50.164,11.355,50.164,41.329c0,5.433-0.604,10.847-1.793,16.092c-3.57,15.733-12.492,30.02-25.121,40.228
	c-12.995,10.504-28.715,16.056-45.461,16.056s-32.466-5.552-45.461-16.056c-12.629-10.208-21.55-24.494-25.121-40.228
	c-1.19-5.245-1.793-10.659-1.793-16.092c0-4.142-3.358-7.5-7.5-7.5C294.723,199.686,290.125,195.088,290.125,189.436z
	 M312.077,261.803c3.92,4.896,8.365,9.393,13.283,13.368c3.743,3.026,7.726,5.715,11.89,8.064v18.433
	c0,4.216-2.529,7.951-6.443,9.517l-37.015,14.806L312.077,261.803z M292.875,397.999v5.813l-29.375,0.001v-36.601
	c0-0.263,0.019-0.523,0.029-0.785l21.696,16.272C290.015,386.292,292.875,392.011,292.875,397.999z M380.286,359.436
	c-30.889,0-59.341-7.954-76.892-21.129l32.985-13.194c9.642-3.857,15.872-13.06,15.872-23.444v-11.745
	c8.97,3.034,18.432,4.638,28,4.638s19.03-1.604,28-4.638v11.745c0,10.385,6.23,19.587,15.873,23.444l33.006,13.202
	C439.625,351.349,410.872,359.436,380.286,359.436z M467.625,397.999c0-5.987,2.86-11.707,7.65-15.3l21.696-16.272
	c0.01,0.262,0.029,0.521,0.029,0.785v36.6h-29.375V397.999z"/>
<path d="M269.926,281.48c-3.765-3.383-8.137-5.838-12.995-7.295L192.5,254.856v-21.805c19.895-14.732,33.355-37.684,35.266-63.806
	c10.392-3.128,17.984-12.786,17.984-24.185c0-7.378-3.316-14.371-8.875-19.125V74.061c0-14.223-7.202-27.525-19.008-35.496
	C213.921,23.737,200.621,13.311,185,13.311h-71c-38.392,0-69.625,31.233-69.625,69.625v43c-5.559,4.754-8.875,11.747-8.875,19.125
	c0,11.398,7.592,21.057,17.984,24.185c1.911,26.122,15.37,49.073,35.266,63.806v21.805l-64.43,19.329
	C9.773,278.549,0,291.684,0,306.871v184.315c0,4.142,3.358,7.5,7.5,7.5s7.5-3.358,7.5-7.5V306.871
	c0-8.511,5.478-15.873,13.63-18.319l43.138-12.941c1.609,11.395,6.104,39.53,15.434,74.404
	c11.093,41.459,31.402,100.383,65.161,145.654c1.472,1.975,3.731,3.017,6.018,3.017c1.559,0,3.132-0.484,4.478-1.488
	c3.32-2.476,4.005-7.175,1.529-10.496c-6.318-8.473-12.153-17.477-17.553-26.808c47.464-66.055,60.245-159.957,62.839-184.227
	l42.948,12.884c2.723,0.817,5.172,2.191,7.28,4.085c1.433,1.288,3.225,1.921,5.01,1.921c2.054,0,4.1-0.839,5.581-2.487
	C273.26,288.99,273.007,284.249,269.926,281.48z M195.031,271.276c-0.431,4.246-1.494,13.559-3.581,26.167l-22.457,14.943
	l-17.379-23.171l34.404-20.642L195.031,271.276z M140.625,278.315L103.75,256.19v-14.186c11.211,5.241,23.704,8.182,36.875,8.182
	s25.664-2.94,36.875-8.182v14.186L140.625,278.315z M150.875,313.228v9.333c0,0.758-0.617,1.375-1.375,1.375h-17.75
	c-0.758,0-1.375-0.617-1.375-1.375v-9.333l10.25-13.667L150.875,313.228z M68.25,162.811c0-4.189-3.435-7.576-7.642-7.499
	c-3.387,0.063-6.655-1.428-8.394-4.335c-3.389-5.667-1.498-11.853,3.433-14.722c0.007-0.004,0.013-0.008,0.02-0.012
	c1.495-0.878,3.158-1.433,4.892-1.433H78.5c3.228,0,6.094-2.065,7.115-5.128l7.189-21.569c17.573-0.387,72.829-2.841,104.111-18.313
	c3.474-1.719,5.344-5.736,4.026-9.381c-1.556-4.307-6.447-6.178-10.421-4.191C157.03,92.973,88.066,93.186,87.374,93.186
	c-3.228,0.001-6.094,2.066-7.114,5.128l-7.166,21.497H59.375V82.936c0-30.168,24.457-54.625,54.625-54.625h71
	c9.471,0,17.42,6.871,18.825,16.31c0.329,2.21,1.771,4.081,3.716,5.18c8.842,4.998,14.333,14.291,14.333,24.26v55.712
	c0,2.7,1.476,5.149,3.799,6.524c4.839,2.865,6.704,8.942,3.441,14.546c-1.733,2.975-5.031,4.533-8.473,4.469
	c-4.207-0.078-7.642,3.309-7.642,7.499c0,39.908-32.467,72.375-72.375,72.375S68.25,202.719,68.25,162.811z M86.317,271.247
	l8.916-2.675l34.403,20.642l-17.379,23.171l-21.47-14.307C88.33,285.176,86.926,275.688,86.317,271.247z M115.461,390.462
	c-9.162-25.903-15.75-50.911-20.346-71.477l14.725,9.816c1.276,0.851,2.722,1.26,4.155,1.26c1.004,0,1.997-0.213,2.924-0.604
	c1.397,2.991,3.666,5.486,6.484,7.166L115.461,390.462z M138.79,445.159c-4.453-8.659-8.558-17.504-12.342-26.397l11.776-79.826
	h4.801l11.614,78.698C149.906,427.135,144.642,436.393,138.79,445.159z M166.017,391.987l-8.17-55.363
	c2.819-1.68,5.088-4.175,6.484-7.166c0.927,0.391,1.92,0.604,2.924,0.604c1.433,0,2.879-0.41,4.155-1.26l16.217-10.811
	C183.176,339.537,176.334,365.827,166.017,391.987z"/>
<g>
</g>
<g>
</g>
<g>
</g>
<g>
</g>
<g>
</g>
<g>
</g>
<g>
</g>
<g>
</g>
<g>
</g>
<g>
</g>
<g>
</g>
<g>
</g>
<g>
</g>
<g>
</g>
<g>
</g>
</svg>
