<svg height="512" viewBox="0 0 512 512" width="512" xmlns="http://www.w3.org/2000/svg"><g id="Filled_outline" data-name="Filled outline"><path d="m374.4 43.2a48 48 0 0 1 9.6 28.8v37.088a26.342 26.342 0 0 0 7.716 18.628 28.284 28.284 0 0 1 8.284 20 28.284 28.284 0 0 1 -28.284 28.284h-103.432a28.284 28.284 0 0 1 -28.284-28.284 28.284 28.284 0 0 1 8.284-20 26.342 26.342 0 0 0 7.716-18.628v-37.088a48 48 0 0 1 9.6-28.8 47.992 47.992 0 0 1 38.4-19.2h32a47.992 47.992 0 0 1 38.4 19.2z" fill="#bfbfbd"/><path d="m368 120a48 48 0 0 1 -48 48 48.526 48.526 0 0 1 -10.86-1.23 48.045 48.045 0 0 1 -37.14-46.77v-40a51.766 51.766 0 0 0 46.31-28.62l1.69-3.38c.72 0 1.44.03 2.15.09a27.109 27.109 0 0 1 24.96 26.96 27.711 27.711 0 0 1 -.37 4.51l-1.67 10.04a26.1 26.1 0 0 0 17.63 29.11 41.53 41.53 0 0 0 5.3 1.29z" fill="#fec9a3"/><path d="m368 120a48 48 0 0 1 -48 48 48.526 48.526 0 0 1 -10.86-1.23 71.76 71.76 0 0 0 22.01-51.81v-32a71.566 71.566 0 0 0 -9-34.87 27.109 27.109 0 0 1 24.96 26.96 27.711 27.711 0 0 1 -.37 4.51l-1.67 10.04a26.1 26.1 0 0 0 17.63 29.11 41.53 41.53 0 0 0 5.3 1.29z" fill="#fec093"/><path d="m392 208v136h-136v-136a32 32 0 0 1 32-32h72a31.981 31.981 0 0 1 32 32z" fill="#d3669a"/><path d="m392 208v136h-136v-65.52a341.163 341.163 0 0 0 117.37-99.56 32.01 32.01 0 0 1 18.63 29.08z" fill="#cc6395"/><path d="m240 72v32a47.979 47.979 0 0 1 -47 47.98c-.33.02-.67.02-1 .02a48 48 0 0 1 -48-48v-32a48 48 0 0 1 96 0z" fill="#fec9a3"/><path d="m240 72v32a47.979 47.979 0 0 1 -47 47.98 71.556 71.556 0 0 0 12.15-40.02v-32a71.775 71.775 0 0 0 -21.09-50.91q-1.86-1.86-3.86-3.59a48.018 48.018 0 0 1 59.8 46.54z" fill="#fec093"/><path d="m144 104 14.472 14.472a18.7 18.7 0 0 0 21.58 3.5 18.7 18.7 0 0 1 8.361-1.972h7.174a18.7 18.7 0 0 1 8.361 1.974 18.7 18.7 0 0 0 21.58-3.5l14.472-14.474v40a32 32 0 0 1 -32 32h-32a32 32 0 0 1 -32-32z" fill="#92563a"/><path d="m144 73.114a17.114 17.114 0 0 1 17.114-17.114h2.846a17.113 17.113 0 0 1 7.653 1.807l8.774 4.386a17.113 17.113 0 0 0 7.653 1.807h8.588a17.1 17.1 0 0 0 6.492-1.279l13.28-5.442a17.1 17.1 0 0 1 6.486-1.279 17.114 17.114 0 0 1 17.114 17.114v-14.692a34.423 34.423 0 0 0 -15.328-28.641 34.428 34.428 0 0 0 -19.094-5.781h-27.156a34.428 34.428 0 0 0 -19.094 5.781 34.423 34.423 0 0 0 -15.328 28.641z" fill="#92563a"/><path d="m256 208v136h-136v-136a32 32 0 0 1 32-32h72a31.958 31.958 0 0 1 32 32z" fill="#f35244"/><path d="m256 208v136h-136v-86.2a342.532 342.532 0 0 0 115.17-79.8 32.027 32.027 0 0 1 20.83 30z" fill="#e64d40"/><path d="m120 344h136v144h-136z" fill="#f35244"/><path d="m152 304v136h-88v-112h-40v-24a40 40 0 0 1 40-40h48a40.03 40.03 0 0 1 40 40z" fill="#348fd9"/><path d="m152 304v136h-88v-95.09c26.14-17.14 51.16-40.48 73.99-71.3a39.849 39.849 0 0 1 14.01 30.39z" fill="#3086cd"/><path d="m64 440h88v48h-88z" fill="#7a432a"/><path d="m144 408h-88a32 32 0 0 1 -32-32v-48h48v40h48l24-8z" fill="#fec9a3"/><path d="m480 488h-128v-208h96l3.25 26.02 12.75 101.98z" fill="#7eb457"/><path d="m480 488h-128v-98.21c35.96-16.38 70.18-43.14 99.25-83.77l12.75 101.98z" fill="#79ad54"/><path d="m352 280a0 0 0 0 1 0 0v104a0 0 0 0 1 0 0h-40a0 0 0 0 1 0 0v-64a40 40 0 0 1 40-40z" fill="#feb784"/><path d="m448 280v88h-64v40h72a32 32 0 0 0 32-32v-56a40 40 0 0 0 -40-40z" fill="#feb784"/><path d="m152 208v24a48 48 0 0 1 -48 48c-.73 0-1.46-.02-2.18-.05a48 48 0 0 1 -45.82-47.95v-24a48 48 0 0 1 48-48q2.115 0 4.17.18a48.007 48.007 0 0 1 43.83 47.82z" fill="#fec9a3"/><path d="m152 208v24a48 48 0 0 1 -48 48c-.73 0-1.46-.02-2.18-.05a71.713 71.713 0 0 0 18.33-47.99v-32a71.629 71.629 0 0 0 -11.98-39.78 48.007 48.007 0 0 1 43.83 47.82z" fill="#fec093"/><path d="m56 208v-16a24 24 0 0 1 24-24z" fill="#804a32"/><path d="m152 184v24l-32-24h-40a24 24 0 0 1 -24-24v-8h64a32 32 0 0 1 32 32z" fill="#92563a"/><path d="m456 184h-24v32h24v32a32 32 0 0 0 32 32v-64a32 32 0 0 0 -32-32z" fill="#f7a116"/><path d="m456 224v24a47.994 47.994 0 0 1 -42.93 47.73 47.278 47.278 0 0 1 -5.07.27 48 48 0 0 1 -48-48v-24a48 48 0 0 1 48-48c1.17 0 2.33.04 3.48.13a48 48 0 0 1 44.52 47.87z" fill="#fec9a3"/><path d="m456 224v24a47.994 47.994 0 0 1 -42.93 47.73 71.664 71.664 0 0 0 14.08-42.77v-32a71.642 71.642 0 0 0 -15.67-44.83 48 48 0 0 1 44.52 47.87z" fill="#fec093"/><path d="m360 232s40 0 64-32c0 0 8 24 32 32v-16a48 48 0 0 0 -48-48 48 48 0 0 0 -48 48z" fill="#ffb531"/><path d="m360 368h32v88h-32z" fill="#fec9a3"/><path d="m40 256h8a16 16 0 0 1 16 16v16a0 0 0 0 1 0 0h-40a0 0 0 0 1 0 0v-16a16 16 0 0 1 16-16z" fill="#fec9a3"/><path d="m272 488h-144l13.16-65.82 2.84-14.18v-40a32 32 0 0 1 32-32h48a31.9 31.9 0 0 1 22.63 9.37c.54.54 1.05 1.09 1.55 1.67a31.867 31.867 0 0 1 7.82 20.96v40z" fill="#f59898"/><path d="m272 488h-144l13.16-65.82c38-13.93 74.77-37.85 107.02-75.14a31.867 31.867 0 0 1 7.82 20.96v40z" fill="#ed9191"/><path d="m152 456h32l-8-80h-32z" fill="#fec9a3"/><path d="m248 456h-32l8-80h32z" fill="#feb784"/><path d="m120 328v-48a32 32 0 0 1 32-32h24v32h-24v16a32 32 0 0 1 -32 32z" fill="#f57707"/><path d="m248 272v16a48 48 0 0 1 -96 0v-16a48 48 0 0 1 48-48 48 48 0 0 1 48 48z" fill="#fec9a3"/><path d="m248 272v16a48.026 48.026 0 0 1 -32 45.27 71.681 71.681 0 0 0 7.15-31.31v-32a71.7 71.7 0 0 0 -16.16-45.45 48.009 48.009 0 0 1 41.01 47.49z" fill="#fec093"/><path d="m248 272h-7.015a42.246 42.246 0 0 1 -40.985-32 42.246 42.246 0 0 1 -40.985 32h-7.015v-8a48 48 0 0 1 48-48 48 48 0 0 1 48 48z" fill="#f98500"/><path d="m368 248v16a48 48 0 0 1 -44.61 47.88q-1.68.12-3.39.12a48 48 0 0 1 -48-48v-16a48 48 0 0 1 48-48 46.162 46.162 0 0 1 4.87.25 48 48 0 0 1 43.13 47.75z" fill="#fec9a3"/><path d="m368 248v16a48 48 0 0 1 -44.61 47.88 71.6 71.6 0 0 0 12.76-40.92v-32a71.676 71.676 0 0 0 -11.28-38.71 48 48 0 0 1 43.13 47.75z" fill="#fec093"/><path d="m344 208s-8 32 24 40a48 48 0 0 0 -48-48 48 48 0 0 0 -47.322 39.991c6.387-.124 56.354-2.056 71.322-31.991z" fill="#92563a"/><path d="m392 344v24h-32v48h-80v-48h-32v-24a32 32 0 0 1 32-32h80a31.95 31.95 0 0 1 32 32z" fill="#348fd9"/><path d="m392 344v24h-32v48h-80v-32.87c32.93-14.45 64.48-36.6 92.44-68.63a32.033 32.033 0 0 1 19.56 29.5z" fill="#3086cd"/><path d="m280 416h80v72h-80z" fill="#7a432a"/><path d="m248 368h32v88h-32z" fill="#fec9a3"/><path d="m296 96h16v16h-16z"/><path d="m168 88h16v16h-16z"/><path d="m200 88h16v16h-16z"/><path d="m80 216h16v16h-16z"/><path d="m112 216h16v16h-16z"/><path d="m496 280v-64a39.991 39.991 0 0 0 -40-40h-8.836a56.041 56.041 0 0 0 -39.164-16c-.722 0-1.442.022-2.161.05a36.284 36.284 0 0 0 -8.466-37.991 18.223 18.223 0 0 1 -5.373-12.971v-37.088a56.35 56.35 0 0 0 -11.2-33.6l-.026-.035a56.264 56.264 0 0 0 -44.774-22.365h-32a56.264 56.264 0 0 0 -44.773 22.368l-.026.035a56.35 56.35 0 0 0 -11.201 33.597v-13.578a42.423 42.423 0 0 0 -42.422-42.422h-27.156a42.423 42.423 0 0 0 -42.422 42.422v85.578c0 1.153.06 2.292.156 3.421a39.744 39.744 0 0 0 -16.156-3.421h-64a8 8 0 0 0 -8 8v8a31.793 31.793 0 0 0 4.3 15.994 31.926 31.926 0 0 0 -4.3 16.006v40a56.034 56.034 0 0 0 2.377 16.119q-1.177-.119-2.377-.119h-8a24.027 24.027 0 0 0 -24 24v16a7.956 7.956 0 0 0 1.4 4.515 47.827 47.827 0 0 0 -1.4 11.485v72a40.045 40.045 0 0 0 40 40v72a8 8 0 0 0 8 8h416a8 8 0 0 0 7.845-9.569l-14.845-74.218a39.956 39.956 0 0 0 23-36.213v-56a47.817 47.817 0 0 0 -12.485-32.258 40.252 40.252 0 0 0 4.485.258 8 8 0 0 0 8-8zm-88-104a40.011 40.011 0 0 1 40 40v3.012a49.818 49.818 0 0 1 -16.411-21.543 8 8 0 0 0 -13.989-2.269 69.134 69.134 0 0 1 -28.736 22.149 81.872 81.872 0 0 1 -8.448 3.067 87.516 87.516 0 0 1 -10.378 2.482c-.636-1.263-1.31-2.5-2.037-3.71v-3.188a39.7 39.7 0 0 1 11.717-28.283c.486-.486 1.017-.987 1.6-1.507a39.849 39.849 0 0 1 26.682-10.21zm-8.8 160a40.067 40.067 0 0 0 -39.2-32h-.862a56.286 56.286 0 0 0 10.884-14.87 56.435 56.435 0 0 0 15.291 10.086c1.354.6 2.713 1.138 4.017 1.6a56.008 56.008 0 0 0 50.67-6.888v42.072zm40.8 16v8h-40v-8zm-103.208-256h-8.792v16h13.911a34.055 34.055 0 0 0 17.626 14.09 40 40 0 0 1 -79.537-6.09v-32.526a59.374 59.374 0 0 0 44.631-30.907 19.113 19.113 0 0 1 14.217 21.682l-1.673 10.04a34.04 34.04 0 0 0 -.383 7.711zm23.208 88c.663 0 1.322.037 1.979.091a55.291 55.291 0 0 0 -8.491 19.052 55.973 55.973 0 0 0 -89.488 44.857v-40a24.027 24.027 0 0 1 24-24zm-2.664 49.67a20.376 20.376 0 0 1 -5.336-9.642 39.989 39.989 0 0 1 5.336 9.642zm-24.275-23.47c-10.832 13.193-32.43 19.057-49.353 21.009a39.953 39.953 0 0 1 49.353-21.009zm-53.061 53.8v-16c0-.129.008-.255.01-.384a145.989 145.989 0 0 0 27.266-4.737q17.929-5.014 29.452-13.994c2.475 8.908 8.6 19.384 23.272 24.977v10.138a40 40 0 0 1 -80 0zm.862 40h-.862a39.759 39.759 0 0 0 -16 3.35v-43.35a55.82 55.82 0 0 0 16.862 40zm156.944-29.332a40.06 40.06 0 0 1 -43.159 11.053c-.93-.326-1.893-.709-2.85-1.133a40.309 40.309 0 0 1 -13.622-9.942 38.881 38.881 0 0 1 -2.669-3.329c.315-2.4.184-29.915-.378-33.092 2.714-.542 5.705-1.253 8.872-2.181v11.956h16v-16h-4.71a86.8 86.8 0 0 0 26.9-17.81 61.649 61.649 0 0 0 21.873 21.25c1.285.715 2.6 1.369 3.941 1.98v10.58a39.89 39.89 0 0 1 -10.198 26.668zm-56.139-146.668a34.758 34.758 0 0 0 4.392 5.373 20.284 20.284 0 0 1 -14.343 34.627h-22.9a56.113 56.113 0 0 0 26.614-40zm-117.667-56a40.251 40.251 0 0 1 7.978-23.971l.022-.029a40.184 40.184 0 0 1 32-16h32a40.184 40.184 0 0 1 32 16l.021.029a40.245 40.245 0 0 1 7.979 23.971v37.088c0 .978.049 1.948.13 2.912h-5.316a18.1 18.1 0 0 1 -17.857-21.08l1.673-10.04a35.108 35.108 0 0 0 -34.63-40.88 8 8 0 0 0 -7.156 4.423l-1.688 3.377a43.539 43.539 0 0 1 -39.156 24.2 8 8 0 0 0 -8 8zm-10.059 61.373a34.118 34.118 0 0 0 10.059-24.285v10.912a56.021 56.021 0 0 0 27.19 48h-22.906a20.284 20.284 0 0 1 -14.343-34.627zm3.424 48.945c-.469.558-.927 1.126-1.365 1.71a40.249 40.249 0 0 0 -2.8-3.325 35.853 35.853 0 0 0 4.165 1.615zm-18.313-13.14q1.054 1.434 2.244 2.759-1.645-.794-3.373-1.433c.385-.434.763-.875 1.129-1.326zm8.948 38.822v27.19a55.926 55.926 0 0 0 -88-10.328v-40.862h64a24.027 24.027 0 0 1 24 24zm-88 80v-8.03a50.155 50.155 0 0 0 40-21.12 50.155 50.155 0 0 0 40 21.12v8.03a40 40 0 0 1 -80 0zm3.159 42.122q-1.62.549-3.189 1.232-.006-2.229-.012-4.259 1.542 1.577 3.201 3.027zm-3.159-66.136a40 40 0 0 1 80 0 34.2 34.2 0 0 1 -32.239-25.926 8 8 0 0 0 -15.522 0 34.2 34.2 0 0 1 -32.239 25.926zm88 52.824v3.218a39.914 39.914 0 0 0 -6.214 12.145 39.854 39.854 0 0 0 -4.944-2.052 56.426 56.426 0 0 0 11.158-13.311zm-84.234-280.372a26.339 26.339 0 0 1 14.656-4.438h27.156a26.439 26.439 0 0 1 24.737 17.122 25.137 25.137 0 0 0 -16.955.754l-13.274 5.443a9.078 9.078 0 0 1 -3.458.681h-8.588a9.166 9.166 0 0 1 -4.076-.962l-8.773-4.387a25.249 25.249 0 0 0 -11.231-2.651h-2.846a25.015 25.015 0 0 0 -7.429 1.122 26.37 26.37 0 0 1 10.081-12.684zm-11.766 36.676a9.124 9.124 0 0 1 9.114-9.114h2.846a9.166 9.166 0 0 1 4.076.962l8.773 4.387a25.249 25.249 0 0 0 11.231 2.651h8.588a25 25 0 0 0 9.526-1.876l13.275-5.443a9.114 9.114 0 0 1 12.571 8.433v27.573l-12.128 12.128a10.684 10.684 0 0 1 -12.347 2 26.844 26.844 0 0 0 -11.939-2.815h-7.172a26.851 26.851 0 0 0 -11.94 2.818 10.683 10.683 0 0 1 -12.346-2l-12.128-12.131zm0 50.2.815.815a26.656 26.656 0 0 0 30.815 5 10.764 10.764 0 0 1 4.784-1.129h7.172a10.761 10.761 0 0 1 4.784 1.129 26.661 26.661 0 0 0 30.815-5l.815-.815v20.686a24.027 24.027 0 0 1 -24 24h-32a24.027 24.027 0 0 1 -24-24zm-32 36.686a24.027 24.027 0 0 1 24 24v8l-19.2-14.4a8 8 0 0 0 -4.8-1.6h-40a16.019 16.019 0 0 1 -16-16zm24.423 97.232a56.422 56.422 0 0 0 -.423 6.768v32a24.042 24.042 0 0 1 -16 22.629v-38.629a24.039 24.039 0 0 1 16.423-22.768zm-80.423-47.016 11.153-18.583a32.153 32.153 0 0 0 4.847.367h37.333l26.667 20v20a40.178 40.178 0 0 1 -1.032 9.041 40.117 40.117 0 0 0 -29.927 29.929 40.163 40.163 0 0 1 -21.6-.984c-.067-.023-.134-.044-.2-.064a40.055 40.055 0 0 1 -27.241-37.922zm-32 61.784a8.009 8.009 0 0 1 8-8h8a8.009 8.009 0 0 1 8 8v8h-24zm0 32a31.889 31.889 0 0 1 1.011-8h30.989a8 8 0 0 0 8-8v-10.08a55.788 55.788 0 0 0 14.41 7.256c.074.025.149.048.225.071a55.833 55.833 0 0 0 17.365 2.753 56.464 56.464 0 0 0 8-.578v40.578a8 8 0 0 0 8 8 39.793 39.793 0 0 0 23.958-7.989c.016 5.5.029 11.079.037 16a39.88 39.88 0 0 0 -5.195 9.289l-20.1 6.7h-38.7v-32a8 8 0 0 0 -8-8h-40zm89.442 176h-49.442v-32h55.842zm9.6-48h-59.042v-16h62.242zm4.958-32h-80a24.027 24.027 0 0 1 -24-24v-40h32v32a8 8 0 0 0 8 8h48a8 8 0 0 0 2.53-.411l13.47-4.489zm1.758 80 5.735-28.672.547 5.468a8 8 0 0 0 7.96 7.204h32a8 8 0 0 0 7.96-8.8l-8-80a8 8 0 0 0 -7.96-7.2h-24a23.945 23.945 0 0 1 5.976-15.851 26.134 26.134 0 0 1 2.149-2.149 23.966 23.966 0 0 1 15.875-6h48a23.974 23.974 0 0 1 15.885 6.006c.039.034.076.073.115.108v17.886h-16a8 8 0 0 0 -7.96 7.2l-8 80a8 8 0 0 0 7.96 8.8h43.042l3.2 16zm15.082-96h15.92l6.4 64h-15.92zm87.16 0v64h-15.16l6.4-64zm32 64h-16v-72h16zm80 32h-24v-40h-16v40h-24v-56h64zm0-72h-64v-64h-16v16h-16v-16a24.027 24.027 0 0 1 24-24h80a24.027 24.027 0 0 1 24 24v16h-16v-16h-16zm32-32v72h-16v-72zm-16 104v-16h24a8 8 0 0 0 8-8v-40h56c.479 0 .955-.027 1.433-.044l12.809 64.044zm112-104a23.977 23.977 0 0 1 -24 24h-56v-24h48a8 8 0 0 0 8-8v-78.988a32.058 32.058 0 0 1 24 30.988zm0-105.371a24.041 24.041 0 0 1 -16-22.629v-32a55.939 55.939 0 0 0 -5.339-23.85 23.986 23.986 0 0 1 21.339 23.85z"/><path d="m416 232h16v16h-16z"/><path d="m296 256h16v16h-16z"/><path d="m328 256h16v16h-16z"/><path d="m176 280h16v16h-16z"/><path d="m208 280h16v16h-16z"/></g></svg>