<svg height="512" viewBox="0 0 512 512" width="512" xmlns="http://www.w3.org/2000/svg"><g id="Filled_outline" data-name="Filled outline"><path d="m352 320-48 56-16-16v136h-200v-120h-64v-52.17a48 48 0 0 1 43.65-47.8l44.35-4.03h128l49.69 5.52a64.008 64.008 0 0 1 38.18 18.35z" fill="#919c48"/><path d="m352 320-48 56-16-16v136h-200v-76.32c79.15-20.43 154.43-63.41 209.82-140.72a64.047 64.047 0 0 1 30.05 16.91z" fill="#8a9444"/><path d="m24 376h64v120h-64z" fill="#fec9a3"/><path d="m304 376 72 80 56-48-80-88z" fill="#feb784"/><path d="m280 344h16v152h-16z" fill="#82883a"/><path d="m80 344h16v152h-16z" fill="#82883a"/><path d="m240 272-2.81 9.85a63.641 63.641 0 0 1 -122.38 0l-2.81-9.85 13.06-4.35a16.014 16.014 0 0 0 10.94-15.18v-44.47h80v44.47a16.014 16.014 0 0 0 10.94 15.18z" fill="#fec9a3"/><g fill="#feb784"><path d="m216 208v44.16a73.485 73.485 0 0 1 -78.25 1.1c-.59-.36-1.17-.73-1.75-1.1v-44.16z"/><path d="m248 120h8.913a23.087 23.087 0 0 1 23.087 23.087v1.826a23.087 23.087 0 0 1 -23.087 23.087h-8.913a0 0 0 0 1 0 0v-48a0 0 0 0 1 0 0z"/><path d="m103.527 120h-7.882a23.894 23.894 0 0 0 -23.645 24 23.894 23.894 0 0 0 23.645 24h8.355z"/></g><path d="m256 104.64v31.48a193.976 193.976 0 0 1 -9.8 60.88 74.445 74.445 0 0 1 -26.93 36.92 73.507 73.507 0 0 1 -81.52 3.34 74.39 74.39 0 0 1 -31.95-40.26 194.233 194.233 0 0 1 -9.8-60.88v-31.48a80.605 80.605 0 0 1 56.41-77.08 79.655 79.655 0 0 1 80.16 20.06 80.729 80.729 0 0 1 23.43 57.02z" fill="#fec9a3"/><path d="m256 104.64v31.48a193.976 193.976 0 0 1 -9.8 60.88 74.445 74.445 0 0 1 -26.93 36.92 73.507 73.507 0 0 1 -81.52 3.34 88.408 88.408 0 0 0 73.38-87.13v-39.29a88.427 88.427 0 0 0 -58.72-83.28 79.655 79.655 0 0 1 80.16 20.06 80.729 80.729 0 0 1 23.43 57.02z" fill="#fec093"/><path d="m256.009 120v-35.2c0-29.161-21.494-52.8-48.009-52.8l1.689 5.574a215.2 215.2 0 0 0 46.32 82.426z" fill="#804a32"/><path d="m96 120v-35.2c0-29.161 21.49-52.8 48-52.8l-1.689 5.574a215.2 215.2 0 0 1 -46.311 82.426z" fill="#804a32"/><path d="m224 72h-93.4a36.468 36.468 0 0 1 -34.6-48h93.578a34.428 34.428 0 0 1 19.094 5.781 34.423 34.423 0 0 1 15.328 28.641z" fill="#92563a"/><path d="m416 360v48h-80v-48a8 8 0 0 0 8-8v-40h64v40a8 8 0 0 0 8 8z" fill="#fec9a3"/><path d="m488 396.64v99.36h-224v-99.36a32 32 0 0 1 28.47-31.8l43.53-4.84a40 40 0 0 0 80 0l43.53 4.84a32.027 32.027 0 0 1 28.47 31.8z" fill="#4d5e78"/><path d="m408 312v31.44a64.093 64.093 0 0 1 -64 0v-31.44z" fill="#feb784"/><path d="m488 396.64v99.36h-224v-3.76c79.97-9.63 159.5-49.47 212.24-120.37a31.916 31.916 0 0 1 11.76 24.77z" fill="#485870"/><path d="m440 440h48v56h-48z" fill="#fec9a3"/><path d="m264 440h48v56h-48z" fill="#fec9a3"/><path d="m444 280h-12v-40h12a20 20 0 0 1 20 20 20 20 0 0 1 -20 20z" fill="#feb784"/><path d="m308 240h12v40h-12a20 20 0 0 1 -20-20 20 20 0 0 1 20-20z" fill="#feb784"/><path d="m440 240v32a64 64 0 0 1 -64 64 65.446 65.446 0 0 1 -8.09-.5 64.015 64.015 0 0 1 -55.91-63.5v-32a64 64 0 0 1 64-64c1.41 0 2.81.05 4.19.14a63.975 63.975 0 0 1 59.81 63.86z" fill="#fec9a3"/><path d="m440 240v32a64 64 0 0 1 -64 64 65.446 65.446 0 0 1 -8.09-.5 82.361 82.361 0 0 0 34.11-66.81v-36.66a82.148 82.148 0 0 0 -21.83-55.89 63.975 63.975 0 0 1 59.81 63.86z" fill="#fec093"/><path d="m440 240a63.632 63.632 0 0 1 -40-59.081v-4.919a40 40 0 0 1 40 40z" fill="#f57707"/><path d="m312 240a63.632 63.632 0 0 0 40-59.081v-4.919a40 40 0 0 0 -40 40z" fill="#f57707"/><path d="m439 208h-95a32 32 0 0 1 -32-32v-8h87a40.172 40.172 0 0 1 40.2 40z" fill="#f98500"/><path d="m304 416h16v80h-16z" fill="#404f66"/><path d="m432 416h16v80h-16z" fill="#404f66"/><path d="m488 392h-64v-32a16 16 0 0 1 16-16h32a16 16 0 0 1 16 16z" fill="#fec9a3"/><path d="m212 144a12 12 0 1 0 -12-12 12.013 12.013 0 0 0 12 12z"/><path d="m140 144a12 12 0 1 0 -12-12 12.013 12.013 0 0 0 12 12z"/><path d="m152 192h7.334a114.706 114.706 0 0 0 43.743-8.615l-6.154-14.77a98.567 98.567 0 0 1 -37.589 7.385h-7.334z"/><path d="m404 264a12 12 0 1 0 -12-12 12.013 12.013 0 0 0 12 12z"/><path d="m348 264a12 12 0 1 0 -12-12 12.013 12.013 0 0 0 12 12z"/><path d="m360 296h4.89a59.225 59.225 0 0 0 31.349-9.216l-8.478-13.568a43.265 43.265 0 0 1 -22.871 6.784h-4.89z"/><path d="m496 360a24.028 24.028 0 0 0 -24-24h-32a24.039 24.039 0 0 0 -22.658 16.1l-.458-.051a8.155 8.155 0 0 0 -.884-.049v-20.132a72.567 72.567 0 0 0 30.222-43.968 27.995 27.995 0 0 0 1.778-55.61v-16.29a48.541 48.541 0 0 0 -.348-5.665 8.005 8.005 0 0 0 .348-2.335 48.053 48.053 0 0 0 -48-48h-88a8 8 0 0 0 -8 8v8a39.749 39.749 0 0 0 4.821 19.023 47.9 47.9 0 0 0 -4.821 20.977v16.285a28 28 0 0 0 -22.663 36.257l-39.612-4.4-12.25-4.081a8 8 0 0 1 -5.475-7.591v-12.1a82.066 82.066 0 0 0 29.8-40.863 201.889 201.889 0 0 0 6.245-23.666 31.133 31.133 0 0 0 27.955-30.931v-1.82a31.138 31.138 0 0 0 -23.99-30.262v-28.028a63.623 63.623 0 0 0 -14.71-41.077 54.473 54.473 0 0 0 -34.3-19.253c-.617-.461-1.243-.914-1.889-1.345a42.288 42.288 0 0 0 -23.533-7.125h-93.578a8 8 0 0 0 -7.59 5.471 43.945 43.945 0 0 0 4.69 37.96 65.392 65.392 0 0 0 -5.1 25.369v28.151a32.106 32.106 0 0 0 -14.752 53.611 31.257 31.257 0 0 0 18.7 9.212 201.917 201.917 0 0 0 6.252 23.737 82.423 82.423 0 0 0 29.8 40.889v12.07a8 8 0 0 1 -5.469 7.591l-12.178 4.056-43.428 3.946a55.731 55.731 0 0 0 -50.925 55.767v172.17h16v-112h48v112h16v-152h-16v24h-48v-44.17a39.807 39.807 0 0 1 36.374-39.83l37.753-3.431.994 3.479a71.635 71.635 0 0 0 137.758 0l.956-3.348 42.965 4.77a55.693 55.693 0 0 1 17.589 4.973 72.017 72.017 0 0 0 26.677 39.349l-21.3 24.854-15.766 1.754v-12.4h-16v15.98a39.968 39.968 0 0 0 -24 36.66v99.36h16v-48h32v48h16v-80h-16v16h-32v-35.36a23.973 23.973 0 0 1 18.027-23.24c1.05-.275 38.8-4.551 38.8-4.551a47.975 47.975 0 0 0 87.173 17.645v5.506a8 8 0 0 0 8 8h56v32h-32v-16h-16v80h16v-48h32v48h16zm-64-133.294a54.916 54.916 0 0 1 -11.536-10.706h11.536zm24 33.294a11.989 11.989 0 0 1 -8 11.3v-22.6a12.01 12.01 0 0 1 8 11.3zm-56-84a32.056 32.056 0 0 1 30.987 24h-86.987a24.028 24.028 0 0 1 -24-24zm-80 40a32.06 32.06 0 0 1 .878-7.391 39.881 39.881 0 0 0 11.922 5.784 55.291 55.291 0 0 1 -12.8 12.307zm-20.482 35.518a11.933 11.933 0 0 1 4.482-2.818v22.6a11.982 11.982 0 0 1 -4.482-19.782zm-27.518-108.428v1.82a15.111 15.111 0 0 1 -9.3 13.929 201.587 201.587 0 0 0 1.3-22.719v-6.343a15.1 15.1 0 0 1 8 13.313zm-23.99-58.29v12.664a205.226 205.226 0 0 1 -16.01-26.064v-12.978a42.563 42.563 0 0 0 -1.3-10.45c10.465 8.149 17.31 21.719 17.31 36.828zm-145.678-52.8h87.246a26.423 26.423 0 0 1 26.422 26.422v5.578h-85.4a28.494 28.494 0 0 1 -28.265-32zm1.668 52.8a49.919 49.919 0 0 1 1.588-12.446 43.536 43.536 0 0 0 10.982 5.406 204.569 204.569 0 0 1 -12.57 19.698zm-24 59.2a16.064 16.064 0 0 1 8-13.944v6.064a202.04 202.04 0 0 0 1.268 22.462 15.747 15.747 0 0 1 -4.622-3.249 16.045 16.045 0 0 1 -4.646-11.333zm33.4 50.492a185.085 185.085 0 0 1 -6.852-27.794c-.016-.092-.032-.183-.051-.275-.028-.142-.05-.28-.072-.42l-.053-.315a186.549 186.549 0 0 1 -2.372-29.568v-13.111a218.528 218.528 0 0 0 29.538-43.009h84.928a218.342 218.342 0 0 0 29.534 43v13.12a187.017 187.017 0 0 1 -9.4 58.366 66.146 66.146 0 0 1 -24.037 32.961 65.235 65.235 0 0 1 -38.563 12.553 65.965 65.965 0 0 1 -62.6-45.508zm62.6 125.508a55.871 55.871 0 0 1 -53.494-40.352l-.709-2.479 5.8-1.931a23.978 23.978 0 0 0 16.403-22.768v-3a81.6 81.6 0 0 0 64-.007v3.01a23.98 23.98 0 0 0 16.412 22.77l5.791 1.929-.709 2.479a55.871 55.871 0 0 1 -53.494 40.349zm145.154-36.643c-.3-1.467-.549-2.931-.723-4.328a58.365 58.365 0 0 1 -.431-7.029v-26.829a71.276 71.276 0 0 0 30.8-29.171h50.377c.4.714.807 1.419 1.223 2.1a71.042 71.042 0 0 0 29.6 27.088v26.812a58.133 58.133 0 0 1 -.429 7.007 55.975 55.975 0 0 1 -55.571 48.993 56.923 56.923 0 0 1 -8.932-.71 55.535 55.535 0 0 1 -18.186-6.274c-.278-.151-.548-.31-.876-.5a56.033 56.033 0 0 1 -26.852-37.159zm54.846 108.643a32.057 32.057 0 0 1 -31-24.068 8 8 0 0 0 7-7.932v-20.1a71.388 71.388 0 0 0 12.55 3.2 73.012 73.012 0 0 0 11.45.9 72.167 72.167 0 0 0 24-4.113v20.113a8 8 0 0 0 7 7.932 32.057 32.057 0 0 1 -31 24.068zm56-32a8.009 8.009 0 0 1 8-8h32a8.009 8.009 0 0 1 8 8v24h-48z"/></g></svg>