<?xml version="1.0" encoding="iso-8859-1"?>
<!-- Generator: Adobe Illustrator 19.0.0, SVG Export Plug-In . SVG Version: 6.00 Build 0)  -->
<svg version="1.1" id="Capa_1" xmlns="http://www.w3.org/2000/svg" xmlns:xlink="http://www.w3.org/1999/xlink" x="0px" y="0px"
	 viewBox="0 0 512 512" style="enable-background:new 0 0 512 512;" xml:space="preserve">
<path style="fill:#FC3552;" d="M414.785,504.395H96.59c0-16.046,8.642-33.167,15.315-43.979l8.013-36.889l31.27-76.749l2.201-5.406
	l10.995-2.688l179.687-43.968l16.857,50.429l38.542,115.271C406.144,471.228,414.785,488.35,414.785,504.395z"/>
<g>
	<path style="fill:#E21E43;" d="M360.928,345.145c-13.439,30.205-34.789,55.247-67.256,66.15
		c-11.268,3.793-23.886,5.873-37.984,5.873c-13.895,0-26.351-2.018-37.508-5.7c-32.142-10.629-53.452-35.063-66.992-64.69
		l2.201-5.406l10.995-2.688l179.687-43.968L360.928,345.145z"/>
	<path style="fill:#E21E43;" d="M242.046,359.212c-45.226,15.812-62.286,119.085-62.286,145.182H96.59
		c0-16.046,8.642-33.166,15.315-43.979l8.013-36.889l33.471-82.155l10.995-2.688C218.647,344.678,262.422,352.092,242.046,359.212z"
		/>
</g>
<path style="fill:#FEC755;" d="M374.701,440.628c0.264,0.923,10.7,37.284-21.614,37.284c-32.72,0-43.847-43.857-43.847-43.857
	c-6.004-19.433-11.573-41.737-15.214-57.215l-0.355-1.014c38.329-12.871-12.425-18.348-51.626-16.614
	c-30.245,1.329-53.604,6.958-23.866,16.786c-3.641,15.508-9.301,38.278-15.417,58.067c0,0-11.126,43.847-43.847,43.847
	c-32.314,0-21.878-36.372-21.614-37.284c-10.498,22.892-80.806,41.199-55.288,3.905c51.048-87.369-31.838-285.049,30.428-370.105
	c20.001-27.314,61.85-22.578,61.85-22.578S184.405,5.538,238.1,7.678c122.767,4.868,185.692,95.473,180.843,136.287l0.497,0.061
	c9.504,96.609-29.343,232.226,10.548,300.506C455.498,481.828,385.199,463.521,374.701,440.628z"/>
<path style="fill:#E5AA41;" d="M218.18,376c-3.641,15.508-9.301,38.278-15.417,58.067c0,0-11.126,43.847-43.847,43.847
	c-32.314,0-21.878-36.372-21.614-37.284c-10.498,22.892-80.806,41.199-55.288,3.905c51.048-87.369-31.838-285.049,30.428-370.105
	c20.001-27.314,61.85-22.578,61.85-22.578c-22.02,0.822-37.132,116.083,14.595,147.525c28.805,17.506,44.719,94.793,53.158,159.838
	C211.8,360.542,188.442,366.171,218.18,376z"/>
<path style="fill:#FFE2C7;" d="M380.848,204c0,64.396-19.271,149.026-87.176,171.827c-11.268,3.793-23.886,5.873-37.984,5.873
	c-13.895,0-26.351-2.018-37.508-5.7c-68.28-22.578-87.643-107.451-87.643-171.999l0.01-0.01c17.374,4.28,84.651-35.641,87.927-77.53
	c2.81,9.037,8.743,17.79,16.563,25.833c12.191,12.526,28.967,23.348,45.642,30.844c24.931,11.228,49.658,15.042,58.543,6.157
	c18.652-18.652-39.597-18.328-32.396-39.272c8.662-25.215,39.303-2.657,67.215,8.611l1.714,7.181
	C379.063,178.298,380.848,191.15,380.848,204z"/>
<path style="fill:#E8C5A7;" d="M255.688,381.699c-13.895,0-26.351-2.018-37.508-5.7c-68.28-22.578-87.643-107.451-87.643-171.999
	l0.01-0.01c9.534,2.353,34.11-8.621,54.882-25.925C159.292,248.486,164.901,357.691,255.688,381.699z"/>
<g>
	<ellipse style="fill:#FC3552;" cx="338.765" cy="259.784" rx="22.58" ry="11.125"/>
	<ellipse style="fill:#FC3552;" cx="180.388" cy="259.784" rx="22.58" ry="11.125"/>
</g>
<path d="M215.498,233.36c-1.946,0-3.894-0.742-5.379-2.228c-4.214-4.213-9.818-6.534-15.777-6.534
	c-5.96,0-11.562,2.321-15.776,6.534c-2.972,2.971-7.789,2.972-10.757,0c-2.972-2.971-2.972-7.787-0.001-10.757
	c7.087-7.088,16.51-10.991,26.534-10.991c10.023,0,19.447,3.903,26.533,10.991c2.972,2.971,2.972,7.787,0.001,10.757
	C219.392,232.618,217.445,233.36,215.498,233.36z"/>
<path d="M345.961,233.36c-1.946,0-3.894-0.742-5.379-2.228c-8.699-8.697-22.852-8.699-31.554,0c-2.971,2.972-7.788,2.971-10.757,0
	c-2.971-2.971-2.971-7.788,0.001-10.757c14.631-14.632,38.439-14.63,53.067,0c2.972,2.971,2.972,7.787,0.001,10.757
	C349.855,232.618,347.908,233.36,345.961,233.36z"/>
<path d="M259.574,338.842c-31.352,0-59.765-18.547-72.383-47.25c-1.692-3.846,0.056-8.334,3.902-10.025
	c3.849-1.69,8.334,0.056,10.026,3.902c10.191,23.18,33.137,38.159,58.456,38.159c25.32,0,48.266-14.979,58.458-38.159
	c1.69-3.846,6.181-5.591,10.025-3.902c3.846,1.691,5.594,6.179,3.902,10.025C319.34,320.295,290.926,338.842,259.574,338.842z"/>
<path d="M158.917,485.52c-13.925,0-21.28-5.9-24.999-10.85c-3.244-4.317-4.877-9.355-5.576-14.281
	c-12.066,7.829-27.664,12.68-38.25,13.072c-11.998,0.449-17.192-4.298-19.427-8.353c-3.509-6.365-1.856-14.651,4.912-24.633
	C98.63,400.732,92.357,333.457,86.291,268.39c-0.613-6.576-1.226-13.161-1.814-19.731c-0.373-4.184,2.716-7.88,6.901-8.253
	c4.178-0.371,7.88,2.715,8.254,6.9c0.584,6.55,1.197,13.115,1.807,19.673c6.59,70.69,12.814,137.459-12.857,181.392
	c-0.091,0.156-0.189,0.309-0.29,0.458c-3.557,5.198-4.121,7.899-4.197,8.82c1.289,0.548,5.641,1.368,14.249-0.732
	c14.35-3.504,28.719-12.228,32.04-19.451c0.026-0.058,0.054-0.115,0.081-0.171c0.002-0.003,0.003-0.005,0.004-0.008
	c0.354-0.724,0.824-1.395,1.395-1.981l0.001,0.001c1.818-1.858,4.516-2.708,7.155-2.101c3.451,0.797,5.9,3.86,5.9,7.402
	c0,0.788-0.123,1.566-0.359,2.305c-1.217,4.332-3.197,16.339,1.518,22.616c2.415,3.213,6.614,4.775,12.837,4.775
	c26.496,0,36.377-37.73,36.474-38.111c0.031-0.126,0.067-0.251,0.105-0.375c2.977-9.629,6.129-20.904,9.372-33.511
	c1.047-4.068,5.194-6.519,9.262-5.472c4.069,1.047,6.52,5.194,5.473,9.262c-3.285,12.772-6.488,24.228-9.522,34.054
	c-0.458,1.724-3.561,12.767-10.525,23.877C189.102,476.705,175.048,485.52,158.917,485.52z M82.015,444.532h0.01H82.015z"/>
<path d="M255.688,389.307c-14.237,0-27.659-2.047-39.892-6.084c-33.096-10.944-58.013-36.028-74.064-74.559
	c-12.124-29.105-18.8-66.275-18.8-104.664c0-2.017,0.801-3.953,2.227-5.379c1.885-1.883,4.628-2.653,7.208-2.017
	c3.79,0.927,19.957-3.554,40.165-18.153c22.728-16.419,37.067-36.076,38.357-52.584c0.284-3.637,3.11-6.56,6.736-6.967
	c3.626-0.408,7.03,1.817,8.112,5.3c8.087,25.992,48.452,52.071,81.079,60.122c15.758,3.889,24.408,2.21,27.026-0.408
	c0.438-0.438,0.757-0.802,0.987-1.092c-2.209-1.754-7.838-4.169-11.391-5.692c-6.034-2.588-12.275-5.265-17.032-9.066
	c-9.439-7.541-8.296-16.09-6.774-20.516c2.523-7.344,6.84-12.341,12.828-14.847c12.883-5.395,29.469,2.552,47.025,10.967
	c18.881,9.048,38.404,18.404,47.981,8.826c5.756-5.755,5.53-19.043-0.586-34.679c-9.173-23.451-29.139-47.282-54.777-65.385
	c-32.02-22.607-71.546-35.454-114.306-37.15c-19.75-0.788-35.178,5.435-45.846,18.495c-7.869,9.63-10.207,19.601-10.228,19.698
	c-0.832,3.811-4.405,6.375-8.288,5.936c-0.359-0.042-37.759-3.838-54.858,19.512c-25.341,34.618-24.967,90.762-20.787,146.275
	c0.316,4.189-2.825,7.841-7.014,8.157c-4.219,0.307-7.841-2.826-8.157-7.015c-4.399-58.422-4.574-117.804,23.683-156.406
	c17.621-24.064,49.045-26.261,62.52-26.001c1.897-5.055,5.382-12.484,11.346-19.784c9.527-11.661,27.368-25.301,58.234-24.072
	c96.841,3.843,162.563,60.853,182.647,112.195c8.604,21.997,7.577,40.579-2.823,50.978c-17.195,17.2-42.759,4.947-65.315-5.863
	c-13.117-6.286-27.988-13.411-34.576-10.652c-0.675,0.283-2.728,1.142-4.316,5.759c-0.329,0.955-0.587,1.71,1.882,3.684
	c3.149,2.516,8.429,4.78,13.532,6.97c9.869,4.234,19.192,8.232,20.866,16.937c0.951,4.946-0.966,9.854-5.7,14.588
	c-9.708,9.708-27.888,7.763-41.43,4.421c-25.856-6.38-63.725-25.679-82.613-52.078c-2.458,5.255-5.711,10.54-9.749,15.827
	c-7.499,9.818-17.654,19.48-29.369,27.942c-13.481,9.739-30.465,18.707-43.197,20.697c1.018,38.836,10.988,133.709,82.323,157.296
	c10.687,3.527,22.505,5.316,35.12,5.316c41.39,0,72.676-19.076,92.994-56.699c21.37-39.573,24.56-88.03,24.56-113.393
	c0-5.989-0.417-12.117-1.238-18.214c-0.562-4.164,2.359-7.993,6.523-8.554c4.161-0.559,7.994,2.358,8.555,6.523
	c0.912,6.768,1.374,13.58,1.374,20.246c0,26.799-3.428,78.106-26.387,120.621c-10.719,19.849-24.477,35.401-40.892,46.222
	C302.592,383.094,280.559,389.307,255.688,389.307z"/>
<path d="M353.087,485.52c-37.327,0-50.122-45.421-51.166-49.384c-3.302-10.7-6.793-23.281-10.375-37.397
	c-1.034-4.072,1.43-8.212,5.502-9.244c4.069-1.033,8.211,1.429,9.244,5.502c3.537,13.938,6.974,26.324,10.215,36.814
	c0.038,0.124,0.073,0.249,0.105,0.375c0.095,0.368,10.121,38.12,36.474,38.12c6.217,0,10.414-1.558,12.828-4.763
	c4.72-6.264,2.713-18.401,1.504-22.706c-0.223-0.73-0.33-1.476-0.33-2.214c0.002-2.817,1.571-5.525,4.27-6.841
	c3.777-1.842,8.326-0.284,10.167,3.492c0.025,0.055,0.062,0.129,0.087,0.185c3.315,7.227,17.69,15.956,32.047,19.461
	c8.605,2.101,12.954,1.278,14.243,0.73c-0.076-0.92-0.638-3.62-4.195-8.821c-0.102-0.148-0.198-0.301-0.289-0.457
	c-25.882-44.299-20.217-114.952-14.739-183.279c2.234-27.872,4.545-56.693,4.697-83.259c0.023-4.186,3.425-7.563,7.606-7.563
	c0.015,0,0.029,0,0.045,0c4.201,0.024,7.587,3.45,7.563,7.651c-0.154,27.131-2.488,56.238-4.746,84.388
	c-5.28,65.864-10.741,133.965,12.581,174.167c6.765,9.982,8.417,18.27,4.908,24.634c-2.236,4.056-7.396,8.807-19.43,8.352
	c-10.575-0.392-26.152-5.235-38.211-13.052c-0.79,5.582-2.673,10.367-5.628,14.29C374.346,479.635,366.993,485.52,353.087,485.52z"
	/>
<path d="M329.528,512H96.592c-4.202,0-7.607-3.406-7.607-7.607c0-6.869,1.372-14.385,4.077-22.339
	c1.353-3.977,5.672-6.104,9.652-4.753c3.978,1.353,6.106,5.674,4.753,9.652c-1.167,3.432-2.025,6.72-2.568,9.833H329.53
	c4.202,0,7.607,3.406,7.607,7.607C337.137,508.594,333.73,512,329.528,512z"/>
<path d="M414.787,512h-59.892c-4.202,0-7.607-3.406-7.607-7.607c0-4.201,3.405-7.607,7.607-7.607h51.587
	c-0.543-3.114-1.401-6.401-2.568-9.833c-1.353-3.977,0.775-8.299,4.753-9.652c3.976-1.351,8.3,0.775,9.652,4.753
	c2.705,7.954,4.077,15.47,4.077,22.339C422.394,508.594,418.988,512,414.787,512z"/>
<path d="M272.253,277.98h-25.357c-4.202,0-7.607-3.406-7.607-7.607s3.405-7.607,7.607-7.607h25.357c4.202,0,7.607,3.406,7.607,7.607
	S276.455,277.98,272.253,277.98z"/>
<g>
</g>
<g>
</g>
<g>
</g>
<g>
</g>
<g>
</g>
<g>
</g>
<g>
</g>
<g>
</g>
<g>
</g>
<g>
</g>
<g>
</g>
<g>
</g>
<g>
</g>
<g>
</g>
<g>
</g>
</svg>
