<svg id="Capa_1" enable-background="new 0 0 512 512" height="512" viewBox="0 0 512 512" width="512" xmlns="http://www.w3.org/2000/svg"><g><g><g fill="#5a5a5a"><path d="m423.031 381.445c.062-2.608-.091-5.261-.475-7.941l-30.3-211.497 30.3 211.497c.384 2.68.537 5.333.475 7.941z"/><path d="m243.998 69.145-124.259 92.862-30.3 211.497c-4.095 28.583 18.082 54.162 46.956 54.162h221.205c28.874 0 51.051-25.58 46.956-54.162l-30.3-211.497-124.258-92.862z"/></g><path d="m422.556 373.504-30.3-211.497-136.258-101.83-12 8.968 124.259 92.862 30.3 211.497c4.095 28.583-18.082 54.162-46.956 54.162h24c28.873.001 51.05-25.579 46.955-54.162z" fill="#444"/><path d="m345.234 357.905c-8.882 0-14.885 0-24 0 2.852 0 5.642.263 8.357.741l-11.941 9.687h-122.213l-14.933-10.428h-25.292c-26.48 0-47.946 21.466-47.946 47.946v98.649h34.913l7.5-4.5 7.5 4.5h197l7.5-4.5 7.5 4.5h24v-98.649c.001-26.48-21.465-47.946-47.945-47.946z" fill="#eaf6ff"/><path d="m356.148 357.905h-24c26.48 0 47.946 21.466 47.946 47.946v98.649h24v-98.649c-.001-26.48-21.466-47.946-47.946-47.946z" fill="#d8ecfe"/><path d="m305.522 357.905v-104.844h-99.683v104.845h-25.334v28.094c0 11.598 9.402 21 21 21h108c11.598 0 21-9.402 21-21v-28.095z" fill="#ffa78f"/><path d="m157.18 504.5v-68.833c0-4.142-3.357-7.5-7.5-7.5s-7.5 3.358-7.5 7.5v68.833z" fill="#c4e2ff"/><path d="m205.838 342.993c31.19 15.008 68.524 14.957 99.683-.156v-89.776h-99.683z" fill="#ec806b"/><path d="m196.829 240.975h-55.524c-21.347 0-38.652-17.305-38.652-38.652v-.238c0-21.347 17.305-38.652 38.652-38.652h55.524z" fill="#f89580"/><path d="m314.531 163.435h55.524c21.347 0 38.652 17.305 38.652 38.652v.238c0 21.347-17.305 38.652-38.652 38.652h-55.524z" fill="#ec806b"/><path d="m255.908 336.192c-65.698 0-114.607-52.725-114.607-113.833v-40.35c0-62.868 50.965-113.833 113.832-113.833 65.698 0 114.607 52.725 114.607 113.833v40.35c.001 62.869-50.964 113.833-113.832 113.833z" fill="#ffb09e"/><path d="m255.908 336.192c-65.698 0-114.607-52.725-114.607-113.833v-40.35c0-62.868 50.965-113.833 113.832-113.833 65.698 0 114.607 52.725 114.607 113.833v40.35c.001 62.869-50.964 113.833-113.832 113.833z" fill="#ffb09e"/><path d="m245.521 68.585c58.368 4.882 104.22 53.795 104.22 113.425v40.35c0 59.63-45.852 108.543-104.22 113.425 68.778 5.753 124.22-48.084 124.22-113.425v-40.35c0-65.233-55.345-119.186-124.22-113.425z" fill="#f89580"/><g><path d="m334.263 263.5h-18.69c-4.143 0-7.5-3.358-7.5-7.5s3.357-7.5 7.5-7.5h18.69c4.143 0 7.5 3.358 7.5 7.5s-3.357 7.5-7.5 7.5z" fill="#fe7c66"/></g><g><path d="m176.746 263.5h18.69c4.143 0 7.5-3.358 7.5-7.5s-3.357-7.5-7.5-7.5h-18.69c-4.143 0-7.5 3.358-7.5 7.5s3.358 7.5 7.5 7.5z" fill="#fe7c66"/></g><g><path d="m243.68 8.006c69.432 5.925 123.941 64.151 123.941 135.117v26.884h24v-26.884c0-78.571-66.911-142.036-147.941-135.117z" fill="#444"/></g><g><path d="m243.68 8.006c.895-.076 1.793-.143 2.692-.202-70.71 4.629-126.633 63.438-126.633 135.319v26.884h66.914c38.298 0 69.345-31.047 69.345-69.345 0 38.298 31.047 69.345 69.345 69.345h42.278v-26.884c0-70.966-54.509-129.192-123.941-135.117z" fill="#5a5a5a"/></g><path d="m354.18 504.5h15v-68.833c0-4.142-3.357-7.5-7.5-7.5s-7.5 3.358-7.5 7.5z" fill="#c4e2ff"/><path d="m201.504 414.5h108c15.715 0 28.5-12.785 28.5-28.5v-28.095h-15v28.095c0 7.444-6.056 13.5-13.5 13.5h-108c-7.444 0-13.5-6.056-13.5-13.5v-28.095h-15v28.095c0 15.715 12.785 28.5 28.5 28.5z" fill="#fdb97e"/></g><g><path d="m255.505 286.353c17.513 0 31.761-14.248 31.761-31.761 0-4.142-3.358-7.5-7.5-7.5s-7.5 3.358-7.5 7.5c0 9.242-7.519 16.761-16.761 16.761s-16.761-7.519-16.761-16.761c0-4.142-3.358-7.5-7.5-7.5s-7.5 3.358-7.5 7.5c0 17.513 14.248 31.761 31.761 31.761z"/><path d="m309.631 236.476c4.142 0 7.5-3.358 7.5-7.5v-21.516h4.384c4.142 0 7.5-3.358 7.5-7.5s-3.358-7.5-7.5-7.5h-11.884c-4.142 0-7.5 3.358-7.5 7.5v29.015c0 4.143 3.358 7.501 7.5 7.501z"/><path d="m189.495 207.46h4.384v21.515c0 4.142 3.358 7.5 7.5 7.5s7.5-3.358 7.5-7.5v-29.015c0-4.142-3.358-7.5-7.5-7.5h-11.884c-4.142 0-7.5 3.358-7.5 7.5s3.358 7.5 7.5 7.5z"/><path d="m429.98 372.441-20.691-144.429c4.38-7.055 6.918-15.368 6.918-24.266v-.237c0-13.994-6.328-27.093-17.085-35.823v-24.563c-.001-80.411-65.431-143.123-143.125-143.123h-.635c-37.363 0-72.718 14.311-99.552 40.295-2.976 2.881-3.052 7.629-.17 10.605 2.88 2.975 7.628 3.053 10.605.17 24.021-23.26 55.67-36.07 89.117-36.07h.636c71.035 0 128.123 57.504 128.123 128.123v19.384c-11.397 0-18.773 0-28.504 0l13.059-33.805c1.493-3.864-.43-8.206-4.293-9.699s-8.206.43-9.699 4.293l-15.147 39.21h-14.195c-34.102 0-61.845-27.744-61.845-61.845 0-4.142-3.358-7.5-7.5-7.5s-7.5 3.358-7.5 7.5c0 34.102-27.744 61.845-61.845 61.845h-44.722-14.691v-19.384c0-23.429 6.379-46.346 18.449-66.274 2.146-3.543 1.013-8.155-2.53-10.3-3.542-2.148-8.155-1.014-10.3 2.53-13.489 22.271-20.619 47.876-20.619 74.045v24.563c-10.758 8.73-17.085 21.829-17.085 35.823v.237c0 9.241 2.741 17.849 7.437 25.075l-20.576 143.619c-2.606 18.189 4.155 36.518 17.751 48.718v83.342c0 4.142 3.358 7.5 7.5 7.5h296.826c4.142 0 7.5-3.358 7.5-7.5v-28.057c0-4.142-3.358-7.5-7.5-7.5s-7.5 3.358-7.5 7.5v20.557h-27.412v-61.333c0-4.142-3.358-7.5-7.5-7.5s-7.5 3.358-7.5 7.5v61.333h-197v-61.333c0-4.142-3.358-7.5-7.5-7.5s-7.5 3.358-7.5 7.5v61.333h-27.413c0-12.675 0-81.848 0-91.149 0-22.302 18.144-40.446 40.445-40.446h17.792v20.595c0 15.715 12.785 28.5 28.5 28.5h108c15.715 0 28.5-12.785 28.5-28.5v-20.595h18.143c22.302 0 40.445 18.144 40.445 40.446v35.592c0 4.142 3.358 7.5 7.5 7.5s7.5-3.358 7.5-7.5v-19.711c14.043-12.199 21.045-30.741 18.388-49.291zm-28.774-168.695c0 5.421-1.397 10.52-3.842 14.965-3.036 1.872-6.977 10.924-20.474 13.987.702-9.57.335-52.764.31-53.768h11.996c7.559 5.891 12.011 14.926 12.011 24.579v.237zm-145.209-69.984c12.39 25.85 38.817 43.745 69.345 43.745h36.729c.225 4.059.169 2.24.169 44.853 0 11.273-1.803 22.881-5.595 34.065-.001.002-.001.004-.002.006-14.344 42.295-54.344 72.261-100.735 72.261-52.589 0-96.446-37.821-105.425-87.503-.004-.021-.008-.042-.011-.062-1.469-8.156-1.62-14.259-1.671-19.187 0-42.099-.057-40.361.168-44.432h37.683c30.528-.001 56.956-17.896 69.345-43.746zm-145.843 69.747c0-9.653 4.452-18.688 12.011-24.579h11.677c-.066 2.605-.021 1.137-.062 23.431-.02 10.778-.123 22.866.347 30.289-12.926-3.029-16.62-11.521-19.796-13.346-2.653-4.581-4.177-9.894-4.177-15.558zm45.058 146.896c-27.03 0-50.591 19.714-54.812 47.06-3.36-7.017-4.671-14.976-3.536-22.897l18.962-132.366c6.15 4.088 13.329 6.741 21.061 7.479 4.538 19.778 13.994 38.125 27.757 53.522 9.295 10.401 20.608 19.492 33.694 26.404v20.798c-5.732 0-37.398 0-43.126 0zm167.793 35.595c0 7.444-6.056 13.5-13.5 13.5h-108c-7.444 0-13.5-6.056-13.5-13.5v-20.595h17.833c4.142 0 7.5-3.358 7.5-7.5v-21.615c15.596 5.703 32.226 8.114 48.699 7.248.114-.006.227-.013.34-.019 12.022-.666 23.963-3.04 35.644-7.349v21.735c0 4.142 3.358 7.5 7.5 7.5h17.483v20.595zm-9.983-35.595v-20.975c30.921-16.519 53.228-45.648 61.111-79.723 8.105-.713 15.615-3.525 21.98-7.896l19.019 132.757c1.195 8.338-.297 16.677-4.025 23.924-3.668-27.518-27.315-48.087-54.959-48.087-5.436 0-36.844 0-43.126 0z"/></g></g></svg>