<svg id="Capa_1" enable-background="new 0 0 511.975 511.975" height="512" viewBox="0 0 511.975 511.975" width="512" xmlns="http://www.w3.org/2000/svg"><g><path d="m219.718 252.518-2.529 20.681-4.096 33.499c-1.606 13.135-9.744 24.567-21.63 30.384-41.3 20.213-67.484 62.181-67.484 108.162v40.294c0 10.458 8.478 18.936 18.936 18.936h206.915c10.458 0 18.936-8.478 18.936-18.936v-40.294c0-45.981-26.184-87.948-67.484-108.162-11.886-5.817-20.024-17.25-21.63-30.384l-4.096-33.497-2.529-20.683z" fill="#61a2f9"/><path d="m301.283 337.083c-11.886-5.817-20.024-17.25-21.63-30.384l-4.096-33.497-2.529-20.683h-53.311l-.856 7.004h34.139l2.529 20.683 4.096 33.497c1.606 13.135 9.744 24.567 21.63 30.384 41.3 20.213 67.484 62.181 67.484 108.162v40.294c0 4.525-1.592 8.675-4.24 11.933h5.332c10.458 0 18.936-8.478 18.936-18.936v-40.294c0-45.982-26.184-87.95-67.484-108.163z" fill="#5490f9"/><path d="m279.387 304.521-6.358-52.003h-53.311l-6.358 52.003c22.009 16.784 44.018 16.784 66.027 0z" fill="#e2a770"/><path d="m269.468 12.703c-5.494 2.158-10.937 4.94-16.327 8.373-4.114 2.62-9.423 2.62-13.537 0-6.051-3.855-12.17-6.888-18.352-9.139-43.945-16.005-91.493 12.768-99.125 58.909-8.664 52.382-9.561 112.297-4.337 167.521 1.629 17.216 19.219 28.142 35.385 22.001l93.198-35.406 93.198 35.406c16.166 6.141 33.756-4.785 35.385-22.001 5.223-55.213 4.327-115.115-4.332-167.49-7.772-47.011-56.807-75.595-101.156-58.174z" fill="#3d6b73"/><g><path d="m370.624 70.876c-6.98-42.217-47.237-69.566-87.493-62.088 29.927 5.543 55.365 29.342 60.779 62.088 8.659 52.375 9.555 112.277 4.332 167.49-.851 8.999-6.068 16.273-13.159 20.295l4.489 1.706c16.166 6.141 33.756-4.785 35.385-22.001 5.222-55.213 4.326-115.116-4.333-167.49z" fill="#2e5459"/></g><path d="m246.374 277.246c-39.192 0-70.963-31.771-70.963-70.963v-45.481-40.823c0-3.78 3.489-6.58 7.186-5.791 27.699 5.908 50.625 1.288 67.525-16.623 2.42-2.565 6.587-2.494 8.849.213 12.019 14.384 30.035 18.23 51.712 15.645 3.537-.422 6.655 2.321 6.655 5.882v15.104 71.875c-.001 39.191-31.773 70.962-70.964 70.962z" fill="#f1d0a5"/><path d="m317.337 119.303c0-3.562-3.119-6.304-6.655-5.883-5.96.711-11.642.932-17.001.585v.39 91.886c0 35.16-25.576 64.33-59.135 69.963 3.848.646 7.796 1 11.828 1 39.192 0 70.963-31.771 70.963-70.963v-71.875z" fill="#f1b986"/><g fill="#e278b1"><circle cx="285.238" cy="204.37" r="12.754"/><circle cx="207.509" cy="204.37" r="12.754"/></g><g><circle cx="246.373" cy="438.528" fill="#f6e266" r="22.662"/></g><path d="m394.137 390.85c0 16.626-13.478 30.104-30.104 30.104s-30.104-13.478-30.104-30.104 13.478-46.068 30.104-46.068 30.104 29.442 30.104 46.068z" fill="#f1d0a5"/><path d="m374.843 476.747h-21.62c-12.463 0-22.567-10.103-22.567-22.567v-44.187h66.753v44.187c.001 12.464-10.103 22.567-22.566 22.567z" fill="#b4d0d5"/><path d="m353.223 476.747h21.62l14.391 27.728h-50.402z" fill="#9bb9c1"/><g><path d="m227.686 168.095c-6.282-3.434-13.284-3.5-20.252-.195-3.742 1.776-5.337 6.249-3.562 9.991 1.283 2.704 3.975 4.287 6.781 4.287 1.078 0 2.172-.233 3.21-.726 3.295-1.563 5.199-.976 6.627-.195 3.634 1.987 8.19.651 10.179-2.983 1.987-3.634.652-8.192-2.983-10.179z"/><path d="m268.663 182.178c1.078 0 2.172-.233 3.21-.726 3.296-1.563 5.199-.976 6.627-.195 3.634 1.987 8.191.651 10.179-2.983 1.986-3.634.651-8.191-2.983-10.179-6.281-3.434-13.284-3.5-20.252-.195-3.742 1.776-5.337 6.249-3.562 9.991 1.283 2.704 3.974 4.287 6.781 4.287z"/><path d="m225.67 223.036c-3.116-2.729-7.855-2.414-10.583.702-2.729 3.116-2.414 7.854.702 10.583 10.005 8.761 20.293 13.141 30.585 13.141 10.289 0 20.582-4.382 30.585-13.141 3.116-2.729 3.431-7.467.702-10.583-2.728-3.116-7.466-3.43-10.583-.702-14.32 12.538-27.091 12.537-41.408 0z"/><path d="m276.535 438.529c0-16.632-13.53-30.162-30.161-30.162-16.632 0-30.162 13.53-30.162 30.162 0 16.631 13.53 30.161 30.162 30.161 16.631 0 30.161-13.531 30.161-30.161zm-30.161 15.161c-8.36 0-15.162-6.801-15.162-15.161s6.802-15.162 15.162-15.162 15.161 6.802 15.161 15.162-6.801 15.161-15.161 15.161z"/><path d="m404.91 454.181v-44.188c0-3.357-2.206-6.198-5.248-7.155 1.292-3.84 1.975-7.888 1.975-11.988 0-18.394-14.645-53.568-37.604-53.568-10.49 0-19.236 7.351-25.651 17.081-9.868-9.793-21.203-17.851-33.802-24.017-9.644-4.72-16.179-13.9-17.482-24.558l-3.709-30.344c9.092-4.885 17.116-11.507 23.623-19.425l29.896 11.358c9.897 3.761 20.759 2.725 29.785-2.894 8.999-5.601 14.732-14.863 15.73-25.412 6.432-67.999 2.358-135.098-4.861-171.965-.8-4.063-4.739-6.709-8.807-5.912-4.064.8-6.711 4.742-5.912 8.807 6.964 35.215 10.927 101.259 4.646 167.658-.553 5.848-3.732 10.983-8.724 14.09-4.999 3.112-11.024 3.699-16.531 1.606l-26.663-10.129c5.906-11.017 9.266-23.594 9.266-36.944v-86.979c0-3.832-1.644-7.488-4.509-10.032-2.874-2.552-6.719-3.753-10.535-3.298-20.926 2.497-35.668-1.758-45.067-13.006-2.436-2.915-6.022-4.653-9.842-4.77-3.853-.126-7.576 1.42-10.218 4.218-14.45 15.316-34.242 20.036-60.506 14.436-3.989-.851-8.102.131-11.273 2.698-3.163 2.56-4.977 6.36-4.977 10.429v57.024c0 4.143 3.357 7.5 7.5 7.5s7.5-3.357 7.5-7.5v-55.095c29.823 5.912 53.851-.129 71.477-17.966 12.589 14.11 30.76 19.721 55.45 17.12v85.22c0 34.994-28.47 63.464-63.463 63.464-16.621 0-32.332-6.383-44.238-17.974-11.883-11.568-18.692-27.055-19.175-43.608-.119-4.065-3.452-7.281-7.493-7.281-.073 0-.148.001-.223.003-4.141.121-7.398 3.575-7.278 7.716.358 12.275 3.548 24.065 9.197 34.629l-26.652 10.125c-5.505 2.09-11.53 1.506-16.529-1.606-4.991-3.106-8.172-8.242-8.725-14.09-5.424-57.34-3.907-116.147 4.271-165.591 3.33-20.135 15.352-37.592 32.982-47.894 17.188-10.042 37.665-11.935 56.176-5.192 5.695 2.074 11.377 4.907 16.89 8.418 6.561 4.181 15.037 4.18 21.596 0 4.918-3.133 9.979-5.729 15.039-7.718 29.325-11.518 62.311-1.125 80.212 25.272 2.323 3.427 6.986 4.323 10.416 1.997 3.429-2.324 4.323-6.988 1.998-10.416-10.268-15.142-25.493-26.638-42.871-32.371-18.233-6.015-37.335-5.478-55.239 1.557-5.957 2.34-11.884 5.378-17.612 9.027-1.666 1.062-3.815 1.061-5.479.001-6.43-4.097-13.097-7.414-19.814-9.861-22.72-8.275-47.824-5.968-68.877 6.335-21.496 12.561-36.153 33.846-40.214 58.397-8.383 50.682-9.947 110.86-4.405 169.45.998 10.55 6.732 19.812 15.732 25.413 9.024 5.615 19.885 6.655 29.782 2.893l29.885-11.353c1.855 2.256 3.829 4.432 5.949 6.497 5.332 5.19 11.287 9.523 17.683 12.955l-3.706 30.312c-1.303 10.658-7.838 19.838-17.482 24.558-21.526 10.535-39.609 26.852-52.295 47.185-12.687 20.333-19.392 43.748-19.392 67.714v40.294c0 14.577 11.859 26.437 26.436 26.437h84.293c4.143 0 7.5-3.357 7.5-7.5s-3.357-7.5-7.5-7.5h-84.293c-6.306 0-11.436-5.131-11.436-11.437v-40.294c0-21.155 5.919-41.825 17.117-59.773 11.198-17.949 27.161-32.352 46.163-41.652 11.347-5.553 19.76-15.3 23.679-26.994 9.216 5.139 18.573 7.715 27.934 7.715 9.357 0 18.717-2.577 27.933-7.715 3.919 11.694 12.333 21.442 23.68 26.995 12.585 6.16 23.735 14.461 33.201 24.695-3.087 8.026-4.758 16.135-4.758 22.337 0 4.1.683 8.148 1.975 11.988-3.042.956-5.248 3.797-5.248 7.155v44.188c0 12.616 7.814 23.435 18.854 27.889l-7.736 14.905h-77.063c-4.143 0-7.5 3.357-7.5 7.5s3.357 7.5 7.5 7.5h132.022c2.619 0 5.049-1.366 6.409-3.605 1.36-2.238 1.454-5.024.248-7.35l-9.835-18.95c11.038-4.457 18.852-15.275 18.852-27.891zm-183.568-153.154 2.396-19.591c7.256 2.178 14.865 3.311 22.636 3.311 7.867 0 15.461-1.177 22.632-3.341l2.399 19.623c-16.993 11.51-33.072 11.509-50.063-.002zm142.691 51.255c10.262 0 22.604 23.688 22.604 38.568 0 4.118-1.148 8.146-3.249 11.643h-38.71c-2.101-3.497-3.249-7.524-3.249-11.643 0-14.879 12.342-38.568 22.604-38.568zm-12.858 144.693 6.605-12.728h12.505l6.605 12.728zm38.735-42.794c0 8.308-6.759 15.066-15.066 15.066h-21.62c-8.309 0-15.067-6.759-15.067-15.066v-36.688h51.754v36.688z"/></g></g></svg>