<?xml version="1.0"?>
<svg xmlns="http://www.w3.org/2000/svg" viewBox="0 0 512 512" width="512" height="512"><g id="Filled_outline" data-name="Filled outline"><polygon points="320 264 256 320 192 264 208 248 208 200 304 200 304 248 320 264" style="fill:#fec9a3"/><path d="M304,200v35.57a67.642,67.642,0,0,1-9.06,7.86A66.6,66.6,0,0,1,208,235.57V200Z" style="fill:#feb784"/><path d="M432,326.8V456H80V326.8a48,48,0,0,1,37.94-46.93L192,264l16-16,48,72,48-72,16,16,74.06,15.87c1.31.28,2.59.61,3.85.99A48.008,48.008,0,0,1,432,326.8Z" style="fill:#348fd9"/><path d="M432,326.8V456H80V433.9c121.29-15.17,240.04-59.27,317.91-153.04A48.008,48.008,0,0,1,432,326.8Z" style="fill:#3086cd"/><path d="M320,112h8a24,24,0,0,1,24,24v0a24,24,0,0,1-24,24h-8a0,0,0,0,1,0,0V112A0,0,0,0,1,320,112Z" style="fill:#feb784"/><path d="M191.52,112h-8a24.071,24.071,0,0,0-24,24h0a24.071,24.071,0,0,0,24,24H192Z" style="fill:#feb784"/><path d="M328,104v28.11a171.907,171.907,0,0,1-8.82,54.35A66.593,66.593,0,0,1,256,232a65.716,65.716,0,0,1-8.33-.53,66.577,66.577,0,0,1-54.85-45.01A171.923,171.923,0,0,1,184,132.11V104a72,72,0,0,1,144,0Z" style="fill:#fec9a3"/><path d="M328,104v28.11a171.907,171.907,0,0,1-8.82,54.35A66.593,66.593,0,0,1,256,232a65.716,65.716,0,0,1-8.33-.53,86.664,86.664,0,0,0,36.6-70.81V122.08a86.842,86.842,0,0,0-60.19-82.63A72.013,72.013,0,0,1,328,104Z" style="fill:#fec093"/><path d="M328,120h0V88c0-26.51-17.909-48-40-48h0l1.408,5.068C297.25,73.3,310.463,98.956,328,120Z" style="fill:#804a32"/><path d="M184,120h0V64.985A25.754,25.754,0,0,1,216,40h0V64S201.537,98.956,184,120Z" style="fill:#804a32"/><path d="M328,64H216V40a54.641,54.641,0,0,1,38.63-16H288a39.89,39.89,0,0,1,28.28,11.72q.765.765,1.47,1.56A39.824,39.824,0,0,1,328,64Z" style="fill:#8c5338"/><polygon points="304 344 320 264 304 248 256 320 304 344" style="fill:#62a9e6"/><polygon points="208 344 256 320 208 248 192 264 208 344" style="fill:#62a9e6"/><path d="M384,368l-48,24L80,408v56a24,24,0,0,0,24,24h48l184-40,7.839-1.12L392,440l40,0V368Z" style="fill:#feb784"/><path d="M176,392l-48-24H80v72l40,0,48.161,6.88L176,448l184,40h48a24,24,0,0,0,24-24V408Z" style="fill:#fec9a3"/><path d="M395.736,272.048l-71.75-15.376L312,244.687V214.664a73.972,73.972,0,0,0,14.77-25.674,180.651,180.651,0,0,0,5.666-21.3A32,32,0,0,0,336,105.013V88a64.9,64.9,0,0,0-2.582-18.126A7.97,7.97,0,0,0,336,64a48.055,48.055,0,0,0-48-48H254.627a62.155,62.155,0,0,0-41.158,15.442A33.744,33.744,0,0,0,176,64.985V104.9a32,32,0,0,0,3.576,62.848,180.581,180.581,0,0,0,5.655,21.243A73.97,73.97,0,0,0,200,214.664v30.023l-11.986,11.985-71.749,15.375A56.282,56.282,0,0,0,72,326.8V464a32.036,32.036,0,0,0,32,32h48a7.973,7.973,0,0,0,1.7-.183L256,473.577l102.3,22.24A7.959,7.959,0,0,0,360,496h48a32.036,32.036,0,0,0,32-32V326.8A56.28,56.28,0,0,0,395.736,272.048ZM385.889,376H424v23.484l-75.627-4.726ZM424,326.8V360H384a7.994,7.994,0,0,0-3.578.845L368,367.056V344H352v31.056l-18.123,9.061L264,388.484v-55.54l36.422,18.211a8,8,0,0,0,11.423-5.586l14.409-72.047,66.131,14.171A40.2,40.2,0,0,1,424,326.8Zm-179.683-9.9-30.526,15.264L200.684,266.63l6.073-6.073ZM256,240a74.072,74.072,0,0,0,40-11.644v17.222l-40,60-40-60V228.32A74.953,74.953,0,0,0,256,240Zm49.243,20.557,6.073,6.073-13.107,65.531L267.683,316.9ZM317.309,72A48.462,48.462,0,0,1,320,88v7.321A191.193,191.193,0,0,1,307.594,72ZM344,136a15.923,15.923,0,0,1-4.68,11.307,16.128,16.128,0,0,1-4.247,3.031A180.073,180.073,0,0,0,336,132.11v-9.945A16,16,0,0,1,344,136ZM299.313,56l12.9-12.9A31.948,31.948,0,0,1,318.988,56Zm-.508-22.119L276.687,56H256.645l19.2-24H288A31.853,31.853,0,0,1,298.805,33.881ZM255.355,32l-19.2,24H224V43.466A46.283,46.283,0,0,1,254.627,32ZM192,64.985a17.78,17.78,0,0,1,16-17.678V62.369a314.746,314.746,0,0,1-16,31.773ZM167.52,136A16.008,16.008,0,0,1,176,121.886V132.11a180.11,180.11,0,0,0,.953,18.453,16.112,16.112,0,0,1-4.726-3.27A15.882,15.882,0,0,1,167.52,136Zm26.6,22.354A163.841,163.841,0,0,1,192,132.11v-9.278C205.482,105.779,216.713,82.166,221.25,72H290.2a204.953,204.953,0,0,0,25.08,44.758c1.516,2.05,3.106,4.075,4.721,6.074v9.278a163.977,163.977,0,0,1-8.409,51.818,58.118,58.118,0,0,1-13.347,22.086,59.832,59.832,0,0,1-7.983,6.927A58.225,58.225,0,0,1,256,224a58.916,58.916,0,0,1-42.237-17.979,58.134,58.134,0,0,1-13.354-22.091,165.1,165.1,0,0,1-6.238-25.245Zm-74.5,129.338,66.13-14.17,14.409,72.047a8,8,0,0,0,11.423,5.586L248,332.944v55.54l-69.877-4.367L160,375.056V344H144v23.056l-12.422-6.211A7.994,7.994,0,0,0,128,360H88V326.8A40.2,40.2,0,0,1,119.616,287.692ZM151.141,480H104a16.019,16.019,0,0,1-16-16V448h0l31.432,0,55.151,7.879,43.76,9.514ZM424,464a16.019,16.019,0,0,1-16,16H360.859L177.7,440.18q-.282-.061-.569-.1l-56-8A7.935,7.935,0,0,0,120,432l-32,0V376h38.111l46.311,23.155a7.987,7.987,0,0,0,3.079.829L424,415.516Z"/><path d="M220,136a12,12,0,1,0-12-12A12.013,12.013,0,0,0,220,136Z"/><path d="M292,136a12,12,0,1,0-12-12A12.013,12.013,0,0,0,292,136Z"/><path d="M283.578,175.155l-7.156-14.31A68.118,68.118,0,0,1,246.111,168H240v16h6.111A84.206,84.206,0,0,0,283.578,175.155Z"/></g></svg>
