<svg id="Capa_1" enable-background="new 0 0 512 512" height="512" viewBox="0 0 512 512" width="512" xmlns="http://www.w3.org/2000/svg"><g><g><path d="m210.288 428.405v61.095c0 8.284 6.716 15 15 15s15-6.716 15-15l10-28.985-10-32.111h-30z" fill="#ffbf9d"/><path d="m240.288 428.405v61.095c0 8.284 6.716 15 15 15s15-6.716 15-15v-61.096h-30z" fill="#ffd4bd"/></g><g><path d="m74.272 173.758v39.455c0 5.557-2.207 9.652-6.137 13.581-8.182 8.182-8.182 21.449 0 29.631l7.531 7.531c11.857 11.857 11.857 31.082 0 42.939-11.857 11.857-11.857 31.082 0 42.939 17.714 17.714 41.739 27.665 66.789 27.665h95.384v-203.741z" fill="#bd7669"/><path d="m404.91 306.896c-11.857-11.857-11.857-31.082 0-42.939l7.531-7.531c8.182-8.182 8.182-21.449 0-29.631-3.929-3.929-6.137-8.025-6.137-13.581v-54.345c0-73.181-56.348-119.846-116.65-119.846h-51.813v338.477h100.28c25.051 0 49.076-9.951 66.789-27.665 11.857-11.857 11.857-31.082 0-42.939z" fill="#d6948c"/></g><g><path d="m298.6 409.5c-8.163-36.423-8.163-36.423-8.163-36.423l-50.149-47.551-14.54 13.786v89.092l44.536 8.901c6.685-1.459 13.29-3.404 19.756-5.85 8.622-3.262 10.662-12.575 8.56-21.955z" fill="#efedff"/><path d="m240.288 397.115v-71.589l-50.149 47.551-8.163 36.423c-2.104 9.386-.057 18.696 8.559 21.956 25.58 9.679 53.303 11.623 79.749 5.85-17.792-5.28-29.996-21.631-29.996-40.191z" fill="#d4d4ff"/></g><g><path d="m253.726 302.174h-23.438v36.14l10 5.237c7.043 0 14.086-1.76 20.448-5.28l23.029-12.744c-6.276-10.982-16.859-19.952-30.039-23.353z" fill="#ffd4bd"/><path d="m253.726 302.174c-12.276-3.168-26.407-1.863-37.124 3.954-8.25 4.479-15.119 11.223-19.791 19.398 1.644.91 11.854 6.56 23.029 12.744 6.361 3.52 13.405 5.28 20.448 5.28v-8.487c0-12.306 4.834-24.109 13.438-32.889z" fill="#ffbf9d"/></g><g><path d="m198.652 403.997c8.066 1.769 16.045-3.314 17.851-11.371l3.637-16.228v-37.974c-.099-.054-.201-.099-.299-.153-11.175-6.184-21.384-11.834-23.029-12.744-4.24 7.42-6.672 16.019-6.672 25.182v22.369l-2.911 12.988c-1.818 8.109 3.306 16.15 11.423 17.931z" fill="#ffbf9d"/><path d="m293.348 386.065-2.91-12.986c0-.002 0-.002 0-.002v-22.369c0-9.163-2.432-17.762-6.672-25.182l-23.029 12.744c-.099.055-.2.1-.299.153v37.974l3.637 16.228c1.806 8.058 9.785 13.141 17.851 11.371 8.116-1.78 13.239-9.821 11.422-17.931z" fill="#ffd4bd"/></g><g><path d="m262.622 40.611h-16.286c-30.101 0-57.877 16.189-72.711 42.382l-51.271 90.525 51.27 90.52c14.835 26.191 42.61 42.38 72.71 42.38h16.288c63.858-10.674 112.415-66.143 112.415-132.9 0-66.812-48.624-122.267-112.415-132.907z" fill="#ffd4bd"/><path d="m150.208 173.518c0-66.811 48.626-122.265 112.414-132.907-7.265-1.212-14.726-1.842-22.334-1.842-74.417 0-134.747 60.329-134.747 134.75 0 74.587 60.522 134.747 134.747 134.747 7.609 0 15.07-.633 22.334-1.847-63.788-10.644-112.414-66.092-112.414-132.901z" fill="#ffbf9d"/></g><g fill="#ff8e9e"><ellipse cx="313.01" cy="219.425" rx="22" ry="17.5"/><ellipse cx="167.876" cy="219.425" rx="22" ry="17.5"/></g><g><path d="m254.286 32.827 13.493 41.076c15.537 42.799 57.734 69.96 103.125 66.377v-62.391z" fill="#d6948c"/><path d="m302.079 46.667c-.031-17.588-12.612-32.728-29.875-36.095-6.515-1.271-13.167-2.155-19.93-2.638h-4.389c-29.267 0-57.587 10.37-79.933 29.27l-48.659 41.154v119.767l26.058 14.582c12.862-.712 25.335-2.881 37.253-6.355 69.033-20.123 119.476-83.863 119.476-159.392-.001-.099-.001-.196-.001-.293z" fill="#d6948c"/><path d="m252.274 7.933c-4.343-.311-8.732-.46-13.161-.429-91.438.634-164.84 75.855-164.84 167.295v38.174h61.789c2.812 0 5.607-.075 8.385-.213-12.53-20.459-19.756-44.518-19.756-70.267-.001-72.017 56.496-130.835 127.583-134.56z" fill="#bd7669"/></g><g><path d="m443.762 123.17-6.33-1.696 1.696-6.331c1.17-4.365-1.29-8.931-5.618-10.236-6.071-1.83-12.854-1.246-18.779 2.175-3.015 1.741-6.203 4.444-9.14 7.69 1.854-4.949 2.908-9.975 2.908-14.111 0-6.841-2.886-13.008-7.506-17.351-3.293-3.095-8.478-2.942-11.674.253l-4.634 4.634-4.634-4.634c-3.196-3.196-8.38-3.349-11.674-.253-4.62 4.343-7.506 10.51-7.506 17.351 0 3.794.889 8.339 2.467 12.886-2.609-2.7-5.368-4.949-7.995-6.465-5.925-3.421-12.708-4.005-18.779-2.175-4.327 1.304-6.787 5.871-5.618 10.236l1.696 6.331-6.331 1.696c-4.366 1.17-7.09 5.584-6.056 9.983 1.451 6.172 5.348 11.755 11.273 15.176 4.933 2.848 12.332 4.809 19.669 5.193-4.662 2.163-8.819 4.903-11.669 7.752-4.838 4.838-7.157 11.239-6.961 17.577.14 4.517 3.914 8.075 8.433 8.075h6.554v6.554c0 4.519 3.558 8.294 8.076 8.434 6.338.196 12.739-2.123 17.577-6.961 5.102-5.102 9.854-14.394 11.569-23.277 1.715 8.884 6.467 18.175 11.569 23.277 4.838 4.838 11.239 7.157 17.577 6.961 4.517-.14 8.075-3.914 8.075-8.434v-6.554h6.554c4.52 0 8.293-3.558 8.433-8.075.196-6.338-2.123-12.739-6.961-17.577-2.84-2.84-6.978-5.57-11.621-7.729 7.491-.323 15.102-2.306 20.141-5.216 5.925-3.42 9.822-9.003 11.273-15.176 1.036-4.399-1.689-8.813-6.054-9.983z" fill="#efedff"/><circle cx="385.037" cy="139.501" fill="#ff8e9e" r="15"/></g><g><path d="m255.434 206.207c-3.736-1.786-8.214-.206-10.001 3.532-2.019 4.226-8.267 4.232-10.289 0-1.787-3.737-6.268-5.318-10.001-3.532-3.737 1.787-5.318 6.264-3.532 10.001 7.432 15.548 29.901 15.593 37.355 0 1.786-3.737.205-8.215-3.532-10.001z"/><path d="m308.221 193.523c-3.123-2.722-7.859-2.396-10.582.726-2.304 2.643-6.389 2.643-8.69.001-2.723-3.124-7.46-3.45-10.582-.728-3.123 2.721-3.449 7.458-.729 10.582 8.266 9.487 23.02 9.512 31.31.001 2.721-3.123 2.396-7.86-.727-10.582z"/><g><path d="m446.583 116.189c1.656-8.02-3.191-16.205-11.151-18.535-6.523-1.909-13.291-1.672-19.521.62-.574-7.722-3.931-14.841-9.596-20.253-5.685-5.431-14.522-5.801-20.638-1.192-19.498-23.89-47.531-39.652-78.366-44.044-4.997-15.111-17.714-26.463-33.672-29.575-10.924-2.13-22.144-3.21-33.352-3.21-49.827.179-93.468 20.464-125.302 53.991-2.853 3.004-2.729 7.751.274 10.603 3.006 2.853 7.753 2.728 10.603-.275 29.043-30.586 68.842-49.14 114.425-49.319 10.245 0 20.5.987 30.48 2.933 11.792 2.3 20.917 11.38 23.249 23.132.099.503.248.991.444 1.455 0 0 .25.622.686 1.268 1.206 1.793 3.181 3.052 5.477 3.283.002 0 .004.001.006.001 24.366 2.434 46.987 12.92 64.32 29.424-5.261 3.661-10.678 11.875-11.471 21.536-6.041-2.064-12.553-2.217-18.835-.377-7.961 2.33-12.809 10.516-11.152 18.535-2.744.91-5.089 2.541-6.904 4.614-6.482-3.683-12.48-8.099-17.913-13.217 4.287-11.49 7.389-23.532 9.159-35.97.584-4.101-2.267-7.898-6.368-8.482-4.09-.579-7.898 2.267-8.481 6.368-10.977 77.095-77.228 135.971-156.921 135.971h-32.535c-4.143 0-7.5 3.358-7.5 7.5s3.357 7.5 7.5 7.5h2.472c7.125 20.351 18.918 39.019 34.35 54.258 16.527 16.32 36.931 28.416 59.058 35.048-10.59 10.731-16.767 25.355-16.767 40.929v19.291h-40.184c-23.227 0-45.063-9.045-61.486-25.468-8.935-8.934-8.939-23.396 0-32.333 14.797-14.798 14.799-38.747 0-53.546l-7.531-7.531c-5.256-5.254-5.257-13.766-.001-19.024 5.687-5.686 8.335-11.687 8.335-18.885v-38.414c.406-31.887 8.648-61.177 26.309-88.054 2.275-3.462 1.312-8.112-2.149-10.387-3.46-2.274-8.111-1.312-10.386 2.149-18.778 28.576-28.773 61.93-28.773 96.292v38.414c0 3.162-1.068 5.406-3.941 8.278-11.116 11.118-11.12 29.117 0 40.237l7.531 7.531c8.935 8.933 8.938 23.396 0 32.333-14.797 14.797-14.799 38.747 0 53.546 19.255 19.258 44.858 29.862 72.091 29.862h37.325l-5.123 22.859c-3.214 14.34 1.977 26.356 13.224 30.611 4.903 1.855 9.88 3.433 14.906 4.749v46.281c0 12.407 10.094 22.5 22.5 22.5 5.758 0 11.016-2.177 15-5.748 3.984 3.571 9.242 5.748 15 5.748 12.406 0 22.5-10.093 22.5-22.5v-46.28c5.026-1.317 10.003-2.894 14.906-4.749 11.247-4.256 16.438-16.271 13.224-30.611l-5.123-22.86h37.325c8.755 0 17.485-1.129 25.948-3.357 4.006-1.055 6.398-5.157 5.344-9.162s-5.159-6.399-9.162-5.344c-7.218 1.9-14.663 2.863-22.13 2.863h-40.184v-19.292c0-15.575-6.178-30.2-16.77-40.931 51.299-15.372 89.975-58.916 99.21-111.56 1.541-1.808 3.027-3.876 4.401-6.15 3.604 5.965 7.85 10.664 14.026 13.852v7.294c0 7.198 2.647 13.199 8.333 18.885 5.258 5.258 5.258 13.767 0 19.025l-7.53 7.531c-14.797 14.797-14.799 38.747 0 53.545 8.933 8.935 8.935 23.398 0 32.333-4.311 4.311-9.089 8.176-14.202 11.489-3.477 2.252-4.469 6.896-2.217 10.372 2.255 3.48 6.901 4.467 10.373 2.217 5.995-3.884 11.599-8.417 16.653-13.471 14.794-14.794 14.797-38.746 0-53.546-8.935-8.934-8.938-23.395 0-32.333l7.529-7.53c11.121-11.118 11.12-29.118.001-40.237-4.459-4.459-3.94-6.893-3.94-12.082 9.028-.178 15.229-7.068 15.669-15.008 8.183-.454 14.695-6.928 15.002-15.109.302-8.005-2.51-15.858-7.768-21.849 11.276-4.293 17.96-12.509 20.353-22.328 1.963-8.059-2.702-16.35-10.476-18.928zm-252.036 271.52 2.912-12.992c.118-.528.176-1.102.179-1.597 0-.015.002-.029.002-.043v-22.369c0-5.11.905-10.078 2.581-14.724l12.419 6.873v32.711l-3.455 15.418c-.9 4.018-4.912 6.565-8.925 5.686-4.058-.891-6.621-4.903-5.713-8.963zm13.146-64.733c2.898-3.472 6.348-6.511 10.283-8.96 14.774 2.332 29.84 2.333 44.623 0 3.936 2.449 7.386 5.488 10.284 8.961l-15.78 8.732c-10.528 5.826-23.103 5.827-33.631 0zm25.095 166.524c0 4.136-3.364 7.5-7.5 7.5s-7.5-3.364-7.5-7.5v-43.168c4.978.766 9.984 1.276 15 1.53zm30 0c0 4.136-3.364 7.5-7.5 7.5s-7.5-3.364-7.5-7.5v-41.637c5.016-.255 10.022-.764 15-1.53zm28.494-78.36c.734 3.278 1.826 11.136-3.896 13.301-30.371 11.492-63.824 11.492-94.195 0-5.882-2.225-4.469-10.744-3.896-13.301l.616-2.751c2.167 1.358 4.561 2.369 7.135 2.934 12.066 2.647 24.075-5.009 26.775-17.057l3.637-16.228c.121-.539.182-1.088.182-1.64v-26.97c8.046 2.135 16.651 2.294 25.297 0v26.97c0 .552.061 1.102.182 1.64l3.637 16.228c2.7 12.05 14.71 19.704 26.776 17.057 2.573-.565 4.967-1.575 7.134-2.934zm-8.345-60.432v22.369c0 .509.06 1.099.182 1.64l2.912 12.992c.907 4.056-1.651 8.071-5.713 8.962-4.027.88-8.025-1.669-8.926-5.686l-3.455-15.418v-32.711l12.419-6.873c1.676 4.647 2.581 9.615 2.581 14.725zm-20.865-51.828c-59.269 10.186-117.764-22.008-140.075-78.407h14.065c67.302 0 127.672-38.647 156.407-98.325 6.366 5.421 13.324 10.074 20.8 13.91 2.585 9.372 9.098 17.083 19.71 21.235-5.341 6.007-8.203 13.925-7.9 21.999.309 8.182 6.821 14.655 15.003 15.109.456 8.211 7.234 17.485 22.473 14.4-13.163 45.511-51.553 81.67-100.483 90.079zm180.414-167.314c-1.065 4.373-3.797 8.019-7.691 10.268-2.065 1.192-4.943 2.264-8.104 3.018-9.168 2.186-11.703 14.059-4.212 19.785 5.071 3.877 7.207 8.811 7.007 14.092-.013.358-.467.698-.933.698h-6.554c-4.143 0-7.5 3.358-7.5 7.5v6.554c0 .466-.34.92-.698.934-9.443.353-14.98-6.491-18.778-15.114-3.917-8.891-16.582-8.87-20.489 0-1.862 4.228-4.278 8-6.628 10.35-3.244 3.245-7.541 4.929-12.149 4.765-.359-.014-.699-.467-.699-.934v-6.554c0-4.142-3.357-7.5-7.5-7.5h-6.554c-.467 0-.921-.34-.934-.699-.199-5.283 1.925-10.244 7.107-14.167 7.5-5.682 5.018-17.537-4.115-19.789-7.585-1.869-13.57-5.398-15.473-13.206-.112-.461.217-1.032.665-1.152l6.331-1.696c4.001-1.072 6.375-5.185 5.303-9.186l-1.696-6.332c-.12-.447.21-1.017.666-1.151 4.34-1.27 8.859-.711 12.791 1.559 3.692 2.15 8.207 2.054 11.785-.253 9.857-6.358.121-15.066 9.983-24.489.343-.327 1.002-.329 1.331.001l4.635 4.634c2.93 2.929 7.677 2.928 10.606 0l4.634-4.634c.327-.328.985-.33 1.33 0 3.254 3.108 5.046 7.297 5.046 11.794 0 2.249-1.619 9.06 5.049 13.257 3.654 2.3 8.195 2.305 11.854.008 4.138-2.602 8.892-3.171 13.316-1.877.456.134.786.704.666 1.152l-1.696 6.331c-1.072 4.001 1.302 8.113 5.303 9.186l6.331 1.696c.447.12.776.69.664 1.151z"/></g><path d="m385.036 117c-12.406 0-22.5 10.093-22.5 22.5s10.094 22.5 22.5 22.5 22.5-10.093 22.5-22.5-10.093-22.5-22.5-22.5zm0 30c-4.136 0-7.5-3.364-7.5-7.5s3.364-7.5 7.5-7.5 7.5 3.364 7.5 7.5-3.364 7.5-7.5 7.5z"/></g></g></svg>