<?xml version="1.0" encoding="iso-8859-1"?>
<!-- Generator: Adobe Illustrator 19.0.0, SVG Export Plug-In . SVG Version: 6.00 Build 0)  -->
<svg version="1.1" id="Capa_1" xmlns="http://www.w3.org/2000/svg" xmlns:xlink="http://www.w3.org/1999/xlink" x="0px" y="0px"
	 viewBox="0 0 480.009 480.009" style="enable-background:new 0 0 480.009 480.009;" xml:space="preserve">
<path style="fill:#2E2C44;" d="M351.978,336.009h-72l-40,40l-40-40h-72c-26.51,0-48,21.49-48,48v88h320v-88
	C399.978,357.5,378.487,336.009,351.978,336.009z"/>
<path style="fill:#EACA65;" d="M419.754,368.009c17.673-19.759,15.982-50.104-3.777-67.777c-8.8-7.871-20.192-12.223-31.999-12.223
	h-8c13.255,0,24-10.745,24-24c0-13.255-10.745-24-24-24h-8V139.625c0-68.92-52.968-128.232-121.816-131.472
	C175.552,4.738,115.543,59.21,112.127,129.82c-0.1,2.062-0.15,4.125-0.149,6.189v104h-8c-13.255,0-24,10.745-24,24
	c0,13.255,10.745,24,24,24h-8c-26.51,0-48,21.49-48,48c0,25.208,7.296,45.84,32,47.808v16.192c0,17.673,14.327,32,32,32h40
	c26.51,0,48-21.49,48-48s-21.49-48-48-48h216l24,24v8h24"/>
<path style="fill:#F2DBC0;" d="M320.962,152.009c-14.682-0.002-27.48-9.996-31.04-24.24l-17.944-63.76l-16.424,57.704
	c-4.45,17.795-20.433,30.283-38.776,30.296h-64.8v48c0.007,33.053,18.551,63.31,48,78.32l0,0v57.68l40,40l40-40v-57.68l0,0
	c29.449-15.01,47.993-45.267,48-78.32v-48H320.962z"/>
<path d="M71.978,472.009c0,4.418,3.582,8,8,8h320c4.418,0,8-3.582,8-8v-88c-0.035-30.913-25.087-55.965-56-56h-64v-44.992
	c29.662-17.125,47.953-48.757,48-83.008v-40h8v-16h-23.016c-11.094-0.014-20.738-7.616-23.344-18.4l-17.936-63.76
	c-0.968-3.454-4.117-5.841-7.704-5.84l0,0c-3.575-0.001-6.716,2.37-7.696,5.808l-16.48,57.952
	c-3.559,14.238-16.348,24.23-31.024,24.24h-80.8v16h8v40c0.047,34.251,18.338,65.883,48,83.008v52.992
	c0,2.122,0.844,4.156,2.344,5.656l40,40c3.124,3.123,8.188,3.123,11.312,0l37.656-37.656h68.688c22.08,0.026,39.974,17.92,40,40v80
	h-304v-8h-16V472.009z M159.978,200.009v-40h56.8c21.946,0.052,41.115-14.83,46.504-36.104l8.68-30.52l10.224,36.328
	c4.358,17.432,19.828,29.801,37.792,30.216v40.08c0,44.183-35.817,80-80,80S159.978,244.192,159.978,200.009z M239.978,364.697
	l-32-32v-42.288c20.68,7.466,43.32,7.466,64,0v42.288L239.978,364.697z"/>
<path d="M151.978,424.009h-40c-13.255,0-24-10.745-24-24h-16c0.026,22.08,17.92,39.974,40,40h40c30.928,0,56-25.072,56-56
	s-25.072-56-56-56h-24v16h24c22.091,0,40,17.909,40,40S174.069,424.009,151.978,424.009z"/>
<path d="M401.658,282.913c4.084-5.458,6.3-12.087,6.32-18.904c0-17.673-14.327-32-32-32v-92.384
	c1.094-73.624-55.939-135.073-129.44-139.464C171.514-3.462,107.759,54.42,104.136,129.443c-0.106,2.187-0.158,4.377-0.158,6.566v96
	c-17.673,0-32,14.327-32,32c0.02,6.817,2.236,13.446,6.32,18.904c-29.324,9.83-45.127,41.571-35.297,70.895
	c7.636,22.78,28.952,38.15,52.977,38.201h48v-16h-48c-22.091,0-40-17.909-40-40s17.909-40,40-40h48v-16h-40c-8.837,0-16-7.163-16-16
	c0-8.837,7.163-16,16-16h8c4.418,0,8-3.582,8-8v-104c-0.003-66.274,53.721-120.002,119.995-120.005c1.941,0,3.882,0.047,5.821,0.141
	c64.953,4.012,115.257,58.412,114.184,123.48v100.384c0,4.418,3.582,8,8,8h8c8.837,0,16,7.163,16,16c0,8.837-7.163,16-16,16h-40v16
	h48c22.091,0,40,17.909,39.999,40.001c0,9.838-3.626,19.33-10.183,26.663l11.92,10.672c20.59-23.078,18.573-58.478-4.506-79.068
	c-5.679-5.067-12.331-8.923-19.55-11.332L401.658,282.913z"/>
<path d="M199.978,178.009c-7.732,0-14,6.268-14,14s6.268,14,14,14s14-6.268,14-14C213.969,184.281,207.706,178.018,199.978,178.009z
	 M197.978,192.009c0-1.105,0.895-2,2-2s2,0.895,2,2C201.978,194.209,197.978,194.209,197.978,192.009z"/>
<path d="M279.978,206.009c7.732,0,14-6.268,14-14s-6.268-14-14-14s-14,6.268-14,14C265.987,199.738,272.249,206,279.978,206.009z
	 M279.978,190.009c1.105,0,2,0.895,2,2c0,2.2-4,2.2-4,0C277.978,190.905,278.873,190.009,279.978,190.009z"/>
<path d="M269.978,232.009h-12c0,9.941-8.059,18-18,18s-18-8.059-18-18h-12c0,16.569,13.431,30,30,30
	S269.978,248.578,269.978,232.009z"/>
<g>
</g>
<g>
</g>
<g>
</g>
<g>
</g>
<g>
</g>
<g>
</g>
<g>
</g>
<g>
</g>
<g>
</g>
<g>
</g>
<g>
</g>
<g>
</g>
<g>
</g>
<g>
</g>
<g>
</g>
</svg>
