<?xml version="1.0" encoding="iso-8859-1"?>
<!-- Generator: Adobe Illustrator 19.0.0, SVG Export Plug-In . SVG Version: 6.00 Build 0)  -->
<svg version="1.1" id="Capa_1" xmlns="http://www.w3.org/2000/svg" xmlns:xlink="http://www.w3.org/1999/xlink" x="0px" y="0px"
	 viewBox="0 0 464 464" style="enable-background:new 0 0 464 464;" xml:space="preserve">
<path style="fill:#2E2C44;" d="M344,336h-33.688c-7.599,7.45-16.219,13.783-25.6,18.808l-0.176,0.088
	c-3.08,1.6-6.232,3.144-9.472,4.496c-0.384,0.16-0.8,0.272-1.176,0.432c-2.928,1.184-5.904,2.296-8.952,3.24
	c-0.928,0.28-1.904,0.464-2.84,0.728c-2.56,0.712-5.12,1.432-7.744,1.968c-1.728,0.352-3.512,0.528-5.264,0.8
	c-1.912,0.296-3.792,0.672-5.736,0.864c-7.549,0.768-15.155,0.768-22.704,0c-1.944-0.192-3.824-0.568-5.736-0.864
	c-1.752-0.272-3.536-0.448-5.264-0.8c-2.624-0.536-5.184-1.256-7.744-1.968c-0.936-0.264-1.912-0.448-2.84-0.728
	c-3.064-0.944-6.048-2.064-8.992-3.256c-0.368-0.152-0.8-0.256-1.136-0.416c-3.24-1.352-6.4-2.864-9.472-4.496l-0.176-0.088
	c-9.381-5.025-18.001-11.358-25.6-18.808H120c-26.51,0-48,21.49-48,48v72h320v-72C392,357.49,370.51,336,344,336z"/>
<path style="fill:#F2DBC0;" d="M308.8,133.328c-2.939-11.76-12.271-20.851-24.104-23.48l-0.576-0.128
	c-34.328-7.624-69.912-7.624-104.24,0c-12.129,2.695-21.601,12.167-24.296,24.296L144,186.136V200c0,48.601,39.399,88,88,88
	s88-39.399,88-88v-21.864L308.8,133.328z"/>
<path style="fill:#1C9699;" d="M153.688,336L153.688,336c7.601,7.448,16.22,13.781,25.6,18.808l0.176,0.088
	c3.083,1.637,6.24,3.136,9.472,4.496c0.376,0.16,0.8,0.264,1.136,0.416c2.944,1.192,5.928,2.312,8.992,3.256
	c0.928,0.28,1.904,0.464,2.84,0.728c2.56,0.712,5.12,1.432,7.744,1.968c1.728,0.344,3.504,0.528,5.264,0.8
	c1.904,0.296,3.792,0.672,5.736,0.864c7.549,0.768,15.155,0.768,22.704,0c1.944-0.192,3.832-0.568,5.736-0.864
	c1.76-0.272,3.536-0.456,5.264-0.8c2.624-0.536,5.184-1.256,7.744-1.968c0.936-0.264,1.912-0.448,2.84-0.728
	c3.048-0.944,6.024-2.056,8.952-3.24c0.392-0.16,0.8-0.272,1.176-0.432c3.237-1.349,6.395-2.848,9.472-4.496l0.176-0.088
	c9.38-5.027,17.999-11.36,25.6-18.808H352l-15.68-39.464c5.059-12.917,7.664-26.664,7.68-40.536V120C344,58.144,293.856,8,232,8
	S120,58.144,120,120v136c0.016,13.872,2.621,27.619,7.68,40.536L112,336H153.688 M320,200c0,48.601-39.399,88-88,88
	s-88-39.399-88-88v-13.864l11.584-52.12c2.695-12.129,12.167-21.601,24.296-24.296c34.328-7.624,69.912-7.624,104.24,0l0.576,0.128
	c11.833,2.629,21.165,11.72,24.104,23.48l11.2,44.8V200z"/>
<path d="M358.176,329.888l-13.312-33.52c4.692-12.943,7.106-26.601,7.136-40.368V120C352,53.726,298.274,0,232,0S112,53.726,112,120
	v136c0.03,13.767,2.444,27.425,7.136,40.368l-13.312,33.52C81.218,336.344,64.046,358.561,64,384v72c0,4.418,3.582,8,8,8h320
	c4.418,0,8-3.582,8-8v-72C399.954,358.561,382.782,336.344,358.176,329.888z M340.216,328h-12.448
	c2.831-3.738,5.438-7.641,7.808-11.688L340.216,328z M128,120c0-57.438,46.562-104,104-104s104,46.562,104,104v136
	c0,57.438-46.562,104-104,104s-104-46.562-104-104V120z M136.232,328h-12.448l4.64-11.688
	C130.794,320.359,133.401,324.262,136.232,328z M384,448H80v-64c0.026-22.08,17.92-39.974,40-40h30.696
	c45.806,42.666,116.802,42.666,162.608,0H344c22.08,0.026,39.974,17.92,40,40V448z"/>
<path d="M232,296c52.996-0.057,95.943-43.004,96-96v-48c0-53.019-42.981-96-96-96s-96,42.981-96,96v48
	C136.057,252.996,179.004,295.943,232,296z M232,72c26.286,0.013,50.885,12.95,65.792,34.6c-3.715-2.164-7.741-3.745-11.936-4.688
	c-35.478-7.824-72.234-7.824-107.712,0c-4.329,0.994-8.46,2.706-12.224,5.064C180.809,85.109,205.545,72.016,232,72z M152,187.016
	l11.392-51.264c2.04-9.082,9.128-16.176,18.208-18.224c33.387-7.346,67.976-7.302,101.344,0.128
	c8.887,1.941,15.896,8.768,18.072,17.6L312,179.128V200c0,44.183-35.817,80-80,80s-80-35.817-80-80V187.016z"/>
<path d="M192,198c7.732,0,14-6.268,14-14s-6.268-14-14-14s-14,6.268-14,14C178.009,191.728,184.272,197.991,192,198z M192,182
	c1.105,0,2,0.895,2,2c0,2.2-4,2.2-4,0C190,182.895,190.895,182,192,182z"/>
<path d="M272,198c7.732,0,14-6.268,14-14s-6.268-14-14-14s-14,6.268-14,14C258.009,191.728,264.272,197.991,272,198z M272,182
	c1.105,0,2,0.895,2,2c0,2.2-4,2.2-4,0C270,182.895,270.895,182,272,182z"/>
<path d="M232,254c16.561-0.018,29.982-13.439,30-30h-12c0,9.941-8.059,18-18,18s-18-8.059-18-18h-12
	C202.018,240.561,215.439,253.982,232,254z"/>
<g>
</g>
<g>
</g>
<g>
</g>
<g>
</g>
<g>
</g>
<g>
</g>
<g>
</g>
<g>
</g>
<g>
</g>
<g>
</g>
<g>
</g>
<g>
</g>
<g>
</g>
<g>
</g>
<g>
</g>
</svg>
