<svg id="Layer_1" enable-background="new 0 0 512.002 512.002" height="512" viewBox="0 0 512.002 512.002" width="512" xmlns="http://www.w3.org/2000/svg"><g><g clip-rule="evenodd" fill-rule="evenodd"><path d="m385.617 179.997c-11 0-19.999-8.999-20-19.998h-49.616c-33 0-60-27-60-60 0 33-27 60-60 60h-49.616c0 11-9 20-20 20l-5.384.001c-13.75 0-25 11.25-25 25s11.25 25 25 25h5.384c5.402 70.159 66.45 123.409 136.138 119.835 63.869-3.275 117.999-53.672 123.093-119.835h5.384c13.75 0 25-11.25 25-25s-11.25-25-25-25c-1.794 0-3.589.001-5.383-.003zm-99.799 18.504h41.866c8.15 0 14.817 6.667 14.817 14.817v15.928c0 16.91-13.835 30.745-30.745 30.745h-10.01c-16.91 0-30.745-13.835-30.745-30.745v-15.928c0-8.15 6.667-14.817 14.817-14.817zm-101.501 0h41.866c8.15 0 14.817 6.667 14.817 14.817v15.928c0 16.91-13.835 30.745-30.745 30.745h-10.01c-16.91 0-30.745-13.835-30.745-30.745v-15.928c0-8.15 6.667-14.817 14.817-14.817z" fill="#ffdcd5"/><path d="m241 229.246v-15.928c0-8.15-6.667-14.817-14.817-14.817h-41.866c-8.15 0-14.817 6.667-14.817 14.817v15.928c0 16.91 13.835 30.745 30.745 30.745h10.01c16.91.001 30.745-13.835 30.745-30.745z" fill="#cff5fd"/><path d="m271.001 213.318v15.928c0 16.91 13.835 30.745 30.745 30.745h10.01c16.91 0 30.745-13.835 30.745-30.745v-15.928c0-8.15-6.667-14.817-14.817-14.817h-41.866c-8.15 0-14.817 6.667-14.817 14.817z" fill="#cff5fd"/><path d="m106.384 110h89.617c33 0 60-27 60-60 0-22.001-18-40-40-40h-14.808c-52.145 0-94.809 42.664-94.809 94.809z" fill="#ffc144"/><path d="m256.001 50c0 33 27 60 60 60h89.617v-5.191c0-52.145-42.664-94.809-94.809-94.809h-14.808c-22.001 0-40 18-40 40z" fill="#ffc144"/><path d="m391.001 180c5.446 0 10.499 1.764 14.617 4.75v-1.373-73.377h-89.617c-33 0-60-27-60-60v49.999c0 33 27 60 60 60h49.616c.001 10.999 9.001 19.998 20 19.998 1.794.004 3.589.003 5.384.003z" fill="#ffcd69"/><path d="m196.001 159.999c33 0 60-27 60-60v-49.999c0 33-27 60-60 60h-89.617v34.093 40.657c4.118-2.986 9.171-4.75 14.617-4.75l5.384-.002c11 0 20-9 20-20h49.616z" fill="#ffcd69"/><g fill="#fff"><path d="m256.001 362.276-36.05 30.673-23.26-40.014c-15.872 59.237 22.052 88.478 59.24 88.478h.07z"/><path d="m256.001 362.276v79.136c37.165-.036 75.011-29.168 59.214-88.313l-23.164 39.849z"/><path d="m317.097 352.205c-7.577-3.156-15.444-5.746-23.547-7.713l-.13-.061c-9.909 3.011-20.268 4.861-30.897 5.406-15.228.781-30.044-1.152-43.956-5.381l-.02.013c-8.118 1.966-15.998 4.556-23.589 7.714l1.734.751 23.26 40.014 36.05-30.673 36.05 30.673 23.164-39.849z"/></g><path d="m255.931 441.412c-37.188 0-75.112-29.241-59.24-88.478l-1.733-.751c-57.946 24.113-98.957 81.405-98.957 147.817v2.001h320v-2.001c0-66.393-40.986-123.669-98.904-147.796l-1.883.895c15.797 59.145-22.048 88.276-59.214 88.313-.022 0-.046 0-.069 0z" fill="#8481e2"/></g><g><path d="m388.854 394.229c-17.802-22.288-40.99-39.783-66.942-50.818 38.441-20.629 66.262-58.654 72.682-103.593 17.616-1.805 31.406-16.732 31.406-34.818 0-9.709-3.976-18.505-10.383-24.852v-75.34c.001-57.791-47.017-104.808-104.809-104.808h-14.808c-16.339 0-30.87 7.879-40 20.035-9.129-12.156-23.661-20.035-40-20.035h-14.808c-57.791 0-104.808 47.017-104.808 104.809v75.339c-6.407 6.347-10.384 15.143-10.384 24.852 0 18.086 13.788 33.012 31.405 34.817 4.693 32.958 20.937 62.963 46.344 85.266 8.17 7.172 17.007 13.298 26.339 18.327-25.935 11.028-49.111 28.509-66.909 50.779-23.974 30-37.179 67.578-37.179 105.811v2.001c0 5.523 4.478 10 10 10h320.001c5.522 0 10-4.477 10-10v-2.001c0-38.216-13.192-75.779-37.147-105.771zm-170.528-39.39c8.313 2.339 16.851 3.897 25.523 4.646l-21.265 18.093-11.929-20.522c2.525-.801 5.082-1.543 7.671-2.217zm-7.021 43.135c1.489 2.562 4.037 4.331 6.957 4.831 2.924.5 5.913-.32 8.169-2.24l19.569-16.651v46.675c-13.404-2.229-25.273-8.917-32.882-18.833-5.87-7.65-9.205-17.036-9.962-27.8zm54.695-14.06 19.57 16.651c2.257 1.92 5.244 2.739 8.169 2.24 2.92-.5 5.468-2.27 6.957-4.831l8.015-13.788c-.779 10.683-4.106 20-9.939 27.595-7.58 9.871-19.405 16.538-32.771 18.785v-46.652zm23.418-6.335-21.294-18.118c8.743-.767 17.264-2.333 25.484-4.639 2.612.679 5.192 1.426 7.74 2.234zm101.582-207.579h-.538c-1.609 0-3.216 0-4.824-.003-.007 0-.015 0-.021 0-5.514 0-9.999-4.485-10-9.999 0-5.522-4.478-9.999-10-9.999h-49.617c-27.57 0-50-22.43-50-50v-1.067c12.716 12.991 30.43 21.068 50 21.068h79.617v50.314c-1.512-.2-3.051-.314-4.617-.314zm-45.552 26.013c-4.511-4.629-10.806-7.512-17.764-7.512h-41.866c-11.375 0-20.981 7.696-23.9 18.154h-11.833c-2.919-10.457-12.525-18.154-23.901-18.154h-41.866c-6.958 0-13.253 2.883-17.763 7.512l-19.871-13.969c3.56-3.28 6.34-7.393 7.989-12.045h41.327c25.432 0 47.74-13.634 60-33.975 12.26 20.341 34.568 33.975 60 33.975h41.33c1.65 4.652 4.43 8.764 7.99 12.044zm-12.947 17.305v15.928c0 11.439-9.307 20.746-20.745 20.746h-10.01c-11.438 0-20.745-9.307-20.745-20.746v-15.928c0-2.611 2.206-4.817 4.816-4.817h41.866c2.612 0 4.818 2.206 4.818 4.817zm-101.501 0v15.928c0 11.439-9.307 20.746-20.746 20.746h-10.009c-11.438 0-20.745-9.307-20.745-20.746v-15.928c0-2.611 2.206-4.817 4.816-4.817h41.866c2.612 0 4.818 2.206 4.818 4.817zm65-193.318h14.808c45.149 0 82.162 35.466 84.665 80h-79.473c-27.57 0-50-22.43-50-50 0-16.542 13.458-30 30-30zm-179.616 84.809c0-46.764 38.045-84.809 84.809-84.809h14.807c16.542 0 30 13.458 30 30 0 27.393-22.286 49.821-49.68 49.995-5.522.035-9.972 4.541-9.937 10.063.035 5.501 4.506 9.937 9.999 9.937h.064c19.38-.123 36.928-8.208 49.553-21.12v1.123c0 27.57-22.43 50-50 50h-49.615c-5.522 0-10 4.477-10 10 0 5.514-4.486 10-10.004 10l-5.38.002c-1.566 0-3.104.114-4.616.314zm19.972 124.424c-.401-5.21-4.745-9.232-9.971-9.232h-5.385c-8.271 0-15-6.729-15-15s6.729-15 15.004-15l2.216-.001 36.28 25.503v13.744c0 22.467 18.278 40.746 40.745 40.746h10.009c22.468 0 40.746-18.278 40.746-40.746v-2.591h10.001v2.591c0 22.467 18.278 40.746 40.745 40.746h10.01c22.467 0 40.745-18.278 40.745-40.746v-13.744l36.277-25.502c.561 0 1.119.001 1.684.001h.538c8.271 0 15 6.729 15 15s-6.729 15-15 15h-5.384c-5.225 0-9.569 4.022-9.971 9.232-4.618 59.976-53.471 107.53-113.636 110.616-64.299 3.296-120.703-46.323-125.653-110.617zm47.198 139.423c-2.871 26.57 5.363 44.413 13.698 55.275 11.324 14.759 29.075 24.409 48.748 26.859v41.212h-79.997v-32.743c0-5.523-4.478-10-10-10s-10 4.477-10 10v32.743h-39.793c2.757-52.524 32.541-98.716 77.344-123.346zm182.445 123.346v-32.743c0-5.523-4.478-10-10-10s-10 4.477-10 10v32.743h-79.999v-41.227c19.636-2.474 37.338-12.103 48.634-26.812 8.344-10.865 16.591-28.737 13.676-55.381 44.875 24.615 74.718 70.855 77.481 123.42z"/><path d="m273.866 297.837c3.456 0 6.817-1.794 8.67-5.001 2.762-4.783 1.123-10.898-3.659-13.661-6.945-4.01-14.855-6.13-22.876-6.13s-15.931 2.12-22.876 6.13c-4.782 2.762-6.421 8.878-3.659 13.661 2.761 4.782 8.876 6.42 13.661 3.66 3.908-2.257 8.36-3.45 12.874-3.45s8.966 1.193 12.874 3.45c1.575.908 3.294 1.341 4.991 1.341z"/><path d="m151.387 120c5.522 0 10-4.477 10-10s-4.478-10-10-10h-.007c-5.522 0-9.996 4.477-9.996 10s4.481 10 10.003 10z"/></g></g></svg>