<svg id="Layer_3" height="512" viewBox="0 0 512 512" width="512" xmlns="http://www.w3.org/2000/svg" data-name="Layer 3"><path d="m336 120 8-48s-16-64-80-64h-24c-64 0-72 64-72 64l8 48z" fill="#354458"/><path d="m391.37 344c24-24-8-64-24-88s-8-72-8-72 8.63-88-23.37-88h-160c-32 8-24 88-24 88s8 48-8 72-48 64-24 88" fill="#d88205"/><path d="m504 512v-53l-72-115h-344l-80 115v53z" fill="#3e73a3"/><path d="m328 344v88l-72-48-72 48v-88z" fill="#7293b7"/><path d="m200 240v104l56 40 56-40v-96z" fill="#fdcaa7"/><path d="m200 307.212c52.244 18.922 94.943-7.19 112-20.387v-38.825h-112z" fill="#eaa475"/><path d="m176 96v120c0 3.9 1.424 9.613 4.005 12.537l47.195 53.463a16 16 0 0 0 12.494 6h39.881a16 16 0 0 0 13.2-6.952l39.985-52.762c2.107-2.781 3.248-8.8 3.248-12.286v-120c-16-16-44.1-32-80-32-17.437 0-48.008 8-80.008 32z" fill="#fdcaa7"/><path d="m208 96h-32v128l56 64h40l-64-64z" fill="#f9f2ed" opacity=".3"/><path d="m133.039 472h66.961v40h-66.961z" fill="#7293b7"/><path d="m240 80c-8 24-64 72-64 72v-56l32-24z" fill="#ef8f11"/><path d="m336 96v48c-16-48-96-56-96-56v-8s64-8 96 16" fill="#ef8f11"/><path d="m176 96c.56.557 71.069-104 160 0-11.327-13.247-64-16-80-16a208.308 208.308 0 0 0 -80 16z" fill="#3e73a3"/><path d="m438.78 339.755a8 8 0 0 0 -6.78-3.755h-26.2c3.46-9.628 2.822-20.989-1.989-33.982-5.665-15.3-16.187-30.6-24.643-42.9-1.825-2.655-3.564-5.184-5.145-7.554-5.636-8.454-8.629-22.4-8.656-40.321a176.918 176.918 0 0 1 1.892-25.926q.044-.267.07-.535c.669-6.819 5.975-67.243-13.381-88.589a25.41 25.41 0 0 0 -7.641-5.824l5.283-15.839a8.005 8.005 0 0 0 .171-4.47 107.677 107.677 0 0 0 -17.361-34.86c-17.271-23.028-41.615-35.2-70.4-35.2h-24c-36.725 0-56.588 19.446-66.784 35.76a95.725 95.725 0 0 0 -13.154 35.248 8.022 8.022 0 0 0 .349 3.522l5.689 17.07c-28.656 17.747-22.88 84.994-22.059 93.2.017.171.04.346.068.515a177.112 177.112 0 0 1 1.891 25.927c-.027 17.924-3.021 31.867-8.656 40.321-1.58 2.37-3.319 4.9-5.145 7.554-8.455 12.3-18.978 27.6-24.643 42.9-4.811 12.993-5.449 24.355-1.989 33.982h-17.567a8 8 0 0 0 -6.567 3.432l-80 115a8 8 0 0 0 -1.433 4.569v53h16v-50.491l76.18-109.509h105.256l44.482 31.773-49.918 33.279v-57.052h-16v72a8 8 0 0 0 12.438 6.656l59.562-39.708v113.052h16v-113.052l59.563 39.708a8 8 0 0 0 12.437-6.656v-80h91.57l68.43 109.3v50.7h16v-53a8 8 0 0 0 -1.22-4.245zm-78.066-79.317c1.632 2.447 3.4 5.02 5.271 7.743 18.368 26.716 33.752 51.99 21.748 67.819h-16.356a66.976 66.976 0 0 0 -.177-10.8c-1.555-15.546-8.65-27.946-20.522-35.86a4.4 4.4 0 0 0 -.793-.469c-1.315-.771-9.411-6.277-4.055-22.345l-15.18-5.061c-7.879 23.638 3.774 37.215 11.478 41.406 13.2 9.044 13.986 24.561 13.254 33.124h-35.382v-77.637l19.128-25.24c3.853-5.086 4.872-13.418 4.872-17.118v-106.521c9.136 14.506 9.516 51.815 7.433 73.492-.733 4.553-7.78 51.876 9.281 77.467zm-152.857-12.438-21.857-24.757c-.787-.892-2-4.4-2-7.243v-60.348c3.439-3.01 9.241-8.177 16-14.566v2.914h28.687l5.656 5.657 11.314-11.313-8-8a8 8 0 0 0 -5.657-2.344h-18.64c10.048-10.234 20.248-21.642 27.1-31.889 9.768 1.243 73.533 10.8 87.54 49.279v70.61c0 2.546-.943 6.438-1.624 7.454l-39.985 52.763c-.076.1-.15.2-.222.308a8 8 0 0 1 -6.6 3.476h-39.879a7.959 7.959 0 0 1 -6.247-3c-.08-.1-.164-.2-.25-.3l-25.193-28.539v-.162zm120.143-131.517c-12.949-13.212-30.64-21.773-46.714-27.255 4.944.429 10.16.992 15.347 1.726 19.771 2.8 28.054 6.524 31.367 8.682zm-72-44.483a215.205 215.205 0 0 0 -51.617 6.238c15.949-12.982 33.075-20.053 49.877-20.327.349-.005.7-.008 1.045-.008 15.981 0 32.028 5.979 47.957 17.83a330.931 330.931 0 0 0 -47.262-3.733zm-30.979 18.409c-10.068 13.845-27.531 31.206-41.021 43.691v-32.689a198.9 198.9 0 0 1 41.021-11.002zm-38.237-46.169c11.716-18.74 29.616-28.24 53.216-28.24h24c23.7 0 42.972 9.545 57.276 28.372a95.331 95.331 0 0 1 14.34 27.48l-2.894 8.68c-24.922-25.645-50.906-38.632-77.4-38.632-.439 0-.884 0-1.323.011-26.091.425-52.319 13.9-74.863 38.2l-2.925-8.776a81.143 81.143 0 0 1 10.573-27.095zm-41.4 223.94c1.872-2.724 3.64-5.3 5.271-7.743 17.072-25.608 10-72.978 9.28-77.476-1.849-18.821-1.434-54.009 8.063-70.542v103.581c0 5.488 1.857 13.13 6.008 17.832l17.994 20.381v81.787h-33.143c-.733-8.572.055-24.115 13.3-33.153a27.479 27.479 0 0 0 9.705-9.73c3.6-6 6.823-16.363 1.729-31.646l-15.18 5.061c5.356 16.067-2.739 21.574-4.055 22.345a4.4 4.4 0 0 0 -.793.469c-11.872 7.914-18.968 20.314-20.522 35.86a66.948 66.948 0 0 0 -.177 10.8h-19.227c-12.005-15.835 3.38-41.106 21.748-67.825zm62.616 4.158 13.082 14.819a23.882 23.882 0 0 0 18.608 8.843h39.881a23.989 23.989 0 0 0 19.674-10.255l4.755-6.274v60.47l-43.375 31.73a7.972 7.972 0 0 1 -8.682-.4l-43.943-31.388zm112 144.714-49.343-32.9 43.957-32.152h5.386z"/><path d="m288 464h16v16h-16z"/><path d="m288 488h16v16h-16z"/><path d="m208 512v-40a8 8 0 0 0 -8-8h-66.961a8 8 0 0 0 -8 8v40h16v-32h50.961v32z"/><path d="m216 152h16v16h-16z"/><path d="m280 152h16v16h-16z"/><path d="m260 252a28.031 28.031 0 0 0 28-28h-16a12 12 0 0 1 -24 0h-16a28.031 28.031 0 0 0 28 28z"/><path d="m283.313 144h28.687v-16h-32a8 8 0 0 0 -5.657 2.343l-8 8 11.314 11.313z"/><circle cx="208" cy="192" r="8"/><circle cx="304" cy="192" r="8"/><path d="m112 435.719-20.437 13.625a8 8 0 0 0 -3.563 6.656v56h16v-51.719l20.438-13.625a8 8 0 0 0 3.562-6.656v-32h-16z"/><path d="m384 408v32a8 8 0 0 0 3.563 6.656l20.437 13.625v51.719h16v-56a8 8 0 0 0 -3.562-6.656l-20.438-13.625v-27.719z"/><path d="m248 208h24v-16h-13.754l5.515-22.06a7.975 7.975 0 0 0 .239-1.94v-8h-16v7.015l-7.761 31.044a8 8 0 0 0 7.761 9.941z"/></svg>