<svg id="Capa_1" enable-background="new 0 0 511.996 511.996" height="512" viewBox="0 0 511.996 511.996" width="512" xmlns="http://www.w3.org/2000/svg"><g><g><path d="m416.841 435.629c-8.278 0-16.383-2.874-22.822-8.093-7.533-6.1-12.241-14.77-13.255-24.411-1.015-9.642 1.787-19.102 7.89-26.636 24.865-30.689 38.008-67.841 38.008-107.44 0-93.12-74.88-169.08-167.59-170.829l.958 1.74c5.107 9.274 4.888 20.217-.585 29.275-5.474 9.058-15.053 14.333-25.641 14.134l-96.804-1.951c-10.583-.215-19.948-5.877-25.055-15.146s-4.887-20.212.586-29.271l50.07-82.86c5.477-9.063 15.089-14.346 25.654-14.135 10.583.212 19.949 5.874 25.055 15.146l7.163 13.004c11.66-1.697 23.519-2.556 35.327-2.556 36.249 0 71.051 7.715 103.439 22.932 3.749 1.761 5.36 6.228 3.599 9.977s-6.228 5.361-9.977 3.599c-30.377-14.272-63.033-21.508-97.06-21.508-12.763 0-25.587 1.069-38.116 3.176-3.148.53-6.276-.987-7.813-3.777l-9.7-17.61c-2.49-4.521-7.057-7.281-12.217-7.385-5.183-.104-9.844 2.474-12.515 6.895l-50.07 82.86c-2.669 4.418-2.776 9.755-.286 14.276s7.059 7.282 12.219 7.386l96.799 1.95c5.164.097 9.834-2.476 12.504-6.894s2.776-9.756.285-14.28l-6.959-12.628c-1.247-2.263-1.242-5.008.015-7.266 1.256-2.258 3.586-3.71 6.166-3.844 3.512-.182 6.681-.27 9.688-.27 102.483 0 185.86 83.376 185.86 185.86 0 43.076-14.299 83.493-41.353 116.882-3.579 4.419-5.223 9.968-4.627 15.625s3.358 10.745 7.78 14.326c3.833 3.107 8.459 4.748 13.38 4.748 6.46 0 12.498-2.877 16.564-7.893 32.788-40.475 50.846-91.504 50.846-143.688 0-61.019-23.764-118.387-66.913-161.537-11.92-11.92-25.083-22.497-39.125-31.437-3.494-2.225-4.523-6.86-2.299-10.355s6.861-4.523 10.354-2.299c14.962 9.526 28.983 20.791 41.675 33.483 45.983 45.983 71.307 107.118 71.307 172.143 0 55.609-19.246 109.992-54.192 153.131-6.928 8.55-17.212 13.451-28.217 13.451z"/><path d="m270.236 511.996c-18.983 0-34.875-14.848-36.181-33.802-1.377-19.962 13.744-37.324 33.707-38.702 9.669-.663 19.025 2.473 26.337 8.841 7.312 6.369 11.707 15.203 12.375 24.875 1.376 19.964-13.749 37.326-33.716 38.703-.79.056-1.622.085-2.522.085zm-1.442-57.539c-11.711.808-20.583 10.994-19.774 22.706.766 11.122 10.085 19.833 21.216 19.833.538 0 1.018-.016 1.468-.048 5.697-.393 10.88-2.97 14.617-7.259 3.736-4.289 5.579-9.775 5.188-15.449s-2.97-10.857-7.261-14.595c-4.291-3.736-9.774-5.581-15.454-5.188z"/><path d="m186.637 500.669c-4.131 0-8.204-.7-12.107-2.079-18.869-6.692-28.782-27.477-22.105-46.335 6.678-18.863 27.466-28.772 46.333-22.093h.001c18.859 6.681 28.77 27.461 22.091 46.324-5.123 14.465-18.872 24.183-34.213 24.183zm.02-57.59c-8.772 0-17.005 5.459-20.093 14.183-3.917 11.065 1.902 23.263 12.973 27.189 2.286.808 4.677 1.219 7.101 1.219 9 0 17.067-5.703 20.073-14.19 3.918-11.065-1.896-23.257-12.959-27.177-2.345-.83-4.74-1.224-7.095-1.224z"/><path d="m351.502 489.124c-13.585 0-25.923-7.477-32.2-19.514-9.254-17.747-2.349-39.711 15.391-48.961 17.737-9.259 39.704-2.356 48.969 15.387 9.255 17.75 2.35 39.714-15.39 48.965-5.233 2.734-10.877 4.123-16.77 4.123zm-.056-57.59c-3.316 0-6.677.775-9.814 2.414-.001 0-.002.001-.003.002-10.407 5.426-14.456 18.312-9.026 28.725 3.683 7.062 10.925 11.449 18.9 11.449 3.449 0 6.756-.814 9.829-2.42 10.412-5.43 14.461-18.316 9.032-28.729-3.798-7.272-11.234-11.441-18.918-11.441zm-13.286-4.235h.01z"/><path d="m114.531 456.859c-7.291 0-14.323-2.16-20.336-6.247-3.426-2.329-4.315-6.993-1.987-10.419s6.994-4.314 10.419-1.987c3.516 2.39 7.632 3.653 11.904 3.653 5.969 0 11.5-2.406 15.575-6.775 3.883-4.159 5.911-9.578 5.713-15.263-.198-5.687-2.599-10.956-6.762-14.836-4.158-3.879-9.567-5.906-15.263-5.707-5.686.198-10.951 2.597-14.827 6.754-3.36 3.605-5.319 8.086-5.666 12.958-.293 4.131-3.888 7.247-8.012 6.95-4.132-.293-7.244-3.881-6.95-8.012.583-8.212 4.012-16.068 9.655-22.123 6.608-7.09 15.586-11.181 25.278-11.518 9.693-.336 18.928 3.117 26.015 9.727 7.093 6.612 11.186 15.592 11.523 25.285.337 9.692-3.121 18.932-9.737 26.018-6.839 7.335-16.515 11.542-26.542 11.542z"/><path d="m65.798 387.989c-14.449 0-27.516-8.561-33.289-21.809-7.986-18.35.441-39.78 18.785-47.774 8.891-3.87 18.754-4.045 27.776-.498 9.023 3.549 16.123 10.398 19.99 19.287 3.873 8.887 4.052 18.749.505 27.771-3.547 9.023-10.396 16.123-19.285 19.991-4.616 2.012-9.49 3.032-14.482 3.032zm-.021-57.611c-2.886 0-5.768.594-8.494 1.78-10.761 4.69-15.707 17.266-11.021 28.033 3.387 7.773 11.057 12.798 19.537 12.798 2.918 0 5.775-.601 8.492-1.785 5.217-2.27 9.234-6.434 11.314-11.727 2.081-5.293 1.975-11.08-.297-16.294 0-.001-.001-.003-.001-.004-2.269-5.213-6.433-9.231-11.726-11.313-2.528-.992-5.169-1.488-7.804-1.488z"/><path d="m49.049 306.156c-14.449 0-27.516-8.561-33.289-21.809-7.986-18.35.441-39.779 18.784-47.774 18.356-7.986 39.783.441 47.767 18.789 3.872 8.884 4.052 18.748.505 27.771s-10.396 16.124-19.285 19.992c-4.618 2.011-9.49 3.031-14.482 3.031zm-.044-57.599c-2.833 0-5.711.568-8.471 1.769-10.761 4.69-15.707 17.266-11.021 28.033 3.387 7.773 11.057 12.798 19.537 12.798 2.919 0 5.776-.6 8.492-1.784.001 0 .002-.001.004-.001 5.213-2.269 9.23-6.433 11.311-11.726s1.975-11.08-.297-16.294c-3.486-8.009-11.333-12.795-19.555-12.795z"/></g></g></svg>