<svg xmlns="http://www.w3.org/2000/svg" xmlns:xlink="http://www.w3.org/1999/xlink" width="547.805" height="441.157" viewBox="0 0 547.805 441.157">
  <defs>
    <linearGradient id="linear-gradient" x1="0.5" y1="1" x2="0.5" gradientUnits="objectBoundingBox">
      <stop offset="0" stop-color="gray" stop-opacity="0.251"/>
      <stop offset="0.54" stop-color="gray" stop-opacity="0.122"/>
      <stop offset="1" stop-color="gray" stop-opacity="0.102"/>
    </linearGradient>
    <linearGradient id="linear-gradient-2" x1="0.5" y1="1" x2="0.5" y2="0" xlink:href="#linear-gradient"/>
    <linearGradient id="linear-gradient-3" x1="0.5" y1="1" x2="0.5" y2="0" xlink:href="#linear-gradient"/>
  </defs>
  <g id="home" transform="translate(16.487 -4.658)">
    <g id="Gloor" transform="translate(-16.487 4.658)">
      <path id="Path_3" data-name="Path 3" d="M300.562,578.413c-6.713-10.215-48.934-74.608-25.071-140.328,22.749-62.684,90.677-85.392,132.357-99.308,25.294-8.444,110.531-33.05,202.035,6.325,30,12.9,77.791,33.461,105.885,85.582,24.34,45.131,32.2,110.789-.254,163.321-36.971,59.9-106.363,70.4-148.9,76.853C489.393,682.56,361.141,670.827,300.562,578.413Z" transform="translate(-223.927 -317.244)" fill="#fff"/>
      <path id="Path_4" data-name="Path 4" d="M150,15" transform="translate(-150 -15)" fill="#f2f2f2"/>
    </g>
    <path id="Path_795" data-name="Path 795" d="M257.74,0c142.346,0,257.74,7.041,257.74,15.727S400.086,31.455,257.74,31.455,0,24.413,0,15.727,115.394,0,257.74,0Z" transform="matrix(0.998, -0.055, 0.055, 0.998, 14.887, 414.408)" fill="#2b3647"/>
    <g id="Group_358" data-name="Group 358" transform="translate(314.488 195.868)" opacity="0.1">
      <path id="Path_629" data-name="Path 629" d="M645.86,516.606s15.388-36.451,44.121-49.974a60.991,60.991,0,0,0,28.146-26.264,98.312,98.312,0,0,0,7.039-17.037" transform="translate(-642.081 -401.119)" fill="none" stroke="#535461" stroke-miterlimit="10" stroke-width="2"/>
      <path id="Path_630" data-name="Path 630" d="M810.7,395.708c-2.991,3.622-18.5,8.9-18.5,8.9s1.87-15.711,4.851-19.328a8.958,8.958,0,0,1,12.246-1.342,8.155,8.155,0,0,1,1.4,11.766Z" transform="translate(-709.547 -382.12)" fill="#6de4b1"/>
      <path id="Path_631" data-name="Path 631" d="M799.062,446.562c-4.56,1.471-20.562-2.194-20.562-2.194s10.451-12.208,15.011-13.685a8.8,8.8,0,0,1,11.033,5.271,8.3,8.3,0,0,1-5.481,10.607Z" transform="translate(-703.231 -404.306)" fill="#6de4b1"/>
      <path id="Path_632" data-name="Path 632" d="M748.941,509.283c-4.711-.938-16.6-11.858-16.6-11.858s15.447-5.481,20.147-4.522a8.381,8.381,0,0,1,6.753,9.9A8.709,8.709,0,0,1,748.941,509.283Z" transform="translate(-681.951 -433.142)" fill="#6de4b1"/>
      <path id="Path_633" data-name="Path 633" d="M695.729,547.879c-4.808-.162-18.449-9-18.449-9s14.251-7.9,19.058-7.74a8.382,8.382,0,1,1-.609,16.741Z" transform="translate(-656.567 -450.819)" fill="#6de4b1"/>
      <path id="Path_634" data-name="Path 634" d="M750.808,429.369c.614,4.587,11.033,16.822,11.033,16.822s6.861-14.375,6.247-18.961a8.656,8.656,0,0,0-9.755-7.238A8.441,8.441,0,0,0,750.808,429.369Z" transform="translate(-690.431 -399.548)" fill="#6de4b1"/>
      <path id="Path_635" data-name="Path 635" d="M690.418,473.414c2.016,4.2,15.765,12.876,15.765,12.876s2.075-15.69.059-19.888a8.866,8.866,0,0,0-11.556-4.075,8.246,8.246,0,0,0-4.269,11.087Z" transform="translate(-662.267 -418.735)" fill="#6de4b1"/>
      <path id="Path_636" data-name="Path 636" d="M639.13,527.034c1.245,4.468,13.275,15.253,13.275,15.253s4.8-15.124,3.552-19.592a8.765,8.765,0,0,0-10.672-5.929,8.343,8.343,0,0,0-6.155,10.268Z" transform="translate(-638.85 -444.063)" fill="#6de4b1"/>
      <path id="Path_637" data-name="Path 637" d="M810.7,395.708c-2.991,3.622-18.5,8.9-18.5,8.9s1.87-15.711,4.851-19.328a8.958,8.958,0,0,1,12.246-1.342,8.155,8.155,0,0,1,1.4,11.766Z" transform="translate(-709.547 -382.12)" fill="#6de4b1" opacity="0.25"/>
      <path id="Path_638" data-name="Path 638" d="M799.062,446.562c-4.56,1.471-20.562-2.194-20.562-2.194s10.451-12.208,15.011-13.685a8.8,8.8,0,0,1,11.033,5.271,8.3,8.3,0,0,1-5.481,10.607Z" transform="translate(-703.231 -404.306)" fill="#6de4b1" opacity="0.25"/>
      <path id="Path_639" data-name="Path 639" d="M748.941,509.283c-4.711-.938-16.6-11.858-16.6-11.858s15.447-5.481,20.147-4.522a8.381,8.381,0,0,1,6.753,9.9A8.709,8.709,0,0,1,748.941,509.283Z" transform="translate(-681.951 -433.142)" fill="#6de4b1" opacity="0.25"/>
      <path id="Path_640" data-name="Path 640" d="M695.729,547.879c-4.808-.162-18.449-9-18.449-9s14.251-7.9,19.058-7.74a8.382,8.382,0,1,1-.609,16.741Z" transform="translate(-656.567 -450.819)" fill="#6de4b1" opacity="0.25"/>
      <path id="Path_641" data-name="Path 641" d="M750.808,429.369c.614,4.587,11.033,16.822,11.033,16.822s6.861-14.375,6.247-18.961a8.656,8.656,0,0,0-9.755-7.238A8.441,8.441,0,0,0,750.808,429.369Z" transform="translate(-690.431 -399.548)" fill="#6de4b1" opacity="0.25"/>
      <path id="Path_642" data-name="Path 642" d="M690.418,473.414c2.016,4.2,15.765,12.876,15.765,12.876s2.075-15.69.059-19.888a8.866,8.866,0,0,0-11.556-4.075,8.246,8.246,0,0,0-4.269,11.087Z" transform="translate(-662.267 -418.735)" fill="#6de4b1" opacity="0.25"/>
      <path id="Path_643" data-name="Path 643" d="M639.13,527.034c1.245,4.468,13.275,15.253,13.275,15.253s4.8-15.124,3.552-19.592a8.765,8.765,0,0,0-10.672-5.929,8.343,8.343,0,0,0-6.155,10.268Z" transform="translate(-638.85 -444.063)" fill="#6de4b1" opacity="0.25"/>
    </g>
    <g id="Group_359" data-name="Group 359" transform="translate(313.765 117.866)" opacity="0.1">
      <path id="Path_644" data-name="Path 644" d="M667.23,397.1s1.94-39.3,24.383-61.212a58.8,58.8,0,0,0,17.49-33.751,96.7,96.7,0,0,0,.776-18.325" transform="translate(-651.211 -258.796)" fill="none" stroke="#535461" stroke-miterlimit="10" stroke-width="2"/>
      <path id="Path_645" data-name="Path 645" d="M758.033,248.5c-1.579,4.366-14.385,14.294-14.385,14.294s-3.643-15.372-2.08-19.764a8.774,8.774,0,0,1,11.087-5.163,8.3,8.3,0,0,1,5.379,10.634Z" transform="translate(-685.302 -237.399)" fill="#45bd89"/>
      <path id="Path_646" data-name="Path 646" d="M764.242,298.547c-3.773,2.846-20.152,4.49-20.152,4.49s5.643-14.854,9.438-17.695a8.947,8.947,0,0,1,12.229,1.455,8.155,8.155,0,0,1-1.515,11.75Z" transform="translate(-686.645 -258.684)" fill="#45bd89"/>
      <path id="Path_647" data-name="Path 647" d="M735.789,373.459c-4.77.614-19.759-5.929-19.759-5.929s12.677-10.084,17.441-10.693a8.659,8.659,0,0,1,9.793,7.185A8.474,8.474,0,0,1,735.789,373.459Z" transform="translate(-673.709 -292.428)" fill="#45bd89"/>
      <path id="Path_648" data-name="Path 648" d="M699.818,426.808c-4.592,1.38-20.508-2.614-20.508-2.614s10.72-11.992,15.312-13.372a8.783,8.783,0,0,1,10.914,5.492,8.322,8.322,0,0,1-5.719,10.494Z" transform="translate(-656.78 -317.174)" fill="#45bd89"/>
      <path id="Path_649" data-name="Path 649" d="M710.675,300.177c2.156,4.129,16.213,12.348,16.213,12.348s1.515-15.744-.647-19.878a8.877,8.877,0,0,0-11.7-3.714,8.219,8.219,0,0,0-3.87,11.243Z" transform="translate(-670.817 -260.739)" fill="#45bd89"/>
      <path id="Path_650" data-name="Path 650" d="M668.9,360.991c3.347,3.32,19.312,7.12,19.312,7.12s-3.455-15.458-6.8-18.778a8.963,8.963,0,0,0-12.321-.183,8.144,8.144,0,0,0-.189,11.841Z" transform="translate(-650.845 -287.829)" fill="#45bd89"/>
      <path id="Path_651" data-name="Path 651" d="M639.008,427.944c2.695,3.816,17.786,10.16,17.786,10.16s-.7-15.8-3.39-19.619a8.942,8.942,0,0,0-12.111-2.156,8.176,8.176,0,0,0-2.285,11.615Z" transform="translate(-637.509 -319.21)" fill="#45bd89"/>
    </g>
    <ellipse id="Ellipse_25" data-name="Ellipse 25" cx="9.729" cy="1.337" rx="9.729" ry="1.337" transform="translate(206.158 369.268)" fill="#6c63ff" opacity="0.1"/>
    <ellipse id="Ellipse_26" data-name="Ellipse 26" cx="9.729" cy="1.337" rx="9.729" ry="1.337" transform="translate(168.893 373.047)" fill="#6c63ff" opacity="0.1"/>
    <ellipse id="Ellipse_27" data-name="Ellipse 27" cx="9.729" cy="1.337" rx="9.729" ry="1.337" transform="translate(124.999 367.932)" fill="#6c63ff" opacity="0.1"/>
    <ellipse id="Ellipse_28" data-name="Ellipse 28" cx="6.915" cy="0.949" rx="6.915" ry="0.949" transform="translate(186.62 384.193)" fill="#6c63ff" opacity="0.1"/>
    <ellipse id="Ellipse_29" data-name="Ellipse 29" cx="6.915" cy="0.949" rx="6.915" ry="0.949" transform="translate(147.943 383.244)" fill="#6c63ff" opacity="0.1"/>
    <path id="Path_652" data-name="Path 652" d="M350.935,649.589s13.642-44.735-2.156-62.64c-11.8-13.4-25.2-11.8-31.2-10.138a11.065,11.065,0,0,0-7.158,5.929c-2.1,4.527-1.719,11.858,13.086,20.449,24.793,14.353,26.34,34.047,26.34,34.047Z" transform="translate(-172.524 -275.507)" fill="#6de4b1"/>
    <path id="Path_653" data-name="Path 653" d="M328.49,589.51s40.219,12.574,31.2,66.435" transform="translate(-181.28 -281.863)" fill="none" stroke="#565987" stroke-miterlimit="10" stroke-width="1"/>
    <path id="Path_654" data-name="Path 654" d="M368.547,597.87s-5.535,3.735-3.773,9.341" transform="translate(-197.848 -285.717)" fill="none" stroke="#565987" stroke-miterlimit="10" stroke-width="1"/>
    <path id="Path_655" data-name="Path 655" d="M336,602.191s3.385-3.444,7.5-1.542" transform="translate(-184.742 -286.735)" fill="none" stroke="#565987" stroke-miterlimit="10" stroke-width="1"/>
    <path id="Path_656" data-name="Path 656" d="M365.47,635.193s5.929-3.018,7.481.76" transform="translate(-198.328 -302.398)" fill="none" stroke="#565987" stroke-miterlimit="10" stroke-width="1"/>
    <path id="Path_657" data-name="Path 657" d="M388.874,647.821s-4.463-.356-4.544,1.779" transform="translate(-207.023 -308.735)" fill="none" stroke="#565987" stroke-miterlimit="10" stroke-width="1"/>
    <path id="Path_658" data-name="Path 658" d="M366.782,686.22s-15.975-32.506-20.368-31.8c-2.08.34-3.045,2.388-3.476,4.452a13.092,13.092,0,0,0,.868,7.912C346.085,671.975,352.165,681.871,366.782,686.22Z" transform="translate(-187.821 -311.783)" fill="#45bd89"/>
    <path id="Path_659" data-name="Path 659" d="M349.83,665.89s16.8,24.313,20.034,25.391" transform="translate(-191.118 -317.076)" fill="none" stroke="#565987" stroke-miterlimit="10" stroke-width="1"/>
    <line id="Line_2" data-name="Line 2" x2="3.913" transform="translate(157.17 352.609)" fill="none" stroke="#565987" stroke-miterlimit="10" stroke-width="1"/>
    <line id="Line_3" data-name="Line 3" x2="6.139" y2="0.264" transform="translate(161.86 361.507)" fill="none" stroke="#565987" stroke-miterlimit="10" stroke-width="1"/>
    <line id="Line_4" data-name="Line 4" x1="0.668" y2="3.196" transform="translate(164.926 354.387)" fill="none" stroke="#565987" stroke-miterlimit="10" stroke-width="1"/>
    <line id="Line_5" data-name="Line 5" x1="0.119" y2="2.905" transform="translate(172.003 364.116)" fill="none" stroke="#565987" stroke-miterlimit="10" stroke-width="1"/>
    <path id="Path_660" data-name="Path 660" d="M386.52,686.22s15.981-32.506,20.373-31.8c2.08.34,3.045,2.388,3.476,4.452a13.092,13.092,0,0,1-.868,7.912C407.26,671.975,401.143,681.871,386.52,686.22Z" transform="translate(-208.033 -311.783)" fill="#45bd89"/>
    <path id="Path_661" data-name="Path 661" d="M406.991,665.89S390.234,690.2,387,691.281" transform="translate(-208.254 -317.076)" fill="none" stroke="#565987" stroke-miterlimit="10" stroke-width="1"/>
    <line id="Line_6" data-name="Line 6" x1="3.913" transform="translate(196.365 352.609)" fill="none" stroke="#565987" stroke-miterlimit="10" stroke-width="1"/>
    <line id="Line_7" data-name="Line 7" x1="6.134" y2="0.264" transform="translate(189.455 361.507)" fill="none" stroke="#565987" stroke-miterlimit="10" stroke-width="1"/>
    <line id="Line_8" data-name="Line 8" x2="0.663" y2="3.196" transform="translate(191.859 354.387)" fill="none" stroke="#565987" stroke-miterlimit="10" stroke-width="1"/>
    <line id="Line_9" data-name="Line 9" x2="0.119" y2="2.905" transform="translate(185.332 364.116)" fill="none" stroke="#565987" stroke-miterlimit="10" stroke-width="1"/>
    <path id="Path_662" data-name="Path 662" d="M334.807,723.759a2.791,2.791,0,0,1-.911-1.374,1.213,1.213,0,0,1,.636-1.4c.582-.226,1.207.178,1.682.588a2.236,2.236,0,0,0,1.617.787,2.5,2.5,0,0,1-.771-2.328.987.987,0,0,1,.216-.469c.323-.35.911-.2,1.3.075,1.234.868,1.579,2.544,1.585,4.048a7.469,7.469,0,0,0,0-1.665,1.709,1.709,0,0,1,.631-1.477,1.865,1.865,0,0,1,.954-.226,1.978,1.978,0,0,1,1.552.442,1.547,1.547,0,0,1-.059,1.9,6.036,6.036,0,0,1-1.617,1.288,3.535,3.535,0,0,0-1.148,1.078.788.788,0,0,0-.086.194h-3.476A9.855,9.855,0,0,1,334.807,723.759Z" transform="translate(-183.754 -341.727)" fill="#6de4b1"/>
    <path id="Path_663" data-name="Path 663" d="M447.777,699.469a2.791,2.791,0,0,1-.911-1.374,1.213,1.213,0,0,1,.636-1.4c.582-.226,1.207.178,1.682.587a2.236,2.236,0,0,0,1.617.787,2.485,2.485,0,0,1-.771-2.328.986.986,0,0,1,.216-.469c.323-.35.911-.2,1.3.075,1.234.868,1.579,2.544,1.585,4.048a7.471,7.471,0,0,0,0-1.665,1.714,1.714,0,0,1,.625-1.477,1.881,1.881,0,0,1,.959-.226,1.983,1.983,0,0,1,1.552.442,1.541,1.541,0,0,1-.065,1.9,5.926,5.926,0,0,1-1.617,1.288,3.465,3.465,0,0,0-1.143,1.078.787.787,0,0,0-.086.194h-3.476a9.7,9.7,0,0,1-2.1-1.466Z" transform="translate(-235.835 -330.529)" fill="#45bd89"/>
    <path id="Path_664" data-name="Path 664" d="M410.127,723.759a2.791,2.791,0,0,1-.911-1.374,1.213,1.213,0,0,1,.636-1.4c.582-.226,1.207.178,1.682.588a2.236,2.236,0,0,0,1.617.787,2.485,2.485,0,0,1-.771-2.328.986.986,0,0,1,.216-.469c.323-.35.911-.2,1.3.075,1.234.868,1.579,2.544,1.585,4.048a7.47,7.47,0,0,0,0-1.665,1.714,1.714,0,0,1,.625-1.477,1.881,1.881,0,0,1,.959-.226,1.984,1.984,0,0,1,1.552.442,1.542,1.542,0,0,1-.065,1.9,5.928,5.928,0,0,1-1.617,1.288,3.466,3.466,0,0,0-1.143,1.078.787.787,0,0,0-.086.194h-3.476A9.7,9.7,0,0,1,410.127,723.759Z" transform="translate(-218.478 -341.727)" fill="#45bd89"/>
    <path id="Path_665" data-name="Path 665" d="M301.655,678.42s-1.3,1.7.6,4.274,3.476,4.748,2.84,6.349c0,0-2.873-4.775-5.217-4.851S299.085,681.293,301.655,678.42Z" transform="translate(-167.559 -322.852)" fill="#6de4b1"/>
    <path id="Path_666" data-name="Path 666" d="M301.655,678.42a2.015,2.015,0,0,0-.264.539c-2.285,2.695-3.5,5.185-1.3,5.244,2.043.059,4.5,3.714,5.083,4.641a.578.578,0,0,1-.07.2c-.027.065-2.873-4.775-5.217-4.851S299.085,681.293,301.655,678.42Z" transform="translate(-167.559 -322.852)" opacity="0.1"/>
    <path id="Path_667" data-name="Path 667" d="M299.67,682.12c0,.6.065,1.078.146,1.078s.151-.485.151-1.078-.081-.318-.167-.318S299.67,681.517,299.67,682.12Z" transform="translate(-167.993 -324.381)" fill="#ffd037"/>
    <path id="Path_668" data-name="Path 668" d="M297.846,683.428c.539.286.986.458,1.029.383s-.356-.361-.884-.647-.318-.081-.361,0S297.323,683.137,297.846,683.428Z" transform="translate(-167.005 -324.972)" fill="#ffd037"/>
    <path id="Path_669" data-name="Path 669" d="M313.871,678.42s1.3,1.7-.6,4.274-3.476,4.748-2.84,6.349c0,0,2.873-4.775,5.212-4.851S316.442,681.293,313.871,678.42Z" transform="translate(-172.887 -322.852)" fill="#6de4b1"/>
    <path id="Path_670" data-name="Path 670" d="M313.934,678.42a2.234,2.234,0,0,1,.264.539c2.28,2.695,3.5,5.185,1.3,5.244-2.043.059-4.5,3.714-5.083,4.641a.578.578,0,0,0,.07.2c.027.065,2.873-4.775,5.212-4.851S316.505,681.293,313.934,678.42Z" transform="translate(-172.949 -322.852)" opacity="0.1"/>
    <path id="Path_671" data-name="Path 671" d="M321.172,682.12c0,.6-.065,1.078-.151,1.078s-.151-.485-.151-1.078.086-.318.167-.318S321.172,681.517,321.172,682.12Z" transform="translate(-177.767 -324.381)" fill="#ffd037"/>
    <path id="Path_672" data-name="Path 672" d="M322.122,683.428c-.539.286-.986.458-1.024.383s.356-.361.884-.647.318-.081.356,0S322.661,683.137,322.122,683.428Z" transform="translate(-177.871 -324.972)" fill="#ffd037"/>
    <path id="Path_673" data-name="Path 673" d="M309.062,696.037s-3.643-.113-4.743-.895-5.605-1.714-5.875-.458-5.481,6.236-1.364,6.268,9.562-.641,10.656-1.31S309.062,696.037,309.062,696.037Z" transform="translate(-166.072 -330.067)" fill="#a8a8a8"/>
    <path id="Path_674" data-name="Path 674" d="M297,702.164c4.118.032,9.561-.641,10.656-1.31.835-.507,1.17-2.334,1.283-3.175h.119s-.232,2.937-1.326,3.606-6.543,1.342-10.656,1.31c-1.191,0-1.617-.431-1.579-1.078C295.665,701.938,296.118,702.164,297,702.164Z" transform="translate(-166.069 -331.732)" opacity="0.2"/>
    <rect id="Rectangle_71" data-name="Rectangle 71" width="9.524" height="21.284" rx="4.762" transform="matrix(0.3, 0.954, -0.954, 0.3, 107.896, 299.208)" fill="#ffc000"/>
    <path id="Path_675" data-name="Path 675" d="M633.559,270.543s-1.671-12.779-10.645-13.049,1.407,15.851,2.463,17.307c.62.846.124,3.2-.388,5.018a37.183,37.183,0,0,0-.922,3.972,9.276,9.276,0,0,1-2.027,4.6,23,23,0,0,0-3.611,6.047s-2.641.113-3.606-.539-7.125-2.9-7.389-2.539c-.059.075-.226.108-.458.1a7.423,7.423,0,0,1-1.078-.135c-.049-.3-.1-.6-.178-.916,0,0-.76-.329-1.617-.792v-.054h0c.2-.507.329-1.051.539-1.547v-.043h0a2.4,2.4,0,0,1,.685-.97c.825-.663,2.016-.437,3.013-.765a3.467,3.467,0,0,0,.329-.129l.119-.07.183-.1.129-.092.146-.108.129-.113a1.285,1.285,0,0,1,.124-.119l.113-.135.113-.129.1-.146c.032-.049.07-.092.1-.14s.065-.1.092-.156l.086-.156.081-.162.07-.167a1.656,1.656,0,0,0,.07-.173.6.6,0,0,1,.059-.172c.022-.059.032-.119.054-.178s0-.113.043-.178a1.83,1.83,0,0,0,.043-.183l.032-.178a.484.484,0,0,1,.027-.194c.027-.065,0-.113,0-.167v-.21a1.482,1.482,0,0,1,0-.151v-.658a5.387,5.387,0,0,0-.1-.658c-.248-1.078-.738-2.237-.4-3.2a.9.9,0,0,1,.043-.108,1.689,1.689,0,0,1,.162-.307,2.215,2.215,0,0,1,.895-.738c.313-.162.658-.286.981-.42a7.545,7.545,0,0,0,3.115-2.156h0a4.98,4.98,0,0,0,1.078-2.436,3.887,3.887,0,0,0,0-1.223v-.113h0a11.427,11.427,0,0,1-.485-2.156,2.752,2.752,0,0,1,.124-.846q.065-.194.146-.388l.043-.092c.059-.124.124-.248.189-.366a.4.4,0,0,0,.038-.065l.21-.334.048-.07c.076-.119.162-.237.243-.356.2-.286.41-.566.6-.857h0c.092-.135.178-.275.259-.415h0c.081-.146.156-.286.226-.431v-.07a4.852,4.852,0,0,0,.178-.464l.049-.156c.049-.178.092-.35.124-.539a1.089,1.089,0,0,1,0-.129c0-.162.043-.323.054-.485a.818.818,0,0,1,0-.119V261.6a1.263,1.263,0,0,0,0-.14,2.9,2.9,0,0,0-.038-.571,14.649,14.649,0,0,0-.356-2.01c-.232-.965-.641-2.07-1.579-2.328a3.858,3.858,0,0,0-1.466.065,7.039,7.039,0,0,1-4.355-1.1,34.979,34.979,0,0,1-3.692-2.76c-.819-.641-1.833-1.277-2.813-.959a7.55,7.55,0,0,0-1,.507,1.128,1.128,0,0,1-.216.065,5.159,5.159,0,0,1-1.035.086h-.1c-.3-.949-.614-1.886-.97-2.813a14.283,14.283,0,0,0-3.994-6.274,16.087,16.087,0,0,0-3.687-2.01c-3.951-1.725-8.295-3.476-12.4-2.242a18.47,18.47,0,0,0-5.007,2.695l-6.624,4.522-.5-.151c-.97-.28-1.973-.447-2.555-.641l-.1-.032c-1.865-.7-3.73-2.221-3.773-4.269a4.587,4.587,0,0,1,.092-.943,15.157,15.157,0,0,1,.609-1.913c.135-.366.248-.738.361-1.11l.108-.4c.065-.237.124-.474.183-.711l.113-.539c.043-.194.075-.383.113-.577s.076-.41.1-.614a.672.672,0,0,1,.043-.286c.081-.587.14-1.175.172-1.762h0a9.242,9.242,0,0,1,.032-.943v-1.089h0a22.13,22.13,0,0,0-3.719-11.7,7.007,7.007,0,0,0-.728,2.873,1.078,1.078,0,0,1-.108.539.7.7,0,0,1-1.008.043,9.866,9.866,0,0,1-.755-.873,1.854,1.854,0,0,0-2.248-.269,2.037,2.037,0,0,0-.825,2.183,8.478,8.478,0,0,0-8.467.539,3.137,3.137,0,0,0-1.461,1.854h0a2.156,2.156,0,0,0,.253,1.5c.458.895,1.347,1.7,1.93,2.619a22.561,22.561,0,0,0-3.525,7.61l-.474.593a16.656,16.656,0,0,0-3.04,2.409,3.227,3.227,0,0,0-1.013,2.695l-8.225,10.321s-8.8,12-9.7,14.72c-.183.539-3.773,4.711,1.665,9.782s6.511,5.616,7.3,7.341c.464,1.008,4.01,2.846,6.883,4.2l1,.469c-.232,2.986,1.159,6.468,5.357,10.478a7.217,7.217,0,0,1,.124,1.439,47.531,47.531,0,0,0,1.585,9.378s2.242,3.53-.657,5.843-3.552,3.644-1.768,5.519l.054.054-.264,5.3h-.776s-7.007,4.889-8.462,7.745-4.085,10.478-4.085,10.478-.539,7.336-1.32,8.424,0,5.573,0,5.573-.135,6.931,1.579,8.564,1.191,5.708,1.191,5.708a19.308,19.308,0,0,0,.3,2.636c-1.838-.539-5.088-.895-5.648,3.347a45.27,45.27,0,0,0-.393,9.7s-1.585,7.131-2.77,9.163-3.7,20.072,7.454,16.989a4.791,4.791,0,0,0,2.695-2.77,12.6,12.6,0,0,0,1.159-1.444c-.043,3.52.927,6.495,4.36,5.767,0,0,1.973-.437,2.862-4.587a42.766,42.766,0,0,0,4.851-5.665l3.185-7.945h0l.243-.609,2.964-3.18a80.012,80.012,0,0,0,15.091,3.169,37.121,37.121,0,0,0,4.527.2,34.862,34.862,0,0,0,7.815-.738c4.808.668,13.194,1.218,20.244-1.5,10.553-4.075,3.3-13.049,1.45-14.951s-7.68-7.546-8.149-7.988v-.032s1.078-32.619-1.191-33.568-9.761-8.974-9.761-8.974l.792-5.163s3.692.41,3.827-2.857,0-8.155,0-8.155l4.851-8.7s5.875-3.487,8.543-4.668c.14.092.291.189.458.28,2.9,1.66,9.109,3.482,11.276,3.072,2.905-.539,8.71.728,12.4,1.078s5.39-3.347,5.013-3.773,1.5-4.587,1.5-4.587,3.52-17.037,2.727-19.754S633.559,270.543,633.559,270.543ZM538.785,379.859c.307.151.625.3.954.442a51.54,51.54,0,0,0,5.293,1.876l3.3,1.223s-4.969.119-7.449.243a7.32,7.32,0,0,1-3.2-1.482A5.5,5.5,0,0,1,538.785,379.859Zm49.84-95.184c-.059-.162-.113-.334-.162-.507.453-.113.895-.243,1.337-.388-.3.34-.658.744-1.078,1.18C588.689,284.864,588.651,284.772,588.624,284.675ZM533.109,271.2s2.355-5.8,4.166-9.782q.108.48.243.954c-.076,0-.065-.086.248.728v.043a11.927,11.927,0,0,0,4.959,5.929,10.983,10.983,0,0,0,2.35,1.078q0-.04,0-.081a.787.787,0,0,0,0-.156.585.585,0,0,0,0-.1.678.678,0,0,0,0-.151l-.032-.075a.814.814,0,0,0-.081-.151l-.048-.054a.378.378,0,0,0-.076-.086c.367.232.738.453,1.11.679.081.043.156.1.237.146.383.221.765.431,1.153.641l.28.162c.458.243.927.48,1.4.706l.07.032.582.27.916.415a1.617,1.617,0,0,0,.959.189,1.53,1.53,0,0,0,.582-.313l.178-.135c1.116-.83,2.539-1.046,3.811-1.579s2.539-1.655,2.458-3.072a3.261,3.261,0,0,0-1.412-2.285c-.728-.539-1.568-.938-2.307-1.477a4.5,4.5,0,0,1-1.881-4.447,2.818,2.818,0,0,1,.119-.34l.032-.081q.065-.135.146-.275c0-.027.032-.059.054-.092a3.537,3.537,0,0,1,.615-.685,10.238,10.238,0,0,1,.959-.711l6.5-4.382c.49-.334.981-.663,1.488-.97h0a14.751,14.751,0,0,1,1.342-.733c.135-.059.269-.124.41-.178l.27-.113c.243-.092.485-.178.738-.253.135-.032.318-.065.539-.1a35.233,35.233,0,0,1-2.776,6.247,4.849,4.849,0,0,0-.507,1.116,1.4,1.4,0,0,0-.059.334,3.333,3.333,0,0,0,.3,1.4,4.177,4.177,0,0,0,1.4,2.371c.226.162.437.313.62.469a3.758,3.758,0,0,1-.07.485,20.95,20.95,0,0,0-.14,2.409,19.883,19.883,0,0,0,3.773,11.69l-.216.243a19.749,19.749,0,0,1-3.972,3.53c-.172.108-.345.21-.539.307a6.084,6.084,0,0,1-.631-1.374,1.692,1.692,0,0,1-2.156-.949c-.765-1.5-3.142,0-3.142,0s-5.39-3.126-5.67-1.768a1.353,1.353,0,0,1-.307.571l-.318-.3s-1.24.41-2.981,1.207a3.342,3.342,0,0,1-1.94-1.207c-.539-.7-.4.334-.059,2.2l-.043.027-.631-.232c-3.724-1.369-12.585-4.926-13-7.923Zm60.862,13.561c-.243-.76-1.418-1.353-2.3-1.7a19.4,19.4,0,0,0,9.793-10.321c.081-.2.156-.4.232-.609.156-.038.313-.065.464-.113a2.28,2.28,0,0,0,1.542-1.132,2.539,2.539,0,0,0,.156-.857c.043-.652.07-1.3.086-1.956v-.092a48.507,48.507,0,0,0-1.191-11.9l.582.48h0c.226.189.453.377.674.571a4.613,4.613,0,0,1,.539.539l.086.086c.172.172.34.35.5.539a.612.612,0,0,1,.054.07,6.4,6.4,0,0,1,.393.539l.135.21a4.759,4.759,0,0,1,.291.539l.054.108a5.381,5.381,0,0,1,.216.582l.048.135c.049.172.086.345.124.539a1.257,1.257,0,0,0,.054.237c.032.183.054.372.076.566v.2c0,.178.027.361.038.539s0,.232,0,.345a24.212,24.212,0,0,1-2.21,10.526,41.123,41.123,0,0,1-5.729,9.082,12.079,12.079,0,0,0-1.892,2.781,5.6,5.6,0,0,0-.21.6c-.927-.124-2.361-.388-2.6-1.164Z" transform="translate(-269.404 -110.889)" fill="url(#linear-gradient)"/>
    <path id="Path_676" data-name="Path 676" d="M704.576,313.648c.808,2.695-2.787,19.581-2.787,19.581s-1.886,4.156-1.525,4.549-1.347,4.075-5.12,3.714-9.7-1.617-12.666-1.078c-2.215.4-8.554-1.4-11.518-3.045-1.008-.539-1.617-1.1-1.563-1.536.232-1.7,5.891-9.432,5.891-9.432a15.82,15.82,0,0,0,2.587.464c.237,0,.41-.027.469-.1.269-.361,6.559,1.886,7.546,2.517s3.681.512,3.681.512a22.731,22.731,0,0,1,3.687-5.993,9.093,9.093,0,0,0,2.075-4.56,35.467,35.467,0,0,1,.938-3.94c.539-1.8,1.029-4.134.4-4.975-1.078-1.439-11.68-17.425-2.517-17.156S705.024,306.1,705.024,306.1,703.768,310.953,704.576,313.648Z" transform="translate(-338.443 -145.242)" fill="#fbbebe"/>
    <path id="Path_677" data-name="Path 677" d="M630.546,341.453,623,344.687l-8.758,2.695s-20.077-16.3-14.957-17.517a8.763,8.763,0,0,0,2.522-1.078,19.909,19.909,0,0,0,4.059-3.5,35.7,35.7,0,0,0,3.525-4.565s19.807-.943,16.708,3.773c-1.207,1.838-.8,4.824.151,7.783.054.178.113.356.172.539a49.86,49.86,0,0,0,4.123,8.634Z" transform="translate(-305.736 -157.912)" fill="#fbbebe"/>
    <path id="Path_678" data-name="Path 678" d="M556.427,526.727s-3.476-3.234-4.743,1.746a51.205,51.205,0,0,0-1.5,8.166s-1.919,5.87-2.932,7.481-4.91,16.6,2.533,15.091c0,0,2.738-.582,3.272-6.9s5.136-25.181,5.136-25.181Z" transform="translate(-281.247 -252.443)" fill="#3f3d56"/>
    <path id="Path_679" data-name="Path 679" d="M614.312,522.3c-7.546,2.824-16.568,2.1-21.338,1.4-2.059-.3-3.32-.593-3.32-.593l-23.58-2.425-.474.5-3.029,3.153-3.5,8.478s-9.432,12.936-10.51,5.255a31.577,31.577,0,0,1-.2-5.066,139.848,139.848,0,0,1,2.355-19.053l21.424-2.83,13.474-7.007.146-7.309.032-1.795.092-4.506,18.325,1.752,3.234,7.276.032.032c.474.442,6.511,6.107,8.322,7.918S625.092,518.258,614.312,522.3Z" transform="translate(-282.631 -236.218)" fill="#fbbebe"/>
    <path id="Path_680" data-name="Path 680" d="M562.981,553.26s-9.621.4-10.241-1.32l-2.981,7.109s8.758,3.369,9.971,2.086Z" transform="translate(-283.29 -264.543)" fill="#2b3647"/>
    <path id="Path_681" data-name="Path 681" d="M533.221,513.057s-6.263-3.1-7.071,2.83a43.708,43.708,0,0,0-.4,9.637s-1.617,7.071-2.83,9.093-3.773,19.9,7.61,16.843c0,0,4.177-1.143,3.5-8.489s2.07-29.779,2.07-29.779Z" transform="translate(-270.394 -246.244)" fill="#3f3d56"/>
    <path id="Path_682" data-name="Path 682" d="M570.368,487.75,589.906,505s11.319,6.064-2.156,16.439c0,0-6.064,2.56-15.361,1.617a82.466,82.466,0,0,1-16.978-3.638s-7.007-1.078-9.432,2.695-7.815,11.992-7.815,11.992-6.6,13.07-10.914-3.1l5.525-15.765a50.764,50.764,0,0,0,0-6.468c-.269-1.213,3.638-6.6,5.659-4.851s4.716,4.177,7.007,4.042,8.085-.269,8.085-.269l-3.369-1.213s-9.7-2.695-9.028-4.716,5.39-11.858,5.39-11.858Z" transform="translate(-272.912 -234.95)" opacity="0.1"/>
    <path id="Path_683" data-name="Path 683" d="M585.75,521.436a21.367,21.367,0,0,1-3.417,1,37.829,37.829,0,0,1-11.944.62,84.129,84.129,0,0,1-15.431-3.142c-.992-.3-1.547-.5-1.547-.5s-7.007-1.078-9.432,2.695c-1.617,2.485-4.479,6.894-6.263,9.621l-1.552,2.372s-6.6,13.07-10.914-3.1l5.525-15.765a50.764,50.764,0,0,0,0-6.468c-.183-.825,1.558-3.568,3.326-4.695.835-.539,1.682-.722,2.334-.156a26.512,26.512,0,0,0,4.312,3.282,5.163,5.163,0,0,0,2.695.76c2.291-.135,8.085-.269,8.085-.269l-3.369-1.213a52.79,52.79,0,0,1-5.39-1.859c-2.1-.884-3.929-1.94-3.622-2.857.674-2.021,5.39-11.858,5.39-11.858l23.85-2.156,6.78,5.988,2.905,2.56,9.853,8.7S599.225,511.061,585.75,521.436Z" transform="translate(-271.99 -234.95)" fill="#fbbebe"/>
    <path id="Path_684" data-name="Path 684" d="M591.247,529.455s-5.12-6.872-17.247-4.986" transform="translate(-294.465 -251.727)" fill="none" stroke="#000" stroke-miterlimit="10" stroke-width="1" opacity="0.1"/>
    <path id="Path_685" data-name="Path 685" d="M531.158,536.63l-3.908,8.958s4.312,9.906,12.666,8.424l5.137-9.308S533.454,543.5,531.158,536.63Z" transform="translate(-272.912 -257.484)" opacity="0.1"/>
    <path id="Path_686" data-name="Path 686" d="M530.158,537.63l-3.908,8.958s4.312,9.906,12.666,8.424l5.137-9.308S532.454,544.5,530.158,537.63Z" transform="translate(-272.451 -257.945)" fill="#2b3647"/>
    <path id="Path_687" data-name="Path 687" d="M672.527,365.162a9.643,9.643,0,0,0-1.617.636c-1.008-.539-1.617-1.1-1.563-1.536.232-1.7,5.891-9.432,5.891-9.432a15.824,15.824,0,0,0,2.587.464C678.736,361.26,674.182,364.78,672.527,365.162Z" transform="translate(-338.42 -173.671)" opacity="0.1"/>
    <path id="Path_688" data-name="Path 688" d="M630.546,349.416,623,352.65l-8.758,2.695s-20.077-16.3-14.957-17.517a8.765,8.765,0,0,0,2.522-1.078c3.018,3.967,10.144,8.085,10.144,8.085,5.961,2.156,11.378-1.779,14.3-4.614a48.744,48.744,0,0,0,4.3,9.2Z" transform="translate(-305.736 -165.336)" opacity="0.1"/>
    <path id="Path_689" data-name="Path 689" d="M621.516,352.849c-1.752.4-9.7,4.986-9.7,4.986l-4.986,8.624s.135,4.851,0,8.085-3.908,2.83-3.908,2.83l-.183.075c-.965.4-5.492,2.307-5.492,2.35s-9.281-.943-9.281-.943l-18.191-2.964s-5.794-.269-7.681-2.156l-.054-.054c-1.822-1.859-1.132-3.2,1.806-5.471s.674-5.794.674-5.794-1.617-5.794-1.617-9.3-1.752-3.369-1.752-3.369-1.213,0,4.177-3.5-.674-19.808,1.213-17.517,5.39,1.078,5.659-.269,5.794,1.752,5.794,1.752,2.425-1.482,3.234,0a1.757,1.757,0,0,0,2.156.943C584.73,335.6,594.7,341.4,594.7,341.4c8.893,3.234,16.574-7.141,16.574-7.141s2.964.808,3.369,2.032,3.773,1.164,3.773,1.164,4.042.442,4.177,1.655,4.042,2.83,4.042,2.83C628.253,348.537,623.268,352.444,621.516,352.849Z" transform="translate(-288.487 -161.357)" fill="#fff"/>
    <path id="Path_690" data-name="Path 690" d="M603.782,413.927l-.183,1.153c-.965.4-5.492,2.307-5.492,2.35s-9.281-.943-9.281-.943l-18.191-2.964s-5.794-.27-7.68-2.156l-.054-.054.054-1.024,2.964-.539s29.1,1.617,33.147,3.5Z" transform="translate(-289.348 -198.99)" opacity="0.1"/>
    <path id="Path_691" data-name="Path 691" d="M608.674,498.292c0,.668-.032,1.046-.032,1.046s-5.659-8.758-13.07-4.447A9.5,9.5,0,0,1,589.9,496.3a8.985,8.985,0,0,1-2.937-.765,11.6,11.6,0,0,1-4.053-3.067s-12.935,2.695-17.382,6.333-8.085-1.078-8.085-1.078-1.267,5.535-2.846,6.9c-2.1-.884-3.929-1.94-3.622-2.857.674-2.021,5.39-11.858,5.39-11.858l23.85-2.156,6.78,5.988.092-4.506,18.325,1.752,3.234,7.276Z" transform="translate(-283.833 -234.95)" opacity="0.1"/>
    <path id="Path_692" data-name="Path 692" d="M552.631,411.75s29.1,1.617,33.147,3.5l4.716.674-.808,5.12s7.68,7.95,9.971,8.893,1.213,33.282,1.213,33.282-5.659-8.758-13.07-4.447-12.666-2.425-12.666-2.425-12.936,2.695-17.382,6.333-8.085-1.078-8.085-1.078-1.482,6.468-3.234,7.141-2.156,4.986-2.156,4.986-4.851-.943-4.851-2.425a3.7,3.7,0,0,0-1.078-3.1c-.943-1.078-1.078-4.581-1.078-4.581s.539-4.042-1.213-5.659-1.617-8.489-1.617-8.489-.814-4.447,0-5.525,1.347-8.354,1.347-8.354,2.695-7.546,4.177-10.375,8.624-7.68,8.624-7.68h.792l.27-5.255Z" transform="translate(-276.06 -199.912)" fill="#f44"/>
    <circle id="Ellipse_30" data-name="Ellipse 30" cx="0.852" cy="0.852" r="0.852" transform="translate(307.966 221.496)" fill="#3f3d56"/>
    <circle id="Ellipse_31" data-name="Ellipse 31" cx="0.852" cy="0.852" r="0.852" transform="translate(303.428 240.813)" fill="#3f3d56"/>
    <circle id="Ellipse_32" data-name="Ellipse 32" cx="0.852" cy="0.852" r="0.852" transform="translate(309.405 234.254)" fill="#3f3d56"/>
    <path id="Path_693" data-name="Path 693" d="M560.4,424h1.078s-6.468,14.822-6.823,10.688S560.4,424,560.4,424Z" transform="translate(-285.541 -205.56)" opacity="0.1"/>
    <path id="Path_694" data-name="Path 694" d="M575.6,426s-7.368,11.319-3.773,12.936,6.823-12.4,6.823-12.4Z" transform="translate(-293.006 -206.482)" opacity="0.1"/>
    <path id="Path_695" data-name="Path 695" d="M597.83,438.12s2.786,17.183,5.929,20.508a3.469,3.469,0,0,1-.539,5.659s11.049.986,14.552,1.7,8.893-.808,6.737-2.242-.356-16.708-.178-17.431S617.417,459.566,597.83,438.12Z" transform="translate(-305.451 -212.069)" opacity="0.1"/>
    <path id="Path_696" data-name="Path 696" d="M575.67,389.269c.625-.27,10.688-14.4,13.113-13.264S575.67,389.269,575.67,389.269Z" transform="translate(-295.235 -183.403)" opacity="0.1"/>
    <path id="Path_697" data-name="Path 697" d="M575.361,377.5s-4.042,6.2-2.873,7.276S575.361,377.5,575.361,377.5Z" transform="translate(-293.67 -184.122)" opacity="0.1"/>
    <path id="Path_698" data-name="Path 698" d="M588.07,334s4.1,8.176,2.927,9.7S588.07,334,588.07,334Z" transform="translate(-300.951 -164.068)" opacity="0.1"/>
    <path id="Path_699" data-name="Path 699" d="M671.515,354.83s-.808,4.765-1.886,4.942S671.515,354.83,671.515,354.83Z" transform="translate(-338.443 -173.671)" opacity="0.1"/>
    <path id="Path_700" data-name="Path 700" d="M637.33,357.67s11.41,2.792,12.31,3.417S639.755,361.712,637.33,357.67Z" transform="translate(-323.661 -174.98)" opacity="0.1"/>
    <path id="Path_701" data-name="Path 701" d="M712.138,367.98s-1.434-5.573-3.32-5.481S712.138,367.98,712.138,367.98Z" transform="translate(-356.429 -177.206)" opacity="0.1"/>
    <path id="Path_702" data-name="Path 702" d="M687.258,294.862c-.7,1.45-2.226,2.609-2.2,4.22a11.353,11.353,0,0,0,.539,2.226,4.5,4.5,0,0,1-1.078,3.622,7.723,7.723,0,0,1-3.2,2.156,3.973,3.973,0,0,0-1.919,1.148c-.706,1.019-.092,2.377.2,3.584.464,1.946-.3,4.376-2.2,4.98-1.019.323-2.237.1-3.078.755s-.927,1.956-1.45,2.927a3.352,3.352,0,0,1-4.387,1.315,3.39,3.39,0,0,1,.189-1.466,2.76,2.76,0,0,1-3.078-1.256,3.676,3.676,0,0,1,.027-3.234,12.114,12.114,0,0,1,1.93-2.76,40.652,40.652,0,0,0,5.853-9,23.422,23.422,0,0,0,2.258-10.435,7.981,7.981,0,0,0-.609-3.115,7.729,7.729,0,0,0-2.124-2.576c-.447-.388-.922-.755-1.385-1.126-.323-.259-.647-.539-.954-.787-.42-.372-2.091-1.736-1.957-2.393.076-.377,1.207-.323,2.194-.334a5.354,5.354,0,0,0,1.078-.086,1.077,1.077,0,0,0,.221-.065,8.491,8.491,0,0,1,1.019-.5,3.38,3.38,0,0,1,2.873.954,35.689,35.689,0,0,0,3.773,2.733,7.373,7.373,0,0,0,4.447,1.078,4.026,4.026,0,0,1,1.5-.065c.954.253,1.374,1.347,1.617,2.307C687.743,291.38,688.023,293.266,687.258,294.862Z" transform="translate(-336.523 -140.361)" fill="#3f3d56"/>
    <path id="Path_703" data-name="Path 703" d="M582.415,253.082a5.565,5.565,0,0,0-.614.108,9.931,9.931,0,0,0-1.66.631,24.281,24.281,0,0,0-2.695,1.617l-6.64,4.344a5.472,5.472,0,0,0-1.617,1.391c-1.126,1.655-.07,4.021,1.563,5.185.755.539,1.617.916,2.355,1.466a3.234,3.234,0,0,1,1.444,2.264c.081,1.407-1.213,2.512-2.512,3.045s-2.754.744-3.891,1.568a2.242,2.242,0,0,1-.776.442,1.7,1.7,0,0,1-.981-.189,40.724,40.724,0,0,1-5.864-3.024.792.792,0,0,1,.243.846,11.707,11.707,0,0,1-6.689-17.059,34.017,34.017,0,0,0,2.156-3.52,4.317,4.317,0,0,0,0-3.962c-.539-.8-1.482-1.342-1.762-2.264a3.128,3.128,0,0,1,1.008-2.776c1.558-1.617,3.708-2.587,5.428-4.064s3.018-3.924,2.043-5.966c-.776-1.617-2.862-2.819-2.512-4.581a3.121,3.121,0,0,1,1.493-1.859,8.877,8.877,0,0,1,8.624-.539,1.989,1.989,0,0,1,.846-2.156,1.935,1.935,0,0,1,2.3.264,9.886,9.886,0,0,0,.765.868.738.738,0,0,0,1.029-.043,1.014,1.014,0,0,0,.113-.539,6.769,6.769,0,0,1,.744-2.851A21.672,21.672,0,0,1,578.9,241.3a7.722,7.722,0,0,0-.717,2.83c.059,2.032,1.962,3.541,3.87,4.231l.1.032c.6.194,1.617.361,2.609.636,1.3.361,2.56.911,2.695,1.94C587.751,252.646,584.118,252.851,582.415,253.082Z" transform="translate(-284.555 -112.309)" fill="#3f3d56"/>
    <path id="Path_704" data-name="Path 704" d="M539.524,267.567c-.986,1.078-6.107,13.205-6.107,13.205.426,2.97,9.475,6.5,13.307,7.864,1.035.372,1.692.582,1.692.582l3.681,3.234s-3.773,20.842-4.075,15.722-6.974-7.729-6.974-7.729-1.746-.711-3.838-1.676c-2.932-1.342-6.554-3.164-7.007-4.161-.808-1.709-1.886-2.248-7.46-7.276s-1.886-9.163-1.7-9.7c.895-2.695,9.88-14.59,9.88-14.59l13.006-15.862s3.59-14.73,12.612-8.985-10.278,19.495-10.278,19.495S540.511,266.489,539.524,267.567Z" transform="translate(-269.421 -119.286)" fill="#fbbebe"/>
    <path id="Path_705" data-name="Path 705" d="M567.1,336.736s-3.773,20.842-4.075,15.722-6.974-7.729-6.974-7.729-1.746-.711-3.838-1.676c.674-4.775,5.643-8.176,9.513-10.133,1.035.372,1.692.582,1.692.582Z" transform="translate(-284.419 -163.57)" opacity="0.1"/>
    <path id="Path_706" data-name="Path 706" d="M572.3,332.85l-3.951-3.6s-25.558,8.085-8.311,23.4h7.271l6.662-8.85Z" transform="translate(-285.272 -161.878)" fill="#fff"/>
    <path id="Path_707" data-name="Path 707" d="M632.564,332.249c.054.178.113.356.172.539a19.43,19.43,0,0,1-20.557-7.519A35.7,35.7,0,0,0,615.7,320.7s19.808-.943,16.708,3.773C631.222,326.3,631.632,329.29,632.564,332.249Z" transform="translate(-312.067 -157.903)" opacity="0.1"/>
    <path id="Path_708" data-name="Path 708" d="M644.3,290.673a19.328,19.328,0,1,1-5.661-13.742,19.4,19.4,0,0,1,5.661,13.742Z" transform="translate(-308.982 -135.148)" fill="#fbbebe"/>
    <path id="Path_709" data-name="Path 709" d="M644.449,290.641a19.328,19.328,0,0,1-1.509,7.508,8.737,8.737,0,0,1-3.3.054,1.956,1.956,0,0,1-1.17-.539,2.155,2.155,0,0,1-.393-1.078q-.307-1.795-.6-3.579a6.452,6.452,0,0,1-5.39-.738c-1.617-.916-3.04-2.194-4.614-3.234a7.464,7.464,0,0,0-5.3-1.444,8.97,8.97,0,0,0-2.835,1.191,19.819,19.819,0,0,0-4.851,3.627c-.981,1.078-1.838,2.372-3.2,2.862a3.385,3.385,0,0,1-4.22-2.156,19,19,0,0,1-.21-3.094,2.4,2.4,0,0,0-1.029-1.789,19.4,19.4,0,0,1,38.661,2.388Z" transform="translate(-309.135 -135.116)" opacity="0.1"/>
    <path id="Path_710" data-name="Path 710" d="M604.812,283.713a19,19,0,0,0,.21,3.094,3.385,3.385,0,0,0,4.22,2.156c1.358-.49,2.215-1.795,3.2-2.862a19.817,19.817,0,0,1,4.851-3.627,8.968,8.968,0,0,1,2.835-1.191,7.576,7.576,0,0,1,5.3,1.444c1.579,1.019,2.975,2.3,4.614,3.234a6.407,6.407,0,0,0,5.39.738l.6,3.579a2.155,2.155,0,0,0,.393,1.078,1.957,1.957,0,0,0,1.17.539,8.726,8.726,0,0,0,4.015-.232,2.307,2.307,0,0,0,1.574-1.121,2.516,2.516,0,0,0,.162-.852,46.735,46.735,0,0,0-3.115-20.2,14.134,14.134,0,0,0-4.08-6.22,16.472,16.472,0,0,0-3.773-1.994c-4.032-1.709-8.473-3.449-12.682-2.226a19.076,19.076,0,0,0-5.115,2.695l-7.546,5.007a4.711,4.711,0,0,0-1.078.889,5.142,5.142,0,0,0-.814,1.779,34.5,34.5,0,0,1-3.094,6.942,3.444,3.444,0,0,0-.582,1.439,3.287,3.287,0,0,0,.313,1.385c.388,1.008.539,1.757,1.423,2.35A2.778,2.778,0,0,1,604.812,283.713Z" transform="translate(-307.129 -129.325)" fill="#3f3d56"/>
    <g id="Group_360" data-name="Group 360" transform="translate(268.449 115.862)" opacity="0.1">
      <path id="Path_711" data-name="Path 711" d="M572.473,307.585c-1.3.539-2.754.744-3.891,1.568a2.241,2.241,0,0,1-.776.442,1.7,1.7,0,0,1-.981-.189,40.31,40.31,0,0,1-5.929-3.078.781.781,0,0,1,.323.9,11.89,11.89,0,0,1-7.481-6.915c-.431-1.1.081,1.18,0,0-.119,1.719-.625,0,0,1.617a11.89,11.89,0,0,0,7.459,6.915.782.782,0,0,0-.323-.9,40.3,40.3,0,0,0,5.929,3.078,1.7,1.7,0,0,0,.981.189,2.243,2.243,0,0,0,.776-.442c1.137-.825,2.592-1.04,3.891-1.568s2.593-1.617,2.512-3.045a2.266,2.266,0,0,0-.156-.684,4.188,4.188,0,0,1-2.334,2.113Z" transform="translate(-553.432 -264.256)"/>
      <path id="Path_712" data-name="Path 712" d="M600.17,252.44a3.236,3.236,0,0,0,.1.685,13.925,13.925,0,0,1,.62-1.9,21.021,21.021,0,0,0,1.245-7.977,20.854,20.854,0,0,1-1.245,6.36,7.723,7.723,0,0,0-.717,2.83Z" transform="translate(-574.979 -238.092)"/>
      <path id="Path_713" data-name="Path 713" d="M680.542,291.192a10.737,10.737,0,0,0-3.412-3.622c.151.641.286,1.288.41,1.94a9.607,9.607,0,0,1,3,3.3,7.8,7.8,0,0,1,.6,2.959v-1.461A7.981,7.981,0,0,0,680.542,291.192Z" transform="translate(-610.459 -258.524)"/>
      <path id="Path_714" data-name="Path 714" d="M569.447,238.24c.162-.792.593-.447.237-1.2-.588-1.218-1.913-2.2-2.382-3.363a2.03,2.03,0,0,0-.129.4c-.35,1.762,1.5,2.539,2.274,4.161C569.56,238.472,568.967,237.086,569.447,238.24Z" transform="translate(-559.747 -233.68)"/>
      <path id="Path_715" data-name="Path 715" d="M596.2,276.92a3.971,3.971,0,0,0-.539.1,15.575,15.575,0,0,0-4.355,2.231l-6.64,4.344a5.47,5.47,0,0,0-1.617,1.391,2.938,2.938,0,0,0-.361,2.409,2.56,2.56,0,0,1,.361-.792,5.47,5.47,0,0,1,1.617-1.391l6.64-4.344a15.914,15.914,0,0,1,4.236-2.194C595.769,278.09,595.99,277.5,596.2,276.92Z" transform="translate(-566.865 -253.615)"/>
      <path id="Path_716" data-name="Path 716" d="M697.393,317.11a4.927,4.927,0,0,1-1.035,2.124,7.723,7.723,0,0,1-3.2,2.156,3.973,3.973,0,0,0-1.919,1.148,2.5,2.5,0,0,0-.21,2.032,1.67,1.67,0,0,1,.21-.415,3.854,3.854,0,0,1,1.919-1.148,7.724,7.724,0,0,0,3.2-2.156,4.5,4.5,0,0,0,1.078-3.622A.244.244,0,0,0,697.393,317.11Z" transform="translate(-616.811 -272.143)"/>
      <path id="Path_717" data-name="Path 717" d="M704.214,300.987c-.7,1.45-2.226,2.609-2.2,4.22a3.117,3.117,0,0,0,.124.8c.372-1.213,1.5-2.21,2.081-3.4a5.928,5.928,0,0,0,.437-3.234,5.052,5.052,0,0,1-.437,1.617Z" transform="translate(-621.929 -263.964)"/>
      <path id="Path_718" data-name="Path 718" d="M636.479,307.143a1.957,1.957,0,0,0,1.17.539,8.727,8.727,0,0,0,4.015-.232,2.307,2.307,0,0,0,1.574-1.121,2.515,2.515,0,0,0,.162-.852c.092-1.326.119-2.652.092-3.978,0,.787-.038,1.574-.092,2.361a2.517,2.517,0,0,1-.162.852,2.307,2.307,0,0,1-1.574,1.121,8.726,8.726,0,0,1-4.015.232,1.957,1.957,0,0,1-1.17-.539,2.156,2.156,0,0,1-.393-1.078q-.307-1.795-.6-3.579a6.452,6.452,0,0,1-5.39-.738c-1.617-.916-3.04-2.194-4.614-3.234a7.464,7.464,0,0,0-5.3-1.444,8.969,8.969,0,0,0-2.835,1.191,19.818,19.818,0,0,0-4.851,3.627c-.981,1.078-1.838,2.371-3.2,2.862a3.385,3.385,0,0,1-4.22-2.156,19.019,19.019,0,0,1-.21-3.094,2.78,2.78,0,0,0-1.617-2.2c-.889-.582-1.035-1.342-1.423-2.35-.049-.129-.1-.27-.146-.4a2.022,2.022,0,0,0-.167.636,3.288,3.288,0,0,0,.313,1.385c.388,1.008.539,1.757,1.423,2.35a2.853,2.853,0,0,1,1.617,2.2,19.012,19.012,0,0,0,.21,3.094,3.385,3.385,0,0,0,4.22,2.156c1.358-.49,2.215-1.795,3.2-2.862a19.819,19.819,0,0,1,4.851-3.627,8.968,8.968,0,0,1,2.835-1.191,7.576,7.576,0,0,1,5.3,1.444c1.579,1.019,2.975,2.3,4.614,3.234a6.406,6.406,0,0,0,5.39.738l.6,3.579A2.156,2.156,0,0,0,636.479,307.143Z" transform="translate(-575.597 -260.995)"/>
      <path id="Path_719" data-name="Path 719" d="M677.4,340.484c-1.019.323-2.237.1-3.078.755s-.927,1.956-1.45,2.927a3.352,3.352,0,0,1-4.387,1.315,3.39,3.39,0,0,1,.189-1.466,2.76,2.76,0,0,1-3.078-1.256,2.822,2.822,0,0,1-.275-.706,3.314,3.314,0,0,0,.275,2.323,2.76,2.76,0,0,0,3.078,1.256,3.39,3.39,0,0,0-.189,1.466,3.352,3.352,0,0,0,4.387-1.315c.539-.97.577-2.248,1.45-2.927s2.059-.431,3.078-.755c1.795-.571,2.576-2.76,2.269-4.641A3.59,3.59,0,0,1,677.4,340.484Z" transform="translate(-604.968 -281.525)"/>
    </g>
    <path id="Path_720" data-name="Path 720" d="M608.415,271.846a19.362,19.362,0,0,1-2.361,4.048,5.557,5.557,0,0,0-.614.108,9.935,9.935,0,0,0-1.66.631,33.658,33.658,0,0,1,2.032-5.422C606.4,271.4,607.424,271.571,608.415,271.846Z" transform="translate(-308.194 -135.12)" fill="#6c63ff"/>
    <path id="Path_721" data-name="Path 721" d="M677.722,288.467c-.447-.388-.922-.755-1.385-1.126-.269-1.078-.539-2.366-.717-3.514a5.353,5.353,0,0,0,1.078-.086A14.839,14.839,0,0,1,677.722,288.467Z" transform="translate(-341.314 -140.897)" fill="#6c63ff"/>
    <path id="Path_722" data-name="Path 722" d="M939.7,378.857c.167-.081.329-.162.49-.253-.329-.065-.658-.14-.981-.221-.232.065-.469.113-.706.167a26.556,26.556,0,0,1-11.858-7.152c-3.288-3.466-5.589-8-5.541-12.72.038-3.439,1.3-6.791,1.261-10.241s-2.043-7.336-5.557-7.724a25.663,25.663,0,0,0-3.681.226,2.936,2.936,0,0,1-3.288-4.3c.938-2.636,3.045-4.765,3.951-7.411a8.9,8.9,0,0,0,.243-4.883A4.895,4.895,0,0,0,911.744,321c-2.08-1.078-4.554.172-6.867.609-3.956.755-7.971-.965-11.378-3.067s-6.6-4.657-10.429-5.891a25.1,25.1,0,0,0-7.74-1c-1.617,0-3.369.129-4.56,1.18-.059.054-.1.113-.162.167a4.158,4.158,0,0,1,.469-.943,3.356,3.356,0,0,0-.5.372c-2.474,2.183-.744,6.349-2.2,9.27a4.849,4.849,0,0,1-.593.906,7.125,7.125,0,0,0,.959-.884c-.054.129-.1.259-.167.388-.835,1.682-2.6,2.695-4.312,3.525s-3.568,1.59-4.8,3.018c-.032.032-.054.065-.086.1a5.281,5.281,0,0,1,.862-1.423,7.083,7.083,0,0,0-.975.911c-1.353,1.568-1.455,2.873-.852,3.875a4.652,4.652,0,0,0,3.282,2.388c-.075.34-.146.679-.2,1.024a17.048,17.048,0,0,0-.2,2.587,16.834,16.834,0,0,0,13.388,16.3,9.757,9.757,0,0,1-.086,1.078c-.259,2.447-1.013,5.1-2.991,5.746-1.849-.631-5.552,2.156-6.382,2.964s-3.773.086-6.468.178-3.606-.717-3.606-.717a15.338,15.338,0,0,0-.1,4.4c.28,2.695-1.94,2.787-1.94,2.787s.464,3.865-.539,5.837a6.548,6.548,0,0,0-.738,3.692s3.142-.27,2.862.808a.959.959,0,0,0,.183.717l-.032,1.029-.426,14.24-.83,8.489a1.433,1.433,0,0,0-.927.852c-.749,1.7-1.957,3.972-2.905,5.708-3.854,2.334-9.642,6.662-8,10.823,2.4,6.112,5.826,5.3,7.858,4.581s5.664-6.376,5.664-6.376,1.2-2.248,2.124-2.248a11.958,11.958,0,0,0,1.471-.156V419s-1.94,7.637-1.294,9.524a9.248,9.248,0,0,1,.092,4.312s-.539,5.568.183,7.368-1,6.635-1,6.635.5.151,1.353.361c-.065.307-.14.647-.221,1.024-1.132,5.352-3.164,17.571-.852,27.628,0,0,1.294,5.39,1.477,6.834s1.294,2.695.539,5.929,1.477,9.168,1.477,9.168,1.11,5.659.464,8.263,6.748,31.8,6.748,31.8l1.207-.172.269,1.04,1.2,4.635.129.507a3.988,3.988,0,0,0-2.156,1.358s-3.234,7.368-7.3,9.432c-1.078.539-2.4,1.261-3.67,2.043-3.633,2.221-6.748,4.894-1.455,4.964,5.8.075,15.329.383,18.746.5a8.161,8.161,0,0,0,3.854.582c9.518-.178,23.02-1.17,23.3-2.064.135-.437-.431-1.364-1.046-2.2s-1.364-1.665-1.364-1.665l-.275-8.176s-.776-.7-1.978-1.665l-.043-.571-.6-7.885-.081-1.078a3.111,3.111,0,0,0,1.132-.491l.652-8.165s3.972-13.652-1.11-27.041c0,0-4.436-9.249-3.234-12.574l.189-7.1s2.124-8.36,3.142-10.6a57.447,57.447,0,0,0,3.169-10.715c3.649-5.789,3.051-13.475,3.051-13.475l2.587-8.085,3.606-10.327s1.019-6.29,1.391-7.546,0-8.085,0-8.085,3.126-24.9.512-34.629v-.372h.027v-.539c.043-.048,2.846-2.97,1.563-3.773-1.078-.668-3.013-3.654-4.49-5.438-.2-.232-.383-.442-.539-.631a18.484,18.484,0,0,0,4.447-4.937c.453-.738,1.008-1.617,1.892-1.655a2.387,2.387,0,0,1,1.32.437c6.775,4.059,7.864,14.208,15.005,17.619a10.661,10.661,0,0,0,9.535-.275ZM885.5,541.166l-.059.539a2.908,2.908,0,0,0-.674.334s-.927,4.759-1.482,5.12a4.464,4.464,0,0,0-.685,1.207l-.135-.243c-.043.1-.092.194-.135.3l-.248-.453-.07-.539-1.541-11.917c-.129-1.741-.507-7.508.043-10.537.647-3.595.539-16.169-3.606-21.2,0,0-1.94-4.581-.183-7.546L877,477.539l.647-.631.092,17.247a17.393,17.393,0,0,0,4.161,9.885l.652,9.071s.539,9.88,2.215,15.361v8.446s.447.075,1.164.178l-.113,1.078Z" transform="translate(-417.77 -153.761)" fill="url(#linear-gradient-2)"/>
    <path id="Path_723" data-name="Path 723" d="M919.823,384.29l-3.864,8.624-1.428.835-9.621,5.632s-12.127-1.17-12.483-1.347-.927-10.478,2.21-12.644a2.069,2.069,0,0,1,.566-.286h0c1.924-.647,2.657-3.3,2.911-5.746.038-.361.065-.711.081-1.078a25.574,25.574,0,0,0,0-3.439s2.943-2.943,6.468-5.988c6.247-5.39,14.326-11.076,11.227-1.38a32.375,32.375,0,0,0-1.261,5.357c-.065.426-.108.841-.14,1.234-.377,4.775,1.116,7.352,2.619,8.721.162.151.329.28.49.4a5.93,5.93,0,0,0,2.226,1.1Z" transform="translate(-441.134 -177.077)" fill="#cf6f80"/>
    <path id="Path_724" data-name="Path 724" d="M850.185,721.778l-1.347.625-9.071-2.064-.808-3.212-1.17-4.635-.808-3.2h11.637l1.5,11.928Z" transform="translate(-385.871 -327)" fill="#cf6f80"/>
    <path id="Path_725" data-name="Path 725" d="M905.88,747.609l-9.071-2.064L896,742.311c3.439-1.029,8.446,1.865,8.446,1.865-.329,1.143,2.253,2.07,2.695,2.226l.07.539Z" transform="translate(-442.913 -352.205)" opacity="0.1"/>
    <path id="Path_726" data-name="Path 726" d="M913.01,756.332l-6.505,6.376-2.3,2.248-1.245-.043c-2.345-1.315.7-4.511,2.727-6.284.4-.35.76-.641,1.035-.857,1.455-1.137,2.819-4.377,3.692-6.311Z" transform="translate(-445.732 -356.525)" opacity="0.1"/>
    <path id="Path_727" data-name="Path 727" d="M910.418,751.46l2.592,4.851-6.505,6.376-2.3,2.269-1.245-.043c-2.345-1.315.7-4.511,2.727-6.285.4-.35.76-.641,1.035-.857C908.181,756.634,909.545,753.395,910.418,751.46Z" transform="translate(-445.732 -356.525)" opacity="0.1"/>
    <path id="Path_728" data-name="Path 728" d="M934.279,745.8l-11.949-4.042.356-3.412c3.115-1.078,8.532,2.84,11.426,5.217Z" transform="translate(-455.052 -350.393)" opacity="0.1"/>
    <path id="Path_729" data-name="Path 729" d="M895.825,753.03l-6.505,6.376-2.3,2.247s-12.488-.447-19.441-.539c-5.142-.07-2.118-2.743,1.412-4.964,1.24-.782,2.539-1.5,3.568-2.043,3.951-2.064,7.093-9.432,7.093-9.432,2.964-3.773,10.424.539,10.424.539-.361,1.256,2.781,2.248,2.781,2.248Z" transform="translate(-428.547 -352.684)"/>
    <path id="Path_730" data-name="Path 730" d="M889.319,770.545l-2.3,2.247s-12.488-.447-19.441-.539c-5.142-.07-2.118-2.743,1.412-4.964,1.9.431,3.816,1.347,4.463,3.234Z" transform="translate(-428.547 -363.823)" opacity="0.1"/>
    <path id="Path_731" data-name="Path 731" d="M878.929,721.251l-11.949-4.042.356-3.412.307-2.981.415-4.026h9.793l.323,4.339.587,7.885Z" transform="translate(-399.702 -325.847)" fill="#cf6f80"/>
    <path id="Path_732" data-name="Path 732" d="M929.362,758.3c-.27.895-13.388,1.886-22.637,2.064-8.031.156-3.681-4.56-1.035-6.867.4-.35.76-.641,1.035-.857,2.064-1.617,3.951-7.459,4.49-7.815s1.439-5.12,1.439-5.12c4.042-2.878,14.1,6.554,14.1,6.554l.269,8.176s.69.782,1.326,1.665S929.492,757.861,929.362,758.3Z" transform="translate(-445.732 -350.853)"/>
    <path id="Path_733" data-name="Path 733" d="M929.362,770.562c-.27.895-13.388,1.886-22.637,2.064-8.031.156-3.681-4.56-1.035-6.867a11.912,11.912,0,0,1,5.077,4.08h10.327a60.3,60.3,0,0,0,7.255-1.477C928.942,769.2,929.492,770.126,929.362,770.562Z" transform="translate(-445.732 -363.118)" opacity="0.1"/>
    <path id="Path_734" data-name="Path 734" d="M903.9,728c.059.986.113,1.617.113,1.617L893.138,731.2l-.808-3.2Z" transform="translate(-441.221 -345.71)" opacity="0.1"/>
    <path id="Path_735" data-name="Path 735" d="M934.092,729.839c-2.657.738-8.236.027-10.532-.313l.415-4.026h9.793Z" transform="translate(-455.619 -344.557)" opacity="0.1"/>
    <path id="Path_736" data-name="Path 736" d="M909.943,613.1c4.937,13.388,1.078,27.041,1.078,27.041l-.631,8.176c-2.248,1.795-12.574,0-12.574,0v-8.446c-1.617-5.481-2.156-15.361-2.156-15.361l-.631-9.071a17.679,17.679,0,0,1-4.042-9.885L890.9,588.3l-.625.631L890,607.621c-1.709,2.964.178,7.546.178,7.546,4.042,5.029,4.134,17.6,3.5,21.2s0,11.049,0,11.049l-12.3,1.795s-7.19-29.191-6.559-31.8-.447-8.263-.447-8.263-2.156-5.929-1.439-9.163-.361-4.49-.539-5.929-1.439-6.829-1.439-6.829c-2.242-10.057-.269-22.276.83-27.628.35-1.719.609-2.733.609-2.733s33.417-9.7,39.076-1.617A11.609,11.609,0,0,1,913,558.434c2.765,8.737-2.1,22.411-2.97,24.394-.986,2.242-3.051,10.6-3.051,10.6l-.183,7.1C905.631,603.848,909.943,613.1,909.943,613.1Z" transform="translate(-430.893 -264.585)" fill="#3b9cba"/>
    <circle id="Ellipse_33" data-name="Ellipse 33" cx="0.361" cy="0.361" r="0.361" transform="translate(470.059 361.54)" fill="#6c63ff"/>
    <circle id="Ellipse_34" data-name="Ellipse 34" cx="0.361" cy="0.361" r="0.361" transform="translate(452.176 370.551)" fill="#6c63ff"/>
    <circle id="Ellipse_35" data-name="Ellipse 35" cx="0.361" cy="0.361" r="0.361" transform="translate(450.925 364.865)" fill="#6c63ff"/>
    <circle id="Ellipse_36" data-name="Ellipse 36" cx="0.361" cy="0.361" r="0.361" transform="translate(453.394 365.312)" fill="#6c63ff"/>
    <circle id="Ellipse_37" data-name="Ellipse 37" cx="0.361" cy="0.361" r="0.361" transform="translate(452.337 368.358)" fill="#6c63ff"/>
    <circle id="Ellipse_38" data-name="Ellipse 38" cx="0.361" cy="0.361" r="0.361" transform="translate(468.534 367.468)" fill="#6c63ff"/>
    <circle id="Ellipse_39" data-name="Ellipse 39" cx="0.361" cy="0.361" r="0.361" transform="translate(476.08 369.533)" fill="#6c63ff"/>
    <circle id="Ellipse_40" data-name="Ellipse 40" cx="0.361" cy="0.361" r="0.361" transform="translate(478.505 367.107)" fill="#6c63ff"/>
    <circle id="Ellipse_41" data-name="Ellipse 41" cx="0.361" cy="0.361" r="0.361" transform="translate(470.781 365.674)" fill="#6c63ff"/>
    <circle id="Ellipse_42" data-name="Ellipse 42" cx="0.361" cy="0.361" r="0.361" transform="translate(456.126 363.21)" fill="#6c63ff"/>
    <circle id="Ellipse_43" data-name="Ellipse 43" cx="0.361" cy="0.361" r="0.361" transform="translate(459.123 365.312)" fill="#6c63ff"/>
    <circle id="Ellipse_44" data-name="Ellipse 44" cx="0.361" cy="0.361" r="0.361" transform="translate(453.971 374.432)" fill="#6c63ff"/>
    <circle id="Ellipse_45" data-name="Ellipse 45" cx="0.361" cy="0.361" r="0.361" transform="translate(455.21 378.787)" fill="#6c63ff"/>
    <circle id="Ellipse_46" data-name="Ellipse 46" cx="0.361" cy="0.361" r="0.361" transform="translate(459.28 380.307)" fill="#6c63ff"/>
    <circle id="Ellipse_47" data-name="Ellipse 47" cx="0.361" cy="0.361" r="0.361" transform="translate(456.843 380.582)" fill="#6c63ff"/>
    <circle id="Ellipse_48" data-name="Ellipse 48" cx="0.361" cy="0.361" r="0.361" transform="translate(454.687 382.635)" fill="#6c63ff"/>
    <circle id="Ellipse_49" data-name="Ellipse 49" cx="0.361" cy="0.361" r="0.361" transform="translate(456.488 367.997)" fill="#6c63ff"/>
    <circle id="Ellipse_50" data-name="Ellipse 50" cx="0.361" cy="0.361" r="0.361" transform="translate(456.488 372.411)" fill="#6c63ff"/>
    <circle id="Ellipse_51" data-name="Ellipse 51" cx="0.361" cy="0.361" r="0.361" transform="translate(458.767 375.316)" fill="#6c63ff"/>
    <circle id="Ellipse_52" data-name="Ellipse 52" cx="0.361" cy="0.361" r="0.361" transform="translate(456.698 376.626)" fill="#6c63ff"/>
    <circle id="Ellipse_53" data-name="Ellipse 53" cx="0.361" cy="0.361" r="0.361" transform="translate(452.531 382.635)" fill="#6c63ff"/>
    <circle id="Ellipse_54" data-name="Ellipse 54" cx="0.361" cy="0.361" r="0.361" transform="translate(458.924 377.386)" fill="#6c63ff"/>
    <circle id="Ellipse_55" data-name="Ellipse 55" cx="0.361" cy="0.361" r="0.361" transform="translate(476.08 364.504)" fill="#6c63ff"/>
    <circle id="Ellipse_56" data-name="Ellipse 56" cx="0.361" cy="0.361" r="0.361" transform="translate(472.533 369.533)" fill="#6c63ff"/>
    <circle id="Ellipse_57" data-name="Ellipse 57" cx="0.361" cy="0.361" r="0.361" transform="translate(470.059 376.987)" fill="#6c63ff"/>
    <circle id="Ellipse_58" data-name="Ellipse 58" cx="0.361" cy="0.361" r="0.361" transform="translate(469.251 381.929)" fill="#6c63ff"/>
    <circle id="Ellipse_59" data-name="Ellipse 59" cx="0.361" cy="0.361" r="0.361" transform="translate(473.476 366.39)" fill="#6c63ff"/>
    <circle id="Ellipse_60" data-name="Ellipse 60" cx="0.361" cy="0.361" r="0.361" transform="translate(472.172 371.689)" fill="#6c63ff"/>
    <circle id="Ellipse_61" data-name="Ellipse 61" cx="0.361" cy="0.361" r="0.361" transform="translate(473.25 375.677)" fill="#6c63ff"/>
    <circle id="Ellipse_62" data-name="Ellipse 62" cx="0.361" cy="0.361" r="0.361" transform="translate(467.591 379.736)" fill="#6c63ff"/>
    <circle id="Ellipse_63" data-name="Ellipse 63" cx="0.361" cy="0.361" r="0.361" transform="translate(470.781 378.426)" fill="#6c63ff"/>
    <circle id="Ellipse_64" data-name="Ellipse 64" cx="0.361" cy="0.361" r="0.361" transform="translate(469.703 379.504)" fill="#6c63ff"/>
    <circle id="Ellipse_65" data-name="Ellipse 65" cx="0.361" cy="0.361" r="0.361" transform="translate(476.08 377.935)" fill="#6c63ff"/>
    <circle id="Ellipse_66" data-name="Ellipse 66" cx="0.361" cy="0.361" r="0.361" transform="translate(476.08 379.148)" fill="#6c63ff"/>
    <circle id="Ellipse_67" data-name="Ellipse 67" cx="0.361" cy="0.361" r="0.361" transform="translate(472.533 381.929)" fill="#6c63ff"/>
    <circle id="Ellipse_68" data-name="Ellipse 68" cx="0.361" cy="0.361" r="0.361" transform="translate(471.498 382.996)" fill="#6c63ff"/>
    <circle id="Ellipse_69" data-name="Ellipse 69" cx="0.361" cy="0.361" r="0.361" transform="translate(473.967 379.736)" fill="#6c63ff"/>
    <circle id="Ellipse_70" data-name="Ellipse 70" cx="0.361" cy="0.361" r="0.361" transform="translate(471.137 381.573)" fill="#6c63ff"/>
    <circle id="Ellipse_71" data-name="Ellipse 71" cx="0.361" cy="0.361" r="0.361" transform="translate(477.416 376.987)" fill="#6c63ff"/>
    <circle id="Ellipse_72" data-name="Ellipse 72" cx="0.361" cy="0.361" r="0.361" transform="translate(478.144 379.148)" fill="#6c63ff"/>
    <circle id="Ellipse_73" data-name="Ellipse 73" cx="0.361" cy="0.361" r="0.361" transform="translate(472.889 378.426)" fill="#6c63ff"/>
    <circle id="Ellipse_74" data-name="Ellipse 74" cx="0.361" cy="0.361" r="0.361" transform="translate(473.967 382.096)" fill="#6c63ff"/>
    <circle id="Ellipse_75" data-name="Ellipse 75" cx="0.361" cy="0.361" r="0.361" transform="translate(476.08 381.573)" fill="#6c63ff"/>
    <circle id="Ellipse_76" data-name="Ellipse 76" cx="0.361" cy="0.361" r="0.361" transform="translate(475.718 382.996)" fill="#6c63ff"/>
    <circle id="Ellipse_77" data-name="Ellipse 77" cx="0.361" cy="0.361" r="0.361" transform="translate(473.967 383.357)" fill="#6c63ff"/>
    <circle id="Ellipse_78" data-name="Ellipse 78" cx="0.361" cy="0.361" r="0.361" transform="translate(475.718 374.216)" fill="#6c63ff"/>
    <circle id="Ellipse_79" data-name="Ellipse 79" cx="0.361" cy="0.361" r="0.361" transform="translate(450.963 377.024)" fill="#6c63ff"/>
    <circle id="Ellipse_80" data-name="Ellipse 80" cx="0.361" cy="0.361" r="0.361" transform="translate(450.963 378.237)" fill="#6c63ff"/>
    <circle id="Ellipse_81" data-name="Ellipse 81" cx="0.361" cy="0.361" r="0.361" transform="translate(452.3 376.081)" fill="#6c63ff"/>
    <circle id="Ellipse_82" data-name="Ellipse 82" cx="0.361" cy="0.361" r="0.361" transform="translate(453.388 380.307)" fill="#6c63ff"/>
    <circle id="Ellipse_83" data-name="Ellipse 83" cx="0.361" cy="0.361" r="0.361" transform="translate(453.027 378.237)" fill="#6c63ff"/>
    <circle id="Ellipse_84" data-name="Ellipse 84" cx="0.361" cy="0.361" r="0.361" transform="translate(450.963 380.663)" fill="#6c63ff"/>
    <circle id="Ellipse_85" data-name="Ellipse 85" cx="0.361" cy="0.361" r="0.361" transform="translate(450.602 373.311)" fill="#6c63ff"/>
    <path id="Path_737" data-name="Path 737" d="M850.48,542.321l.9,27.488.986-.722.722-28.3Z" transform="translate(-392.095 -249.318)" opacity="0.1"/>
    <path id="Path_738" data-name="Path 738" d="M867.6,490.569s-6.2-5.843-7.546-2.695-4.226,8.263-4.226,8.263l6.829,6.468s1.17-2.248,2.064-2.248a29.536,29.536,0,0,0,3.5-.539Z" transform="translate(-424.394 -234.577)" fill="#cf6f80"/>
    <path id="Path_739" data-name="Path 739" d="M820.851,424.58l-4.134,31.078-1.552-2.377-5.185-7.95.808-8.537.415-14.24.124-4.263Z" transform="translate(-373.424 -192.843)" fill="#cf6f80"/>
    <path id="Path_740" data-name="Path 740" d="M920.993,367.506a29.833,29.833,0,0,0-1.4,6.592,16.671,16.671,0,0,1-12.569,5.7,16.862,16.862,0,0,1-3.773-.431,26,26,0,0,0,.054-4.5S925.844,352.323,920.993,367.506Z" transform="translate(-446.256 -177.092)" opacity="0.1"/>
    <path id="Path_741" data-name="Path 741" d="M912.667,347.507a16.643,16.643,0,0,1-4,10.85,16.708,16.708,0,0,1-29.418-10.85,17.045,17.045,0,0,1,.2-2.587,16.708,16.708,0,0,1,33.217,2.587Z" transform="translate(-435.191 -162.585)" fill="#cf6f80"/>
    <path id="Path_742" data-name="Path 742" d="M872.4,445.532c-1.978-1.682-4.193-3.185-4.8-4.269l.124-4.263,9.524,6.29-4.134,31.078-1.525-2.377a12,12,0,0,1,.658-3.908c1.078-2.156.27-5.481.27-6.559s1.525-2.787,1.434-3.5a42.657,42.657,0,0,0-.539-4.49C873.028,451.822,874.822,447.6,872.4,445.532Z" transform="translate(-429.82 -211.553)" opacity="0.1"/>
    <path id="Path_743" data-name="Path 743" d="M914.586,558.434v.049s-11.771-1.886-20.934,1.347c-7.513,2.652-17.086.593-20.282-.232.35-1.719.609-2.733.609-2.733s33.417-9.7,39.076-1.617a11.611,11.611,0,0,1,1.531,3.185Z" transform="translate(-432.48 -264.585)" opacity="0.1"/>
    <path id="Path_744" data-name="Path 744" d="M919.823,401.9l-3.864,8.624-11.049,6.468s-12.127-1.17-12.483-1.347-.927-10.478,2.21-12.644c-.884,2.49-1.849,7.546,4.705,7.972A27.2,27.2,0,0,0,917.09,400.41,6.2,6.2,0,0,0,919.823,401.9Z" transform="translate(-441.134 -194.684)" opacity="0.1"/>
    <path id="Path_745" data-name="Path 745" d="M920.355,419.353l-.183,4.042-10.78,64.316s-11.766-1.886-20.929,1.347-21.381-.539-21.381-.539,1.709-4.851.992-6.646-.183-7.368-.183-7.368a9.542,9.542,0,0,0-.086-4.312c-.625-1.886,1.256-9.524,1.256-9.524s-.447-8.171.631-10.327.27-5.481.27-6.559,1.525-2.787,1.434-3.5a42.642,42.642,0,0,0-.539-4.49c-.356-1.709,1.439-5.929-.986-8s-5.212-3.859-4.942-4.937-2.781-.808-2.781-.808a6.678,6.678,0,0,1,.717-3.687c.986-1.973.539-5.837.539-5.837s2.156-.092,1.886-2.787a15.744,15.744,0,0,1,.092-4.4s.895.808,3.5.717,5.476.631,6.284-.178,4.4-3.6,6.2-2.964h0c-.14.275-4.436,8.807,4.139,9.335a27.191,27.191,0,0,0,18.239-11.232s.986-1.078,4.22,2.431,6.015,2.156,6.015,2.156l3.6.27s-2.334,1.973-.9,3.32a9.326,9.326,0,0,1,.846.943c1.439,1.784,3.331,4.77,4.366,5.438C923.136,416.388,920.355,419.353,920.355,419.353Z" transform="translate(-427.292 -194.892)" fill="#8e52ca"/>
    <path id="Path_746" data-name="Path 746" d="M854.635,496s-13.2,6.468-10.871,12.574,5.659,5.3,7.637,4.581,5.568-6.376,5.568-6.376Z" transform="translate(-418.704 -238.753)" fill="#cf6f80"/>
    <path id="Path_747" data-name="Path 747" d="M931.969,428.93c0,.577-3.369,7.853,0,9.739S931.969,428.93,931.969,428.93Z" transform="translate(-458.806 -207.833)" opacity="0.1"/>
    <path id="Path_748" data-name="Path 748" d="M881.207,424.25s-4.759,5.12-2.786,5.659S881.207,424.25,881.207,424.25Z" transform="translate(-434.588 -205.675)" opacity="0.1"/>
    <path id="Path_749" data-name="Path 749" d="M936.6,436.417s2.064,12.758,2.156,16.531.631,9.88.631,9.88,1.525,14.552-.808,20.481a33.372,33.372,0,0,0-1.978,12.4s-6.829,13.3-7.815,14.644.808,14.105,7.993,8.715,6.29-17.161,6.29-17.161l2.517-8.085,3.5-10.327s.986-6.29,1.347-7.546,0-8.085,0-8.085,4.22-34.586-1.439-38.181S936.6,436.417,936.6,436.417Z" transform="translate(-457.914 -207.828)" fill="#cf6f80"/>
    <path id="Path_750" data-name="Path 750" d="M941.98,434.7s8.446-9.254,11.049-8.446,3.326.453,3.326.453.356-5.12-3.5-7.007-8.085-7.637-11.319-.808S941.98,434.7,941.98,434.7Z" transform="translate(-463.292 -201.703)" opacity="0.1"/>
    <path id="Path_751" data-name="Path 751" d="M941.98,433.7s8.446-9.254,11.049-8.446,3.326.453,3.326.453.356-5.12-3.5-7.007-8.085-7.637-11.319-.808S941.98,433.7,941.98,433.7Z" transform="translate(-463.292 -201.242)" fill="#8e52ca"/>
    <path id="Path_752" data-name="Path 752" d="M925.57,377.847a17.1,17.1,0,0,1-1.957,1.461,14.553,14.553,0,0,1-5.654,2.156,12.63,12.63,0,0,1-5.1-.286,12.35,12.35,0,0,1-4.118-1.913,10.467,10.467,0,0,1-3.121-3.466c-.108-.194-.2-.388-.3-.582-1.811-3.816-1.326-8.36-2.124-12.569-.059-.3-.124-.6-.194-.895a14.653,14.653,0,0,0-4.15-7.368c-2.884-2.787-6.77-4.479-10.78-6.581a19.691,19.691,0,0,0-6.964-2.549,9.037,9.037,0,0,1-1.525-.329,16.708,16.708,0,1,1,29.218,13.437c-.065.426-.108.841-.14,1.234-.377,4.775,1.116,7.352,2.619,8.721.162.151.329.28.49.4,0,0,.986-1.078,4.22,2.431s6.015,2.156,6.015,2.156l3.6.27s-2.334,1.973-.9,3.32a9.322,9.322,0,0,1,.862.949Z" transform="translate(-435.348 -162.598)" opacity="0.1"/>
    <path id="Path_753" data-name="Path 753" d="M874.986,329.7a13.615,13.615,0,0,1,4.667-3.018c1.676-.825,3.4-1.843,4.2-3.525,1.412-2.921-.27-7.088,2.156-9.276,1.159-1.051,2.862-1.18,4.425-1.18a23.909,23.909,0,0,1,7.546,1c3.719,1.234,6.824,3.773,10.133,5.891s7.206,3.821,11.055,3.067c2.248-.437,4.646-1.682,6.673-.609a4.906,4.906,0,0,1,2.221,3.347,9.163,9.163,0,0,1-.237,4.883c-.879,2.646-2.932,4.775-3.838,7.411a3.586,3.586,0,0,0,.048,3,3.489,3.489,0,0,0,3.169,1.3,24.154,24.154,0,0,1,3.573-.226c3.417.388,5.39,4.285,5.39,7.724s-1.191,6.791-1.229,10.241c-.048,4.716,2.194,9.249,5.39,12.715a25.52,25.52,0,0,0,13.367,7.616,10.084,10.084,0,0,1-9.265.275c-6.937-3.412-8-13.555-14.552-17.614a2.231,2.231,0,0,0-1.283-.437c-.857.054-1.4.916-1.838,1.649a16.625,16.625,0,0,1-11.389,8.117c-4.765.717-10.014-1.439-12.337-5.665s-1.488-9.384-2.614-14.046c-1.957-8.085-8.284-10.456-14.914-13.949a19.69,19.69,0,0,0-6.964-2.549C875.164,335.4,872.017,333.216,874.986,329.7Z" transform="translate(-432.679 -154.245)" fill="#512e4e"/>
    <g id="Group_361" data-name="Group 361" transform="translate(440.92 158.861)" opacity="0.1">
      <path id="Path_754" data-name="Path 754" d="M892.655,322.024c1.272-2.63.043-6.268,1.542-8.564a3.563,3.563,0,0,0-.49.372c-2.4,2.183-.717,6.349-2.129,9.27a5.086,5.086,0,0,1-.577.889A5.724,5.724,0,0,0,892.655,322.024Z" transform="translate(-881.529 -313.46)"/>
      <path id="Path_755" data-name="Path 755" d="M991.491,419.976c-6.942-3.412-8-13.555-14.585-17.619a2.258,2.258,0,0,0-1.283-.437,2.2,2.2,0,0,0-1.563,1.213,1.354,1.354,0,0,1,.485-.135,2.258,2.258,0,0,1,1.283.437c6.581,4.064,7.643,14.208,14.585,17.619a10.09,10.09,0,0,0,9.26-.275c-.318-.07-.641-.146-.959-.226A10.111,10.111,0,0,1,991.491,419.976Z" transform="translate(-919.821 -354.242)"/>
      <path id="Path_756" data-name="Path 756" d="M916,383.975c-4.759.717-10.014-1.444-12.332-5.665s-1.488-9.389-2.614-14.046c-1.962-8.085-8.289-10.456-14.919-13.949a19.56,19.56,0,0,0-6.958-2.549c-3.234-.426-6.344-2.549-3.633-5.967a6.542,6.542,0,0,0-.943.911c-2.954,3.514.194,5.7,3.5,6.134a19.56,19.56,0,0,1,6.958,2.549c6.629,3.493,12.935,5.843,14.919,13.949,1.126,4.657.3,9.847,2.614,14.046s7.573,6.382,12.332,5.665a15.835,15.835,0,0,0,9.12-5.077,15.469,15.469,0,0,1-8.042,4Z" transform="translate(-873.427 -326.525)"/>
    </g>
    <path id="Path_757" data-name="Path 757" d="M183.683,554.656c-3.331-.383-8.036-3.654-10.984-5.929,1.466-.857,2.436-1.45,2.436-1.45s-7.007-7.044-6.161-11.653-1.682-25.607-1.682-25.607-3.924-2.981-1.822-10.569,2.1-9.486,2.1-9.486-1.261-9.621-.42-11.922.846-7.346.846-7.346l1.676-17.4.905-6.511c1.525,4.991,4.08,8.29,8.085,5.487,9.249-6.505,2.382-27.779,2.382-27.779s-1.191-4.576-2.027-8.4l.458-1.218s-.28-4.738,2.1-6.365,0-36.721,0-36.721l-.792-21.279h0v-.631a19.716,19.716,0,0,0-10.2-16.574l-.571-.3c-.032-.194-.065-.388-.1-.593-.453-2.76-.959-6.08-1.294-9.367-.038-.356-.07-.706-.1-1.078A21.8,21.8,0,0,0,185.246,301a20.956,20.956,0,0,0-.787-5.7c-.038-.14-.081-.28-.124-.415,1.283-1.283,2.334-1.655,2.431-.819.14,1.218,1.191-.34,1.261-1.558s.35-.34,1.078-.34.841-1.288-.28-1.962.21-1.423.539-1.558.35-1.423,0-1.423a.351.351,0,0,1-.124-.038H189.2a1.9,1.9,0,0,1-.178-.092h0l-.221-.14-.059-.038-.243-.172h0c-.641-.458-1.38-1.078-1.38-1.078l.35-.27c.35-.269-.42-.949-1.078-1.013h-.135c-.658-.1-1.709-.48-1.04-.792.151-.07.216-.151.226-.237h0a.323.323,0,0,0-.119-.248h0a1.416,1.416,0,0,0-.323-.226h0l-.2-.092h0l-.194-.065h0a1.455,1.455,0,0,0-.21-.043h-.393a15.208,15.208,0,0,1-2.646-.938v-1.423l-1.18-.55h0l-.981-.431.35-1.31h-3.083l.42-1.153-1.418-.275-.334-.065V276l-1.892-.744v-.814h-2.275l.873-.679H170.09c-4.576-3.137-17.463-2.91-22.6-1.2s-6.635,2.981-13.636,17.706c-4.479,9.411,1.24,18.536,6.263,23.629h0c.167.172.334.334.5.5l.07.07.447.426.043.038.48.437.054.043.42.366.059.049.453.372h0l.41.318.07.054a8.6,8.6,0,0,0,.782.539l.075.048.323.21h.027c.108.07.216.129.318.189l.065.038.243.129h.054l.253.113h.043l.178.065h.049a1.325,1.325,0,0,0,.178.038h.189a.264.264,0,0,0,.1-.043,6.722,6.722,0,0,1,2.08-.668l.539.431c.259.21.539.41.8.6.065.393.119.792.167,1.207a21.694,21.694,0,0,1-.507,7.891c-.054.2-.113.4-.172.6a10.607,10.607,0,0,0-5.821,4.436,153.059,153.059,0,0,0-8.688,14.908s-.889,6.311-2.409,7.81,2.8,28.318,2.8,28.318-5.185,10.295-.539,12.127-.42,3.32-.42,3.32,1.4,3.115-1.261,3.385-4.2,5.018-4.2,5.018l-8.263,8.942,2.08.711c-.178.28-.361.571-.539.9-2.76,4.614-6.931,14.013-4.188,25.332,3.924,16.261,5.045,19.781,4.9,22.637s4.479,14.094,3.358,16.665-1.746,11.518.178,13.825-.733,3.654-.733,3.654,2.867,3.39,1.434,5.692,1.784,30.76,1.784,30.76,5.185,7.319,4.9,9.621-2.663,3.525-.539,4.474S134,552.8,134,552.8l.539.043c-.48.431-.938.884-1.358,1.342a12.706,12.706,0,0,0-1.148,1.444,6.713,6.713,0,0,0-.474.841c-1.886,4.15,3.137,7.319,3.137,7.319h1.714c4.878.194,18.665.539,25.165-1.078l.119.076s24.658,1.326,29.558-2.064S188.868,555.249,183.683,554.656Zm-25.251,1.191-.178-.027-.28-.048h-.2l-.313-.049h-.129c-.232-.032-.464-.065-.69-.086a11.275,11.275,0,0,1-3.191-.981c-.711-.318-1.434-.7-2.156-1.11l1.423-.032a9.99,9.99,0,0,0,1.078-.038l.641-.032h0c1.617,0,3.935.216,4.544,1.31a5.62,5.62,0,0,0-.55,1.089Z" transform="translate(-83.574 -135.176)" fill="url(#linear-gradient-3)"/>
    <path id="Path_758" data-name="Path 758" d="M197.163,371.843c-.4,0-32.2,6.064-24.254-4.716a19.333,19.333,0,0,0,3.234-6.759,22.276,22.276,0,0,0,.485-7.848,27.676,27.676,0,0,0-2.641-9.109s26.275-5.794,22.1-1.347c-1.822,1.94-1.773,7.864-1.17,13.916.323,3.272.808,6.576,1.245,9.319C196.775,369.121,197.293,371.843,197.163,371.843Z" transform="translate(-108.966 -167.012)" fill="#ffccd0"/>
    <path id="Path_759" data-name="Path 759" d="M159.273,783.22s8.219,7.578,13.205,8.171,11.992,2.743,7.276,6.112-28.431,2.054-28.431,2.054-5.492-3.59-2.56-8.117S159.273,783.22,159.273,783.22Z" transform="translate(-98.025 -371.167)" fill="#3f3d56"/>
    <path id="Path_760" data-name="Path 760" d="M179.754,797.5a8.742,8.742,0,0,1-2.954,1.148c-7.9,1.881-25.478.905-25.478.905s-5.492-3.59-2.56-8.117,10.51-8.219,10.51-8.219,8.219,7.578,13.205,8.171l.706.092C178.089,792.183,184.25,794.291,179.754,797.5Z" transform="translate(-98.025 -371.167)" opacity="0.5"/>
    <path id="Path_761" data-name="Path 761" d="M201.087,804.57a8.74,8.74,0,0,1-2.954,1.148l-.539-.027s-4.727-3.083-3.067-7.141C199.422,799.251,205.582,801.358,201.087,804.57Z" transform="translate(-119.358 -378.235)" opacity="0.1"/>
    <path id="Path_762" data-name="Path 762" d="M207.523,781.5s8.219,7.546,13.205,8.166,11.992,2.749,7.276,6.117-28.431,2.048-28.431,2.048-5.492-3.584-2.56-8.085S207.523,781.5,207.523,781.5Z" transform="translate(-120.269 -370.374)" fill="#3f3d56"/>
    <path id="Path_763" data-name="Path 763" d="M207.523,781.5s8.219,7.546,13.205,8.166,11.992,2.749,7.276,6.117-28.431,2.048-28.431,2.048-5.492-3.584-2.56-8.085S207.523,781.5,207.523,781.5Z" transform="translate(-120.269 -370.374)" opacity="0.5"/>
    <path id="Path_764" data-name="Path 764" d="M165.208,675c-1.078.792-3.665,1.207-6.8,1.391h-.049l-.587.032c-.345,0-.7.032-1.078.038-7.885.253-18.056-.652-18.056-.652s.808-1.347-1.213-2.291.269-2.156.539-4.447-4.695-9.567-4.695-9.567-3.1-28.3-1.719-30.587-1.38-5.659-1.38-5.659a2.268,2.268,0,0,0,.706-3.638c-1.854-2.291-1.245-11.184-.167-13.744s-3.369-13.744-3.234-16.574-.943-6.333-4.716-22.5a34.832,34.832,0,0,1,4.026-25.214,25.517,25.517,0,0,1,2.037-3.083h25.736l.652,6.058.032.334c.216,2.043.48,4.517.776,7.357C159.619,586.432,168.339,672.728,165.208,675Z" transform="translate(-86.039 -258.346)" fill="#7c5e65"/>
    <path id="Path_765" data-name="Path 765" d="M171.9,680.464c-1.17.846-4.015,1.261-7.433,1.423a18.154,18.154,0,0,0-2.695.038s-.4-.922-5.255-4.312,0-11.049,0-11.049l-5.045-20.616s-1.267-5.5-.189-8.737-2.323-4.042-2.323-4.042,3.4-2.156,0-4.986-3.875-13.205-3.875-13.205-4.851-6.468-2.695-8.624-1.347-7.276-1.347-7.276-5.12-8.085-4.581-10.78,7.815-1.752,5.659-10.375,11.13,3.234,11.13,3.234l8.688-30.8C164.762,577.007,175.294,678.007,171.9,680.464Z" transform="translate(-92.735 -263.814)" opacity="0.1"/>
    <path id="Path_766" data-name="Path 766" d="M184.237,672.009s-14.552,9.163-15.5,7.411c-.587-1.078-2.792-1.3-4.371-1.3h-.049c-.938,0-1.644.07-1.644.07s-.4-.922-5.255-4.312,0-11.049,0-11.049l-5.045-20.616s-1.288-5.5-.21-8.737-2.323-4.042-2.323-4.042,3.4-2.156,0-4.986-3.875-13.2-3.875-13.2-4.851-6.468-2.695-8.624-1.347-7.276-1.347-7.276-5.12-8.085-4.581-10.78,0-2.156-2.156-10.78c-1.617-6.5,2.566-21.112,4.732-27.914.706-2.226,1.2-3.617,1.2-3.617l20.055,4.037,20.1,4.048.539,7.141-.151,1.132-2.695,19.942-1.617,17.307s0,4.986-.808,7.276.4,11.858.4,11.858,0,1.886-2.021,9.432,1.752,10.51,1.752,10.51,2.425,20.885,1.617,25.467S184.237,672.009,184.237,672.009Z" transform="translate(-91.997 -260.075)" fill="#7c5e65"/>
    <path id="Path_767" data-name="Path 767" d="M171.63,690c2.021.34,12.461.539,9.7,1.822S171.63,690,171.63,690Z" transform="translate(-108.964 -328.191)" opacity="0.1"/>
    <path id="Path_768" data-name="Path 768" d="M169.5,701.215c.808-.07,4.517-1.687,5.525-1.552s2.361-.286,3.573,0,3.482,1.078,2.21,1.558-3.935.065-5.465.539S169.5,701.215,169.5,701.215Z" transform="translate(-107.982 -332.599)" opacity="0.1"/>
    <path id="Path_769" data-name="Path 769" d="M149,696.93c.539-.07,4.716-1.148,4.382,0S149,696.93,149,696.93Z" transform="translate(-98.531 -331.143)" opacity="0.1"/>
    <path id="Path_770" data-name="Path 770" d="M136.63,634.63c.4.539,2.76,5.929,3.908,5.929S136.63,634.63,136.63,634.63Z" transform="translate(-92.829 -302.664)" opacity="0.1"/>
    <path id="Path_771" data-name="Path 771" d="M198.1,342.064c-1.822,1.94-1.773,7.864-1.17,13.916a21.607,21.607,0,0,1-5.546.722c-4.781,0-5.158-6.031-8.731-8.656-.566-5.255-6.651-4.635-6.651-4.635S202.275,337.618,198.1,342.064Z" transform="translate(-110.979 -167.012)" opacity="0.1"/>
    <path id="Path_772" data-name="Path 772" d="M207.657,310.207a21.559,21.559,0,1,1-.755-5.665A21.559,21.559,0,0,1,207.657,310.207Z" transform="translate(-105.694 -143.153)" fill="#ffccd0"/>
    <path id="Path_773" data-name="Path 773" d="M197.163,388.374c-.4,0-32.2,6.064-24.254-4.716a19.334,19.334,0,0,0,3.234-6.759c6.43-2.054,14.31,1.369,14.31,1.369l3.638,2.695a12.516,12.516,0,0,1,2.1.868C196.775,385.652,197.293,388.374,197.163,388.374Z" transform="translate(-108.966 -183.543)" opacity="0.1"/>
    <path id="Path_774" data-name="Path 774" d="M180.033,555.766l-.151,1.132c-.857.291-4.8,1.385-14.218-2.479-1.515-.62-3.385-1.353-5.46-2.156-6.689-2.56-15.571-5.783-22.06-8.085-3.11-1.116-5.67-2.027-7.174-2.555a25.517,25.517,0,0,1,2.037-3.083h25.736l.652,6.058,20.1,4.026Z" transform="translate(-90.219 -258.365)" opacity="0.1"/>
    <path id="Path_775" data-name="Path 775" d="M170.425,379.269s-14.283-6.2-20.077,3.1a153.632,153.632,0,0,0-8.354,14.822s-.808,6.2-2.291,7.68,2.695,28.162,2.695,28.162-4.986,10.241-.539,12.057-.4,3.3-.4,3.3,1.347,3.1-1.213,3.369-4.042,4.986-4.042,4.986l-7.95,8.893s25.963,9.163,36.16,13.34,13.965,2.56,14.369,2.425,6.6-17.113,6.6-17.113-.27-4.716,2.021-6.333,0-36.516,0-36.516l-.787-21.791a19.7,19.7,0,0,0-9.815-16.477,13.645,13.645,0,0,0-2.738-1.213Z" transform="translate(-88.965 -184.005)" fill="#ffc000"/>
    <path id="Path_776" data-name="Path 776" d="M215.046,447.58l2.83,4.986s-22.637,6.468-23.526.27c-.135-.905,8.839-8.085,8.839-8.085Z" transform="translate(-119.437 -215.126)" fill="#67434b"/>
    <path id="Path_777" data-name="Path 777" d="M215.046,447.58l2.83,4.986s-22.637,6.468-23.526.27c-.135-.905,8.839-8.085,8.839-8.085Z" transform="translate(-119.437 -215.126)" fill="none" opacity="0.1"/>
    <path id="Path_778" data-name="Path 778" d="M161.25,498.479s10.78-3.5,8.489-.674S161.25,498.479,161.25,498.479Z" transform="translate(-104.179 -239.077)" opacity="0.1"/>
    <path id="Path_779" data-name="Path 779" d="M184.07,501.46s5.514,6.888,6.834,4.312S184.07,501.46,184.07,501.46Z" transform="translate(-114.699 -241.27)" opacity="0.1"/>
    <path id="Path_780" data-name="Path 780" d="M206.9,304.557a13.948,13.948,0,0,0-1.9,2.409c-1.886,2.964-3.3,3.034-3.3,3.034s0,6.414-.873,7.082-5.864-2.84-5.929-3.714-6.161-10.375-8.807,1.682l-.5,9.772s-8.731,1.078-13.2,2.054A21.559,21.559,0,1,1,206.9,304.557Z" transform="translate(-105.693 -143.167)" opacity="0.1"/>
    <path id="Path_781" data-name="Path 781" d="M186.337,276.306h1.687l-.846.674h2.194v.808l1.816.738v.539l1.687.34-.4,1.143h2.964l-.34,1.3,2.021.927v1.412a11.913,11.913,0,0,0,2.695.943c.674,0,1.789.609,1.078.943s.539.744,1.126.808,1.347.744,1.008,1.013l-.334.27a11.821,11.821,0,0,0,2.156,1.547c.34,0,.334,1.283,0,1.418s-1.617.873-.539,1.547.943,1.956.27,1.956-.943-.879-1.013.334-1.078,2.765-1.213,1.552-2.221.135-4.107,3.1-3.3,3.029-3.3,3.029,0,6.414-.873,7.082-5.864-2.835-5.929-3.714-6.161-10.375-8.807,1.687l-.49,9.766s-14.552,1.822-15.7,2.83-18.417-12.936-11.68-27.58,8.176-15.9,13.119-17.6S181.934,273.18,186.337,276.306Z" transform="translate(-98.949 -136.352)" fill="#3f3d56"/>
    <path id="Path_782" data-name="Path 782" d="M195.507,449.87s-.135,10.914-1.078,13.609,6.468,27.892,6.468,27.892,5.929,13.286,4.851,17.382.4,30.318,9.3,23.85,2.291-27.623,2.291-27.623-2.83-11.782-2.83-13.232-2.964-23.284-2.964-23.284-2.291-7.141-1.617-11.453.943-12.262.943-12.262Z" transform="translate(-119.437 -215.126)" fill="#ffccd0"/>
    <path id="Path_783" data-name="Path 783" d="M203.443,416.25s-10.812,3.5-11.265,13.07,0,10.375,0,10.375,16.116-8.085,23.526-.269l-.76-21.155Z" transform="translate(-118.345 -201.987)" opacity="0.1"/>
    <path id="Path_784" data-name="Path 784" d="M205.443,416.25s-10.812,3.5-11.265,13.07,0,10.375,0,10.375,16.116-8.085,23.526-.269l-.76-21.155Z" transform="translate(-119.267 -201.987)" fill="#ffc000"/>
    <g id="Group_362" data-name="Group 362" transform="translate(58.559 140.628)" opacity="0.1">
      <path id="Path_785" data-name="Path 785" d="M242.188,294.73c-.243.3.76.625,1.3.684a.877.877,0,0,1,.162.038c.038-.329-.771-.711-1.31-.711Z" transform="translate(-200.035 -286.591)"/>
      <path id="Path_786" data-name="Path 786" d="M235.5,290.29s.5.232,1.078.464v-.8l-1.078-.5Z" transform="translate(-196.968 -284.162)"/>
      <path id="Path_787" data-name="Path 787" d="M246.155,298l-.275.221s.62.539,1.207.97l.2-.162c.34-.27-.4-.943-1.008-1.013Z" transform="translate(-201.754 -288.099)"/>
      <path id="Path_788" data-name="Path 788" d="M176.4,267.766l1.213.55.2-.776h-1.353Z" transform="translate(-139.889 -263.972)"/>
      <path id="Path_789" data-name="Path 789" d="M184.777,329.446l-.49,9.766s-14.552,1.822-15.7,2.83c-.356.318-2.291-.83-4.576-3,2.727,2.862,5.239,4.447,5.654,4.08,1.148-1.008,15.7-2.83,15.7-2.83l.49-9.766c1.547-7.071,4.312-6.732,6.3-5.066C190.167,323.124,186.642,321.022,184.777,329.446Z" transform="translate(-164.01 -299.802)"/>
      <path id="Path_790" data-name="Path 790" d="M237.165,305.795c-1.078-.674.2-1.412.539-1.547s.334-1.418,0-1.418a2.506,2.506,0,0,1-.83-.49c0,.356-.07.755-.248.83-.34.135-1.617.873-.539,1.547s.943,1.956.27,1.956-.943-.879-1.013.334-1.078,2.765-1.213,1.552-2.221.135-4.107,3.1-3.3,3.029-3.3,3.029,0,6.414-.873,7.082c-.609.458-3.164-1.078-4.716-2.339.792,1.175,4.991,4.026,5.794,3.417s.873-7.082.873-7.082,1.418-.065,3.3-3.029,3.972-4.312,4.107-3.1,1.148-.34,1.213-1.552.34-.334,1.013-.334S238.243,306.469,237.165,305.795Z" transform="translate(-190.343 -290.1)"/>
      <path id="Path_791" data-name="Path 791" d="M171.52,265.25h1.461l.022-.065-1.358-.275Z" transform="translate(-137.64 -262.759)"/>
      <path id="Path_792" data-name="Path 792" d="M167.415,261.087v-.167H167Z" transform="translate(-135.556 -260.92)"/>
    </g>
    <path id="Path_793" data-name="Path 793" d="M248.66,553.082s44.38-67.4,96.661-29.137,65.125,62.522,108.831,49.047,42.084-39.96,76.578-30.221,46.444-22.152,46.444-22.152" transform="translate(-144.477 -246.216)" fill="none" stroke="#ffc000" stroke-miterlimit="10" stroke-width="4"/>
    <path id="Path_794" data-name="Path 794" d="M4.762,0A4.762,4.762,0,0,1,9.524,4.762V16.522a4.762,4.762,0,0,1-9.524,0V4.762A4.762,4.762,0,0,1,4.762,0Z" transform="translate(432.54 259.739) rotate(23.32)" fill="#ffc000"/>
  </g>
</svg>
