<svg xmlns="http://www.w3.org/2000/svg" width="513.542" height="400" viewBox="0 0 513.542 400">
  <g id="Teacher" transform="translate(-150 -15)">
    <g id="Gloor" transform="translate(150 15)">
      <path id="Path_3" data-name="Path 3" d="M300.562,578.413c-6.713-10.215-48.934-74.608-25.071-140.328,22.749-62.684,90.677-85.392,132.357-99.308,25.294-8.444,110.531-33.05,202.035,6.325,30,12.9,77.791,33.461,105.885,85.582,24.34,45.131,32.2,110.789-.254,163.321-36.971,59.9-106.363,70.4-148.9,76.853C489.393,682.56,361.141,670.827,300.562,578.413Z" transform="translate(-223.927 -317.244)" fill="#fff"/>
      <ellipse id="Ellipse_5" data-name="Ellipse 5" cx="239.378" cy="15.556" rx="239.378" ry="15.556" transform="translate(34.785 340.213)" fill="#2b3647"/>
      <path id="Path_4" data-name="Path 4" d="M150,15" transform="translate(-150 -15)" fill="#f2f2f2"/>
    </g>
    <g id="Teaching_Materials" transform="translate(226.398 66.743)">
      <rect id="Rectangle_44" data-name="Rectangle 44" width="381.59" height="6.747" transform="translate(0 168.283)" fill="#d3d3d3"/>
      <rect id="Rectangle_45" data-name="Rectangle 45" width="349.579" height="205.976" transform="translate(21.591)" fill="#d3d3d3"/>
      <rect id="Rectangle_46" data-name="Rectangle 46" width="334.248" height="192.557" transform="translate(29.2 9.034)" fill="#2b3647"/>
      <rect id="Rectangle_49" data-name="Rectangle 49" width="60.65" height="5.06" transform="translate(40.708 240.94)" fill="#f7f7f7"/>
      <path id="Path_31" data-name="Path 31" d="M0,0H147.688V123.323H0Z" transform="translate(36.697 184.564)" fill="#ffc000"/>
      <path id="Path_5" data-name="Path 5" d="M1001.325,1214.92s26.2-45.764,41.345-43.239,17.359,22.408,17.359,22.408l3.472,53.97H998.8Z" transform="translate(-896.739 -959.272)" fill="#f2f2f2"/>
      <circle id="Ellipse_6" data-name="Ellipse 6" cx="12.151" cy="12.151" r="12.151" transform="translate(61.031 218.948)" fill="#f7f7f7"/>
      <path id="Path_6" data-name="Path 6" d="M840.8,1298.436s16.1-20.515,33.139-25.88,41.661,25.88,41.661,25.88l15.149,18.306H840.8v-18.306Z" transform="translate(-788.606 -1027.954)" fill="#f7f7f7"/>
      <g id="Group_6" data-name="Group 6" transform="translate(63.423 52.665)">
        <rect id="Rectangle_52" data-name="Rectangle 52" width="262.015" height="1.125" fill="#f2f2f2"/>
      </g>
      <g id="Group_7" data-name="Group 7" transform="translate(63.423 65.814)">
        <rect id="Rectangle_53" data-name="Rectangle 53" width="262.015" height="1.125" fill="#f2f2f2"/>
      </g>
      <g id="Group_8" data-name="Group 8" transform="translate(62.725 88.964)">
        <rect id="Rectangle_54" data-name="Rectangle 54" width="263" height="1" fill="#f2f2f2"/>
      </g>
      <g id="Group_9" data-name="Group 9" transform="translate(63.423 110.504)">
        <rect id="Rectangle_55" data-name="Rectangle 55" width="262.015" height="1.125" fill="#f2f2f2"/>
      </g>
      <g id="Group_10" data-name="Group 10" transform="translate(63.423 132.833)">
        <rect id="Rectangle_56" data-name="Rectangle 56" width="262.015" height="1.125" fill="#f2f2f2"/>
      </g>
    </g>
    <g id="Person" transform="translate(431.065 74.839)">
      <path id="Path_7" data-name="Path 7" d="M1344.172,1167.206c-3.9-27.776-10.758-78.755-9.221-85.951,5.548-26.2,12.97-107.355,12.97-107.355l-22.153,1.762s-13.532,79.392-15.294,102.107c-1.274,16.456,13.832,66.572,20.991,89.138C1335.588,1167.394,1340.086,1167.919,1344.172,1167.206Z" transform="translate(-1240.003 -848.786)" fill="#3b9cba"/>
      <path id="Path_8" data-name="Path 8" d="M1380.806,1499.671c-.412-2.886-.937-6.447-1.5-10.571-4.086.675-8.621.187-12.707-.3,1.987,6.3,3.374,10.458,3.6,11.133A28.864,28.864,0,0,0,1380.806,1499.671Z" transform="translate(-1275.138 -1170.68)" fill="#ffe3ca"/>
      <path id="Path_9" data-name="Path 9" d="M1335.44,1518.125a.291.291,0,0,1,.037.113s-22.715,7.872-24.477,10.8c0,0,30.287-1.162,36.135-3.786,0,0-.412-2.736-1.087-7.347A29.694,29.694,0,0,1,1335.44,1518.125Z" transform="translate(-1240.38 -1188.872)" fill="#0b4870"/>
      <path id="Path_10" data-name="Path 10" d="M1446.554,1520.712a104.833,104.833,0,0,0-21.254,9.6s30.887-.862,33.211-1.462c.412-.112.337-2.924-.075-7.534A68.693,68.693,0,0,1,1446.4,1520C1446.516,1520.487,1446.554,1520.712,1446.554,1520.712Z" transform="translate(-1311.835 -1190.184)" fill="#0b4870"/>
      <path id="Path_11" data-name="Path 11" d="M1473.2,1488.7c1.574,5.96,2.7,10.2,3.149,11.77a72.919,72.919,0,0,0,12.032,1.312c-.337-3.411-.825-7.834-1.5-12.857A83.464,83.464,0,0,1,1473.2,1488.7Z" transform="translate(-1341.78 -1170.617)" fill="#ffe3ca"/>
      <path id="Path_12" data-name="Path 12" d="M1410.185,995.4a48.143,48.143,0,0,0-6.26-21.4l-29.125,1.125s9.034,86.289,13.382,103.194c3.336,12.857,17.093,64.586,23.5,88.65a79.484,79.484,0,0,0,13.682.188c-3.224-24.927-9.746-65.148-12.108-76.018C1411.385,1082.667,1412.359,1027.115,1410.185,995.4Z" transform="translate(-1280.265 -848.849)" fill="#3b9cba"/>
      <path id="Path_13" data-name="Path 13" d="M1229.932,716.859s-21.254,6.11-24.477,4.648c-3.186-1.462-37-34.373-40.783-43.707l-7.572,3.486s32.349,54.2,40.221,55.364,34.673-2.324,34.673-2.324Z" transform="translate(-1144.168 -663.677)" fill="#ffe3ca"/>
      <path id="Path_14" data-name="Path 14" d="M1342.9,769.465l3.186,21.853a11.579,11.579,0,0,0,10.8-.862c5.548-3.486,14.094-23.165,8.509-25.264S1342.9,769.465,1342.9,769.465Z" transform="translate(-1260.322 -718.046)" fill="#f44"/>
      <path id="Path_15" data-name="Path 15" d="M1151.1,675.066l-9.9-7.272s8.734-8.734,10.8-7.572c2.024,1.162,5.96,9.933,6.035,11.807S1151.1,675.066,1151.1,675.066Z" transform="translate(-1134.228 -652.622)" fill="#ffe3ca"/>
      <path id="Path_16" data-name="Path 16" d="M1378.7,650.91s-5.66-7.16-1.274-9.184,13.12-2.024,18.068-.6c4.948,1.462,9.9,5.548,9.9,5.548s4.086-2.324,5.548,2.324-2.324,21.254,5.248,31.449,5.548,37.859,2.624,43.107-13.119,6.41-16.006,2.324c-2.924-4.086-13.982-53.6-13.982-53.6Z" transform="translate(-1280.862 -640.124)" fill="#0b4870"/>
      <path id="Path_17" data-name="Path 17" d="M1371.891,761.8s-9.333,12.52-13.12,21.254-7.009,16.306-6.41,31.449a217.389,217.389,0,0,1-.862,28.563s37.747,4.311,40.933-1.612c3.336-6.26-1.162-22.153,1.762-30.587s1.912-29.575,1.612-33.361S1390.221,765.286,1371.891,761.8Z" transform="translate(-1265.698 -716.19)" fill="#f44"/>
      <path id="Path_18" data-name="Path 18" d="M1379.4,659.2s-13.982,33.811,6.41,32.349l-1.462,11.358,14.282-1.462V683.077l5.248-19.529Z" transform="translate(-1280.218 -652.049)" fill="#ffe3ca"/>
      <path id="Path_19" data-name="Path 19" d="M1458.4,802.9s23.877,26.8,26.5,32.611-44.569,39.621-46.031,45.169l-8.171-5.81s37.859-31.449,35.835-36.435c-2.024-4.948-21.216-26.127-21.216-26.127Z" transform="translate(-1315.211 -741.885)" fill="#ffe3ca"/>
      <path id="Path_20" data-name="Path 20" d="M1446.081,792.249l16.006-12.82s-16.306-16.905-20.691-18.067-10.8,2.924-10.8,5.81S1446.081,792.249,1446.081,792.249Z" transform="translate(-1315.148 -715.79)" fill="#f44"/>
      <path id="Path_21" data-name="Path 21" d="M1393.62,667.244v7.01h2.324s.862-4.086,2.924-4.648c2.024-.6,3.786,4.648-1.462,8.172l4.385,18.517,4.648-11.245,2.624-25.04s-4.948-4.648-5.548-4.648-17.767-1.462-17.767-1.462-8.434.3-5.248,4.086C1383.724,661.7,1391.6,667.544,1393.62,667.244Z" transform="translate(-1283.378 -648.736)" fill="#0b4870"/>
      <path id="Path_22" data-name="Path 22" d="M1125.786,664.4l25.639-11.1,2.324,3.224-26.8,11.658H1122.6Z" transform="translate(-1122.6 -648.361)" fill="#f7f7f7"/>
      <path id="Path_23" data-name="Path 23" d="M1135.782,666.5s-.862,3.186-.3,3.186c.6,0,1.462-1.162,2.924-1.162a13.631,13.631,0,0,0,5.81-2.024c.862-.6,2.324-.3,2.924-1.162a12.076,12.076,0,0,0,1.125-2.774l.037-2.174C1148.3,660.354,1138.969,660.354,1135.782,666.5Z" transform="translate(-1130.535 -652.791)" fill="#ffe3ca"/>
      <path id="Path_24" data-name="Path 24" d="M1157.893,669.808s4.648,2.324,6.41,2.624,2.624-2.924,0-3.786S1154.969,666.322,1157.893,669.808Z" transform="translate(-1144.212 -657.297)" fill="#ffe3ca"/>
    </g>
    <g id="Plant" transform="translate(578.152 222.068)">
      <g id="Group_11" data-name="Group 11">
        <path id="Path_25" data-name="Path 25" d="M1548.772,1137.406c-18.217-1.125-33.661-16.718-33.773-29.875-.113-10.871,10.308-13.682,10.683-27.364.3-11.845-7.347-14.469-6.035-24.515,1.349-10.571,11.733-22.715,24.177-22.753,14.319-.038,24.065,15.968,24.89,28.788.562,8.7-4.76,9.933-4.611,18.142.3,16.793,21.254,21.591,20.991,34.111C1584.756,1125.448,1566.689,1138.531,1548.772,1137.406Z" transform="translate(-1514.998 -1032.9)" fill="#45bd89"/>
      </g>
      <g id="Group_12" data-name="Group 12" transform="translate(32.537 17.768)">
        <rect id="Rectangle_57" data-name="Rectangle 57" width="1.05" height="95.622" fill="#f7f7f7"/>
      </g>
      <g id="Group_13" data-name="Group 13" transform="translate(22.829 36.772)">
        <path id="Path_26" data-name="Path 26" d="M1586.021,1145.207c-8.846-.6-10.083-13.569-10.121-14.132l1.05-.075c0,.113,1.2,12.632,9.146,13.157Z" transform="translate(-1575.9 -1131)" fill="#f7f7f7"/>
      </g>
      <g id="Group_14" data-name="Group 14" transform="translate(15.852 112.678)">
        <path id="Path_27" data-name="Path 27" d="M1561.641,1333.5h25.339a4.327,4.327,0,0,1,4.311,4.573l-3.449,64.023a4.29,4.29,0,0,1-4.161,4.086l-18.442.75a4.308,4.308,0,0,1-4.5-4.086l-3.449-64.773A4.379,4.379,0,0,1,1561.641,1333.5Z" transform="translate(-1557.288 -1333.5)" fill="#2a94f4"/>
      </g>
      <g id="Group_15" data-name="Group 15" transform="translate(25.715 74.256)">
        <path id="Path_28" data-name="Path 28" d="M1590.834,1241.121c-6.335-.412-7.2-9.633-7.235-10.046l1.05-.075c0,.075.825,8.7,6.26,9.071Z" transform="translate(-1583.6 -1231)" fill="#f7f7f7"/>
      </g>
      <g id="Group_16" data-name="Group 16" transform="translate(32.575 60.725)">
        <path id="Path_29" data-name="Path 29" d="M1601.937,1204.683l-.037-1.05c7.422-.375,8.509-8.659,8.509-8.734l1.05.112C1611.458,1195.125,1610.259,1204.308,1601.937,1204.683Z" transform="translate(-1601.9 -1194.9)" fill="#f7f7f7"/>
      </g>
      <g id="Group_17" data-name="Group 17" transform="translate(32.95 87.826)">
        <path id="Path_30" data-name="Path 30" d="M1602.937,1274.434l-.037-1.05c5.248-.262,6-5.96,6.035-6.185l1.05.112C1609.947,1267.35,1609.047,1274.134,1602.937,1274.434Z" transform="translate(-1602.9 -1267.2)" fill="#f7f7f7"/>
      </g>
    </g>
  </g>
</svg>
