<svg xmlns="http://www.w3.org/2000/svg" width="465.2" height="400" viewBox="0 0 465.2 400">
  <g id="producer" transform="translate(-49.3 -74.061)">
    <g id="Group_271" data-name="Group 271" transform="translate(64.912 74.061)">
      <path id="Path_514" data-name="Path 514" d="M169.684,103.7c-12.749,6.1-25.5,13.5-34.431,25.1s-13.4,28.3-8.1,42.3c7.165,18.7,29.872,29.5,29.965,49.8.093,14.5-12.284,25.6-24.753,30.8-12.47,5.3-26.242,7.2-37.5,14.9-17.03,11.7-25.033,34.2-28.383,55.8-3.443,22.4-2.047,47.9,12.563,64.2,18.146,20.2,48.2,17.9,73.981,13.6,34.338-5.7,68.491-12.5,102.643-19.3L480.4,336.5c8-1.6,16.378-3.3,22.892-8.6,12.935-10.6,14.052-32.4,6.514-47.9-7.538-15.6-21.5-26.2-35.269-35.3-13.866-9.1-28.476-17.8-38.805-31.4-10.423-13.5-15.541-33.5-7.631-48.9,6.7-13,20.938-20,27.173-33.3,8.189-17.5-1.21-39.9-16.1-51C424.2,68.8,237.244,71.6,169.684,103.7Z" transform="translate(-64.912 -74.061)" fill="#f7f6f6"/>
    </g>
    <path id="Path_515" data-name="Path 515" d="M499.844,502.9H54.516a5.409,5.409,0,0,1-5.216-5.6v-28a5.409,5.409,0,0,1,5.216-5.6H499.844a5.409,5.409,0,0,1,5.216,5.6v28A5.473,5.473,0,0,1,499.844,502.9Z" transform="translate(0 -28.839)" fill="#2b3647"/>
    <g id="Group_278" data-name="Group 278" transform="translate(447.76 358.861)">
      <g id="Group_277" data-name="Group 277">
        <g id="Group_272" data-name="Group 272" transform="translate(0 20.7)">
          <path id="Path_516" data-name="Path 516" d="M507.5,443.9a54.409,54.409,0,0,0-26.2-35.5,215.784,215.784,0,0,0,25.2,37.5Z" transform="translate(-481.3 -408.4)" fill="#2a94f4"/>
        </g>
        <g id="Group_273" data-name="Group 273" transform="translate(11.932 0.5)">
          <path id="Path_517" data-name="Path 517" d="M511,449.4a96.167,96.167,0,0,1-17.6-61.2A334.933,334.933,0,0,1,511.8,450Z" transform="translate(-493.232 -388.2)" fill="#2a94f4"/>
        </g>
        <g id="Group_274" data-name="Group 274" transform="translate(24.6 0.6)">
          <path id="Path_518" data-name="Path 518" d="M507.4,450c-.4-10.8-.8-21.7.9-32.4s5.6-21.3,12.9-29.3a117.113,117.113,0,0,1-15.3,63.9Z" transform="translate(-505.9 -388.3)" fill="#2a94f4"/>
        </g>
        <g id="Group_275" data-name="Group 275" transform="translate(22.013)">
          <path id="Path_519" data-name="Path 519" d="M507.9,451a85.573,85.573,0,0,1,3.2-63.3c5.7,20.5.6,42.4-4.4,63.1Z" transform="translate(-503.313 -387.7)" fill="#b2dff8"/>
        </g>
        <g id="Group_276" data-name="Group 276" transform="translate(25.2 13.8)">
          <path id="Path_520" data-name="Path 520" d="M508.9,443.4a53.1,53.1,0,0,1,30.4-41.9,111.73,111.73,0,0,1-32.8,46.3Z" transform="translate(-506.5 -401.5)" fill="#2a94f4"/>
        </g>
      </g>
      <path id="Path_521" data-name="Path 521" d="M525.8,440.3l-2,34.9a3.116,3.116,0,0,1-3.1,3.1H496.5a3.116,3.116,0,0,1-3.1-3.1l-.4-7.9-1.6-27a3.116,3.116,0,0,1,3.1-3.1h28.2a2.984,2.984,0,0,1,2.6,1.5h0A2.2,2.2,0,0,1,525.8,440.3Z" transform="translate(-481.3 -387.7)" fill="#fabb56"/>
    </g>
    <g id="Group_285" data-name="Group 285" transform="translate(55.9 309.861)">
      <g id="Group_284" data-name="Group 284">
        <g id="Group_279" data-name="Group 279" transform="translate(0 31.8)">
          <path id="Path_522" data-name="Path 522" d="M96.2,425.2a83.9,83.9,0,0,0-40.3-54.7,342.3,342.3,0,0,0,38.8,57.9Z" transform="translate(-55.9 -370.5)" fill="#2a94f4"/>
        </g>
        <g id="Group_280" data-name="Group 280" transform="translate(18.342 0.8)">
          <path id="Path_523" data-name="Path 523" d="M101.6,433.8a148.207,148.207,0,0,1-27.1-94.3,494.705,494.705,0,0,1,28.3,95.3Z" transform="translate(-74.242 -339.5)" fill="#2a94f4"/>
        </g>
        <g id="Group_281" data-name="Group 281" transform="translate(38 0.9)">
          <path id="Path_524" data-name="Path 524" d="M96.1,434.8c-.6-16.7-1.2-33.5,1.4-50s8.7-32.8,19.9-45.2a182.208,182.208,0,0,1-23.5,98.5Z" transform="translate(-93.9 -339.6)" fill="#2a94f4"/>
        </g>
        <g id="Group_282" data-name="Group 282" transform="translate(33.844)">
          <path id="Path_525" data-name="Path 525" d="M96.8,436.3a132.343,132.343,0,0,1,4.9-97.6c8.7,31.7,1,65.3-6.8,97.2Z" transform="translate(-89.744 -338.7)" fill="#b2dff8"/>
        </g>
        <g id="Group_283" data-name="Group 283" transform="translate(38.8 21.3)">
          <path id="Path_526" data-name="Path 526" d="M98.3,424.6c3-27.7,21.5-53.1,46.9-64.6a172.042,172.042,0,0,1-50.5,71.4Z" transform="translate(-94.7 -360)" fill="#2a94f4"/>
        </g>
      </g>
      <path id="Path_527" data-name="Path 527" d="M124.4,419.7l-3.2,53.8a4.7,4.7,0,0,1-4.7,4.7H79.3a4.7,4.7,0,0,1-4.7-4.7l-.7-12.1-2.4-41.6a4.7,4.7,0,0,1,4.7-4.7h43.6a4.58,4.58,0,0,1,4,2.3h0A4.143,4.143,0,0,1,124.4,419.7Z" transform="translate(-55.9 -338.7)" fill="#fabb56"/>
    </g>
    <g id="To_Do_List" transform="translate(281.609 137.798)">
      <g id="To_Do_List_1_">
        <g id="Group_288" data-name="Group 288">
          <rect id="Rectangle_63" data-name="Rectangle 63" width="145.7" height="193.3" transform="translate(0 22.073) rotate(-0.366)" fill="#004970"/>
          <path id="Path_528" data-name="Path 528" d="M318.2,344.8h2.2l128.7,3.1-4.6-182.8-5.9,1.8Z" transform="translate(-306.09 -137.798)" fill="#030809" opacity="0.26"/>
          <rect id="Rectangle_64" data-name="Rectangle 64" width="131" height="178.9" transform="translate(7.446 28.125) rotate(-0.366)" fill="#eeeeef"/>
          <path id="Path_529" data-name="Path 529" d="M312.8,165.3l94.2-.6-93.9,79.4Z" transform="translate(-306.09 -137.798)" fill="#010102" opacity="0.05"/>
          <g id="Group_287" data-name="Group 287" transform="translate(44.41)">
            <rect id="Rectangle_65" data-name="Rectangle 65" width="56.9" height="5.3" transform="translate(0.091 26.987) rotate(-0.366)" fill="#01384f" opacity="0.12"/>
            <g id="Group_286" data-name="Group 286">
              <path id="Path_530" data-name="Path 530" d="M395.7,148.4h-.9v-.6c0-5.6-5.3-10.1-11.7-10l-8.5.1c-6.4,0-11.6,4.6-11.6,10.2v.6h-.9c-6.4,0-11.6,4.6-11.6,10.2l.1,11.3,56.9-.4-.1-11.3C407.4,152.9,402.1,148.4,395.7,148.4Zm-9.3.3-15,.1a2.8,2.8,0,0,1,0-5.6l15-.1a2.8,2.8,0,0,1,0,5.6Z" transform="translate(-350.5 -137.798)" fill="#01384f"/>
            </g>
          </g>
        </g>
        <g id="Group_289" data-name="Group 289" transform="translate(24.11 77.902)" opacity="0.47">
          <path id="Path_531" data-name="Path 531" d="M350.4,215.7c-6.4,0-12.8.1-19.2.1a1.075,1.075,0,0,0-1,1c0,6.4.1,12.7.1,19.1a1.075,1.075,0,0,0,1,1c6.4,0,12.8-.1,19.2-.1a.908.908,0,0,0,.7-.3h0a.908.908,0,0,0,.3-.7c0-6.4-.1-12.7-.1-19.1A1,1,0,0,0,350.4,215.7Zm-.8,19.1c-5.7,0-11.5.1-17.2.1,0-5.7-.1-11.4-.1-17.1,5.7,0,11.5-.1,17.2-.1C349.5,223.4,349.5,229.1,349.6,234.8Z" transform="translate(-330.2 -215.7)" fill="#f5f5f5"/>
          <path id="Path_532" data-name="Path 532" d="M350.7,251.1c-6.4,0-12.8.1-19.2.1a1.075,1.075,0,0,0-1,1c0,6.4.1,12.7.1,19.1a1.075,1.075,0,0,0,1,1c6.4,0,12.8-.1,19.2-.1a.908.908,0,0,0,.7-.3h0a.908.908,0,0,0,.3-.7c0-6.4-.1-12.7-.1-19.1A1,1,0,0,0,350.7,251.1Zm-.9,19.1c-5.7,0-11.5.1-17.2.1,0-5.7-.1-11.4-.1-17.1,5.7,0,11.5-.1,17.2-.1C349.7,258.8,349.7,264.5,349.8,270.2Z" transform="translate(-330.2 -215.7)" fill="#f5f5f5"/>
          <path id="Path_533" data-name="Path 533" d="M350.9,286.4c-6.4,0-12.8.1-19.2.1a1.075,1.075,0,0,0-1,1c0,6.4.1,12.7.1,19.1a1.075,1.075,0,0,0,1,1c6.4,0,12.8-.1,19.2-.1a.908.908,0,0,0,.7-.3h0a.908.908,0,0,0,.3-.7c0-6.4-.1-12.7-.1-19.1A1.075,1.075,0,0,0,350.9,286.4Zm-.9,19.2c-5.7,0-11.5.1-17.2.1,0-5.7-.1-11.4-.1-17.1,5.7,0,11.5-.1,17.2-.1C349.9,294.1,350,299.8,350,305.6Z" transform="translate(-330.2 -215.7)" fill="#f5f5f5"/>
        </g>
        <path id="Path_534" data-name="Path 534" d="M337.7,223l4.4-1.5,2.5,4.4,21-15.3,2.5.5-24.4,20.2Z" transform="translate(-306.09 -137.798)" fill="#45bd89"/>
        <path id="Path_535" data-name="Path 535" d="M336.4,259.3l4.4-1.5,2.4,4.4,21.1-15.3,2.4.5-24.4,20.2Z" transform="translate(-306.09 -137.798)" fill="#45bd89"/>
        <path id="Path_536" data-name="Path 536" d="M336.2,292.8l4.4-1.5,2.5,4.4,21-15.3,2.4.4L342.1,301Z" transform="translate(-306.09 -137.798)" fill="#45bd89"/>
        <rect id="Rectangle_66" data-name="Rectangle 66" width="67.9" height="9.6" transform="translate(57.187 156.325) rotate(-0.366)" fill="#fff"/>
        <rect id="Rectangle_67" data-name="Rectangle 67" width="67.9" height="9.6" transform="translate(56.988 118.924) rotate(-0.366)" fill="#fff"/>
        <rect id="Rectangle_68" data-name="Rectangle 68" width="67.9" height="9.6" transform="translate(56.687 81.423) rotate(-0.366)" fill="#fff"/>
      </g>
    </g>
    <g id="Girl" transform="translate(132.571 182.812)">
      <g id="Girl_1_">
        <g id="Group_292" data-name="Group 292" transform="translate(109.8 50.281)">
          <g id="Group_290" data-name="Group 290" transform="translate(0 59.869)">
            <line id="Line_1" data-name="Line 1" y2="163.7" transform="translate(68 4.6)" fill="#004970" stroke="#1f120c" stroke-miterlimit="10" stroke-width="1.908"/>
            <rect id="Rectangle_69" data-name="Rectangle 69" width="136" height="9" fill="#004970"/>
          </g>
          <g id="Group_291" data-name="Group 291" transform="translate(27.3)">
            <path id="Path_537" data-name="Path 537" d="M353.3,321.2H286a3.585,3.585,0,0,1-3.6-3.6h0A3.585,3.585,0,0,1,286,314h67.3a3.585,3.585,0,0,1,3.6,3.6h0A3.585,3.585,0,0,1,353.3,321.2Z" transform="translate(-282.4 -261.931)" fill="#020102"/>
            <path id="Path_538" data-name="Path 538" d="M353.8,318.7a1.421,1.421,0,0,1-.6-.2,1.1,1.1,0,0,1-.3-1.5L387,262.4a1.082,1.082,0,0,1,1.8,1.2l-34.1,54.6A1.05,1.05,0,0,1,353.8,318.7Z" transform="translate(-282.4 -261.931)" fill="#020102"/>
          </g>
        </g>
        <g id="Group_315" data-name="Group 315">
          <g id="Group_304" data-name="Group 304" transform="translate(0 138.049)">
            <g id="Group_301" data-name="Group 301" transform="translate(15.126)">
              <g id="Group_296" data-name="Group 296" transform="translate(14.1)">
                <path id="Path_539" data-name="Path 539" d="M211.3,349.7l70.9,1.8a20.375,20.375,0,0,1,19.3,23.2h0a20.311,20.311,0,0,1-20,17.3H197.2s-30.4-10.8-20.8-37Z" transform="translate(-174.526 -349.7)" fill="#a24258"/>
                <g id="Group_295" data-name="Group 295" transform="translate(74.374 25)">
                  <g id="Group_294" data-name="Group 294" transform="translate(1.824 45.4)">
                    <g id="Group_293" data-name="Group 293" transform="translate(0 43.6)">
                      <path id="Path_540" data-name="Path 540" d="M285.1,479l11.8,5.8a2.857,2.857,0,0,1,1.6,3.4c-.3,1.1-1.3,1.9-4,1.9-5.9.1-31.7-3.8-31.7-3.8V489l-12-1.4s-.8-13.7,2.8-15.8Z" transform="translate(-250.724 -463.7)"/>
                      <path id="Path_541" data-name="Path 541" d="M266,465.2,285.1,479s-2,5.2-11.1,1.7c-9-3.5-20.4-8.8-20.4-8.8l1.7-8.2Z" transform="translate(-250.724 -463.7)" fill="#efbeab"/>
                    </g>
                    <path id="Path_542" data-name="Path 542" d="M253.7,471.9l11.5-51.8,19,1.8-16.1,48.2Z" transform="translate(-250.724 -420.1)" fill="#efbeab"/>
                  </g>
                  <path id="Path_543" data-name="Path 543" d="M301.4,374.7l-16,85.2H248.9L263,376.1Z" transform="translate(-248.9 -374.7)" fill="#a24258"/>
                </g>
              </g>
              <g id="Group_300" data-name="Group 300">
                <path id="Path_544" data-name="Path 544" d="M214.7,349.7l53.4,1.8a20.375,20.375,0,0,1,19.3,23.2h0a20.311,20.311,0,0,1-20,17.3H183.1s-30.4-10.8-20.8-37Z" transform="translate(-160.426 -349.7)" fill="#f44"/>
                <g id="Group_299" data-name="Group 299" transform="translate(74.474 25)">
                  <g id="Group_298" data-name="Group 298" transform="translate(1.824 45.4)">
                    <g id="Group_297" data-name="Group 297" transform="translate(0 43.6)">
                      <path id="Path_545" data-name="Path 545" d="M271.1,479l11.8,5.8a2.857,2.857,0,0,1,1.6,3.4c-.3,1.1-1.3,1.9-4,1.9-5.9.1-31.7-3.8-31.7-3.8V489l-12-1.4s-.8-13.7,2.8-15.8Z" transform="translate(-236.724 -463.7)"/>
                      <path id="Path_546" data-name="Path 546" d="M252,465.2,271.1,479s-2,5.2-11.1,1.7c-9-3.5-20.4-8.8-20.4-8.8l1.7-8.2Z" transform="translate(-236.724 -463.7)" fill="#facbb6"/>
                    </g>
                    <path id="Path_547" data-name="Path 547" d="M239.7,471.9l11.5-51.8,19.1,1.8-16.2,48.2Z" transform="translate(-236.724 -420.1)" fill="#facbb6"/>
                  </g>
                  <path id="Path_548" data-name="Path 548" d="M287.4,374.7l-16,85.2H234.9L249,376.1Z" transform="translate(-234.9 -374.7)" fill="#f44"/>
                </g>
              </g>
            </g>
            <g id="Group_303" data-name="Group 303" transform="translate(0 42.1)">
              <g id="Group_302" data-name="Group 302" transform="translate(6.4 8.8)">
                <rect id="Rectangle_70" data-name="Rectangle 70" width="11.4" height="62.9" transform="translate(29.8)" fill="#dad8de"/>
                <path id="Path_549" data-name="Path 549" d="M184.4,455.5l-32.7,14.9.4,4.2,34.2-11Z" transform="translate(-151.7 -400.6)" fill="#dad8de"/>
                <path id="Path_550" data-name="Path 550" d="M190,455.5l32.8,14.9-.5,4.2-34.2-11Z" transform="translate(-151.7 -400.6)" fill="#dad8de"/>
              </g>
              <circle id="Ellipse_10" data-name="Ellipse 10" cx="7.8" cy="7.8" r="7.8" transform="translate(0 82.5)" fill="#010102"/>
              <circle id="Ellipse_11" data-name="Ellipse 11" cx="7.8" cy="7.8" r="7.8" transform="translate(69.7 82.5)" fill="#010102"/>
              <path id="Path_551" data-name="Path 551" d="M219.4,405H153.3a6.594,6.594,0,0,1-6.6-6.6h0a6.594,6.594,0,0,1,6.6-6.6h66.1a6.594,6.594,0,0,1,6.6,6.6h0A6.531,6.531,0,0,1,219.4,405Z" transform="translate(-145.3 -391.8)" fill="#004970"/>
            </g>
          </g>
          <g id="Group_310" data-name="Group 310" transform="translate(17 53.649)">
            <g id="Group_306" data-name="Group 306" transform="translate(29.1 8.2)">
              <path id="Path_552" data-name="Path 552" d="M210.9,273.5,239,311.4a14.043,14.043,0,0,1-1.5,18.4h0a14,14,0,0,1-21-1.7l-25.1-34Z" transform="translate(-191.4 -273.5)" fill="#eca646"/>
              <g id="Group_305" data-name="Group 305" transform="translate(31.5 7.609)">
                <path id="Path_553" data-name="Path 553" d="M263.2,292.9s5.1-9.4,13.6-11.6c6.6-1.7,12.1,8.4,14.2,12.9a1.963,1.963,0,0,1-1.2,2.7h0a1.615,1.615,0,0,1-1.8-.7l-2.3-3.1s.4,6.8-5.4,6.1c-5.8-.6-7.7-2.8-7.7-2.8l-6.5,4.5Z" transform="translate(-222.9 -281.109)" fill="#facbb6"/>
                <path id="Path_554" data-name="Path 554" d="M222.9,312l40.9-27.6,10.9,16.4-42.3,32.5Z" transform="translate(-222.9 -281.109)" fill="#eca646"/>
              </g>
            </g>
            <path id="Path_555" data-name="Path 555" d="M212,265.3s-18.4,7.2-31.5,32.7-18.2,57-18.2,57,24.3,6.8,52.4-5.3l10-31.7s8.7-10.2,0-42Z" transform="translate(-162.3 -265.3)" fill="#fabb58"/>
            <g id="Group_309" data-name="Group 309" transform="translate(32.7 12.4)">
              <g id="Group_307" data-name="Group 307" transform="translate(35.9 17.5)">
                <path id="Path_556" data-name="Path 556" d="M272.7,303.1s7-7.9,15.8-7.9c6.8,0,10,11.1,11,16.1a1.826,1.826,0,0,1-1.7,2.3h0a1.714,1.714,0,0,1-1.6-1.1l-1.6-3.6s-1,6.7-6.5,4.7c-5.5-2.1-6.8-4.7-6.8-4.7l-7.3,2.8Z" transform="translate(-230.9 -295.2)" fill="#facbb6"/>
                <path id="Path_557" data-name="Path 557" d="M230.9,314.4,277.1,297l6.8,18.6-48.7,21.7Z" transform="translate(-230.9 -295.2)" fill="#fabb58"/>
              </g>
              <g id="Group_308" data-name="Group 308">
                <path id="Path_558" data-name="Path 558" d="M214.5,277.7l28.1,37.9a14.043,14.043,0,0,1-1.5,18.4h0a14,14,0,0,1-21-1.7l-25.1-34Z" transform="translate(-195 -277.7)" fill="#fabb58"/>
              </g>
            </g>
          </g>
          <g id="Group_314" data-name="Group 314" transform="translate(56.8)">
            <path id="Path_559" data-name="Path 559" d="M236,247.8l12.4.4c6.6,6.9,4.1,20.2,4.1,20.2l-20.1-5.8Z" transform="translate(-202.1 -211.651)"/>
            <path id="Path_560" data-name="Path 560" d="M237.4,257.6,224.7,276,212,265.3l18.5-26.7Z" transform="translate(-202.1 -211.651)" fill="#facbb6"/>
            <path id="Path_561" data-name="Path 561" d="M230.6,267.4l.1-12.5,5.4,4.6Z" transform="translate(-202.1 -211.651)" fill="#efbeaa"/>
            <path id="Path_562" data-name="Path 562" d="M253.5,220.5s8.4,4,5.7,15.2c0,0-2.1,8.1-5.1,19.7-1.6,6.1-8.6,9.5-14.2,6.5a30.874,30.874,0,0,1-9.9-8.4l-3.7-6.2c-8-16.7,9-34.8,26-27.4Z" transform="translate(-202.1 -211.651)" fill="#facbb6"/>
            <path id="Path_563" data-name="Path 563" d="M254.9,247l2.9,5a.955.955,0,0,1-1,1.4l-4.1-.7Z" transform="translate(-202.1 -211.651)" fill="#facbb6"/>
            <g id="Group_312" data-name="Group 312" transform="translate(48 41.949)">
              <g id="Group_311" data-name="Group 311">
                <path id="Path_564" data-name="Path 564" d="M250.1,253.6" transform="translate(-250.1 -253.6)" fill="none" stroke="#000" stroke-linecap="round" stroke-linejoin="round" stroke-miterlimit="10" stroke-width="0.477"/>
                <path id="Path_565" data-name="Path 565" d="M253.2,255.6" transform="translate(-250.1 -253.6)" fill="none" stroke="#000" stroke-linecap="round" stroke-linejoin="round" stroke-miterlimit="10" stroke-width="0.477"/>
              </g>
            </g>
            <path id="Path_566" data-name="Path 566" d="M236.1,237s2.6-28.4,22.6-10.7c0,0-4.8-17.3-27.7-14.3-4.8.6-10.8,4.6-12.9,8.9-3.4,7.1-1.1,14.6,2.1,28.2l10.4-6.8C231.6,240.6,236.1,237,236.1,237Z" transform="translate(-202.1 -211.651)"/>
            <path id="Path_567" data-name="Path 567" d="M230.9,227l1.4,12.4c32.4-.7,22.9-18.5,22.9-18.5S233.2,206.8,230.9,227Z" transform="translate(-202.1 -211.651)"/>
            <path id="Path_568" data-name="Path 568" d="M244.3,236.6l-6,5-3.1-8.8Z" transform="translate(-202.1 -211.651)"/>
            <path id="Path_569" data-name="Path 569" d="M250.5,221.1s9.7,4.6,9.1,12.1c0,0,10.4-5.9-5.2-14.2C245.2,214.1,250.5,221.1,250.5,221.1Z" transform="translate(-202.1 -211.651)"/>
            <path id="Path_570" data-name="Path 570" d="M232.5,242.8s-5.8,12.9-5.9,18.1l-24.5-8.5s7.1-7.5,9.4-14.1c1.8-5.3,2.7-18.2,13.3-24.1l-.5,17.2Z" transform="translate(-202.1 -211.651)"/>
            <g id="Group_313" data-name="Group 313" transform="translate(24.3 22.697)">
              <path id="Path_571" data-name="Path 571" d="M226.8,238.3a6.11,6.11,0,1,0,7.9-3.5A5.977,5.977,0,0,0,226.8,238.3Z" transform="translate(-226.4 -234.347)" fill="#facbb6"/>
              <path id="Path_572" data-name="Path 572" d="M231.9,237.6" transform="translate(-226.4 -234.347)" fill="none" stroke="#000" stroke-linecap="round" stroke-linejoin="round" stroke-miterlimit="10" stroke-width="0.477"/>
              <path id="Path_573" data-name="Path 573" d="M234.6,242.6" transform="translate(-226.4 -234.347)" fill="none" stroke="#000" stroke-linecap="round" stroke-linejoin="round" stroke-miterlimit="10" stroke-width="0.477"/>
            </g>
            <path id="Path_574" data-name="Path 574" d="M212,265.3s3.9,11.4,14,15.7l-2.9-12.7Z" transform="translate(-202.1 -211.651)" fill="#facbb6"/>
          </g>
        </g>
      </g>
    </g>
  </g>
</svg>
