<svg xmlns="http://www.w3.org/2000/svg" width="185.67" height="250" viewBox="0 0 185.67 250">
  <g id="man" transform="translate(-3457 -1067.503)">
    <path id="rgba_12_12_12_1_" data-name="rgba(12,12,12,1)" d="M108.055,19.906q4.361-.623,6.23,1.246l5.3,4.673,2.492,3.738v3.115l1.558,1.558,3.427.623,1.557-2.492q3.3-.748,4.049.935,1.807,2.43,1.246,6.542-2.305-.872-1.246,2.8A34.924,34.924,0,0,0,140.451,54.8q1.246,1.869,4.984,1.246l8.1-1.869,2.18,1.558v3.738q-1.62.872-1.246,3.738l4.361,4.361.623,5.607a40.334,40.334,0,0,1-12.771,18.38l-1.558.935,5.3,7.165,4.361.623,8.722,3.115h6.23q1.62,2.118,6.23,1.246l3.738,1.869h6.23l3.426,2.8a75.016,75.016,0,0,1,8.1,19.314l1.869,8.723.623,8.723q-3.551,12.025-12.771,18.38l-5.607.623-2.492-1.246-8.1-.623-.935,2.181q4.672,5.3,3.115,16.822l-.623.623-.623,8.723-1.246,3.738v3.738l-1.246,4.984v7.477l-.623,1.246q1.557.935.623,4.361a12.775,12.775,0,0,0,4.673,6.542l19,9.346q.81,1.869-1.558,1.246l-5.919-1.869q1.184,5.42-1.557,7.477l-.935.312,2.18,1.558q2.928-2.368,9.345-1.246l4.049,2.8q.5,1.433-.935.935-2.367-2.928-8.722-1.869l-3.427,2.181.312.935,1.246-1.246,6.23-.623,2.8.623q.685,1.682-.934,1.246l-.623.623-5.3.312,7.788,2.181,4.672,3.427-.623,2.181-4.049.623-7.476-3.115-14.952-.623-7.787,4.361-.623,4.05,2.18,2.8a40.443,40.443,0,0,0,13.083,4.361h16.2l12.771-3.738-.623-5.3-1.557-1.558-1.557.935L204,260.4q-6.105,5.421-18.69,4.361l-10.591-1.869a10.992,10.992,0,0,1-6.542-3.427l.312-.935,8.722,2.492,15.575.623.623-.623,6.853-.623,5.918-4.05q.935-6.542-1.869-9.346l-8.722-10.592-.623-1.869.935.312a22.076,22.076,0,0,1,9.033,7.165l4.984,6.854,2.492,6.23v5.607l-2.8,4.05-8.1,3.115-6.853,1.246h-16.2l-6.853-1.869-7.164-5.919.623-4.361,4.049-5.3,6.23-3.115,8.41-.623-1.246-6.23-5.919-1.869-13.706-1.869a8.851,8.851,0,0,1-5.919-4.05l-6.853-12.461-7.164-8.411h-12.46q-.748.187-.312,4.05l2.492,5.607,1.869,11.838-3.426,1.558-25.543.623-.934.935,5.3,7.165,3.738,2.492,14.952,3.738,4.673,4.05,1.246,6.23-.623,2.492-2.181,2.181q-6.791,4.735-19.936,3.115l-9.968-2.492a27.04,27.04,0,0,1-10.9-7.165l-3.738-7.477-.623-13.707.623-.623v-8.1l3.115-5.919h20.87q.623,0,.312-2.8l-8.722-11.215-5.607-5.607-3.115-5.607L84.07,188.44,70.364,170.994l-3.115-8.1V149.811l.623-.623v-6.23l-1.558.935-3.738,1.869L61.019,144.2l-2.492-7.788-4.049.623-12.46,5.607-12.148.623L28,137.973a35.192,35.192,0,0,1,8.41-14.019l11.214-3.738,7.165-.623a33.53,33.53,0,0,0-8.1-17.134l-1.246-3.738V94.983l10.9-12.149,4.984-2.492,2.492,2.492,6.23.623,2.18,1.558,1.246,3.115.623,6.23-2.492,8.723.623,1.558h2.492v-4.05l.934-.312L79.4,95.294l10.591-8.1,3.427-.623a2.389,2.389,0,0,0-1.558-3.115l-6.541-5.3L84.07,75.045V63.207l2.8-4.673,2.8-.623V55.419q-1.869.81-1.246-1.558l-1.246-3.115V39.532l1.557-2.8,4.984-2.492,9.656-2.492,2.492-4.673,1.246-6.23Zm14.017,16.2-3.738,3.738-8.722-2.492h-4.361L100.891,38.6l-3.115,4.361.623,4.984,4.361,8.1V60.4L98.4,69.749l-2.492,8.723v6.854a52.592,52.592,0,0,0,9.968,13.707l.623.623q-4.361-.623-5.607-3.115H99.645q.623,8.723,4.984,14.33l18.69-9.346q1.246.623.623-.623L122.7,99.656l-3.115-2.492V95.294l6.853,3.738,5.607-1.246,9.968-5.607,1.246-1.869-5.607,1.869-15.575-4.361-3.115-1.869-3.115-2.492L114.6,79.1l-4.984,2.492h-3.738V80.341a22.471,22.471,0,0,1,11.837-6.854l1.869.623.623,1.869-1.869,2.492,4.361-.623,1.869-1.869.623-2.492q.623-4.984-1.869-6.23l4.984-3.738,6.23,1.869,1.246,2.492-6.853-1.246L127.68,67.88v8.1l2.492.623h6.853l7.476-4.361,4.361-4.984,4.984-10.592V54.8l-6.853,3.115-6.853.623-.623.623q-5.607.623-8.1-.623L127.68,53.55l-.623-5.607L124.565,44.2V37.351A1.741,1.741,0,0,0,122.073,36.1Zm8.722,7.477-1.869,1.869,3.115,1.246Zm0,5.607q-1.869.623-1.246,3.115.623,1.246,3.115.623l1.246,2.492h.623l-1.869-4.984ZM88.431,60.4l-2.492,3.738-.623,3.115.623,6.23,2.492,4.984,2.492.623.623-1.246-2.492-4.984q-.623-3.738,1.869-4.361l-1.869-3.738V63.519a7.688,7.688,0,0,1,5.607,3.738q2.492.623,1.246-1.869L90.923,60.4Zm65.415,5.607-3.115,4.361,4.361,5.607-.623,1.246-7.476,4.984-3.115,3.115q1.246,3.115-.623,4.361l.623.623q1.246-.623.623-3.738l3.738.623q7.476-6.23,9.345-18.068l-2.492-3.115ZM93.415,69.749l-1.869,1.869.623,2.492L94.038,71Q94.661,69.126,93.415,69.749ZM60.4,82.833,53.543,90.31l-2.492,3.115,11.837-4.984L61.642,84.08Zm6.23,1.869L65.38,86.572l1.246-.623,4.361,1.869-.623-1.869Q69.741,84.08,66.626,84.7Zm0,4.361-9.345,4.984-5.607,1.869H47.313l4.361,10.592,6.23,9.969v2.492l-3.115,2.492-14.952,4.361a17.023,17.023,0,0,0-6.23,9.346l-2.492.623.623,1.869-1.246,1.869,1.246.623q2.492-.623,3.738.623l8.1-.623,1.246-2.492,9.968-9.346a27.649,27.649,0,0,0,8.1-9.969v-9.969l1.869-3.115,2.492.623L65.38,109q3.115.623,4.361-.623,1.246-7.477-1.246-11.215L57.281,100.9H54.166l6.853-4.361q4.361,0,6.23-2.492h1.869a3.154,3.154,0,0,0-1.246-3.738Q68.495,88.441,66.626,89.064Zm25.543,0-12.46,9.969h9.968l4.984,3.115,3.115,3.115L94.661,90.31Q95.284,87.818,92.169,89.064Zm52.955,5.607-11.837,6.854-4.361,1.246-13.706,6.854v.623l11.214-.623.623,4.361,4.361,8.1,3.115-11.215,3.115-5.607,3.115-2.492.623-1.869q-.623-1.869,1.246-1.246l3.115-3.738Q146.37,94.048,145.124,94.671Zm1.869,6.23-5.607,6.854-9.345,18.691q.623,1.246-1.246.623l-2.492-2.492-4.361-11.215-1.246-1.869a22.461,22.461,0,0,0-11.214,3.738l-4.984,5.607-8.1,13.707-2.492,1.869L86.562,133.3l-.623-1.246v-4.361l3.738-8.1,6.853-8.1-.623-3.738-3.115-3.738L90.3,101.525l-6.23,9.969-6.853,14.953-6.23,26.168v12.461l1.869-1.246.623,1.246-.623,1.246,1.869,4.361A60.832,60.832,0,0,0,91.546,184.39q1.869,1.869,6.23,1.246l4.984,3.115,9.968.623.623.623,9.968-.623,8.722-3.738,5.607-3.738,1.869-2.492,8.722-18.691q-.623-1.869,1.246-1.246l6.23-8.1.623-3.115q-1.869-3.115-6.853-2.492v4.984l-5.607,10.592q.623,1.246-1.246.623l3.738-10.592v-6.854l-1.246-3.738v-3.115a1.741,1.741,0,0,0-2.492-1.246l-1.246,2.492q-.623,2.492-3.738,1.869l-1.246,3.115-7.476,6.854h-1.869l9.968-11.838,1.869-3.738-5.607,1.246q-1.869.623-1.246-.623l4.361-3.115,5.607-1.869,1.869-3.115,3.115,1.869h7.476l8.1-2.492q7.476-6.853,9.968-18.691l-10.591-2.492-12.46-4.984Zm-61.054,1.246a28.585,28.585,0,0,1-13.083,5.607l-.623,2.492L66,112.117a11.09,11.09,0,0,1-1.246,7.477v4.361l1.869,4.361.623,7.477,1.246,2.492.623-.623,1.869-8.723,6.23-13.707,9.345-12.461Zm90.958,6.23-1.869.623v4.361l-1.869,5.607v.623l6.23-.623a63.652,63.652,0,0,1,15.575,23.676q.623,1.869-.623,2.492l-10.591-4.361a14.962,14.962,0,0,0-8.1-4.984l-2.492.623a13.584,13.584,0,0,0-6.23,10.592q4.361,0,6.23-3.115-.623-1.869,1.869-1.246v2.492l-4.361,8.1-4.984,3.738q-.623-3.738,1.869-4.984.623-1.869-.623-1.246-4.984,3.115-5.607,10.592l1.869.623,4.361-.623,7.476-3.738,3.115-.623-1.869,4.984,4.361,1.246q4.984.623,7.476-1.869l6.23-7.477,3.115-8.723v-4.361l-1.246-5.607L190.6,116.478l-3.115-6.854-.623-1.246Zm-78.5,4.984q-7.476,6.23-9.968,17.445l3.115,1.869,4.361.623,1.246-3.115,8.722-11.838V117.1l-3.115,2.492-1.246-1.246.623-1.246-3.115,2.492.623,1.869-.623,4.361-4.361,4.361q-2.492.623-3.115-.623l1.246-4.984,6.853-9.969Zm77.875,7.477-4.361,1.869-6.23,6.853-1.246,1.246-3.115.623-10.591.623-1.869,1.869.623,8.1,8.722,4.984v6.854h1.869l4.361-5.607q.623-6.854,3.115-10.592a10.1,10.1,0,0,1,6.23-4.361l4.361.623,13.083,6.854-.623-1.869-10.591-14.953Zm-80.367,3.115-1.246,2.492L96.53,125.2Q97.153,123.331,95.907,123.954Zm-34.265.623-6.23,7.477-.623,1.246,3.115-1.246,5.607-.623-.623-3.738Q64.134,123.954,61.642,124.578Zm.623,9.346L60.4,136.415l1.869,4.984,1.869.623v-6.23l-.623-.623Q64.134,133.3,62.265,133.923Zm94.7,22.43-1.246,1.246-.623,6.854-3.115,10.592-4.361,6.853-8.1,7.477-4.984,3.115h-2.492l1.246,3.738-4.984,3.738H116.466l-7.476-1.558-9.872-3.427-3.211-2.492-.623,2.492a28.113,28.113,0,0,0,13.083,8.1l.623,1.869q-4.984.623-7.476-1.869l-1.246.623L115.843,222.4l3.738,6.853a7.688,7.688,0,0,1-5.607-3.738l-8.1,1.246L104.629,228l1.869,4.984,1.869.623,1.246-1.869h3.738l1.869,1.246h6.23l.623.623q6.853,1.246,9.968-1.246v-2.492l-2.492-8.723-2.492-6.23-6.853-4.361q-1.869.623-1.246-1.246l3.115-.623h16.821l.623.623-.623-4.361,4.984,1.246,12.46,19.937,3.115,8.1,3.738,1.869,10.591,1.246,4.361,1.869,3.738-.623,1.246-2.492-.623-3.115a17.928,17.928,0,0,0-10.591-7.477l-1.246,3.115-1.246-3.738H168.8q.623,1.869-.623,1.246l-2.492-4.361V209.935l.623-.623V204.95l.623-.623,2.492-19.314.623-.623.623-9.346q-1.246-1.246.623-1.869l-1.869-5.607-5.607-3.115a11.347,11.347,0,0,1-5.607-6.854Q158.83,155.73,156.961,156.353Zm-31.773,35.514-16.821,2.694,9.345,2.913q8.1,1.246,12.46-1.246l-1.246-3.115Q128.3,191.243,125.188,191.866ZM91.546,225.511v11.838l.623.623.623,11.215,3.115,4.361v-.623l4.361-2.492,8.722-2.492-1.869-1.246q-3.738-.623-4.361.623-5.607,1.246-6.853-1.246l.623-1.246,4.361-3.115-5.607-.623-1.246-.623.623-1.246,2.492-2.492,3.115-.623,1.246-1.246v-3.115L100.268,228l-.623-1.246Zm8.1,12.461-1.246.623v.623l3.115-.623Zm2.492,5.607-1.869.623-.623,1.246,5.607-1.246Zm7.476,7.477-.623.623-6.853.623-4.361,1.869q-1.869.623-1.246,3.115l4.984,1.869,8.722,1.869h8.722l4.361-1.246,4.361-3.115h1.246l-.623,2.492-1.869,1.869-6.853,2.492H107.744l-6.853-1.869-2.492.623,7.476,3.115,6.853,1.246,13.706-.623,4.984-2.492.623-1.246-.623-4.361a13.927,13.927,0,0,0-7.476-6.23l-2.492-.623Zm86.6,0V252.3H198.7Z" transform="translate(3429.631 1047.753)" fill="rgba(12,12,12,1)"/>
    <path id="Union_8" data-name="Union 8" d="M15.46,24.61l-2.209-.947q3.471.316,4.418-1.892l.172-.518a1.765,1.765,0,0,1-.837.215c-1.3,0-2.35-1.474-2.35-3.29s1.052-3.29,2.35-3.29a1.7,1.7,0,0,1,.306.028l.359-.717L15.46,11.359l-3.786-.631-1.578.631q-1.2,1.7-.631,5.995l1.262,4.417L7.573,19.246V12.305l1.893-2.84L11.99,7.888q.567-1.893-2.209-.947l-4.1,3.47-3.47,5.995Q0,13.252,0,7.888L1.262,3.47,4.733,0l6.31.631,6.626,5.364-.631,3.786,4.417,5.679.631,3.786-2.84,4.1a2.852,2.852,0,0,1-2.768,1.333A7.875,7.875,0,0,1,15.46,24.61Z" transform="translate(3534.75 1089.747)" fill="rgba(12,12,12,1)" stroke="rgba(0,0,0,0)" stroke-miterlimit="10" stroke-width="1"/>
    <path id="rgba_12_12_12_1_2" data-name="rgba(12,12,12,1)" d="M88.8,132.917q2.335-.757,1.262,2.524Q87.73,136.2,88.8,132.917Z" transform="translate(3406.826 1005.139)" fill="rgba(12,12,12,1)"/>
    <path id="rgba_12_12_12_1_3" data-name="rgba(12,12,12,1)" d="M269.947,267l.315,4.733-.947,3.471L269,269.209Z" transform="translate(3338.333 954.487)" fill="rgba(12,12,12,1)"/>
    <path id="rgba_12_12_12_1_4" data-name="rgba(12,12,12,1)" d="M279.578,275l.316,1.578-1.578,3.471L278,277.84Z" transform="translate(3335.012 951.496)" fill="rgba(12,12,12,1)"/>
    <path id="rgba_12_12_12_1_5" data-name="rgba(12,12,12,1)" d="M97.5,286l6.626,7.888-3.786-3.155Z" transform="translate(3403.405 947.323)" fill="rgba(12,12,12,1)"/>
    <path id="Union_7" data-name="Union 7" d="M148.361,127.466l-3.421-1.577q2.675-1.01,1.866-4.733h-2.177l-8.087,3.786-4.977,1.262-1.555-.631A10.786,10.786,0,0,1,133.432,118l-.311.947q-1.618,4.606,2.177,3.47l5.91-7.256,2.488-5.048v-3.47h-3.11v.946l-4.665,3.471.311-.947q1.12-5.806,5.287-8.519l1.244-.631,11.819,6.941,8.086,2.525q1.555-.631.933-3.471a58.8,58.8,0,0,0-15.241-23.663l-4.976-.631-1.555.631L143.7,77.3V74.145l.933-.947h9.331l.933.947,2.488,5.048,4.354,13.882,3.111,11.99v4.417l-3.111,8.2-7.153,8.519a4.443,4.443,0,0,1-3.789,1.519A12.943,12.943,0,0,1,148.361,127.466ZM0,104.119v-3.155q2.363.947,1.866-.947A23.68,23.68,0,0,1,8.4,90.868l13.063-3.787,5.288-3.47-.622-5.048L19.284,67.835,16.8,60.579a10.883,10.883,0,0,0,7.154-1.262s11.713-7.48,11.09-5.629a18.791,18.791,0,0,1,1.818,1.771,37.85,37.85,0,0,1-3.578,3.228L28.3,59.948l-5.91,3.47q-1.12,3.6,2.8,2.209l11.2-3.787q1.618,3.723.933,9.781-.435,1.452-2.8.947l1.555-2.208V68.782H31.725q-2.3,4.67-1.244,13.567L21.461,92.76l-9.02,8.519q.312,2.524-1.555,2.839L2.8,104.75ZM67.8,60.263l.933.316a7.44,7.44,0,0,0,5.6,3.155l-.311-.946-8.087-10.1L64.072,48.9V46.381h.259l-.259-.632,1.866-8.834,5.6-12.62V18.616l-4.355-7.573-.621-4.417,2.8-4.1Q72.47.631,78.068,1.262l8.709,2.525L90.51,0l1.555.947.622,3.787-.622,1.893,2.489,5.048.622,5.679,2.488,4.733q2.862,1.957,9.021,1.262l10.574-1.893,3.733-1.892-.311.946a30.3,30.3,0,0,1-9.642,15.46L104.2,39.755H97.974l-1.555-.631V31.867l.932-.947,7.154.631q.5-2.4-1.555-3.155L97.974,26.5H95.486l-.933.316q1.679-1.452,1.244-5.048l-4.976-8.2.622-2.524-3.422-4.1L83.045,4.418H78.068l-4.043,3.47L72.781,15.46l2.177,5.995q2.363.505,2.8-.947l3.111-6.625,2.8-1.262-2.8,3.47-.622,1.262v6.942l2.8,3.47c1.908.547,2.716,0,3.422,1.893l4.354.631,1.866,3.47v3.155l-2.8,4.1-1.866.631.933-1.577q.5-2.335-.933-2.84l-6.842.631L73.4,43.225v2.839h4.043l5.288-1.893a7.7,7.7,0,0,0,3.422,6.31l3.11,1.893a36.141,36.141,0,0,1,12.441,3.786l5.906.316-1.863-.63,5.6-1.578q1.119-1.514.622-5.364l2.8-2.839,7.775-5.364.622-1.262-4.354-5.679,2.8-4.1h1.244l2.8,2.84q-1.99,12.177-9.642,18.615l-3.421-.631q.808,4.607-2.8,5.679l-9.953,5.679-5.6,1.262L87.71,59.316v1.578l2.8,2.839,1.555.947q.5,1.452-.933.947L72.47,75.092A33.178,33.178,0,0,1,67.8,60.263Zm.622,1.893L72.159,73.83h0L68.526,61.854ZM64.694,48.273l2.488,5.048,7.465,8.2.621,2.839h0l-.622-2.84-7.465-8.2-2.488-6.057ZM95.73,62.3l.378.176.8-.415Zm-27.139-.641.583.46a6.034,6.034,0,0,1-.436-.905Zm24-.827L90.51,59.316l-2.489-.631A1.708,1.708,0,0,0,86.983,60.5a1.708,1.708,0,0,1,1.038-1.816Zm15-4.338.024-.013h0Zm-85.82-2.537L28.3,46.7l1.555.947L31.1,52.376,18.351,58.055Zm0,.947.622.631,8.087-3.786-.622-2.525-1.244-1.261ZM57.229,41.333q-3.172-3.723-3.111-10.727l2.8-5.995q4.914.632,6.532,4.733l-.311.946L58.785,26.5H56.607q-.56,3.407,1.867,4.733-2.427,1.01-1.867,5.048l2.488,5.048q-.466.947-.932.947T57.229,41.333Z" transform="translate(3461.418 1084.698)" fill="#f6dbc5" stroke="rgba(0,0,0,0)" stroke-miterlimit="10" stroke-width="1"/>
    <path id="rgba_0_0_0_0_" data-name="rgba(0,0,0,0)" d="M192,68l2.524,1.578q.5,1.641-1.578.947Z" transform="translate(3367.785 1029.95)" fill="rgba(0,0,0,0)"/>
    <path id="rgba_0_0_0_0_2" data-name="rgba(0,0,0,0)" d="M229.209,95l2.209,1.578.631,3.155-1.578,3.471L227,99.1V97.84Z" transform="translate(3354.566 1019.368)" fill="rgba(0,0,0,0)"/>
    <path id="rgba_0_0_0_0_3" data-name="rgba(0,0,0,0)" d="M223.519,115l-.947,1.578-4.733,5.995-2.84-.947Z" transform="translate(3359.063 1011.826)" fill="rgba(0,0,0,0)"/>
    <path id="rgba_0_0_0_0_4" data-name="rgba(0,0,0,0)" d="M75.626,123l1.578.947.631,2.84-8.519,3.786L69,129.626Z" transform="translate(3414.503 1008.808)" fill="rgba(0,0,0,0)"/>
    <path id="rgba_0_0_0_0_5" data-name="rgba(0,0,0,0)" d="M91.578,124l1.262,1.893L90,124.947Z" transform="translate(3406.245 1008.45)" fill="rgba(0,0,0,0)"/>
    <path id="rgba_0_0_0_0_6" data-name="rgba(0,0,0,0)" d="M125.043,131.879q2.082-.694,1.578.947l2.524,11.989-.947-.316-5.679-3.786L114,140.4Z" transform="translate(3397.145 1005.516)" fill="rgba(0,0,0,0)"/>
    <path id="rgba_0_0_0_0_7" data-name="rgba(0,0,0,0)" d="M92.316,135l.316,1.578H92Z" transform="translate(3405.497 1004.305)" fill="rgba(0,0,0,0)"/>
    <path id="Union_4" data-name="Union 4" d="M45.749,101.393l-6.942-.631-5.048-3.156H30.6l-4.417-1.893a64.622,64.622,0,0,1-15.46-13.567L8.834,78.36l.631-1.893-2.524-.946V64.478L12.62,40.5l3.155-8.2,9.781-17.984,2.209,1.577,3.786,4.418V22.2a37.591,37.591,0,0,0-10.1,14.513l-.631,7.573,2.209,2.208,6.31,1.893h3.786L44.171,31.034l3.47-3.47L50.8,25.67l6.941-1.893,1.578,1.577,6.626,14.2q3.407,1.2,2.839-.947l10.1-20.193L83.61,13.05,95.6,17.467l12.3,2.525-.631,4.733-4.417,8.834-2.839,3.47-6.942,3.156-6.941.63-.631.631-3.787-2.524H79.508L77.3,42.077,70.359,44.6l-2.84,2.208q-1.072,3.029,1.578,2.209l4.417-1.262-.947,1.578L63.1,60.692l-.631,2.839h2.84L73.2,56.274l1.262-2.839q2.966.505,3.786-2.209l.947-2.208,1.578.947,1.261,6.941v6.31A20.653,20.653,0,0,0,78.246,74.89h2.525v-.947l5.678-11.359v-4.1q4.1-.441,5.679,2.209L85.819,71.1q-2.588-1.074-1.893,1.577l-8.834,18.3-2.84,3.47L59,101.393l-12.621.63ZM0,33.558,1.893,28.51V24.724l.947-.947,4.733-.631L9.15,19.991l10.1-4.418-1.578,2.209Q7.824,30.025,3.47,47.756,3.345,39.111,0,33.558ZM26.818,44.6l-2.839-2.209Q26.5,31.349,33.759,25.04l1.578.946L28.4,36.082,27.133,41.13q.505,1.452,2.84.947l4.733-4.733.631-4.417-.631-1.893,3.47-2.839-.947,1.578.631,1.261-.947.316-1.577-.63.947,4.417,2.839-3.471q-1.388-.756.316-1.577l1.893-1.262.316.947L32.813,41.761l-1.261,3.471ZM24.61,42.708,30.92,44.6l.631-2.525-1.262.631q-3.155.631-3.786-.631V38.922l2.524-5.048,4.417-5.679V26.932Q27.134,32.612,24.61,42.708ZM62.155,20.623,54.9,20.307l5.995-3.471,12.62-5.048,6.31-4.417L78.246,9.58l-2.839,4.733L73.2,15.889l-3.155,5.679L67.2,31.98ZM29.973,13.681l-5.048-3.155-9.781-.316L27.449.43q3.407-1.2,2.84.946L33.444,16.52Z" transform="translate(3493.74 1135.799)" fill="#fff" stroke="rgba(0,0,0,0)" stroke-miterlimit="10" stroke-width="1"/>
    <path id="rgba_0_0_0_0_8" data-name="rgba(0,0,0,0)" d="M135.15,172l-.315.947L127.893,184.3v3.155q.631,1.578,3.471.947l2.524-1.893-.947,1.578-.631,2.209L126,188.091Q128.524,177.995,135.15,172Z" transform="translate(3392.642 990.269)" fill="rgba(0,0,0,0)"/>
    <path id="rgba_0_0_0_0_9" data-name="rgba(0,0,0,0)" d="M143,179l3.786.947-2.84,3.471Z" transform="translate(3386.255 987.702)" fill="rgba(0,0,0,0)"/>
    <path id="rgba_0_0_0_0_10" data-name="rgba(0,0,0,0)" d="M249.611,183l2.209.631a79.853,79.853,0,0,0,11.989,17.353l-.947-.316L253.4,195.62l-6.31-1.262a10.931,10.931,0,0,0-6.626,4.1,22.416,22.416,0,0,0-3.155,10.727l-4.733,5.995-.316-6.626-.631-1.578-4.733-2.524H225l-1.578-1.578q-1.578-2.209-.631-6.941l1.578-1.578,13.251-1.262,2.209-1.578,6.626-7.257Z" transform="translate(3355.513 986.027)" fill="rgba(0,0,0,0)"/>
    <path id="rgba_0_0_0_0_11" data-name="rgba(0,0,0,0)" d="M79.179,189a7.418,7.418,0,0,1,.947,5.679L73.5,195.941l4.1-4.733Z" transform="translate(3412.842 983.917)" fill="rgba(0,0,0,0)"/>
    <path id="rgba_0_0_0_0_12" data-name="rgba(0,0,0,0)" d="M82.893,204l.947.947v5.048h-.631q-1.7-1.451-1.262-5.048Z" transform="translate(3409.759 978.265)" fill="rgba(0,0,0,0)"/>
    <path id="rgba_0_0_0_0_13" data-name="rgba(0,0,0,0)" d="M200.193,239.982l1.9-.281,1.7,5.892,7.238,4.588,2.535,1.3,1.705,5.979-1.705.684q1.786,1.147.638,5.1l.282,1.713-.524,3.928-.4,2.051-2.556,18.142-.638.637v4.462l-.638.637.307,10.2.986,3.613,2.313.786s1.178.611.88,2.629l1.914-3.187,7.063,5.085,3.393,4.126.369,2.882-.938,2.536-4.784.94-4.465-1.912-10.206-1.275-3.508-2.231-3.492-7.952L187.117,291.58l-4.5-1.275.638,3.2-3.173.319-.638-.637H165.412l-.83.637-.7.381a14.923,14.923,0,0,0,2.25,1.623c2.335.737,3.082,2.361,4.72,4.426l3.974,9.9,1.19,8.019-6.1,1.446-11.18-1.88-3.827,1.513-4.465.367-3.508-2.4v-4.256l1.221-1.94,4.942-.864h3.758l1.88-.39,1.01-.9c-2.8-4.857-9.612-11.225-13.213-15.684-2.476-3.067-1.1-1.967-4.13-4.882l1.981-.885,2.552,1.549,4.465.729c.425-1.615.106-1.737-.957-2.247a30.22,30.22,0,0,1-6.4-3.136A26.45,26.45,0,0,1,138,279.486l.408-3.156,5.014,2.869,5.741,1.912,4.465.94,3.827,1.61,12.683.35,6.135-3.554-1.727-3.779,5.873-1.639,9.887-8.605c2.552-2.55,4.23-7.284,5.506-11.109l2.787-8.014.638-6.374Z" transform="translate(3386.133 962.469)" fill="#7e1c03"/>
    <path id="rgba_0_0_0_0_14" data-name="rgba(0,0,0,0)" d="M178.15,296.918q3.471-.631,4.1,1.578l.631,2.209-9.781,1.262-4.1-2.84.316-.947h4.417Z" transform="translate(3376.383 943.282)"/>
    <path id="rgba_0_0_0_0_15" data-name="rgba(0,0,0,0)" d="M131,351l4.733.631,2.84,1.578,1.262,5.679-1.578,1.578-3.155.631-2.209,2.209q-1.7,5.237,3.471,3.471l-1.578,2.209q-.757,3.344.947,4.1l10.1-.631v.631l-7.572,1.893-3.786,2.524-1.578-1.578-1.262-6.31Z" transform="translate(3390.727 922.332)" fill="rgba(0,0,0,0)"/>
    <path id="rgba_0_0_0_0_16" data-name="rgba(0,0,0,0)" d="M287.5,378l5.364.316-5.364.316Z" transform="translate(3331.507 912.37)" fill="rgba(0,0,0,0)"/>
    <path id="rgba_0_0_0_0_17" data-name="rgba(0,0,0,0)" d="M150.674,392h12.62a15.28,15.28,0,0,1,7.888,4.1l-11.043,4.733h-8.2l-8.2-1.893L139,396.733l1.578-2.209Z" transform="translate(3387.598 907.204)" fill="rgba(0,0,0,0)"/>
    <path id="rgba_0_0_0_0_18" data-name="rgba(0,0,0,0)" d="M175.08,401q2.082,1.073,1.578,4.733l-5.995,3.471-13.882.631L147,406.995l.947-.316,4.417,1.262h11.989l5.048-1.262,4.1-2.84Z" transform="translate(3384.587 903.883)" fill="rgba(0,0,0,0)"/>
    <path id="rgba_0_0_0_0_19" data-name="rgba(0,0,0,0)" d="M296.444,401l1.893.947.631,4.1-12.3,3.786H270.257L263,407.626l2.209-.316,3.786,1.262,12.62.631,6.31-1.262a19.052,19.052,0,0,0,8.519-5.995Z" transform="translate(3340.547 903.883)" fill="rgba(0,0,0,0)"/>
    <path id="rgba_217_223_228_0.53_" data-name="rgba(217,223,228,0.53)" d="M142.07,19.671l6.626,5.364,2.524,4.417v2.524l2.209,2.209q2.082.694,1.578-.947.947-2.524,5.364-1.578,3.849,2.335,2.84,8.834-1.893-.757-1.262,1.578a30.31,30.31,0,0,0,7.888,12.3q1.073,1.767,4.417,1.262a17.2,17.2,0,0,1,8.834-1.893l1.578.631q1.2,1.7.631,5.995L184.033,62.9l5.048,6.31v4.417a40.849,40.849,0,0,1-12.3,18.615l-1.578.947,4.733,6.626,6.31,1.262,5.364,2.209-2.209.316a18.9,18.9,0,0,0-10.1-3.155l-1.578-1.578-3.786-5.679,7.572-6.941,5.679-9.465,1.262-3.155V69.206L183.4,63.527V61.634q2.019-1.451,1.262-5.679l-1.893-.947Q180.5,66.114,172.99,72.677l-7.572,4.417h-6.941l-2.209-.631V67.944l.947-.947,5.995.947-2.84.316-2.524-.631-.947.947v7.257q2.272,1.388,7.888.631a23.728,23.728,0,0,0,11.043-7.888A28.835,28.835,0,0,0,181.509,56.9q-4.985,2.4-12.936,2.524v-.631q9.276.126,14.2-4.1l-2.209-.316-6.31,1.893H171.1l-2.84-2.209-6.31-9.465-.631-4.733q2.524.883,1.262-3.471l-2.209-4.1q-3.912-.757-4.733,1.578.568,1.893-2.209.947l-2.84-2.209-.631-4.417-4.733-5.364-5.048-3.155h-3.786l-.947.947-1.262,6.31-2.524,4.733-9.781,2.524-5.995,3.471-.631,1.893V50.907l1.262,4.733q2.335-.757,1.262,2.524a4.586,4.586,0,0,0-4.417,2.209L112.1,63.527V75.517a8.965,8.965,0,0,0,4.1,5.995l5.364,4.1q.82,2.65-2.209,1.578L105.786,97.6l-2.209,3.471q-1.893-.315-.947,4.1H102v-3.786l4.1-5.364,9.465-7.572,5.364-2.209-7.572-6.31-1.893-4.417V63.527l1.262-3.786,1.578-1.578,2.84-.631q-4.039-5.868-2.524-17.984l1.262-3.471,7.257-3.155,5.048-.631,3.471-2.209q2.9-3.408,3.155-9.465ZM183.4,67l-2.524,3.155v1.262l3.786,3.786,1.262-3.155-.631-3.155ZM180.247,80.88l-6.941,5.679,3.155.631,4.417-5.048Q181.509,80.249,180.247,80.88Z" transform="translate(3401.185 1047.99)" fill="rgba(217,223,228,0.53)"/>
    <path id="rgba_217_223_228_0.53_2" data-name="rgba(217,223,228,0.53)" d="M171.674,45.938q2.4-.442,2.84.947l-.315,2.209-1.262-2.524-4.417,3.786h-1.893L160,48.146l2.209-.316,5.679,1.893Z" transform="translate(3379.777 1038.13)" fill="rgba(217,223,228,0.53)"/>
    <path id="rgba_217_223_228_0.53_3" data-name="rgba(217,223,228,0.53)" d="M146.15,48l4.733.316-7.257.947-3.471,2.84-.631,4.417,5.048,9.465v5.679l-5.679,12.62L137.316,92.8,137,89.332l2.524-8.834,4.417-9.465V66.615l-4.417-8.2-.631-5.048,2.84-4.1Z" transform="translate(3388.466 1037.33)" fill="rgba(217,223,228,0.53)"/>
    <path id="rgba_217_223_228_0.53_4" data-name="rgba(217,223,228,0.53)" d="M156.364,54h5.048a15.2,15.2,0,0,1,7.888,5.364l.631,3.155-.631,1.262,3.786,5.048q1.7,1.451,1.262,5.048L173.086,76.4l.947-.316q6.31,0,9.15,3.471l-.316,1.578-1.893-2.524-6.31-1.893-4.733,3.471q2.461,1.641,1.893,6.31l-.631,2.524-2.209,2.209-4.417.631,2.209-2.84-.947-1.578-.947-.316,1.578-.316q1.451.5.947,2.84l-.316.947q3.155.316,3.471-2.209l.631-5.048L169.3,79.872q-2.966.568-4.417-.947l1.578-.315,2.524.631,2.84-2.209q2.4-1.451,1.893-5.679l-5.048-6.941V62.519l.631-1.893-6.626-5.364-6.31-.631-4.1,4.733-.631,5.679,1.893,5.679-1.262-.631L151,62.519l1.262-5.048,2.84-2.84Z" transform="translate(3383.054 1035.116)" fill="rgba(217,223,228,0.53)"/>
    <path id="rgba_217_223_228_0.53_5" data-name="rgba(217,223,228,0.53)" d="M182.316,55l.316,1.578H182Z" transform="translate(3371.569 1034.747)" fill="rgba(217,223,228,0.53)"/>
    <path id="rgba_217_223_228_0.53_6" data-name="rgba(217,223,228,0.53)" d="M191.578,58l1.578,3.155L190,59.578Z" transform="translate(3368.535 1033.64)" fill="rgba(217,223,228,0.53)"/>
    <path id="rgba_217_223_228_0.53_7" data-name="rgba(217,223,228,0.53)" d="M183.316,59q2.84,1.578,2.209,6.626h-.631V63.1L183,60.578Z" transform="translate(3371.178 1033.271)" fill="rgba(217,223,228,0.53)"/>
    <path id="rgba_217_223_228_0.53_8" data-name="rgba(217,223,228,0.53)" d="M163.257,65.816q2.776-.947,2.209.947l-2.524,1.578-1.893,2.84V78.12l3.155,2.524-1.262-4.417V71.81l.631-1.578,4.1-.631,2.84,2.209.631,1.893h-.631l-2.209-2.84-2.524-.631-1.578.631q-1.01,1.325-.631,4.733l1.262,5.995q-2.966.5-3.786-2.209l-.631-1.262V71.179l3.155-3.786-.947-.316-1.578.631-4.1,7.572L156,74.965l3.155-5.679,2.84-2.84Z" transform="translate(3381.284 1030.873)" fill="rgba(217,223,228,0.53)"/>
    <path id="rgba_217_223_228_0.53_9" data-name="rgba(217,223,228,0.53)" d="M191.884,67l2.209.947,1.893,5.048h-.631l-1.578-2.209q-2.335.5-2.84-.947Q190.5,67.5,191.884,67Zm-.316.631,1.262,2.524q1.893.631,1.262-.631Z" transform="translate(3368.208 1030.319)" fill="rgba(217,223,228,0.53)"/>
    <path id="rgba_217_223_228_0.53_10" data-name="rgba(217,223,228,0.53)" d="M187.316,71a10.5,10.5,0,0,0,3.786,6.941l7.888.947-5.995.315-3.471-1.262L187,73.209Z" transform="translate(3369.602 1028.843)" fill="rgba(217,223,228,0.53)"/>
    <path id="rgba_217_223_228_0.53_11" data-name="rgba(217,223,228,0.53)" d="M122.84,85h2.524l5.364,4.733q1.073,3.029-1.578,2.209a7.973,7.973,0,0,0-5.995-4.1l2.209-.315,4.417,3.786.316-.947q-1.641-4.1-6.626-4.733L121.262,89.1l-.947,5.364L120,91.626l.631-3.155Z" transform="translate(3394.898 1023.677)" fill="rgba(217,223,228,0.53)"/>
    <path id="rgba_217_223_228_0.53_12" data-name="rgba(217,223,228,0.53)" d="M123.84,91l2.209,4.1q-2.272.883-1.893,4.417l2.524,5.048-.631,1.578-2.524-.631q-2.4-2.524-2.524-7.888h.631q.252,5.427,3.471,7.888,1.767-.757.316-1.578l-1.893-4.417V96.995l1.893-2.524Q122.7,93.272,123.84,91Z" transform="translate(3394.544 1020.86)" fill="rgba(217,223,228,0.53)"/>
    <path id="rgba_217_223_228_0.53_13" data-name="rgba(217,223,228,0.53)" d="M131.578,99.938q1.451-.442.947.947l-2.209,3.471-.316-2.84Z" transform="translate(3391.163 1017.555)" fill="rgba(217,223,228,0.53)"/>
    <path id="rgba_217_223_228_0.53_14" data-name="rgba(217,223,228,0.53)" d="M161.691,106l2.209.316a20.171,20.171,0,0,0-11.358,6.31V114.2h3.471l5.048-2.524,1.578,4.1,2.84,2.84,3.155,1.893,14.829,4.1-2.84.316A37.036,37.036,0,0,0,168,121.144l-5.364-4.1-1.262-4.1-5.364,1.893h-4.1q-.757-4.039,2.209-5.048Z" transform="translate(3382.772 1015.186)" fill="rgba(217,223,228,0.53)"/>
    <path id="rgba_217_223_228_0.53_15" data-name="rgba(217,223,228,0.53)" d="M69.829,116h2.524l3.786,3.155q5.49-1.073,7.257,1.578,1.83,2.9,1.262,8.2h-.631q.757-6.121-2.209-8.519l-5.679-.631-4.417-3.155H70.46l-5.364,4.1L55.631,131.46v3.786l1.893,5.048,5.048,7.572,2.524,6.31v2.209l-3.786-.316,3.155-.316-1.893-5.995L55.631,137.77,55,130.829l11.043-12.3Zm6.626,10.727q-1.262,3.155,1.262,2.524Q78.979,126.1,76.455,126.727Zm2.524,1.262-.631,1.893h.631Z" transform="translate(3419.669 1011.327)" fill="rgba(217,223,228,0.53)"/>
    <path id="rgba_217_223_228_0.53_16" data-name="rgba(217,223,228,0.53)" d="M88.947,124l1.578.316-1.262.631,2.209.316V124l1.578.947.631,2.209-4.733-1.893-.947.315Z" transform="translate(3406.991 1008.446)" fill="rgba(217,223,228,0.53)"/>
    <path id="rgba_217_223_228_0.53_17" data-name="rgba(217,223,228,0.53)" d="M68.653,130.879q2.082-.694,1.578.947,1.767,1.262,1.262,4.1H69.284q-1.893,2.524-6.31,2.524l-6.31,3.786-.316-.947,11.989-5.679-.631-2.84-9.781,4.417a11.168,11.168,0,0,1-7.257,1.262l2.524,7.257,6.941,10.727.631,5.048L55.4,164.954l-10.727,2.524-5.364,4.1-3.786,7.257-2.209.631L33,178.206l2.524-.947a17.968,17.968,0,0,1,5.995-9.15l15.144-4.417,3.471-2.84v-2.524l-6.31-10.1-4.417-10.412h4.1l5.679-1.893Z" transform="translate(3427.786 1005.73)" fill="rgba(217,223,228,0.53)"/>
    <path id="rgba_217_223_228_0.53_18" data-name="rgba(217,223,228,0.53)" d="M100.209,140l.316,4.1q-2.272.883-1.893,4.417l.947,1.578q-1.388.5-.947-.947L98,146.626l1.893-3.155Z" transform="translate(3403.229 1002.385)" fill="rgba(217,223,228,0.53)"/>
    <path id="rgba_217_223_228_0.53_19" data-name="rgba(217,223,228,0.53)" d="M197.789,139.938q1.451-.442.947.947l-3.155,4.1q-1.7-.694-1.262.947l-.631,2.209-3.155,2.209-3.155,5.679L183.907,167.7l-4.1-8.519-.631-4.1-11.674.631v-.631l13.882-6.941,4.417-1.262Zm-2.84,2.524-4.417,3.155-12.62,5.048-6.31,3.786h7.572l5.048,11.358,2.524-10.1,3.155-5.679,2.524-1.893,3.155-5.048Z" transform="translate(3376.815 1002.371)" fill="rgba(217,223,228,0.53)"/>
    <path id="rgba_217_223_228_0.53_20" data-name="rgba(217,223,228,0.53)" d="M84.382,144q2.524,3.786,1.578,11.043-1.01,1.893-4.417.947l1.893-3.471L80.6,152.2l-1.262,2.524-.316-1.578.631-1.578h4.417v1.578l-1.578,2.209q2.4.5,2.84-.947.694-6.058-.947-9.781l-8.834,3.155-5.048.631v-.631h2.524Z" transform="translate(3413.949 1000.867)" fill="rgba(217,223,228,0.53)"/>
    <path id="rgba_217_223_228_0.53_21" data-name="rgba(217,223,228,0.53)" d="M188.428,150h2.524l12.62,5.048,11.043,2.209Q212.344,169.814,204.2,176.5q-4.859,2.713-12.62,2.524V178.4q9.97.189,14.829-4.733l6.31-11.358.631-4.733-12.3-2.524-11.989-4.417-3.471,3.471-3.786,6.31-7.572,16.722q-2.9.82-3.786-.947l-3.155-8.2-4.1-6.626-8.2,2.524-5.364,4.733-11.043,17.353L137,185.653l2.524-1.893,8.2-13.882,4.733-5.364a22.752,22.752,0,0,1,11.358-3.786L165.4,162.3l4.417,11.358,2.209,2.84q2.082.694,1.578-.946l9.465-18.931Z" transform="translate(3387.92 998.484)" fill="rgba(217,223,228,0.53)"/>
    <path id="rgba_217_223_228_0.53_22" data-name="rgba(217,223,228,0.53)" d="M116.246,151l2.84,2.209,3.155,3.786.631,3.786-6.941,8.2-3.786,8.2V181.6l.631,1.578,8.834,2.84-1.578.316-6.31-1.893-2.209-2.209.631-7.572a37.58,37.58,0,0,1,10.1-14.513v-1.893l-4.733-5.364-1.262-.631-9.781,17.984-3.155,8.2-5.679,23.979v11.043l2.524.947-.631,1.893,1.893,3.786,8.519,8.519,9.465,6.31,5.048.631,5.048,3.155,7.257.947-4.733.316-3.155-.631-5.048-3.155-5.048-.631-4.417-2.524-13.567-12.3-1.893-4.417.631-1.262-.947-.947L97,215.049v-12.62l6.31-26.5,6.941-15.145Z" transform="translate(3403.464 997.713)" fill="rgba(217,223,228,0.53)"/>
    <path id="rgba_217_223_228_0.53_23" data-name="rgba(217,223,228,0.53)" d="M108.139,152l.947.316-9.465,12.62-6.31,13.882-1.893,8.834-.947.947-.947-2.84-.631-7.572L87,172.508h.631a34.961,34.961,0,0,1,2.84,13.567q4.543-18.8,15.46-31.236l-.947-.316L95.2,159.257l-.631,2.209-2.524-.316,2.524-1.262.631-2.209A30.843,30.843,0,0,0,108.139,152Z" transform="translate(3407.32 997.724)" fill="rgba(217,223,228,0.53)"/>
    <path id="rgba_217_223_228_0.53_24" data-name="rgba(217,223,228,0.53)" d="M245.5,153h6.31l2.524,1.262h3.786l4.417,1.893,3.471.316-4.1.316-3.786-1.893q-4.67.883-6.31-1.262H245.5Z" transform="translate(3347.424 997.509)" fill="rgba(217,223,228,0.53)"/>
    <path id="rgba_217_223_228_0.53_25" data-name="rgba(217,223,228,0.53)" d="M282.5,158.974q2.524-.316,2.84,1.578a67.3,67.3,0,0,1,8.2,18.3l2.524,11.358V194h-.631q-1.83-21.518-12.3-34.391Z" transform="translate(3333.352 995.112)" fill="rgba(217,223,228,0.53)"/>
    <path id="rgba_217_223_228_0.53_26" data-name="rgba(217,223,228,0.53)" d="M70.4,162l.315,9.781A25.305,25.305,0,0,1,62.2,182.193l-9.781,9.15-1.578,2.84L48,193.867q2.966.126,3.786-1.893v-1.262l8.519-8.519,7.257-6.626,2.524-3.786Z" transform="translate(3422.252 993.968)" fill="rgba(217,223,228,0.53)"/>
    <path id="rgba_217_223_228_0.53_27" data-name="rgba(217,223,228,0.53)" d="M257.46,162h10.1l.947.947,3.155,6.941,5.679,18.931L278.6,194.5v4.417l-3.155,8.834-6.626,7.888q-2.019,2.713-7.572,1.893l-4.1-1.262,1.893-5.048-3.471.631-7.572,3.786-4.417.631L242,215.637q.5-7.32,5.364-10.727,1.451-.442.947.947-2.335,1.767-1.893,5.364l5.048-4.1,4.417-8.2v-2.209q-2.4-.946-1.893.947-1.7,3.534-6.31,3.471.883-7.257,5.995-10.727l2.524-.631a17.027,17.027,0,0,1,8.2,5.048l10.727,4.417q1.451-.442.947-2.84a66.532,66.532,0,0,0-16.091-23.663l-4.1-.316,4.1-.315,4.733,4.1,8.834,12.62,3.155,7.572v2.524q-.442,1.451-2.84.947l-8.834-3.786a23.761,23.761,0,0,0-9.465-5.679l-4.733,4.1-2.524,5.679.947.316,4.1-3.471v-.947h3.155v3.471l-2.524,5.048-5.995,7.257q-3.849,1.136-2.209-3.471h-.631l-2.524,6.626,2.84.631,8.2-3.786,5.995-1.262q.82,3.786-1.893,4.733,2.461,2.272,7.888,1.578l4.733-4.1,6.31-9.465,1.262-4.417V194.5L270.4,168.626l-3.471-5.995H257.46l-.947.947v3.155l-1.893,5.679.316.947-1.578-.316q2.9-3.849,2.524-10.412Z" transform="translate(3348.295 993.813)" fill="rgba(217,223,228,0.53)"/>
    <path id="rgba_217_223_228_0.53_28" data-name="rgba(217,223,228,0.53)" d="M89.84,167l1.578.315-2.524,1.262v3.786L87.316,177.1,87,174.888q1.893-2.65,1.262-7.257Z" transform="translate(3407.372 992.199)" fill="rgba(217,223,228,0.53)"/>
    <path id="rgba_217_223_228_0.53_29" data-name="rgba(217,223,228,0.53)" d="M47.508,180l2.84.316-11.674,2.84-5.364,4.1-5.048,9.465-.631,3.155,1.893,4.1,6.941.316-7.572.316L27,197.984a35.642,35.642,0,0,1,8.519-14.2Z" transform="translate(3430 987.21)" fill="rgba(217,223,228,0.53)"/>
    <path id="rgba_217_223_228_0.53_30" data-name="rgba(217,223,228,0.53)" d="M249.818,182l4.1,2.84,10.727,15.144.631,2.209-13.567-6.941-4.417-.631a8.964,8.964,0,0,0-5.995,4.1,20.229,20.229,0,0,0-3.155,10.727l-4.733,5.995-1.578-.316v-6.941L223,203.139l.315-1.578,1.893,2.524H227.1l4.733,2.524.631,1.578.316,6.626,3.471-3.471,3.155-10.727,3.471-4.733,4.417-1.893h2.524l13.251,6.31-.316-.947-10.727-16.091-2.209-.631-3.155,1.262-6.626,6.626-.947,1.578-3.786.631V192.1q3.471.631,4.1-1.578l5.995-6.626Z" transform="translate(3355.306 986.397)" fill="rgba(217,223,228,0.53)"/>
    <path id="rgba_217_223_228_0.53_31" data-name="rgba(217,223,228,0.53)" d="M135.947,186.938q1.451-.442.947.947L135,189.146Z" transform="translate(3389.281 984.76)" fill="rgba(217,223,228,0.53)"/>
    <path id="rgba_217_223_228_0.53_32" data-name="rgba(217,223,228,0.53)" d="M77.441,187.9q2.65-.82,1.578,2.209h-.631l-.316-1.578-5.995,6.626.947.316,5.995-1.262.316-3.155.316,3.786-5.995.631L70.5,196.732l.947-1.578Z" transform="translate(3413.949 984.387)" fill="rgba(217,223,228,0.53)"/>
    <path id="rgba_217_223_228_0.53_33" data-name="rgba(217,223,228,0.53)" d="M198.794,192H201l3.471,2.209-2.209.315-2.84-1.893-2.209,3.155-5.679,1.893-4.1,2.84q-.442,1.451.947.947l5.995-1.262-1.893,3.471-10.1,11.989,1.578.316,7.888-7.257,1.262-2.84q2.966.5,3.786-2.209l.947-2.209q2.4-.442,2.84.947v3.155l1.262,3.786v6.941l-3.786,11.043q1.7.694,1.262-.947l5.679-10.727v-4.733q4.922-.757,6.941,2.209l-.631,3.155-6.626,8.519q-1.388-.442-.947.947l-8.834,18.931-2.209,2.84-8.2,5.048a9.64,9.64,0,0,0-6.31,2.524H174.5v-.631h3.786l2.524-1.893H182.7l10.412-6.626,9.465-18.3.631-3.471q2.4.947,1.893-.947l6.31-9.465q-1.578-2.65-5.679-2.209v4.1l-5.679,12.3q-3.534,1.388-2.524-2.209l3.786-9.465v-6.31l-1.262-6.941-.947-.947-1.578.947q.315,3.155-2.209,3.471-2.082-.694-1.578.947l-5.995,6.626L184.6,216.61h-2.84l.631-2.84,10.727-12.62-.947-.315L186.8,202.1q-.631-2.4.947-3.155l8.834-3.786,2.209-2.209Z" transform="translate(3374.107 982.369)" fill="rgba(217,223,228,0.53)"/>
    <path id="rgba_217_223_228_0.53_34" data-name="rgba(217,223,228,0.53)" d="M231.5,199l5.995.316-5.995.316Z" transform="translate(3352.861 980.182)" fill="rgba(217,223,228,0.53)"/>
    <path id="rgba_217_223_228_0.53_35" data-name="rgba(217,223,228,0.53)" d="M223.578,200l3.471.316q-3.471-.315-4.417,1.893l-.315,5.364L222,201.578Z" transform="translate(3356.452 979.764)" fill="rgba(217,223,228,0.53)"/>
    <path id="rgba_217_223_228_0.53_36" data-name="rgba(217,223,228,0.53)" d="M81.578,202.879q2.082-.694,1.578.947l.631.631v6.626l-1.893-.947L80,205.088Zm.947.631-1.262,1.262a5.244,5.244,0,0,0,1.262,5.048h.631v-5.048Z" transform="translate(3410.444 978.751)" fill="rgba(217,223,228,0.53)"/>
    <path id="rgba_217_223_228_0.53_37" data-name="rgba(217,223,228,0.53)" d="M62.8,206.819q3.029-1.073,2.209,1.578l2.524,6.31,1.578,1.578h1.262l3.786-3.155.316,6.626h-.631l-.316-5.364q-1.262,2.524-5.048,2.524a20.18,20.18,0,0,1-4.1-9.465l-4.733,1.262-8.834,4.417-6.31.631v-.631h3.786l3.786-1.262Z" transform="translate(3423.543 977.273)" fill="rgba(217,223,228,0.53)"/>
    <path id="rgba_217_223_228_0.53_38" data-name="rgba(217,223,228,0.53)" d="M32.947,209l.316,1.893,2.524.316-2.84.316L32,209.947Z" transform="translate(3428.155 976.401)" fill="rgba(217,223,228,0.53)"/>
    <path id="rgba_217_223_228_0.53_39" data-name="rgba(217,223,228,0.53)" d="M39.5,213l4.733.316-4.733.316Z" transform="translate(3425.388 974.905)" fill="rgba(217,223,228,0.53)"/>
    <path id="rgba_217_223_228_0.53_40" data-name="rgba(217,223,228,0.53)" d="M304.316,218l.316,2.209H304Z" transform="translate(3325.418 973.01)" fill="rgba(217,223,228,0.53)"/>
    <path id="rgba_217_223_228_0.53_41" data-name="rgba(217,223,228,0.53)" d="M289.663,223l.315,2.84A36.624,36.624,0,0,1,278.3,241.3q-1.83,2.272-6.941,1.262L266,240.984l2.84-.316q2.082,2.019,6.941,1.262l8.519-7.888,4.417-6.941Z" transform="translate(3339.44 971.001)" fill="rgba(217,223,228,0.53)"/>
    <path id="rgba_217_223_228_0.53_42" data-name="rgba(217,223,228,0.53)" d="M90.316,236l.315,7.257H90Z" transform="translate(3406.251 966.188)" fill="rgba(217,223,228,0.53)"/>
    <path id="rgba_217_223_228_0.53_43" data-name="rgba(217,223,228,0.53)" d="M91.316,250l.947,4.1,4.417,7.572,11.358,13.882,10.1,10.1,3.155,5.679,13.251,15.145q1.893,1.451,1.262,4.733l-2.524-.315,1.893-.316-.631-2.84-15.776-18.3-1.262-3.155-9.465-9.465L96.048,262.3,91,252.84Z" transform="translate(3405.715 960.376)" fill="rgba(217,223,228,0.53)"/>
    <path id="rgba_217_223_228_0.53_44" data-name="rgba(217,223,228,0.53)" d="M256.947,250l4.733.315-4.1.316-.947.947,2.524,3.786v3.155h-.631v-2.524L256,250.947Z" transform="translate(3343.622 960.897)" fill="rgba(217,223,228,0.53)"/>
    <path id="rgba_217_223_228_0.53_45" data-name="rgba(217,223,228,0.53)" d="M261.316,265l.315,8.519H261Z" transform="translate(3341.788 955.239)" fill="rgba(217,223,228,0.53)"/>
    <path id="rgba_217_223_228_0.53_46" data-name="rgba(217,223,228,0.53)" d="M268.947,267l.315,1.578-.631.631v5.679h.631l.947-7.888.315,4.733-.631,4.1L268,275.519v-6.31Z" transform="translate(3338.702 954.482)" fill="rgba(217,223,228,0.53)"/>
    <path id="rgba_217_223_228_0.53_47" data-name="rgba(217,223,228,0.53)" d="M278.262,273.845q2.84-1.073,1.893,2.209l-1.578,3.471-.316-1.578,1.262-3.155h-.631l-1.578,4.733-.316-2.84Z" transform="translate(3335.381 952.024)" fill="rgba(217,223,228,0.53)"/>
    <path id="rgba_217_223_228_0.53_48" data-name="rgba(217,223,228,0.53)" d="M258.471,281l.316,5.364-2.524,11.989-.947,11.043L255,302.77l3.155-16.406Z" transform="translate(3344.019 949.013)" fill="rgba(217,223,228,0.53)"/>
    <path id="rgba_217_223_228_0.53_49" data-name="rgba(217,223,228,0.53)" d="M96,284.963q2.966-.442,3.786,2.209l3.786,5.679-1.578.947-4.733-5.364Zm1.893,1.262-.631,1.262,2.524,1.893Zm2.524,3.155-.631,1.262,1.893,1.262Z" transform="translate(3403.968 947.729)" fill="rgba(217,223,228,0.53)"/>
    <path id="rgba_217_223_228_0.53_50" data-name="rgba(217,223,228,0.53)" d="M164.5,292l3.471.316-3.471.315Z" transform="translate(3378.149 945.124)" fill="rgba(217,223,228,0.53)"/>
    <path id="rgba_217_223_228_0.53_51" data-name="rgba(217,223,228,0.53)" d="M178.7,295.864q3.344-.757,4.1.947l1.262,3.155-.947.947-8.2.631v-.631l8.519-.631-2.209-3.786L170.5,297.757v-.631h3.786Z" transform="translate(3375.819 943.708)" fill="rgba(217,223,228,0.53)"/>
    <path id="rgba_217_223_228_0.53_52" data-name="rgba(217,223,228,0.53)" d="M165.5,298.815q2.777-.947,2.209.947l3.786,2.524-2.209.316Z" transform="translate(3377.757 942.643)" fill="rgba(217,223,228,0.53)"/>
    <path id="rgba_217_223_228_0.53_53" data-name="rgba(217,223,228,0.53)" d="M192,330l1.893.316-1.262.315v2.84l3.155,8.834v3.786q1.83,2.461,1.262,6.626l-3.471.631v-.631q2.4.5,2.84-.947l-1.262-9.465L192,334.1Z" transform="translate(3367.767 930.081)" fill="rgba(217,223,228,0.53)"/>
    <path id="rgba_217_223_228_0.53_54" data-name="rgba(217,223,228,0.53)" d="M211.5,330l2.84,2.209,5.048,6.31,6.941,12.62,2.84,2.84,6.31,1.893,10.727,1.262,5.995,1.893.631,3.471H252.2q.5-2.335-.947-2.84l-5.679-1.893L229.8,355.241l-4.1-3.471-6.31-11.989Z" transform="translate(3360.039 930.081)" fill="rgba(217,223,228,0.53)"/>
    <path id="rgba_217_223_228_0.53_55" data-name="rgba(217,223,228,0.53)" d="M255.316,332q.757,6.815,5.679,9.465L279.61,350.3q1.451,3.786-2.84,2.524l-4.417-1.893q.315,4.8-.947,6.941l-1.262.315q.82,1.767,1.578.316l1.262-.631h7.572l2.524.631,1.893,1.893.316-.947-4.417-4.417-.631-3.471a19.19,19.19,0,0,1,10.727,7.257l4.417,5.679,3.786,8.2v6.31l-.631,2.524-1.578,1.578-8.834,3.786-6.941.631V386.9q10.917-.442,16.722-5.995l.631-7.572a38.876,38.876,0,0,0-12.3-17.984l-5.048-3.155-.315.947,9.465,11.989q2.84,2.84,1.893,9.465-3.471,5.048-12.3,4.733V378.7q8.456.253,11.674-4.733v-4.417a22.99,22.99,0,0,0-5.995-9.15l-.315,2.524h-2.524q.82,1.893-1.578,1.262l-.631,1.262a11.723,11.723,0,0,1,7.888,4.1q.5,3.66-2.209,4.1H283.08l-7.572-3.155-3.471-.315,3.471-.316,7.572,3.155H285.6l1.578-.631.631-2.209-4.733-3.471-7.888-2.209,1.578-.315h1.262l4.1-.631q.82-2.082-2.209-1.262v-.631l.947-.316-5.364-.316v1.262q-3.155-.631-3.786,1.262l-.316-.947q2.4-3.281,9.15-2.209l4.1,1.893-2.209-3.155q-3.218-1.515-8.834-.631l-3.155,1.262-1.262-1.893,1.578-.947.631-6.626,7.572,1.893q.694-1.7-.947-1.262l-18.3-9.465-2.84-2.84L255,334.84Z" transform="translate(3343.498 929.343)" fill="rgba(217,223,228,0.53)"/>
    <path id="rgba_217_223_228_0.53_56" data-name="rgba(217,223,228,0.53)" d="M125.155,346l13.251.316-12.62.315-3.155,5.995-.315,8.519L122,352.626Z" transform="translate(3394.118 924.177)" fill="rgba(217,223,228,0.53)"/>
    <path id="rgba_217_223_228_0.53_57" data-name="rgba(217,223,228,0.53)" d="M130,350l5.048.947-2.209.316-2.209-.631-.316,11.358Z" transform="translate(3391.152 922.701)" fill="rgba(217,223,228,0.53)"/>
    <path id="rgba_217_223_228_0.53_58" data-name="rgba(217,223,228,0.53)" d="M137.471,351.938q2.4-.442,2.84.947l1.262,3.786v3.155l-1.578,1.578-3.155.631-2.209,2.209-.315.947L134,363.612l2.209-2.209,3.155-.631,1.578-1.578q.189-4.607-2.209-6.626Q136.84,352.884,137.471,351.938Z" transform="translate(3389.631 922.025)" fill="rgba(217,223,228,0.53)"/>
    <path id="rgba_217_223_228_0.53_59" data-name="rgba(217,223,228,0.53)" d="M177.5,367l9.781.316-9.781.315Z" transform="translate(3373.204 916.428)" fill="rgba(217,223,228,0.53)"/>
    <path id="rgba_217_223_228_0.53_60" data-name="rgba(217,223,228,0.53)" d="M151.947,368l4.733.315-4.417.316.631,2.209,4.733,5.364,6.941,3.155,9.465,1.893a12.938,12.938,0,0,1,6.626,4.733l.631,5.048h-.631q.189-6.184-4.1-7.888l-16.407-4.417-5.995-4.733L151,368.947Z" transform="translate(3383.069 916.059)" fill="rgba(217,223,228,0.53)"/>
    <path id="rgba_217_223_228_0.53_61" data-name="rgba(217,223,228,0.53)" d="M141.762,370l2.209.316-3.471.947v-.631Z" transform="translate(3387.199 915.321)" fill="rgba(217,223,228,0.53)"/>
    <path id="rgba_217_223_228_0.53_62" data-name="rgba(217,223,228,0.53)" d="M131.316,371l.315,5.364H131Z" transform="translate(3390.795 914.952)" fill="rgba(217,223,228,0.53)"/>
    <path id="rgba_217_223_228_0.53_63" data-name="rgba(217,223,228,0.53)" d="M134.316,374l.631.631h5.679l.947-.315-5.048,3.786-.315.946-.316-1.578,1.578-2.209H134Z" transform="translate(3389.631 913.845)" fill="rgba(217,223,228,0.53)"/>
    <path id="rgba_217_223_228_0.53_64" data-name="rgba(217,223,228,0.53)" d="M122.316,379q-.883,13.188,6.31,18.3l11.989,6.31,6.626.947-4.1.315q-10.79-2.461-17.353-9.15L122,388.15Z" transform="translate(3394.073 912.001)" fill="rgba(217,223,228,0.53)"/>
    <path id="rgba_217_223_228_0.53_65" data-name="rgba(217,223,228,0.53)" d="M145.024,379l3.471.316-5.995,1.578.631-1.262Z" transform="translate(3386.432 912.001)" fill="rgba(217,223,228,0.53)"/>
    <path id="rgba_217_223_228_0.53_66" data-name="rgba(217,223,228,0.53)" d="M132.287,381l.947,5.995,1.578,1.578,3.786-2.524,7.888-2.209-3.471-.315-.631.631h-6.31l-.947-1.578,1.578.947,9.465-.631,2.209.947-9.15,2.84-4.1,2.209-.316.947Q130.9,387.247,132.287,381Z" transform="translate(3390.369 911.263)" fill="rgba(217,223,228,0.53)"/>
    <path id="rgba_217_223_228_0.53_67" data-name="rgba(217,223,228,0.53)" d="M276.947,383l.316,1.893L276,384.578Z" transform="translate(3335.75 910.525)" fill="rgba(217,223,228,0.53)"/>
    <path id="rgba_217_223_228_0.53_68" data-name="rgba(217,223,228,0.53)" d="M257.662,386l4.1.316q-8.9.252-12.62,5.679-2.524,2.524-2.524,7.572l7.257,5.995,6.626,1.578-3.471.316a21.748,21.748,0,0,1-11.043-7.257q-.315-7.572,4.1-10.412Z" transform="translate(3347.301 909.418)" fill="rgba(217,223,228,0.53)"/>
    <path id="rgba_217_223_228_0.53_69" data-name="rgba(217,223,228,0.53)" d="M150.874,391h11.989l2.524.631a15.4,15.4,0,0,1,7.888,5.995l.631,4.417-.631,1.578-5.364,2.524-13.882.631v-.631l13.251-.631,5.995-3.471q.5-3.66-1.578-4.733l-2.524,3.786q-6.878,4.8-20.193,3.155-.82-1.388-3.786-.631v.631l7.888,1.578-3.471.316a19.758,19.758,0,0,1-9.781-4.1l2.209-.316,6.941,1.893H160.97l6.941-2.524,2.209-2.209.631-2.209h-1.578l-4.417,3.155-4.417,1.262H151.5L142.67,399.2l-4.733-2.209q-.442-2.335.947-2.84l6.941-2.524h3.786v.631l-6.31.631-4.733,2.84.947,1.578,11.989,3.155h8.2l11.043-4.733a15.279,15.279,0,0,0-7.888-4.1H150.874Z" transform="translate(3388.013 907.573)" fill="rgba(217,223,228,0.53)"/>
    <path id="rgba_217_223_228_0.53_70" data-name="rgba(217,223,228,0.53)" d="M258.519,391l11.043.316-11.043.315-7.257,4.733-.631,2.524h.631q-.5-1.641,1.578-.947a28.694,28.694,0,0,0,12.3,2.84l-4.1.316-8.834-2.524-.316.947a11.134,11.134,0,0,0,6.626,3.471l10.412,1.578-4.733.316-5.679-1.262v.631l6.941,1.893h16.406l12.3-3.786.315-2.524.315,3.155-12.936,3.786H265.46l-10.727-3.155-4.1-2.84L250,396.995l.631-1.578Z" transform="translate(3345.343 907.573)" fill="rgba(217,223,228,0.53)"/>
    <path id="rgba_217_223_228_0.53_71" data-name="rgba(217,223,228,0.53)" d="M298,391l2.524.947-2.524.316Z" transform="translate(3327.632 907.573)" fill="rgba(217,223,228,0.53)"/>
    <path id="rgba_217_223_228_0.53_72" data-name="rgba(217,223,228,0.53)" d="M308.382,399l2.209,1.578-.315,1.578-1.262-1.893q-1.388-.442-.947.947a19.051,19.051,0,0,1-8.519,5.995l-5.048.631V407.2q8.708-1.073,12.936-6.626Z" transform="translate(3328.924 904.621)" fill="rgba(217,223,228,0.53)"/>
    <path id="rgba_217_223_228_0.53_73" data-name="rgba(217,223,228,0.53)" d="M275.5,407l11.043.315-11.043.315Z" transform="translate(3335.934 901.669)" fill="rgba(217,223,228,0.53)"/>
    <path id="rgba_217_223_228_0.53_74" data-name="rgba(217,223,228,0.53)" d="M185.955,408l.316,2.84a12.928,12.928,0,0,1-7.888,4.733l-3.155.631H164.5v-.631q14.955,1.7,21.139-5.364Z" transform="translate(3378.027 901.3)" fill="rgba(217,223,228,0.53)"/>
    <path id="rgba_217_223_228_0.53_75" data-name="rgba(217,223,228,0.53)" d="M282.5,413l6.626.315-6.626.316Z" transform="translate(3333.352 899.455)" fill="rgba(217,223,228,0.53)"/>
    <path id="rgba_217_223_228_0.53_76" data-name="rgba(217,223,228,0.53)" d="M270.5,420l15.46.315-15.46.315Z" transform="translate(3337.779 896.872)" fill="rgba(217,223,228,0.53)"/>
  </g>
</svg>
