<svg id="Capa_1" enable-background="new 0 0 512 512" height="512" viewBox="0 0 512 512" width="512" xmlns="http://www.w3.org/2000/svg"><g><path d="m16 20h480v300h-480z" fill="#ff6378"/><path d="m256 20h240v300h-240z" fill="#d0004f"/><g><path d="m196 340h-120c-8.284 0-15-6.716-15-15v-20c0-41.355 33.645-75 75-75s75 33.645 75 75v20c0 8.284-6.716 15-15 15z" fill="#8bb9ff"/><path d="m196 340c8.284 0 15-6.716 15-15v-20c0-41.355-33.645-75-75-75v110z" fill="#4793ff"/><path d="m136 260c-30.327 0-55-24.673-55-55s24.673-55 55-55 55 24.673 55 55-24.673 55-55 55z" fill="#ffc3aa"/><path d="m191 205c0-30.327-24.673-55-55-55v110c30.327 0 55-24.673 55-55z" fill="#faaa8c"/></g><path d="m367.713 487.629-8.765-10.957c-18.023-22.527-27.948-50.822-27.948-79.672 0-8.284-6.716-15-15-15h-120c-8.284 0-15 6.716-15 15 0 28.85-9.925 57.145-27.948 79.673l-8.765 10.956c-3.602 4.503-4.304 10.671-1.807 15.869h227.04c2.497-5.197 1.795-11.366-1.807-15.869z" fill="#453d81"/><path d="m358.948 476.673c-18.023-22.528-27.948-50.823-27.948-79.673 0-8.284-6.716-15-15-15h-60v121.498h113.52c2.498-5.197 1.795-11.366-1.807-15.869z" fill="#2e2654"/><path d="m396 512h-280c-8.284 0-15-6.716-15-15s6.716-15 15-15h280c8.284 0 15 6.716 15 15s-6.716 15-15 15z" fill="#5e54ac"/><path d="m396 482h-140v30h140c8.284 0 15-6.716 15-15s-6.716-15-15-15z" fill="#453d81"/><path d="m467 0h-422c-24.813 0-45 20.187-45 45v322c0 24.813 20.187 45 45 45h422c24.813 0 45-20.187 45-45v-322c0-24.813-20.187-45-45-45zm15 310h-452v-265c0-8.271 6.729-15 15-15h422c8.271 0 15 6.729 15 15z" fill="#5e54ac"/><path d="m467 0h-211v30h211c8.271 0 15 6.729 15 15v265h-226v102h211c24.813 0 45-20.187 45-45v-322c0-24.813-20.187-45-45-45z" fill="#453d81"/><path d="m436 270h-200c-8.284 0-15-6.716-15-15v-115h-45c-6.315 0-11.954-3.955-14.104-9.894s-.35-12.587 4.501-16.63l60-50c2.696-2.246 6.094-3.476 9.603-3.476h200c8.284 0 15 6.716 15 15v180c0 8.284-6.716 15-15 15z" fill="#e1f0ff"/><path d="m436 60h-180v210h180c8.284 0 15-6.716 15-15v-180c0-8.284-6.716-15-15-15z" fill="#bedcf0"/><g fill="#453d81"><path d="m376 150h-80c-8.284 0-15-6.716-15-15s6.716-15 15-15h80c8.284 0 15 6.716 15 15s-6.716 15-15 15z"/><path d="m376 210h-80c-8.284 0-15-6.716-15-15s6.716-15 15-15h80c8.284 0 15 6.716 15 15s-6.716 15-15 15z"/></g></g></svg>