<svg id="Capa_1" enable-background="new 0 0 512 512" height="512" viewBox="0 0 512 512" width="512" xmlns="http://www.w3.org/2000/svg"><g><path d="m356.606 245.394-40-40c-5.857-5.857-15.355-5.857-21.213 0s-5.858 15.355 0 21.213l14.394 14.393h-107.574l14.393-14.394c5.858-5.857 5.858-15.355 0-21.213-5.857-5.857-15.355-5.857-21.213 0l-40 40c-5.858 5.857-5.858 15.355 0 21.213l40 40c2.929 2.929 6.768 4.394 10.607 4.394s7.678-1.465 10.606-4.394c5.858-5.857 5.858-15.355 0-21.213l-14.393-14.393h107.574l-14.393 14.394c-5.858 5.857-5.858 15.355 0 21.213 2.928 2.928 6.767 4.393 10.606 4.393s7.678-1.465 10.606-4.394l40-40c5.858-5.857 5.858-15.355 0-21.212z" fill="#e1f0ff"/><path d="m195.394 306.606c2.928 2.929 6.767 4.394 10.606 4.394s7.678-1.465 10.606-4.394c5.858-5.857 5.858-15.355 0-21.213l-14.393-14.393h107.574l-14.393 14.394c-5.858 5.857-5.858 15.355 0 21.213 2.928 2.928 6.767 4.393 10.606 4.393s7.678-1.465 10.606-4.394l40-40c2.929-2.928 4.394-6.767 4.394-10.606h-210c0 3.839 1.464 7.678 4.393 10.606z" fill="#bedcf0"/><path d="m175 511h-40c-8.284 0-15-6.716-15-15v-140c0-8.284 6.716-15 15-15h40c19.299 0 35 15.701 35 35v100c0 19.299-15.701 35-35 35z" fill="#8bb9ff"/><path d="m175 171h-40c-8.284 0-15-6.716-15-15v-140c0-8.284 6.716-15 15-15h40c19.299 0 35 15.701 35 35v100c0 19.299-15.701 35-35 35z" fill="#d5e7ff"/><path d="m302 476v-100c0-19.299 15.701-35 35-35h40c8.284 0 15 6.716 15 15v140c0 8.284-6.716 15-15 15h-40c-19.299 0-35-15.701-35-35z" fill="#ff6378"/><path d="m302 136v-100c0-19.299 15.701-35 35-35h40c8.284 0 15 6.716 15 15v140c0 8.284-6.716 15-15 15h-40c-19.299 0-35-15.701-35-35z" fill="#ffa5b1"/><path d="m143.326 341c-10.178-17.304-23.326-47.013-23.326-85 0-17.518 3.148-50.944 23.308-85v-170h-59.101c-24.533 0-45.708 15.731-52.691 39.146-20.912 70.112-31.516 142.736-31.516 215.854 0 73.1 10.593 145.69 31.486 215.758 6.889 23.105 28.582 39.242 52.753 39.242h59.086v-170z" fill="#8bb9ff"/><path d="m84.239 511h59.086v-170c-10.177-17.304-23.325-47.013-23.325-85h-120c0 73.1 10.593 145.69 31.486 215.758 6.889 23.105 28.582 39.242 52.753 39.242z" fill="#4793ff"/><path d="m368.674 341c10.178-17.304 23.326-47.013 23.326-85 0-17.518-3.148-50.944-23.308-85v-170h59.102c24.533 0 45.708 15.731 52.691 39.146 20.911 70.112 31.515 142.736 31.515 215.854 0 73.1-10.593 145.69-31.486 215.758-6.889 23.105-28.582 39.242-52.753 39.242h-59.086v-170z" fill="#ff6378"/><path d="m368.674 341v170h59.086c24.171 0 45.864-16.137 52.753-39.242 20.894-70.068 31.487-142.658 31.487-215.758h-120c0 37.987-13.148 67.696-23.326 85z" fill="#d0004f"/></g></svg>