<svg id="Capa_1" enable-background="new 0 0 512 512" height="512" viewBox="0 0 512 512" width="512" xmlns="http://www.w3.org/2000/svg"><g><path d="m467 512h-422c-24.813 0-45-20.187-45-45v-332c0-8.284 6.716-15 15-15h482c8.284 0 15 6.716 15 15v332c0 24.813-20.187 45-45 45z" fill="#e1f0ff"/><path d="m497 120h-241v392h211c24.813 0 45-20.187 45-45v-332c0-8.284-6.716-15-15-15z" fill="#bedcf0"/><path d="m467 0h-422c-24.813 0-45 20.187-45 45v90h512v-90c0-24.813-20.187-45-45-45z" fill="#5e54ac"/><path d="m467 0h-211v135h256v-90c0-24.813-20.187-45-45-45z" fill="#453d81"/><circle cx="76" cy="67.5" fill="#ff6378" r="15"/><circle cx="136" cy="67.5" fill="#00ff93" r="15"/><circle cx="196" cy="67.5" fill="#ffe278" r="15"/><g fill="#453d81"><path d="m436 232h-60c-8.284 0-15-6.716-15-15s6.716-15 15-15h60c8.284 0 15 6.716 15 15s-6.716 15-15 15z"/><path d="m436 302h-60c-8.284 0-15-6.716-15-15s6.716-15 15-15h60c8.284 0 15 6.716 15 15s-6.716 15-15 15z"/><path d="m436 372h-60c-8.284 0-15-6.716-15-15s6.716-15 15-15h60c8.284 0 15 6.716 15 15s-6.716 15-15 15z"/></g><path d="m436 442h-360c-8.284 0-15-6.716-15-15s6.716-15 15-15h360c8.284 0 15 6.716 15 15s-6.716 15-15 15z" fill="#5e54ac"/><path d="m436 412h-180v30h180c8.284 0 15-6.716 15-15s-6.716-15-15-15z" fill="#453d81"/><path d="m76 197h240v160h-240z" fill="#ffe278"/><path d="m196 197h120v160h-120z" fill="#ffb454"/><path d="m316 182h-240c-8.284 0-15 6.716-15 15v160c0 8.284 6.716 15 15 15h240c8.284 0 15-6.716 15-15v-160c0-8.284-6.716-15-15-15zm-147.041 95-77.959 51.973v-103.946zm-43.418-65h140.918l-70.459 46.973zm70.459 83.027 70.459 46.973h-140.918zm27.041-18.027 77.959-51.973v103.945z" fill="#ff6378"/><path d="m316 182h-120v30h70.459l-70.459 46.973v36.055l70.459 46.972h-70.459v30h120c8.284 0 15-6.716 15-15v-160c0-8.284-6.716-15-15-15zm-15 146.973-77.959-51.973 77.959-51.973z" fill="#d0004f"/></g></svg>