<svg id="Capa_1" enable-background="new 0 0 512 512" height="512" viewBox="0 0 512 512" width="512" xmlns="http://www.w3.org/2000/svg"><g><path d="m146 312h-80c-8.284 0-15-6.716-15-15v-120c0-8.284 6.716-15 15-15h80c8.284 0 15 6.716 15 15v120c0 8.284-6.716 15-15 15z" fill="#5e54ac"/><path d="m497 512h-482c-8.284 0-15-6.716-15-15v-200c0-8.284 6.716-15 15-15h482c8.284 0 15 6.716 15 15v200c0 8.284-6.716 15-15 15z" fill="#e1f0ff"/><path d="m497 282h-241v230h241c8.284 0 15-6.716 15-15v-200c0-8.284-6.716-15-15-15z" fill="#bedcf0"/><g fill="#bedcf0"><circle cx="271" cy="117" r="15"/><path d="m366.459 21.541c-5.857-5.858-15.355-5.858-21.213 0s-5.858 15.355 0 21.213c40.939 40.94 40.939 107.553 0 148.493-5.858 5.858-5.858 15.355 0 21.213 2.929 2.929 6.768 4.394 10.606 4.394s7.678-1.464 10.606-4.394c52.638-52.637 52.638-138.283.001-190.919z"/><path d="m324.033 63.967c-5.857-5.857-15.355-5.858-21.213 0-5.857 5.858-5.857 15.355 0 21.213 8.499 8.5 13.18 19.8 13.18 31.82s-4.681 23.32-13.18 31.819c-5.858 5.858-5.858 15.355 0 21.213 2.93 2.929 6.768 4.394 10.607 4.394 3.838 0 7.678-1.465 10.606-4.393 14.166-14.165 21.967-33 21.967-53.033s-7.801-38.868-21.967-53.033z"/></g><path d="m106 72c-8.284 0-15-6.716-15-15v-42c0-8.284 6.716-15 15-15s15 6.716 15 15v42c0 8.284-6.716 15-15 15z" fill="#5e54ac"/><path d="m451 512h-110v-155c0-8.284 6.716-15 15-15h80c8.284 0 15 6.716 15 15z" fill="#453d81"/><path d="m371 372h50v140h-50z" fill="#2ebeef"/><path d="m296 432h-80c-8.284 0-15-6.716-15-15v-60c0-8.284 6.716-15 15-15h80c8.284 0 15 6.716 15 15v60c0 8.284-6.716 15-15 15z" fill="#5e54ac"/><path d="m296 342h-40v90h40c8.284 0 15-6.716 15-15v-60c0-8.284-6.716-15-15-15z" fill="#453d81"/><path d="m156 432h-80c-8.284 0-15-6.716-15-15v-60c0-8.284 6.716-15 15-15h80c8.284 0 15 6.716 15 15v60c0 8.284-6.716 15-15 15z" fill="#5e54ac"/><path d="m91 372h50v30h-50z" fill="#45f6ff"/><path d="m176 192h-140c-6.457 0-12.188-4.131-14.23-10.256l-20-60c-1.524-4.575-.757-9.603 2.062-13.514s7.346-6.23 12.168-6.23h180c4.822 0 9.349 2.318 12.168 6.229s3.586 8.939 2.062 13.514l-20 60c-2.042 6.126-7.773 10.257-14.23 10.257z" fill="#2ebeef"/><path d="m210.23 112.256-20-60c-2.042-6.125-7.773-10.256-14.23-10.256h-140c-6.457 0-12.188 4.131-14.23 10.256l-20 60c-.516 1.55-.749 3.151-.748 4.744h209.958c-.001-1.593-.233-3.194-.75-4.744z" fill="#45f6ff"/><path d="m231 372h50v30h-50z" fill="#45f6ff"/><path d="m256 372h25v30h-25z" fill="#2ebeef"/></g></svg>