<svg id="Capa_1" enable-background="new 0 0 512 512" height="512" viewBox="0 0 512 512" width="512" xmlns="http://www.w3.org/2000/svg"><g><g><path d="m335 512h-320c-8.284 0-15-6.716-15-15v-200c0-8.284 6.716-15 15-15h320c8.284 0 15 6.716 15 15v200c0 8.284-6.716 15-15 15z" fill="#fff49d"/><path d="m335 282h-160v230h160c8.284 0 15-6.716 15-15v-200c0-8.284-6.716-15-15-15z" fill="#ffe278"/><path d="m350 497v-7.5l-175-131.25-175 131.25v7.5c0 8.284 6.716 15 15 15h320c8.284 0 15-6.716 15-15z" fill="#ffb454"/><path d="m335 512c8.284 0 15-6.716 15-15v-7.5l-175-131.25v153.75z" fill="#ec8600"/><path d="m0 297v7.89l166.502 114.47c5.119 3.519 11.877 3.519 16.996 0l166.502-114.47v-7.89c0-8.284-6.716-15-15-15h-320c-8.284 0-15 6.716-15 15z" fill="#ffe278"/><path d="m335 282h-160v140c2.969 0 5.938-.88 8.498-2.639l166.502-114.471v-7.89c0-8.284-6.716-15-15-15z" fill="#ffb454"/></g><g><path d="m497 230h-320c-8.284 0-15-6.716-15-15v-200c0-8.284 6.716-15 15-15h320c8.284 0 15 6.716 15 15v200c0 8.284-6.716 15-15 15z" fill="#fff49d"/><path d="m497 0h-160v230h160c8.284 0 15-6.716 15-15v-200c0-8.284-6.716-15-15-15z" fill="#ffe278"/><path d="m512 215v-7.5l-175-131.25-175 131.25v7.5c0 8.284 6.716 15 15 15h320c8.284 0 15-6.716 15-15z" fill="#ffb454"/><path d="m497 230c8.284 0 15-6.716 15-15v-7.5l-175-131.25v153.75z" fill="#ec8600"/><path d="m162 15v7.89l166.502 114.47c5.119 3.519 11.877 3.519 16.996 0l166.502-114.47v-7.89c0-8.284-6.716-15-15-15h-320c-8.284 0-15 6.716-15 15z" fill="#ffe278"/><path d="m497 0h-160v140c2.969 0 5.938-.88 8.498-2.639l166.502-114.471v-7.89c0-8.284-6.716-15-15-15z" fill="#ffb454"/></g><path d="m125.606 104.394-30-30c-5.857-5.857-15.355-5.857-21.213 0s-5.858 15.355 0 21.213l4.394 4.393h-33.787c-24.813 0-45 20.187-45 45v90c0 8.284 6.716 15 15 15s15-6.716 15-15v-90c0-8.271 6.729-15 15-15h33.787l-4.394 4.394c-5.858 5.857-5.858 15.355 0 21.213 2.929 2.928 6.768 4.393 10.607 4.393s7.678-1.465 10.606-4.394l30-30c5.859-5.857 5.859-15.355 0-21.212z" fill="#5e54ac"/><path d="m497 262c-8.284 0-15 6.716-15 15v90c0 8.271-6.729 15-15 15h-33.787l4.394-4.394c5.858-5.857 5.858-15.355 0-21.213-5.857-5.857-15.355-5.857-21.213 0l-30 30c-5.858 5.857-5.858 15.355 0 21.213l30 30c2.928 2.929 6.767 4.394 10.606 4.394s7.678-1.465 10.606-4.394c5.858-5.857 5.858-15.355 0-21.213l-4.393-4.393h33.787c24.813 0 45-20.187 45-45v-90c0-8.284-6.716-15-15-15z" fill="#453d81"/></g></svg>