<svg id="Capa_1" enable-background="new 0 0 512 512" height="512" viewBox="0 0 512 512" width="512" xmlns="http://www.w3.org/2000/svg"><g><path d="m115 312c-8.284 0-15 6.716-15 15v50h30v-50c0-8.284-6.716-15-15-15z" fill="#453d81"/><path d="m397 312c-8.284 0-15 6.716-15 15v50h30v-50c0-8.284-6.716-15-15-15z" fill="#2e2654"/><path d="m180 442c-8.284 0-15-6.716-15-15v-35h-100v35c0 8.284-6.716 15-15 15s-15-6.716-15-15v-50c0-8.284 6.716-15 15-15h130c8.284 0 15 6.716 15 15v50c0 8.284-6.716 15-15 15z" fill="#5e54ac"/><path d="m462 442c-8.284 0-15-6.716-15-15v-35h-100v35c0 8.284-6.716 15-15 15s-15-6.716-15-15v-50c0-8.284 6.716-15 15-15h130c8.284 0 15 6.716 15 15v50c0 8.284-6.716 15-15 15z" fill="#453d81"/><path d="m256 100c-8.284 0-15 6.716-15 15v57h30v-57c0-8.284-6.716-15-15-15z" fill="#453d81"/><path d="m271 172v-57c0-8.284-6.716-15-15-15v72z" fill="#2e2654"/><path d="m397 242c-8.284 0-15-6.716-15-15v-40h-252v40c0 8.284-6.716 15-15 15s-15-6.716-15-15v-55c0-8.284 6.716-15 15-15h282c8.284 0 15 6.716 15 15v55c0 8.284-6.716 15-15 15z" fill="#5e54ac"/><path d="m397 157h-141v30h126v40c0 8.284 6.716 15 15 15s15-6.716 15-15v-55c0-8.284-6.716-15-15-15z" fill="#453d81"/><path d="m366 130h-220c-8.284 0-15-6.716-15-15v-100c0-8.284 6.716-15 15-15h220c8.284 0 15 6.716 15 15v100c0 8.284-6.716 15-15 15z" fill="#ffe278"/><path d="m366 0h-110v130h110c8.284 0 15-6.716 15-15v-100c0-8.284-6.716-15-15-15z" fill="#ffb454"/><g><path d="m477 342h-160c-8.284 0-15-6.716-15-15v-100c0-8.284 6.716-15 15-15h160c8.284 0 15 6.716 15 15v100c0 8.284-6.716 15-15 15z" fill="#00ff93"/><path d="m477 212h-80v130h80c8.284 0 15-6.716 15-15v-100c0-8.284-6.716-15-15-15z" fill="#00a763"/></g><g><path d="m195 342h-160c-8.284 0-15-6.716-15-15v-100c0-8.284 6.716-15 15-15h160c8.284 0 15 6.716 15 15v100c0 8.284-6.716 15-15 15z" fill="#ff6378"/><path d="m195 212h-80v130h80c8.284 0 15-6.716 15-15v-100c0-8.284-6.716-15-15-15z" fill="#d0004f"/></g><g><path d="m85 512h-70c-8.284 0-15-6.716-15-15v-70c0-8.284 6.716-15 15-15h70c8.284 0 15 6.716 15 15v70c0 8.284-6.716 15-15 15z" fill="#e1f0ff"/><path d="m85 412h-35v100h35c8.284 0 15-6.716 15-15v-70c0-8.284-6.716-15-15-15z" fill="#bedcf0"/></g><g><path d="m215 512h-70c-8.284 0-15-6.716-15-15v-70c0-8.284 6.716-15 15-15h70c8.284 0 15 6.716 15 15v70c0 8.284-6.716 15-15 15z" fill="#e1f0ff"/><path d="m215 412h-35v100h35c8.284 0 15-6.716 15-15v-70c0-8.284-6.716-15-15-15z" fill="#bedcf0"/></g><g><path d="m367 512h-70c-8.284 0-15-6.716-15-15v-70c0-8.284 6.716-15 15-15h70c8.284 0 15 6.716 15 15v70c0 8.284-6.716 15-15 15z" fill="#e1f0ff"/><path d="m367 412h-35v100h35c8.284 0 15-6.716 15-15v-70c0-8.284-6.716-15-15-15z" fill="#bedcf0"/></g><g><path d="m497 512h-70c-8.284 0-15-6.716-15-15v-70c0-8.284 6.716-15 15-15h70c8.284 0 15 6.716 15 15v70c0 8.284-6.716 15-15 15z" fill="#e1f0ff"/><path d="m497 412h-35v100h35c8.284 0 15-6.716 15-15v-70c0-8.284-6.716-15-15-15z" fill="#bedcf0"/></g></g></svg>