<svg id="Capa_1" enable-background="new 0 0 512 512" height="512" viewBox="0 0 512 512" width="512" xmlns="http://www.w3.org/2000/svg"><g><path d="m457 512h-402c-30.327 0-55-24.673-55-55v-300c0-30.327 24.673-55 55-55h402c30.327 0 55 24.673 55 55v300c0 30.327-24.673 55-55 55z" fill="#5e54ac"/><path d="m457 102h-201v410h201c30.327 0 55-24.673 55-55v-300c0-30.327-24.673-55-55-55z" fill="#453d81"/><path d="m75 177h362v220h-362z" fill="#00ff93"/><path d="m256 177h181v220h-181z" fill="#00a763"/><path d="m437 162h-362c-8.284 0-15 6.716-15 15v220c0 8.284 6.716 15 15 15h362c8.284 0 15-6.716 15-15v-220c0-8.284-6.716-15-15-15zm-15 96.264-89.552 50.8 53.21-117.064h36.342zm-315.213 123.736 156.486-190h89.433l-86.364 190zm117.62-190-134.407 163.193v-163.193zm74.888 190 12.029-26.463 110.676-62.783v89.246z" fill="#e1f0ff"/><path d="m437 162h-181v38.83l7.272-8.83h89.433l-86.364 190h-10.341v30h181c8.284 0 15-6.716 15-15v-220c0-8.284-6.716-15-15-15zm-15 220h-122.705l12.029-26.463 110.676-62.783zm0-123.736-89.552 50.8 53.21-117.064h36.342z" fill="#bedcf0"/><path d="m306 477h-100c-8.284 0-15-6.716-15-15s6.716-15 15-15h100c8.284 0 15 6.716 15 15s-6.716 15-15 15z" fill="#e1f0ff"/><path d="m306 447h-50v30h50c8.284 0 15-6.716 15-15s-6.716-15-15-15z" fill="#bedcf0"/><path d="m256 290c-5.882 0-11.221-3.438-13.655-8.793l-38.776-85.309c-32.564-18.759-52.569-53.109-52.569-90.898 0-57.897 47.103-105 105-105s105 47.103 105 105c0 37.789-20.005 72.139-52.568 90.898l-38.777 85.309c-2.434 5.355-7.773 8.793-13.655 8.793z" fill="#ff6378"/><path d="m269.655 281.207 38.777-85.309c32.563-18.759 52.568-53.109 52.568-90.898 0-57.897-47.103-105-105-105v290c5.882 0 11.221-3.438 13.655-8.793z" fill="#d0004f"/><path d="m256 150c-24.813 0-45-20.187-45-45s20.187-45 45-45 45 20.187 45 45-20.187 45-45 45z" fill="#e1f0ff"/><path d="m301 105c0-24.813-20.187-45-45-45v90c24.813 0 45-20.187 45-45z" fill="#bedcf0"/></g></svg>