<svg id="Capa_1" enable-background="new 0 0 512 512" height="512" viewBox="0 0 512 512" width="512" xmlns="http://www.w3.org/2000/svg"><g><path d="m416 330h-320c-52.383 0-95-42.617-95-95 0-24.194 9.109-47.232 25.648-64.87 12.489-13.318 28.32-22.627 45.701-27.073-.897-6.018-1.349-12.053-1.349-18.057 0-68.925 56.075-125 125-125 22.113 0 43.846 5.875 62.848 16.99 14.112 8.255 26.503 19.247 36.415 32.222 35.765-17.047 79.128-10.172 107.912 18.613 19.391 19.39 29.246 46.324 27.533 73.312 45.425 7.089 80.292 46.48 80.292 93.863 0 52.383-42.617 95-95 95z" fill="#e1f0ff"/><path d="m430.708 141.137c1.713-26.988-8.143-53.922-27.533-73.312-28.784-28.786-72.147-35.66-107.912-18.613-9.912-12.975-22.303-23.967-36.415-32.222-.941-.55-1.894-1.078-2.848-1.602v314.612h160c52.383 0 95-42.617 95-95 0-47.383-34.867-86.774-80.292-93.863z" fill="#bedcf0"/><path d="m256 452c-8.284 0-15-6.716-15-15v-62c0-8.284 6.716-15 15-15s15 6.716 15 15v62c0 8.284-6.716 15-15 15z" fill="#5e54ac"/><path d="m271 437v-62c0-8.284-6.716-15-15-15v92c8.284 0 15-6.716 15-15z" fill="#453d81"/><path d="m497 482h-211c-8.284 0-15-6.716-15-15s6.716-15 15-15h211c8.284 0 15 6.716 15 15s-6.716 15-15 15z" fill="#453d81"/><path d="m226 482h-211c-8.284 0-15-6.716-15-15s6.716-15 15-15h211c8.284 0 15 6.716 15 15s-6.716 15-15 15z" fill="#5e54ac"/><path d="m151 195v180c0 8.284 6.716 15 15 15h180c8.284 0 15-6.716 15-15v-250c0-8.284-6.716-15-15-15h-110z" fill="#8bb9ff"/><path d="m346 110h-90v280h90c8.284 0 15-6.716 15-15v-250c0-8.284-6.716-15-15-15z" fill="#4793ff"/><path d="m256 512c-24.813 0-45-20.187-45-45s20.187-45 45-45 45 20.187 45 45-20.187 45-45 45z" fill="#ffe278"/><path d="m301 467c0-24.813-20.187-45-45-45v90c24.813 0 45-20.187 45-45z" fill="#ffb454"/><path d="m286 270h-60c-8.284 0-15-6.716-15-15s6.716-15 15-15h60c8.284 0 15 6.716 15 15s-6.716 15-15 15z" fill="#5e54ac"/><path d="m286 330h-60c-8.284 0-15-6.716-15-15s6.716-15 15-15h60c8.284 0 15 6.716 15 15s-6.716 15-15 15z" fill="#5e54ac"/><path d="m286 240h-30v30h30c8.284 0 15-6.716 15-15s-6.716-15-15-15z" fill="#453d81"/><path d="m286 300h-30v30h30c8.284 0 15-6.716 15-15s-6.716-15-15-15z" fill="#453d81"/><path d="m236 110v70c0 8.284-6.716 15-15 15h-70z" fill="#4793ff"/></g></svg>