<svg id="Capa_1" enable-background="new 0 0 512 512" height="512" viewBox="0 0 512 512" width="512" xmlns="http://www.w3.org/2000/svg"><g><g><path d="m376 150c-8.284 0-14-6.716-14-15 0-57.897-48.103-105-106-105s-106 47.103-106 105c0 8.284-5.716 15-14 15s-15-6.716-15-15c0-74.439 60.561-135 135-135s135 60.561 135 135c0 8.284-6.716 15-15 15z" fill="#5e54ac"/><path d="m362 135c0 8.284 5.716 15 14 15s15-6.716 15-15c0-74.439-60.561-135-135-135v30c57.897 0 106 47.103 106 105z" fill="#453d81"/><path d="m156 250c-2.757 0-5-2.243-5-5v-20c0-8.284-6.716-15-15-15s-15 6.716-15 15v20c0 19.299 15.701 35 35 35h100v-30z" fill="#5e54ac"/><path d="m256 295c-8.284 0-15-6.716-15-15v-30c0-8.284 6.716-15 15-15s15 6.716 15 15v30c0 8.284-6.716 15-15 15z" fill="#ffe278"/><path d="m271 280v-30c0-8.284-6.716-15-15-15v60c8.284 0 15-6.716 15-15z" fill="#ffb454"/><path d="m406 240h-30c-8.284 0-15-6.716-15-15v-105h45c24.853 0 45 20.147 45 45v30c0 24.853-20.147 45-45 45z" fill="#4793ff"/><path d="m151 240h-45c-24.853 0-45-20.147-45-45v-30c0-24.853 20.147-45 45-45h45z" fill="#8bb9ff"/></g><g><path d="m135 512h-120c-8.284 0-15-6.716-15-15v-20c0-41.355 33.645-75 75-75s75 33.645 75 75v20c0 8.284-6.716 15-15 15z" fill="#00ff93"/><path d="m135 512c8.284 0 15-6.716 15-15v-20c0-41.355-33.645-75-75-75v110z" fill="#00a763"/><path d="m75 432c-30.327 0-55-24.673-55-55s24.673-55 55-55 55 24.673 55 55-24.673 55-55 55z" fill="#ffc3aa"/><path d="m130 377c0-30.327-24.673-55-55-55v110c30.327 0 55-24.673 55-55z" fill="#faaa8c"/></g><g><path d="m316 512h-120c-8.284 0-15-6.716-15-15v-20c0-41.355 33.645-75 75-75s75 33.645 75 75v20c0 8.284-6.716 15-15 15z" fill="#ffe278"/><path d="m316 512c8.284 0 15-6.716 15-15v-20c0-41.355-33.645-75-75-75v110z" fill="#ffb454"/><path d="m256 432c-30.327 0-55-24.673-55-55s24.673-55 55-55 55 24.673 55 55-24.673 55-55 55z" fill="#ffc3aa"/><path d="m311 377c0-30.327-24.673-55-55-55v110c30.327 0 55-24.673 55-55z" fill="#faaa8c"/></g><g><path d="m497 512h-120c-8.284 0-15-6.716-15-15v-20c0-41.355 33.645-75 75-75s75 33.645 75 75v20c0 8.284-6.716 15-15 15z" fill="#ff6378"/><path d="m497 512c8.284 0 15-6.716 15-15v-20c0-41.355-33.645-75-75-75v110z" fill="#d0004f"/><path d="m437 432c-30.327 0-55-24.673-55-55s24.673-55 55-55 55 24.673 55 55-24.673 55-55 55z" fill="#ffc3aa"/><path d="m492 377c0-30.327-24.673-55-55-55v110c30.327 0 55-24.673 55-55z" fill="#faaa8c"/></g></g></svg>