<svg id="Capa_1" enable-background="new 0 0 512 512" height="512" viewBox="0 0 512 512" width="512" xmlns="http://www.w3.org/2000/svg"><g><g><path d="m290 15c0-8.284-6.716-15-15-15h-260c-8.284 0-15 6.716-15 15v45l85 125-85 145v167c0 8.284 6.716 15 15 15h75l40-30h15 15l40 30h75c8.284 0 15-6.716 15-15v-167l-85-145 85-125z" fill="#5e54ac"/><path d="m290 15c0-8.284-6.716-15-15-15h-130v482h15l40 30h75c8.284 0 15-6.716 15-15v-167l-85-145 85-125z" fill="#453d81"/><g><path d="m454.5 512c-8.284 0-15-6.716-15-15v-70c0-8.284 6.716-15 15-15s15 6.716 15 15v70c0 8.284-6.716 15-15 15z" fill="#af6c23"/><path d="m454.5 412v100c8.284 0 15-6.716 15-15v-70c0-8.284-6.716-15-15-15z" fill="#965a1e"/><path d="m454.5 472c-34.93 0-57.5-21.589-57.5-55 0-33.839 22.934-85 57.5-85s57.5 51.161 57.5 85c0 33.411-22.57 55-57.5 55z" fill="#00ff93"/><path d="m454.5 332v140c34.93 0 57.5-21.589 57.5-55 0-33.839-22.934-85-57.5-85z" fill="#00a763"/></g><g><path d="m90 392h110v120h-110z" fill="#45f6ff"/><path d="m145 392h55v120h-55z" fill="#2ebeef"/></g><path d="m205 90h85v210h-85z" fill="#2ebeef"/><path d="m0 90h85v210h-85z" fill="#45f6ff"/><g><path d="m190 60c-8.284 0-15 6.716-15 15v240c0 8.284 6.716 15 15 15h100v-30h-85v-30h85v-30h-85v-30h85v-30h-85v-30h85v-30h-85v-30h85v-30z" fill="#2e2654"/><path d="m100 60h-100v30h85v30h-85v30h85v30h-85v30h85v30h-85v30h85v30h-85v30h100c8.284 0 15-6.716 15-15v-240c0-8.284-6.716-15-15-15z" fill="#453d81"/></g><g fill="#bedcf0"><circle cx="347.057" cy="117" r="15"/><path d="m442.516 21.541c-5.857-5.858-15.355-5.858-21.213 0s-5.858 15.355 0 21.213c40.939 40.94 40.939 107.553 0 148.493-5.858 5.858-5.858 15.355 0 21.213 2.929 2.929 6.768 4.394 10.606 4.394s7.678-1.464 10.606-4.394c52.638-52.637 52.638-138.283.001-190.919z"/><path d="m400.09 63.967c-5.857-5.858-15.355-5.858-21.213 0s-5.858 15.355 0 21.213c8.499 8.5 13.18 19.8 13.18 31.82s-4.681 23.32-13.18 31.82c-5.858 5.858-5.858 15.355 0 21.213 2.929 2.929 6.768 4.394 10.606 4.394s7.678-1.464 10.606-4.394c29.244-29.242 29.244-76.824.001-106.066z"/></g><g><path d="m369.5 512c-8.284 0-15-6.716-15-15v-70c0-8.284 6.716-15 15-15s15 6.716 15 15v70c0 8.284-6.716 15-15 15z" fill="#af6c23"/><path d="m369.5 412v100c8.284 0 15-6.716 15-15v-70c0-8.284-6.716-15-15-15z" fill="#965a1e"/><path d="m369.5 472c-34.93 0-57.5-21.589-57.5-55 0-33.839 22.934-85 57.5-85s57.5 51.161 57.5 85c0 33.411-22.57 55-57.5 55z" fill="#00ff93"/><path d="m369.5 332v140c34.93 0 57.5-21.589 57.5-55 0-33.839-22.934-85-57.5-85z" fill="#00a763"/></g></g><path d="m215 362h-140c-8.284 0-15 6.716-15 15v135h30v-120h40v120h30v-120h40v120h30v-135c0-8.284-6.716-15-15-15z" fill="#453d81"/><path d="m215 362h-70v150h15v-120h40v120h30v-135c0-8.284-6.716-15-15-15z" fill="#2e2654"/></g></svg>