<svg id="Capa_1" enable-background="new 0 0 512 512" height="512" viewBox="0 0 512 512" width="512" xmlns="http://www.w3.org/2000/svg"><g><path d="m256 511c-68.113 0-132.149-26.524-180.312-74.688-48.164-48.163-74.688-112.199-74.688-180.312s26.524-132.149 74.688-180.312c48.163-48.164 112.199-74.688 180.312-74.688s132.149 26.524 180.312 74.688c48.164 48.163 74.688 112.199 74.688 180.312s-26.524 132.149-74.688 180.312c-48.163 48.164-112.199 74.688-180.312 74.688zm0-480c-124.065 0-225 100.935-225 225s100.935 225 225 225 225-100.935 225-225-100.935-225-225-225z" fill="#e1f0ff"/><path d="m481 256c0 124.065-100.935 225-225 225v30c68.113 0 132.149-26.524 180.312-74.688 48.164-48.163 74.688-112.199 74.688-180.312s-26.524-132.149-74.688-180.312c-48.163-48.164-112.199-74.688-180.312-74.688v30c124.065 0 225 100.935 225 225z" fill="#bedcf0"/><g><path d="m135 512h-120c-8.284 0-15-6.716-15-15v-20c0-41.355 33.645-75 75-75s75 33.645 75 75v20c0 8.284-6.716 15-15 15z" fill="#8bb9ff"/><path d="m135 512c8.284 0 15-6.716 15-15v-20c0-41.355-33.645-75-75-75v110z" fill="#4793ff"/><path d="m75 432c-30.327 0-55-24.673-55-55s24.673-55 55-55 55 24.673 55 55-24.673 55-55 55z" fill="#ffc3aa"/><path d="m130 377c0-30.327-24.673-55-55-55v110c30.327 0 55-24.673 55-55z" fill="#faaa8c"/></g><g><path d="m135 190h-120c-8.284 0-15-6.716-15-15v-20c0-41.355 33.645-75 75-75s75 33.645 75 75v20c0 8.284-6.716 15-15 15z" fill="#ffe278"/><path d="m135 190c8.284 0 15-6.716 15-15v-20c0-41.355-33.645-75-75-75v110z" fill="#ffb454"/><path d="m75 110c-30.327 0-55-24.673-55-55s24.673-55 55-55 55 24.673 55 55-24.673 55-55 55z" fill="#ffc3aa"/><path d="m130 55c0-30.327-24.673-55-55-55v110c30.327 0 55-24.673 55-55z" fill="#faaa8c"/></g><g><path d="m497 190h-120c-8.284 0-15-6.716-15-15v-20c0-41.355 33.645-75 75-75s75 33.645 75 75v20c0 8.284-6.716 15-15 15z" fill="#ff6378"/><path d="m497 190c8.284 0 15-6.716 15-15v-20c0-41.355-33.645-75-75-75v110z" fill="#d0004f"/><path d="m437 110c-30.327 0-55-24.673-55-55s24.673-55 55-55 55 24.673 55 55-24.673 55-55 55z" fill="#ffc3aa"/><path d="m492 55c0-30.327-24.673-55-55-55v110c30.327 0 55-24.673 55-55z" fill="#faaa8c"/></g><g><path d="m497 512h-120c-8.284 0-15-6.716-15-15v-20c0-41.355 33.645-75 75-75s75 33.645 75 75v20c0 8.284-6.716 15-15 15z" fill="#00ff93"/><path d="m497 512c8.284 0 15-6.716 15-15v-20c0-41.355-33.645-75-75-75v110z" fill="#00a763"/><path d="m437 432c-30.327 0-55-24.673-55-55s24.673-55 55-55 55 24.673 55 55-24.673 55-55 55z" fill="#ffc3aa"/><path d="m492 377c0-30.327-24.673-55-55-55v110c30.327 0 55-24.673 55-55z" fill="#faaa8c"/></g><g><path d="m321 170h-130c-8.284 0-15 6.716-15 15v77c0 8.284 6.716 15 15 15h130c8.284 0 15-6.716 15-15v-77c0-8.284-6.716-15-15-15z" fill="#45f6ff"/><path d="m321 170h-65v107h65c8.284 0 15-6.716 15-15v-77c0-8.284-6.716-15-15-15z" fill="#2ebeef"/><path d="m256 262c-8.284 0-15 6.716-15 15v55h30v-55c0-8.284-6.716-15-15-15z" fill="#453d81"/><path d="m271 332v-55c0-8.284-6.716-15-15-15v70z" fill="#2e2654"/><path d="m321 292h-130c-8.284 0-15-6.716-15-15v-15h160v15c0 8.284-6.716 15-15 15z" fill="#5e54ac"/><path d="m256 292h65c8.284 0 15-6.716 15-15v-15h-80z" fill="#453d81"/><path d="m286 347h-60c-8.284 0-15-6.716-15-15s6.716-15 15-15h60c8.284 0 15 6.716 15 15s-6.716 15-15 15z" fill="#5e54ac"/><path d="m286 317h-30v30h30c8.284 0 15-6.716 15-15s-6.716-15-15-15z" fill="#453d81"/></g></g></svg>