<svg id="Capa_1" enable-background="new 0 0 512 512" height="512" viewBox="0 0 512 512" width="512" xmlns="http://www.w3.org/2000/svg"><g><g><path d="m467 270h-280c-24.813 0-45-20.187-45-45v-150c0-8.284 6.716-15 15-15h340c8.284 0 15 6.716 15 15v150c0 24.813-20.187 45-45 45z" fill="#e1f0ff"/><path d="m497 60h-170v210h140c24.813 0 45-20.187 45-45v-150c0-8.284-6.716-15-15-15z" fill="#bedcf0"/><path d="m467 0h-220c-8.284 0-15 6.716-15 15v45c0 8.284 6.716 15 15 15h265v-30c0-24.853-20.147-45-45-45z" fill="#453d81"/><path d="m187 0c-24.853 0-45 20.147-45 45v30h105v-75z" fill="#ffe278"/><path d="m467 0h-140v75h185v-30c0-24.813-20.187-45-45-45z" fill="#2e2654"/></g><g><path d="m396 391h-280c-24.813 0-45-20.187-45-45v-150c0-8.284 6.716-15 15-15h340c8.284 0 15 6.716 15 15v150c0 24.813-20.187 45-45 45z" fill="#bedcf0"/><path d="m426 181h-170v210h140c24.813 0 45-20.187 45-45v-150c0-8.284-6.716-15-15-15z" fill="#8fbfdd"/><path d="m396 121h-220c-8.284 0-15 6.716-15 15v45c0 8.284 6.716 15 15 15h265v-30c0-24.853-20.147-45-45-45z" fill="#453d81"/><path d="m116 121c-24.853 0-45 20.147-45 45v30h105v-75z" fill="#ffe278"/><path d="m396 121h-140v75h185v-30c0-24.813-20.187-45-45-45z" fill="#2e2654"/></g><g><path d="m325 512h-280c-24.813 0-45-20.187-45-45v-150c0-8.284 6.716-15 15-15h340c8.284 0 15 6.716 15 15v150c0 24.813-20.187 45-45 45z" fill="#e1f0ff"/><path d="m355 302h-170v210h140c24.813 0 45-20.187 45-45v-150c0-8.284-6.716-15-15-15z" fill="#bedcf0"/><path d="m155 452h-80c-8.284 0-15-6.716-15-15v-60c0-8.284 6.716-15 15-15h80c8.284 0 15 6.716 15 15v60c0 8.284-6.716 15-15 15z" fill="#ff6378"/><g fill="#453d81"><path d="m295 392h-60c-8.284 0-15-6.716-15-15s6.716-15 15-15h60c8.284 0 15 6.716 15 15s-6.716 15-15 15z"/><path d="m295 452h-60c-8.284 0-15-6.716-15-15s6.716-15 15-15h60c8.284 0 15 6.716 15 15s-6.716 15-15 15z"/><path d="m325 242h-220c-8.284 0-15 6.716-15 15v45c0 8.284 6.716 15 15 15h265v-30c0-24.853-20.147-45-45-45z"/></g><path d="m45 242c-24.853 0-45 20.147-45 45v30h105v-75z" fill="#ffe278"/><path d="m325 242h-140v75h185v-30c0-24.813-20.187-45-45-45z" fill="#2e2654"/></g></g></svg>