<svg id="Capa_1" enable-background="new 0 0 512 512" height="512" viewBox="0 0 512 512" width="512" xmlns="http://www.w3.org/2000/svg"><g><circle cx="256" cy="256" fill="#e1f0ff" r="211"/><path d="m467 256c0-116.532-94.468-211-211-211v422c116.532 0 211-94.468 211-211z" fill="#bedcf0"/><path d="m256 482c-60.367 0-117.121-23.508-159.806-66.194s-66.194-99.439-66.194-159.806 23.508-117.121 66.194-159.806 99.439-66.194 159.806-66.194 117.121 23.508 159.806 66.194 66.194 99.439 66.194 159.806-23.508 117.121-66.194 159.806-99.439 66.194-159.806 66.194zm0-422c-108.075 0-196 87.925-196 196s87.925 196 196 196 196-87.925 196-196-87.925-196-196-196z" fill="#5e54ac"/><path d="m452 256c0 108.075-87.925 196-196 196v30c60.367 0 117.121-23.508 159.806-66.194s66.194-99.439 66.194-159.806-23.508-117.121-66.194-159.806-99.439-66.194-159.806-66.194v30c108.075 0 196 87.925 196 196z" fill="#453d81"/><path d="m256 191c-74.439 0-135 60.561-135 135h270c0-74.439-60.561-135-135-135z" fill="#ff6378"/><path d="m391 326c0-74.439-60.561-135-135-135v135z" fill="#d0004f"/><path d="m118.217 225.394c-3.407 0-6.832-1.154-9.644-3.518-6.342-5.331-7.162-14.792-1.832-21.134 37.253-44.322 91.656-69.742 149.259-69.742s112.006 25.42 149.258 69.741c5.33 6.342 4.51 15.804-1.832 21.134s-15.803 4.51-21.134-1.832c-31.538-37.522-77.569-59.043-126.292-59.043-48.722 0-94.754 21.521-126.292 59.045-2.967 3.529-7.215 5.349-11.491 5.349z" fill="#ff6378"/><path d="m382.292 220.044c5.331 6.341 14.792 7.161 21.134 1.832 6.342-5.331 7.162-14.792 1.832-21.134-37.252-44.322-91.655-69.742-149.258-69.742v30c48.723 0 94.754 21.521 126.292 59.044z" fill="#d0004f"/><path d="m329.534 123.966c-7.782-2.835-16.392 1.18-19.226 8.965l-68.403 187.939 28.19 10.261 68.404-187.938c2.834-7.786-1.18-16.394-8.965-19.227z" fill="#5e54ac"/><path d="m329.534 123.966c-7.782-2.835-16.392 1.18-19.226 8.965l-54.308 149.212v43.857l14.095 5.13 68.404-187.938c2.834-7.785-1.18-16.393-8.965-19.226z" fill="#453d81"/><path d="m396 341h-280c-8.284 0-15-6.716-15-15s6.716-15 15-15h280c8.284 0 15 6.716 15 15s-6.716 15-15 15z" fill="#5e54ac"/><path d="m396 311h-140v30h140c8.284 0 15-6.716 15-15s-6.716-15-15-15z" fill="#453d81"/><circle cx="311" cy="381" fill="#ffb454" r="15"/><circle cx="256" cy="381" fill="#00ff93" r="15"/><circle cx="201" cy="381" fill="#ff6378" r="15"/><path d="m271 381c0-8.284-6.716-15-15-15v30c8.284 0 15-6.716 15-15z" fill="#00a763"/><g><path d="m256 90c-24.813 0-45-20.187-45-45s20.187-45 45-45 45 20.187 45 45-20.187 45-45 45z" fill="#ffe278"/><path d="m301 45c0-24.813-20.187-45-45-45v90c24.813 0 45-20.187 45-45z" fill="#ffb454"/></g><g><path d="m405.178 151.779c-24.813 0-45-20.187-45-45s20.187-45 45-45 45 20.187 45 45-20.187 45-45 45z" fill="#ffe278"/><path d="m450.178 106.779c0-24.813-20.187-45-45-45v90c24.813 0 45-20.187 45-45z" fill="#ffb454"/></g><g><path d="m467 301c-24.813 0-45-20.187-45-45s20.187-45 45-45 45 20.187 45 45-20.187 45-45 45z" fill="#ffe278"/><path d="m512 256c0-24.813-20.187-45-45-45v90c24.813 0 45-20.187 45-45z" fill="#ffb454"/></g><g><path d="m405.221 450.178c-24.813 0-45-20.187-45-45s20.187-45 45-45 45 20.187 45 45-20.187 45-45 45z" fill="#ffe278"/><path d="m450.221 405.178c0-24.813-20.187-45-45-45v90c24.813 0 45-20.187 45-45z" fill="#ffb454"/></g><g><path d="m106.822 450.178c-24.813 0-45-20.187-45-45s20.187-45 45-45 45 20.187 45 45-20.187 45-45 45z" fill="#ffe278"/><path d="m151.822 405.178c0-24.813-20.187-45-45-45v90c24.813 0 45-20.187 45-45z" fill="#ffb454"/></g><g><path d="m45 301c-24.813 0-45-20.187-45-45s20.187-45 45-45 45 20.187 45 45-20.187 45-45 45z" fill="#ffe278"/><path d="m90 256c0-24.813-20.187-45-45-45v90c24.813 0 45-20.187 45-45z" fill="#ffb454"/></g><g><path d="m106.779 151.822c-24.813 0-45-20.187-45-45s20.187-45 45-45 45 20.187 45 45-20.187 45-45 45z" fill="#ffe278"/><path d="m151.779 106.822c0-24.813-20.187-45-45-45v90c24.813 0 45-20.187 45-45z" fill="#ffb454"/></g><path d="m256 512c-24.813 0-45-20.187-45-45s20.187-45 45-45 45 20.187 45 45-20.187 45-45 45z" fill="#ffe278"/><path d="m301 467c0-24.813-20.187-45-45-45v90c24.813 0 45-20.187 45-45z" fill="#ffb454"/></g></svg>