<svg id="Capa_1" enable-background="new 0 0 512 512" height="512" viewBox="0 0 512 512" width="512" xmlns="http://www.w3.org/2000/svg"><g><path d="m201 349.031v87.969c0 8.284 6.716 15 15 15h80c8.284 0 15-6.716 15-15v-88.104z" fill="#bedcf0"/><path d="m256 452h40c8.284 0 15-6.716 15-15v-88.104l-55 .068z" fill="#8fbfdd"/><path d="m366 512h-220c-8.284 0-15-6.716-15-15v-20c0-30.327 24.673-55 55-55h140c30.327 0 55 24.673 55 55v20c0 8.284-6.716 15-15 15z" fill="#ff6378"/><path d="m326 422h-70v90h110c8.284 0 15-6.716 15-15v-20c0-30.327-24.673-55-55-55z" fill="#d0004f"/><path d="m381 185v30c0 68.925-56.075 125-125 125s-125-56.075-125-125v-30h-30v30c0 85.468 69.533 155 155 155s155-69.532 155-155v-30z" fill="#453d81"/><path d="m411 215v-30h-30v30c0 68.925-56.075 125-125 125v30c85.467 0 155-69.532 155-155z" fill="#2e2654"/><path d="m426 200h-90c-8.284 0-15-6.716-15-15s6.716-15 15-15h90c8.284 0 15 6.716 15 15s-6.716 15-15 15z" fill="#453d81"/><path d="m176 200h-90c-8.284 0-15-6.716-15-15s6.716-15 15-15h90c8.284 0 15 6.716 15 15s-6.716 15-15 15z" fill="#5e54ac"/><path d="m256 310c-52.383 0-95-42.617-95-95v-120c0-52.383 42.617-95 95-95s95 42.617 95 95v120c0 52.383-42.617 95-95 95z" fill="#e1f0ff"/><path d="m351 215v-120c0-52.383-42.617-95-95-95v310c52.383 0 95-42.617 95-95z" fill="#bedcf0"/><path d="m351 170h-55c-8.284 0-15-6.716-15-15 0-8.284 6.716-15 15-15h55z" fill="#8fbfdd"/><path d="m216 170h-55v-30h55c8.284 0 15 6.716 15 15 0 8.284-6.716 15-15 15z" fill="#bedcf0"/><path d="m296 80c-8.284 0-15 6.716-15 15s6.716 15 15 15h55v-15c0-5.104-.41-10.112-1.188-15z" fill="#8fbfdd"/><path d="m281 215c0 8.284 6.716 15 15 15h53.812c.779-4.888 1.188-9.896 1.188-15v-15h-55c-8.284 0-15 6.716-15 15z" fill="#8fbfdd"/><g fill="#bedcf0"><path d="m231 95c0-8.284-6.716-15-15-15h-53.812c-.778 4.888-1.188 9.896-1.188 15v15h55c8.284 0 15-6.716 15-15z"/><path d="m231 215c0-8.284-6.716-15-15-15h-55v15c0 5.104.41 10.112 1.188 15h53.812c8.284 0 15-6.716 15-15z"/><path d="m396 120c-8.284 0-15-6.716-15-15v-40c0-8.284 6.716-15 15-15s15 6.716 15 15v40c0 8.284-6.716 15-15 15z"/><path d="m456 150c-8.284 0-15-6.716-15-15v-100c0-8.284 6.716-15 15-15s15 6.716 15 15v100c0 8.284-6.716 15-15 15z"/></g><path d="m116 120c-8.284 0-15-6.716-15-15v-40c0-8.284 6.716-15 15-15s15 6.716 15 15v40c0 8.284-6.716 15-15 15z" fill="#e1f0ff"/><path d="m56 150c-8.284 0-15-6.716-15-15v-100c0-8.284 6.716-15 15-15s15 6.716 15 15v100c0 8.284-6.716 15-15 15z" fill="#e1f0ff"/></g></svg>