<svg id="Capa_1" enable-background="new 0 0 512 512" height="512" viewBox="0 0 512 512" width="512" xmlns="http://www.w3.org/2000/svg"><g><path d="m16 20h480v300h-480z" fill="#e1f0ff"/><path d="m256 20h240v300h-240z" fill="#bedcf0"/><path d="m441 75v45c0 8.284-6.716 15-15 15h-105v24.555c0 5.309-2.578 10.399-7.093 13.192-2.445 1.513-5.186 2.253-7.906 2.253-3.345 0-6.66-1.117-9.372-3.287l-40.629-32.504-40.35 32.28c-3.774 3.019-8.758 4.264-13.43 3.03-6.735-1.778-11.22-7.802-11.22-14.519v-25h-105c-8.284 0-15-6.716-15-15v-45c0-8.284 6.716-15 15-15h340c8.284 0 15 6.716 15 15z" fill="#ff6378"/><path d="m426 60h-170v79.209l40.63 32.503c2.712 2.17 6.027 3.288 9.372 3.287 2.72 0 5.46-.739 7.906-2.253 4.514-2.793 7.093-7.883 7.093-13.192v-24.554h105c8.284 0 15-6.716 15-15v-45c-.001-8.284-6.717-15-15.001-15z" fill="#d0004f"/><g><path d="m186 330h-120c-8.284 0-15-6.716-15-15v-5c0-41.355 33.645-75 75-75s75 33.645 75 75v5c0 8.284-6.716 15-15 15z" fill="#8bb9ff"/><path d="m126 235v95h60c8.284 0 15-6.716 15-15v-5c0-41.355-33.645-75-75-75z" fill="#4793ff"/><path d="m126 255c-27.57 0-50-22.43-50-50s22.43-50 50-50 50 22.43 50 50-22.43 50-50 50z" fill="#ffc3aa"/><path d="m126 155v100c27.57 0 50-22.43 50-50s-22.43-50-50-50z" fill="#faaa8c"/></g><g><path d="m446 330h-120c-8.284 0-15-6.716-15-15v-5c0-41.355 33.645-75 75-75s75 33.645 75 75v5c0 8.284-6.716 15-15 15z" fill="#ff6378"/><path d="m386 235v95h60c8.284 0 15-6.716 15-15v-5c0-41.355-33.645-75-75-75z" fill="#d0004f"/><path d="m386 255c-27.57 0-50-22.43-50-50s22.43-50 50-50 50 22.43 50 50-22.43 50-50 50z" fill="#ffc3aa"/><path d="m386 155v100c27.57 0 50-22.43 50-50s-22.43-50-50-50z" fill="#faaa8c"/></g><path d="m367.713 487.629-8.765-10.957c-18.023-22.527-27.948-50.822-27.948-79.672 0-8.284-6.716-15-15-15h-120c-8.284 0-15 6.716-15 15 0 28.85-9.925 57.145-27.948 79.673l-8.765 10.956c-3.602 4.503-4.304 10.671-1.807 15.869h227.04c2.497-5.197 1.795-11.366-1.807-15.869z" fill="#453d81"/><path d="m358.948 476.673c-18.023-22.528-27.948-50.823-27.948-79.673 0-8.284-6.716-15-15-15h-60v121.498h113.52c2.498-5.197 1.795-11.366-1.807-15.869z" fill="#2e2654"/><path d="m396 512h-280c-8.284 0-15-6.716-15-15s6.716-15 15-15h280c8.284 0 15 6.716 15 15s-6.716 15-15 15z" fill="#5e54ac"/><path d="m396 482h-140v30h140c8.284 0 15-6.716 15-15s-6.716-15-15-15z" fill="#453d81"/><path d="m467 0h-422c-24.813 0-45 20.187-45 45v322c0 24.813 20.187 45 45 45h422c24.813 0 45-20.187 45-45v-322c0-24.813-20.187-45-45-45zm15 310h-452v-265c0-8.271 6.729-15 15-15h422c8.271 0 15 6.729 15 15z" fill="#5e54ac"/><path d="m467 0h-211v30h211c8.271 0 15 6.729 15 15v265h-226v102h211c24.813 0 45-20.187 45-45v-322c0-24.813-20.187-45-45-45z" fill="#453d81"/></g></svg>