<svg id="Capa_1" enable-background="new 0 0 512 512" height="512" viewBox="0 0 512 512" width="512" xmlns="http://www.w3.org/2000/svg"><g><path d="m467 512h-422c-24.813 0-45-20.187-45-45v-422c0-24.813 20.187-45 45-45h422c24.813 0 45 20.187 45 45v422c0 24.813-20.187 45-45 45z" fill="#8bb9ff"/><path d="m467 0h-211v512h211c24.813 0 45-20.187 45-45v-422c0-24.813-20.187-45-45-45z" fill="#4793ff"/><path d="m186 451h-100c-19.33 0-35-15.67-35-35v-320c0-19.33 15.67-35 35-35h100c19.33 0 35 15.67 35 35v320c0 19.33-15.67 35-35 35z" fill="#e1f0ff"/><path d="m426 311h-100c-19.33 0-35-15.67-35-35v-180c0-19.33 15.67-35 35-35h100c19.33 0 35 15.67 35 35v180c0 19.33-15.67 35-35 35z" fill="#bedcf0"/></g></svg>