<svg id="Capa_1" enable-background="new 0 0 512 512" height="512" viewBox="0 0 512 512" width="512" xmlns="http://www.w3.org/2000/svg"><g><path d="m276 121c-24.813 0-45-20.187-45-45s20.187-45 45-45 45 20.187 45 45-20.187 45-45 45zm0-60c-8.271 0-15 6.729-15 15s6.729 15 15 15 15-6.729 15-15-6.729-15-15-15z" fill="#ffb454"/><path d="m291 76c0 8.271-6.729 15-15 15v30c24.813 0 45-20.187 45-45s-20.187-45-45-45v30c8.271 0 15 6.729 15 15z" fill="#ec8600"/><path d="m457 151h-342-60c-30.327 0-55 24.673-55 55v220c0 30.327 24.673 55 55 55h60 342c30.327 0 55-24.673 55-55v-220c0-30.327-24.673-55-55-55z" fill="#e1f0ff"/><path d="m457 151h-181v330h181c30.327 0 55-24.673 55-55v-220c0-30.327-24.673-55-55-55z" fill="#bedcf0"/><path d="m130 181h292v270h-292z" fill="#45f6ff"/><path d="m276 181h146v270h-146z" fill="#2ebeef"/><path d="m276 381c-24.813 0-45-20.187-45-45v-30c0-8.284 6.716-15 15-15h60c8.284 0 15 6.716 15 15v30c0 24.813-20.187 45-45 45z" fill="#ffb454"/><path d="m306 291h-30v90c24.813 0 45-20.187 45-45v-30c0-8.284-6.716-15-15-15z" fill="#ec8600"/><g fill="#5e54ac"><path d="m65 361c-8.284 0-15-6.716-15-15v-60c0-8.284 6.716-15 15-15s15 6.716 15 15v60c0 8.284-6.716 15-15 15z"/><circle cx="65" cy="226" r="15"/><circle cx="65" cy="406" r="15"/></g><path d="m376 321h-200c-5.682 0-10.875-3.21-13.417-8.292-2.541-5.082-1.993-11.163 1.417-15.708 17.411-23.215 27-51.981 27-81v-40c0-46.869 38.131-85 85-85s85 38.131 85 85v40c0 29.019 9.589 57.786 27 81 3.409 4.545 3.957 10.626 1.416 15.708-2.54 5.082-7.734 8.292-13.416 8.292z" fill="#ffe278"/><path d="m376 321c5.682 0 10.876-3.21 13.416-8.292 2.541-5.082 1.993-11.163-1.416-15.708-17.411-23.214-27-51.981-27-81v-40c0-46.869-38.131-85-85-85v230z" fill="#ffb454"/><path d="m183.203 261h185.594c-3.427-9.696-5.766-19.771-6.927-30h-171.74c-1.16 10.229-3.5 20.304-6.927 30z" fill="#ffb454"/><path d="m276 261h92.797c-3.427-9.696-5.766-19.771-6.927-30h-85.87z" fill="#ec8600"/></g></svg>