<svg id="Capa_1" enable-background="new 0 0 512 512" height="512" viewBox="0 0 512 512" width="512" xmlns="http://www.w3.org/2000/svg"><g><path d="m467 392h-422c-24.813 0-45-20.187-45-45v-212c0-8.284 6.716-15 15-15h482c8.284 0 15 6.716 15 15v212c0 24.813-20.187 45-45 45z" fill="#e1f0ff"/><path d="m497 120h-241v272h211c24.813 0 45-20.187 45-45v-212c0-8.284-6.716-15-15-15z" fill="#bedcf0"/><path d="m467 0h-422c-24.813 0-45 20.187-45 45v90h512v-90c0-24.813-20.187-45-45-45z" fill="#5e54ac"/><path d="m467 0h-211v135h256v-90c0-24.813-20.187-45-45-45z" fill="#453d81"/><path d="m436 182h-280c-8.284 0-15 6.716-15 15v260l-40 55h305c24.853 0 45-20.147 45-45v-270c0-8.284-6.716-15-15-15z" fill="#ffe278"/><path d="m436 182h-140v330h110c24.853 0 45-20.147 45-45v-270c0-8.284-6.716-15-15-15z" fill="#ffb454"/><g fill="#5e54ac"><path d="m376 332h-160c-8.284 0-15-6.716-15-15v-60c0-8.284 6.716-15 15-15h160c8.284 0 15 6.716 15 15v60c0 8.284-6.716 15-15 15z"/><path d="m376 392h-160c-8.284 0-15-6.716-15-15s6.716-15 15-15h160c8.284 0 15 6.716 15 15s-6.716 15-15 15z"/><path d="m376 452h-160c-8.284 0-15-6.716-15-15s6.716-15 15-15h160c8.284 0 15 6.716 15 15s-6.716 15-15 15z"/></g><path d="m376 242h-80v90h80c8.284 0 15-6.716 15-15v-60c0-8.284-6.716-15-15-15z" fill="#453d81"/><path d="m376 362h-80v30h80c8.284 0 15-6.716 15-15s-6.716-15-15-15z" fill="#453d81"/><path d="m376 422h-80v30h80c8.284 0 15-6.716 15-15s-6.716-15-15-15z" fill="#453d81"/><circle cx="76" cy="67.5" fill="#ff6378" r="15"/><circle cx="136" cy="67.5" fill="#00ff93" r="15"/><circle cx="196" cy="67.5" fill="#ffe278" r="15"/><path d="m61 472v-175c0-8.284 6.716-15 15-15h65v190c0 22.091-17.909 40-40 40-22.091 0-40-17.909-40-40z" fill="#ffb454"/></g></svg>