<svg id="Capa_1" enable-background="new 0 0 512 512" height="512" viewBox="0 0 512 512" width="512" xmlns="http://www.w3.org/2000/svg"><g><path d="m437 352c-8.284 0-15-6.716-15-15 0-33.943-16.544-65.965-44.256-85.657-6.753-4.798-8.338-14.163-3.539-20.916 4.801-6.753 14.163-8.336 20.916-3.538 35.616 25.308 56.879 66.471 56.879 110.111 0 8.284-6.716 15-15 15z" fill="#453d81"/><path d="m75 352c-8.284 0-15-6.716-15-15 0-43.639 21.263-84.802 56.878-110.111 6.752-4.799 16.118-3.215 20.916 3.538 4.799 6.753 3.215 16.117-3.538 20.916-27.712 19.693-44.256 51.714-44.256 85.657 0 8.284-6.716 15-15 15z" fill="#5e54ac"/><circle cx="256" cy="165" fill="#d5e7ff" r="150"/><path d="m406 165c0-82.843-67.157-150-150-150v300c82.843 0 150-67.157 150-150z" fill="#8bb9ff"/><path d="m256 0c-90.981 0-165 74.019-165 165s74.019 165 165 165 165-74.019 165-165-74.019-165-165-165zm118.288 100h-35.29c-3.954-17.509-9.508-33.691-16.549-47.774-1.141-2.281-2.315-4.487-3.516-6.628 23.325 12.343 42.62 31.318 55.355 54.402zm16.712 65c0 12.102-1.61 23.833-4.61 35h-42.362c1.288-11.38 1.973-23.093 1.973-35s-.684-23.62-1.973-35h42.362c3 11.167 4.61 22.898 4.61 35zm-270 0c0-12.102 1.61-23.833 4.61-35h42.362c-1.288 11.38-1.973 23.093-1.973 35s.684 23.62 1.973 35h-42.362c-3-11.167-4.61-22.898-4.61-35zm75 0c0-12.28.755-23.984 2.134-35h42.866v70h-42.866c-1.379-11.016-2.134-22.72-2.134-35zm75-130.075c14.822 9.605 28.865 32.774 37.205 65.075h-37.205zm-30 0v65.075h-37.205c8.34-32.301 22.383-55.47 37.205-65.075zm0 195.075v65.075c-14.822-9.605-28.865-32.774-37.205-65.075zm30 65.075v-65.075h37.205c-8.34 32.301-22.383 55.47-37.205 65.075zm0-95.075v-70h42.866c1.379 11.016 2.134 22.72 2.134 35s-.755 23.984-2.134 35zm-77.933-154.402c-1.201 2.141-2.376 4.347-3.516 6.628-7.042 14.084-12.595 30.265-16.55 47.774h-35.29c12.736-23.084 32.031-42.059 55.356-54.402zm-55.355 184.402h35.29c3.954 17.509 9.508 33.691 16.55 47.774 1.141 2.281 2.315 4.487 3.516 6.628-23.326-12.343-42.621-31.318-55.356-54.402zm181.221 54.402c1.201-2.141 2.375-4.347 3.516-6.628 7.042-14.084 12.595-30.265 16.549-47.774h35.29c-12.735 23.084-32.03 42.059-55.355 54.402z" fill="#8bb9ff"/><path d="m421 165c0-90.981-74.019-165-165-165v330c90.981 0 165-74.019 165-165zm-30 0c0 12.102-1.61 23.833-4.61 35h-42.362c1.288-11.38 1.973-23.093 1.973-35s-.684-23.62-1.973-35h42.362c3 11.167 4.61 22.898 4.61 35zm-16.712-65h-35.29c-3.954-17.509-9.508-33.691-16.549-47.774-1.141-2.281-2.315-4.487-3.516-6.628 23.325 12.343 42.62 31.318 55.355 54.402zm-51.839 177.774c7.042-14.084 12.595-30.265 16.549-47.774h35.29c-12.735 23.084-32.03 42.059-55.355 54.402 1.202-2.141 2.376-4.346 3.516-6.628zm-51.449-242.849c14.822 9.605 28.865 32.774 37.205 65.075h-37.205zm0 95.075h42.866c1.379 11.016 2.134 22.72 2.134 35s-.755 23.984-2.134 35h-42.866zm0 100h37.205c-8.34 32.301-22.383 55.47-37.205 65.075z" fill="#4793ff"/><g><path d="m135 512h-120c-8.284 0-15-6.716-15-15v-20c0-41.355 33.645-75 75-75s75 33.645 75 75v20c0 8.284-6.716 15-15 15z" fill="#8bb9ff"/><path d="m135 512c8.284 0 15-6.716 15-15v-20c0-41.355-33.645-75-75-75v110z" fill="#4793ff"/><path d="m75 432c-30.327 0-55-24.673-55-55s24.673-55 55-55 55 24.673 55 55-24.673 55-55 55z" fill="#ffc3aa"/><path d="m130 377c0-30.327-24.673-55-55-55v110c30.327 0 55-24.673 55-55z" fill="#faaa8c"/></g><g><path d="m497 512h-120c-8.284 0-15-6.716-15-15v-20c0-41.355 33.645-75 75-75s75 33.645 75 75v20c0 8.284-6.716 15-15 15z" fill="#ff6378"/><path d="m497 512c8.284 0 15-6.716 15-15v-20c0-41.355-33.645-75-75-75v110z" fill="#d0004f"/><path d="m437 432c-30.327 0-55-24.673-55-55s24.673-55 55-55 55 24.673 55 55-24.673 55-55 55z" fill="#ffc3aa"/><path d="m492 377c0-30.327-24.673-55-55-55v110c30.327 0 55-24.673 55-55z" fill="#faaa8c"/></g></g></svg>