<svg id="Capa_1" enable-background="new 0 0 512 512" height="512" viewBox="0 0 512 512" width="512" xmlns="http://www.w3.org/2000/svg"><g><g><path d="m16 20h480v300h-480z" fill="#e1f0ff"/><path d="m256 20h240v300h-240z" fill="#bedcf0"/><path d="m367.713 487.629-8.765-10.957c-18.023-22.527-27.948-50.822-27.948-79.672 0-8.284-6.716-15-15-15h-120c-8.284 0-15 6.716-15 15 0 28.85-9.925 57.145-27.948 79.673l-8.765 10.956c-3.602 4.503-4.304 10.671-1.807 15.869h227.04c2.497-5.197 1.795-11.366-1.807-15.869z" fill="#453d81"/><path d="m358.948 476.673c-18.023-22.528-27.948-50.823-27.948-79.673 0-8.284-6.716-15-15-15h-60v121.498h113.52c2.498-5.197 1.795-11.366-1.807-15.869z" fill="#2e2654"/><path d="m396 512h-280c-8.284 0-15-6.716-15-15s6.716-15 15-15h280c8.284 0 15 6.716 15 15s-6.716 15-15 15z" fill="#5e54ac"/><path d="m396 482h-140v30h140c8.284 0 15-6.716 15-15s-6.716-15-15-15z" fill="#453d81"/><path d="m467 0h-422c-24.813 0-45 20.187-45 45v322c0 24.813 20.187 45 45 45h422c24.813 0 45-20.187 45-45v-322c0-24.813-20.187-45-45-45zm15 310h-452v-265c0-8.271 6.729-15 15-15h422c8.271 0 15 6.729 15 15z" fill="#5e54ac"/><path d="m467 0h-211v30h211c8.271 0 15 6.729 15 15v265h-226v102h211c24.813 0 45-20.187 45-45v-322c0-24.813-20.187-45-45-45z" fill="#453d81"/></g><path d="m256 281c-43.257 0-86.222-6.272-127.701-18.645-16.328-4.869-27.299-19.627-27.299-36.725v-52.963c0-14.704 11.962-26.667 26.667-26.667h58.333c14.704 0 26.667 11.963 26.667 26.667v14.844c17.507 9.456 34.297 10.989 43.333 10.989 18.643 0 33.633-5.802 43.333-11.01v-14.823c0-14.704 11.963-26.667 26.667-26.667h58.333c14.705 0 26.667 11.963 26.667 26.667v52.943c0 16.843-11.249 31.96-27.355 36.763-41.454 12.359-84.399 18.627-127.645 18.627z" fill="#ff6378"/><path d="m301.606 100.394c-5.857-5.857-15.355-5.857-21.213 0l-9.393 9.393v-43.787c0-8.284-6.716-15-15-15s-15 6.716-15 15v43.787l-9.394-9.394c-5.857-5.857-15.355-5.857-21.213 0s-5.858 15.355 0 21.213l35 35c2.929 2.929 6.768 4.394 10.607 4.394s7.678-1.465 10.606-4.394l35-35c5.858-5.857 5.858-15.355 0-21.212z" fill="#5e54ac"/><path d="m383.645 262.373c16.106-4.803 27.355-19.92 27.355-36.763v-52.943c0-14.704-11.962-26.667-26.667-26.667h-58.333c-14.704 0-26.667 11.963-26.667 26.667v14.823c-9.7 5.208-24.691 11.01-43.333 11.01v82.5c43.246 0 86.191-6.268 127.645-18.627z" fill="#d0004f"/><path d="m266.606 156.606 35-35c5.858-5.857 5.858-15.355 0-21.213-5.857-5.857-15.355-5.857-21.213 0l-9.393 9.394v-43.787c0-8.284-6.716-15-15-15v110c3.839 0 7.678-1.465 10.606-4.394z" fill="#453d81"/></g></svg>