<svg id="Capa_1" enable-background="new 0 0 512 512" height="512" viewBox="0 0 512 512" width="512" xmlns="http://www.w3.org/2000/svg"><g><path d="m437 391h-362c-24.813 0-45-20.187-45-45v-260c0-24.813 20.187-45 45-45h362c24.813 0 45 20.187 45 45v260c0 24.813-20.187 45-45 45z" fill="#453d81"/><path d="m437 41h-181v350h181c24.813 0 45-20.187 45-45v-260c0-24.813-20.187-45-45-45z" fill="#2e2654"/><path d="m75 71c-8.271 0-15 6.729-15 15v260c0 8.271 6.729 15 15 15h362c8.271 0 15-6.729 15-15v-260c0-8.271-6.729-15-15-15z" fill="#e1f0ff"/><path d="m437 71h-181v290h181c8.271 0 15-6.729 15-15v-260c0-8.271-6.729-15-15-15z" fill="#bedcf0"/><path d="m256 271c-57.897 0-105 47.103-105 105v35h210v-35c0-57.897-47.103-105-105-105z" fill="#8bb9ff"/><path d="m361 411v-35c0-57.897-47.103-105-105-105v140z" fill="#4793ff"/><path d="m256 291c-38.598 0-70-31.402-70-70s31.402-70 70-70 70 31.402 70 70-31.402 70-70 70z" fill="#ffc3aa"/><path d="m326 221c0-38.598-31.402-70-70-70v140c38.598 0 70-31.402 70-70z" fill="#faaa8c"/><path d="m361 251h-85c-8.284 0-15-6.716-15-15s6.716-15 15-15h70c0-49.626-40.374-90-90-90s-90 40.374-90 90v5c0 8.284-6.716 15-15 15s-15-6.716-15-15v-5c0-66.168 53.832-120 120-120s120 53.832 120 120v15c0 8.284-6.716 15-15 15z" fill="#5e54ac"/><path d="m346 221h-70c-8.284 0-15 6.716-15 15s6.716 15 15 15h85c8.284 0 15-6.716 15-15v-15c0-66.168-53.832-120-120-120v30c49.626 0 90 40.374 90 90z" fill="#453d81"/><path d="m447 471h-382c-35.841 0-65-29.159-65-65v-30c0-8.284 6.716-15 15-15h171c5.015 0 9.699 2.506 12.481 6.68l15.547 23.32h83.944l15.547-23.32c2.782-4.173 7.466-6.68 12.481-6.68h171c8.284 0 15 6.716 15 15v30c0 35.841-29.159 65-65 65z" fill="#5e54ac"/><path d="m497 361h-171c-5.015 0-9.699 2.506-12.481 6.68l-15.547 23.32h-41.972v80h191c35.841 0 65-29.159 65-65v-30c0-8.284-6.716-15-15-15z" fill="#453d81"/></g></svg>