<svg id="Capa_1" enable-background="new 0 0 512 512" height="512" viewBox="0 0 512 512" width="512" xmlns="http://www.w3.org/2000/svg"><g><path d="m336 180h-160c-30.327 0-55-24.673-55-55 0-23.097 14.517-43.191 35.105-51.226-.07-1.259-.105-2.517-.105-3.774 0-38.598 31.402-70 70-70 19.849 0 38.714 8.599 51.859 23.086 19.528-6.844 41.803-2.206 57.031 13.023 9.665 9.665 15.239 22.564 15.974 35.931 23.128 6.501 40.136 27.782 40.136 52.96 0 30.327-24.673 55-55 55z" fill="#e1f0ff"/><path d="m350.864 72.04c-.734-13.366-6.309-26.266-15.974-35.931-15.229-15.229-37.503-19.867-57.031-13.023-6.182-6.813-13.64-12.303-21.859-16.23v173.144h80c30.327 0 55-24.673 55-55 0-25.178-17.008-46.459-40.136-52.96z" fill="#bedcf0"/><path d="m366 442h-220c-24.813 0-45-20.187-45-45v-140c0-24.813 20.187-45 45-45h220c24.813 0 45 20.187 45 45v140c0 24.813-20.187 45-45 45z" fill="#453d81"/><path d="m366 212h-110v230h110c24.813 0 45-20.187 45-45v-140c0-24.813-20.187-45-45-45z" fill="#2e2654"/><path d="m146 242c-8.271 0-15 6.729-15 15v140c0 8.271 6.729 15 15 15h220c8.271 0 15-6.729 15-15v-140c0-8.271-6.729-15-15-15z" fill="#ff6378"/><path d="m366 242h-110v170h110c8.271 0 15-6.729 15-15v-140c0-8.271-6.729-15-15-15z" fill="#d0004f"/><path d="m376 512h-240c-35.841 0-65-29.159-65-65v-20c0-8.284 6.716-15 15-15h120c3.979 0 7.794 1.58 10.606 4.394l15.607 15.606h47.574l15.606-15.606c2.813-2.814 6.628-4.394 10.607-4.394h120c8.284 0 15 6.716 15 15v20c0 35.841-29.159 65-65 65z" fill="#5e54ac"/><path d="m426 412h-120c-3.979 0-7.794 1.58-10.606 4.394l-15.607 15.606h-23.787v80h120c35.841 0 65-29.159 65-65v-20c0-8.284-6.716-15-15-15z" fill="#453d81"/><path d="m275.394 306.394-4.394 4.393v-189.574l4.394 4.394c2.928 2.928 6.767 4.393 10.606 4.393s7.678-1.465 10.606-4.394c5.858-5.857 5.858-15.355 0-21.213l-30-30c-5.857-5.857-15.355-5.857-21.213 0l-30 30c-5.858 5.857-5.858 15.355 0 21.213 5.857 5.857 15.355 5.857 21.213 0l4.394-4.394v189.574l-4.394-4.394c-5.857-5.857-15.355-5.857-21.213 0s-5.858 15.355 0 21.213l30 30c2.929 2.93 6.768 4.395 10.607 4.395s7.678-1.465 10.606-4.394l30-30c5.858-5.857 5.858-15.355 0-21.213-5.857-5.857-15.355-5.857-21.212.001z" fill="#ffe278"/><path d="m266.606 357.606 30-30c5.858-5.857 5.858-15.355 0-21.213-5.857-5.857-15.355-5.857-21.213 0l-4.393 4.394v-189.574l4.394 4.394c2.928 2.928 6.767 4.393 10.606 4.393s7.678-1.465 10.606-4.394c5.858-5.857 5.858-15.355 0-21.213l-30-30c-2.928-2.928-6.767-4.393-10.606-4.393v292c3.839 0 7.678-1.465 10.606-4.394z" fill="#ffb454"/></g></svg>