<svg id="Capa_1" enable-background="new 0 0 512 512" height="512" viewBox="0 0 512 512" width="512" xmlns="http://www.w3.org/2000/svg"><g><g><path d="m16 20h480v300h-480z" fill="#ff6378"/><path d="m256 20h240v300h-240z" fill="#d0004f"/><path d="m367.713 487.629-8.765-10.957c-18.023-22.527-27.948-50.822-27.948-79.672 0-8.284-6.716-15-15-15h-120c-8.284 0-15 6.716-15 15 0 28.85-9.925 57.145-27.948 79.673l-8.765 10.956c-3.602 4.503-4.304 10.671-1.807 15.869h227.04c2.497-5.197 1.795-11.366-1.807-15.869z" fill="#453d81"/><path d="m358.948 476.673c-18.023-22.528-27.948-50.823-27.948-79.673 0-8.284-6.716-15-15-15h-60v121.498h113.52c2.498-5.197 1.795-11.366-1.807-15.869z" fill="#2e2654"/><path d="m396 512h-280c-8.284 0-15-6.716-15-15s6.716-15 15-15h280c8.284 0 15 6.716 15 15s-6.716 15-15 15z" fill="#5e54ac"/><path d="m396 482h-140v30h140c8.284 0 15-6.716 15-15s-6.716-15-15-15z" fill="#453d81"/><path d="m467 0h-422c-24.813 0-45 20.187-45 45v322c0 24.813 20.187 45 45 45h422c24.813 0 45-20.187 45-45v-322c0-24.813-20.187-45-45-45zm15 310h-452v-265c0-8.271 6.729-15 15-15h422c8.271 0 15 6.729 15 15z" fill="#5e54ac"/><path d="m467 0h-211v30h211c8.271 0 15 6.729 15 15v265h-226v102h211c24.813 0 45-20.187 45-45v-322c0-24.813-20.187-45-45-45z" fill="#453d81"/></g><path d="m145.683 265c-.044 0-.087 0-.132-.001-8.284-.071-14.941-6.845-14.87-15.128.077-8.899.156-18.819.23-29.143h-59.911c-5.307 0-10.219-2.804-12.917-7.374-2.698-4.569-2.78-10.226-.217-14.872 8.437-15.293 50.963-92.119 59.608-102.727 7.343-9.009 17.271-12.672 26.549-9.797 9.382 2.905 16.047 12.009 16.98 23.191.449 5.39.327 45.105.111 81.578h4.08c8.284 0 15 6.716 15 15s-6.716 15-15 15h-4.28c-.098 13.256-.188 23.999-.234 29.4-.072 8.242-6.774 14.872-14.997 14.873zm-49.202-74.271h34.627c.137-23.385.227-45.942.202-61.03-8.584 14.472-21.586 37.31-34.829 61.03z" fill="#e1f0ff"/><path d="m421.488 265c-.044 0-.087 0-.132-.001-8.284-.071-14.941-6.845-14.87-15.128.077-8.899.156-18.819.23-29.143h-59.911c-5.307 0-10.219-2.804-12.917-7.374-2.698-4.569-2.78-10.225-.217-14.872 8.437-15.293 50.962-92.119 59.609-102.727 7.342-9.011 17.268-12.673 26.549-9.797 9.383 2.905 16.047 12.009 16.979 23.192.449 5.389.328 45.104.111 81.577h4.081c8.284 0 15 6.716 15 15s-6.716 15-15 15h-4.281c-.098 13.256-.188 23.999-.234 29.4-.071 8.242-6.773 14.872-14.997 14.873zm-49.201-74.271h34.627c.137-23.385.226-45.941.202-61.03-8.585 14.472-21.586 37.31-34.829 61.03z" fill="#bedcf0"/><path d="m256 265c-31.251 0-56.675-25.425-56.675-56.676v-66.648c0-31.251 25.424-56.676 56.675-56.676s56.675 25.425 56.675 56.676v66.648c0 31.251-25.424 56.676-56.675 56.676zm0-150c-14.709 0-26.675 11.967-26.675 26.676v66.648c0 14.709 11.966 26.676 26.675 26.676s26.675-11.967 26.675-26.676v-66.648c0-14.709-11.966-26.676-26.675-26.676z" fill="#e1f0ff"/><path d="m282.675 141.676v66.648c0 14.709-11.966 26.676-26.675 26.676v30c31.251 0 56.675-25.425 56.675-56.676v-66.648c0-31.251-25.424-56.676-56.675-56.676v30c14.709 0 26.675 11.967 26.675 26.676z" fill="#bedcf0"/></g></svg>