<svg id="Capa_1" enable-background="new 0 0 512 512" height="512" viewBox="0 0 512 512" width="512" xmlns="http://www.w3.org/2000/svg"><g><g><path d="m348.713 466.63-8.766-10.957c-18.022-22.528-27.947-50.823-27.947-79.673 0-8.284-6.716-15-15-15h-122c-8.284 0-15 6.716-15 15 0 28.85-9.925 57.145-27.947 79.673l-8.766 10.957c-3.603 4.502-4.305 10.671-1.807 15.868h229.04c2.498-5.197 1.795-11.366-1.807-15.868z" fill="#453d81"/><path d="m339.947 455.673c-18.022-22.528-27.947-50.823-27.947-79.673 0-8.284-6.716-15-15-15h-61v121.498h114.52c2.498-5.197 1.796-11.366-1.807-15.868z" fill="#2e2654"/><path d="m427 21h-382c-24.813 0-45 20.187-45 45v280c0 24.813 20.187 45 45 45h382c24.813 0 45-20.187 45-45v-280c0-24.813-20.187-45-45-45z" fill="#5e54ac"/><path d="m427 21h-191v370h191c24.813 0 45-20.187 45-45v-280c0-24.813-20.187-45-45-45z" fill="#453d81"/><path d="m45 51h382c8.271 0 15 6.729 15 15v225h-412v-225c0-8.271 6.729-15 15-15z" fill="#ff6378"/><path d="m427 51h-191v240h206v-225c0-8.271-6.729-15-15-15z" fill="#d0004f"/><g fill="#e1f0ff"><path d="m225.606 115.394-30-30c-5.857-5.857-15.355-5.857-21.213 0s-5.858 15.355 0 21.213l4.394 4.394h-103.787c-8.284 0-15 6.716-15 15s6.716 15 15 15h103.787l-4.394 4.394c-5.858 5.857-5.858 15.355 0 21.213 2.929 2.927 6.768 4.392 10.607 4.392s7.678-1.465 10.606-4.394l30-30c5.859-5.857 5.859-15.355 0-21.212z"/><path d="m215 201h-103.787l4.394-4.394c5.858-5.857 5.858-15.355 0-21.213-5.857-5.857-15.355-5.857-21.213 0l-30 30c-5.858 5.857-5.858 15.355 0 21.213l30 30c2.928 2.929 6.767 4.394 10.606 4.394s7.678-1.465 10.606-4.394c5.858-5.857 5.858-15.355 0-21.213l-4.393-4.393h103.787c8.284 0 15-6.716 15-15s-6.716-15-15-15z"/></g></g><g><path d="m272.58 461h-177.58c-8.284 0-15 6.716-15 15s6.716 15 15 15h220z" fill="#5e54ac"/><path d="m272.58 461h-36.58v30h79z" fill="#453d81"/><path d="m467 121h-152c-24.813 0-45 20.187-45 45v230 50c0 24.813 20.187 45 45 45h152c24.813 0 45-20.187 45-45v-50-230c0-24.813-20.187-45-45-45z" fill="#e1f0ff"/><path d="m467 121h-76v370h76c24.813 0 45-20.187 45-45v-50-230c0-24.813-20.187-45-45-45z" fill="#bedcf0"/><path d="m300 201h182v195h-182z" fill="#45f6ff"/><path d="m391 201h91v195h-91z" fill="#2ebeef"/></g></g></svg>