<svg id="Capa_1" enable-background="new 0 0 512 512" height="512" viewBox="0 0 512 512" width="512" xmlns="http://www.w3.org/2000/svg"><g><path d="m450.027 306.743-148.027-134.743h-257c-24.853 0-45 20.147-45 45v240c0 8.284 6.716 15 15 15h482c8.284 0 15-6.716 15-15v-110c0-5.682-3.21-10.876-8.292-13.416z" fill="#ffe278"/><path d="m450.027 306.743-148.027-134.743h-46v300h241c8.284 0 15-6.716 15-15v-110c0-5.682-3.21-10.876-8.292-13.416z" fill="#ffb454"/><path d="m432.349 230.136c-7.9-34.23-37.951-58.136-73.079-58.136h-57.27v119.743c0 8.284 6.716 15 15 15h133.027z" fill="#bedcf0"/><g><path d="m226 247c0-8.284-6.716-15-15-15h-155c-8.284 0-15 6.716-15 15v60c0 8.284 6.716 15 15 15h45v150h124.998z" fill="#ffb454"/><path d="m131 262.001h64.999v29.999h-64.999z" fill="#e1f0ff"/><path d="m71 262h30v30h-30z" fill="#e1f0ff"/><path d="m131 322h65v150h-65z" fill="#ec8600"/></g><path d="m512 402h-45c-8.284 0-15-6.716-15-15 0-8.284 6.716-15 15-15h45z" fill="#ff6378"/><g fill="#e1f0ff"><circle cx="256" cy="134.937" r="15"/><path d="m351.459 39.478c-52.638-52.637-138.283-52.637-190.918 0-5.858 5.858-5.858 15.355 0 21.213 5.857 5.858 15.355 5.858 21.213 0 40.939-40.938 107.553-40.94 148.493 0 2.929 2.929 6.768 4.394 10.606 4.394s7.678-1.464 10.606-4.394c5.858-5.858 5.858-15.356 0-21.213z"/><path d="m202.967 81.904c-5.858 5.858-5.858 15.355 0 21.213 5.857 5.858 15.355 5.858 21.213 0 17.546-17.545 46.093-17.545 63.64 0 2.929 2.929 6.768 4.393 10.606 4.393s7.678-1.464 10.606-4.394c5.858-5.858 5.858-15.355 0-21.213-29.241-29.242-76.823-29.241-106.065.001z"/></g><path d="m407 512c-30.327 0-55-24.673-55-55s24.673-55 55-55 55 24.673 55 55-24.673 55-55 55z" fill="#453d81"/><path d="m105 512c-30.327 0-55-24.673-55-55s24.673-55 55-55 55 24.673 55 55-24.673 55-55 55z" fill="#5e54ac"/><g fill="#bedcf0"><path d="m256 0v29.986c26.888 0 53.776 10.235 74.246 30.704 2.929 2.929 6.768 4.394 10.606 4.394s7.678-1.464 10.606-4.394c5.858-5.858 5.858-15.355 0-21.213-26.318-26.318-60.888-39.477-95.458-39.477z"/><path d="m256 59.972v29.986c11.523 0 23.047 4.386 31.82 13.159 2.929 2.929 6.768 4.393 10.606 4.393s7.678-1.464 10.606-4.394c5.858-5.858 5.858-15.355 0-21.213-14.62-14.621-33.826-21.931-53.032-21.931z"/><path d="m266.607 145.543c5.858-5.858 5.858-15.355 0-21.213-2.929-2.929-6.768-4.393-10.607-4.393v30c3.839 0 7.678-1.465 10.607-4.394z"/></g></g></svg>