<svg id="Capa_1" enable-background="new 0 0 512 512" height="512" viewBox="0 0 512 512" width="512" xmlns="http://www.w3.org/2000/svg"><g><path d="m467 512h-422c-24.813 0-45-20.187-45-45v-332c0-8.284 6.716-15 15-15h482c8.284 0 15 6.716 15 15v332c0 24.813-20.187 45-45 45z" fill="#e1f0ff"/><path d="m497 120h-241v392h211c24.813 0 45-20.187 45-45v-332c0-8.284-6.716-15-15-15z" fill="#bedcf0"/><path d="m467 0h-422c-24.813 0-45 20.187-45 45v90h512v-90c0-24.813-20.187-45-45-45z" fill="#5e54ac"/><path d="m467 0h-211v135h256v-90c0-24.813-20.187-45-45-45z" fill="#453d81"/><circle cx="76" cy="67.5" fill="#ff6378" r="15"/><circle cx="136" cy="67.5" fill="#00ff93" r="15"/><circle cx="196" cy="67.5" fill="#ffe278" r="15"/><path d="m286 391h-60c-8.284 0-15-6.716-15-15v-60c0-8.284 6.716-15 15-15h60c8.284 0 15 6.716 15 15v60c0 8.284-6.716 15-15 15z" fill="#ffe278"/><path d="m286 451h-60c-8.284 0-15-6.716-15-15s6.716-15 15-15h60c8.284 0 15 6.716 15 15s-6.716 15-15 15z" fill="#5e54ac"/><path d="m166 391h-60c-8.284 0-15-6.716-15-15v-60c0-8.284 6.716-15 15-15h60c8.284 0 15 6.716 15 15v60c0 8.284-6.716 15-15 15z" fill="#45f6ff"/><path d="m166 451h-60c-8.284 0-15-6.716-15-15s6.716-15 15-15h60c8.284 0 15 6.716 15 15s-6.716 15-15 15z" fill="#5e54ac"/><path d="m406 391h-60c-8.284 0-15-6.716-15-15v-60c0-8.284 6.716-15 15-15h60c8.284 0 15 6.716 15 15v60c0 8.284-6.716 15-15 15z" fill="#d0004f"/><path d="m406 451h-60c-8.284 0-15-6.716-15-15s6.716-15 15-15h60c8.284 0 15 6.716 15 15s-6.716 15-15 15z" fill="#453d81"/><path d="m286 301h-30v90h30c8.284 0 15-6.716 15-15v-60c0-8.284-6.716-15-15-15z" fill="#ffb454"/><path d="m286 421h-30v30h30c8.284 0 15-6.716 15-15s-6.716-15-15-15z" fill="#453d81"/><g><path d="m346.001 263.5c-3.312 0-6.568-1.097-9.232-3.177-3.641-2.843-5.769-7.204-5.769-11.823v-45c0-4.619 2.128-8.98 5.769-11.823 3.641-2.842 8.388-3.85 12.869-2.729l90 22.5c6.677 1.669 11.362 7.669 11.362 14.552s-4.685 12.883-11.362 14.552l-90 22.5c-1.202.301-2.423.448-3.637.448z" fill="#faaa8c"/><path d="m156 188.5c-8.284 0-15 6.716-15 15v45c0 8.284 6.716 15 15 15h190v-75z" fill="#8bb9ff"/><path d="m256 188.5h90v75h-90z" fill="#4793ff"/><path d="m98.5 188.5c-20.711 0-37.5 16.789-37.5 37.5 0 20.711 16.789 37.5 37.5 37.5h57.5v-75z" fill="#ffe278"/></g></g></svg>