<svg id="Capa_1" enable-background="new 0 0 512 512" height="512" viewBox="0 0 512 512" width="512" xmlns="http://www.w3.org/2000/svg"><g><path d="m416 330h-320c-52.383 0-95-42.617-95-95 0-24.194 9.109-47.232 25.648-64.87 12.489-13.318 28.32-22.627 45.701-27.073-.897-6.018-1.349-12.053-1.349-18.057 0-68.925 56.075-125 125-125 22.114 0 43.846 5.875 62.847 16.99 14.113 8.255 26.503 19.247 36.416 32.222 35.766-17.047 79.128-10.171 107.912 18.613 19.389 19.389 29.244 46.326 27.533 73.312 45.425 7.089 80.292 46.48 80.292 93.863 0 52.383-42.617 95-95 95z" fill="#e1f0ff"/><path d="m430.708 141.137c1.713-26.988-8.143-53.922-27.533-73.312-28.784-28.786-72.147-35.66-107.912-18.613-9.912-12.975-22.303-23.967-36.415-32.222-.941-.55-1.894-1.078-2.848-1.602v314.612h160c52.383 0 95-42.617 95-95 0-47.383-34.867-86.774-80.292-93.863z" fill="#bedcf0"/><path d="m316 482h-120c-8.284 0-15-6.716-15-15s6.716-15 15-15h120c8.284 0 15 6.716 15 15s-6.716 15-15 15z" fill="#5e54ac"/><path d="m316 452h-60v30h60c8.284 0 15-6.716 15-15s-6.716-15-15-15z" fill="#453d81"/><path d="m497 482h-121c-8.284 0-15-6.716-15-15s6.716-15 15-15h121c8.284 0 15 6.716 15 15s-6.716 15-15 15z" fill="#453d81"/><path d="m136 482h-121c-8.284 0-15-6.716-15-15s6.716-15 15-15h121c8.284 0 15 6.716 15 15s-6.716 15-15 15z" fill="#5e54ac"/><g><path d="m166 452c-8.284 0-15-6.716-15-15v-62c0-8.284 6.716-15 15-15s15 6.716 15 15v62c0 8.284-6.716 15-15 15z" fill="#5e54ac"/><path d="m166 360v92c8.284 0 15-6.716 15-15v-62c0-8.284-6.716-15-15-15z" fill="#453d81"/><path d="m166 512c-24.813 0-45-20.187-45-45s20.187-45 45-45 45 20.187 45 45-20.187 45-45 45z" fill="#ffe278"/><path d="m166 422v90c24.813 0 45-20.187 45-45s-20.187-45-45-45z" fill="#ffb454"/><path d="m206 390h-80c-19.299 0-35-15.701-35-35v-140c0-19.299 15.701-35 35-35h80c19.299 0 35 15.701 35 35v140c0 19.299-15.701 35-35 35z" fill="#8bb9ff"/><path d="m206 180h-40v210h40c19.299 0 35-15.701 35-35v-140c0-19.299-15.701-35-35-35z" fill="#4793ff"/><circle cx="166" cy="255" fill="#ffe278" r="15"/><circle cx="166" cy="315" fill="#ff6378" r="15"/><path d="m181 255c0-8.284-6.716-15-15-15v30c8.284 0 15-6.716 15-15z" fill="#ffb454"/><path d="m166 300v30c8.284 0 15-6.716 15-15s-6.716-15-15-15z" fill="#d0004f"/></g><g><path d="m346 452c-8.284 0-15-6.716-15-15v-62c0-8.284 6.716-15 15-15s15 6.716 15 15v62c0 8.284-6.716 15-15 15z" fill="#5e54ac"/><path d="m346 360v92c8.284 0 15-6.716 15-15v-62c0-8.284-6.716-15-15-15z" fill="#453d81"/><path d="m346 512c-24.813 0-45-20.187-45-45s20.187-45 45-45 45 20.187 45 45-20.187 45-45 45z" fill="#ffe278"/><path d="m346 422v90c24.813 0 45-20.187 45-45s-20.187-45-45-45z" fill="#ffb454"/><path d="m386 390h-80c-19.299 0-35-15.701-35-35v-140c0-19.299 15.701-35 35-35h80c19.299 0 35 15.701 35 35v140c0 19.299-15.701 35-35 35z" fill="#8bb9ff"/><path d="m386 180h-40v210h40c19.299 0 35-15.701 35-35v-140c0-19.299-15.701-35-35-35z" fill="#4793ff"/><circle cx="346" cy="255" fill="#ffe278" r="15"/><circle cx="346" cy="315" fill="#ff6378" r="15"/><path d="m361 255c0-8.284-6.716-15-15-15v30c8.284 0 15-6.716 15-15z" fill="#ffb454"/><path d="m346 300v30c8.284 0 15-6.716 15-15s-6.716-15-15-15z" fill="#d0004f"/></g></g></svg>