<svg id="Layer_1" enable-background="new 0 0 512 512" height="512" viewBox="0 0 512 512" width="512" xmlns="http://www.w3.org/2000/svg"><g><g><g><path d="m437.067 189.548c-.152-47.726-36.693-87.099-83.278-91.728-13.712-21.612-37.848-35.153-63.786-35.153-8.072 0-15.919 1.247-23.443 3.717-3.324-2.957-6.866-5.623-10.57-8.018l-21.324 112.193 21.324 87.36h171.251l3.831-9.272c5.204-12.597 7.248-47.201 5.995-59.099z" fill="#d88a55"/><path d="m208.988 44.467c-47.49 0-86.18 38.398-86.655 85.777-29.319 17.696-47.777 49.836-47.777 84.485 0 11.384 1.946 22.574 5.784 33.26l3.566 9.93h172.084v-199.553c-13.876-8.971-30.157-13.899-47.002-13.899z" fill="#ea9b58"/></g><g><g><path d="m198.333 121.41h30v30h-30z" fill="#d88349"/></g><g><path d="m290 152.41h30v30h-30z" fill="#c97840"/></g></g></g><g><g><path d="m512 437.533h-22.636l-28.113-226.218h-205.261l-10 141.058 10 115.16h256.01z" fill="#0cba68"/><path d="m50.749 211.315-28.113 226.218h-22.636v30h255.99v-256.218z" fill="#0dca71"/></g><g><path d="m341.333 320c0-17.673-14.327-32-32-32-8.914 0-16.974 3.648-22.776 9.529.938-3.01 1.443-6.21 1.443-9.529 0-17.673-14.327-32-32-32l-10.667 74.667 10.667 76.939h49.154c16.541 0 29.999-13.458 29.999-30 0-11.116-2.385-21.965-6.773-31.892 7.858-5.831 12.953-15.177 12.953-25.714z" fill="#f7f0eb"/><path d="m224 288c0 3.319.505 6.519 1.443 9.529-5.803-5.881-13.862-9.529-22.776-9.529-17.673 0-32 14.327-32 32 0 10.537 5.095 19.883 12.953 25.714-4.388 9.927-6.773 20.776-6.773 31.892 0 16.542 13.458 30 29.999 30h49.154v-151.606c-17.673 0-32 14.327-32 32z" fill="#fffbf5"/></g></g></g></svg>