<svg id="Layer_1" enable-background="new 0 0 512 512" height="512" viewBox="0 0 512 512" width="512" xmlns="http://www.w3.org/2000/svg"><g><path d="m485.044 170.333c.845-4.305 1.289-8.707 1.289-13.167 0-37.679-30.654-68.333-68.333-68.333-12.924 0-25.537 3.683-36.378 10.51-8.357-3.185-17.292-4.843-26.289-4.843-40.62 0-73.666 33.047-73.666 73.667 0 .723.013 1.445.036 2.167h203.341z" fill="#d88a55"/><path d="m230.298 170.333c.023-.721.036-1.443.036-2.167 0-40.62-33.047-73.667-73.666-73.667-8.998 0-17.933 1.658-26.289 4.843-10.841-6.827-23.453-10.51-36.378-10.51-37.679 0-68.333 30.654-68.333 68.333 0 4.46.444 8.862 1.289 13.167h203.341z" fill="#ea9b58"/><path d="m18.153 180.333 23.147 104.167h173.399l23.149-104.167z" fill="#0dca71"/><path d="m274.153 180.333 23.148 104.167h173.398l23.149-104.167z" fill="#ff5c5c"/><g><path d="m512 158.5h-256l-10.667 12.166 10.667 17.834h93.303l40.933 204.667h-37.369v30h102.599v-30h-34.636l-40.933-204.667h132.103z" fill="#daeaec"/><path d="m0 158.5v30h132.103l-40.934 204.667h-34.636v30h102.6v-30h-37.37l40.934-204.667h93.303v-30z" fill="#f1f1f4"/></g></g></svg>