<svg id="Layer_1" enable-background="new 0 0 512 512" height="512" viewBox="0 0 512 512" width="512" xmlns="http://www.w3.org/2000/svg"><g><ellipse cx="66.167" cy="218.667" fill="#ea9b58" rx="66.167" ry="66.167" transform="matrix(.973 -.23 .23 .973 -48.469 21.052)"/><circle cx="445.833" cy="218.667" fill="#d88a55" r="66.167"/><ellipse cx="175" cy="103.5" fill="#ea9b58" rx="68.333" ry="68.333" transform="matrix(.961 -.276 .276 .961 -21.752 52.255)"/><path d="m337 35.167c-37.68 0-68.334 30.655-68.334 68.333 0 37.679 30.654 68.333 68.334 68.333 37.679 0 68.333-30.654 68.333-68.333s-30.654-68.333-68.333-68.333z" fill="#d88a55"/><g><g><path d="m374.694 280.781-15.54-10.359-7.314-19.504c-7.35-19.602-20.331-36.265-37.538-48.19s-37.367-18.228-58.302-18.228l-10.667 146.167 10.667 146.167h59.333c59.007 0 107.013-48.006 107.013-107.013 0-35.862-17.813-69.148-47.652-89.04z" fill="#d88a55"/><path d="m197.698 202.727c-17.207 11.924-30.188 28.588-37.538 48.19l-7.314 19.504-15.539 10.359c-29.839 19.892-47.653 53.178-47.653 89.04 0 59.007 48.005 107.013 107.012 107.013h59.334v-292.333c-20.934 0-41.095 6.303-58.302 18.227z" fill="#ea9b58"/></g><g><path d="m341.412 330.704-31.643-21.095-14.108-37.624c-6.164-16.44-22.103-27.485-39.66-27.485l-10.668 107.5 10.667 64.834h59.333c25.923 0 47.013-21.09 47.013-47.013 0-15.755-7.826-30.378-20.934-39.117z" fill="#c97840"/><path d="m216.34 271.985-14.109 37.625-31.643 21.095c-13.108 8.739-20.934 23.362-20.934 39.116 0 25.923 21.09 47.013 47.012 47.013h59.334v-172.334c-17.557 0-33.495 11.045-39.66 27.485z" fill="#d88349"/></g></g></g></svg>