<svg id="Layer_1" enable-background="new 0 0 512.039 512.039" height="512" viewBox="0 0 512.039 512.039" width="512" xmlns="http://www.w3.org/2000/svg"><g><g><circle cx="131.484" cy="425.719" fill="#fffbf5" r="35.445"/><g><path d="m479.787 324.568-87.691-47.784v34.165l73.336 39.962c10.244 5.582 16.608 16.297 16.608 27.963 0 17.559-14.285 31.845-31.845 31.845h-162.156l-10 15 10 15h162.155c34.102 0 61.845-27.744 61.845-61.845 0-22.656-12.359-43.465-32.252-54.306z" fill="#a0aab7"/><path d="m179.652 410.719c-6.402-20.514-25.574-35.445-48.168-35.445-27.815 0-50.445 22.63-50.445 50.445s22.63 50.445 50.445 50.445c22.594 0 41.767-14.932 48.168-35.445h108.387v-30zm-48.168 35.445c-11.273 0-20.445-9.172-20.445-20.445s9.172-20.445 20.445-20.445 20.445 9.172 20.445 20.445-9.172 20.445-20.445 20.445z" fill="#daeaec"/></g></g><g><path d="m312.5 54.872h39.409v30h-39.409z" fill="#a0aab7" transform="matrix(.618 -.787 .787 .618 72.121 288.042)"/></g><g><g><path d="m420.457 182.965c-24.624-63.044-73.93-109.236-132.419-131.735l-10.667 162.141 10.667 158.378c.398.003.796.018 1.194.018 15.652 0 31.479-2.645 46.84-8.143 35.452-12.691 64.839-39.682 80.625-74.053 15.683-34.142 17.031-71.971 3.76-106.606z" fill="#ff3838"/><path d="m122.978 51.503c-42.364 16.547-78.472 44.923-104.418 82.058-26.111 37.371-24.561 84.518 3.951 120.112 13.238 16.527 30.676 28.322 50.428 34.111 21.469 6.294 44.297 4.906 66.012-4.015l12.497-5.134 20.365 30.22c26.838 39.826 70.745 62.505 116.226 62.894v-320.519c-51.433-19.784-109.965-21.247-165.061.273zm43.71 154.192-46.078 19.219c-5.211 2.173-10.675 3.21-16.082 3.21-14.465 0-28.534-7.418-36.353-20.343-9.577-15.834-7.143-35.65 6.355-51.716 12.237-14.566 37.569-34.65 71.966-47.339l20.191-7.449v104.418z" fill="#ff5c5c"/></g><g><path d="m360.051 203.19c-7.478-19.145-21.963-34.233-40.789-42.483-10.011-4.387-20.612-6.539-31.224-6.489l-10.667 80.486 10.667 73.427c.143.001.285.008.428.008 9.292-.001 18.741-1.697 27.905-5.276 39.524-15.438 59.118-60.151 43.68-99.673z" fill="#ff5c5c"/><path d="m260.379 159.509c-19.146 7.479-34.233 21.965-42.484 40.791-8.25 18.826-8.675 39.737-1.196 58.883 11.803 30.217 40.714 48.779 71.34 48.949v-153.914c-9.344.044-18.696 1.79-27.66 5.291z" fill="#ff6b6b"/></g></g></g></svg>