<svg id="Layer_1" enable-background="new 0 0 512 512" height="512" viewBox="0 0 512 512" width="512" xmlns="http://www.w3.org/2000/svg"><g><g><path d="m469.122 123.911c-29.651-28.823-60.006-42.663-90.149-41.135-38.729 1.961-61.941 29.103-62.911 30.258l9.618 54.182c21.628 14.532 41.88 19.667 59.703 19.667 17.444-.001 32.563-4.919 44.361-10.761 25.006-12.379 40.096-31.395 40.726-32.198l8.323-10.612z" fill="#0bad61"/><g><path d="m420.334 320h-30c0-45.433-13.165-87.187-39.131-124.102l23.772-18.341c20.693 29.09 45.359 77.418 45.359 142.443z" fill="#d88a55"/></g><path d="m409.219 28.362-2.84-11.362h-11.712c-35.39 0-66.107 14.396-84.275 39.496-16.547 22.859-22.392 71.504-1.058 103.504l30.945 8.41c48.175-22.004 64.412-59.065 69.551-86.281 5.457-28.911-.36-52.766-.611-53.767z" fill="#0dca71"/><g><path d="m347.522 148.18-46.558-23.203c-1.362.396-25.27 7.548-44.965 26.673l-10 66.298 10 53.147 1.685-.191c30.91-3.495 72.241-21.951 89.942-54.213 11.551-21.048 11.514-44.739-.104-68.511z" fill="#0dca71"/><path d="m237.411 177.645c-11.23 24.585-9.562 53.056 4.962 84.624l4.533 9.855 9.094-1.029v-119.445c-7.192 6.984-13.824 15.563-18.589 25.995z" fill="#7fe680"/></g><g><path d="m355.218 156.036-32.269-36.397-1.199-.904c-19.295-14.544-42.518-20.171-65.75-16.366l-10 53.48 10 52.666c24.502-2.792 55.292-13.514 88-42.528z" fill="#7fe680"/><path d="m237.973 107.242c-31.014 11.807-54.266 39.069-60.682 71.149l-1.97 9.851s25.846 21.086 66.594 21.086c4.41 0 9.122-.248 14.085-.813v-106.146c-6.031.989-12.063 2.603-18.027 4.873z" fill="#b6ff9e"/></g><path d="m344.32 128.359c-21.681 0-39.32 17.639-39.32 39.32s17.639 39.321 39.32 39.321c21.682 0 39.321-17.639 39.321-39.321 0-21.681-17.639-39.32-39.321-39.32z" fill="#8c5023"/></g><g><path d="m480 320-21.333 160h-405.333l-21.334-160z" fill="#eff7ff"/><g><path d="m479.519 324.333h-208.024c-5.234 3.156-9.754 6.255-13.365 8.904-.715.525-1.425 1.053-2.13 1.586l-10 44.013 10 37.164h213.333z" fill="#f90"/><path d="m211.436 389.923 3.564 26.077h41v-81.177c-21.98 16.622-38.555 37.077-44.564 55.1z" fill="#ffd321"/></g><g><path d="m469.334 371.667c-20.998 0-32.003 4.952-41.713 9.321-8.293 3.732-14.843 6.679-29.402 6.679-14.56 0-21.109-2.947-29.402-6.679-9.71-4.369-20.715-9.321-41.713-9.321-20.997 0-32.002 4.952-41.711 9.321-8.29 3.731-14.84 6.678-29.392 6.679l-10.667 49.667 10.666 42.666h202.667z" fill="#12b0ff"/><path d="m255.992 387.667c-14.558 0-21.107-2.947-29.399-6.679-9.709-4.369-20.714-9.321-41.711-9.321-20.996 0-32 4.952-41.709 9.321-8.291 3.731-14.84 6.679-29.396 6.679-14.558 0-21.107-2.947-29.399-6.679-9.709-4.369-20.713-9.321-41.71-9.321l10.666 108.333h202.666v-92.333c-.002 0-.005 0-.008 0z" fill="#86c3fd"/></g><g><path d="m493.088 333.333h-30.265l-17.289 131.667h-189.534l-10.666 15 10.666 15h215.8z" fill="#b0d8fd"/><path d="m66.467 465-17.29-131.667h-30.265l21.289 161.667h215.799v-30z" fill="#c4e2fe"/></g><g><path d="m512 305h-256l-10.666 15 10.666 15h256z" fill="#9ecffd"/><path d="m0 305h256v30h-256z" fill="#b0d8fd"/></g></g></g></svg>