<svg id="Layer_1" enable-background="new 0 0 512 512" height="512" viewBox="0 0 512 512" width="512" xmlns="http://www.w3.org/2000/svg"><g><g><path d="m452.633 414.755h30v77.245h-30z" fill="#cedfe2"/></g><g><path d="m283.667 219.667v53.333l147.333 147.333h80.666v-200.666z" fill="#f90"/><path d="m431 405.333c0-72.969-59.364-132.333-132.333-132.333h-15v147.333h147.333z" fill="#ff7b00"/></g><g><g><path d="m313.667 337-57.667-10-10.667 86.833 10.667 76.834h57.667z" fill="#f90"/><path d="m198.333 337v153.667h57.667v-163.667z" fill="#ffd321"/></g><g><path d="m313.667 21.333h-57.667l-10.667 234.667 10.667 81h57.667v-201.238l-6-15 6-15z" fill="#ffe5a5"/><path d="m198.333 21.333h57.667v315.667h-57.667z" fill="#ffecbb"/></g></g><g><path d="m512 482h-256l-10.667 19.333 10.667 10.667h256z" fill="#d88a55"/><path d="m394.667 30v-30h-138.667l-10.667 10.667 10.667 19.333z" fill="#d88a55"/><g fill="#ea9b58"><path d="m0 482h256v30h-256z"/><path d="m117.333 0h138.667v30h-138.667z"/></g></g><g><path d="m65 170.667h30v170.667h-30z" fill="#daeaec"/></g><ellipse cx="80" cy="357.333" fill="#ff5c5c" rx="37.333" ry="37.333" transform="matrix(.005 -1 1 .005 -277.72 435.584)"/><g><path d="m26.261 124.75c.482 6.075 3.069 28.373 15.932 50.683 13.914 24.133 42.531 52.9 99.852 52.9s85.938-28.767 99.852-52.9c12.863-22.31 15.449-44.608 15.932-50.683z" fill="#ffd321"/><g><path d="m313.667 105.762h-57.677l-10 11.571 10 18.429h57.677z" fill="#d88a55"/><path d="m0 105.762h255.99v30h-255.99z" fill="#ea9b58"/></g></g></g></svg>