<svg id="Layer_1" enable-background="new 0 0 512 512" height="512" viewBox="0 0 512 512" width="512" xmlns="http://www.w3.org/2000/svg"><g><g><path d="m313.667 21.333h-57.667l-13.087 117.334 13.087 123.062h57.667z" fill="#ffe5a5"/><path d="m198.333 21.333h57.667v240.396h-57.667z" fill="#ffecbb"/></g><g><path d="m369 21.333h30v117.333h-30z" fill="#daeaec"/></g><g><ellipse cx="384" cy="154.667" fill="#ff3838" rx="37.333" ry="37.333" transform="matrix(.888 -.46 .46 .888 -28.088 194.175)"/></g><g><path d="m441.667 0h-185.667l-10.667 10.667 10.667 19.333h185.667z" fill="#d88a55"/><path d="m70.333 0h185.667v30h-185.667z" fill="#ea9b58"/></g><g><path d="m441.667 234.31h-185.667l-10.667 139.023 10.667 138.667h185.667z" fill="#f90"/><path d="m70.333 234.31h185.667v277.69h-185.667z" fill="#ffd321"/></g><g><path d="m256 286.724-10.667 75.943 10.667 96.919c47.658 0 86.431-38.773 86.431-86.432 0-47.657-38.773-86.43-86.431-86.43z" fill="#32393f"/><path d="m169.569 373.155c0 47.659 38.773 86.432 86.431 86.432v-172.863c-47.659 0-86.431 38.773-86.431 86.431z" fill="#5e6b75"/></g></g></svg>