<svg id="Layer_1" enable-background="new 0 0 512 512" height="512" viewBox="0 0 512 512" width="512" xmlns="http://www.w3.org/2000/svg"><g><g><g><path d="m422.073 86.174-6.93-15.84h-159.143l-10.667 196.333 10.667 175h181.695l3.289-10.526c35.471-113.508 28.755-236.019-18.911-344.967z" fill="#efe2dd"/><path d="m96.856 70.334-6.93 15.84c-47.666 108.948-54.382 231.46-18.911 344.967l3.289 10.526h181.696v-371.333z" fill="#f7f0eb"/></g><g><path d="m420.333 82.5v-82.5h-164.333l-10.667 42.667 10.667 39.833z" fill="#12b0ff"/><path d="m441.667 427.5h-185.667l-10.667 41.833 10.667 42.667h185.667z" fill="#12b0ff"/><g fill="#86c3fd"><path d="m91.667 0h164.333v82.5h-164.333z"/><path d="m70.333 427.5h185.667v84.5h-185.667z"/></g></g></g><g><g><path d="m134.794 287.437h54.74v30h-54.74z" fill="#ea9b58"/></g><g><path d="m149.645 323.502h53.936v30h-53.936z" fill="#ea9b58" transform="matrix(.802 -.598 .598 .802 -167.334 172.741)"/></g><g><path d="m322.465 287.437h54.74v30h-54.74z" fill="#d88a55"/></g><g><path d="m320.387 311.535h30v53.936h-30z" fill="#d88a55" transform="matrix(.598 -.802 .802 .598 -136.47 404.986)"/></g><g><path d="m363.824 159.511-3.323-7.949-8.541-1.135c-31.047-4.121-52.605 4.067-66.568 13.587-9.462-3.087-19.313-4.648-29.392-4.648l-10.667 111.641 10.667 78.273c7.732 6.364 17.697 10.244 28.142 10.244.184 0 .368-.001.552-.004 14.35-.187 27.387-7.589 34.873-19.8l.483-.79c11.577-18.873 30.952-50.462 30.952-84.561 0-1.103-.021-2.216-.06-3.335 33.679-40.323 13.784-89.369 12.882-91.523z" fill="#ebb65b"/><path d="m226.609 164.014c-13.962-9.52-35.522-17.71-66.569-13.587l-8.541 1.135-3.323 7.949c-.901 2.154-20.797 51.2 12.883 91.523-.04 1.12-.061 2.233-.061 3.336 0 34.1 19.375 65.688 30.952 84.561l.484.789c7.487 12.212 20.523 19.614 34.872 19.801 10.611.126 20.826-3.765 28.694-10.241h.001v-189.914c-10.08 0-19.931 1.561-29.392 4.648z" fill="#ffc663"/></g><g><path d="m271 289.007h-15l-10 13.43 10 16.57h15z" fill="#d88a55"/><path d="m241 289.007h15v30h-15z" fill="#ea9b58"/></g></g></g></svg>