<svg id="Layer_1" enable-background="new 0 0 512 512" height="512" viewBox="0 0 512 512" width="512" xmlns="http://www.w3.org/2000/svg"><g><g><g><path d="m422.073 86.174-6.93-15.84h-159.143l-10.667 196.333 10.667 175h181.695l3.289-10.526c35.471-113.508 28.755-236.019-18.911-344.967z" fill="#ae632c"/><path d="m96.856 70.334-6.93 15.84c-47.666 108.948-54.382 231.46-18.911 344.967l3.289 10.526h181.696v-371.333z" fill="#c97840"/></g><g><path d="m420.333 82.5v-82.5h-164.333l-10.667 42.667 10.667 39.833z" fill="#f90"/><path d="m441.667 427.5h-185.667l-10.667 41.833 10.667 42.667h185.667z" fill="#f90"/><g fill="#ffd321"><path d="m91.667 0h164.333v82.5h-164.333z"/><path d="m70.333 427.5h185.667v84.5h-185.667z"/></g></g></g><g><path d="m161 326.333h30v30h-30z" fill="#ffc663"/></g><g><path d="m341.333 204.728c0-17.673-14.327-32-32-32-8.914 0-16.974 3.648-22.776 9.529.938-3.01 1.443-6.211 1.443-9.529 0-17.673-14.327-32-32-32l-10.667 74.666 10.667 76.939h49.154c16.541 0 29.999-13.458 29.999-30 0-11.116-2.385-21.965-6.773-31.892 7.858-5.83 12.953-15.176 12.953-25.713z" fill="#ffe5a5"/><path d="m224 172.728c0 3.318.505 6.519 1.443 9.529-5.803-5.881-13.862-9.529-22.776-9.529-17.673 0-32 14.327-32 32 0 10.537 5.095 19.883 12.953 25.714-4.388 9.927-6.773 20.776-6.773 31.892 0 16.542 13.458 30 29.999 30h49.154v-151.606c-17.673 0-32 14.327-32 32z" fill="#fffaed"/></g><g><path d="m351 326.333h-95l-10.667 15 10.667 15h95z" fill="#ebb65b"/><path d="m223 326.333h33v30h-33z" fill="#ffc663"/></g></g></svg>