<svg id="Layer_1" enable-background="new 0 0 512 512" height="512" viewBox="0 0 512 512" width="512" xmlns="http://www.w3.org/2000/svg"><g><g><path d="m461.379 465.463h-130.712v-30h130.712c11.371 0 20.621-9.251 20.621-20.622s-9.251-20.621-20.621-20.621h-39.545l-16.5-30h56.045c27.913 0 50.621 22.708 50.621 50.621s-22.709 50.622-50.621 50.622z" fill="#7d8993"/></g><g><path d="m312.757 46.537c-17.403 0-33.059 7.601-43.841 19.649l-9.916 83.147 9.915 63.655h15v-48.768h28.842c32.445 0 58.841-26.396 58.841-58.842s-26.396-58.841-58.841-58.841zm0 87.683h-28.842v-28.842c0-15.903 12.939-28.841 28.842-28.841s28.841 12.938 28.841 28.841c.001 15.903-12.937 28.842-28.841 28.842z" fill="#f90"/><path d="m225.074 46.537c-32.445 0-58.842 26.396-58.842 58.841s26.396 58.842 58.842 58.842h28.841v48.769h15v-146.803c-10.782-12.049-26.438-19.649-43.841-19.649zm28.841 87.683h-28.841c-15.903 0-28.842-12.938-28.842-28.842 0-15.903 12.939-28.841 28.842-28.841s28.841 12.938 28.841 28.841z" fill="#ffd321"/></g><g><path d="m421.833 331.726c0-77.06-62.692-139.752-139.752-139.752-4.411 0-8.802.234-13.166.649l-12.915 100.512 12.915 101.085h152.918z" fill="#daeaec"/><path d="m203.705 216.045-58.273-23.995c-42.871 0-78.239 32.744-82.413 74.535-18.136 12.525-29.573 32.354-31.443 54.123l-31.576 32.706v40.806h239.308l29.607-32.841v-168.756c-23.341 2.218-45.797 10.273-65.21 23.422z" fill="#f1f1f4"/></g><g><path d="m268.915 331.997-10 31.112 10 31.112h.393c0-27.739 22.567-50.306 50.306-50.306v-30c-19.212 0-36.863 6.788-50.699 18.082z" fill="#cedfe2"/><path d="m239.308 394.22h29.607v-62.223c-18.054 14.738-29.607 37.154-29.607 62.223z" fill="#daeaec"/></g><g><path d="m205.196 332.217-21.645-20.772c9.482-9.881 14.705-22.868 14.705-36.569 0-29.127-23.697-52.824-52.824-52.824v-30c45.669 0 82.824 37.155 82.824 82.824-.001 21.482-8.19 41.846-23.06 57.341z" fill="#daeaec"/></g><g><path d="m74.667 320h30v30h-30z" fill="#6e7a84"/></g></g></svg>