<svg id="Layer_1" enable-background="new 0 0 510.917 510.917" height="512" viewBox="0 0 510.917 510.917" width="512" xmlns="http://www.w3.org/2000/svg"><g><g><path d="m211.896 242.646 10.446 10.447 212.978-212.977v263.403h30v-303.519h-10.777l-137.22 128.219z" fill="#ebb65b"/><path d="m433.009 0-231.879 231.88 10.766 10.766 242.647-242.646z" fill="#ffc663"/></g><g><g><path d="m94.504 360.039 48.41 23.486 21.213-21.213-22.356-49.54-31.086 13.592z" fill="#efe2dd"/><path d="m70.698 311.308 23.806 48.731 47.267-47.267-49.861-22.677z" fill="#f7f0eb"/></g><g><path d="m45.933 408.61 35.948 35.948 61.033-61.033-35.948-35.948-36.268 15.531z" fill="#12b0ff"/><path d="m15.158 334.313h86.314v51.292h-86.314z" fill="#86c3fd" transform="matrix(.707 -.707 .707 .707 -237.449 146.664)"/></g><g><path d="m226.077 228.465-67.083 44.526-30.815 53.372 35.948 35.948 62.779-62.779c9.381-9.38 14.547-21.853 14.547-35.12 0-13.266-5.166-25.739-14.547-35.119z" fill="#12b0ff"/><path d="m224.929 227.316c-9.381-9.381-21.854-14.547-35.12-14.547-13.267 0-25.739 5.167-35.12 14.547l-62.779 62.779 36.269 36.269 97.898-97.898z" fill="#86c3fd"/></g></g><path d="m460.802 289.082-11.324-28.853-30.871 2.793c-20.374 1.843-38.955 13.333-49.705 30.738l-44.356 71.815c-10.75 17.404-12.706 39.163-5.232 58.206l11.324 28.854 30.871-2.793h.001c20.373-1.843 38.954-13.334 49.704-30.738l44.356-71.815c10.75-17.405 12.706-39.164 5.232-58.207z" fill="#f90"/><path d="m475.117 303.367-24.797-18.598-24.797 18.598c-16.365 12.274-26.136 31.814-26.136 52.271v84.41c0 20.457 9.77 39.997 26.135 52.271l24.798 18.598 24.797-18.598c16.365-12.273 26.135-31.814 26.135-52.271v-84.41c0-20.456-9.77-39.996-26.135-52.271z" fill="#12b0ff"/><ellipse cx="450.319" cy="268.148" fill="#ff3838" rx="44.148" ry="44.148" transform="matrix(.971 -.24 .24 .971 -51.142 115.742)"/></g></svg>