<svg id="Layer_1" enable-background="new 0 0 512 512" height="512" viewBox="0 0 512 512" width="512" xmlns="http://www.w3.org/2000/svg"><g><g><path d="m476.973 198.333c-10.323-39.466-31.427-75.981-60.578-104.813l17.546-30.39-99.883-57.666-17.51 30.33c-19.657-5.397-39.97-8.127-60.548-8.127l-21.333 228.333 21.333 228.333c20.578 0 40.891-2.73 60.548-8.127l17.51 30.33 99.883-57.667-17.545-30.389c29.15-28.833 50.254-65.347 60.577-104.814h35.027v-115.333z" fill="#f90"/><path d="m195.452 35.794-17.512-30.33-99.88 57.667 17.545 30.389c-29.151 28.832-50.254 65.347-60.578 104.813h-35.027v115.333h35.027c10.323 39.466 31.426 75.981 60.578 104.813l-17.545 30.391 99.881 57.667 17.511-30.33c19.657 5.397 39.97 8.127 60.549 8.127v-456.667c-20.579 0-40.892 2.73-60.549 8.127z" fill="#ffd321"/></g><g fill="#ff7b00"><path d="m256 408.573c12.034 0 24.072-4.583 33.233-13.744 8.877-8.877 13.767-20.68 13.767-33.234s-4.89-24.357-13.767-33.234c-9.163-9.162-21.198-13.743-33.234-13.743l-10.667 48.049z"/><path d="m394.829 222.766c-18.326-18.326-48.144-18.325-66.468 0-8.877 8.877-13.767 20.68-13.767 33.234s4.889 24.357 13.767 33.234c9.163 9.162 21.198 13.743 33.233 13.743 12.036 0 24.072-4.581 33.234-13.744 8.877-8.877 13.767-20.68 13.767-33.234s-4.889-24.356-13.766-33.233z"/><path d="m289.234 183.64c8.877-8.877 13.767-20.68 13.767-33.234s-4.89-24.357-13.767-33.234c-9.162-9.162-21.198-13.744-33.234-13.744l-10.667 45.906 10.667 48.049c12.036 0 24.071-4.581 33.234-13.743z"/></g><path d="m150.406 209c-12.555 0-24.358 4.889-33.234 13.766-8.877 8.877-13.766 20.68-13.766 33.234s4.889 24.357 13.766 33.234c9.162 9.163 21.198 13.744 33.233 13.744 12.036 0 24.072-4.581 33.235-13.744 18.325-18.326 18.325-48.143 0-66.468-8.877-8.877-20.68-13.766-33.234-13.766z" fill="#f90"/><path d="m222.766 328.361c-18.325 18.326-18.325 48.143.001 66.468 9.164 9.164 21.197 13.744 33.234 13.744v-93.955c-12.036 0-24.072 4.58-33.235 13.743z" fill="#f90"/><path d="m222.766 183.64c9.163 9.162 21.198 13.743 33.233 13.743h.001v-93.955c-12.035 0-24.071 4.581-33.234 13.744-18.325 18.325-18.325 48.142 0 66.468z" fill="#f90"/></g></svg>