<svg id="Layer_1" enable-background="new 0 0 512.062 512.062" height="512" viewBox="0 0 512.062 512.062" width="512" xmlns="http://www.w3.org/2000/svg"><g><path d="m505.634 153.419-5.83-14.888-133.36 62.305v110.391l133.36 62.305 5.83-14.888c.945-2.413 21.148-55.733-15.312-102.612 36.46-46.881 16.257-100.2 15.312-102.613z" fill="#e20000"/><g><path d="m346.783 166.936-21.83-34.45c-16.492-26.025-40.849-45.018-68.953-54.75l-21.333 50.294 21.333 77.608z" fill="#e20000"/><path d="m170.428 70.364-36.118 111.398 116.807 25.957 4.883-2.082v-127.9c-13.903-4.814-28.718-7.373-43.959-7.373z" fill="#ff3838"/></g><g><path d="m256 429.204c22.732-10.604 42.326-27.599 56.286-49.628l21.83-34.449-78.116-33.302-21.333 72.205z" fill="#e20000"/><path d="m237.734 304.038-86.132 27.701 36.991 109.959h10.78c19.972 0 39.218-4.374 56.626-12.494v-117.379z" fill="#ff3838"/></g><g><path d="m281.667 135.888h-25.667l-21.333 120.143 21.333 120.143h25.667c66.247 0 120.143-53.896 120.143-120.143s-53.896-120.143-120.143-120.143z" fill="#ff3838"/><path d="m182.212 135.888c-11.491 0-22.77 1.16-33.712 3.38v233.526c10.941 2.22 22.221 3.38 33.712 3.38h73.788v-240.286z" fill="#ff5c5c"/></g><path d="m148.5 139.268c-49.659 10.075-92.309 42.061-115.854 87.202l-12.563-11.32-20.083 22.287 20.549 18.515-.026.079.026.079-20.549 18.515 20.082 22.287 12.563-11.32c23.545 45.141 66.196 77.127 115.854 87.202 26.656-33.012 41.147-73.781 41.147-116.763.001-42.982-14.49-83.751-41.146-116.763z" fill="#fdd278"/><path d="m113 298.698c-23.564 0-42.667-19.102-42.667-42.667 0-23.564 19.103-42.667 42.667-42.667 23.564 0 42.667 19.102 42.667 42.667 0 23.564-19.103 42.667-42.667 42.667z" fill="#fffbf5"/><path d="m98 241.031h30v30h-30z" fill="#32393f"/><path d="m256 241.031h66v30h-66z" fill="#e20000"/></g></svg>