<svg id="Layer_1" enable-background="new 0 0 512 512" height="512" viewBox="0 0 512 512" width="512" xmlns="http://www.w3.org/2000/svg"><g><g><path d="m356.333 155.667v-155.667h-100.333l-21.333 256 21.333 256h100.333v-155.667h155.667v-200.666z" fill="#ff3838"/><path d="m155.666 0v155.667h-155.666v200.666h155.666v155.667h100.334v-512z" fill="#ff5c5c"/></g><g><path d="m256 102.334-10.667 164.333 10.667 143c84.732 0 153.667-68.935 153.667-153.667s-68.935-153.666-153.667-153.666z" fill="#9ccefd"/><path d="m102.333 256c0 84.732 68.935 153.667 153.667 153.667v-307.333c-84.732 0-153.667 68.934-153.667 153.666z" fill="#b0d8fd"/></g><g><path d="m256 132.333-8.584 132.251 8.584 115.083c68.19 0 123.667-55.477 123.667-123.667s-55.477-123.667-123.667-123.667z" fill="#f7f0eb"/><path d="m132.333 256c0 68.19 55.477 123.667 123.667 123.667v-247.334c-68.19 0-123.667 55.477-123.667 123.667z" fill="#fffbf5"/></g><g><path d="m341.333 232.134c0-17.673-14.327-32-32-32-8.914 0-16.974 3.648-22.776 9.529.938-3.01 1.443-6.21 1.443-9.529 0-17.673-14.327-32-32-32l-10.667 74.667 10.667 76.939h49.154c16.541 0 29.999-13.458 29.999-30 0-11.116-2.385-21.965-6.773-31.892 7.858-5.831 12.953-15.177 12.953-25.714z" fill="#d88a55"/><path d="m224 200.134c0 3.318.505 6.519 1.443 9.529-5.803-5.881-13.862-9.529-22.776-9.529-17.673 0-32 14.327-32 32 0 10.537 5.095 19.883 12.953 25.714-4.388 9.927-6.773 20.776-6.773 31.892 0 16.542 13.458 30 29.999 30h49.154v-151.606c-17.673 0-32 14.327-32 32z" fill="#ea9b58"/></g></g></svg>