<svg id="Layer_1" enable-background="new 0 0 512 512" height="512" viewBox="0 0 512 512" width="512" xmlns="http://www.w3.org/2000/svg"><g><g><path d="m256 426.667 164.333-21.334v-341.333l-164.333-21.333-21.333 202.666z" fill="#12b0ff"/><path d="m91.667 405.333 164.333 21.334v-384l-164.333 21.333z" fill="#86c3fd"/></g><path d="m181.333 315.667h31.667v30h-31.667z" fill="#fffbf5"/><path d="m243 315.667h87.667v30h-87.667z" fill="#f7f0eb"/><g><path d="m256 0-21.333 32 21.333 32h164.333v-64z" fill="#daeaec"/><path d="m91.667 0h164.333v64h-164.333z" fill="#f1f1f4"/></g><g><path d="m256 512h164.333v-106.667h-164.333l-21.333 53.334z" fill="#daeaec"/><path d="m91.667 405.333h164.333v106.666h-164.333z" fill="#f1f1f4"/></g><g><path d="m341.333 194.061c0-17.673-14.327-32-32-32-8.914 0-16.974 3.648-22.776 9.529.938-3.01 1.443-6.211 1.443-9.529 0-17.673-14.327-32-32-32l-10.667 74.667 10.667 76.939h49.154c16.541 0 29.999-13.458 29.999-30 0-11.116-2.385-21.965-6.773-31.892 7.859-5.831 12.953-15.177 12.953-25.714z" fill="#f7f0eb"/><path d="m224 162.061c0 3.318.505 6.519 1.443 9.529-5.802-5.881-13.862-9.529-22.776-9.529-17.673 0-32 14.327-32 32 0 10.537 5.095 19.883 12.953 25.714-4.388 9.927-6.773 20.776-6.773 31.892 0 16.542 13.458 30 29.999 30h49.154v-151.606c-17.673 0-32 14.327-32 32z" fill="#fffbf5"/></g><g><path d="m256 405.333-10 53.333 10 53.334c29.408 0 53.333-23.925 53.333-53.333s-23.925-53.334-53.333-53.334z" fill="#cedfe2"/><path d="m202.667 458.667c0 29.408 23.925 53.333 53.333 53.333v-106.667c-29.408 0-53.333 23.926-53.333 53.334z" fill="#daeaec"/></g></g></svg>