<svg id="Layer_1" enable-background="new 0 0 512 512" height="512" viewBox="0 0 512 512" width="512" xmlns="http://www.w3.org/2000/svg"><g><g><path d="m401 227.518c-61.206 0-111-49.795-111-111 0-61.206 49.794-111 111-111s111 49.794 111 111-49.793 111-111 111z" fill="#cedfe2"/></g><g><path d="m111 227.518c-61.206 0-111-49.795-111-111 0-61.206 49.794-111 111-111s111 49.794 111 111-49.794 111-111 111z" fill="#daeaec"/></g><g><path d="m111 167.063c-27.87 0-50.544-22.674-50.544-50.544s22.674-50.544 50.544-50.544 50.544 22.674 50.544 50.544-22.674 50.544-50.544 50.544z" fill="#f5d7cb"/></g><path d="m350.456 116.518c0-27.87 22.674-50.544 50.544-50.544s50.544 22.674 50.544 50.544-22.674 50.544-50.544 50.544-50.544-22.673-50.544-50.544z" fill="#f2cdbe"/><path d="m414.79 338.576h68.857v30h-68.857z" fill="#a0aab7"/><path d="m415.187 381.539h30v81.149h-30z" fill="#a0aab7" transform="matrix(.438 -.899 .899 .438 -137.74 623.855)"/><path d="m28.353 338.576h68.857v30h-68.857z" fill="#daeaec"/><path d="m41.239 407.113h81.149v30h-81.149z" fill="#daeaec" transform="matrix(.899 -.438 .438 .899 -176.68 78.523)"/><g><path d="m256 343.18-21.334 83.487 21.334 79.815c45.023 0 81.65-36.629 81.65-81.651s-36.627-81.651-81.65-81.651z" fill="#cedfe2"/><path d="m174.349 424.831c0 45.022 36.628 81.651 81.651 81.651v-163.302c-45.023 0-81.651 36.629-81.651 81.651z" fill="#daeaec"/></g><g><path d="m256 71.376-21.333 201.624 21.333 162.609c13.336 21.15 36.918 34.972 63.152 34.971.325 0 .652-.002.979-.006 27.449-.359 49.817-18.209 63.748-33.121 26.771-28.655 66.598-98.003 66.598-171.602-.001-107.234-87.242-194.475-194.477-194.475z" fill="#daeaec"/><path d="m61.524 265.852c0 73.599 39.828 142.946 66.598 171.602 13.93 14.911 36.298 32.762 63.748 33.121 26.597.341 50.628-13.553 64.129-34.965 0 0 0 0 .001.001v-364.235c-107.234 0-194.476 87.241-194.476 194.476z" fill="#f1f1f4"/></g><g><g><path d="m156.171 233.852h30v60.592h-30z" fill="#32393f"/></g><g><path d="m325.829 233.852h30v60.592h-30z" fill="#262b2f"/></g></g><g><path d="m265.528 340.518h-9.528l-10.667 32.814 10.667 40.539 25.592-15.355c9.405-5.643 15.159-15.806 15.159-26.774 0-17.245-13.979-31.224-31.223-31.224z" fill="#c97840"/><path d="m246.472 340.518c-17.244 0-31.223 13.979-31.223 31.223 0 10.968 5.754 21.131 15.159 26.774l25.592 15.356v-73.353z" fill="#d88a55"/></g></g></svg>