<svg id="Layer_1" enable-background="new 0 0 512 512" height="512" viewBox="0 0 512 512" width="512" xmlns="http://www.w3.org/2000/svg"><g><path d="m0 94.333h153.667v174h-153.667z" fill="#86c3fd"/><g><path d="m512 94.333h-230.333l-47 87 21.333 87h256z" fill="#9ccefd"/><path d="m157.334 94.333c-47.972 0-87 39.028-87 87s39.028 87 87 87h98.666l-25.667-174z" fill="#b0d8fd"/></g><g><path d="m158 166.333h30v30h-30z" fill="#86c3fd"/></g><g><path d="m324.667 166.333h30v30h-30z" fill="#12b0ff"/></g><g><path d="m408 166.333h30v30h-30z" fill="#12b0ff"/></g><g><path d="m281.667 94.333h-25.667l-10.666 76.333 10.666 89.667h25.667z" fill="#ff7b00"/><path d="m230.333 94.333h25.667v166h-25.667z" fill="#f90"/></g><g><path d="m344.405 313-88.405-14.333-10.667 32 10.667 32 88.405-19.667c.826-4.879 1.262-9.889 1.262-15s-.436-10.121-1.262-15z" fill="#ff7b00"/><path d="m166.334 328c0 5.111.436 10.121 1.262 15l88.404 19.667v-64l-88.404 14.333c-.826 4.879-1.262 9.889-1.262 15z" fill="#f90"/><g><path d="m281.667 290.667h-25.667l-18.251 40 18.251 34.666h25.667z" fill="#ae632c"/><path d="m230.333 290.667h25.667v74.666h-25.667z" fill="#c97840"/></g><g><path d="m344.405 313c-7.159-42.326-44.074-74.667-88.405-74.667l-10.667 39 10.667 35.667z" fill="#f90"/><path d="m167.596 313h88.404v-74.667c-44.332 0-81.246 32.341-88.404 74.667z" fill="#ffd321"/></g><g><path d="m256 417.667c44.331 0 81.246-32.341 88.405-74.667h-88.405l-10.667 41.001z" fill="#f90"/><path d="m167.596 343c7.159 42.326 44.073 74.667 88.404 74.667v-74.667z" fill="#ffd321"/></g></g></g></svg>