<svg id="Layer_1" enable-background="new 0 0 512 512" height="512" viewBox="0 0 512 512" width="512" xmlns="http://www.w3.org/2000/svg"><g><g><path d="m368.182 42.667h-112.182l-10.667 181.333 10.667 245.333h112.182c76.592-40.36 128.818-120.741 128.818-213.333s-52.226-172.973-128.818-213.333z" fill="#d8ecfe"/><path d="m143.818 42.667c-76.592 40.36-128.818 120.741-128.818 213.333s52.226 172.973 128.818 213.333h112.182v-426.666z" fill="#eff7ff"/></g><g><g><path d="m358.333 256h30v74.666h-30z" fill="#c97840"/></g><g><path d="m305.449 389.677h146.884v-74.01h-168.666v22.843c0 20.073 8.368 38.217 21.782 51.167z" fill="#ae632c"/></g></g><g><path d="m120.577 389.963-29.776-2.5c-.014-2.607.207-5.152.61-7.638-.135-9.966-5.396-20.516-11.354-32.459-7.043-14.122-15.027-30.128-14.832-48.244.135-12.545 4.217-23.889 7.818-33.897 1.754-4.875 3.411-9.48 4.567-13.971 4.727-18.365 1.416-38.845-8.856-54.785l25.217-16.251c14.721 22.843 19.466 52.193 12.693 78.512-1.506 5.85-3.481 11.342-5.393 16.652-3.069 8.528-5.967 16.584-6.048 24.062-.117 10.879 5.614 22.368 11.681 34.531.669 1.34 1.343 2.693 2.019 4.063 3.733-6.289 7.895-12.104 11.967-17.792 5.089-7.109 9.896-13.824 13.438-20.868 7.427-14.769 9.566-32.479 5.869-48.591l29.24-6.709c5.31 23.141 2.359 47.567-8.308 68.779-4.591 9.13-10.313 17.122-15.847 24.852-5.676 7.929-11.037 15.418-14.618 23.357-.939 2.081-1.945 4.175-2.917 6.2-2.604 5.421-5.276 10.982-6.398 15.756-.111 2.283-.362 4.596-.772 6.941z" fill="#0dca71"/></g><g><path d="m239 386.607h-145.483c0-37.335 32.631-67.709 72.741-67.709s72.742 30.374 72.742 67.709z" fill="#566066"/></g><g><path d="m353.667 204-48.762-36.571v-24l48.762-36.572 18 24-32.762 24.572 32.762 24.571z" fill="#ffd321"/></g><g><path d="m271.435 106.864h-15.435l-10.667 42.469 10.667 54.66h15.435c26.779 0 48.565-21.786 48.565-48.564 0-26.779-21.786-48.565-48.565-48.565z" fill="#f90"/><path d="m238.859 106.864c-27.803 0-52.39 17.721-61.182 44.098l-1.489 4.467 1.489 4.467c8.792 26.376 33.379 44.098 61.182 44.098h17.141v-97.129h-17.141z" fill="#ffd321"/></g><g><path d="m469.333 379.667h-213.333l-10.667 36.333 10.667 53.333h106.667z" fill="#12b0ff"/><path d="m42.667 379.667 96 89.666h117.333v-89.666z" fill="#86c3fd"/></g><g><path d="m375.174 29.396-3.282-1.73h-115.892l-10.667 15 10.667 15h108.408c72.634 39.759 117.592 115.415 117.592 198.334s-44.958 158.574-117.59 198.333h-108.41l-10.667 15 10.667 15h115.892l3.282-1.729c84.398-44.473 136.826-131.302 136.826-226.604s-52.429-182.131-136.826-226.604z" fill="#9ccefd"/><path d="m147.59 454.333c-72.632-39.759-117.59-115.414-117.59-198.333s44.958-158.574 117.59-198.333h108.41v-30h-115.893l-3.282 1.73c-84.397 44.472-136.825 131.301-136.825 226.603s52.428 182.131 136.825 226.604l3.282 1.729h115.893v-30z" fill="#b0d8fd"/></g></g></svg>