<svg id="Layer_1" enable-background="new 0 0 512 512" height="512" viewBox="0 0 512 512" width="512" xmlns="http://www.w3.org/2000/svg"><g><g><path d="m417.727 215.06c0-89.319-72.408-161.727-161.726-161.727l-10.667 192 10.666 149.334h161.727z" fill="#f7f0eb"/><path d="m256 53.333c-89.319 0-161.726 72.407-161.726 161.727v179.607h161.726z" fill="#fffbf5"/></g><g><path d="m271 0h-15l-10.667 32.94 10.667 31.06h15z" fill="#daeaec"/><path d="m241 0h15v64h-15z" fill="#f1f1f4"/></g><path d="m91.432 322.544h-74.432v75.456c0 35.841 29.159 65 65 65h9.432z" fill="#f1f1f4"/><path d="m421.415 322.544v140.456h8.585c35.841 0 65-29.159 65-65v-75.456z" fill="#daeaec"/><path d="m256 38.333-10.667 15 10.667 15c15.931 0 31.273 2.562 45.647 7.279v90.552h-45.647l-10.667 15.168 10.667 14.833h45.648v188.835h30v-188.835h69.865c.799 6.187 1.214 12.493 1.214 18.895v169.94l30-12.316v-157.624c0-97.447-79.279-176.726-176.727-176.727zm75.648 127.832v-76.783c28.865 17.439 51.261 44.538 62.692 76.783z" fill="#a0aab7"/><path d="m210.352 166.165v-90.552c14.374-4.717 29.716-7.279 45.648-7.279v-30h-.001c-97.447 0-176.726 79.279-176.726 176.726v157.625l30 12.316v-169.941c0-6.401.415-12.707 1.214-18.895h69.865v188.835h30v-188.835h45.648v-30zm-30 0h-62.692c11.43-32.245 33.827-59.344 62.692-76.783z" fill="#daeaec"/><g><path d="m432.727 372.684h-176.727l-10.667 64.649 10.667 74.667h176.727z" fill="#f90"/><path d="m79.273 372.684h176.727v139.316h-176.727z" fill="#ffd321"/></g></g></svg>