<svg id="Layer_1" enable-background="new 0 0 512 512" height="512" viewBox="0 0 512 512" width="512" xmlns="http://www.w3.org/2000/svg"><g><g><path d="m479.555 183h-134.28v128.616c0 17.987-7.23 34.311-18.926 46.242l78.934 14.826 74.207-56.012c.042-1.681.064-3.366.064-5.056v-128.616z" fill="#fddb93"/><path d="m213.063 311.616v-15.444l-81.175 19.361-29.096 91.115c27.876 51.53 77.677 89.532 136.813 101.423l12.161-77.071-27.404-82.458c-7.131-10.551-11.299-23.261-11.299-36.926z" fill="#fdd278"/><path d="m279.17 512c46.697 0 89.713-16.058 123.82-42.939l-33.377-61.6-90.443-29.739-10 58.782z" fill="#fddb93"/><path d="m224.363 348.541 15.242 159.528c12.795 2.573 26.024 3.931 39.565 3.931v-134.279c-22.786 0-42.916-11.588-54.807-29.18z" fill="#ffe7ab"/><path d="m78.785 233v78.616c0 34.366 8.7 66.736 24.007 95.031l110.271-110.475v-63.172z" fill="#ffe7ab"/><path d="m479.49 316.672-153.141 41.186c-12.005 12.246-28.716 19.863-47.179 19.863l123.82 91.34c45.362-35.751 74.964-90.648 76.5-152.389z" fill="#ffc663"/></g><g><path d="m252.966 52.015c-24.826-31.646-63.406-52.015-106.655-52.015-74.715 0-135.5 60.785-135.5 135.5 0 43.062 20.194 81.494 51.607 106.331z" fill="#0dca71"/><path d="m281.811 135.5c0-31.466-10.783-60.46-28.845-83.485-155.266 36.557-185.567 161.018-190.548 189.816 23.09 18.256 52.24 29.169 83.893 29.169 74.714 0 135.5-60.785 135.5-135.5z" fill="#0bad61"/></g><g><g><path d="m339.613 53.333h30v114.389h-30z" fill="#ffe7ab"/></g><g><path d="m397.415 53.333h30v114.389h-30z" fill="#ffe7ab"/></g><g><path d="m455.216 53.333h30v114.389h-30z" fill="#ffe7ab"/></g></g><path d="m446.011 116.499h-67.191c-30.426 0-55.18 24.753-55.18 55.179s24.754 55.179 55.18 55.179h67.191c30.426 0 55.179-24.753 55.179-55.179s-24.754-55.179-55.179-55.179z" fill="#ffc663"/></g></svg>