<svg id="Layer_1" enable-background="new 0 0 512 512" height="512" viewBox="0 0 512 512" width="512" xmlns="http://www.w3.org/2000/svg"><g><g><path d="m281.667 216.76h-25.667l-18.252 39.24 18.252 46.093h25.667z" fill="#a7a7ab"/><path d="m230.333 216.76h25.667v85.333h-25.667z" fill="#daeaec"/></g><g><path d="m368.68 317.587c0-28.577-23.249-51.827-51.827-51.827-16.231 0-31.18 7.45-40.874 19.928h-19.979l-10 53.177 10 58.448h19.979c9.694 12.478 24.642 19.928 40.874 19.928 28.577 0 51.827-23.25 51.827-51.827 0-8.372-2.037-16.573-5.857-23.914 3.82-7.34 5.857-15.541 5.857-23.913z" fill="#daeaec"/><path d="m236.02 285.688c-9.693-12.478-24.642-19.928-40.873-19.928-28.577 0-51.827 23.25-51.827 51.827 0 8.373 2.037 16.573 5.857 23.913-3.819 7.34-5.857 15.542-5.857 23.914 0 28.577 23.249 51.827 51.827 51.827 16.231 0 31.179-7.45 40.873-19.928h19.98v-111.625z" fill="#f1f1f4"/></g><g><path d="m0 94.76v147.667h209l30-75.187-30-72.48z" fill="#0dca71"/><g><path d="m55.333 153.593h30v30h-30z" fill="#06995e"/></g><g><path d="m130 153.593h30v30h-30z" fill="#06995e"/></g><path d="m512 94.76v147.667h-209l-30-75.187 30-72.48z" fill="#0cba68"/><g><path d="m426.667 153.593h30v30h-30z" fill="#069159"/></g><g><path d="m352 153.593h30v30h-30z" fill="#069159"/></g><g><path d="m303 94.76h-47l-10.667 75.907 10.667 71.76h47z" fill="#daeaec"/><path d="m209 94.76h47v147.667h-47z" fill="#f1f1f4"/></g></g></g></svg>