<svg id="Layer_1" enable-background="new 0 0 512 512" height="512" viewBox="0 0 512 512" width="512" xmlns="http://www.w3.org/2000/svg"><g><g><path d="m412.153 64.68c-38.163-38.162-87.834-60.637-141.187-64.184l-14.966 9.504-10 25.001 10 38.982c39.226 0 76.103 15.275 103.84 43.011 27.736 27.736 43.011 64.614 43.011 103.839s-15.276 76.103-43.011 103.839c-27.737 27.737-64.614 43.012-103.84 43.012l-10 38.982 1.143 4h121.788c15.554-9.289 30.079-20.538 43.222-33.681 41.71-41.71 64.681-97.166 64.681-156.153s-22.971-114.442-64.681-156.152z" fill="#ffc663"/><path d="m256 410.667v-42.982c-39.225 0-76.102-15.275-103.839-43.012-27.736-27.736-43.011-64.614-43.011-103.839s15.276-76.103 43.011-103.839c27.736-27.737 64.614-43.012 103.839-43.012v-63.983l-14.967-9.504c-53.353 3.547-103.023 26.022-141.186 64.184-41.71 41.71-64.681 97.166-64.681 156.153s22.971 114.443 64.681 156.153c13.143 13.143 27.668 24.392 43.222 33.681z" fill="#fdd278"/></g><g><path d="m390.94 85.894c-36.044-36.044-83.967-55.894-134.94-55.894l-10 29.667 10 22.773c36.967 0 71.72 14.396 97.86 40.535 26.139 26.139 40.535 60.892 40.535 97.859s-14.396 71.72-40.535 97.859-60.893 40.535-97.86 40.535l-10 23.69 10 28.75c50.974 0 98.896-19.85 134.94-55.894 36.043-36.044 55.894-83.966 55.894-134.939s-19.851-98.898-55.894-134.941z" fill="#efe2dd"/><path d="m158.141 318.692c-26.139-26.139-40.535-60.893-40.535-97.859s14.396-71.72 40.535-97.859c26.139-26.138 60.893-40.534 97.859-40.534v-52.44c-50.973 0-98.896 19.85-134.939 55.894-36.043 36.043-55.894 83.966-55.894 134.939 0 50.974 19.851 98.896 55.894 134.939 36.044 36.044 83.967 55.894 134.939 55.894v-52.44c-36.966.001-71.72-14.395-97.859-40.534z" fill="#f7f0eb"/></g><g><path d="m404.03 482-133.03-272.136v-209.864h-14.999l-10 235.671 10 205.996h14.999v-.498c24.858-1.656 48.917-7.421 71.384-16.968l28.255 57.8h-114.639l-10 13.999 10 16h185.6v-30z" fill="#ff5c5c"/><path d="m256.001 441.667v-441.667h-15.001v209.864l-133.031 272.136h-37.57v30h185.601v-30h-114.637l28.258-57.806-.003.007c22.467 9.546 46.524 15.311 71.382 16.967v.498h15.001z" fill="#ff3838"/></g></g></svg>