<svg id="Layer_1" enable-background="new 0 0 512 512" height="512" viewBox="0 0 512 512" width="512" xmlns="http://www.w3.org/2000/svg"><g><g><path d="m256 54.333-10.667 20.333 10.667 9.667c15.255 0 27.667 12.411 27.667 27.666v58.667h30v-58.666c0-31.798-25.87-57.667-57.667-57.667z" fill="#32393f"/><path d="m198.333 112v58.667h30v-58.667c0-15.255 12.411-27.666 27.667-27.666v-30c-31.797-.001-57.667 25.868-57.667 57.666z" fill="#5e6b75"/></g><g><path d="m512 233.805c0-58.372-47.489-105.86-105.861-105.86-24.744 0-48.404 8.499-67.275 24.052h-82.864l-21.333 136.003 21.333 145.615h82.865c18.87 15.553 42.53 24.052 67.274 24.052 58.372 0 105.861-47.489 105.861-105.861 0-21.074-6.322-41.621-17.992-59 11.67-17.379 17.992-37.925 17.992-59.001z" fill="#0cba68"/><path d="m173.135 151.997c-18.87-15.553-42.53-24.052-67.275-24.052-58.371 0-105.86 47.489-105.86 105.86 0 21.076 6.322 41.622 17.992 59-11.67 17.38-17.992 37.927-17.992 59 0 58.372 47.489 105.861 105.861 105.861 24.744 0 48.404-8.5 67.274-24.052h82.865v-281.617z" fill="#0dca71"/></g><g><path d="m256 218.139-10.667 69.861 10.667 79.472c41.237 0 74.667-33.429 74.667-74.667s-33.43-74.666-74.667-74.666z" fill="#32393f"/><path d="m181.333 292.806c0 41.237 33.429 74.667 74.667 74.667v-149.334c-41.237 0-74.667 33.43-74.667 74.667z" fill="#5e6b75"/></g><g><path d="m256 203.139-10.667 63.527 10.667 43.988 42.155 24.338c-10.803 10.795-25.713 17.48-42.155 17.48l-10.667 20.861 10.667 9.139c49.442 0 89.667-40.224 89.667-89.667 0-49.441-40.225-89.666-89.667-89.666zm57.375 105.999-42.375-24.465v-49.622c25.663 6.67 44.667 30.034 44.667 57.755 0 5.663-.811 11.138-2.292 16.332z" fill="#f7f0eb"/><path d="m213.845 334.992 42.155-24.338v-107.515c-49.442 0-89.667 40.224-89.667 89.666s40.224 89.667 89.667 89.667v-30c-16.442 0-31.352-6.685-42.155-17.48zm-17.512-42.186c0-27.721 19.003-51.085 44.667-57.755v49.622l-42.375 24.465c-1.481-5.194-2.292-10.669-2.292-16.332z" fill="#fffbf5"/></g></g></svg>