<svg id="Layer_1" enable-background="new 0 0 512 512" height="512" viewBox="0 0 512 512" width="512" xmlns="http://www.w3.org/2000/svg"><g><g><path d="m395.813 225.429c0-33.604-18.672-63.816-48.729-78.845l-3.168-1.584h-87.916l-10.667 196.333 10.667 170.667h139.813z" fill="#f90"/><path d="m168.083 145-3.167 1.583c-30.057 15.029-48.729 45.241-48.729 78.845v286.572h139.813v-367z" fill="#ffd321"/></g><g><path d="m181.333 398.407h31.667v30h-31.667z" fill="#5e6b75"/><path d="m243 398.407h87.666v30h-87.666z" fill="#32393f"/></g><g><path d="m341.333 276.801c0-17.673-14.327-32-32-32-8.914 0-16.974 3.648-22.776 9.529.938-3.01 1.443-6.21 1.443-9.529 0-17.673-14.327-32-32-32l-10.667 74.667 10.667 76.939h49.154c16.541 0 29.999-13.458 29.999-30 0-11.116-2.385-21.965-6.773-31.892 7.858-5.831 12.953-15.177 12.953-25.714z" fill="#ffe5a5"/><path d="m224 244.801c0 3.318.505 6.519 1.443 9.529-5.803-5.881-13.862-9.529-22.776-9.529-17.673 0-32 14.327-32 32 0 10.537 5.095 19.883 12.954 25.714-4.388 9.927-6.773 20.776-6.773 31.892 0 16.542 13.458 30 29.999 30h49.153v-151.606c-17.673 0-32 14.327-32 32z" fill="#fffaed"/></g><g><path d="m356.333 68.278-100.333-20-10.667 79.723 10.667 23.832h100.333z" fill="#daeaec"/><path d="m155.667 68.278v83.555h100.333v-103.555z" fill="#f1f1f4"/></g><g><path d="m256 0-10.667 42.667 10.667 47c15.319 0 28.602-8.682 35.221-21.389h65.112v-68.278z" fill="#32393f"/><path d="m155.667 0v68.278h65.112c6.62 12.707 19.903 21.389 35.221 21.389v-89.667z" fill="#5e6b75"/></g></g></svg>