<svg id="Layer_1" enable-background="new 0 0 511.357 511.357" height="512" viewBox="0 0 511.357 511.357" width="512" xmlns="http://www.w3.org/2000/svg"><g><path d="m134.012 281.667h.001c0-.02-.001-.04-.001-.061z"/><g><g><path d="m255.679 309.333 121.667-27.727v-188.516l-121.667-29.09-10.667 117.334z" fill="#9ccefd"/><path d="m134.012 281.606 121.667 27.727v-245.333l-121.667 29.09v48.364l10 15-10 15v31.789l10 14.999-10 15z" fill="#b0d8fd"/></g><g><path d="m255.679 0-10.667 53.334 10.667 39.756h121.667v-93.09z" fill="#d8ecfe"/><path d="m134.012 0h121.667v93.09h-121.667z" fill="#eff7ff"/></g><g><g><path d="m134.012 141.454h30v30h-30z" fill="#12b0ff"/></g><g><path d="m134.012 203.242h30v30h-30z" fill="#12b0ff"/></g></g><g><path d="m351.142 483.976-80.463-36.028v-82.281h-15l-10.667 60.999 10.667 47.436 83.203 37.255z" fill="#daeaec"/><path d="m240.679 365.667v101.718l15 6.717v-108.435z" fill="#f1f1f4"/></g><g><path d="m255.679 420.333h52.333v-64.47l32.573-15.712c22.313-10.763 36.736-33.714 36.76-58.484h-121.666l-10.667 49z" fill="#0cba68"/><path d="m134.013 281.667c.024 24.77 14.447 47.721 36.76 58.484l32.573 15.712v64.47h52.333v-138.666z" fill="#0dca71"/></g></g></g></svg>