<svg id="Layer_1" enable-background="new 0 0 510.811 510.811" height="512" viewBox="0 0 510.811 510.811" width="512" xmlns="http://www.w3.org/2000/svg"><g><g fill="#f1f1f4"><path d="m233.213 46.209h30v43.643h-30z" transform="matrix(.707 -.707 .707 .707 24.595 195.438)"/><path d="m296.58 3.77h30v43.642h-30z" transform="matrix(.942 -.336 .336 .942 9.501 106.123)"/><path d="m190.774 109.576h30v43.643h-30z" transform="matrix(.336 -.942 .942 .336 12.903 281.095)"/></g><g><path d="m216.689 213.416-27.643-28.381 2.172-8.317c21.16-81.036 84.646-144.521 165.683-165.682l8.318-2.172 28.011 28.011-85.044 108.342z" fill="#9ccefd"/></g><g><path d="m165.373 345.296 26.391 26.392 98.814-98.815-26.391-26.391-59.503 34.566z" fill="#daeaec"/><path d="m132.206 265.225h139.744v35.926h-139.744z" fill="#f1f1f4" transform="matrix(.707 -.707 .707 .707 -141.056 225.834)"/></g><g><path d="m488.745 174.817 21.213-21.213-76.587-76.586-103.686 61.019-72.855 115.522 76.587 76.586 21.213-21.213-35.176-35.177 30.562-30.563 35.176 35.177 21.213-21.213-35.176-35.176 30.564-30.563 35.176 35.176 21.213-21.213-35.177-35.176 30.564-30.563z" fill="#32393f"/><path d="m200.196 116.832h249.666v56.77h-249.666z" fill="#12b0ff" transform="matrix(.707 -.707 .707 .707 -7.484 272.365)"/></g><g><path d="m17.091 493.298c.209.215.405.438.618.65 11.243 11.244 26.007 16.863 40.776 16.863 14.765 0 29.535-5.622 40.776-16.863l129.683-129.683-41.411-41.41-103.182 71.182z" fill="#12b0ff"/><path d="m147.392 282.713-129.683 129.682c-22.272 22.271-22.468 58.369-.618 80.903l170.443-170.443z" fill="#86c3fd"/></g></g></svg>