<svg id="Layer_1" enable-background="new 0 0 512 512" height="512" viewBox="0 0 512 512" width="512" xmlns="http://www.w3.org/2000/svg"><g><g><path d="m333.048 405.333v45.642c0 17.107-13.917 31.024-31.024 31.024-17.107.001-31.024-13.917-31.024-31.023v-98.976h-15l-10.667 53.332 10.667 85.647c11.197 12.865 27.671 21.021 46.024 21.021 33.649 0 61.024-27.375 61.024-61.024v-45.642h-30z" fill="#a7a7ab"/><path d="m241 352v98.976c0 15.295 5.669 29.283 15 40.004v-138.98z" fill="#daeaec"/></g><g><path d="m256 0-21.333 196.333 21.333 170.667c101.182 0 183.5-82.318 183.5-183.5s-82.318-183.5-183.5-183.5z" fill="#12b0ff"/><path d="m72.5 183.5c0 101.182 82.318 183.5 183.5 183.5v-367c-101.182 0-183.5 82.318-183.5 183.5z" fill="#86c3fd"/></g><g><path d="m364.346 156.975c0-22.523-18.324-40.848-40.848-40.848-15.458 0-29.327 8.562-36.296 22.104h-31.202l-10.667 43.102 10.667 47.436h31.202c6.97 13.542 20.839 22.104 36.296 22.104 22.524 0 40.848-18.325 40.848-40.848 0-9.775-3.516-19.173-9.796-26.525 6.28-7.352 9.796-16.749 9.796-26.525z" fill="#f7f0eb"/><path d="m224.798 138.231c-6.969-13.543-20.839-22.104-36.296-22.104-22.524 0-40.848 18.325-40.848 40.848 0 9.775 3.516 19.173 9.796 26.524-6.28 7.353-9.796 16.75-9.796 26.525 0 22.523 18.324 40.848 40.848 40.848 15.458 0 29.326-8.562 36.296-22.104h31.202v-90.538h-31.202z" fill="#fffbf5"/></g></g></svg>