<svg id="Layer_1" enable-background="new 0 0 512 512" height="512" viewBox="0 0 512 512" width="512" xmlns="http://www.w3.org/2000/svg"><g><g><path d="m438.94 224.099c-10.634-8.508-23.931-12.243-37.437-10.517-9.287 1.186-17.827 4.844-24.908 10.559v-63.058c0-88.821-72.262-161.083-161.084-161.083l-20 238.999 20 212.594h119.641l113.784-160.453c14.64-21.397 10.249-50.846-9.996-67.041z" fill="#32393f"/><path d="m54.428 161.083v83.356c0 70.265 10.259 139.915 30.496 207.154h130.588v-451.593c-88.823 0-161.084 72.262-161.084 161.083z" fill="#5e6b75"/></g><g><path d="m215.511 75-10 150.797 10 138.703c47.543 0 86.083-38.541 86.083-86.083v-117.334c.001-47.542-38.54-86.083-86.083-86.083z" fill="#f7f0eb"/><path d="m215.511 75c-47.543 0-86.083 38.541-86.083 86.083v117.333c0 47.543 38.541 86.083 86.083 86.083z" fill="#fffbf5"/></g><g><g fill="#12b0ff"><path d="m215.511 163h15v-30h-15l-6 15z"/><path d="m230.511 306.5v-30h-15l-5 15 5 15z"/><path d="m230.845 206.356h30v30h-30z"/></g><path d="m200.511 133h15v30h-15z" fill="#86c3fd"/><path d="m200.511 276.5h15v30h-15z" fill="#86c3fd"/><path d="m170.178 206.356h30v30h-30z" fill="#86c3fd"/></g><g><path d="m215.511 60-10 15 10 15c39.196 0 71.084 31.888 71.084 71.083v117.333c0 39.196-31.888 71.083-71.084 71.083l-10 17.5 10 12.5c55.738 0 101.084-45.346 101.084-101.083v-117.333c0-55.737-45.346-101.083-101.084-101.083z" fill="#12b0ff"/><path d="m144.428 278.417v-117.334c0-39.196 31.888-71.083 71.083-71.083v-30c-55.738 0-101.083 45.346-101.083 101.083v117.333c0 55.738 45.346 101.083 101.083 101.083v-30c-39.196.001-71.083-31.887-71.083-71.082z" fill="#86c3fd"/></g><g><path d="m352.471 426.5h-136.96l-10 42.75 10 42.75h136.96z" fill="#12b0ff"/><path d="m78.551 426.5h136.96v85.5h-136.96z" fill="#86c3fd"/></g></g></svg>