<svg id="Layer_1" enable-background="new 0 0 511.973 511.973" height="512" viewBox="0 0 511.973 511.973" width="512" xmlns="http://www.w3.org/2000/svg"><g><g><g><g><path d="m16.863 495.109c0 .001 0 .001 0 0 11.242 11.243 26.009 16.863 40.777 16.863 14.767 0 29.534-5.621 40.776-16.863l73.06-73.061-22.17-59.383-85.333 64z" fill="#12b0ff"/><path d="m89.923 340.497-73.06 73.06c-22.484 22.484-22.484 59.068 0 81.553l132.443-132.443z" fill="#86c3fd"/></g><path d="m171.476 422.049 64.716-64.716-40.776-40.776-35.443 14.11-29.273 50.606z" fill="#daeaec"/><path d="m96.908 299.693h91.522v57.667h-91.522z" fill="#f1f1f4" transform="matrix(.707 -.707 .707 .707 -190.517 197.107)"/></g><g><path d="m317.806 373.333c98.951 0 179.167-80.216 179.167-179.167 0-49.475-20.054-94.267-52.477-126.69l-145.857 103.19-107.523 150.19c32.423 32.423 77.215 52.477 126.69 52.477z" fill="#f7f0eb"/><path d="m138.639 194.167c0 49.476 20.054 94.267 52.477 126.69l253.38-253.38c-32.423-32.423-77.215-52.477-126.69-52.477-98.951 0-179.167 80.216-179.167 179.167z" fill="#fffbf5"/></g><g><path d="m481.973 194.167c0 90.522-73.645 164.167-164.167 164.167-45.261 0-86.302-18.411-116.029-48.138l-20.471-.862-.732 22.066c35.159 35.159 83.7 56.935 137.232 56.935 107.065 0 194.167-87.103 194.167-194.167 0-53.532-21.776-102.074-56.934-137.232l-17.732-3.601-3.471 24.804c29.726 29.725 48.137 70.767 48.137 116.028z" fill="#8e98a5"/><path d="m317.806 0c-107.064 0-194.166 87.103-194.166 194.167 0 53.532 21.776 102.074 56.934 137.232l21.203-21.203c-29.726-29.727-48.137-70.769-48.137-116.029 0-90.522 73.644-164.167 164.166-164.167 45.261 0 86.303 18.411 116.029 48.138l21.203-21.203c-35.158-35.159-83.7-56.935-137.232-56.935z" fill="#a0aab7"/></g></g><g><g><path d="m209.79 212.653-21.213-21.214 48.319-48.319 30.641 30.641-30.641 11.786z" fill="#5e6b75"/></g><g><path d="m265.718 98.993h30v53.333h-30z" fill="#5e6b75" transform="matrix(.707 -.707 .707 .707 -6.634 235.303)"/></g><g><path d="m320.388 323.25-21.213-21.213 27.105-27.106 11.785-30.642 30.642 30.642z" fill="#32393f"/></g><g><path d="m371.313 204.587h30v53.334h-30z" fill="#32393f" transform="matrix(.707 -.707 .707 .707 -50.373 340.897)"/></g><g><path d="m340.92 84.025h38.46v30h-38.46z" fill="#c97840" transform="matrix(.196 -.981 .981 .196 192.421 432.763)"/></g><g><path d="m393.718 136.823h38.459v29.999h-38.459z" fill="#ae632c" transform="matrix(.981 -.196 .196 .981 -21.756 83.935)"/></g><g><path d="m281.661 230.311 44.547 44.548 62.462-62.461-36.697-52.398-42.667 32z" fill="#ae632c"/><path d="m344.122 167.85 44.547 44.547.943-.942c24.564-24.563 24.564-64.532 0-89.095l-37.64 26.973z" fill="#32393f"/><path d="m299.574 123.302-62.461 62.462 44.548 44.547 70.312-70.311z" fill="#c97840"/><path d="m300.517 122.36-.943.942 44.548 44.548 45.49-45.49c-24.563-24.564-64.532-24.564-89.095 0z" fill="#5e6b75"/></g></g></g></svg>