<svg id="Layer_1" enable-background="new 0 0 512 512" height="512" viewBox="0 0 512 512" width="512" xmlns="http://www.w3.org/2000/svg"><g><g><path d="m450.795 328.762c-.699-4.59-1.391-9.09-2.071-13.514-6.463-42.011-11.567-75.194-11.567-112.91 0-37.137-19.722-75.595-54.107-105.511-24.825-21.598-54.394-36.389-85.848-43.322l13.497-44.862-28.729-8.643-14.844 49.337c-3.698-.216-7.407-.337-11.126-.337l-21.333 207 21.333 203h82.792c33.07 0 64.399-14.387 85.953-39.471 21.524-25.051 31.019-58.134 26.05-90.767z" fill="#fdd278"/><path d="m256 49c-3.719 0-7.428.121-11.125.337l-14.844-49.337-28.729 8.643 13.498 44.862c-31.454 6.933-61.023 21.725-85.848 43.322-34.387 29.916-54.108 68.373-54.108 105.511 0 37.724-5.106 70.915-11.571 112.937-.679 4.415-1.37 8.907-2.067 13.487-4.969 32.633 4.526 65.716 26.051 90.767 21.552 25.084 52.882 39.471 85.952 39.471h82.791z" fill="#ffdf8e"/></g><path d="m137.339 190.829h30v54.504h-30z" fill="#32393f"/><path d="m344.661 190.829h30v54.504h-30z" fill="#262b2f"/><g><path d="m319.78 323.401c2.632-5.483 4.033-11.533 4.033-17.674 0-22.502-18.307-40.81-40.81-40.81-10.162 0-19.7 3.79-27.002 10.227l-9.819 99.392 9.818 137.464 8.285-6.214c19.208-14.406 36.535-34.487 48.789-56.544 12.913-23.244 19.739-47.349 19.739-69.71-.001-18.705-4.592-38.35-13.033-56.131z" fill="#ff3838"/><path d="m228.998 264.917c-22.503 0-40.81 18.307-40.81 40.81 0 6.141 1.401 12.191 4.034 17.674-8.441 17.78-13.034 37.427-13.034 56.131 0 22.361 6.826 46.466 19.739 69.71 12.255 22.057 29.581 42.138 48.789 56.544l8.284 6.214v-236.857c-7.301-6.436-16.84-10.226-27.002-10.226z" fill="#ff5c5c"/></g></g></svg>