<svg id="Layer_1" enable-background="new 0 0 512 512" height="512" viewBox="0 0 512 512" width="512" xmlns="http://www.w3.org/2000/svg"><g><path d="m123.885 59.667h-2.437c-34.066 0-61.782 27.715-61.782 61.781 0 5.742.8 11.452 2.377 16.973l22.642 79.246h75.962l22.642-79.245c1.577-5.52 2.377-11.23 2.377-16.973 0-34.067-27.714-61.782-61.781-61.782z" fill="#daeaec"/><g><path d="m484.333 181.333h-228.333l-10.667 117.334 10.667 138.666h228.333z" fill="#12b0ff"/><path d="m27.667 181.333h228.333v256h-228.333z" fill="#86c3fd"/></g><g><path d="m512 196.333v-30h-256l-10.667 15 10.667 15z" fill="#daeaec"/><path d="m512 452.333v-30h-256l-10.667 15 10.667 15z" fill="#daeaec"/><g fill="#f1f1f4"><path d="m0 166.333h256v30h-256z"/><path d="m0 422.333h256v30h-256z"/></g></g><g><path d="m406.579 300.217c-28.778-37.605-59.438-54.375-99.414-54.375h-15v48.491h-32.349c-.875-4.599-2.16-9.074-3.815-13.393l-21.333 32.616 21.332 24.17c1.655-4.319 2.94-8.794 3.815-13.393h32.349v48.491h15c39.976 0 70.637-16.77 99.414-54.375l6.976-9.116z" fill="#f7f0eb"/><path d="m229.669 246.197-18.018 23.987c8.286 6.224 14.201 14.639 17.24 24.149h-33.272l-54.376-54.376-10.523 8.769c-18.041 15.034-28.387 37.124-28.387 60.607s10.347 45.573 28.387 60.606l10.523 8.769 54.377-54.376h33.272c-3.039 9.511-8.954 17.926-17.24 24.15l18.018 23.987c12.127-9.109 21.112-21.128 26.331-34.744v-56.785c-5.22-13.615-14.205-25.634-26.332-34.743z" fill="#fffbf5"/></g></g></svg>