<svg id="Layer_1" enable-background="new 0 0 512 512" height="512" viewBox="0 0 512 512" width="512" xmlns="http://www.w3.org/2000/svg"><g><g><path d="m352.679 347.631v-164.575l-5.585-4.503c-10.55-8.507-16.601-21.137-16.601-34.652 0-16.252 8.866-31.211 23.139-39.041l9.582-5.256-2.067-10.732c-.603-3.128-.908-6.299-.908-9.422 0-12.253 4.518-24.01 12.722-33.104l9.538-10.573-10.062-10.074c-16.551-16.572-38.564-25.699-61.985-25.699-19.901 0-39.071 6.795-54.452 19.003l-10.667 236.997 10.667 236.996c15.381 12.209 34.551 19.004 54.453 19.004 48.305 0 87.603-39.299 87.603-87.603 0-32.374-17.508-61.498-45.377-76.766z" fill="#d88a55"/><path d="m256 19.004c-15.381-12.209-34.551-19.004-54.453-19.004-48.305 0-87.604 39.299-87.604 87.604 0 32.374 17.509 61.497 45.377 76.766v183.262c-27.869 15.268-45.377 44.391-45.377 76.765 0 48.305 39.299 87.603 87.604 87.603 19.902 0 39.071-6.795 54.452-19.004z" fill="#ea9b58"/></g><g><path d="m271 363.238v-226.902l-15-15-10.667 145.331 10.667 123.997 35.943 35.943 21.212-21.214z" fill="#c97840"/><path d="m220.057 85.393-21.213 21.214 42.156 42.155v214.476l-42.156 42.155 21.213 21.214 35.943-35.943v-269.328z" fill="#d88349"/></g></g></svg>