<svg xmlns="http://www.w3.org/2000/svg" width="30" height="30" viewBox="0 0 30 30">
  <g id="_33" data-name="33" transform="translate(757 -4312)">
    <rect id="Rectangle_94" data-name="Rectangle 94" width="10" height="8" transform="translate(-738 4323)" fill="#e7ff6e"/>
    <rect id="Rectangle_95" data-name="Rectangle 95" width="1" height="8" transform="translate(-747 4323)"/>
    <rect id="Rectangle_96" data-name="Rectangle 96" width="1" height="8" transform="translate(-738 4323)"/>
    <path id="Subtraction_5" data-name="Subtraction 5" d="M-869,3771h-20a5.006,5.006,0,0,1-5-5v-20a5.006,5.006,0,0,1,5-5h20a5.006,5.006,0,0,1,5,5v20A5.006,5.006,0,0,1-869,3771Zm-24-10v5a4,4,0,0,0,4,4h20a4,4,0,0,0,4-4v-5Zm0-9v8h28v-8Zm4-10a4,4,0,0,0-4,4v5h28v-5a4,4,0,0,0-4-4Z" transform="translate(137 571)"/>
  </g>
</svg>
