<svg id="woman" xmlns="http://www.w3.org/2000/svg" xmlns:xlink="http://www.w3.org/1999/xlink"
     viewBox="0 0 115.558000 162.322000" shape-rendering="geometricPrecision" text-rendering="geometricPrecision">
    <g id="woman-woman" transform="matrix(1 0 0 1 -1.88900000000000 -28)">
        <ellipse id="woman-bun" rx="12.769000" ry="12.695000"
                 transform="matrix(1 0 0 1 58.78600000000000 40.69500000000000)" fill="rgb(61,61,61)" stroke="none"
                 stroke-width="1"/>
        <path id="woman-union-4"
              d="M-208.200000,-75.948000C-209.429717,-75.948000,-210.609053,-76.436572,-211.478501,-77.306206C-212.347948,-78.175841,-212.836265,-79.355283,-212.836000,-80.585000L-212.836000,-87.321000C-214.195930,-86.703763,-215.692410,-86.448838,-217.180000,-86.581000C-221.961012,-87.000110,-225.497544,-91.214851,-225.080000,-95.996000C-223.744000,-111.264000,-216.474000,-126.006000,-203.585000,-140.152000C-202.940919,-140.860533,-202.184028,-141.457599,-201.345000,-141.919000C-194.144513,-149.031679,-184.427117,-153.014018,-174.306000,-153L-161.243000,-153C-151.459775,-153.013309,-142.040518,-149.291247,-134.909000,-142.594000C-133.438351,-142.135311,-132.116842,-141.292279,-131.081000,-140.152000C-118.191000,-126.007000,-110.923000,-111.264000,-109.586000,-95.996000C-109.169026,-91.215030,-112.705264,-87.000640,-117.486000,-86.581000C-119.312096,-86.417195,-121.143047,-86.837379,-122.715000,-87.781000L-122.715000,-80.581000C-122.715000,-79.351191,-123.203540,-78.171752,-124.073146,-77.302146C-124.942752,-76.432540,-126.122191,-75.944000,-127.352000,-75.944000Z"
              transform="matrix(1 0 0 1 227 266.26999999999998)" fill="rgb(255,177,0)" stroke="none" stroke-width="1"/>
        <path id="woman-path1"
              d="M3.384000,161.381000L20.468000,164.736000C19.929976,166.794987,19.545586,168.891083,19.318000,171.007000L19.242000,171.789000C18.823644,176.571510,14.607510,180.109356,9.825000,179.691000C5.042490,179.272644,1.504644,175.056510,1.923000,170.274000C2.186430,167.277240,2.674806,164.304527,3.384000,161.381000Z"
              fill="rgb(255,203,163)" stroke="none" stroke-width="1"/>
        <path id="woman-path2"
              d="M115.952000,161.381000C116.661086,164.304549,117.149462,167.277253,117.413000,170.274000C117.844991,175.016027,114.381176,179.222905,109.644402,179.709129C104.907628,180.195352,100.661392,176.779900,100.121000,172.049000L100.095000,171.789000C99.883529,169.407880,99.473096,167.048642,98.868000,164.736000Z"
              fill="rgb(255,203,163)" stroke="none" stroke-width="1"/>
        <path id="woman-union-3"
              d="M-166.400000,-98.109000L-166.400000,-153L-147.327000,-153C-139.454422,-145.715871,-134.985150,-135.472475,-135,-124.747000L-135,-94.588000L-162.886000,-94.588000C-164.827632,-94.592410,-166.399454,-96.167363,-166.400000,-98.109000ZM-225.106000,-94.588000L-225.106000,-124.747000C-225.120077,-135.472932,-220.649687,-145.716398,-212.776000,-153L-195.170000,-153L-195.170000,-98.110000C-195.170552,-96.164691,-196.747691,-94.588000,-198.693000,-94.588000Z"
              transform="matrix(1 0 0 1 239.28000000000000 276.54300000000001)" fill="rgb(255,149,0)" stroke="none"
              stroke-width="1"/>
        <circle id="woman-button" r="3.622000" transform="matrix(1 0 0 1 58.15500000000000 145.64299999999997)"
                fill="rgb(255,255,255)" stroke="none" stroke-width="1"/>
        <path id="woman-r-collar"
              d="M51.961000,115.178000C54.043480,115.178000,56.040667,116.005262,57.513202,117.477798C58.985738,118.950333,59.813000,120.947520,59.813000,123.030000L59.813000,128.336000C59.877265,131.182778,58.395278,133.841249,55.940049,135.283513C53.484820,136.725778,50.441180,136.725778,47.985951,135.283513C45.530722,133.841249,44.048735,131.182778,44.113000,128.336000L44.113000,123.030000C44.112999,118.695022,47.626022,115.180208,51.961000,115.178000Z"
              fill="rgb(255,255,255)" fill-rule="evenodd" stroke="none" stroke-width="1"/>
        <path id="woman-l-collar"
              d="M65.023000,115.178000C67.105480,115.178000,69.102667,116.005262,70.575202,117.477798C72.047738,118.950333,72.875000,120.947520,72.875000,123.030000L72.875000,128.336000C72.939265,131.182778,71.457278,133.841249,69.002049,135.283513C66.546820,136.725778,63.503180,136.725778,61.047951,135.283513C58.592722,133.841249,57.110735,131.182778,57.175000,128.336000L57.175000,123.030000C57.174999,118.695022,60.688022,115.180208,65.023000,115.178000Z"
              fill="rgb(255,255,255)" fill-rule="evenodd" stroke="none" stroke-width="1"/>
        <path id="woman-hair"
              d="M43.474000,56.472000L73.900000,56.472000C88.464025,56.472000,100.270500,68.278475,100.270500,82.842500C100.270500,97.406525,88.464025,109.213000,73.900000,109.213000L43.474000,109.213000C28.909975,109.213000,17.103500,97.406525,17.103500,82.842500C17.103500,68.278475,28.909975,56.472000,43.474000,56.472000Z"
              fill="rgb(61,61,61)" fill-rule="evenodd" stroke="none" stroke-width="1"/>
        <path id="woman-path3"
              d="M73.900000,109.213000L43.474000,109.213000C30.198770,109.212034,18.993103,99.344484,17.313000,86.176000L100.065000,86.176000C98.384286,99.345773,87.176586,109.213604,73.900000,109.213000Z"
              fill="rgb(202,201,201)" fill-rule="evenodd" stroke="none" stroke-width="1"/>
        <path id="woman-head"
              d="M59.005000,66.600000C77.039468,66.600000,91.659448,81.219532,91.660000,99.254000L91.660000,123.691000L26.350000,123.691000L26.350000,99.254000C26.350552,81.219532,40.970532,66.600000,59.005000,66.600000Z"
              fill="rgb(255,203,163)" fill-rule="evenodd" stroke="none" stroke-width="1"/>
        <path id="woman-f-hair" d="M36.406000,64.251000L84.100000,64.251000L84.100000,72.030000L36.400000,72.030000Z"
              fill="rgb(61,61,61)" fill-rule="evenodd" stroke="none" stroke-width="1"/>
        <path id="woman-rectangle-130-copy-42"
              d="M51.357000,79.513000C53.163124,79.513000,54.895274,80.230480,56.172397,81.507603C57.449520,82.784726,58.167000,84.516876,58.167000,86.323000L58.167000,90.523000C58.167000,92.955979,56.869021,95.204144,54.762000,96.420633C52.654979,97.637122,50.059021,97.637122,47.952000,96.420633C45.844979,95.204144,44.547000,92.955979,44.547000,90.523000L44.547000,86.323000C44.547000,82.561941,47.595941,79.513000,51.357000,79.513000Z"
              fill="rgb(255,255,255)" fill-rule="evenodd" stroke="none" stroke-width="1"/>
        <path id="woman-rectangle-130-copy-422"
              d="M67.484000,79.513000C65.677876,79.513000,63.945726,80.230480,62.668603,81.507603C61.391480,82.784726,60.674000,84.516876,60.674000,86.323000L60.674000,90.523000C60.674000,94.284059,63.722941,97.333000,67.484000,97.333000C71.245059,97.333000,74.294000,94.284059,74.294000,90.523000L74.294000,86.323000C74.294000,84.516876,73.576520,82.784726,72.299397,81.507603C71.022274,80.230480,69.290124,79.513000,67.484000,79.513000Z"
              fill="rgb(255,255,255)" fill-rule="evenodd" stroke="none" stroke-width="1"/>
        <path id="woman-union-1"
              d="M-208.366000,-146.081000L-208.366000,-149.933000C-208.366000,-151.626467,-206.993467,-152.999448,-205.300000,-153C-204.486581,-153,-203.706478,-152.676871,-203.131304,-152.101696C-202.556129,-151.526522,-202.233000,-150.746419,-202.233000,-149.933000L-202.233000,-146.081000C-202.233000,-145.267581,-202.556129,-144.487478,-203.131304,-143.912304C-203.706478,-143.337129,-204.486581,-143.014000,-205.300000,-143.014000C-206.993467,-143.014552,-208.366000,-144.387533,-208.366000,-146.081000ZM-225.110000,-146.081000L-225.110000,-149.933000C-225.110000,-151.626467,-223.737467,-152.999448,-222.044000,-153C-221.230581,-153,-220.450478,-152.676871,-219.875304,-152.101696C-219.300129,-151.526522,-218.977000,-150.746419,-218.977000,-149.933000L-218.977000,-146.081000C-218.977000,-145.267581,-219.300129,-144.487478,-219.875304,-143.912304C-220.450478,-143.337129,-221.230581,-143.014000,-222.044000,-143.014000C-223.737857,-143.014000,-225.111000,-144.387143,-225.111000,-146.081000Z"
              transform="matrix(1 0 0 1 270.26400000000001 235.50200000000001)" fill="rgb(61,61,61)" stroke="none"
              stroke-width="1"/>
        <path id="woman-oval-copy-22"
              d="M63.743000,86.400000C62.834578,86.400000,62.015605,85.852780,61.667967,85.013507C61.320328,84.174234,61.512487,83.208190,62.154838,82.565838C62.797190,81.923487,63.763234,81.731328,64.602507,82.078967C65.441780,82.426605,65.989000,83.245578,65.989000,84.154000C65.989000,85.394432,64.983432,86.400000,63.743000,86.400000Z"
              fill="rgb(255,255,255)" fill-rule="evenodd" stroke="none" stroke-width="1"/>
        <path id="woman-union-2"
              d="M-199.027000,-134.339000L-199.338000,-134.690000L-199.938000,-135.378000L-200.518000,-136.051000L-201.071000,-136.707000L-201.599000,-137.348000L-202.099000,-137.973000L-202.577000,-138.580000C-202.655000,-138.680000,-202.732000,-138.780000,-202.806000,-138.880000L-203.246000,-139.465000L-203.661000,-140.033000L-204.050000,-140.586000L-204.415000,-141.122000Q-204.965000,-141.949000,-205.391000,-142.697000C-207.367409,-139.615247,-209.630097,-136.726788,-212.149000,-134.070000L-225.103000,-145.190000L-220.675000,-153.003000Q-209.204000,-152.203000,-204.868000,-149.543000C-202.788827,-150.505100,-200.587722,-151.178015,-198.326000,-151.543000L-197.463000,-151.698000L-196.563000,-151.843000Q-195.187000,-152.055000,-193.652000,-152.223000L-192.611000,-152.331000L-191.533000,-152.431000L-190.420000,-152.520000L-189.850000,-152.561000L-185.421000,-144.748000L-198.376000,-133.628000Z"
              transform="matrix(1 0 0 1 264.23000000000002 242.31000000000000)" fill="rgb(255,203,163)" stroke="none"
              stroke-width="1"/>
        <path id="woman-oval-copy-31"
              d="M59.446000,99.915000C61.278421,99.903985,62.755416,98.410430,62.746000,96.578000C62.585291,95.528222,62.197250,94.526208,61.609000,93.642000L61.355000,93.209000L61.355000,93.209000L61.095000,92.785000L61.095000,92.785000L60.835000,92.377000L60.835000,92.377000L60.581000,91.990000L60.581000,91.990000L60.223000,91.463000L60.223000,91.463000L59.823000,90.891000L59.823000,90.891000L59.446000,90.375000L59.446000,90.375000L59.151000,90.775000L59.151000,90.775000L58.666000,91.462000L58.666000,91.462000L58.309000,91.989000L58.309000,91.989000L58.055000,92.376000L58.055000,92.376000L57.795000,92.784000L57.795000,92.784000L57.535000,93.208000L57.535000,93.208000L57.281000,93.641000C56.692750,94.525208,56.304709,95.527222,56.144000,96.577000C56.139213,97.457523,56.484415,98.303882,57.103663,98.929881C57.722911,99.555880,58.565477,99.910239,59.446000,99.915000Z"
              fill="rgb(232,150,101)" fill-rule="evenodd" stroke="none" stroke-width="1"/>
        <path id="woman-path4"
              d="M48.776000,98.784000C49.179735,98.455994,49.772918,98.517326,50.101000,98.921000C54.460000,104.284000,59.566000,105.185000,65.741000,101.665000C66.193045,101.407359,66.768359,101.564955,67.026000,102.017000C67.283641,102.469045,67.126045,103.044359,66.674000,103.302000C59.705000,107.273000,53.585000,106.194000,48.639000,100.109000C48.310994,99.705265,48.372326,99.112082,48.776000,98.784000Z"
              fill="rgb(232,150,101)" stroke="none" stroke-width="1"/>
        <path id="woman-path5"
              d="M64.118000,111.339000C64.454422,111.137048,64.890459,111.239397,65.101890,111.569944C65.313321,111.900491,65.223405,112.339261,64.899000,112.560000C61.367441,115.060389,56.642559,115.060389,53.111000,112.560000C52.786595,112.339261,52.696679,111.900491,52.908110,111.569944C53.119541,111.239397,53.555578,111.137048,53.892000,111.339000C56.946981,113.534994,61.063019,113.534994,64.118000,111.339000Z"
              fill="rgb(247,178,134)" stroke="none" stroke-width="1"/>
        <path id="woman-path-67-copy-4"
              d="M42.054000,87.176000L58.709000,87.176000C61.357000,87.176000,60.137000,81.614000,55.924000,79.749000C52.690000,78.317000,46.562000,80.249000,45.933000,80.249000Q44.485000,80.253000,42.054000,87.176000Z"
              fill="rgb(255,203,163)" fill-rule="evenodd" stroke="none" stroke-width="1"/>
        <path id="woman-path-67-copy-5"
              d="M57.611000,86.400000L74.266000,86.400000C76.914000,86.400000,75.694000,81.643000,71.481000,79.984000C68.247000,78.710000,62.119000,80.432000,61.490000,80.432000Q60.043000,80.432000,57.611000,86.400000Z"
              fill="rgb(255,203,163)" fill-rule="evenodd" stroke="none" stroke-width="1"/>
        <path id="woman-path6"
              d="M80.962000,87.500000C81.313523,87.354900,81.717420,87.506075,81.887282,87.846324C82.057144,88.186574,81.935234,88.600246,81.608000,88.794000L81.520000,88.838000L77.787000,90.400000L81.534000,92.065000C81.864255,92.212833,82.034950,92.581535,81.934000,92.929000L81.900000,93.021000C81.752167,93.351255,81.383465,93.521950,81.036000,93.421000L80.944000,93.387000L75.660000,91.039000C75.414829,90.929855,75.250004,90.694205,75.231569,90.426471C75.213133,90.158737,75.344103,89.902719,75.572000,89.761000L75.672000,89.709000Z"
              fill="rgb(243,165,119)" stroke="none" stroke-width="1"/>
        <path id="woman-path7"
              d="M36.756000,87.500000C36.397015,87.321612,35.961388,87.468015,35.783000,87.827000C35.604612,88.185985,35.751015,88.621612,36.110000,88.800000L36.198000,88.844000L39.930000,90.400000L36.183000,92.065000C35.852745,92.212833,35.682050,92.581535,35.783000,92.929000L35.817000,93.021000C35.964502,93.351581,36.333500,93.522414,36.681000,93.421000L36.774000,93.387000L42.057000,91.039000C42.302171,90.929855,42.466996,90.694205,42.485431,90.426471C42.503867,90.158737,42.372897,89.902719,42.145000,89.761000L42.045000,89.709000Z"
              fill="rgb(243,165,119)" stroke="none" stroke-width="1"/>
        <path id="woman-rectangle-copy-18"
              d="M27.800000,66.012000L34.289000,66.012000C36.114220,66.012000,37.864684,66.737066,39.155309,68.027691C40.445934,69.318316,41.171000,71.068780,41.171000,72.894000L41.171000,79.383000C41.171000,81.208220,40.445934,82.958684,39.155309,84.249309C37.864684,85.539934,36.114220,86.265000,34.289000,86.265000L27.800000,86.265000C25.974780,86.265000,24.224316,85.539934,22.933691,84.249309C21.643066,82.958684,20.918000,81.208220,20.918000,79.383000L20.918000,72.895000C20.917735,71.069607,21.642683,69.318886,22.933338,68.028045C24.223992,66.737203,25.974607,66.012000,27.800000,66.012000Z"
              fill="rgb(61,61,61)" fill-rule="evenodd" stroke="none" stroke-width="1"/>
        <path id="woman-rectangle-copy-29"
              d="M83.720000,65.278000L89.328000,65.278000C91.153220,65.278000,92.903684,66.003066,94.194309,67.293691C95.484934,68.584316,96.210000,70.334780,96.210000,72.160000L96.210000,79.383000C96.210000,81.208220,95.484934,82.958683,94.194309,84.249309C92.903684,85.539934,91.153220,86.265000,89.328000,86.265000L83.720000,86.265000C81.894780,86.265000,80.144316,85.539934,78.853691,84.249309C77.563066,82.958684,76.838000,81.208220,76.838000,79.383000L76.838000,72.161000C76.837735,70.335607,77.562683,68.584886,78.853338,67.294045C80.143992,66.003203,81.894607,65.278000,83.720000,65.278000Z"
              fill="rgb(61,61,61)" fill-rule="evenodd" stroke="none" stroke-width="1"/>
        <path id="woman-path8"
              d="M49.900000,77.843000C56.104750,75.907400,62.752714,75.913332,68.954000,77.860000C70.111589,78.231411,70.748911,79.470911,70.377500,80.628500C70.006089,81.786089,68.766589,82.423411,67.609000,82.052000C62.244525,80.374643,56.495002,80.380576,51.134000,82.069000C49.967022,82.409760,48.744760,81.739978,48.404000,80.573000C48.063240,79.406022,48.733022,78.183760,49.900000,77.843000Z"
              fill="rgb(61,61,61)" stroke="none" stroke-width="1"/>
    </g>
    <script>
        <![CDATA[!
        function(t,n){"object"==typeof exports&&"undefined"!=typeof module?module.exports=n():
        "function"==typeof define&&define.amd?define(n):
        (t="undefined"!=typeof globalThis?globalThis:t||self).__SVGATOR_PLAYER__=n()}
        (this,(function(){"use strict";function t(n){return(t="function"==typeof Symbol&&
        "symbol"==typeof Symbol.iterator?function(t){return typeof t}:function(t){return t&&
        "function"==typeof Symbol&&t.constructor===Symbol&&t!==Symbol.prototype?"symbol":typeof t})(n)}function n(t,n){if(!(t instanceof n))throw new TypeError("Cannot call a class as a function")}function r(t,n){for(var r=0;r<n.length;r++){var e=n[r];e.enumerable=e.enumerable||!1,e.configurable=!0,"value"in e&&(e.writable=!0),Object.defineProperty(t,e.key,e)}}function e(t,n,e){return n&&r(t.prototype,n),e&&r(t,e),t}function i(t){return(i=Object.setPrototypeOf?Object.getPrototypeOf:function(t){return t.__proto__||Object.getPrototypeOf(t)})(t)}function o(t,n){return(o=Object.setPrototypeOf||function(t,n){return t.__proto__=n,t})(t,n)}function u(t,n){return!n||"object"!=typeof n&&"function"!=typeof n?function(t){if(void 0===t)throw new ReferenceError("this hasn't been initialised - super() hasn't been called");return t}(t):n}function a(t){var n=function(){if("undefined"==typeof Reflect||!Reflect.construct)return!1;if(Reflect.construct.sham)return!1;if("function"==typeof Proxy)return!0;try{return Boolean.prototype.valueOf.call(Reflect.construct(Boolean,[],(function(){}))),!0}catch(t){return!1}}();return function(){var r,e=i(t);if(n){var o=i(this).constructor;r=Reflect.construct(e,arguments,o)}else r=e.apply(this,arguments);return u(this,r)}}function l(t,n,r){return(l="undefined"!=typeof Reflect&&Reflect.get?Reflect.get:function(t,n,r){var e=function(t,n){for(;!Object.prototype.hasOwnProperty.call(t,n)&&null!==(t=i(t)););return t}(t,n);if(e){var o=Object.getOwnPropertyDescriptor(e,n);return o.get?o.get.call(r):o.value}})(t,n,r||t)}var f=Math.abs;function s(t){return t}function c(t,n,r){var e=1-r;return 3*r*e*(t*e+n*r)+r*r*r}function h(){var t=arguments.length>0&&void 0!==arguments[0]?arguments[0]:0,n=arguments.length>1&&void 0!==arguments[1]?arguments[1]:0,r=arguments.length>2&&void 0!==arguments[2]?arguments[2]:1,e=arguments.length>3&&void 0!==arguments[3]?arguments[3]:1;return t<0||t>1||r<0||r>1?null:f(t-n)<=1e-5&&f(r-e)<=1e-5?s:function(i){if(i<=0)return t>0?i*n/t:0===n&&r>0?i*e/r:0;if(i>=1)return r<1?1+(i-1)*(e-1)/(r-1):1===r&&t<1?1+(i-1)*(n-1)/(t-1):1;for(var o,u=0,a=1;u<a;){var l=c(t,r,o=(u+a)/2);if(f(i-l)<1e-5)break;l<i?u=o:a=o}return c(n,e,o)}}function v(){return 1}function y(t){return 1===t?1:0}function d(){var t=arguments.length>0&&void 0!==arguments[0]?arguments[0]:1,n=arguments.length>1&&void 0!==arguments[1]?arguments[1]:0;if(1===t){if(0===n)return y;if(1===n)return v}var r=1/t;return function(t){return t>=1?1:(t+=n*r)-t%r}}function g(t){var n=arguments.length>1&&void 0!==arguments[1]?arguments[1]:2;if(Number.isInteger(t))return t;var r=Math.pow(10,n);return Math.round(t*r)/r}var p=Math.PI/180;function m(t,n,r){return t>=.5?r:n}function b(t,n,r){return 0===t||n===r?n:t*(r-n)+n}function w(t,n,r){var e=b(t,n,r);return e<=0?0:e}function x(t,n,r){return 0===t?n:1===t?r:{x:b(t,n.x,r.x),y:b(t,n.y,r.y)}}function k(t,n,r){var e=function(t,n,r){return Math.round(b(t,n,r))}(t,n,r);return e<=0?0:e>=255?255:e}function A(t,n,r){return 0===t?n:1===t?r:{r:k(t,n.r,r.r),g:k(t,n.g,r.g),b:k(t,n.b,r.b),a:b(t,null==n.a?1:n.a,null==r.a?1:r.a)}}function _(t,n,r){if(0===t)return n;if(1===t)return r;var e=n.length;if(e!==r.length)return m(t,n,r);for(var i=[],o=0;o<e;o++)i.push(A(t,n[o],r[o]));return i}function S(t,n){for(var r=[],e=0;e<t;e++)r.push(n);return r}function O(t,n){if(--n<=0)return t;var r=(t=Object.assign([],t)).length;do{for(var e=0;e<r;e++)t.push(t[e])}while(--n>0);return t}var M,j=function(){function t(r){n(this,t),this.list=r,this.length=r.length}return e(t,[{key:"setAttribute",value:function(t,n){for(var r=this.list,e=0;e<this.length;e++)r[e].setAttribute(t,n)}},{key:"removeAttribute",value:function(t){for(var n=this.list,r=0;r<this.length;r++)n[r].removeAttribute(t)}},{key:"style",value:function(t,n){for(var r=this.list,e=0;e<this.length;e++)r[e].style[t]=n}}]),t}(),F=/-./g,P=function(t,n){return n.toUpperCase()};function B(t){return"function"==typeof t?t:m}function I(t){return t?"function"==typeof t?t:Array.isArray(t)?function(t){var n=arguments.length>1&&void 0!==arguments[1]?arguments[1]:s;if(!Array.isArray(t))return n;switch(t.length){case 1:return d(t[0])||n;case 2:return d(t[0],t[1])||n;case 4:return h(t[0],t[1],t[2],t[3])||n}return n}(t,null):function(t,n){var r=arguments.length>2&&void 0!==arguments[2]?arguments[2]:s;switch(t){case"linear":return s;case"steps":return d(n.steps||1,n.jump||0)||r;case"bezier":case"cubic-bezier":return h(n.x1||0,n.y1||0,n.x2||0,n.y2||0)||r}return r}(t.type,t.value,null):null}function R(t,n,r){var e=arguments.length>3&&void 0!==arguments[3]&&arguments[3],i=n.length-1;if(t<=n[0].t)return e?[0,0,n[0].v]:n[0].v;if(t>=n[i].t)return e?[i,1,n[i].v]:n[i].v;var o,u=n[0],a=null;for(o=1;o<=i;o++){if(!(t>n[o].t)){a=n[o];break}u=n[o]}return null==a?e?[i,1,n[i].v]:n[i].v:u.t===a.t?e?[o,1,a.v]:a.v:(t=(t-u.t)/(a.t-u.t),u.e&&(t=u.e(t)),e?[o,t,r(t,u.v,a.v)]:r(t,u.v,a.v))}function q(t,n){var r=arguments.length>2&&void 0!==arguments[2]?arguments[2]:null;return t&&t.length?"function"!=typeof n?null:("function"!=typeof r&&(r=null),function(e){var i=R(e,t,n);return null!=i&&r&&(i=r(i)),i}):null}function E(t,n){return t.t-n.t}function T(n,r,e,i,o){var u,a="@"===e[0],l="#"===e[0],f=M[e],s=m;switch(a?(u=e.substr(1),e=u.replace(F,P)):l&&(e=e.substr(1)),t(f)){case"function":if(s=f(i,o,R,I,e,a,r,n),l)return s;break;case"string":s=q(i,B(f));break;case"object":if((s=q(i,B(f.i),f.f))&&"function"==typeof f.u)return f.u(r,s,e,a,n)}return s?function(t,n,r){var e=arguments.length>3&&void 0!==arguments[3]&&arguments[3];if(e)return t instanceof j?function(e){return t.style(n,r(e))}:function(e){return t.style[n]=r(e)};if(Array.isArray(n)){var i=n.length;return function(e){var o=r(e);if(null==o)for(var u=0;u<i;u++)t[u].removeAttribute(n);else for(var a=0;a<i;a++)t[a].setAttribute(n,o)}}return function(e){var i=r(e);null==i?t.removeAttribute(n):t.setAttribute(n,i)}}(r,e,s,a):null}function N(n,r,e,i){if(!i||"object"!==t(i))return null;var o=null,u=null;return Array.isArray(i)?u=function(t){if(!t||!t.length)return null;for(var n=0;n<t.length;n++)t[n].e&&(t[n].e=I(t[n].e));return t.sort(E)}(i):(u=i.keys,o=i.data||null),u?T(n,r,e,u,o):null}function C(t,n,r){if(!r)return null;var e=[];for(var i in r)if(r.hasOwnProperty(i)){var o=N(t,n,i,r[i]);o&&e.push(o)}return e.length?e:null}function z(t,n){if(!n.duration||n.duration<0)return null;var r=function(t,n){if(!n)return null;var r=[];if(Array.isArray(n))for(var e=n.length,i=0;i<e;i++){var o=n[i];if(2===o.length){var u=null;if("string"==typeof o[0])u=t.getElementById(o[0]);else if(Array.isArray(o[0])){u=[];for(var a=0;a<o[0].length;a++)if("string"==typeof o[0][a]){var l=t.getElementById(o[0][a]);l&&u.push(l)}u=u.length?1===u.length?u[0]:new j(u):null}if(u){var f=C(t,u,o[1]);f&&(r=r.concat(f))}}}else for(var s in n)if(n.hasOwnProperty(s)){var c=t.getElementById(s);if(c){var h=C(t,c,n[s]);h&&(r=r.concat(h))}}return r.length?r:null}(t,n.elements);return r?function(t,n){var r=arguments.length>2&&void 0!==arguments[2]?arguments[2]:1/0,e=arguments.length>3&&void 0!==arguments[3]?arguments[3]:1,i=arguments.length>4&&void 0!==arguments[4]&&arguments[4],o=arguments.length>5&&void 0!==arguments[5]?arguments[5]:1,u=t.length,a=e>0?n:0;i&&r%2==0&&(a=n-a);var l=null;return function(f,s){var c=f%n,h=1+(f-c)/n;s*=e,i&&h%2==0&&(s=-s);var v=!1;if(h>r)c=a,v=!0,-1===o&&(c=e>0?0:n);else if(s<0&&(c=n-c),c===l)return!1;l=c;for(var y=0;y<u;y++)t[y](c);return v}}(r,n.duration,n.iterations||1/0,n.direction||1,!!n.alternate,n.fill||1):null}var L=function(){function t(r,e){var i=arguments.length>2&&void 0!==arguments[2]?arguments[2]:{};n(this,t),this._id=0,this._running=!1,this._rollingBack=!1,this._animations=r,this.duration=e.duration,this.alternate=e.alternate,this.fill=e.fill,this.iterations=e.iterations,this.direction=i.direction||1,this.speed=i.speed||1,this.fps=i.fps||100,this.offset=i.offset||0,this.rollbackStartOffset=0}return e(t,[{key:"_rollback",value:function(){var t=this,n=1/0,r=null;this.rollbackStartOffset=this.offset,this._rollingBack||(this._rollingBack=!0,this._running=!0);this._id=window.requestAnimationFrame((function e(i){if(t._rollingBack){null==r&&(r=i);var o=i-r,u=t.rollbackStartOffset-o,a=Math.round(u*t.speed);if(a>t.duration&&n!=1/0){var l=!!t.alternate&&a/t.duration%2>1,f=a%t.duration;a=(f+=l?t.duration:0)||t.duration}var s=t.fps?1e3/t.fps:0,c=Math.max(0,a);if(c<n-s){t.offset=c,n=c;for(var h=t._animations,v=h.length,y=0;y<v;y++)h[y](c,t.direction)}var d=!1;if(t.iterations>0&&-1===t.fill){var g=t.iterations*t.duration,p=g==a;a=p?0:a,t.offset=p?0:t.offset,d=a>g}a>0&&t.offset>=a&&!d?t._id=window.requestAnimationFrame(e):t.stop()}}))}},{key:"_start",value:function(){var t=this,n=arguments.length>0&&void 0!==arguments[0]?arguments[0]:0,r=-1/0,e=null,i={},o=function o(u){t._running=!0,null==e&&(e=u);var a=Math.round((u-e+n)*t.speed),l=t.fps?1e3/t.fps:0;if(a>r+l&&!t._rollingBack){t.offset=a,r=a;for(var f=t._animations,s=f.length,c=0,h=0;h<s;h++)i[h]?c++:(i[h]=f[h](a,t.direction),i[h]&&c++);if(c===s)return void t._stop()}t._id=window.requestAnimationFrame(o)};this._id=window.requestAnimationFrame(o)}},{key:"_stop",value:function(){this._id&&window.cancelAnimationFrame(this._id),this._running=!1,this._rollingBack=!1}},{key:"play",value:function(){!this._rollingBack&&this._running||(this._rollingBack=!1,this.rollbackStartOffset>this.duration&&(this.offset=this.rollbackStartOffset-(this.rollbackStartOffset-this.offset)%this.duration,this.rollbackStartOffset=0),this._start(this.offset))}},{key:"stop",value:function(){this._stop(),this.offset=0,this.rollbackStartOffset=0;var t=this.direction,n=this._animations;window.requestAnimationFrame((function(){for(var r=0;r<n.length;r++)n[r](0,t)}))}},{key:"reachedToEnd",value:function(){return this.iterations>0&&this.offset>=this.iterations*this.duration}},{key:"restart",value:function(){this._stop(),this.offset=0,this._start()}},{key:"pause",value:function(){this._stop()}},{key:"reverse",value:function(){this.direction=-this.direction}}],[{key:"build",value:function(n,r){return(n=function(t,n){if(M=n,!t||!t.root||!Array.isArray(t.animations))return null;for(var r=document.getElementsByTagName("svg"),e=!1,i=0;i<r.length;i++)if(r[i].id===t.root&&!r[i].svgatorAnimation){(e=r[i]).svgatorAnimation=!0;break}if(!e)return null;var o=t.animations.map((function(t){return z(e,t)})).filter((function(t){return!!t}));return o.length?{element:e,animations:o,animationSettings:t.animationSettings,options:t.options||void 0}:null}(n,r))?{el:n.element,options:n.options||{},player:new t(n.animations,n.animationSettings,n.options)}:null}}]),t}();!function(){for(var t=0,n=["ms","moz","webkit","o"],r=0;r<n.length&&!window.requestAnimationFrame;++r)window.requestAnimationFrame=window[n[r]+"RequestAnimationFrame"],window.cancelAnimationFrame=window[n[r]+"CancelAnimationFrame"]||window[n[r]+"CancelRequestAnimationFrame"];window.requestAnimationFrame||(window.requestAnimationFrame=function(n){var r=Date.now(),e=Math.max(0,16-(r-t)),i=window.setTimeout((function(){n(r+e)}),e);return t=r+e,i},window.cancelAnimationFrame=window.clearTimeout)}();var D=/\.0+$/g;function Q(t){return Number.isInteger(t)?t+"":t.toFixed(6).replace(D,"")}function U(t){var n=arguments.length>1&&void 0!==arguments[1]?arguments[1]:" ";return t&&t.length?t.map(Q).join(n):""}function V(t){return t?null==t.a||t.a>=1?"rgb("+t.r+","+t.g+","+t.b+")":"rgba("+t.r+","+t.g+","+t.b+","+t.a+")":"transparent"}var $={f:null,i:function(t,n,r){return 0===t?n:1===t?r:{x:w(t,n.x,r.x),y:w(t,n.y,r.y)}},u:function(t,n){return function(r){var e=n(r);t.setAttribute("rx",Q(e.x)),t.setAttribute("ry",Q(e.y))}}},G={f:null,i:function(t,n,r){return 0===t?n:1===t?r:{width:w(t,n.width,r.width),height:w(t,n.height,r.height)}},u:function(t,n){return function(r){var e=n(r);t.setAttribute("width",Q(e.width)),t.setAttribute("height",Q(e.height))}}},H=Math.sin,Y=Math.cos,Z=Math.acos,J=Math.asin,K=Math.tan,W=Math.atan2,X=Math.PI/180,tt=180/Math.PI,nt=Math.sqrt,rt=function(){function t(){var r=arguments.length>0&&void 0!==arguments[0]?arguments[0]:1,e=arguments.length>1&&void 0!==arguments[1]?arguments[1]:0,i=arguments.length>2&&void 0!==arguments[2]?arguments[2]:0,o=arguments.length>3&&void 0!==arguments[3]?arguments[3]:1,u=arguments.length>4&&void 0!==arguments[4]?arguments[4]:0,a=arguments.length>5&&void 0!==arguments[5]?arguments[5]:0;n(this,t),this.m=[r,e,i,o,u,a],this.i=null,this.w=null,this.s=null}return e(t,[{key:"determinant",get:function(){var t=this.m;return t[0]*t[3]-t[1]*t[2]}},{key:"isIdentity",get:function(){if(null===this.i){var t=this.m;this.i=1===t[0]&&0===t[1]&&0===t[2]&&1===t[3]&&0===t[4]&&0===t[5]}return this.i}},{key:"point",value:function(t,n){var r=this.m;return{x:r[0]*t+r[2]*n+r[4],y:r[1]*t+r[3]*n+r[5]}}},{key:"translateSelf",value:function(){var t=arguments.length>0&&void 0!==arguments[0]?arguments[0]:0,n=arguments.length>1&&void 0!==arguments[1]?arguments[1]:0;if(!t&&!n)return this;var r=this.m;return r[4]+=r[0]*t+r[2]*n,r[5]+=r[1]*t+r[3]*n,this.w=this.s=this.i=null,this}},{key:"rotateSelf",value:function(){var t=arguments.length>0&&void 0!==arguments[0]?arguments[0]:0;if(t%=360){var n=H(t*=X),r=Y(t),e=this.m,i=e[0],o=e[1];e[0]=i*r+e[2]*n,e[1]=o*r+e[3]*n,e[2]=e[2]*r-i*n,e[3]=e[3]*r-o*n,this.w=this.s=this.i=null}return this}},{key:"scaleSelf",value:function(){var t=arguments.length>0&&void 0!==arguments[0]?arguments[0]:1,n=arguments.length>1&&void 0!==arguments[1]?arguments[1]:1;if(1!==t||1!==n){var r=this.m;r[0]*=t,r[1]*=t,r[2]*=n,r[3]*=n,this.w=this.s=this.i=null}return this}},{key:"skewSelf",value:function(t,n){if(n%=360,(t%=360)||n){var r=this.m,e=r[0],i=r[1],o=r[2],u=r[3];t&&(t=K(t*X),r[2]+=e*t,r[3]+=i*t),n&&(n=K(n*X),r[0]+=o*n,r[1]+=u*n),this.w=this.s=this.i=null}return this}},{key:"resetSelf",value:function(){var t=arguments.length>0&&void 0!==arguments[0]?arguments[0]:1,n=arguments.length>1&&void 0!==arguments[1]?arguments[1]:0,r=arguments.length>2&&void 0!==arguments[2]?arguments[2]:0,e=arguments.length>3&&void 0!==arguments[3]?arguments[3]:1,i=arguments.length>4&&void 0!==arguments[4]?arguments[4]:0,o=arguments.length>5&&void 0!==arguments[5]?arguments[5]:0,u=this.m;return u[0]=t,u[1]=n,u[2]=r,u[3]=e,u[4]=i,u[5]=o,this.w=this.s=this.i=null,this}},{key:"recomposeSelf",value:function(){var t=arguments.length>0&&void 0!==arguments[0]?arguments[0]:null,n=arguments.length>1&&void 0!==arguments[1]?arguments[1]:null,r=arguments.length>2&&void 0!==arguments[2]?arguments[2]:null,e=arguments.length>3&&void 0!==arguments[3]?arguments[3]:null,i=arguments.length>4&&void 0!==arguments[4]?arguments[4]:null;return this.isIdentity||this.resetSelf(),t&&(t.x||t.y)&&this.translateSelf(t.x,t.y),n&&this.rotateSelf(n),r&&(r.x&&this.skewSelf(r.x,0),r.y&&this.skewSelf(0,r.y)),!e||1===e.x&&1===e.y||this.scaleSelf(e.x,e.y),i&&(i.x||i.y)&&this.translateSelf(i.x,i.y),this}},{key:"decompose",value:function(){var t=arguments.length>0&&void 0!==arguments[0]?arguments[0]:0,n=arguments.length>1&&void 0!==arguments[1]?arguments[1]:0,r=this.m,e=r[0]*r[0]+r[1]*r[1],i=[[r[0],r[1]],[r[2],r[3]]],o=nt(e);if(0===o)return{origin:{x:r[4],y:r[5]},translate:{x:t,y:n},scale:{x:0,y:0},skew:{x:0,y:0},rotate:0};i[0][0]/=o,i[0][1]/=o;var u=r[0]*r[3]-r[1]*r[2]<0;u&&(o=-o);var a=i[0][0]*i[1][0]+i[0][1]*i[1][1];i[1][0]-=i[0][0]*a,i[1][1]-=i[0][1]*a;var l=nt(i[1][0]*i[1][0]+i[1][1]*i[1][1]);if(0===l)return{origin:{x:r[4],y:r[5]},translate:{x:t,y:n},scale:{x:o,y:0},skew:{x:0,y:0},rotate:0};i[1][0]/=l,i[1][1]/=l,a/=l;var f=0;return i[1][1]<0?(f=Z(i[1][1])*tt,i[0][1]<0&&(f=360-f)):f=J(i[0][1])*tt,u&&(f=-f),a=W(a,nt(i[0][0]*i[0][0]+i[0][1]*i[0][1]))*tt,u&&(a=-a),{origin:{x:r[4],y:r[5]},translate:{x:t,y:n},scale:{x:o,y:l},skew:{x:a,y:0},rotate:f}}},{key:"toString",value:function(){return null===this.s&&(this.s="matrix("+this.m.map(it).join(" ")+")"),this.s}}]),t}(),et=/\.0+$/;function it(t){return Number.isInteger(t)?t:t.toFixed(14).replace(et,"")}function ot(t,n,r){return t+(n-t)*r}function ut(t,n,r){var e=arguments.length>3&&void 0!==arguments[3]&&arguments[3],i={x:ot(t.x,n.x,r),y:ot(t.y,n.y,r)};return e&&(i.a=at(t,n)),i}function at(t,n){return Math.atan2(n.y-t.y,n.x-t.x)}Object.freeze({M:2,L:2,Z:0,H:1,V:1,C:6,Q:4,T:2,S:4,A:7});var lt={},ft=null;function st(n){var r=function(){if(ft)return ft;if("object"!==("undefined"==typeof document?"undefined":t(document)))return{};var n=document.createElementNS("http://www.w3.org/2000/svg","svg");return n.style.position="absolute",n.style.opacity="0.01",n.style.zIndex="-9999",n.style.left="-9999px",n.style.width="1px",n.style.height="1px",ft={svg:n}}().svg;if(!r)return function(t){return null};var e=document.createElementNS(r.namespaceURI,"path");e.setAttributeNS(null,"d",n),e.setAttributeNS(null,"fill","none"),e.setAttributeNS(null,"stroke","none"),r.appendChild(e);var i=e.getTotalLength();return function(t){var n=e.getPointAtLength(i*t);return{x:n.x,y:n.y}}}function ct(t){return lt[t]?lt[t]:lt[t]=st(t)}function ht(t,n,r,e){if(!t||!e)return!1;var i=["M",t.x,t.y];if(n&&r&&(i.push("C"),i.push(n.x),i.push(n.y),i.push(r.x),i.push(r.y)),n?!r:r){var o=n||r;i.push("Q"),i.push(o.x),i.push(o.y)}return n||r||i.push("L"),i.push(e.x),i.push(e.y),i.join(" ")}function vt(t,n,r,e){var i=arguments.length>4&&void 0!==arguments[4]?arguments[4]:1,o=ht(t,n,r,e),u=ct(o);try{return u(i)}catch(t){return null}}function yt(t,n,r,e){var i=1-e;return i*i*t+2*i*e*n+e*e*r}function dt(t,n,r,e){return 2*(1-e)*(n-t)+2*e*(r-n)}function gt(t,n,r,e){var i=arguments.length>4&&void 0!==arguments[4]&&arguments[4],o=vt(t,n,null,r,e);return o||(o={x:yt(t.x,n.x,r.x,e),y:yt(t.y,n.y,r.y,e)}),i&&(o.a=pt(t,n,r,e)),o}function pt(t,n,r,e){return Math.atan2(dt(t.y,n.y,r.y,e),dt(t.x,n.x,r.x,e))}function mt(t,n,r,e,i){var o=i*i;return i*o*(e-t+3*(n-r))+3*o*(t+r-2*n)+3*i*(n-t)+t}function bt(t,n,r,e,i){var o=1-i;return 3*(o*o*(n-t)+2*o*i*(r-n)+i*i*(e-r))}function wt(t,n,r,e,i){var o=arguments.length>5&&void 0!==arguments[5]&&arguments[5],u=vt(t,n,r,e,i);return u||(u={x:mt(t.x,n.x,r.x,e.x,i),y:mt(t.y,n.y,r.y,e.y,i)}),o&&(u.a=xt(t,n,r,e,i)),u}function xt(t,n,r,e,i){return Math.atan2(bt(t.y,n.y,r.y,e.y,i),bt(t.x,n.x,r.x,e.x,i))}function kt(t,n,r){var e=arguments.length>3&&void 0!==arguments[3]&&arguments[3];if(_t(n)){if(St(r))return gt(n,r.start,r,t,e)}else if(_t(r)){if(n.end)return gt(n,n.end,r,t,e)}else{if(n.end)return r.start?wt(n,n.end,r.start,r,t,e):gt(n,n.end,r,t,e);if(r.start)return gt(n,r.start,r,t,e)}return ut(n,r,t,e)}function At(t,n,r){var e=kt(t,n,r,!0);return e.a=function(t){var n=arguments.length>1&&void 0!==arguments[1]&&arguments[1];return n?t+Math.PI:t}(e.a)/p,e}function _t(t){return!t.type||"corner"===t.type}function St(t){return null!=t.start&&!_t(t)}var Ot=new rt;var Mt={f:Q,i:b},jt={f:Q,i:function(t,n,r){var e=b(t,n,r);return e<=0?0:e>=1?1:e}};function Ft(t,n,r,e,i,o,u,a){return n=function(t,n,r){for(var e,i,o,u=t.length-1,a={},l=0;l<=u;l++)(e=t[l]).e&&(e.e=n(e.e)),e.v&&"g"===(i=e.v).t&&i.r&&(o=r.getElementById(i.r))&&(a[i.r]=o.querySelectorAll("stop"));return a}(t,e,a),function(e){var i,o=r(e,t,Pt);return o?"c"===o.t?V(o.v):"g"===o.t?(n[o.r]&&function(t,n){for(var r=0,e=t.length;r<e;r++)t[r].setAttribute("stop-color",V(n[r]))}(n[o.r],o.v),(i=o.r)?"url(#"+i+")":"none"):"none":"none"}}function Pt(t,n,r){if(0===t)return n;if(1===t)return r;if(n&&r){var e=n.t;if(e===r.t)switch(n.t){case"c":return{t:e,v:A(t,n.v,r.v)};case"g":if(n.r===r.r)return{t:e,v:_(t,n.v,r.v),r:n.r}}}return m(t,n,r)}var Bt={fill:Ft,"fill-opacity":jt,stroke:Ft,"stroke-opacity":jt,"stroke-width":Mt,"stroke-dashoffset":{f:Q,i:b},"stroke-dasharray":{f:function(t){var n=arguments.length>1&&void 0!==arguments[1]?arguments[1]:" ";return t&&t.length>0&&(t=t.map((function(t){return Math.floor(1e4*t)/1e4}))),U(t,n)},i:function(t,n,r){var e,i,o,u=n.length,a=r.length;if(u!==a)if(0===u)n=S(u=a,0);else if(0===a)a=u,r=S(u,0);else{var l=(o=(e=u)*(i=a)/function(t,n){for(var r;n;)r=n,n=t%n,t=r;return t||1}(e,i))<0?-o:o;n=O(n,Math.floor(l/u)),r=O(r,Math.floor(l/a)),u=a=l}for(var f=[],s=0;s<u;s++)f.push(g(w(t,n[s],r[s]),6));return f}},opacity:jt,transform:function(n,r,e,i){if(!(n=function(n,r){if(!n||"object"!==t(n))return null;var e=!1;for(var i in n)n.hasOwnProperty(i)&&(n[i]&&n[i].length?(n[i].forEach((function(t){t.e&&(t.e=r(t.e))})),e=!0):delete n[i]);return e?n:null}(n,i)))return null;var o=function(t,i,o){var u=arguments.length>3&&void 0!==arguments[3]?arguments[3]:null;return n[t]?e(i,n[t],o):r&&r[t]?r[t]:u};return r&&r.a&&n.o?function(t){var r=e(t,n.o,At);return Ot.recomposeSelf(r,o("r",t,b,0)+r.a,o("k",t,x),o("s",t,x),o("t",t,x)).toString()}:function(t){return Ot.recomposeSelf(o("o",t,kt,null),o("r",t,b,0),o("k",t,x),o("s",t,x),o("t",t,x)).toString()}},r:Mt,"#size":G,"#radius":$,_:function(t,n){if(Array.isArray(t))for(var r=0;r<t.length;r++)this[t[r]]=n;else this[t]=n}};return function(t){!function(t,n){if("function"!=typeof n&&null!==n)throw new TypeError("Super expression must either be null or a function");t.prototype=Object.create(n&&n.prototype,{constructor:{value:t,writable:!0,configurable:!0}}),n&&o(t,n)}(u,t);var r=a(u);function u(){return n(this,u),r.apply(this,arguments)}return e(u,null,[{key:"build",value:function(t){var n=l(i(u),"build",this).call(this,t,Bt);n.el,n.options;var r=n.player;return function(t){t.play()}(r),r}}]),u}(L)}));
__SVGATOR_PLAYER__.build({"root":"woman","animations":[{"duration":2000,"direction":1,"iterations":1,"fill":1,"alternate":false,"elements":{"woman-union-1":{"transform":{"keys":{"o":[{"t":0,"v":{"x":270.264,"y":235.502,"type":"corner"}},{"t":500,"v":{"x":275.264,"y":235.502,"type":"corner"}}]}}},"woman-union-2":{"transform":{"keys":{"o":[{"t":500,"v":{"x":264.23,"y":242.31,"type":"corner"}},{"t":900,"v":{"x":264.23,"y":241.64333333333335,"type":"corner"}},{"t":1200,"v":{"x":264.23,"y":250.31,"type":"corner"}},{"t":1500,"v":{"x":264.23,"y":241.31,"type":"corner"}}]}}}}}],"options":{"start":"load","hover":"freeze","click":"freeze","scroll":25,"font":"embed","exportedIds":"names","title":"woman"},"animationSettings":{"duration":2000,"direction":1,"iterations":1,"fill":1,"alternate":false}})]]></script>
</svg>