<svg id="e31b6yp94to61" xmlns="http://www.w3.org/2000/svg" xmlns:xlink="http://www.w3.org/1999/xlink"
     viewBox="0 0 115.558000 162.322000" shape-rendering="geometricPrecision" text-rendering="geometricPrecision">
    <style>
        <![CDATA[#e31b6yp94to617_to {animation: e31b6yp94to617_to__to 2000ms linear 1 normal forwards}@keyframes e31b6yp94to617_to__to { 0% {transform: translate(270.264000px,235.502000px)} 25% {transform: translate(275.264000px,235.502000px)} 100% {transform: translate(275.264000px,235.502000px)} }#e31b6yp94to619_to {animation: e31b6yp94to619_to__to 2000ms linear 1 normal forwards}@keyframes e31b6yp94to619_to__to { 0% {transform: translate(264.230000px,242.310000px)} 25% {transform: translate(264.230000px,242.310000px)} 45% {transform: translate(264.230000px,241.643333px)} 60% {transform: translate(264.230000px,250.310000px)} 75% {transform: translate(264.230000px,241.310000px)} 100% {transform: translate(264.230000px,241.310000px)} }]]></style>
    <g id="e31b6yp94to62" transform="matrix(1 0 0 1 -1.88900000000000 -28)">
        <ellipse id="e31b6yp94to63" rx="12.769000" ry="12.695000"
                 transform="matrix(1 0 0 1 58.78600000000000 40.69500000000000)" fill="rgb(61,61,61)" stroke="none"
                 stroke-width="1"/>
        <path id="e31b6yp94to64"
              d="M-208.200000,-75.948000C-209.429717,-75.948000,-210.609053,-76.436572,-211.478501,-77.306206C-212.347948,-78.175841,-212.836265,-79.355283,-212.836000,-80.585000L-212.836000,-87.321000C-214.195930,-86.703763,-215.692410,-86.448838,-217.180000,-86.581000C-221.961012,-87.000110,-225.497544,-91.214851,-225.080000,-95.996000C-223.744000,-111.264000,-216.474000,-126.006000,-203.585000,-140.152000C-202.940919,-140.860533,-202.184028,-141.457599,-201.345000,-141.919000C-194.144513,-149.031679,-184.427117,-153.014018,-174.306000,-153L-161.243000,-153C-151.459775,-153.013309,-142.040518,-149.291247,-134.909000,-142.594000C-133.438351,-142.135311,-132.116842,-141.292279,-131.081000,-140.152000C-118.191000,-126.007000,-110.923000,-111.264000,-109.586000,-95.996000C-109.169026,-91.215030,-112.705264,-87.000640,-117.486000,-86.581000C-119.312096,-86.417195,-121.143047,-86.837379,-122.715000,-87.781000L-122.715000,-80.581000C-122.715000,-79.351191,-123.203540,-78.171752,-124.073146,-77.302146C-124.942752,-76.432540,-126.122191,-75.944000,-127.352000,-75.944000Z"
              transform="matrix(1 0 0 1 227 266.26999999999998)" fill="rgb(255,177,0)" stroke="none" stroke-width="1"/>
        <path id="e31b6yp94to65"
              d="M3.384000,161.381000L20.468000,164.736000C19.929976,166.794987,19.545586,168.891083,19.318000,171.007000L19.242000,171.789000C18.823644,176.571510,14.607510,180.109356,9.825000,179.691000C5.042490,179.272644,1.504644,175.056510,1.923000,170.274000C2.186430,167.277240,2.674806,164.304527,3.384000,161.381000Z"
              fill="rgb(255,203,163)" stroke="none" stroke-width="1"/>
        <path id="e31b6yp94to66"
              d="M115.952000,161.381000C116.661086,164.304549,117.149462,167.277253,117.413000,170.274000C117.844991,175.016027,114.381176,179.222905,109.644402,179.709129C104.907628,180.195352,100.661392,176.779900,100.121000,172.049000L100.095000,171.789000C99.883529,169.407880,99.473096,167.048642,98.868000,164.736000Z"
              fill="rgb(255,203,163)" stroke="none" stroke-width="1"/>
        <path id="e31b6yp94to67"
              d="M-166.400000,-98.109000L-166.400000,-153L-147.327000,-153C-139.454422,-145.715871,-134.985150,-135.472475,-135,-124.747000L-135,-94.588000L-162.886000,-94.588000C-164.827632,-94.592410,-166.399454,-96.167363,-166.400000,-98.109000ZM-225.106000,-94.588000L-225.106000,-124.747000C-225.120077,-135.472932,-220.649687,-145.716398,-212.776000,-153L-195.170000,-153L-195.170000,-98.110000C-195.170552,-96.164691,-196.747691,-94.588000,-198.693000,-94.588000Z"
              transform="matrix(1 0 0 1 239.28000000000000 276.54300000000001)" fill="rgb(255,149,0)" stroke="none"
              stroke-width="1"/>
        <circle id="e31b6yp94to68" r="3.622000" transform="matrix(1 0 0 1 58.15500000000000 145.64299999999997)"
                fill="rgb(255,255,255)" stroke="none" stroke-width="1"/>
        <path id="e31b6yp94to69"
              d="M51.961000,115.178000C54.043480,115.178000,56.040667,116.005262,57.513202,117.477798C58.985738,118.950333,59.813000,120.947520,59.813000,123.030000L59.813000,128.336000C59.877265,131.182778,58.395278,133.841249,55.940049,135.283513C53.484820,136.725778,50.441180,136.725778,47.985951,135.283513C45.530722,133.841249,44.048735,131.182778,44.113000,128.336000L44.113000,123.030000C44.112999,118.695022,47.626022,115.180208,51.961000,115.178000Z"
              fill="rgb(255,255,255)" fill-rule="evenodd" stroke="none" stroke-width="1"/>
        <path id="e31b6yp94to610"
              d="M65.023000,115.178000C67.105480,115.178000,69.102667,116.005262,70.575202,117.477798C72.047738,118.950333,72.875000,120.947520,72.875000,123.030000L72.875000,128.336000C72.939265,131.182778,71.457278,133.841249,69.002049,135.283513C66.546820,136.725778,63.503180,136.725778,61.047951,135.283513C58.592722,133.841249,57.110735,131.182778,57.175000,128.336000L57.175000,123.030000C57.174999,118.695022,60.688022,115.180208,65.023000,115.178000Z"
              fill="rgb(255,255,255)" fill-rule="evenodd" stroke="none" stroke-width="1"/>
        <path id="e31b6yp94to611"
              d="M43.474000,56.472000L73.900000,56.472000C88.464025,56.472000,100.270500,68.278475,100.270500,82.842500C100.270500,97.406525,88.464025,109.213000,73.900000,109.213000L43.474000,109.213000C28.909975,109.213000,17.103500,97.406525,17.103500,82.842500C17.103500,68.278475,28.909975,56.472000,43.474000,56.472000Z"
              fill="rgb(61,61,61)" fill-rule="evenodd" stroke="none" stroke-width="1"/>
        <path id="e31b6yp94to612"
              d="M73.900000,109.213000L43.474000,109.213000C30.198770,109.212034,18.993103,99.344484,17.313000,86.176000L100.065000,86.176000C98.384286,99.345773,87.176586,109.213604,73.900000,109.213000Z"
              fill="rgb(202,201,201)" fill-rule="evenodd" stroke="none" stroke-width="1"/>
        <path id="e31b6yp94to613"
              d="M59.005000,66.600000C77.039468,66.600000,91.659448,81.219532,91.660000,99.254000L91.660000,123.691000L26.350000,123.691000L26.350000,99.254000C26.350552,81.219532,40.970532,66.600000,59.005000,66.600000Z"
              fill="rgb(255,203,163)" fill-rule="evenodd" stroke="none" stroke-width="1"/>
        <path id="e31b6yp94to614" d="M36.406000,64.251000L84.100000,64.251000L84.100000,72.030000L36.400000,72.030000Z"
              fill="rgb(61,61,61)" fill-rule="evenodd" stroke="none" stroke-width="1"/>
        <path id="e31b6yp94to615"
              d="M51.357000,79.513000C53.163124,79.513000,54.895274,80.230480,56.172397,81.507603C57.449520,82.784726,58.167000,84.516876,58.167000,86.323000L58.167000,90.523000C58.167000,92.955979,56.869021,95.204144,54.762000,96.420633C52.654979,97.637122,50.059021,97.637122,47.952000,96.420633C45.844979,95.204144,44.547000,92.955979,44.547000,90.523000L44.547000,86.323000C44.547000,82.561941,47.595941,79.513000,51.357000,79.513000Z"
              fill="rgb(255,255,255)" fill-rule="evenodd" stroke="none" stroke-width="1"/>
        <path id="e31b6yp94to616"
              d="M67.484000,79.513000C65.677876,79.513000,63.945726,80.230480,62.668603,81.507603C61.391480,82.784726,60.674000,84.516876,60.674000,86.323000L60.674000,90.523000C60.674000,94.284059,63.722941,97.333000,67.484000,97.333000C71.245059,97.333000,74.294000,94.284059,74.294000,90.523000L74.294000,86.323000C74.294000,84.516876,73.576520,82.784726,72.299397,81.507603C71.022274,80.230480,69.290124,79.513000,67.484000,79.513000Z"
              fill="rgb(255,255,255)" fill-rule="evenodd" stroke="none" stroke-width="1"/>
        <g id="e31b6yp94to617_to" transform="translate(270.264000,235.502000)">
            <path id="e31b6yp94to617"
                  d="M-208.366000,-146.081000L-208.366000,-149.933000C-208.366000,-151.626467,-206.993467,-152.999448,-205.300000,-153C-204.486581,-153,-203.706478,-152.676871,-203.131304,-152.101696C-202.556129,-151.526522,-202.233000,-150.746419,-202.233000,-149.933000L-202.233000,-146.081000C-202.233000,-145.267581,-202.556129,-144.487478,-203.131304,-143.912304C-203.706478,-143.337129,-204.486581,-143.014000,-205.300000,-143.014000C-206.993467,-143.014552,-208.366000,-144.387533,-208.366000,-146.081000ZM-225.110000,-146.081000L-225.110000,-149.933000C-225.110000,-151.626467,-223.737467,-152.999448,-222.044000,-153C-221.230581,-153,-220.450478,-152.676871,-219.875304,-152.101696C-219.300129,-151.526522,-218.977000,-150.746419,-218.977000,-149.933000L-218.977000,-146.081000C-218.977000,-145.267581,-219.300129,-144.487478,-219.875304,-143.912304C-220.450478,-143.337129,-221.230581,-143.014000,-222.044000,-143.014000C-223.737857,-143.014000,-225.111000,-144.387143,-225.111000,-146.081000Z"
                  transform="translate(0,0)" fill="rgb(61,61,61)" stroke="none" stroke-width="1"/>
        </g>
        <path id="e31b6yp94to618"
              d="M63.743000,86.400000C62.834578,86.400000,62.015605,85.852780,61.667967,85.013507C61.320328,84.174234,61.512487,83.208190,62.154838,82.565838C62.797190,81.923487,63.763234,81.731328,64.602507,82.078967C65.441780,82.426605,65.989000,83.245578,65.989000,84.154000C65.989000,85.394432,64.983432,86.400000,63.743000,86.400000Z"
              fill="rgb(255,255,255)" fill-rule="evenodd" stroke="none" stroke-width="1"/>
        <g id="e31b6yp94to619_to" transform="translate(264.230000,242.310000)">
            <path id="e31b6yp94to619"
                  d="M-199.027000,-134.339000L-199.338000,-134.690000L-199.938000,-135.378000L-200.518000,-136.051000L-201.071000,-136.707000L-201.599000,-137.348000L-202.099000,-137.973000L-202.577000,-138.580000C-202.655000,-138.680000,-202.732000,-138.780000,-202.806000,-138.880000L-203.246000,-139.465000L-203.661000,-140.033000L-204.050000,-140.586000L-204.415000,-141.122000Q-204.965000,-141.949000,-205.391000,-142.697000C-207.367409,-139.615247,-209.630097,-136.726788,-212.149000,-134.070000L-225.103000,-145.190000L-220.675000,-153.003000Q-209.204000,-152.203000,-204.868000,-149.543000C-202.788827,-150.505100,-200.587722,-151.178015,-198.326000,-151.543000L-197.463000,-151.698000L-196.563000,-151.843000Q-195.187000,-152.055000,-193.652000,-152.223000L-192.611000,-152.331000L-191.533000,-152.431000L-190.420000,-152.520000L-189.850000,-152.561000L-185.421000,-144.748000L-198.376000,-133.628000Z"
                  transform="translate(0,0)" fill="rgb(255,203,163)" stroke="none" stroke-width="1"/>
        </g>
        <path id="e31b6yp94to620"
              d="M59.446000,99.915000C61.278421,99.903985,62.755416,98.410430,62.746000,96.578000C62.585291,95.528222,62.197250,94.526208,61.609000,93.642000L61.355000,93.209000L61.355000,93.209000L61.095000,92.785000L61.095000,92.785000L60.835000,92.377000L60.835000,92.377000L60.581000,91.990000L60.581000,91.990000L60.223000,91.463000L60.223000,91.463000L59.823000,90.891000L59.823000,90.891000L59.446000,90.375000L59.446000,90.375000L59.151000,90.775000L59.151000,90.775000L58.666000,91.462000L58.666000,91.462000L58.309000,91.989000L58.309000,91.989000L58.055000,92.376000L58.055000,92.376000L57.795000,92.784000L57.795000,92.784000L57.535000,93.208000L57.535000,93.208000L57.281000,93.641000C56.692750,94.525208,56.304709,95.527222,56.144000,96.577000C56.139213,97.457523,56.484415,98.303882,57.103663,98.929881C57.722911,99.555880,58.565477,99.910239,59.446000,99.915000Z"
              fill="rgb(232,150,101)" fill-rule="evenodd" stroke="none" stroke-width="1"/>
        <path id="e31b6yp94to621"
              d="M48.776000,98.784000C49.179735,98.455994,49.772918,98.517326,50.101000,98.921000C54.460000,104.284000,59.566000,105.185000,65.741000,101.665000C66.193045,101.407359,66.768359,101.564955,67.026000,102.017000C67.283641,102.469045,67.126045,103.044359,66.674000,103.302000C59.705000,107.273000,53.585000,106.194000,48.639000,100.109000C48.310994,99.705265,48.372326,99.112082,48.776000,98.784000Z"
              fill="rgb(232,150,101)" stroke="none" stroke-width="1"/>
        <path id="e31b6yp94to622"
              d="M64.118000,111.339000C64.454422,111.137048,64.890459,111.239397,65.101890,111.569944C65.313321,111.900491,65.223405,112.339261,64.899000,112.560000C61.367441,115.060389,56.642559,115.060389,53.111000,112.560000C52.786595,112.339261,52.696679,111.900491,52.908110,111.569944C53.119541,111.239397,53.555578,111.137048,53.892000,111.339000C56.946981,113.534994,61.063019,113.534994,64.118000,111.339000Z"
              fill="rgb(247,178,134)" stroke="none" stroke-width="1"/>
        <path id="e31b6yp94to623"
              d="M42.054000,87.176000L58.709000,87.176000C61.357000,87.176000,60.137000,81.614000,55.924000,79.749000C52.690000,78.317000,46.562000,80.249000,45.933000,80.249000Q44.485000,80.253000,42.054000,87.176000Z"
              fill="rgb(255,203,163)" fill-rule="evenodd" stroke="none" stroke-width="1"/>
        <path id="e31b6yp94to624"
              d="M57.611000,86.400000L74.266000,86.400000C76.914000,86.400000,75.694000,81.643000,71.481000,79.984000C68.247000,78.710000,62.119000,80.432000,61.490000,80.432000Q60.043000,80.432000,57.611000,86.400000Z"
              fill="rgb(255,203,163)" fill-rule="evenodd" stroke="none" stroke-width="1"/>
        <path id="e31b6yp94to625"
              d="M80.962000,87.500000C81.313523,87.354900,81.717420,87.506075,81.887282,87.846324C82.057144,88.186574,81.935234,88.600246,81.608000,88.794000L81.520000,88.838000L77.787000,90.400000L81.534000,92.065000C81.864255,92.212833,82.034950,92.581535,81.934000,92.929000L81.900000,93.021000C81.752167,93.351255,81.383465,93.521950,81.036000,93.421000L80.944000,93.387000L75.660000,91.039000C75.414829,90.929855,75.250004,90.694205,75.231569,90.426471C75.213133,90.158737,75.344103,89.902719,75.572000,89.761000L75.672000,89.709000Z"
              fill="rgb(243,165,119)" stroke="none" stroke-width="1"/>
        <path id="e31b6yp94to626"
              d="M36.756000,87.500000C36.397015,87.321612,35.961388,87.468015,35.783000,87.827000C35.604612,88.185985,35.751015,88.621612,36.110000,88.800000L36.198000,88.844000L39.930000,90.400000L36.183000,92.065000C35.852745,92.212833,35.682050,92.581535,35.783000,92.929000L35.817000,93.021000C35.964502,93.351581,36.333500,93.522414,36.681000,93.421000L36.774000,93.387000L42.057000,91.039000C42.302171,90.929855,42.466996,90.694205,42.485431,90.426471C42.503867,90.158737,42.372897,89.902719,42.145000,89.761000L42.045000,89.709000Z"
              fill="rgb(243,165,119)" stroke="none" stroke-width="1"/>
        <path id="e31b6yp94to627"
              d="M27.800000,66.012000L34.289000,66.012000C36.114220,66.012000,37.864684,66.737066,39.155309,68.027691C40.445934,69.318316,41.171000,71.068780,41.171000,72.894000L41.171000,79.383000C41.171000,81.208220,40.445934,82.958684,39.155309,84.249309C37.864684,85.539934,36.114220,86.265000,34.289000,86.265000L27.800000,86.265000C25.974780,86.265000,24.224316,85.539934,22.933691,84.249309C21.643066,82.958684,20.918000,81.208220,20.918000,79.383000L20.918000,72.895000C20.917735,71.069607,21.642683,69.318886,22.933338,68.028045C24.223992,66.737203,25.974607,66.012000,27.800000,66.012000Z"
              fill="rgb(61,61,61)" fill-rule="evenodd" stroke="none" stroke-width="1"/>
        <path id="e31b6yp94to628"
              d="M83.720000,65.278000L89.328000,65.278000C91.153220,65.278000,92.903684,66.003066,94.194309,67.293691C95.484934,68.584316,96.210000,70.334780,96.210000,72.160000L96.210000,79.383000C96.210000,81.208220,95.484934,82.958683,94.194309,84.249309C92.903684,85.539934,91.153220,86.265000,89.328000,86.265000L83.720000,86.265000C81.894780,86.265000,80.144316,85.539934,78.853691,84.249309C77.563066,82.958684,76.838000,81.208220,76.838000,79.383000L76.838000,72.161000C76.837735,70.335607,77.562683,68.584886,78.853338,67.294045C80.143992,66.003203,81.894607,65.278000,83.720000,65.278000Z"
              fill="rgb(61,61,61)" fill-rule="evenodd" stroke="none" stroke-width="1"/>
        <path id="e31b6yp94to629"
              d="M49.900000,77.843000C56.104750,75.907400,62.752714,75.913332,68.954000,77.860000C70.111589,78.231411,70.748911,79.470911,70.377500,80.628500C70.006089,81.786089,68.766589,82.423411,67.609000,82.052000C62.244525,80.374643,56.495002,80.380576,51.134000,82.069000C49.967022,82.409760,48.744760,81.739978,48.404000,80.573000C48.063240,79.406022,48.733022,78.183760,49.900000,77.843000Z"
              fill="rgb(61,61,61)" stroke="none" stroke-width="1"/>
    </g>
</svg>