<?xml version="1.0" encoding="iso-8859-1"?>
<!-- Generator: Adobe Illustrator 19.0.0, SVG Export Plug-In . SVG Version: 6.00 Build 0)  -->
<svg version="1.1" id="Layer_1" xmlns="http://www.w3.org/2000/svg" xmlns:xlink="http://www.w3.org/1999/xlink" x="0px" y="0px"
	 viewBox="0 0 511.999 511.999" style="enable-background:new 0 0 511.999 511.999;" xml:space="preserve">
<g>
	<g>
		<path d="M481.91,0.001H356.94c-4.532,0-8.206,3.673-8.206,8.206c0,4.533,3.674,8.206,8.206,8.206h124.97
			c7.542,0,13.677,6.135,13.677,13.677v183.463c0,7.542-6.135,13.677-13.677,13.677H314.429h-15.982
			c-7.542,0-13.677-6.135-13.677-13.677v-17.621V30.09c0-7.542,6.135-13.677,13.677-13.677h25.687c4.532,0,8.206-3.673,8.206-8.206
			c0-4.533-3.674-8.206-8.206-8.206h-25.687c-16.592,0-30.09,13.499-30.09,30.09v61.642H30.09C13.498,91.732,0,105.231,0,121.822
			v360.086c0,16.591,13.498,30.09,30.09,30.09h263.035c4.532,0,8.206-3.673,8.206-8.206c0-4.533-3.674-8.206-8.206-8.206H30.09
			c-7.542,0-13.677-6.135-13.677-13.677V121.822c0-7.542,6.135-13.677,13.677-13.677h238.266v27.354H136.08
			c-4.532,0-8.206,3.673-8.206,8.206s3.674,8.206,8.206,8.206h132.277v40.621l-88.77,88.768l-24.998-24.998
			c-2.121-2.121-5.228-2.915-8.106-2.073c-2.878,0.841-5.068,3.185-5.712,6.114l-28.258,128.544
			c-0.601,2.734,0.233,5.585,2.212,7.565c1.556,1.555,3.65,2.403,5.802,2.403c0.586,0,1.177-0.063,1.762-0.191l128.543-28.26
			c2.929-0.644,5.273-2.834,6.114-5.712c0.841-2.879,0.046-5.986-2.075-8.107l-24.998-24.996l87.95-87.949h42.26v196.4
			c0,6.494-5.283,11.777-11.777,11.777H71.956c-6.494,0-11.777-5.283-11.777-11.777V163.687c0-6.494,5.283-11.777,11.777-11.777
			h31.298c4.532,0,8.206-3.673,8.206-8.206s-3.674-8.206-8.206-8.206H71.956c-15.544,0.001-28.189,12.645-28.189,28.189v276.354
			c0,15.544,12.645,28.189,28.189,28.189h276.354c15.544,0,28.189-12.645,28.189-28.189V243.643h27.354v238.265
			c0,7.542-6.135,13.677-13.677,13.677h-64.228c-4.532,0-8.206,3.673-8.206,8.206c0,4.533,3.674,8.206,8.206,8.206h64.228
			c16.592,0,30.09-13.499,30.09-30.09V243.643h61.642c16.592,0,30.09-13.499,30.09-30.09V30.09
			C512,13.499,498.502,0.001,481.91,0.001z M212.47,325.789c-1.54,1.54-2.404,3.626-2.404,5.804c0,2.177,0.864,4.263,2.404,5.803
			l20.201,20.2l-101.371,22.287l22.285-101.372l20.201,20.2c3.205,3.204,8.401,3.204,11.605,0l83.039-83.039
			c0.005,0.08,0.021,0.156,0.027,0.236c1.093,13.851,12.29,25.707,26.141,27.481c0.079,0.01,0.154,0.03,0.233,0.038L212.47,325.789z
			"/>
	</g>
</g>
<g>
</g>
<g>
</g>
<g>
</g>
<g>
</g>
<g>
</g>
<g>
</g>
<g>
</g>
<g>
</g>
<g>
</g>
<g>
</g>
<g>
</g>
<g>
</g>
<g>
</g>
<g>
</g>
<g>
</g>
</svg>
