<?xml version="1.0" encoding="iso-8859-1"?>
<!-- Generator: Adobe Illustrator 19.0.0, SVG Export Plug-In . SVG Version: 6.00 Build 0)  -->
<svg version="1.1" id="Capa_1" xmlns="http://www.w3.org/2000/svg" xmlns:xlink="http://www.w3.org/1999/xlink" x="0px" y="0px"
	 viewBox="0 0 512 512" style="enable-background:new 0 0 512 512;" xml:space="preserve">
<g>
	<g>
		<path d="M156,312c-5.52,0-10,4.48-10,10c0,5.52,4.48,10,10,10s10-4.48,10-10C166,316.48,161.52,312,156,312z"/>
	</g>
</g>
<g>
	<g>
		<path d="M477.211,77.068L408.932,8.789C403.346,3.203,395.614,0,387.72,0H56C39.458,0,26,13.458,26,30v452
			c0,16.542,13.458,30,30,30c20.476,0,339.108,0,400,0c16.542,0,30-13.458,30-30V98.28C486,90.385,482.797,82.654,477.211,77.068z
			 M286,20h20v80h-20V20z M146,20h120v90c0,5.522,4.478,10,10,10h40c5.522,0,10-4.478,10-10V20h40v110c0,5.514-4.486,10-10,10H156
			c-5.514,0-10-4.486-10-10V20z M406,492H106v-40h300V492z M406,432H106V282c0-5.514,4.486-10,10-10h280c5.514,0,10,4.486,10,10V432
			z M466,482c0,5.514-4.486,10-10,10h-30V282c0-16.542-13.458-30-30-30H116c-16.542,0-30,13.458-30,30v210H56
			c-5.514,0-10-4.486-10-10V30c0-5.514,4.486-10,10-10h70v110c0,16.542,13.458,30,30,30h200c16.542,0,30-13.458,30-30V20h1.72
			c2.63,0,5.207,1.068,7.069,2.932l68.279,68.279C464.932,93.073,466,95.65,466,98.28V482z"/>
	</g>
</g>
<g>
	<g>
		<path d="M356,312H196c-5.522,0-10,4.478-10,10c0,5.522,4.478,10,10,10h160c5.522,0,10-4.478,10-10
			C366,316.478,361.522,312,356,312z"/>
	</g>
</g>
<g>
	<g>
		<path d="M356,372H156c-5.522,0-10,4.478-10,10c0,5.522,4.478,10,10,10h200c5.522,0,10-4.478,10-10
			C366,376.478,361.522,372,356,372z"/>
	</g>
</g>
<g>
</g>
<g>
</g>
<g>
</g>
<g>
</g>
<g>
</g>
<g>
</g>
<g>
</g>
<g>
</g>
<g>
</g>
<g>
</g>
<g>
</g>
<g>
</g>
<g>
</g>
<g>
</g>
<g>
</g>
</svg>
