<svg xmlns="http://www.w3.org/2000/svg" width="330.001" height="228.064" viewBox="0 0 330.001 228.064">
  <g id="_101" data-name="101" transform="translate(-21.999 -79)">
    <g id="Union_29" data-name="Union 29" transform="translate(4006 2833)" fill="#fff">
      <path d="M -3906.51220703125 -2637.103759765625 L -3907.2880859375 -2655.02197265625 L -3907.308837890625 -2655.500244140625 L -3907.78759765625 -2655.500244140625 L -3951.999755859375 -2655.500244140625 C -3954.632568359375 -2655.500244140625 -3957.186279296875 -2656.015625 -3959.590087890625 -2657.0322265625 C -3961.912109375 -2658.014404296875 -3963.99755859375 -2659.42041015625 -3965.78857421875 -2661.21142578125 C -3967.579833984375 -2663.00244140625 -3968.98583984375 -2665.087646484375 -3969.968017578125 -2667.40966796875 C -3970.984619140625 -2669.8134765625 -3971.500244140625 -2672.3671875 -3971.500244140625 -2675 L -3971.500244140625 -2734 C -3971.500244140625 -2736.6328125 -3970.984619140625 -2739.1865234375 -3969.968017578125 -2741.590087890625 C -3968.98583984375 -2743.912109375 -3967.579833984375 -2745.99755859375 -3965.78857421875 -2747.788330078125 C -3963.99755859375 -2749.579345703125 -3961.912109375 -2750.9853515625 -3959.590087890625 -2751.967529296875 C -3957.186279296875 -2752.984130859375 -3954.632568359375 -2753.49951171875 -3951.999755859375 -2753.49951171875 L -3673.999755859375 -2753.49951171875 C -3671.3671875 -2753.49951171875 -3668.813720703125 -2752.984130859375 -3666.409912109375 -2751.967529296875 C -3664.088134765625 -2750.9853515625 -3662.002685546875 -2749.579345703125 -3660.211669921875 -2747.788330078125 C -3658.420654296875 -2745.997314453125 -3657.014404296875 -2743.912109375 -3656.0322265625 -2741.590087890625 C -3655.015625 -2739.1865234375 -3654.5 -2736.6328125 -3654.5 -2734 L -3654.5 -2675 C -3654.5 -2672.3671875 -3655.015625 -2669.8134765625 -3656.0322265625 -2667.40966796875 C -3657.014404296875 -2665.087646484375 -3658.420654296875 -2663.00244140625 -3660.211669921875 -2661.21142578125 C -3662.002685546875 -2659.42041015625 -3664.088134765625 -2658.014404296875 -3666.409912109375 -2657.0322265625 C -3668.813720703125 -2656.015625 -3671.3671875 -2655.500244140625 -3673.999755859375 -2655.500244140625 L -3889.44677734375 -2655.500244140625 L -3889.6669921875 -2655.500244140625 L -3889.8154296875 -2655.337890625 L -3906.51220703125 -2637.103759765625 Z" stroke="none"/>
      <path d="M -3906.06494140625 -2638.332763671875 L -3890.184326171875 -2655.675537109375 L -3889.886962890625 -2656.000244140625 L -3889.44677734375 -2656.000244140625 L -3673.999755859375 -2656.000244140625 C -3671.4345703125 -2656.000244140625 -3668.946533203125 -2656.50244140625 -3666.604736328125 -2657.492919921875 C -3664.34228515625 -2658.44970703125 -3662.310302734375 -2659.81982421875 -3660.565185546875 -2661.56494140625 C -3658.81982421875 -2663.31005859375 -3657.44970703125 -2665.34228515625 -3656.49267578125 -2667.6044921875 C -3655.502197265625 -2669.9462890625 -3655 -2672.4345703125 -3655 -2675 L -3655 -2734 C -3655 -2736.5654296875 -3655.502197265625 -2739.0537109375 -3656.49267578125 -2741.395263671875 C -3657.44970703125 -2743.65771484375 -3658.81982421875 -2745.689697265625 -3660.565185546875 -2747.434814453125 C -3662.310302734375 -2749.179931640625 -3664.342529296875 -2750.550048828125 -3666.604736328125 -2751.5068359375 C -3668.946533203125 -2752.497314453125 -3671.4345703125 -2752.99951171875 -3673.999755859375 -2752.99951171875 L -3951.999755859375 -2752.99951171875 C -3954.565185546875 -2752.99951171875 -3957.053466796875 -2752.497314453125 -3959.395263671875 -2751.5068359375 C -3961.65771484375 -2750.550048828125 -3963.68994140625 -2749.179931640625 -3965.43505859375 -2747.434814453125 C -3967.180419921875 -2745.689697265625 -3968.550537109375 -2743.65771484375 -3969.507568359375 -2741.395263671875 C -3970.498046875 -2739.0537109375 -3971.000244140625 -2736.5654296875 -3971.000244140625 -2734 L -3971.000244140625 -2675 C -3971.000244140625 -2672.4345703125 -3970.498046875 -2669.9462890625 -3969.507568359375 -2667.6044921875 C -3968.550537109375 -2665.342041015625 -3967.180419921875 -2663.31005859375 -3965.43505859375 -2661.56494140625 C -3963.68994140625 -2659.81982421875 -3961.65771484375 -2658.44970703125 -3959.395263671875 -2657.492919921875 C -3957.053466796875 -2656.50244140625 -3954.565185546875 -2656.000244140625 -3951.999755859375 -2656.000244140625 L -3907.78759765625 -2656.000244140625 L -3906.830078125 -2656.000244140625 L -3906.78857421875 -2655.04345703125 L -3906.06494140625 -2638.332763671875 M -3906.95947265625 -2635.875 L -3907.78759765625 -2655.000244140625 L -3951.999755859375 -2655.000244140625 C -3963.045654296875 -2655.000244140625 -3972.000244140625 -2663.953857421875 -3972.000244140625 -2675 L -3972.000244140625 -2734 C -3972.000244140625 -2745.0458984375 -3963.045654296875 -2753.99951171875 -3951.999755859375 -2753.99951171875 L -3673.999755859375 -2753.99951171875 C -3662.954833984375 -2753.99951171875 -3654 -2745.0458984375 -3654 -2734 L -3654 -2675 C -3654 -2663.953857421875 -3662.954833984375 -2655.000244140625 -3673.999755859375 -2655.000244140625 L -3889.44677734375 -2655.000244140625 L -3906.95947265625 -2635.875 Z" stroke="none" fill="#707070"/>
    </g>
    <g id="Group_83" data-name="Group 83" transform="translate(21.999 185.207)">
      <path id="Path_150" data-name="Path 150" d="M153.823,86.4a8.123,8.123,0,0,0,7.879-6.153l4.555-16.185,4.169,14.647a10.153,10.153,0,0,0,9.843,7.69h16.449V98.586c0,.686-.043,1.363-.1,2.031-.018.2-.045.42-.069.63-.057.473-.13.94-.215,1.4-.041.217-.075.439-.122.654q-.193.9-.453,1.765c-.081.26-.177.514-.266.77-.114.333-.232.664-.361.991s-.258.625-.406.934c-.112.244-.229.483-.349.723a22.058,22.058,0,0,1-9.839,9.981h0v16.672a10.153,10.153,0,0,1-20.307,0V118.466h0a22.06,22.06,0,0,1-9.849-9.979c-.12-.24-.238-.479-.349-.723q-.2-.463-.406-.934c-.13-.327-.248-.658-.363-.993-.087-.256-.183-.508-.262-.766-.177-.579-.327-1.17-.455-1.767-.047-.215-.081-.437-.122-.654-.085-.463-.158-.93-.215-1.4-.024-.2-.051-.418-.069-.63-.061-.67-.1-1.346-.1-2.031V86.4Z" transform="translate(-121.582 -47.802)" fill="#f2dbc0"/>
      <path id="Path_152" data-name="Path 152" d="M189.586,178.064a3.554,3.554,0,1,1-3.554,3.554A3.554,3.554,0,0,1,189.586,178.064Zm.508,3.554a.508.508,0,1,0-1.015,0C189.078,182.176,190.093,182.176,190.093,181.618Z" transform="translate(-126.635 -132.865)"/>
      <path id="Path_154" data-name="Path 154" d="M217.647,236.633a4.573,4.573,0,0,0,4.569-4.569h3.046a7.615,7.615,0,1,1-15.23,0h3.046A4.573,4.573,0,0,0,217.647,236.633Z" transform="translate(-164.849 -173.158)"/>
      <path id="Path_147" data-name="Path 147" d="M186.308,348.248a10.154,10.154,0,0,0,10.153-10.153v-2.031h8.123v2.031a18.276,18.276,0,0,1-36.552,0v-2.031h8.123v2.031A10.153,10.153,0,0,0,186.308,348.248Z" transform="translate(-133.51 -250.759)" fill="#2e2c44"/>
      <path id="Path_148" data-name="Path 148" d="M120.646,356.371a18.276,18.276,0,0,0,18.276-18.276v-2.031h10.153a12.184,12.184,0,0,1,12.184,12.184v22.337H80.032V348.248a12.184,12.184,0,0,1,12.184-12.184H102.37v2.031A18.276,18.276,0,0,0,120.646,356.371Z" transform="translate(-67.848 -250.759)" fill="#0fe0e0"/>
      <path id="Path_149" data-name="Path 149" d="M60.339,54.76h.546l.018.043a35.642,35.642,0,0,1-2.6-13.34c0-16.715,12.241-31.409,28.86-33.206A32.491,32.491,0,0,1,123.29,40.545v.918a35.642,35.642,0,0,1-2.6,13.34l.018-.043h.546a20.307,20.307,0,0,1,20.307,20.307V87.251h-8.123A20.307,20.307,0,0,1,113.23,68.806l-.093.169h-3.629a22.282,22.282,0,0,0,1.292-2.282c.12-.24.238-.479.349-.723.138-.309.272-.609.406-.934s.248-.658.361-.991c.089-.256.187-.508.266-.77.175-.579.323-1.168.453-1.765.047-.217.081-.435.122-.654q.13-.694.215-1.4c.024-.2.051-.418.069-.63.063-.67.1-1.346.1-2.031V44.606H96.7a10.154,10.154,0,0,1-9.851-7.69L82.676,22.269,78.122,38.453a8.123,8.123,0,0,1-7.879,6.153H68.462V56.79c0,.686.041,1.363.1,2.031.018.2.045.42.069.63q.085.709.215,1.4c.041.219.075.437.122.654.13.6.278,1.188.455,1.767.077.26.175.51.262.766.116.333.234.666.363.993s.26.625.406.934c.112.244.229.483.349.723a22.269,22.269,0,0,0,1.283,2.285H68.462l-.093-.169A20.307,20.307,0,0,1,48.155,87.251H40.032V75.067A20.307,20.307,0,0,1,60.339,54.76Z" transform="translate(-38.001 -6.007)" fill="#954e22"/>
      <path id="Path_151" data-name="Path 151" d="M52.083,46.837a37.7,37.7,0,0,1-1.775-11.372A34.928,34.928,0,0,1,80.971.219a34.521,34.521,0,0,1,38.38,34.319v.918a37.7,37.7,0,0,1-1.775,11.372,22.37,22.37,0,0,1,20.051,22.232V81.243a2.031,2.031,0,0,1-2.031,2.031h-8.123A22.2,22.2,0,0,1,105.518,65h-.936a24.528,24.528,0,0,1-7.568,6.856V83.274h16.245a14.231,14.231,0,0,1,14.215,14.215v22.337a2.031,2.031,0,0,1-2.031,2.031H44.216a2.031,2.031,0,0,1-2.031-2.031V97.489A14.231,14.231,0,0,1,56.4,83.274H72.646V71.853A24.528,24.528,0,0,1,65.077,65h-.936A22.2,22.2,0,0,1,42.185,83.274H34.063a2.031,2.031,0,0,1-2.031-2.031V69.059A22.37,22.37,0,0,1,52.083,46.837Zm63.207-12.3A30.471,30.471,0,0,0,81.416,4.262,30.866,30.866,0,0,0,54.369,35.455,33.682,33.682,0,0,0,58.6,51.778l2.52,4.535a24.205,24.205,0,0,1-.658-5.53V40.63H58.431V36.568h5.842A6.1,6.1,0,0,0,70.2,31.9l4.555-16.185a2.031,2.031,0,0,1,1.954-1.482h0a2.031,2.031,0,0,1,1.954,1.474l4.185,14.71a8.123,8.123,0,0,0,7.873,6.153h20.51V40.63H109.2V50.783a24.207,24.207,0,0,1-.658,5.53l2.52-4.535a33.682,33.682,0,0,0,4.23-16.323v-.918Zm12.184,44.675h6.092V69.059a18.276,18.276,0,0,0-17.513-18.238c-.443.993-.914,1.976-1.444,2.928l-5.245,9.443A18.156,18.156,0,0,0,127.474,79.213ZM46.247,97.489V117.8h77.166V97.489a10.166,10.166,0,0,0-10.153-10.153h-8.123a20.307,20.307,0,0,1-40.614,0H56.4A10.166,10.166,0,0,0,46.247,97.489ZM68.584,87.335a16.245,16.245,0,0,0,32.491,0H97.014a12.184,12.184,0,0,1-24.368,0Zm8.123,0a8.123,8.123,0,0,0,16.245,0V73.73a23.921,23.921,0,0,1-16.245,0ZM84.83,71.09a20.329,20.329,0,0,0,20.307-20.307V40.63H90.719a12.148,12.148,0,0,1-11.8-9.164l-2.205-7.747-2.593,9.219a10.127,10.127,0,0,1-9.593,7.672V50.783A20.329,20.329,0,0,0,84.83,71.09ZM36.093,79.213h6.092A18.156,18.156,0,0,0,60.3,63.193L55.05,53.75c-.53-.952-1-1.935-1.444-2.928A18.276,18.276,0,0,0,36.093,69.059Z" transform="translate(-32.032 0)"/>
      <path id="Path_153" data-name="Path 153" d="M269.586,178.064a3.554,3.554,0,1,1-3.554,3.554A3.554,3.554,0,0,1,269.586,178.064Zm.508,3.554a.508.508,0,1,0-1.015,0C269.078,182.176,270.093,182.176,270.093,181.618Z" transform="translate(-226.941 -132.865)"/>
    </g>
  </g>
</svg>
