<svg xmlns="http://www.w3.org/2000/svg" width="326" height="218.001" viewBox="0 0 326 218.001">
  <g id="_102" data-name="102" transform="translate(-26 -79)">
    <g id="Group_133" data-name="Group 133" transform="translate(26 181)">
      <path id="Path_86" data-name="Path 86" d="M59.4,326.975a1.935,1.935,0,0,1,1.872-1.448h8.044a7.89,7.89,0,0,0,7.89-7.89v-3.316a1.406,1.406,0,0,1,1.406-1.406h5.152a5.305,5.305,0,0,1-.814-2.822V304.52H66.036a1.117,1.117,0,0,1-.916-1.758l3.39-4.844a4.117,4.117,0,0,0-.95-5.678l-.087-.063a4.251,4.251,0,0,0-3.672-.651v18.567a5.325,5.325,0,0,1-4.5,5.263l-5.1.8a16.023,16.023,0,0,0-8.851,4.49l-5.468,21.037-.1,1.337H55.228Z" transform="translate(-32.613 -228.838)" fill="#e09380"/>
      <path id="Path_88" data-name="Path 88" d="M61.273,399.676h8.044a7.892,7.892,0,0,0,7.425-5.218,18.168,18.168,0,0,1-3.462.336,17.572,17.572,0,0,1-12.937-5.562c-3.084,1.144-9.495.077-15,5.563l-5.468,21.037-.1,1.337H55.229L59.4,401.124a1.934,1.934,0,0,1,1.872-1.448Z" transform="translate(-32.613 -302.987)" fill="#8cc951"/>
      <path id="Path_95" data-name="Path 95" d="M34.659,330.243l5.23-20.118a1.95,1.95,0,0,1,1.888-1.46h8.031a7.89,7.89,0,0,0,7.89-7.89V297.46a1.406,1.406,0,0,1,1.406-1.406h7.842a4.267,4.267,0,0,0,4.305-4.161,4.2,4.2,0,0,0-4.2-4.235H46.529a1.117,1.117,0,0,1-.916-1.758L49,281.056a4.116,4.116,0,0,0-.95-5.678l-.087-.063a4.24,4.24,0,0,0-5.94.937c-2.422,3.358-13.066,18.1-14.118,19.555l-8.384,32.255a1.743,1.743,0,0,0,1.687,2.182H34.66Z" transform="translate(-17.226 -216.061)" fill="#f9b1a0"/>
      <path id="Path_85" data-name="Path 85" d="M104.219,343.011H39.776l.887-12.172a16.052,16.052,0,0,1,13.531-14.693l5.1-.8a5.325,5.325,0,0,0,4.5-5.263V291.35H82.949v18.733a5.328,5.328,0,0,0,4.5,5.263l5.106.8a16.05,16.05,0,0,1,13.528,14.693l.687,9.424a2.562,2.562,0,0,1-2.556,2.748Z" transform="translate(-32.613 -228.828)" fill="#faa68e"/>
      <path id="Path_87" data-name="Path 87" d="M99.239,414.834H39.776l7.141-2.535c.5-6.873-.251-17.045,6.56-18.111h4.311c.334-.053-.307.114,0,0,2.908,3.145,14.644-4.142,19.4-4.142,4.786,0,2.574,2.135,5.484-1.041a4.927,4.927,0,0,0,1.094.3l4.711.738A14.809,14.809,0,0,1,100.963,403.6l.634,8.7a2.365,2.365,0,0,1-2.358,2.535Z" transform="translate(-27.434 -300.651)" fill="#0fe0e0"/>
      <path id="Path_89" data-name="Path 89" d="M246.678,414.25l-.687-9.424a16.015,16.015,0,0,0-4.2-9.707c-5.5-5.978-12.341-4.971-15.362-6.018l-.035-.013c-.075-.026-.15-.053-.222-.083a16.905,16.905,0,0,1-1.736,1.637l1.39.218a16.049,16.049,0,0,1,13.528,14.693l.687,9.423a2.552,2.552,0,0,1-.772,2.021h4.854A2.562,2.562,0,0,0,246.678,414.25Z" transform="translate(-172.516 -302.815)" fill="#16a2a2"/>
      <path id="Path_90" data-name="Path 90" d="M65.828,40.894H57.7A25.4,25.4,0,0,0,35.62,53.726a13.859,13.859,0,0,0-10.325,13.8L26,91.8h71.1V72.161A31.266,31.266,0,0,0,65.828,40.894Z" transform="translate(-21.636 -39.075)" fill="#655e67"/>
      <g id="Group_17" data-name="Group 17" transform="translate(1.819 21.502)">
        <path id="Path_91" data-name="Path 91" d="M35.693,228.417H23.17a5.445,5.445,0,0,1-5.445-5.445v-1.707a5.445,5.445,0,0,1,5.445-5.445H35.693Z" transform="translate(-17.725 -193.107)" fill="#faa68e"/>
        <path id="Path_92" data-name="Path 92" d="M258.155,228.417h12.523a5.445,5.445,0,0,0,5.445-5.445v-1.707a5.445,5.445,0,0,0-5.445-5.445H258.155Z" transform="translate(-199.882 -193.107)" fill="#faa68e"/>
        <path id="Path_93" data-name="Path 93" d="M117.03,149.039c0,17.946-18.105,28.248-28.683,28.248s-28.683-10.3-28.683-28.248c0-11.464,3.186-20.139,8.342-25.958a2.913,2.913,0,0,1,4.363.015,38.881,38.881,0,0,0,3.771,3.767c1.592,1.367,3.471,2.615,5.566,2.638a4.431,4.431,0,0,0,3.6-1.854,2.293,2.293,0,0,1,2.875-.741,58.794,58.794,0,0,0,21.44,5.448,6.713,6.713,0,0,1,6.172,5.162A50.99,50.99,0,0,1,117.03,149.039Z" transform="translate(-49.499 -122.106)" fill="#faa68e"/>
      </g>
      <path id="Path_94" data-name="Path 94" d="M134.545,170.617a6.691,6.691,0,0,0-4.412-4.821,53.181,53.181,0,0,1,.994,10.528c0,18.325-18.488,28.845-29.289,28.845-5.023,0-11.71-2.277-17.426-6.557,6.225,7.623,15.972,11.775,22.685,11.775,10.578,0,28.683-10.3,28.683-28.248A50.972,50.972,0,0,0,134.545,170.617Z" transform="translate(-66.43 -133.705)" fill="#e09380"/>
      <g id="Group_18" data-name="Group 18" transform="translate(0 0)">
        <path id="Path_98" data-name="Path 98" d="M80.592,21.493C79.364,18.73,63.168,8.739,54.411,8.739H46.285a27.306,27.306,0,0,0-23.278,13.1,15.592,15.592,0,0,0-10.946,15.4l.459,15.862a7.243,7.243,0,0,0-2.3,5.3v1.706a7.271,7.271,0,0,0,7.264,7.261h4.873a29.1,29.1,0,0,0,5.386,8.539L19.428,87.422a1.822,1.822,0,0,0-.285.606l-8.384,32.255a3.561,3.561,0,0,0,3.446,4.457H81.826a4.382,4.382,0,0,0,4.37-4.7l-.688-9.422a17.709,17.709,0,0,0-1.882-6.783,1.818,1.818,0,1,0-3.241,1.648,14.091,14.091,0,0,1,1.5,5.4l.688,9.421a.746.746,0,0,1-.744.8H73.441v-7.427a1.818,1.818,0,0,0-3.636,0V121.1H30l4.638-17.842a.133.133,0,0,1,.129-.1H42.8a9.646,9.646,0,0,0,4.517-1.119,19.991,19.991,0,0,0,3.565.321A19.5,19.5,0,0,0,64.41,96.985h.007c.355.074.086.019,5.471.867a14.118,14.118,0,0,1,5.5,2.088,1.818,1.818,0,1,0,1.968-3.057,17.729,17.729,0,0,0-6.9-2.623c-4.664-.782-5.092-.712-5.839-1a3.485,3.485,0,0,1-2.232-3.214,5.986,5.986,0,0,0,3.384-7.4c4.3-2.549,10.465-7.373,13.653-15.276h3.422A7.27,7.27,0,0,0,90.1,60.107V58.4a7.252,7.252,0,0,0-2.6-5.565V48.159C87.932,48.274,85.924,21.091,80.592,21.493ZM13.856,60.107V58.4a3.632,3.632,0,0,1,3.628-3.628h2.95a29.836,29.836,0,0,0,.746,8.96h-3.7A3.631,3.631,0,0,1,13.856,60.107Zm37.092,38.62a9.647,9.647,0,0,0,1.563-5.272v-2.9h6.252a7.107,7.107,0,0,0,2.2,4.634A15.934,15.934,0,0,1,50.947,98.727Zm8.994-11.813H52.1a3.228,3.228,0,0,0-3.224,3.224v3.316A6.079,6.079,0,0,1,42.8,99.527H34.771a3.769,3.769,0,0,0-3.647,2.82L26.248,121.1H14.3l8.274-31.831c.641-.888,12.432-17.216,13.919-19.278a2.393,2.393,0,0,1,1.572-.969,2.433,2.433,0,0,1,1.825.439l.089.065a2.261,2.261,0,0,1,.938,1.793,2.234,2.234,0,0,1-.41,1.371L37.12,77.534a2.934,2.934,0,0,0,2.4,4.62H60.048a2.379,2.379,0,0,1,2.38,2.4A2.441,2.441,0,0,1,59.941,86.914ZM86.462,60.107a3.63,3.63,0,0,1-3.626,3.626H80.592a27.322,27.322,0,0,0,.794-6.559c0-.81-.017-1.613-.048-2.4h1.5A3.631,3.631,0,0,1,86.462,58.4Zm-3.626-8.97H81.079a48.561,48.561,0,0,0-.972-5.9,8.573,8.573,0,0,0-7.842-6.566,57.115,57.115,0,0,1-20.773-5.281,4.134,4.134,0,0,0-5.151,1.374,2.6,2.6,0,0,1-2.073,1.052c-1.273-.015-2.672-.714-4.4-2.2a37.373,37.373,0,0,1-3.594-3.592,4.746,4.746,0,0,0-3.55-1.6h0a4.722,4.722,0,0,0-3.531,1.588,30.971,30.971,0,0,0-4.51,6.735,1.818,1.818,0,1,0,3.254,1.622,27.332,27.332,0,0,1,3.977-5.945,1.072,1.072,0,0,1,.81-.364,1.106,1.106,0,0,1,.832.377,40.962,40.962,0,0,0,3.948,3.94c1.521,1.305,3.873,3.045,6.729,3.078A6.225,6.225,0,0,0,49.356,36.8a.489.489,0,0,1,.6-.11A60.791,60.791,0,0,0,72.06,42.3a4.917,4.917,0,0,1,4.5,3.757A46.094,46.094,0,0,1,77.6,53.09c.1,1.311.148,2.685.148,4.084a23.478,23.478,0,0,1-1.306,7.776c-2.716,7.764-8.794,12.4-12.829,14.739a5.972,5.972,0,0,0-3.568-1.171H40.868l2.616-3.738a5.934,5.934,0,0,0-1.367-8.193l-.088-.064a6.058,6.058,0,0,0-8.482,1.345l-3.619,5.015a25.008,25.008,0,0,1-4.6-7.933c-1.4-4-1.477-7.588-1.158-11.863a45.889,45.889,0,0,1,1.078-7.182,1.818,1.818,0,1,0-3.538-.835,48.424,48.424,0,0,0-1.015,6.067h-3.21a7.261,7.261,0,0,0-1.381.133l-.409-14.131a11.976,11.976,0,0,1,8.971-11.99,1.818,1.818,0,0,0,1.119-.858,23.659,23.659,0,0,1,20.5-11.917h8.127a29.484,29.484,0,0,1,29.45,29.45V51.21a7.3,7.3,0,0,0-1.025-.074Z" transform="translate(-10.22 -8.739)"/>
        <path id="Path_99" data-name="Path 99" d="M134.424,222.949a1.818,1.818,0,0,0,1.818-1.818V219.1a1.818,1.818,0,1,0-3.636,0v2.03A1.818,1.818,0,0,0,134.424,222.949Z" transform="translate(-102.943 -172.714)"/>
        <path id="Path_100" data-name="Path 100" d="M246.5,222.949a1.818,1.818,0,0,0,1.818-1.818V219.1a1.818,1.818,0,1,0-3.636,0v2.03a1.818,1.818,0,0,0,1.818,1.818Z" transform="translate(-187.856 -172.714)"/>
        <path id="Path_101" data-name="Path 101" d="M174.662,262.853a6.627,6.627,0,0,1,7.265,0,1.818,1.818,0,0,0,1.832-3.14,10.327,10.327,0,0,0-10.928,0,1.818,1.818,0,1,0,1.832,3.14Z" transform="translate(-132.735 -203.674)"/>
      </g>
    </g>
    <g id="Union_31" data-name="Union 31" transform="translate(2431 3332)" fill="#fff">
      <path d="M -2322 -3131.307861328125 L -2331.46875 -3154.19091796875 L -2331.596435546875 -3154.499755859375 L -2331.9306640625 -3154.499755859375 L -2377 -3154.499755859375 C -2379.632568359375 -3154.499755859375 -2382.186279296875 -3155.015380859375 -2384.590087890625 -3156.031982421875 C -2386.912109375 -3157.01416015625 -2388.99755859375 -3158.42041015625 -2390.788330078125 -3160.21142578125 C -2392.579345703125 -3162.00244140625 -2393.9853515625 -3164.088134765625 -2394.967529296875 -3166.41015625 C -2395.984130859375 -3168.81396484375 -2396.499755859375 -3171.36767578125 -2396.499755859375 -3174.00048828125 L -2396.499755859375 -3233 C -2396.499755859375 -3235.6328125 -2395.984130859375 -3238.186279296875 -2394.967529296875 -3240.590087890625 C -2393.985595703125 -3242.912109375 -2392.579345703125 -3244.99755859375 -2390.78857421875 -3246.78857421875 C -2388.99755859375 -3248.579345703125 -2386.912109375 -3249.985595703125 -2384.590087890625 -3250.967529296875 C -2382.186279296875 -3251.984130859375 -2379.6328125 -3252.499755859375 -2377 -3252.499755859375 L -2098.999755859375 -3252.499755859375 C -2096.366943359375 -3252.499755859375 -2093.8134765625 -3251.984130859375 -2091.40966796875 -3250.967529296875 C -2089.087646484375 -3249.985595703125 -2087.002197265625 -3248.579345703125 -2085.211181640625 -3246.78857421875 C -2083.42041015625 -3244.99755859375 -2082.01416015625 -3242.912109375 -2081.0322265625 -3240.590087890625 C -2080.015380859375 -3238.186279296875 -2079.5 -3235.6328125 -2079.5 -3233 L -2079.5 -3174.00048828125 C -2079.5 -3171.36767578125 -2080.015380859375 -3168.81396484375 -2081.0322265625 -3166.41015625 C -2082.014404296875 -3164.088134765625 -2083.42041015625 -3162.00244140625 -2085.21142578125 -3160.21142578125 C -2087.002197265625 -3158.42041015625 -2089.087646484375 -3157.01416015625 -2091.40966796875 -3156.031982421875 C -2093.8134765625 -3155.015380859375 -2096.3671875 -3154.499755859375 -2098.999755859375 -3154.499755859375 L -2312.0693359375 -3154.499755859375 L -2312.403564453125 -3154.499755859375 L -2312.53125 -3154.19091796875 L -2322 -3131.307861328125 Z" stroke="none"/>
      <path d="M -2322 -3132.61572265625 L -2312.993408203125 -3154.382080078125 L -2312.73779296875 -3154.999755859375 L -2312.0693359375 -3154.999755859375 L -2098.999755859375 -3154.999755859375 C -2096.434326171875 -3154.999755859375 -2093.9462890625 -3155.501953125 -2091.6044921875 -3156.492431640625 C -2089.342041015625 -3157.449462890625 -2087.31005859375 -3158.819580078125 -2085.56494140625 -3160.56494140625 C -2083.819580078125 -3162.310302734375 -2082.449462890625 -3164.342529296875 -2081.49267578125 -3166.60498046875 C -2080.502197265625 -3168.94677734375 -2080 -3171.43505859375 -2080 -3174.00048828125 L -2080 -3233 C -2080 -3235.5654296875 -2080.502197265625 -3238.053466796875 -2081.49267578125 -3240.395263671875 C -2082.449462890625 -3242.65771484375 -2083.819580078125 -3244.689697265625 -2085.56494140625 -3246.434814453125 C -2087.31005859375 -3248.18017578125 -2089.342041015625 -3249.55029296875 -2091.6044921875 -3250.507080078125 C -2093.9462890625 -3251.49755859375 -2096.434326171875 -3251.999755859375 -2098.999755859375 -3251.999755859375 L -2377 -3251.999755859375 C -2379.5654296875 -3251.999755859375 -2382.053466796875 -3251.49755859375 -2384.395263671875 -3250.507080078125 C -2386.65771484375 -3249.55029296875 -2388.689697265625 -3248.18017578125 -2390.434814453125 -3246.434814453125 C -2392.18017578125 -3244.689697265625 -2393.55029296875 -3242.65771484375 -2394.507080078125 -3240.395263671875 C -2395.49755859375 -3238.053466796875 -2395.999755859375 -3235.5654296875 -2395.999755859375 -3233 L -2395.999755859375 -3174.00048828125 C -2395.999755859375 -3171.43505859375 -2395.49755859375 -3168.94677734375 -2394.507080078125 -3166.60498046875 C -2393.550048828125 -3164.342529296875 -2392.18017578125 -3162.310302734375 -2390.434814453125 -3160.56494140625 C -2388.689697265625 -3158.819580078125 -2386.65771484375 -3157.449462890625 -2384.395263671875 -3156.492431640625 C -2382.053466796875 -3155.501953125 -2379.5654296875 -3154.999755859375 -2377 -3154.999755859375 L -2331.9306640625 -3154.999755859375 L -2331.26220703125 -3154.999755859375 L -2331.006591796875 -3154.382080078125 L -2322 -3132.61572265625 M -2322 -3130.000244140625 L -2331.9306640625 -3153.999755859375 L -2377 -3153.999755859375 C -2388.045654296875 -3153.999755859375 -2396.999755859375 -3162.95458984375 -2396.999755859375 -3174.00048828125 L -2396.999755859375 -3233 C -2396.999755859375 -3244.045654296875 -2388.045654296875 -3252.999755859375 -2377 -3252.999755859375 L -2098.999755859375 -3252.999755859375 C -2087.9541015625 -3252.999755859375 -2079 -3244.045654296875 -2079 -3233 L -2079 -3174.00048828125 C -2079 -3162.95458984375 -2087.9541015625 -3153.999755859375 -2098.999755859375 -3153.999755859375 L -2312.0693359375 -3153.999755859375 L -2322 -3130.000244140625 Z" stroke="none" fill="#707070"/>
    </g>
  </g>
</svg>
