<svg xmlns="http://www.w3.org/2000/svg" viewBox="0 0 146.07 218.16"><defs><style>.cls-1,.cls-25{fill:#fcdaae;}.cls-2{fill:#000201;}.cls-3{fill:#fcefdc;}.cls-4,.cls-8{fill:#fff;}.cls-4{opacity:0.55;}.cls-23,.cls-4{isolation:isolate;}.cls-5{fill:#f2949f;}.cls-6,.cls-7{fill:#ef6277;}.cls-6{opacity:0.35;}.cls-9{fill:#ffd2d9;}.cls-10{fill:#f8c5a6;}.cls-11{fill:#e89176;}.cls-12{fill:#1e1e30;}.cls-13{fill:#fcc6a6;}.cls-14,.cls-17,.cls-20,.cls-21{fill:#ff9976;}.cls-15{fill:#181828;}.cls-16{fill:#fdc6a2;}.cls-17{opacity:0.25;}.cls-18{fill:#fc5454;}.cls-19{fill:#ce1313;}.cls-20{opacity:0.6;}.cls-21{opacity:0.3;}.cls-22{fill:#e8e2dd;}.cls-23{fill:#c6bdb6;opacity:0.3;}.cls-24{fill:#303030;}.cls-25{opacity:0.45;}</style></defs><title>Asset 5</title><g id="Layer_2" data-name="Layer 2"><g id="Layer_1-2" data-name="Layer 1"><path class="cls-1" d="M93.08,16.91s23.69,16.67,46.58,8.58a.76.76,0,0,1,.76,1.3C134.34,31.64,120.72,40,104,34.56"/><path class="cls-2" d="M115.08,37.32a36.5,36.5,0,0,1-11.38-1.84,1,1,0,0,1,.59-1.84c15.58,5.07,28.35-2.06,34.93-7.13-22.71,7.78-46.46-8.64-46.7-8.81a1,1,0,0,1,1.11-1.57c.23.16,23.57,16.27,45.71,8.45a1.74,1.74,0,0,1,2.12.8,1.68,1.68,0,0,1-.44,2.16C135.92,31.61,126.7,37.32,115.08,37.32Z"/><path class="cls-1" d="M78.61,5.73A76.32,76.32,0,0,0,69.94,9c-5.18,2.25-10.33,4.7-15.87,5.81-2.65.53-5.37.75-8,1.23a35.55,35.55,0,0,0-5.28,1.35,27.36,27.36,0,0,0,3.63-2.23C47.65,12.72,50,9.27,53,6.49,57.07,2.62,63.16,0,68.32,2.22c2.17.93,4,2.62,6.26,3.28A11.1,11.1,0,0,0,78.61,5.73Z"/><path class="cls-2" d="M45.53,16.28a1,1,0,0,1-.49-.13,1,1,0,0,1-.34-1.32c2.38-4,5.4-8.48,9.84-11.55C59.28,0,65-.9,69.55.94A21.12,21.12,0,0,1,76,5.5a1,1,0,0,1-1.32,1.4,19.72,19.72,0,0,0-5.85-4.18c-3.93-1.59-9-.77-13.19,2.14s-7,7.14-9.28,11A1,1,0,0,1,45.53,16.28Z"/><path class="cls-3" d="M16.15,46.09c-3.81-6.63-2.55-15.38,1.79-21.68S29.25,14,36.5,11.6c2.7-.9,5.39-.88,7.91-2.19C48,7.52,52,10.9,56,10.42A44.45,44.45,0,0,0,70.74,6.71c2.15-1,5.11-1.93,7.24-.93,1.73.81,1.59-.88,3.5-.81,5.35.21,11,.43,15.53,3.33,3.59,2.31,6,6,8.36,9.58C113.53,30,123.86,42.09,138,45.78c10.09,3.36-1.48,5.2-4.56,5.07s-9.94-2.81-12.7-4.18c1.34,9,5.21,18.32,9.37,26.45,3.38,6.59,7.68,12.87,9.28,20.11s-.38,16-6.9,19.5c-2.72,1.46-5.91,1.86-8.66,3.27a5.81,5.81,0,0,1-2.89,1,7.57,7.57,0,0,1-2.5-1c-3.36-1.48-7.16.17-10.67,1.23a32.72,32.72,0,0,1-17.8.23c-8.19-2.22-15.18-7.56-21.26-13.48S57.26,91.49,50.9,85.87"/><path class="cls-1" d="M132.59,113.19c-2.7,1.46-5.9,1.86-8.65,3.28a6.24,6.24,0,0,1-2.9,1,8.5,8.5,0,0,1-2.47-1c-3.38-1.49-7.17.15-10.7,1.21a31.4,31.4,0,0,1-10.06,1.33,14.24,14.24,0,0,1,0-5.52c1.16-6.05,6.38-10.39,11.58-13.67s11-6.18,14.48-11.23c1.13-1.66,2-3.48,3.1-5.14a19.83,19.83,0,0,1,5.62-5.63c2.8,5.07,5.7,10.17,7,15.82C141.1,100.93,139.13,109.68,132.59,113.19Z"/><ellipse class="cls-3" cx="21.98" cy="68.64" rx="16.43" ry="25.28"/><path class="cls-2" d="M22,94.88c-9.59,0-17.39-11.77-17.39-26.24A34.93,34.93,0,0,1,9,51.19a1,1,0,0,1,1.32-.34,1,1,0,0,1,.34,1.32A32.94,32.94,0,0,0,6.51,68.64C6.51,82.05,13.45,93,22,93s15.47-10.9,15.47-24.31S30.51,44.32,22,44.32a10.89,10.89,0,0,0-6.46,2.24A1,1,0,1,1,14.38,45,12.69,12.69,0,0,1,22,42.4c9.59,0,17.4,11.77,17.4,26.24S31.57,94.88,22,94.88Z"/><ellipse class="cls-1" cx="40.08" cy="119.63" rx="16.43" ry="25.28"/><path class="cls-2" d="M40.08,145.88c-9.6,0-17.4-11.78-17.4-26.25a34.87,34.87,0,0,1,4.38-17.44,1,1,0,0,1,1.32-.35,1,1,0,0,1,.34,1.32,33,33,0,0,0-4.11,16.47C24.61,133,31.55,144,40.08,144S55.54,133,55.54,119.63,48.6,95.32,40.08,95.32a10.78,10.78,0,0,0-6.46,2.24A1,1,0,1,1,32.48,96a12.71,12.71,0,0,1,7.6-2.61c9.59,0,17.39,11.77,17.39,26.24S49.67,145.88,40.08,145.88Z"/><circle class="cls-4" cx="60.23" cy="137.07" r="0.55"/><circle class="cls-4" cx="60.23" cy="139.73" r="0.73"/><path class="cls-5" d="M60,149.89h0a46.19,46.19,0,0,1,46.19,46.19v0a21.4,21.4,0,0,1-21.4,21.4H35.21a21.4,21.4,0,0,1-21.4-21.4v0A46.19,46.19,0,0,1,60,149.89Z"/><path class="cls-6" d="M59.36,186.57a22.41,22.41,0,0,0,18.85-8.73c4-5.49,5.34-12.78,3.33-23.19-.12,1.54,5.58,3.37,5.62,3.35a38,38,0,0,1,6.16,5,46.08,46.08,0,0,1,13.53,32.67,21.39,21.39,0,0,1-21.41,21.39H35.86c-2.34,0-8.41-2.19-10.51-2.89-1.2-4.06-2.55-8.64-1.24-12.69s5-7.05,9.28-9.55c.72-.42,1.45-.82,2.19-1.19a43.12,43.12,0,0,1,20.78-4.29Z"/><path class="cls-7" d="M105.93,194.88a21.41,21.41,0,0,1-21.41,21.39H34.93A21.72,21.72,0,0,1,27.51,215a13.79,13.79,0,0,1,0-5.65,14.21,14.21,0,0,1,7.9-9.82c7.73-3.51,16.58.44,25.06.82,11.82.54,23.32-6.47,29.5-16.57A41.59,41.59,0,0,0,95.75,166,45.89,45.89,0,0,1,105.93,194.88Z"/><path class="cls-2" d="M85.22,218.16H35.63a22.52,22.52,0,0,1-22.49-22.49c0-1.21,0-2.4.13-3.58a1.12,1.12,0,0,1,1.18-1,1.1,1.1,0,0,1,1,1.17c-.09,1.13-.13,2.27-.13,3.42A20.32,20.32,0,0,0,35.63,216H85.22a20.32,20.32,0,0,0,20.3-20.3,45.1,45.1,0,0,0-88.34-12.84,1.09,1.09,0,0,1-2.1-.62,47.29,47.29,0,0,1,92.63,13.46A22.52,22.52,0,0,1,85.22,218.16Z"/><circle class="cls-7" cx="83.53" cy="188.7" r="5.14"/><circle class="cls-7" cx="76.56" cy="193.31" r="1.51"/><path class="cls-8" d="M25.29,174.4a.92.92,0,0,1-.47-.14.9.9,0,0,1-.3-1.25,36.54,36.54,0,0,1,3.55-4.9.91.91,0,0,1,1.28-.11.92.92,0,0,1,.11,1.29A35.58,35.58,0,0,0,26.07,174,.91.91,0,0,1,25.29,174.4Z"/><circle class="cls-8" cx="31.43" cy="166.29" r="1.27"/><path class="cls-9" d="M18.89,181.57a1,1,0,0,1-.3,0,.91.91,0,0,1-.56-1.17c.28-.81,7.15-20,24.48-25.81a.91.91,0,0,1,.58,1.73c-16.47,5.55-23.27,24.5-23.34,24.69A.91.91,0,0,1,18.89,181.57Z"/><circle class="cls-9" cx="38.68" cy="158.93" r="1.4"/><circle class="cls-9" cx="37.31" cy="161.7" r="0.92"/><path class="cls-2" d="M83.26,206.19h18.66a1,1,0,1,1,0,1.9H83.26a1,1,0,1,1,0-1.9Z"/><path class="cls-2" d="M74.72,206.19h2.64a1,1,0,1,1,0,1.9H74.72a1,1,0,1,1,0-1.9Z"/><circle class="cls-10" cx="10.94" cy="87.53" r="10.09"/><circle class="cls-11" cx="11.85" cy="86.98" r="4.25"/><path d="M10.94,98.47a10.94,10.94,0,1,1,11-10.94A11,11,0,0,1,10.94,98.47Zm0-20.19a9.25,9.25,0,1,0,9.25,9.25A9.25,9.25,0,0,0,10.94,78.28Z"/><path d="M16,85.47a.61.61,0,0,1-.5-.27c-1.84-2.79-6.69-2.62-6.75-2.63A.65.65,0,0,1,8.16,82a.59.59,0,0,1,.57-.61c.23,0,5.58-.2,7.79,3.15a.6.6,0,0,1-.17.83A.55.55,0,0,1,16,85.47Z"/><path d="M9.92,89a.58.58,0,0,1-.59-.59c0-3,2.8-5.81,2.93-5.93a.59.59,0,0,1,.84.84S10.51,86,10.51,88.44A.58.58,0,0,1,9.92,89Z"/><circle class="cls-10" cx="109.52" cy="87.53" r="10.09"/><circle class="cls-11" cx="108.62" cy="86.98" r="4.25"/><path d="M109.52,98.47a10.94,10.94,0,1,1,11-10.94A11,11,0,0,1,109.52,98.47Zm0-20.19a9.25,9.25,0,1,0,9.25,9.25A9.26,9.26,0,0,0,109.52,78.28Z"/><path d="M104.44,85.47a.6.6,0,0,1-.33-.1.59.59,0,0,1-.16-.83c2.21-3.35,7.58-3.14,7.78-3.15a.58.58,0,0,1,.57.61.59.59,0,0,1-.59.57h-.19c-.89,0-4.94.14-6.59,2.63A.59.59,0,0,1,104.44,85.47Z"/><path d="M110.54,89a.59.59,0,0,1-.59-.59c0-2.47-2.55-5.07-2.58-5.09a.59.59,0,0,1,.84-.84c.12.12,2.93,3,2.93,5.93A.59.59,0,0,1,110.54,89Z"/><path class="cls-12" d="M74.66,127.32a1.09,1.09,0,0,1-1.08-1.08V27.71a1.08,1.08,0,1,1,2.16,0v98.53A1.08,1.08,0,0,1,74.66,127.32Z"/><path class="cls-12" d="M42,133A1.08,1.08,0,0,1,40.88,132V31.1a1.08,1.08,0,1,1,2.16,0V132A1.08,1.08,0,0,1,42,133Z"/><path class="cls-13" d="M53.44,124.86H65.89v24.77a6.23,6.23,0,0,1-6.23,6.23h0a6.23,6.23,0,0,1-6.23-6.23V124.86h0Z"/><path class="cls-14" d="M65.32,135.81v5.55c-2.32-.54-1.47,4.07-6.43,3.85-5,.22-4.55-4.66-6-7.56v-1.84Z"/><path class="cls-15" d="M59.52,156.89a7.14,7.14,0,0,1-7.14-7.14V125a.87.87,0,0,1,.83-.91H65.75a.86.86,0,0,1,.92.81.17.17,0,0,1,0,.1v24.77A7.15,7.15,0,0,1,59.52,156.89Zm-5.31-31v23.85a5.32,5.32,0,0,0,10.63.43V125.9Z"/><path class="cls-16" d="M60.21,19.11h0a46.05,46.05,0,0,1,46.05,46.05V93.75a46.06,46.06,0,0,1-46.05,46.06h0A46.06,46.06,0,0,1,14.15,93.75V55C14.15,29.6,34.77,19.11,60.21,19.11Z"/><path class="cls-17" d="M60.21,19.11h0a46.05,46.05,0,0,1,46.05,46.05V93.75a46.06,46.06,0,0,1-46.05,46.06h0Z"/><path class="cls-14" d="M107,52.62V93.37a46.06,46.06,0,0,1-46.06,46.06c-1.09,0-2.18-.05-3.26-.13a46,46,0,0,0,42.79-45.93V56.68c0-24.17-18.68-36.13-42.79-37.84,1.08-.08,2.17-.11,3.26-.11,25.43,0,46.05,12.5,46.06,37.94V52.62Z"/><path class="cls-8" d="M63,139.71c-1,.07-2.06.1-3.11.1A46.06,46.06,0,0,1,13.83,93.74V57.05c0-25.43,20.62-37.94,46.05-37.94h0c1,0,2.08,0,3.11.1C38.82,20.84,18,32.09,18,56.32V93C18,117.25,38.81,138.08,63,139.71Z"/><circle class="cls-8" cx="26.38" cy="47.85" r="3.05"/><circle class="cls-8" cx="33.42" cy="44.43" r="1.35"/><circle class="cls-8" cx="24.61" cy="52.58" r="0.57"/><circle class="cls-8" cx="31.25" cy="47.44" r="0.45"/><circle class="cls-8" cx="30.74" cy="44.09" r="0.73"/><path class="cls-18" d="M73.45,109.12l-8.22.35-4.72.46h-.6l-4.73-.46L47,109.12c3.74,0,8.57-6.1,10.26-5.67a21.54,21.54,0,0,1,3,1.12,18.53,18.53,0,0,1,3-1.12C64.87,103,69.71,109.12,73.45,109.12Z"/><path class="cls-18" d="M72.35,109.43s-3.3,9.58-12,9.58H60c-8.72,0-12-9.58-12-9.58Z"/><path class="cls-19" d="M72.35,108.85s-3.29,9.59-12,9.59H60c-8.72,0-12-9.59-12-9.59h.87c1.45,2.78,4.9,7.72,11.13,7.72h.36c6.23,0,9.68-4.93,11.13-7.72Z"/><path class="cls-15" d="M60.51,111.69h-.6a.49.49,0,0,1-.24,0L55,110.13l-8.12-.35a.76.76,0,1,1,0-1.52c1.85,0,4.24-1.87,6.1-3.39s3.21-2.53,4.31-2.24a21.71,21.71,0,0,1,2.8,1,21.19,21.19,0,0,1,2.8-1c1.1-.29,2.44.76,4.3,2.24s4.3,3.39,6.15,3.39a.76.76,0,0,1,0,1.52l-8.13.35-4.61,1.56A.28.28,0,0,1,60.51,111.69ZM60,110.18h.34l4.6-1.55a.8.8,0,0,1,.21,0l4.43-.19A34,34,0,0,1,66.37,106c-1-.8-2.54-2-3-2a20.89,20.89,0,0,0-2.86,1.06.77.77,0,0,1-.63,0A19.77,19.77,0,0,0,57,104.06h0c-.45,0-2,1.18-3,2a35.36,35.36,0,0,1-3.25,2.36l4.42.19a.8.8,0,0,1,.21,0Z"/><path class="cls-15" d="M60.38,119.63H60a12.37,12.37,0,0,1-9.83-5.06,18.83,18.83,0,0,1-2.85-5,.76.76,0,0,1,.47-1,.78.78,0,0,1,1,.47h0c0,.1,3.22,9.06,11.24,9.06h.35c8.05,0,11.22-9,11.24-9.06a.76.76,0,0,1,1.46.45v0a18.83,18.83,0,0,1-2.85,5A12.48,12.48,0,0,1,60.38,119.63Z"/><circle class="cls-20" cx="96.64" cy="99.13" r="0.91"/><circle class="cls-21" cx="95.4" cy="96.45" r="0.91"/><circle class="cls-14" cx="97.76" cy="101.68" r="0.91"/><circle class="cls-20" cx="96.37" cy="104.63" r="0.91"/><circle class="cls-21" cx="95.12" cy="101.95" r="0.91"/><circle class="cls-14" cx="97.48" cy="107.17" r="0.91"/><path class="cls-2" d="M60.21,141A47.33,47.33,0,0,1,12.94,93.75V55c0-23.26,17.67-37.15,47.27-37.15S107.47,31.78,107.47,55V93.75A47.41,47.41,0,0,1,87.72,132.2a1.21,1.21,0,1,1-1.42-2,45,45,0,0,0,18.75-36.48V55c0-31.34-31.36-34.72-44.84-34.72S15.36,23.7,15.36,55V93.75A44.88,44.88,0,0,0,76.11,135.7,1.21,1.21,0,0,1,77,138,47.07,47.07,0,0,1,60.21,141Z"/><circle class="cls-22" cx="110.84" cy="96.85" r="6.06"/><path class="cls-23" d="M113.63,91.48a6.05,6.05,0,0,1-8.16,8.16,6.05,6.05,0,1,0,8.16-8.16Z"/><ellipse class="cls-8" cx="107.51" cy="95.09" rx="1.8" ry="1.1" transform="translate(-23.77 153.09) rotate(-65.33)"/><path class="cls-15" d="M110.5,103.83a7,7,0,1,1,7-7h0A7,7,0,0,1,110.5,103.83Zm0-12.11a5.13,5.13,0,1,0,5.13,5.14h0a5.16,5.16,0,0,0-5.13-5.14Z"/><circle class="cls-22" cx="11.61" cy="96.31" r="6.06"/><path class="cls-23" d="M14.39,91a6.05,6.05,0,0,1-8.16,8.16A6.07,6.07,0,0,0,17,93.52,5.92,5.92,0,0,0,14.39,91Z"/><ellipse class="cls-8" cx="8.28" cy="94.55" rx="1.8" ry="1.1" transform="translate(-81.09 62.61) rotate(-65.33)"/><path class="cls-15" d="M11.28,103.33a7,7,0,1,1,7-7h0A7,7,0,0,1,11.28,103.33Zm0-12.11a5.12,5.12,0,1,0,5.12,5.14h0a5.13,5.13,0,0,0-5.1-5.17h0Z"/><path class="cls-8" d="M5.07,84A4.44,4.44,0,0,1,7.3,81.53c.87-.34.52-1.78-.4-1.43a5.85,5.85,0,0,0-3.12,3.12c-.38.88.9,1.63,1.28.77Z"/><ellipse class="cls-8" cx="3.35" cy="86.72" rx="1.18" ry="0.95" transform="translate(-82.93 77.37) rotate(-81.6)"/><path class="cls-24" d="M60.21,97.71a.87.87,0,0,1-.87-.87V80.49a.87.87,0,0,1,1.74,0V96.85A.87.87,0,0,1,60.21,97.71Z"/><path class="cls-8" d="M11.72,41.11a1.35,1.35,0,0,1-1.32-1.64,99.21,99.21,0,0,1,5.48-16.63,1.35,1.35,0,0,1,2.47,1.09A99.45,99.45,0,0,0,13,40.05,1.34,1.34,0,0,1,11.72,41.11Z"/><path class="cls-2" d="M24,197.3a.81.81,0,0,1-.31-.06.8.8,0,0,1-.45-1.05v0l4.45-10.52a.82.82,0,0,1,1.07-.43.8.8,0,0,1,.43,1.07l-4.45,10.51A.8.8,0,0,1,24,197.3Z"/><path class="cls-2" d="M29.92,192.22a.67.67,0,0,1-.31-.07.8.8,0,0,1-.45-1.05v0l2.38-5.63a.82.82,0,0,1,1.07-.44.81.81,0,0,1,.43,1.07l-2.38,5.63A.81.81,0,0,1,29.92,192.22Z"/><circle class="cls-2" cx="121.02" cy="50.44" r="1.3"/><circle class="cls-2" cx="135.95" cy="83.43" r="1.3"/><circle class="cls-2" cx="138.56" cy="106.68" r="1.3"/><circle class="cls-2" cx="81.93" cy="134.35" r="1.3"/><path class="cls-3" d="M70.69,66.77l13-.77a3.64,3.64,0,0,0,3.42-3.57h0c0-1.9-1.4-1.6-3.29-1.78L70.86,59.41a3.63,3.63,0,0,0-4,3.55l0,.11A3.64,3.64,0,0,0,70.69,66.77Z"/><path class="cls-1" d="M70.69,66.77l13-.77a3.64,3.64,0,0,0,3.42-3.57h0c0-1.9.54,1.21-1.35,1L68.29,64.53c-2.11-.21-1.37-3.69-1.41-1.57l0,.11A3.64,3.64,0,0,0,70.69,66.77Z"/><path class="cls-2" d="M70.48,67.42a4.27,4.27,0,0,1-4.28-4.36.63.63,0,0,1,0-.19,4.3,4.3,0,0,1,1.43-3,4.21,4.21,0,0,1,3.26-1.07l5.12.49a.65.65,0,0,1,.58.7.61.61,0,0,1-.71.58l-5.11-.49a2.91,2.91,0,0,0-2.28.75,3,3,0,0,0-1,2.17.69.69,0,0,1,0,.2,2.93,2.93,0,0,0,.91,2.13,3.06,3.06,0,0,0,2.25.82l12.95-.77a3,3,0,0,0,2.82-2.93c0-.87-.15-1-1.78-1.06l-.93-.07-2.2-.21a.64.64,0,0,1-.58-.7.61.61,0,0,1,.7-.58l2.21.21.87.06c1.35.08,3,.17,3,2.38a4.3,4.3,0,0,1-4,4.19l-13,.77Z"/><circle class="cls-1" cx="73.49" cy="64" r="0.96"/><circle class="cls-1" cx="76.02" cy="62.9" r="0.51"/><circle class="cls-1" cx="70.03" cy="64.11" r="1.23"/><path class="cls-3" d="M49.53,67l-13.74-.81a3.85,3.85,0,0,1-3.63-3.79h0c0-2,1.48-1.7,3.49-1.89l13.7-1.32A3.86,3.86,0,0,1,53.58,63l0,.12A3.85,3.85,0,0,1,49.53,67Z"/><path class="cls-1" d="M49.53,67l-13.74-.81a3.85,3.85,0,0,1-3.63-3.79h0c0-2-.57,1.28,1.43,1.09l18.49,1.14c2.24-.22,1.46-3.92,1.5-1.67l0,.12A3.85,3.85,0,0,1,49.53,67Z"/><path class="cls-2" d="M49.76,67.68h-.27l-13.74-.82a4.57,4.57,0,0,1-4.28-4.46c0-2.34,1.75-2.43,3.19-2.52l.92-.06,2.34-.23a.69.69,0,0,1,.75.62.68.68,0,0,1-.61.74l-2.35.23-1,.07c-1.73.1-1.91.2-1.89,1.13a3.18,3.18,0,0,0,3,3.11l13.74.82a3.18,3.18,0,0,0,3.37-3.14,1.15,1.15,0,0,1,0-.2,3.16,3.16,0,0,0-1.06-2.32,3.21,3.21,0,0,0-2.42-.79L44,60.38a.67.67,0,0,1-.74-.61.68.68,0,0,1,.61-.75l5.43-.52a4.53,4.53,0,0,1,5,4.35.63.63,0,0,1,.05.21,4.54,4.54,0,0,1-4.55,4.62Z"/><circle class="cls-1" cx="46.56" cy="64.05" r="1.02"/><circle class="cls-1" cx="43.88" cy="62.89" r="0.54"/><circle class="cls-1" cx="50.24" cy="64.17" r="1.31"/><path class="cls-2" d="M130.79,44.31a1.36,1.36,0,0,1-.48-.09,44,44,0,0,1-14.51-10.6,115.57,115.57,0,0,1-10.87-14.2,1.23,1.23,0,0,1,.32-1.69,1.21,1.21,0,0,1,1.69.32A112.24,112.24,0,0,0,117.57,32a41.35,41.35,0,0,0,13.7,10,1.21,1.21,0,0,1-.48,2.33Z"/><path class="cls-3" d="M136,50.35a9.16,9.16,0,0,1-5.16-.44A56.07,56.07,0,0,1,102.9,30.73C100,27,97,22.5,92.28,22a14,14,0,0,0-4.4.42A81.28,81.28,0,0,0,71.3,27.86a50.44,50.44,0,0,1-9,3.57c-5.48,1.28-11.27.09-16.83,1-7.65,1.2-14.11,6.13-20.21,10.9L13.88,53.41l-1-7.31.34-11L15.92,28l5.58-7.25,34.33-5.9h33.9l15.5,12.53Z"/><path class="cls-1" d="M95.73,22.66a8.6,8.6,0,0,0-3.1-1,14.16,14.16,0,0,0-4.39.43,81.41,81.41,0,0,0-16.57,5.44,50.69,50.69,0,0,1-9,3.56c-5.5,1.29-11.28.1-16.85,1C38.17,33.28,31.71,38.23,25.6,43L14.23,53.11l-1-7.32.12-4.24a36.15,36.15,0,0,0,9.92-5.65c4.72-3.55,9.26-7.61,14.83-9.56C45.13,23.9,52.9,25,60,23c4-1.11,7.62-3.2,11.53-4.47a30.18,30.18,0,0,1,17.63-.27,12.46,12.46,0,0,1,5,2.49A8.64,8.64,0,0,1,95.73,22.66Z"/><path class="cls-2" d="M133.47,79.5a1.23,1.23,0,0,1-1-.58c-.63-1-1.29-2.06-2-3.08-1-1.54-2-3.08-2.92-4.68a70.14,70.14,0,0,1-6.41-15.93,1.22,1.22,0,0,1,2.34-.67A67.42,67.42,0,0,0,129.67,70c.89,1.56,1.87,3.06,2.85,4.57.67,1,1.34,2.08,2,3.13a1.22,1.22,0,0,1-1,1.85Z"/><path class="cls-2" d="M140.12,101.15a1.21,1.21,0,0,1-1.21-1.17,42.22,42.22,0,0,0-2.09-11.7,1.22,1.22,0,0,1,2.31-.76,44.76,44.76,0,0,1,2.21,12.37,1.22,1.22,0,0,1-1.17,1.26Z"/><path class="cls-2" d="M96.56,123.74a1.22,1.22,0,0,1-.68-2.22,36.47,36.47,0,0,1,13.41-5.44,43.64,43.64,0,0,1,8.32-.75,44.59,44.59,0,0,0,7-.53,22.24,22.24,0,0,0,9.84-4.43,1.22,1.22,0,0,1,1.51,1.91,24.83,24.83,0,0,1-10.91,4.92,49,49,0,0,1-7.4.56,41,41,0,0,0-7.85.69,34.33,34.33,0,0,0-12.57,5.08A1.24,1.24,0,0,1,96.56,123.74Z"/><path class="cls-2" d="M14.16,58.27A1.22,1.22,0,0,1,13,57.05c0-4.65,7.74-11.16,8.62-11.88A1.21,1.21,0,0,1,23.12,47c-3,2.47-7.74,7.37-7.74,10A1.22,1.22,0,0,1,14.16,58.27Z"/><path class="cls-2" d="M14.15,56.25a1.21,1.21,0,0,1-1.19-1c0-.13-.6-3-1-6.86-.06-.62-.13-1.26-.18-1.92a38.29,38.29,0,0,1,.43-11.7,1.21,1.21,0,0,1,2.36.57,37,37,0,0,0-.37,10.93c.05.64.12,1.25.18,1.85.4,3.74,1,6.62,1,6.65a1.21,1.21,0,0,1-.95,1.43Z"/><circle class="cls-2" cx="14.75" cy="30.92" r="1.3"/><circle class="cls-2" cx="33" cy="12.55" r="1.3"/><path class="cls-2" d="M101.67,14a1.23,1.23,0,0,1-1-.58c-2.48-4.08-7.45-6.88-13.3-7.5-5.55-.58-11.32.71-16.3,2L69,8.4c-4.8,1.24-9.76,2.52-14.85,2.7-1.49.06-3,0-4.49,0C48.47,11,47.24,11,46,11a37.23,37.23,0,0,0-7.84,1,1.21,1.21,0,0,1-.56-2.36A39.45,39.45,0,0,1,46,8.59c1.25,0,2.52,0,3.79.05,1.44,0,2.89.08,4.33,0C58.92,8.5,63.75,7.25,68.42,6l2-.51c5.17-1.31,11.21-2.64,17.15-2,6.59.7,12.24,3.93,15.12,8.65a1.22,1.22,0,0,1-1,1.85Z"/><path class="cls-3" d="M75.86,26.63S107.45,43.09,107.45,62h4.93l2.55-10-4.21-7.93L99,28.11l-5.48-5.83"/><path class="cls-1" d="M99.17,27.69a17.15,17.15,0,0,0-5.25-1,13.88,13.88,0,0,0-7.34,1.84c-.58.36-1.13.76-1.71,1.14a15.07,15.07,0,0,1-1.54.83C79.09,27.69,76,26.08,76,26.08L93.6,21.74l5.47,5.83Z"/><path class="cls-2" d="M106.26,63.22A1.22,1.22,0,0,1,105,62c0-18-30.41-33.9-30.72-34.06a1.22,1.22,0,0,1,1.12-2.16c1.31.68,32,16.79,32,36.22A1.22,1.22,0,0,1,106.26,63.22Z"/><path class="cls-2" d="M130.79,51.41a1.34,1.34,0,0,1-.35,0,57.32,57.32,0,0,1-28.5-19.61l-.76-1c-2.59-3.38-5.26-6.88-9-7.28a13.06,13.06,0,0,0-4,.4A80.58,80.58,0,0,0,71.8,29.25L70.15,30a39.72,39.72,0,0,1-7.58,2.9,39.57,39.57,0,0,1-9.43.66,45.53,45.53,0,0,0-7.49.32c-7.53,1.18-14,6.22-19.65,10.66a1.22,1.22,0,0,1-1.71-.21,1.21,1.21,0,0,1,.21-1.7c5.63-4.4,12.62-9.87,20.77-11.15a47.8,47.8,0,0,1,7.9-.36A36.71,36.71,0,0,0,62,30.53a37.38,37.38,0,0,0,7.11-2.73L70.8,27a84,84,0,0,1,16.83-5.52,15.1,15.1,0,0,1,4.78-.44c4.81.52,7.94,4.61,10.7,8.22l.75,1A54.84,54.84,0,0,0,131.14,49a1.22,1.22,0,0,1-.35,2.38Z"/><path class="cls-2" d="M137.49,52.06h-.13a1.2,1.2,0,0,1-1.2-1.23,1.22,1.22,0,0,1,1.22-1.2h.11A10.63,10.63,0,0,0,142,48.5l-5.68-1.94a1.21,1.21,0,0,1,.78-2.3L145.25,47a1.21,1.21,0,0,1,.37,2.09A14.19,14.19,0,0,1,137.49,52.06Z"/><circle class="cls-1" cx="127" cy="81.9" r="2.83"/><circle class="cls-1" cx="125.53" cy="75.57" r="1.35"/><circle class="cls-1" cx="124.09" cy="89.02" r="1.77"/><circle class="cls-25" cx="120.65" cy="76.5" r="0.93"/><circle class="cls-25" cx="121.35" cy="80.5" r="0.88"/><circle class="cls-1" cx="62.33" cy="22.53" r="3"/><circle class="cls-1" cx="27.9" cy="32.02" r="1.52"/><circle class="cls-25" cx="39.58" cy="23.69" r="1.16"/><circle class="cls-1" cx="48.76" cy="20.63" r="2.59"/><circle class="cls-25" cx="39.9" cy="18.57" r="0.84"/><circle class="cls-25" cx="57.65" cy="18.57" r="0.84"/><circle class="cls-25" cx="31.42" cy="24.27" r="2"/><path class="cls-8" d="M19.05,27.53A1.27,1.27,0,0,1,18,25.62c.19-.3,4.54-7.52,10.28-10.31a1.26,1.26,0,1,1,1.1,2.26c-5.07,2.48-9.17,9.28-9.21,9.35A1.27,1.27,0,0,1,19.05,27.53Z"/><path class="cls-2" d="M16.72,28.12a1.23,1.23,0,0,1-.55-.13,1.2,1.2,0,0,1-.53-1.63,31.15,31.15,0,0,1,10.92-12c.53-.34,1.07-.67,1.61-1a1.22,1.22,0,1,1,1.21,2.11c-.51.29-1,.59-1.5.91A28.71,28.71,0,0,0,17.81,27.45,1.23,1.23,0,0,1,16.72,28.12Z"/><circle class="cls-8" cx="21.52" cy="25.87" r="1.33"/><circle class="cls-8" cx="26.23" cy="19.97" r="1.06"/><circle class="cls-8" cx="25.21" cy="24.3" r="0.6"/><circle class="cls-8" cx="18.97" cy="32.13" r="1.22"/><circle class="cls-8" cx="17.69" cy="35.31" r="0.57"/><circle class="cls-8" cx="9.5" cy="58.84" r="0.58"/><circle class="cls-8" cx="9.91" cy="65.17" r="0.41"/><rect class="cls-2" x="71.29" y="70.12" width="7.02" height="15.84" rx="3.51"/><circle class="cls-8" cx="71.27" cy="76.53" r="2.25"/><path class="cls-2" d="M78.5,74.25A17.74,17.74,0,0,0,81.64,71a26.64,26.64,0,0,1-3.14,1.88,17.67,17.67,0,0,0,2.18-4.09,20.37,20.37,0,0,1-4.22,4c-1,.58-.6.82,0,.91-1,.25-.83.53-.41.77,0,.47,1.42,1.44,1.42,1.44a17.68,17.68,0,0,0,5.21-2.18A25.7,25.7,0,0,1,78.5,74.25Z"/><rect class="cls-2" x="41.25" y="70.12" width="7.02" height="15.84" rx="3.51" transform="translate(89.52 156.08) rotate(180)"/><path class="cls-2" d="M41.07,74.25A17.42,17.42,0,0,1,37.93,71a26.64,26.64,0,0,0,3.14,1.88,17.67,17.67,0,0,1-2.18-4.09,20.37,20.37,0,0,0,4.22,4c1,.58.6.82,0,.91,1,.25.83.53.42.77,0,.47-1.42,1.44-1.42,1.44a17.68,17.68,0,0,1-5.21-2.18A25.7,25.7,0,0,0,41.07,74.25Z"/><circle class="cls-8" cx="41.3" cy="76.53" r="2.25"/><rect class="cls-8" x="16.4" y="67" width="3.65" height="18.96" rx="1.82"/></g></g></svg>