<svg xmlns="http://www.w3.org/2000/svg" viewBox="0 0 117.59 245.37"><defs><style>.cls-1{fill:#fdc6a2;}.cls-2{fill:#000201;}.cls-11,.cls-3{fill:#e89176;}.cls-15,.cls-4,.cls-5,.cls-6{fill:#fff;}.cls-5{opacity:0.6;}.cls-6{opacity:0.35;}.cls-7{fill:#3ec4ff;}.cls-10,.cls-8{fill:#048edd;}.cls-8{opacity:0.4;}.cls-9{fill:#c5f3ff;}.cls-11{opacity:0.75;}.cls-12,.cls-16{fill:#ff9976;}.cls-12{opacity:0.25;}.cls-13{fill:#1d1a18;}.cls-14{fill:#0c0b0a;}.cls-15{opacity:0.55;isolation:isolate;}.cls-17{fill:#ffe8dc;}.cls-18,.cls-20{fill:#5e5e5e;}.cls-18{opacity:0.5;}.cls-19{fill:#d2f4fc;}.cls-21,.cls-24{fill:#303030;}.cls-22{fill:#f9968f;}.cls-23{fill:#e25959;}.cls-24{opacity:0.29;}</style></defs><title>Asset 8</title><g id="Layer_2" data-name="Layer 2"><g id="Layer_1-2" data-name="Layer 1"><path class="cls-1" d="M13.37,95.38l5.1.1a12.08,12.08,0,0,1,11.82,12.28h0a12,12,0,0,1-12.23,11.82h0l-5.1-.1A12.11,12.11,0,0,1,1.12,107.2h0A12,12,0,0,1,13.37,95.37h0Z"/><path class="cls-2" d="M18.27,120.7H18l-5.11-.1a13.05,13.05,0,0,1-7.82-2.78,1.12,1.12,0,0,1,1.37-1.77,10.88,10.88,0,0,0,6.5,2.31l5.1.1h.19a10.93,10.93,0,0,0,.18-21.86l-5.1-.1h-.12a11.09,11.09,0,0,0-7.66,3.07,10.82,10.82,0,0,0-3.33,7.66,11,11,0,0,0,.81,4.32,1.12,1.12,0,0,1-2.07.85A13.13,13.13,0,0,1,4,98a12.66,12.66,0,0,1,9.37-3.69h.13l5,.09a13.25,13.25,0,0,1,12.92,13.41A13.16,13.16,0,0,1,18.27,120.7Z"/><path class="cls-3" d="M14.71,101.63l2.65.06a6.29,6.29,0,0,1,6.14,6.4h0a6.3,6.3,0,0,1-6.39,6.13l-2.65,0a6.28,6.28,0,0,1-6.14-6.39h0A6.29,6.29,0,0,1,14.71,101.63Z"/><path class="cls-4" d="M6.31,103.29a4.45,4.45,0,0,1,2.24-2.43c.88-.35.52-1.79-.4-1.44A5.89,5.89,0,0,0,5,102.56c-.38.87.91,1.63,1.29.77Z"/><ellipse class="cls-4" cx="4.58" cy="106.07" rx="1.19" ry="0.95" transform="translate(-101.03 95.11) rotate(-81.6)"/><path class="cls-2" d="M90.74,206.79a1,1,0,0,1-.34-.06,1.22,1.22,0,0,1-.83-1.51A53.3,53.3,0,0,1,92.79,197a1.23,1.23,0,1,1,2.2,1.08,49.37,49.37,0,0,0-3.08,7.85A1.22,1.22,0,0,1,90.74,206.79Z"/><path class="cls-4" d="M87.34,103.29a4.43,4.43,0,0,1,2.23-2.43c.88-.35.52-1.79-.4-1.44A5.92,5.92,0,0,0,86,102.56c-.37.87.91,1.63,1.29.77Z"/><ellipse class="cls-4" cx="85.6" cy="106.07" rx="1.19" ry="0.95" transform="translate(-31.84 175.26) rotate(-81.6)"/><path class="cls-2" d="M96.09,84.84a1.21,1.21,0,0,1-1.22-1.22v-5a1.22,1.22,0,0,1,2.44,0v5A1.22,1.22,0,0,1,96.09,84.84Z"/><circle class="cls-2" cx="88.99" cy="210.83" r="1.3"/><path class="cls-4" d="M93.9,62.24a1.26,1.26,0,0,1-1.21-.9c-2.07-7,.92-13.73,1-14a1.28,1.28,0,0,1,1.67-.63A1.26,1.26,0,0,1,96,48.36c0,.06-2.72,6.18-.92,12.27a1.26,1.26,0,0,1-.85,1.56A1.12,1.12,0,0,1,93.9,62.24Z"/><circle class="cls-5" cx="90.26" cy="39.6" r="1.06"/><circle class="cls-5" cx="96.56" cy="52" r="0.72"/><circle class="cls-6" cx="97.22" cy="55.67" r="0.72"/><path class="cls-7" d="M58.18,169.14h0a51.57,51.57,0,0,1,51.57,51.57v0a23.89,23.89,0,0,1-23.89,23.89H30.5A23.89,23.89,0,0,1,6.61,220.71v0a51.57,51.57,0,0,1,51.57-51.57Z"/><path class="cls-8" d="M70.35,205c13.67-6.83,16.86-15.49,7.4-32.44,0,0,10.54,5.71,10.58,5.69,2.71,1.83,4.5,5.21,6.82,7.53a51.43,51.43,0,0,1,15.1,36.47c0,6.59-2.91,11.06-7.24,15.39s-7.73,5.3-16.21,6.75H31.44c-4.41.09-4.65-.56-7-1.22a9.45,9.45,0,0,1-6.93-7.67,15.07,15.07,0,0,1,.4-6.76c1.45-4.43,5.57-7.88,10.36-10.67,2.24-1.3,5.65-2.1,9.35-2.66A108.79,108.79,0,0,0,70.35,205Z"/><path class="cls-9" d="M12.27,204.5a1,1,0,0,1-.33-.06,1,1,0,0,1-.63-1.3c.07-.2-.33-3.31.52-5.16a55.31,55.31,0,0,1,6.48-10.25C22.68,182,30,177.25,38.64,174.33a1,1,0,1,1,.65,1.93c-18.38,6.19-26,27.34-26.06,27.56A1,1,0,0,1,12.27,204.5Z"/><path class="cls-10" d="M109.29,219.36A23.88,23.88,0,0,1,85.4,243.24h-28l-2,1.35-14.43.15L39,243.24H30a24.39,24.39,0,0,1-8.28-1.46,15.25,15.25,0,0,1,0-6.31,15.89,15.89,0,0,1,8.82-11c8.63-3.92,18.52.49,28,.91,13.19.6,26-7.22,32.93-18.49a46.54,46.54,0,0,0,6.43-19.84A51.28,51.28,0,0,1,109.29,219.36Z"/><path class="cls-2" d="M41,245.35H31A25.14,25.14,0,0,1,5.85,220.24c0-1.34.06-2.68.15-4a1.23,1.23,0,0,1,1.31-1.12,1.22,1.22,0,0,1,1.13,1.31c-.09,1.26-.14,2.53-.14,3.81A22.69,22.69,0,0,0,31,242.91H41a1.22,1.22,0,0,1,0,2.44Z"/><path class="cls-2" d="M86.32,245.35H54.05a1.22,1.22,0,0,1,0-2.44H86.32A22.7,22.7,0,0,0,109,220.24a50.35,50.35,0,0,0-92.91-26.9A1.22,1.22,0,1,1,14,192a52.79,52.79,0,0,1,97.41,28.21A25.13,25.13,0,0,1,86.32,245.35Z"/><circle class="cls-10" cx="85.1" cy="212.02" r="5.74"/><circle class="cls-10" cx="77.31" cy="217.16" r="1.69"/><path class="cls-2" d="M13.1,225.16a.71.71,0,0,1-.32-.07.82.82,0,0,1-.45-1.05l0,0,4.47-10.57a.82.82,0,0,1,1.51.64l-4.48,10.57A.8.8,0,0,1,13.1,225.16Z"/><path class="cls-2" d="M18.45,220.25a.7.7,0,0,1-.31-.07.81.81,0,0,1-.45-1.06v0l2.39-5.66a.83.83,0,0,1,1.08-.43.81.81,0,0,1,.43,1.07l-2.39,5.65A.81.81,0,0,1,18.45,220.25Z"/><path class="cls-4" d="M19.42,196.49a1,1,0,0,1-.52-.14,1,1,0,0,1-.35-1.4,42,42,0,0,1,4-5.48,1,1,0,0,1,1.55,1.32A40.2,40.2,0,0,0,20.29,196,1,1,0,0,1,19.42,196.49Z"/><circle class="cls-4" cx="26.27" cy="187.44" r="1.42"/><rect class="cls-1" x="48.7" y="152.56" width="21.3" height="28.7" rx="10.65"/><path class="cls-11" d="M69.61,160.09v7.4A9.34,9.34,0,0,1,69.3,170C58,170.89,51.79,165,49,156.46a10.41,10.41,0,0,1,2.16-3.56,10.63,10.63,0,0,1,18.49,7.19Z"/><path class="cls-2" d="M59.34,182.41a11.81,11.81,0,0,1-11.8-11.8v-7.4a11.81,11.81,0,1,1,23.61,0v7.4A11.82,11.82,0,0,1,59.34,182.41Zm0-28.7a9.51,9.51,0,0,0-9.49,9.5v7.4a9.49,9.49,0,0,0,19,0v-7.4A9.5,9.5,0,0,0,59.34,153.71Z"/><circle class="cls-9" cx="34.36" cy="179.23" r="1.56"/><circle class="cls-9" cx="32.84" cy="182.32" r="1.03"/><path class="cls-1" d="M99.49,95.38l5.1.1a12.09,12.09,0,0,1,11.88,12.3h0a12,12,0,0,1-12.23,11.82h0l-5.11-.1a12.1,12.1,0,0,1-11.83-12.28h0A12,12,0,0,1,99.49,95.41h0Z"/><path class="cls-2" d="M104.45,120.73h-.23l-5.15-.1a13.25,13.25,0,0,1-12.93-13.41A13.16,13.16,0,0,1,99.25,94.29c.08,0,.14,0,.27,0l5.1.1a13.19,13.19,0,0,1-.17,26.37Zm-5.16-24.2a10.93,10.93,0,0,0-.17,21.86l5.1.1a11.07,11.07,0,0,0,7.8-3.07,11,11,0,0,0-7.45-18.82l-4.83-.09a1.18,1.18,0,0,1-.27,0Z"/><path class="cls-3" d="M101.8,101.64l2.65,0a6.29,6.29,0,0,1,6.14,6.39h0a6.27,6.27,0,0,1-6.38,6.14l-2.66,0a6.28,6.28,0,0,1-6.13-6.39h0A6.28,6.28,0,0,1,101.8,101.64Z"/><path class="cls-1" d="M89.74,38.67c.52.45,1,.93,1.46,1.4a44.66,44.66,0,0,1,13.13,31.71V118a44.81,44.81,0,0,1-89.61,1V71.78A44.71,44.71,0,0,1,29.3,38.69C44.19,25.08,74.8,25.17,89.74,38.67Z"/><path class="cls-12" d="M104.32,72.15v46.23a44.81,44.81,0,0,1-44.65,45h-.16V28.88c11.38,0,22.76,3.38,30.23,10.14.52.46,1,.94,1.46,1.42A44.69,44.69,0,0,1,104.32,72.15Z"/><path class="cls-13" d="M85.89,118.82v3A7.46,7.46,0,0,1,84.62,126c-2.74,4.19-10.36,13-25.73,13h-.22c-15.41,0-23.06-8.8-25.81-13a7.77,7.77,0,0,1-1.26-4.19v-2.17c.56.08,1.16.15,1.77.18.35,0,.7,0,1.06.07.55,0,1.13,0,1.71,0a46.74,46.74,0,0,0,21.09-6.63l-.18-.35a6.89,6.89,0,0,0,1.57.2h.27c.21,0,.38,0,.56,0a46.24,46.24,0,0,0,20.36,6.2h.4l1,0A27,27,0,0,0,85.89,118.82Z"/><path class="cls-14" d="M76.79,121.11v2.07a5.16,5.16,0,0,1-.86,2.85c-1.88,2.86-7.07,8.84-17.54,8.86h-.16c-10.51,0-15.72-6-17.59-8.86a5.24,5.24,0,0,1-.86-2.85V121.7c.38,0,.79.1,1.2.12.24,0,.48,0,.73.05s.77,0,1.16,0A54.52,54.52,0,0,1,54.45,112l1.29-.27c.34.08,5.35.18,5.71.18l1.93-.55c4.63-4.59.9,1.95,1,1.93,6.77,4.06,8.24,8.14,8.24,8.14h1A18.42,18.42,0,0,0,76.79,121.11Z"/><circle class="cls-15" cx="41.66" cy="158.09" r="0.55"/><circle class="cls-15" cx="49.35" cy="160.77" r="0.73"/><ellipse class="cls-4" cx="21.49" cy="127.33" rx="2.22" ry="1.27" transform="translate(-106.13 107.66) rotate(-71.66)"/><circle class="cls-15" cx="25.5" cy="128.57" r="0.71"/><path class="cls-15" d="M23.32,129.29a.55.55,0,0,1,.55.55.55.55,0,0,1-.55.55.54.54,0,0,1-.55-.55.55.55,0,0,1,.55-.55Z"/><circle class="cls-15" cx="24.05" cy="124.74" r="0.73"/><ellipse class="cls-4" cx="90.39" cy="106.89" rx="1.19" ry="0.95" transform="matrix(0.15, -0.99, 0.99, 0.15, -28.56, 180.7)"/><path class="cls-16" d="M104.37,71.31v46.22a44.8,44.8,0,0,1-44.66,45c-1.1,0-2.2,0-3.28-.11,23.32-1.66,43.7-21.12,43.62-44.85V71.31c0-11.89-6.75-23.3-15.15-31.71-.49-.48-1-1-1.48-1.39-6.8-6.15-16.83-9.51-27.16-10.07,12.44-.71,25.34,2.67,33.52,10.07.52.44,1,.91,1.45,1.39A44.69,44.69,0,0,1,104.37,71.31Z"/><path class="cls-4" d="M61.57,162.94c-.8.05-1.62.07-2.44.07-24.73-.07-44.73-20.21-44.66-43V73.77c0-13.83,4.72-25.24,13.14-33.65.49-.48.93-.95,1.46-1.4,8-7.25,20.54-10.62,32.73-10.1-10.53.45-20.86,3.82-27.8,10.1-.52.45-1,.92-1.45,1.4A44.73,44.73,0,0,0,19.41,71.83v46.22A44.81,44.81,0,0,0,61.57,162.94Z"/><path class="cls-2" d="M24.92,148.07a1.2,1.2,0,0,1-.93-.44A46.13,46.13,0,0,1,13.32,119V93.21a1.22,1.22,0,0,1,2.44,0V119a43.72,43.72,0,0,0,10.1,27.1,1.21,1.21,0,0,1-.94,2Z"/><path class="cls-2" d="M59.34,164.18a45.94,45.94,0,0,1-30.81-11.83,1.22,1.22,0,1,1,1.63-1.81,43.54,43.54,0,0,0,29.18,11.2h.15A43.63,43.63,0,0,0,102.92,118V71.78A43.7,43.7,0,0,0,90.16,40.94l-.3-.3c-.36-.36-.71-.71-1.11-1-14.66-13.25-44.33-13.24-58.81,0A43.57,43.57,0,0,0,15.76,71.78,1.21,1.21,0,0,1,14.54,73h0a1.22,1.22,0,0,1-1.22-1.21,46,46,0,0,1,15-34c15.3-14,46.63-14,62.08,0,.42.36.81.75,1.21,1.15l.3.29a46.21,46.21,0,0,1,13.49,32.59V118A46.08,46.08,0,0,1,59.5,164.18Z"/><rect class="cls-4" x="18.34" y="104.16" width="2.21" height="11.91" rx="1.1"/><rect class="cls-16" x="98.31" y="78.79" width="2.21" height="11.91" rx="1.1"/><rect class="cls-17" x="23.05" y="79.24" width="3.64" height="19.65" rx="1.82"/><path class="cls-4" d="M50.56,127H49.21c-2.19,0-4-4.3-4-6.5h0a4,4,0,0,1,4-4h1.35c2.2,0,4-.74,4,1.45v2.52C54.54,122.67,52.76,127,50.56,127Z"/><path class="cls-18" d="M55,118.68s-4.67,2.94-8.63,3c-.78,0-1.14-1.33-1.14-2.12v-1.61a1.41,1.41,0,0,1,1.42-1.42h6.46a1.42,1.42,0,0,1,1.42,1.42v1.61C54.54,120.32,55.79,118.68,55,118.68Z"/><path class="cls-2" d="M50.26,127.47a5.62,5.62,0,0,1-5.62-5.62v-1.4a2.87,2.87,0,0,1,2.63-2.86l5.34-2.44a.9.9,0,0,1,.4-.09c.15,0,.52-.31.67-.44a1.4,1.4,0,0,1,1.54-.43,1.2,1.2,0,0,1,.66,1.21v6.45A5.63,5.63,0,0,1,50.26,127.47Zm3-10.49-5.34,2.45a1,1,0,0,1-.41.09.93.93,0,0,0-.93.93v1.4a3.69,3.69,0,1,0,7.37,0v-5.07A2.21,2.21,0,0,1,53.25,117Z"/><path class="cls-4" d="M43.72,128.63H39.26c-.85,0-1.54-3.22-1.54-4.06V121.2a1.54,1.54,0,0,1,1.54-1.54h4.46a1.54,1.54,0,0,1,1.54,1.54v3.37C45.26,125.41,44.57,128.63,43.72,128.63Z"/><path class="cls-18" d="M46.2,121.58s-4.55,1.89-8.11,1.27c-.63-.11-.46-.13-.46-.76v-1.31a1.14,1.14,0,0,1,1.15-1.15H44a1.15,1.15,0,0,1,1.16,1.15l.8-.63C46,120.78,46.84,121.58,46.2,121.58Z"/><path class="cls-2" d="M41.81,129.88h-.23a4.64,4.64,0,0,1-4.64-4.64v-3.78A2.54,2.54,0,0,1,39.17,119l4.27-2.41a1.05,1.05,0,0,1,.49-.13,2.53,2.53,0,0,1,2.52,2.53v6.3A4.64,4.64,0,0,1,41.81,129.88Zm2.31-11.45L40,120.79a1,1,0,0,1-.48.13.54.54,0,0,0-.55.54v3.78a2.66,2.66,0,0,0,2.66,2.66h.23a2.66,2.66,0,0,0,2.66-2.66v-6.3A.54.54,0,0,0,44.12,118.43Z"/><path class="cls-4" d="M67.73,127h1.35c2.2,0,4-4.3,4-6.5h0a4,4,0,0,0-4-4H67.73c-2.19,0-4-.74-4,1.45v2.52C63.76,122.67,65.54,127,67.73,127Z"/><path class="cls-18" d="M63.29,118.68s4.67,2.94,8.62,3c.79,0,1.15-1.33,1.15-2.12v-1.61a1.41,1.41,0,0,0-1.42-1.42H65.18a1.41,1.41,0,0,0-1.42,1.42v1.61C63.76,120.32,62.51,118.68,63.29,118.68Z"/><path class="cls-2" d="M68,127.47a5.62,5.62,0,0,1-5.62-5.62V115.4a1.2,1.2,0,0,1,.65-1.21,1.39,1.39,0,0,1,1.54.43c.16.13.53.44.68.44a.93.93,0,0,1,.4.09L71,117.59a2.87,2.87,0,0,1,2.63,2.86v1.4A5.62,5.62,0,0,1,68,127.47Zm-3.68-10.69v5.07a3.68,3.68,0,1,0,7.36,0v-1.4a.93.93,0,0,0-.92-.93,1,1,0,0,1-.41-.09L65,117A2.15,2.15,0,0,1,64.36,116.78Z"/><path class="cls-4" d="M74.58,128.63H79c.85,0,1.54-3.22,1.54-4.06V121.2A1.54,1.54,0,0,0,79,119.66H74.58A1.54,1.54,0,0,0,73,121.2v3.37C73,125.41,73.73,128.63,74.58,128.63Z"/><path class="cls-18" d="M72.72,122.06a17,17,0,0,0,7.49.79c.62-.11.46-.13.46-.76v-1.31a1.15,1.15,0,0,0-1.15-1.15H74.28a1.15,1.15,0,0,0-1.15,1.15v1.31C73.13,122.72,72.09,122.06,72.72,122.06Z"/><path class="cls-2" d="M76.72,129.88h-.24a4.64,4.64,0,0,1-4.64-4.64v-6.3a2.54,2.54,0,0,1,2.53-2.53,1.05,1.05,0,0,1,.49.13L79.12,119a2.54,2.54,0,0,1,2.24,2.51v3.78A4.64,4.64,0,0,1,76.72,129.88Zm-2.55-11.45a.56.56,0,0,0-.35.51v6.3a2.67,2.67,0,0,0,2.66,2.66h.24a2.66,2.66,0,0,0,2.66-2.66v-3.78a.55.55,0,0,0-.55-.54,1.05,1.05,0,0,1-.49-.13Z"/><path class="cls-4" d="M56.91,122.88h4.46c.85,0,1.54-3.21,1.54-4.06v-3.37a1.53,1.53,0,0,0-1.54-1.53H56.91a1.53,1.53,0,0,0-1.54,1.53v3.37C55.37,119.67,56.06,122.88,56.91,122.88Z"/><path class="cls-18" d="M55.22,117.15a26.36,26.36,0,0,0,7.32,0c.63-.11.46-.13.46-.77V115a1.15,1.15,0,0,0-1.15-1.16H56.62A1.15,1.15,0,0,0,55.47,115l-.2,2.36C55.27,118,54.58,117.15,55.22,117.15Z"/><path class="cls-2" d="M59.05,124.14h-.23a4.64,4.64,0,0,1-4.64-4.64v-6.3a2.53,2.53,0,0,1,2.52-2.53,1,1,0,0,1,.49.13l4.27,2.41a2.53,2.53,0,0,1,2.24,2.51v3.78A4.65,4.65,0,0,1,59.05,124.14Zm-2.54-11.45a.52.52,0,0,0-.35.51v6.3a2.66,2.66,0,0,0,2.66,2.66h.23a2.67,2.67,0,0,0,2.67-2.66v-3.78a.55.55,0,0,0-.55-.55,1,1,0,0,1-.49-.12Z"/><path class="cls-4" d="M83.9,96.34a12.54,12.54,0,0,1-24.34,4.27,12.55,12.55,0,1,1,0-8.53A12.54,12.54,0,0,1,83.9,96.34Z"/><path class="cls-19" d="M84.05,108.35c0,6.93-5.77.54-12.7.54-5.43,0-11.79,1.86-13.53-3-1.75,4.84-4.63,3-10.06,3-6.93,0-11.7,7.52-11.7.6S39.36,98.2,46.29,98.2c5.43,0,10.67,4.26,12.43,9.09,1.74-4.83,6.58-9.58,12-9.58C77.66,97.71,84.05,101.42,84.05,108.35Z"/><path class="cls-2" d="M37.09,90.37a.84.84,0,0,1-.45-.13.85.85,0,0,1-.27-1.17,12.47,12.47,0,0,1,1.23-1.68.85.85,0,1,1,1.29,1.12A11.63,11.63,0,0,0,37.82,90,.85.85,0,0,1,37.09,90.37Z"/><path class="cls-2" d="M35.29,95.61h-.1a.85.85,0,0,1-.75-.94,12.19,12.19,0,0,1,.25-1.51.84.84,0,0,1,1-.65.87.87,0,0,1,.65,1,11.92,11.92,0,0,0-.23,1.33A.86.86,0,0,1,35.29,95.61Z"/><path class="cls-2" d="M71.35,109.53c-3.92,0-9.19-.55-11.79-4.91-2.61,4.36-7.88,4.91-11.8,4.91A13.41,13.41,0,0,1,34.61,98.72a.86.86,0,0,1,.67-1,.83.83,0,0,1,1,.68,11.72,11.72,0,0,0,11.48,9.43c6.23,0,9.62-1.69,11-5.49a.85.85,0,0,1,.8-.57h0a.89.89,0,0,1,.81.57c1.36,3.8,4.75,5.49,11,5.49a11.69,11.69,0,1,0-11-15.67.89.89,0,0,1-.81.57h0a.85.85,0,0,1-.8-.57,11.74,11.74,0,0,0-11-7.71,11.61,11.61,0,0,0-6.14,1.74.87.87,0,0,1-1.18-.28.85.85,0,0,1,.28-1.17,13.4,13.4,0,0,1,18.84,5,13.4,13.4,0,1,1,11.79,19.75Z"/><rect class="cls-2" x="47.14" y="90.05" width="4.17" height="9.41" rx="2.09"/><rect class="cls-2" x="67.87" y="90.05" width="4.17" height="9.41" rx="2.09"/><circle class="cls-4" cx="67.85" cy="93.86" r="1.33"/><circle class="cls-4" cx="47.23" cy="93.86" r="1.33"/><path class="cls-20" d="M64.6,104.81s10.85-6.25,20.4-1.48,13.71,6,17.62,6c0,0-6.07,11-21.52,11A46.59,46.59,0,0,1,60,113.66"/><path class="cls-16" d="M33.29,75.54H49.81a0,0,0,0,1,0,0v2.39a1.66,1.66,0,0,1-1.66,1.66H35a1.66,1.66,0,0,1-1.66-1.66V75.54a0,0,0,0,1,0,0Z" transform="translate(-7.01 4.18) rotate(-5.31)"/><path class="cls-16" d="M68.95,71.61h13.2a1.66,1.66,0,0,1,1.66,1.66v2.39a0,0,0,0,1,0,0H67.29a0,0,0,0,1,0,0V73.27A1.66,1.66,0,0,1,68.95,71.61Z" transform="matrix(-1, -0.09, 0.09, -1, 143.95, 153.95)"/><path class="cls-20" d="M47.4,76.91,35,77.89A3.48,3.48,0,0,1,31.29,75h0A3.47,3.47,0,0,1,33.92,71L46,68.14A3.48,3.48,0,0,1,50.26,71l.3,1.91A3.48,3.48,0,0,1,47.4,76.91Z"/><path class="cls-21" d="M47.4,76.91,35,77.89A3.48,3.48,0,0,1,31.29,75h0c-.29-1.8-.35,1.21,1.42.79l16.67-1.29c2-.47.57-5.48.88-3.48l.3,1.91A3.48,3.48,0,0,1,47.4,76.91Z"/><path class="cls-2" d="M34.74,78.74a4.32,4.32,0,0,1-1-8.53l2.06-.5a.85.85,0,0,1,1,.62.84.84,0,0,1-.63,1l-2.06.5a2.64,2.64,0,0,0,.82,5.2l12.39-1a2.65,2.65,0,0,0,1.87-1,2.61,2.61,0,0,0,.53-2l-.3-1.91a2.64,2.64,0,0,0-1.14-1.78A2.6,2.6,0,0,0,46.21,69L41.42,70.1A.84.84,0,0,1,41,68.46l4.79-1.14a4.33,4.33,0,0,1,5.28,3.53l.3,1.91a4.34,4.34,0,0,1-3.94,5l-12.39,1Z"/><circle class="cls-21" cx="44.38" cy="74.65" r="0.92"/><circle class="cls-21" cx="41.83" cy="73.94" r="0.49"/><circle class="cls-21" cx="47.68" cy="74.29" r="1.18"/><path class="cls-20" d="M53.44,105.42S42.59,99.17,33,103.94s-13.71,6-17.62,6c0,0,6.08,11,21.53,11A46.56,46.56,0,0,0,58,114.27"/><path class="cls-21" d="M55.83,111l1.71,3.33a46.56,46.56,0,0,1-21.09,6.61c-15.43,0-21.51-11-21.51-11a17.69,17.69,0,0,0,3.28-.3,25.6,25.6,0,0,0,18.23,7A46.43,46.43,0,0,0,55.83,111Z"/><path class="cls-21" d="M102.14,109.31s-6.08,11-21.54,11a46.54,46.54,0,0,1-21.09-6.63l1.72-3.31A46.62,46.62,0,0,0,80.6,116c9.13,0,15-3.81,18.26-7A17.69,17.69,0,0,0,102.14,109.31Z"/><path class="cls-2" d="M53.44,106.15A.84.84,0,0,1,53,106c-.1-.06-10.57-6-19.58-1.45l-2.61,1.28a.86.86,0,0,1-.74-1.55c.81-.38,1.67-.81,2.58-1.26,9.85-4.92,20.75,1.23,21.2,1.5a.85.85,0,0,1-.42,1.59Z"/><circle class="cls-22" cx="59.05" cy="106.94" r="6.52"/><path class="cls-23" d="M65.58,106.94a6.53,6.53,0,0,1-13,0c0-3.61,2.72,4.07,6.32,4.07S65.58,103.33,65.58,106.94Z"/><path class="cls-2" d="M59.05,115a7.38,7.38,0,1,1,7.38-7.38A7.39,7.39,0,0,1,59.05,115Zm0-13a5.67,5.67,0,1,0,5.67,5.67A5.68,5.68,0,0,0,59.05,101.91Z"/><path class="cls-20" d="M13.61,95.31h0A3.35,3.35,0,0,1,10.25,92l3.28-25.74c0-1.85-1.78-2.76.08-2.76h0A3.35,3.35,0,0,1,17,66.82V92A3.35,3.35,0,0,1,13.61,95.31Z"/><path class="cls-21" d="M14.38,73.73h0c-1.42,0-.92-.82-.92-2.25l1.1-19.34c0-1.42-1.6-2.92-.18-2.92h0A2.59,2.59,0,0,1,17,51.8V71.15A2.59,2.59,0,0,1,14.38,73.73Z"/><path class="cls-2" d="M13.61,96.41A4.45,4.45,0,0,1,9.16,92l3.19-27.71a1.4,1.4,0,0,1-.68-1.2,1.48,1.48,0,0,1,1.45-1.45,1.41,1.41,0,0,1,1.19.67,8.47,8.47,0,0,0,.88-.25,2.73,2.73,0,0,1,2.52,0,2,2,0,0,1,.71,1.67L18.05,92A4.45,4.45,0,0,1,13.61,96.41Zm.91-31.94L11.34,92.08A2.26,2.26,0,0,0,15.86,92l.37-28-.38.11A9.77,9.77,0,0,1,14.52,64.47Z"/><path class="cls-20" d="M104.32,95.68h0a3.15,3.15,0,0,0,3.15-3.16l-3.08-23.65c0-1.75,1.67-3.16-.07-3.16h0a3.16,3.16,0,0,0-3.16,3.16V92.52A3.16,3.16,0,0,0,104.32,95.68Z"/><path class="cls-2" d="M104.32,96.71a4.2,4.2,0,0,1-4.19-4.19V68.87a4.2,4.2,0,0,1,4.19-4.19,1.82,1.82,0,0,1,1.58.68,2.12,2.12,0,0,1-.1,2.07,4.1,4.1,0,0,0-.38,1.44l3.07,23.52A4.21,4.21,0,0,1,104.32,96.71Zm-.5-29.87a2.09,2.09,0,0,0-1.63,2V92.52a2.13,2.13,0,1,0,4.25,0L103.36,69A5.74,5.74,0,0,1,103.82,66.84Z"/><path class="cls-20" d="M101.58,16.45c3.16,0-4.13-4.75-7.06-5.95a30.55,30.55,0,0,0-28.06,2.78L71,5.51A8.1,8.1,0,0,0,65,1.3a15.07,15.07,0,0,0-7.47.88A27.56,27.56,0,0,0,40.68,19.24l-5-1a37.6,37.6,0,0,0-13.09,1.13c-4.56,1.26-9.34,3.52-12.53,7A19.39,19.39,0,0,0,5.63,36.55c-.35,2.23-.15,5,1.89,6a7.7,7.7,0,0,0,3.36.33,1.85,1.85,0,0,1,.93.18c.87.49.57,1.8.2,2.73a30,30,0,0,0-2,13.13,7.33,7.33,0,0,0,1,3.62c1.4,2,4.27,2.34,6.67,1.88A15.28,15.28,0,0,0,29.48,51.5L33.27,51a8.16,8.16,0,0,0,5.92-.15c2.84-1.28,4.44-4.26,5.84-7L49.51,35a35.47,35.47,0,0,0,7.08,12.47c2.15,2.46,4.82,4.7,8,5.28a7.52,7.52,0,0,0,6.89-2.29l3.34-.23A21.44,21.44,0,0,0,86.37,60.45a3.06,3.06,0,0,1,1,.53,3,3,0,0,1,.71,1.37A36.39,36.39,0,0,0,101.6,80.76c2.05,1.46,4.54,2.74,7,2.14a7.43,7.43,0,0,0,4.59-4.34c2.75-5.88,1.07-12.83-1.26-18.89-1.71-4.47-4.16-9.21-8.63-10.93l.3-.28a17.46,17.46,0,0,0,5.73.76,7.36,7.36,0,0,0,5.13-2.36A8.44,8.44,0,0,0,116,40.6a16,16,0,0,0-4.55-9.8C107,26.28,100.28,24.89,94,24.3c-4.89-.45-9.93-.53-14.59,1C79.36,25.33,91.14,16.46,101.58,16.45Z"/><path class="cls-21" d="M112,59.48c2.35,6.08,4,13,1.26,18.9-.91,2-2.47,3.83-4.56,4.34-2.45.6-5-.68-7-2.15A36.25,36.25,0,0,1,88.2,62.16a3,3,0,0,0-.7-1.36,3.79,3.79,0,0,0-1-.53A21.4,21.4,0,0,1,74.94,50l-3.33.23a8.68,8.68,0,0,1,.88-.84,8.06,8.06,0,0,1,3-1.74c2.82-.73,5.7,1.06,8.62,1.16a7.15,7.15,0,0,0,6-3,6.45,6.45,0,0,0,.4-6.59c-1.38-2.49-4.33-3.68-6.25-5.8a9.07,9.07,0,0,1-1.67-9.1A40.89,40.89,0,0,1,94,24.12c6.36.58,13,2,17.53,6.51a15.78,15.78,0,0,1,4.54,9.81,8.35,8.35,0,0,1-1.56,6.25A7.38,7.38,0,0,1,109.39,49a16.92,16.92,0,0,1-5.72-.76l-.31.28C107.83,50.28,110.28,55,112,59.48Z"/><path class="cls-24" d="M71.54,50.43a7.53,7.53,0,0,1-6.88,2.3c-3.23-.58-5.88-2.83-8-5.27a35.15,35.15,0,0,1-3.71-5.1,25.71,25.71,0,0,1,7.92-10.57c2.25-1.72,4.75-3.1,6.92-4.94A20.56,20.56,0,0,0,74.55,9.57a30.64,30.64,0,0,1,20,1c2.93,1.21,10.22,6,7.06,6-10.44,0-22.22,8.88-22.22,8.88a22.81,22.81,0,0,1,3.2-.83,9,9,0,0,0,1.72,8.95c1.92,2.12,4.87,3.3,6.25,5.8a6.45,6.45,0,0,1-.4,6.59,7.15,7.15,0,0,1-6,3c-2.92-.1-5.8-1.89-8.62-1.16a7.93,7.93,0,0,0-3,1.74,7.71,7.71,0,0,0-.88.84"/><circle class="cls-2" cx="36.45" cy="18.42" r="1.3"/><circle class="cls-2" cx="108.75" cy="28.48" r="1.3"/><circle class="cls-2" cx="87.2" cy="20.09" r="1.3"/><circle class="cls-2" cx="112.19" cy="60.1" r="1.3"/><circle class="cls-2" cx="27.46" cy="106.44" r="1.3"/><circle class="cls-21" cx="83.34" cy="47.84" r="3.13"/><circle class="cls-21" cx="83.52" cy="31.57" r="2.7"/><circle class="cls-21" cx="78.49" cy="34.03" r="1.35"/><circle class="cls-21" cx="65.53" cy="49.93" r="2.51"/><path class="cls-2" d="M104.73,27.93a1.2,1.2,0,0,1-.45-.09,39.48,39.48,0,0,0-10.45-2.17c-4.33-.39-9.39-.59-14.07,1a1.26,1.26,0,0,1-.8-2.39c5.12-1.72,10.5-1.52,15.11-1.09a41.19,41.19,0,0,1,11.11,2.32,1.26,1.26,0,0,1-.45,2.44Z"/><path class="cls-2" d="M110.41,57.42a1.26,1.26,0,0,1-1.14-.73c-1.67-3.64-3.43-5.77-5.65-6.8l-.37-.09a1.29,1.29,0,0,1-.8-.66,1.27,1.27,0,0,1,0-1,1.32,1.32,0,0,1,1.65-.77l.4.17a14.93,14.93,0,0,0,4.75.58,6.18,6.18,0,0,0,4.28-1.92,7.4,7.4,0,0,0,1.28-5.33,14.76,14.76,0,0,0-3.59-8.39,1.26,1.26,0,0,1,1.9-1.66,17.33,17.33,0,0,1,4.19,9.83,9.73,9.73,0,0,1-1.87,7.18,8.67,8.67,0,0,1-6,2.8l-.88,0h0a21.65,21.65,0,0,1,3,5,1.26,1.26,0,0,1-.62,1.67A1.4,1.4,0,0,1,110.41,57.42Z"/><path class="cls-2" d="M107.32,84.43a11.41,11.41,0,0,1-6.45-2.52,37.53,37.53,0,0,1-14-19.06,2.56,2.56,0,0,0-.35-.82,2.49,2.49,0,0,0-.58-.26A22.71,22.71,0,0,1,73.73,50.88,1.26,1.26,0,0,1,76,49.73,20.16,20.16,0,0,0,86.8,59.39a4.05,4.05,0,0,1,1.45.78,4.14,4.14,0,0,1,1.06,1.91,35,35,0,0,0,13,17.78c2.4,1.7,4.35,2.34,6,1.94A6.19,6.19,0,0,0,112,78.15c1.68-3.58,1.74-8,.19-13.49a1.26,1.26,0,1,1,2.42-.69c1.72,6.11,1.62,11.09-.33,15.24-.73,1.56-2.4,4.29-5.42,5A6.81,6.81,0,0,1,107.32,84.43Z"/><path class="cls-2" d="M40.68,20.62a1.39,1.39,0,0,1-.4-.06,1.26,1.26,0,0,1-.79-1.6A29,29,0,0,1,57.15,1.11a16.13,16.13,0,0,1,8.1-.93,10.42,10.42,0,0,1,4.07,1.65,4.52,4.52,0,0,1,1.91,3.06,5,5,0,0,1-1,3.8,1.26,1.26,0,0,1-2-1.53,2.46,2.46,0,0,0,.47-1.87,2,2,0,0,0-.85-1.39,7.92,7.92,0,0,0-3.07-1.24A13.75,13.75,0,0,0,58,3.49a26.43,26.43,0,0,0-16.1,16.27A1.24,1.24,0,0,1,40.68,20.62Z"/><path class="cls-2" d="M91.65,19.67a1.26,1.26,0,0,1-.36-2.46,56.79,56.79,0,0,1,8.23-1.67,13.12,13.12,0,0,0-5.47-3.76,29.54,29.54,0,0,0-26.89,2.67,1.26,1.26,0,0,1-1.4-2.09A31.68,31.68,0,0,1,95,9.45c4,1.63,6.56,3.85,7.74,6.62a1.27,1.27,0,0,1-.08,1.15,1.23,1.23,0,0,1-1,.6,61.29,61.29,0,0,0-9.7,1.8A1.1,1.1,0,0,1,91.65,19.67Z"/><path class="cls-4" d="M9.1,33.07a1.32,1.32,0,0,1-.51-.1,1.27,1.27,0,0,1-.65-1.66c.18-.41,4.5-10,18.56-11.8a1.26,1.26,0,1,1,.32,2.5C14.25,23.62,10.41,32,10.25,32.32A1.26,1.26,0,0,1,9.1,33.07Z"/><circle class="cls-4" cx="31.39" cy="20.21" r="1.41"/><path class="cls-2" d="M7.23,32.2a1.24,1.24,0,0,1-.5-.1,1.27,1.27,0,0,1-.66-1.66,17.19,17.19,0,0,1,3-4.8c3-3.24,7.62-5.86,13.12-7.38A32.37,32.37,0,0,1,32,16.92a1.26,1.26,0,0,1,0,2.52h-.57a29.59,29.59,0,0,0-8.52,1.25c-5.05,1.39-9.29,3.75-11.93,6.65a14.59,14.59,0,0,0-2.6,4.1A1.24,1.24,0,0,1,7.23,32.2Z"/><path class="cls-2" d="M15.84,66A6.86,6.86,0,0,1,10,63.39a8.35,8.35,0,0,1-1.23-4.24,31.21,31.21,0,0,1,2.07-13.69,2.81,2.81,0,0,0,.27-1.19h-.88A7,7,0,0,1,7,43.82c-2.21-1-3.16-3.72-2.59-7.35a1.26,1.26,0,0,1,2.49.39c-.29,1.86-.13,4.06,1.18,4.69a4.8,4.8,0,0,0,2.11.22h.71a3,3,0,0,1,1.55.34c.6.34,1.88,1.44.76,4.28A28.6,28.6,0,0,0,11.28,59a6,6,0,0,0,.79,3c1.08,1.56,3.5,1.73,5.39,1.36A14.06,14.06,0,0,0,28.23,51.47a1.29,1.29,0,0,1,1.4-1.1,1.26,1.26,0,0,1,1.11,1.4,16.49,16.49,0,0,1-12.8,14A11.87,11.87,0,0,1,15.84,66Z"/><path class="cls-2" d="M66,54.2a8.05,8.05,0,0,1-1.55-.14c-3-.54-5.88-2.4-8.76-5.68a37.39,37.39,0,0,1-6.31-10.15l-3.17,6.31c-1.62,3.21-3.33,6.22-6.45,7.62a9.42,9.42,0,0,1-6.82.2,1.26,1.26,0,0,1,.76-2.4,7.07,7.07,0,0,0,5-.09C41,48.8,42.5,46.2,43.91,43.4l4.47-8.89a1.26,1.26,0,0,1,2.32.18,34.84,34.84,0,0,0,6.83,12c2.49,2.84,4.88,4.43,7.31,4.86a6.25,6.25,0,0,0,5.7-1.86,1.26,1.26,0,1,1,1.93,1.62A8.61,8.61,0,0,1,66,54.2Z"/><circle class="cls-4" cx="19.58" cy="24.95" r="1.52"/><circle class="cls-5" cx="17.56" cy="28.36" r="0.88"/><circle class="cls-5" cx="24" cy="25.69" r="1.06"/><circle class="cls-6" cx="20.83" cy="28.04" r="0.72"/><circle class="cls-5" cx="16.31" cy="61.84" r="1.06"/><path class="cls-2" d="M19.79,50.81a.67.67,0,0,1-.31-.07A.8.8,0,0,1,19,49.69v0l4.45-10.52a.82.82,0,0,1,1.07-.44A.81.81,0,0,1,25,39.77L20.54,50.29A.81.81,0,0,1,19.79,50.81Z"/><path class="cls-2" d="M25.71,45.72a.81.81,0,0,1-.31-.06.8.8,0,0,1-.45-1v0l2.38-5.63a.82.82,0,1,1,1.5.64L26.46,45.2A.81.81,0,0,1,25.71,45.72Z"/><path class="cls-20" d="M69.83,72.24l12.39,1a3.47,3.47,0,0,0,3.71-2.93h0a3.47,3.47,0,0,0-2.63-3.93L71.21,63.47A3.49,3.49,0,0,0,67,66.32l-.3,1.9A3.48,3.48,0,0,0,69.83,72.24Z"/><path class="cls-2" d="M82.49,74.2h-.35l-12.39-1a4.46,4.46,0,0,1-4-5.14l.3-1.9a4.46,4.46,0,0,1,5.44-3.64l12.09,2.89a4.45,4.45,0,0,1-1,8.78ZM70.4,64.34a2.52,2.52,0,0,0-2.48,2.13l-.3,1.9a2.43,2.43,0,0,0,.51,1.95,2.47,2.47,0,0,0,1.77,1l12.39,1A2.57,2.57,0,0,0,85,70.14a2.53,2.53,0,0,0-1.9-2.84L71,64.41A3.06,3.06,0,0,0,70.4,64.34Z"/><circle class="cls-2" cx="36.44" cy="116.23" r="1.52"/><circle class="cls-21" cx="42.1" cy="113.39" r="0.83"/><circle class="cls-21" cx="30.19" cy="115.54" r="0.83"/><circle class="cls-21" cx="42.1" cy="115.91" r="0.46"/><circle class="cls-21" cx="27.55" cy="113.76" r="0.28"/><circle class="cls-21" cx="30.35" cy="112.87" r="0.55"/><circle class="cls-21" cx="33.11" cy="116.5" r="0.8"/><circle class="cls-21" cx="67.59" cy="112.9" r="0.83"/><circle class="cls-21" cx="72.32" cy="114.68" r="1.69"/><circle class="cls-21" cx="69.61" cy="109.4" r="0.71"/><circle class="cls-21" cx="67.1" cy="110.08" r="0.83"/><path class="cls-22" d="M48.28,138.48c-.77-.78-2.4.15-2.4-1h0c0-4.49,6.19-11,11.27-11l5.73-.09c5.08,0,9.77,6.62,9.77,11.11h0c0,1.24-3.13.83-4.07,1.63l-8.55.62Z"/><path class="cls-23" d="M72.64,137.9a31.37,31.37,0,0,1-6.2,1.89l-6.41.48-10.52-1.16a24.35,24.35,0,0,1-2.88-1c12.79-.63,20.66-3.68,24.3-5.54A11.06,11.06,0,0,1,72.64,137.9Z"/><path class="cls-2" d="M72.68,138.58a1.12,1.12,0,0,1-1.11-1.12c0-5.68-5.63-10.3-12.55-10.3-6.41,0-11.9,4.1-12.49,9.35a1.11,1.11,0,0,1-1.23,1,1.12,1.12,0,0,1-1-1.23C45,129.8,51.37,124.93,59,124.93c8.15,0,14.78,5.62,14.78,12.53A1.12,1.12,0,0,1,72.68,138.58Z"/><path class="cls-2" d="M59.44,141.17c-16.32,0-24.3-9.47-27-13.54A8.8,8.8,0,0,1,31,122.77v-.86a1.23,1.23,0,0,1,2.45,0v.86a6.31,6.31,0,0,0,1,3.51C37,130,44.31,138.73,59.28,138.73c15.13,0,22.48-8.7,24.94-12.45a6.31,6.31,0,0,0,1-3.51v-.86a1.22,1.22,0,0,1,2.44,0v.86a8.79,8.79,0,0,1-1.45,4.86C83.58,131.7,75.6,141.17,59.44,141.17Z"/><circle class="cls-10" cx="93.23" cy="204.12" r="2.21"/><circle class="cls-8" cx="90.83" cy="194.6" r="1.17"/><circle class="cls-8" cx="87.39" cy="202.96" r="1.17"/><circle class="cls-10" cx="67.31" cy="223.9" r="2.7"/><circle class="cls-8" cx="70.38" cy="217.02" r="0.74"/><path class="cls-2" d="M9.19,206.27a1.34,1.34,0,0,1-.35-.05A1.21,1.21,0,0,1,8,204.7a52.26,52.26,0,0,1,3.21-8.24,1.23,1.23,0,0,1,2.2,1.08,48.75,48.75,0,0,0-3.07,7.85A1.24,1.24,0,0,1,9.19,206.27Z"/><circle class="cls-2" cx="7.43" cy="210.31" r="1.3"/><circle class="cls-2" cx="47.47" cy="244.07" r="1.3"/><path class="cls-2" d="M37,121.63c-15.79,0-22-10.94-22.29-11.41a.82.82,0,0,1,0-.84.84.84,0,0,1,.73-.42,23.21,23.21,0,0,0,8.89-2.07.86.86,0,0,1,.63,1.59,27.49,27.49,0,0,1-8,2.12c2.09,2.76,8.27,9.32,20,9.32a46.31,46.31,0,0,0,20.64-6.49.85.85,0,0,1,1.17.27.86.86,0,0,1-.27,1.18A47.19,47.19,0,0,1,37,121.63Z"/><path class="cls-2" d="M81.1,121.63a47.23,47.23,0,0,1-21.55-6.75.86.86,0,1,1,.91-1.45,46.23,46.23,0,0,0,20.66,6.49c11.67,0,17.85-6.56,19.93-9.32-3.94-.34-8.42-2-16.43-6-7.13-3.57-15.11-.66-18.21.76a.85.85,0,0,1-1.13-.42.86.86,0,0,1,.42-1.14c3.32-1.52,11.9-4.63,19.68-.73,9.92,5,13.71,5.9,17.24,5.9a.85.85,0,0,1,.75,1.26C103.11,110.69,96.87,121.63,81.1,121.63Z"/><polygon class="cls-23" points="61.19 138.6 59.13 130.12 57.53 138.6 61.19 138.6"/></g></g></svg>