<svg xmlns="http://www.w3.org/2000/svg" width="222.894" height="348.986" viewBox="0 0 222.894 348.986">
  <g id="waitPerson" transform="translate(-0.002 0.061)">
    <path id="rgba_255_97_117_1_" data-name="rgba(255,97,117,1)" d="M143.5,386l.682,1.363Z" transform="translate(-45.681 -122.958)" fill="#ff6175"/>
    <path id="rgba_255_97_117_1_2" data-name="rgba(255,97,117,1)" d="M235.412,390l3.408.682,1.022-.341-2.386,3.749q-1.5-.477-1.022,1.022l-9.2,7.839,6.816-7.5,1.7-1.022q-.477-1.5,1.022-1.022l1.7-2.386-2.386-.341-10.224,2.726-10.224.682-.682.682H192.471l-.682-.682h-5.453l-.682-.682L172.7,392.045l-1.7,1.022q1.022-2.726,5.794-1.7l.682.682,15,1.363.682.682h21.13l.682-.682,10.224-.682Z" transform="translate(-54.436 -124.231)" fill="#ff6175"/>
    <path id="rgba_255_97_117_1_3" data-name="rgba(255,97,117,1)" d="M164.5,391q2.045,1.022,0,2.045Z" transform="translate(-52.367 -124.55)" fill="#ff6175"/>
    <path id="rgba_255_97_117_1_4" data-name="rgba(255,97,117,1)" d="M168,396l1.363.341-1.363.682Z" transform="translate(-53.481 -126.142)" fill="#ff6175"/>
    <path id="rgba_56_4_4_1_" data-name="rgba(56,4,4,1)" d="M130.526,0l17.722.682,27.946,5.453,24.538,8.179,14.655,7.5.682,3.067q-3.817,4.771-10.906,5.794-.818,2.045,1.7,1.363a29.715,29.715,0,0,1,13.973,8.52l1.363,2.726-3.749.341L212.32,42.26l4.09,4.771,3.749,3.067q2.522,2.59,2.726,7.5l-1.022,1.022-22.493,2.726-9.883,7.839L179.261,82.134l-2.726,5.794,5.112-1.363h6.816l7.5,2.726,3.067,3.067q2.113,3,1.363,8.861a21.413,21.413,0,0,1-8.52,12.61,36.481,36.481,0,0,1-17.381,6.816,28.42,28.42,0,0,0,7.839,11.587l12.951-3.408h8.861l7.839,2.726v2.386l-4.09,4.771-.682,2.726,4.09,6.816-11.247,10.565h-1.022l2.726,16.7.682,18.4.682.682.682,52.484-.682.682V261.4l-1.022,1.022-6.134,2.045h-3.408a391.743,391.743,0,0,1-41.919,38.511l2.726,4.09v3.408l-.682,1.7-1.363.341,8.861,18.4,6.135,8.179-4.43,2.386-10.906,2.726-10.224.682-.682.682H124.392l-2.045-.682L108.033,348.3l-15.677.682-.682-.682-8.861-.682-10.224-4.771-.682.682h-7.5l-9.543-2.045a13.837,13.837,0,0,1-7.157-5.112q-.613-4.7,2.386-5.794l6.816-2.726,11.247-.682-.682-1.7V311.838L70.2,298.888l4.09-11.587a74.947,74.947,0,0,1,18.063-26.924q1.568.545,1.022-1.022l-4.09-4.09v-5.453l1.363-4.09.682-7.839L76,235.838l-1.022,2.045a40.908,40.908,0,0,1-14.314-3.408l.682-3.408H46.006q-6.271-1.159-9.2-5.794l-.682-3.408,2.726-3.408-5.794-2.386-3.749-3.749-.682-4.09,5.794-7.157,10.906-6.135,4.771-1.363h4.771a11.961,11.961,0,0,1,7.5-4.09h6.816l1.7,4.09q4.908-1.022,6.816,1.7l.682,3.408-6.816,12.951,3.749.341q1.227-1.84,5.453-.682l3.408.682,4.43,3.067.682,5.453-2.045,2.726,6.816,1.022,4.771-17.381.682-6.816-1.022.341-6.816,2.726H89.288a26.672,26.672,0,0,1,8.179-13.973L58.616,135.982l-7.5-11.587-3.408-7.839-14.655-.682L16.7,111.785A30.942,30.942,0,0,1,2.724,101.22Q-.139,96.925,0,89.632q1.568-.886.682-4.09l2.386-2.386L9.2,81.112l12.269-.682.682-.682H78.042q1.227-1.909,5.453-.682l1.7-1.022-5.794-2.386-5.794-4.43L70.2,65.776V63.049a23.287,23.287,0,0,1,9.2-13.291q6.68-4.908,19.767-3.408L109.4,49.758l5.794,5.112,1.7,3.067,2.726-3.408,10.224-6.816q4.022-1.772,10.906-.682a8.812,8.812,0,0,1,5.794,3.749q2.045,2.726,1.363,8.179l-.682,3.749,3.749-.682,6.135-3.408L170.4,46.691l3.408-5.794a23.518,23.518,0,0,1-11.587-3.749l10.224-4.09-1.7-1.022-7.5-.682L139.387,25.9l-15-4.771-3.749-2.386,1.7-1.022,10.224-.682,3.067-1.022L134.616,15l-18.4-4.09-8.52-2.726,1.022-2.045,8.861-4.09L123.71.682h6.135Zm48.735,40.9-4.771,7.5L161.54,59.982,152,64.753l-4.771.682-4.771,8.179a25,25,0,0,1-13.632,9.543q-9.543,1.363-14.314-1.363l1.363,3.408,6.135,4.09,8.861,2.045-2.726.682h-5.453l-5.453-2.045-4.771-4.09-2.726-8.861-6.816,2.045h-7.5l-8.861,2.045H79.746l-.682.682H67.477l-.682.682H20.446l-.682.682h-7.5L5.45,85.2,3.405,87.928q0,7.5,3.408,12.269a26.562,26.562,0,0,0,12.951,8.861l10.906,2.726,12.269.682.682.682,11.587-1.363,13.632-4.09,19.767-8.179,9.543-5.453,1.363-2.726h-4.09L90.652,92.7H87.244l4.09-2.045,10.906-2.045,4.771.682-.682,1.363q-21.812,18.4-55.211,24.538l6.135,12.269,22.493,32.717,21.13,27.946,10.906,12.269q-.682,1.363,1.363.682v-1.363l3.408-4.771.682-2.726,1.363-1.363h2.726l7.5-2.726,12.269-6.816a345.432,345.432,0,0,0,45.668-34.762l-4.09-8.179-11.587-17.722-1.363.682q-5.453.682-4.771-.682l5.453-3.408h3.408l7.5-2.045,8.861-4.771a22.457,22.457,0,0,0,6.816-10.906q.682-5.453-1.363-7.5l-4.09-2.045L185.4,88.61l-4.771.682-7.5,4.09-9.543,9.543-.682,2.045-2.726,1.363-.682-1.363.682-2.726,3.408-4.09.682-6.135,3.408-9.543A58.163,58.163,0,0,1,178.58,64.753l2.726-2.726-1.363-1.363q-.682-4.771,2.045-5.453l8.861-10.224,2.045-4.09-2.726.682h-9.543ZM92.7,48.395q-1.363,2.045-4.771.682L81.109,51.8q-6.816,3.408-6.816,12.951,2.726,1.363,9.543.682l.682.682,12.951-.682,14.314-3.408,2.045-1.363-.682-3.408Q107.01,48.395,92.7,48.395Zm42.26,0-8.179,4.09L118.6,61.345l15,9.543,4.09,1.363A26.993,26.993,0,0,0,144.5,59.982l-.682-6.816Q141.773,47.713,134.957,48.395Zm-18.4,15.677q-4.771,4.09-3.408,12.951,2.045.682,1.363-2.045l2.726-2.045,3.408.682q1.363.682.682,5.453l-.682,1.363,6.135-.682,6.816-3.408.682-2.045a42.415,42.415,0,0,1-15-9.543Zm-7.5,1.363-6.816,2.045-12.951.682-.682.682H79.064l-.682-.682L77.7,69.525q6.816,6.816,21.13,6.816l-.682-3.408q.682-3.408,6.135-2.726,2.045,1.363,1.363,4.771l4.09-.682,1.363-5.453Q112.463,64.072,109.055,65.435ZM103.6,70.888l-2.045,2.045.682,1.363,2.726-.682ZM117.916,74.3v2.726q3.408,1.363,2.726-1.363Zm77.7,57.256-12.269,3.408,6.135,8.861,4.771-4.09v-1.363h-4.771V137l10.224-2.045-2.726,4.771a424.435,424.435,0,0,1-43.623,36.807,164.787,164.787,0,0,1-24.538,14.314l-8.861,2.045a38.484,38.484,0,0,1-6.816,13.632l-4.771,3.408v10.224l.682.682q.682,1.363-.682.682l-2.726-3.408q-.682-3.408.682-4.09l-.682-2.726,3.408-4.09-2.045-2.726-4.09-3.408-5.453,22.493,16.359-.682,15-4.09q2.045-.682.682-4.771l2.726-2.045,9.543-.682,12.951-3.408.682.682-5.453,2.726-16.359,3.408L137,220.161l4.09,23.856,6.816-2.726,20.448-14.314,1.363-.682-3.408,4.09v1.363l6.816,1.363-10.906.682a78.859,78.859,0,0,1-21.812,14.314l-4.09-.682-2.045-6.134H120.643l-.682-.682h-7.5l-6.135-1.363L96.1,238.565l-2.045,4.09-.682,12.269q5.453,5.453,15,7.5l12.951,2.726,11.587.682.682.682H161.54l.682-.682h6.816l.682-.682,12.269-1.363,15-4.771,1.363-1.363.682-14.314.682-.682V195.623l-.682-.682-.682-17.722-2.726-14.314-2.045.682-9.543,8.179-42.26,38.17-2.726-.682-12.269-9.543-2.726-3.408,16.359,10.224,3.408-2.045,64.072-57.256-2.045-4.09-6.816,6.135h-1.363L208.571,133.6Q203.8,130.87,195.62,131.551Zm-95.426,59.3-5.453,6.816v.682l6.135-2.726h1.363l4.09,3.408L111.1,203.8l.682-.682-2.045-2.045-7.5-8.179Zm-35.444.682L61.342,192.9l-2.726,2.726a83.861,83.861,0,0,1-4.771,19.085h-.682l1.363-13.632.682-.682q.682-4.09-.682-4.771l-6.135,1.363-9.543,4.771-6.816,7.5.682,2.726,3.408,1.363q5.453,1.363,8.179-.682l.682-2.045-5.453-3.408,1.363-2.726q6.135,0,8.179,4.771l-.682,4.771-4.771,3.408-3.408,4.09.682,2.726a9.177,9.177,0,0,0,6.135,3.408l16.359.682.682-1.363-1.363-1.363-2.045-2.045.682-6.135a7.047,7.047,0,0,1,6.816-4.09l6.816-15-.682-2.726-3.408.682-5.453,10.906-2.726,2.045,4.771-10.906v-6.816Zm10.906,21.812L66.8,216.071l-4.09,5.453,3.408,2.045q11.587,1.363,18.4-2.726l2.045-2.726-.682-2.726Q82.472,212.663,75.656,213.345Zm56.574,1.363-.682,2.045h1.363Zm0,4.771-6.816,2.726-13.632,2.726q-4.771-1.363-5.453.682H83.836l-4.09,1.363q-3.408,1.363-3.408,5.453l4.09,1.363,11.587,2.045,15.677,1.363.682.682h7.5l.682.682H136.32l1.363-.682q0-10.224-3.408-17.04Zm4.09,21.812,1.363,4.771h.682l-.682-2.726Q138.365,240.61,136.32,241.291ZM97.468,261.058Q77.7,278.1,71.567,308.771v17.04l.682,1.363a32.98,32.98,0,0,0,12.269,7.5H92.7l.682.682-2.726-8.861-.682-9.543-.682-.682.682-12.951,2.726-8.179v-2.045L82.472,295.82H79.746l8.179-2.726,3.408-2.045-6.816-4.09-1.363-2.045,10.224,2.045,2.045-8.179,8.179-15Zm10.906,4.09a72.915,72.915,0,0,0-12.951,22.493l4.771.682a58.376,58.376,0,0,1,12.951-20.448Zm72.933.682-10.224,2.726-10.224.682-.682.682h-21.13l-.682-.682-15-1.363-.682-.682q-4.771-.682-6.135,2.045.682,2.045-2.045.682l-.682,2.726-6.135,8.179-4.09,8.861h3.408l11.587,4.09v.682h-4.771l-8.861-2.726-2.726.682,12.951,7.5,1.363,2.045-19.085-8.861-2.726,4.771-1.363,6.816v15.677l3.408,14.314,2.045,1.363,10.906,3.408,10.906,2.045h7.5l.682.682,17.722-.682,15-3.408L149.27,314.905,143.818,319l-1.363.682,8.861-11.587-2.045-2.045-4.09,2.045q-2.726.682-2.045-.682L170.4,280.825l11.587-9.543q-.682-2.045,1.363-1.363l2.045-3.408Z" transform="translate(0.011 -0.061)" fill="#380404"/>
    <path id="rgba_56_4_4_1_2" data-name="rgba(56,4,4,1)" d="M211.022,54l7.157,6.475,2.726,6.475q-2.59.682-3.408-1.022A23.558,23.558,0,0,0,210,55.022Z" transform="translate(-66.853 -17.253)" fill="#380404"/>
    <path id="rgba_56_4_4_1_3" data-name="rgba(56,4,4,1)" d="M165.61,54.841q3-1.022,2.386,1.022l-1.022,1.022h-2.726L154.7,59.612,153,58.59l1.7-2.386,10.224-.682Z" transform="translate(-48.705 -17.413)" fill="#380404"/>
    <path id="rgba_56_4_4_1_4" data-name="rgba(56,4,4,1)" d="M262.132,139.989q7.293-.273,10.565,2.726.886,2.045-1.7,1.363l-3.408-.682-4.771,5.453a12.244,12.244,0,0,1-7.5,2.045l-2.726-.682-2.726,2.726H248.5l.341-1.022.682-3.408,4.43-5.112ZM261.11,143.4l-4.09,2.045-1.363,2.045v.682h2.727l5.453-3.408Q264.518,142.034,261.11,143.4Z" transform="translate(-79.111 -44.624)" fill="#380404"/>
    <path id="rgba_56_4_4_1_5" data-name="rgba(56,4,4,1)" d="M40.429,146l1.022.341-7.839,6.475h-1.7q-.682-2.59,1.022-3.408Z" transform="translate(-10.09 -46.545)" fill="#380404"/>
    <path id="rgba_56_4_4_1_6" data-name="rgba(56,4,4,1)" d="M54.883,148l.341,1.022a16,16,0,0,1-9.2,6.475L45,153.112l1.7-1.7Z" transform="translate(-14.32 -47.182)" fill="#380404"/>
    <path id="rgba_56_4_4_1_7" data-name="rgba(56,4,4,1)" d="M82.831,150l2.726,1.022-.682,1.7Q81.536,153.817,82.831,150Z" transform="translate(-26.249 -47.819)" fill="#380404"/>
    <path id="rgba_56_4_4_1_8" data-name="rgba(56,4,4,1)" d="M70.43,150.9q2.249-.75,1.7,1.022l-5.794,4.431L66,152.941Z" transform="translate(-21.006 -48.033)" fill="#380404"/>
    <path id="rgba_56_4_4_1_9" data-name="rgba(56,4,4,1)" d="M284.951,219.928q3.135-.818,1.7,2.726-3.544,1.431-2.726-1.7Z" transform="translate(-90.342 -70.034)" fill="#380404"/>
    <path id="rgba_56_4_4_1_10" data-name="rgba(56,4,4,1)" d="M275.6,228l1.022,1.7q-.818,1.909-1.7.341-1.772.477-1.022-1.363Z" transform="translate(-87.126 -72.653)" fill="#380404"/>
    <path id="rgba_56_4_4_1_11" data-name="rgba(56,4,4,1)" d="M147,253l12.61.682,9.2,4.43-3.067.341-9.543-2.045-9.2-.682Z" transform="translate(-46.795 -80.612)" fill="#380404"/>
    <path id="rgba_255_255_255_1_" data-name="rgba(255,255,255,1)" d="M192.785,60l1.7.341L183.583,73.973q-2.454,1.3-2.045,5.453l1.363,1.363-2.726,2.726a77.292,77.292,0,0,0-10.906,17.722,55.057,55.057,0,0,0-4.771,17.04q-3.067,1.363-3.408,5.453l.682,1.7,2.726-1.7.682-2.045,8.52-8.52,4.771-3.408,7.5-2.045q1.022,1.7,4.771.682l6.475,2.726,1.363,3.749V117.6q-1.5,8.043-7.157,11.928L182.56,134.3l-7.5,2.045h-3.408l-5.112,3.067.341,1.022h4.771q1.159-1.84,2.386,1.022l13.632,21.13.682,3.067-23.516,19.085-22.493,15.677-12.269,6.816-7.5,2.726h-2.726l-1.022,1.022-4.43,9.2a518.53,518.53,0,0,1-61.686-85.543q33.672-6.543,55.211-25.22l.682-1.363-5.112-.341-10.906,2.045-3.749,1.7,3.067.341,4.771-1.363h4.43l-1.7,2.726-9.543,5.453L70.094,126.8l-13.632,4.09-10.906,1.363-.682-.682H36.013l-15-3.408a27.766,27.766,0,0,1-12.61-9.2l-2.726-5.453L5,106.691,6.7,104.3l3.408-1.363L21.7,102.26l.682-.682h46.35l.682-.682H81l.682-.682,10.906-.682,4.09-1.363h8.179q.818-1.5,4.09-.682l2.045-1.363,3.067,8.52,4.43,4.43q3.953,2.863,11.587,2.045l2.386-1.022-9.2-1.7-5.794-4.43-1.363-2.726,1.022-.341,2.726,1.363h10.224a24.467,24.467,0,0,0,13.973-9.883l4.43-7.839,4.771-.682,9.543-4.771,13.291-11.928,3.408-6.475H192.1Zm-7.839,54.529-8.179,3.408L172,123.39l-.682,3.408v.682h1.363l2.726-2.726,2.045.682a15.61,15.61,0,0,0,8.179-2.045l4.771-5.453,2.726.682q2.726.682,2.045-1.363Q191.762,114.529,184.946,114.529ZM30.22,119.3l-5.453,2.726q-2.045.682-1.363,3.408h2.045l6.135-5.453Zm12.269.682-8.179,3.408-2.045,2.045,1.363,2.045a20.756,20.756,0,0,0,8.861-6.135Zm15.677,1.363q-1.363,4.09,2.045,2.726l.682-1.363Zm-6.816.682-4.771,2.045.682,3.408,5.453-4.09Q53.395,121.345,51.35,122.027Zm50.439,69.525v2.726l9.543.682L120.193,197H123.6Q116.1,190.188,101.789,191.551Z" transform="translate(-1.584 -19.164)" fill="#fec48c"/>
    <path id="rgba_255_255_255_1_2" data-name="rgba(255,255,255,1)" d="M127.063,71q14.927-.273,20.789,8.52l.682,3.408-2.386,1.7-7.5,2.045-7.5,1.363-11.587.682-.682-.682q-6.271.545-9.883-.682v-4.43l5.794-7.839,3.408-2.045Z" transform="translate(-34.696 -22.662)" fill="#fec48c"/>
    <path id="rgba_255_255_255_1_3" data-name="rgba(255,255,255,1)" d="M190.7,71q6.68-.2,8.52,4.43l.682,6.135q-1.7,8.52-7.157,13.291l-4.09-1.363L174,83.606l7.839-8.52Z" transform="translate(-55.391 -22.662)" fill="#fec48c"/>
    <path id="rgba_255_255_255_1_4" data-name="rgba(255,255,255,1)" d="M168.961,94h1.363a60.029,60.029,0,0,0,16.7,10.224L186,106.269l-6.816,3.408-6.135.682,1.022-1.7q1.022-4.09-1.022-5.112l-3.408-.682-2.386,1.7q.886,3.272-1.363,2.386Q164.8,98.226,168.961,94Z" transform="translate(-52.738 -29.989)" fill="#fff"/>
    <path id="rgba_255_255_255_1_5" data-name="rgba(255,255,255,1)" d="M145.013,95.873q3.885-1.227,2.386,3.067l-1.363,5.794-4.09.682-.341-2.726-1.363,2.045q-2.249.75-1.7-1.022-1.909-1.159,1.022-2.386l1.7,1.022-1.022-1.7q-4.908-.818-5.794,2.386l.682,3.749q-14.041.2-21.13-7.157l.341-1.022.682.682h9.543l.682-.682,12.951-.682Z" transform="translate(-36.288 -30.498)" fill="#fff"/>
    <path id="rgba_255_255_255_1_6" data-name="rgba(255,255,255,1)" d="M173,109l2.726,1.022q.818,3.135-2.726,1.7Z" transform="translate(-55.073 -34.765)" fill="#fff"/>
    <path id="rgba_255_255_255_1_7" data-name="rgba(255,255,255,1)" d="M263.953,144.783q3.681-1.3,3.067,1.022-2.658,3.476-8.52,3.749l.341-1.022,1.022-1.7Z" transform="translate(-82.295 -46.01)" fill="#fff"/>
    <path id="rgba_255_255_255_1_8" data-name="rgba(255,255,255,1)" d="M79.377,281h3.067v6.475l-4.771,10.906,2.726-2.045,5.112-10.565,3.408-.682,1.022,2.386-6.816,15.336q-4.976-.068-6.816,3.749l-.682,6.134,1.7,2.386,1.7,1.022-.682,1.7-16.7-.682a8.706,8.706,0,0,1-5.794-3.749l-.682-2.726,3.067-3.749L62,305.538l2.045-3.749v-3.408l-.682-1.7-5.112-2.726H55.52q-3.067,1.363-.682,2.726l5.112,3.067-1.022,2.386q-2.59,1.84-8.179.682l-3.067-1.363L47,298.381l5.794-6.475,10.224-5.453,6.475-1.363.682,3.749-.682.682L68.13,303.834h.682a73.37,73.37,0,0,0,4.771-19.085l2.386-2.386Z" transform="translate(-14.956 -89.527)" fill="#fec48c"/>
    <path id="rgba_255_255_255_1_9" data-name="rgba(255,255,255,1)" d="M104.61,312.926q7.361-.75,10.565,2.045l.682,2.386-2.386,3.067q-6.407,4.158-18.4,2.726L92,320.764l3.067-4.43Z" transform="translate(-29.284 -99.641)" fill="#fff"/>
    <path id="rgba_255_255_255_1_10" data-name="rgba(255,255,255,1)" d="M167.551,322l2.386,1.022q3.613,7.089,3.408,17.381l-2.386.682h-18.4l-.682-.682h-7.5l-.682-.682-16.359-1.363-11.587-2.045L112,334.61q.341-3.749,3.067-5.112l4.09-1.363H141.65q1.227-1.909,5.453-.682l13.632-2.726Z" transform="translate(-35.651 -102.581)" fill="#fec48c"/>
    <path id="rgba_255_255_255_1_11" data-name="rgba(255,255,255,1)" d="M130.561,383l6.475,3.067-8.179,14.314-3.067,8.52-9.2-2.045,1.022,2.045,7.157,3.749-3.749,2.386-7.839,2.386,2.386.341,10.224-2.726.341,1.7-2.726,8.179-.682,13.632.682.682.682,8.861,2.726,8.861-1.022-.341H117.61a35.161,35.161,0,0,1-11.928-7.839L105,447.412V431.054Q111.2,400.449,130.561,383Z" transform="translate(-33.423 -122.003)" fill="#e7b49b"/>
    <path id="rgba_255_255_255_1_12" data-name="rgba(255,255,255,1)" d="M151.928,390l4.09.682,1.022,1.022a90.59,90.59,0,0,0-12.61,20.789L140,411.471A66.939,66.939,0,0,1,151.928,390Z" transform="translate(-44.566 -124.231)" fill="#e7b49b"/>
    <path id="rgba_255_255_255_1_13" data-name="rgba(255,255,255,1)" d="M228,390l-1.022,1.7-1.022,1.7q-1.5-.477-1.022,1.022l-8.861,8.179-1.022,1.7-28.287,26.924q-.545,1.772,1.7,1.022l4.09-2.045,2.386,1.7-8.179,11.247,5.794-4.09,12.61,23.175L198,464.3l-8.179.682-.682.682-16.359.682-.682-.682h-7.5l-11.587-2.045-10.906-3.408-1.7-1.7-2.045-6.135-.682-8.179-.682-.682V429.193l1.363-7.5,2.386-4.43,19.085,8.861-1.363-2.045-12.61-7.839,2.386-.341,8.861,2.726h4.771v-.682l-11.587-4.09h-3.067a61.286,61.286,0,0,1,10.224-18.4l4.43-3.408h3.408l.682.682,15,1.363.682.682h22.493l.682-.682,10.224-.682Z" transform="translate(-43.611 -124.231)" fill="#e7b49b"/>
    <path id="rgba_0_251_254_1_" data-name="rgba(0,251,254,1)" d="M290.182,202l-.682,1.363Z" transform="translate(-92.165 -64.375)" fill="#00fbfe"/>
    <path id="rgba_0_251_254_1_2" data-name="rgba(0,251,254,1)" d="M283.226,204l-2.726,3.408Z" transform="translate(-89.3 -65.011)" fill="#00fbfe"/>
    <path id="rgba_0_251_254_1_3" data-name="rgba(0,251,254,1)" d="M277.182,215l-.682,1.363Z" transform="translate(-88.026 -68.514)" fill="#00fbfe"/>
    <path id="rgba_0_251_254_1_4" data-name="rgba(0,251,254,1)" d="M296.182,223l-.682,1.363Z" transform="translate(-94.075 -71.061)" fill="#00fbfe"/>
    <path id="rgba_0_251_254_1_5" data-name="rgba(0,251,254,1)" d="M278.182,239l-.682,1.363Z" transform="translate(-88.344 -76.155)" fill="#00fbfe"/>
    <path id="rgba_0_251_254_1_6" data-name="rgba(0,251,254,1)" d="M248.182,240l-.682,1.363Z" transform="translate(-78.793 -76.473)" fill="#00fbfe"/>
    <path id="rgba_0_251_254_1_7" data-name="rgba(0,251,254,1)" d="M269.182,252l-.682,1.363Z" transform="translate(-85.479 -80.294)" fill="#00fbfe"/>
    <path id="rgba_0_251_254_1_8" data-name="rgba(0,251,254,1)" d="M262.182,253l-.682,1.363Z" transform="translate(-83.25 -80.612)" fill="#00fbfe"/>
    <path id="rgba_0_251_254_1_9" data-name="rgba(0,251,254,1)" d="M254.182,260l-.682,1.363Z" transform="translate(-80.703 -82.841)" fill="#00fbfe"/>
    <path id="rgba_0_251_254_1_10" data-name="rgba(0,251,254,1)" d="M246.182,267l-.682,1.363Z" transform="translate(-78.156 -85.07)" fill="#00fbfe"/>
    <path id="rgba_0_251_254_1_11" data-name="rgba(0,251,254,1)" d="M238.182,274l-.682,1.363Z" transform="translate(-75.609 -87.298)" fill="#00fbfe"/>
    <path id="rgba_0_251_254_1_12" data-name="rgba(0,251,254,1)" d="M239.182,279l-.682,1.363Z" transform="translate(-75.927 -88.89)" fill="#00fbfe"/>
    <path id="rgba_0_251_254_1_13" data-name="rgba(0,251,254,1)" d="M148.5,281l.682,1.363Z" transform="translate(-47.273 -89.527)" fill="#00fbfe"/>
    <path id="rgba_0_251_254_1_14" data-name="rgba(0,251,254,1)" d="M230.182,281l-.682,1.363Z" transform="translate(-73.062 -89.527)" fill="#00fbfe"/>
    <path id="rgba_0_251_254_1_15" data-name="rgba(0,251,254,1)" d="M292.341,286l.341,3.067H292Z" transform="translate(-92.961 -91.119)" fill="#00fbfe"/>
    <path id="rgba_0_251_254_1_16" data-name="rgba(0,251,254,1)" d="M152.5,289l1.363,2.045Z" transform="translate(-48.546 -92.074)" fill="#00fbfe"/>
    <path id="rgba_0_251_254_1_17" data-name="rgba(0,251,254,1)" d="M221.182,289l-.682,1.363Z" transform="translate(-70.196 -92.074)" fill="#00fbfe"/>
    <path id="rgba_0_251_254_1_18" data-name="rgba(0,251,254,1)" d="M152.5,295l2.726,3.408Z" transform="translate(-48.546 -93.985)" fill="#00fbfe"/>
    <path id="rgba_0_251_254_1_19" data-name="rgba(0,251,254,1)" d="M220.182,296l-.682,1.363Z" transform="translate(-69.878 -94.303)" fill="#00fbfe"/>
    <path id="rgba_0_251_254_1_20" data-name="rgba(0,251,254,1)" d="M211.182,298l-.682,1.363Z" transform="translate(-67.013 -94.94)" fill="#00fbfe"/>
    <path id="rgba_0_251_254_1_21" data-name="rgba(0,251,254,1)" d="M191.182,311l1.022.341-1.7,1.022Z" transform="translate(-60.645 -99.079)" fill="#00fbfe"/>
    <path id="rgba_0_251_254_1_22" data-name="rgba(0,251,254,1)" d="M159.341,312l.341,2.386H159Z" transform="translate(-50.616 -99.397)" fill="#00fbfe"/>
    <path id="rgba_0_251_254_1_23" data-name="rgba(0,251,254,1)" d="M193.341,315l1.022,1.7-1.363.341Z" transform="translate(-61.441 -100.352)" fill="#00fbfe"/>
    <path id="rgba_0_251_254_1_24" data-name="rgba(0,251,254,1)" d="M249.022,330l.341,1.022L248,331.7Z" transform="translate(-78.952 -105.128)" fill="#00fbfe"/>
    <path id="rgba_0_251_254_1_25" data-name="rgba(0,251,254,1)" d="M292.341,352l.341,2.386H292Z" transform="translate(-92.961 -112.133)" fill="#00fbfe"/>
    <path id="rgba_0_251_254_1_26" data-name="rgba(0,251,254,1)" d="M173.5,353l1.7.341-1.7.341Z" transform="translate(-55.232 -112.451)" fill="#00fbfe"/>
    <path id="rgba_0_251_254_1_27" data-name="rgba(0,251,254,1)" d="M200,353.906q2.045-.818,1.363,1.7l.682,2.726h-.682Z" transform="translate(-63.669 -112.676)" fill="#00fbfe"/>
    <path id="rgba_0_251_254_1_28" data-name="rgba(0,251,254,1)" d="M195.5,390l1.7.341-1.7.341Z" transform="translate(-62.237 -124.231)" fill="#00fbfe"/>
    <path id="rgba_0_251_254_1_29" data-name="rgba(0,251,254,1)" d="M234.5,390l1.7.341-1.7.341Z" transform="translate(-74.654 -124.231)" fill="#00fbfe"/>
    <path id="rgba_0_255_255_1_" data-name="rgba(0,255,255,1)" d="M240.264,193H246.4l5.112,1.363-1.363,3.749-8.861,12.269,1.022.341,6.134-6.135h1.022l2.045,3.749-67.821,59.641-12.951-8.861-2.726-.682,2.726,3.408,12.269,9.543h2.045l46.35-41.578,7.839-5.453,2.045,9.883.682,12.269.682.682v12.269l.682.682v40.9l-.682.682V313.3l-1.363,6.475L228,324.551,216.408,326.6l-12.951.682-.682.682H178.919l-.682-.682-12.951-.682-12.951-2.726L140.749,319.1,137,316.031v-6.816l2.045-9.2,9.2.682.682.682h5.453l.682.682H161.2l.682.682h15l1.022,1.022,3.067,5.794,1.363.682a70.339,70.339,0,0,0,23.175-15l11.928-1.022-7.5-1.022v-1.7l4.09-4.771-1.7,1.022-22.493,15.677-5.112,2.045-2.726-19.426a28.529,28.529,0,0,0-4.09-10.565l13.291-2.045,7.839-3.749-1.7-.341-12.951,3.408-10.224.682-1.022,1.022v4.771l-1.022.341-11.587,4.09-8.861.682-.682.682H141.09l5.794-22.493,5.794,5.794-3.408,3.408.682,2.727q-1.84,1.227-.682,5.453l2.386,3.067,1.7-.341q-2.045-1.363-1.363-5.453l.682-2.726L152,272.408l5.453-5.453,7.157-12.61h2.045l8.861-3.408,18.4-10.906a327.453,327.453,0,0,0,48.054-40.556l1.363-3.067-10.224,2.045q-.75,2.386,4.43,1.363l-4.771,5.453-5.112-7.839v-1.7ZM237.2,211.4q-1.363,4.09,2.726,2.726Q241.287,210.04,237.2,211.4Zm-4.771,5.453-2.045.682q-.682,2.045,1.363,1.363.682,1.363,1.363,0Q233.789,216.175,232.426,216.856Z" transform="translate(-43.611 -61.509)" fill="#18b3ee"/>
    <path id="rgba_0_255_255_1_2" data-name="rgba(0,255,255,1)" d="M144.112,279.946q1.568-.477,1.022,1.022l9.2,9.883,1.7,1.022-1.7.341a14.886,14.886,0,0,0-9.543-7.5l-5.453,2.726L139,286.422Z" transform="translate(-44.248 -89.155)" fill="#18b3ee"/>
  </g>
</svg>
