<svg xmlns="http://www.w3.org/2000/svg" width="63.032" height="53.428" viewBox="0 0 63.032 53.428">
  <g id="pair" transform="translate(0)">
    <g id="relations" transform="translate(0 47.909) rotate(-90)">
      <g id="Group_132" data-name="Group 132" transform="translate(0)">
        <path id="Path_377" data-name="Path 377" d="M44.7,31.4a3.362,3.362,0,0,1-1.7,3.182v15.8a3.835,3.835,0,0,1,0,6.365v5.362c0,.51-.293.923-.655.923s-.655-.413-.655-.923V56.746a2.965,2.965,0,0,1-1.574-2.132A22.622,22.622,0,0,1,25.79,47.562l-6.959-6.99-.592,1.387c-2.924,6.85-7.983,11.433-13.6,12.356A3.087,3.087,0,0,1,3,56.747v5.362c0,.51-.293.923-.655.923s-.655-.413-.655-.923V56.746a3.835,3.835,0,0,1,0-6.365v-15.8A3.362,3.362,0,0,1,0,31.4a3.362,3.362,0,0,1,1.7-3.182V13.048A3.361,3.361,0,0,1,0,9.866,3.362,3.362,0,0,1,1.7,6.684V.923C1.7.413,1.988,0,2.35,0S3,.413,3,.923v5.76A2.98,2.98,0,0,1,4.587,8.852a23.22,23.22,0,0,1,13.565,6.872l6.873,6.756.422-.989a23.64,23.64,0,0,1,6.418-8.958,14.855,14.855,0,0,1,8.218-3.525A3.043,3.043,0,0,1,41.7,6.684V.923c0-.51.293-.923.655-.923s.655.413.655.923v5.76a3.362,3.362,0,0,1,1.7,3.183,3.362,3.362,0,0,1-1.7,3.182V28.214A3.362,3.362,0,0,1,44.7,31.4Zm-2.35,23.634c.574,0,1.04-.658,1.04-1.467s-.457-1.452-1.021-1.466h-.038c-.565.014-1.021.667-1.021,1.466S41.781,55.031,42.354,55.031ZM1.31,53.564c0,.809.467,1.467,1.04,1.467s1.04-.658,1.04-1.467S2.934,52.112,2.369,52.1H2.331C1.766,52.112,1.31,52.764,1.31,53.564Zm0-22.168c0,.809.467,1.467,1.04,1.467s1.04-.658,1.04-1.467-.462-1.46-1.032-1.467H2.341C1.772,29.936,1.31,30.592,1.31,31.4Zm1.04-23c-.574,0-1.04.658-1.04,1.467s.467,1.467,1.04,1.467,1.04-.658,1.04-1.467S2.924,8.4,2.35,8.4ZM17.4,17.239a22.165,22.165,0,0,0-12.781-6.53A3.05,3.05,0,0,1,3,13.049V28.214a3.072,3.072,0,0,1,1.628,2.395,22.557,22.557,0,0,1,12.461,6,1.17,1.17,0,0,1,.195,1.277c-.2.428-.6.551-.905.274a21.485,21.485,0,0,0-11.806-5.7A2.962,2.962,0,0,1,3,34.579v15.8a2.945,2.945,0,0,1,1.563,2.085c5.184-.886,9.848-5.132,12.549-11.46l7.232-16.941Zm22.707-6.384c-5.6.486-10.636,4.783-13.541,11.588L19.509,38.985l7.042,7.073a21.565,21.565,0,0,0,13.524,6.7A3.065,3.065,0,0,1,41.7,50.382v-15.8a2.99,2.99,0,0,1-1.588-2.193,22.567,22.567,0,0,1-13.319-5.968,1.166,1.166,0,0,1-.2-1.274c.193-.431.6-.56.9-.288a21.525,21.525,0,0,0,12.593,5.678A3.042,3.042,0,0,1,41.7,28.214V13.048A2.99,2.99,0,0,1,40.111,10.855Zm3.283-.989c0-.809-.467-1.467-1.04-1.467s-1.04.658-1.04,1.467.467,1.467,1.04,1.467S43.394,10.675,43.394,9.866ZM42.363,29.93h-.017c-.57.007-1.032.662-1.032,1.467s.467,1.467,1.04,1.467,1.04-.658,1.04-1.467S42.932,29.936,42.363,29.93Z" transform="translate(0)" fill="#010101"/>
      </g>
    </g>
    <g id="Ellipse_57" data-name="Ellipse 57" transform="translate(45.566 0)" fill="#fff" stroke="#000" stroke-width="2">
      <circle cx="6.36" cy="6.36" r="6.36" stroke="none"/>
      <circle cx="6.36" cy="6.36" r="5.36" fill="none"/>
    </g>
    <g id="Ellipse_58" data-name="Ellipse 58" transform="translate(25.783 40.492)" fill="#fff" stroke="#000" stroke-width="2">
      <ellipse cx="6.393" cy="6.393" rx="6.393" ry="6.393" stroke="none"/>
      <ellipse cx="6.393" cy="6.393" rx="5.393" ry="5.393" fill="none"/>
    </g>
    <g id="Ellipse_59" data-name="Ellipse 59" transform="translate(45.566 40.707)" fill="#fff" stroke="#000" stroke-width="2">
      <ellipse cx="6.785" cy="6.36" rx="6.785" ry="6.36" stroke="none"/>
      <ellipse cx="6.785" cy="6.36" rx="5.785" ry="5.36" fill="none"/>
    </g>
    <g id="Ellipse_60" data-name="Ellipse 60" transform="translate(6.624 0)" fill="#fff" stroke="#000" stroke-width="2">
      <ellipse cx="6.393" cy="6.393" rx="6.393" ry="6.393" stroke="none"/>
      <ellipse cx="6.393" cy="6.393" rx="5.393" ry="5.393" fill="none"/>
    </g>
    <g id="Ellipse_61" data-name="Ellipse 61" transform="translate(5.203 40.492)" fill="#fff" stroke="#000" stroke-width="2">
      <ellipse cx="6.393" cy="6.393" rx="6.393" ry="6.393" stroke="none"/>
      <ellipse cx="6.393" cy="6.393" rx="5.393" ry="5.393" fill="none"/>
    </g>
    <g id="Ellipse_62" data-name="Ellipse 62" transform="translate(24.646 0)" fill="#fff" stroke="#000" stroke-width="2">
      <ellipse cx="6.393" cy="6.393" rx="6.393" ry="6.393" stroke="none"/>
      <ellipse cx="6.393" cy="6.393" rx="5.393" ry="5.393" fill="none"/>
    </g>
  </g>
</svg>
