<svg height="457.14286pt" viewBox="0 0 457.14286 457.14286" width="457.14286pt" xmlns="http://www.w3.org/2000/svg"><path d="m153.375 283.25h-97.351562c-30.894532 0-56.023438 25.167969-56.023438 56.097656v108.652344c0 5.054688 4.09375 9.144531 9.144531 9.144531h191.191407c5.046874 0 9.140624-4.089843 9.140624-9.144531v-108.652344c0-30.929687-25.167968-56.097656-56.101562-56.097656zm37.816406 155.605469h-24.703125v-43.347657c0-5.050781-4.09375-9.140624-9.144531-9.140624s-9.144531 4.089843-9.144531 9.140624v43.347657h-86.929688v-43.347657c0-5.050781-4.09375-9.140624-9.144531-9.140624s-9.144531 4.089843-9.144531 9.140624v43.347657h-24.695313v-99.507813c0-20.847656 16.929688-37.8125 37.738282-37.8125h97.351562c20.851562 0 37.816406 16.964844 37.816406 37.8125zm0 0"/><path d="m104.738281 258.617188c34.046875 0 61.75-27.707032 61.75-61.75 0-34.046876-27.703125-61.75-61.75-61.75-34.054687 0-61.757812 27.703124-61.757812 61.75 0 34.042968 27.703125 61.75 61.757812 61.75zm0-105.214844c23.960938 0 43.460938 19.5 43.460938 43.464844 0 23.964843-19.5 43.464843-43.460938 43.464843-23.96875 0-43.46875-19.5-43.46875-43.464843 0-23.964844 19.5-43.464844 43.46875-43.464844zm0 0"/><path d="m448 0h-256.058594c-5.046875 0-9.140625 4.089844-9.140625 9.144531v181.222657c0 5.050781 4.09375 9.140624 9.140625 9.140624h26.433594v63.347657c0 3.699219 2.226562 7.039062 5.644531 8.449219 1.132813.472656 2.320313.695312 3.5.695312 2.378907 0 4.710938-.929688 6.460938-2.679688l69.8125-69.8125h144.207031c5.050781 0 9.144531-4.089843 9.144531-9.140624v-181.222657c0-5.054687-4.09375-9.144531-9.144531-9.144531zm-9.144531 181.222656h-138.847657c-2.421874 0-4.75.964844-6.464843 2.679688l-56.882813 56.882812v-50.417968c0-5.054688-4.09375-9.144532-9.140625-9.144532h-26.433593v-162.9375h237.769531zm0 0"/><path d="m250.28125 127.1875c15.125 0 27.429688-12.304688 27.429688-27.429688s-12.304688-27.425781-27.429688-27.425781-27.429688 12.300781-27.429688 27.425781 12.304688 27.429688 27.429688 27.429688zm0-36.570312c5.039062 0 9.144531 4.097656 9.144531 9.140624 0 5.046876-4.105469 9.144532-9.144531 9.144532s-9.144531-4.097656-9.144531-9.144532c0-5.042968 4.105469-9.140624 9.144531-9.140624zm0 0"/><path d="m319.972656 127.1875c15.125 0 27.429688-12.304688 27.429688-27.429688s-12.304688-27.425781-27.429688-27.425781-27.429687 12.300781-27.429687 27.425781 12.304687 27.429688 27.429687 27.429688zm0-36.570312c5.039063 0 9.144532 4.097656 9.144532 9.140624 0 5.046876-4.105469 9.144532-9.144532 9.144532-5.039062 0-9.140625-4.097656-9.140625-9.144532 0-5.042968 4.101563-9.140624 9.140625-9.140624zm0 0"/><path d="m389.664062 127.1875c15.125 0 27.429688-12.304688 27.429688-27.429688s-12.304688-27.425781-27.429688-27.425781-27.425781 12.300781-27.425781 27.425781 12.300781 27.429688 27.425781 27.429688zm0-36.570312c5.042969 0 9.144532 4.097656 9.144532 9.140624 0 5.046876-4.101563 9.144532-9.144532 9.144532-5.039062 0-9.140624-4.097656-9.140624-9.144532 0-5.042968 4.101562-9.140624 9.140624-9.140624zm0 0"/></svg>