<svg xmlns="http://www.w3.org/2000/svg" viewBox="0 0 312.94 384.42"><defs><style>.cls-1{fill:#010101;}.cls-2{fill:#fff;}.cls-3{fill:#020202;}.cls-4{fill:#030202;}.cls-5{fill:#090604;}.cls-6{fill:#020201;}.cls-7{fill:#040302;}.cls-8{fill:#020405;}.cls-9{fill:#020303;}.cls-10{fill:#e0f2f8;}</style></defs><title>help desk1</title><g id="Layer_2" data-name="Layer 2"><g id="Layer_1-2" data-name="Layer 1"><path class="cls-1" d="M127.26,384.42H53c-3.43-.87-6.12-2.59-7.22-6.18-1-5.19-1.25-10.32,1-15.28a18.59,18.59,0,0,1,8.51-8.76A16.87,16.87,0,0,1,64,352.57a16.84,16.84,0,0,0,3.33-.1c1-.16,2.09-.44,2-1.72s-1.2-1.09-2-1.16c-2.21-.2-4.44,0-6.67-.07-13.59.28-27.17.11-40.75.09a18.67,18.67,0,0,1-9-2.25,22.57,22.57,0,0,1-8.49-8.58A24.28,24.28,0,0,1,0,327.58c.09-13-.06-26.09.09-39.13-.17-4.71,0-9.43,0-14.14C0,262.59,0,250.88.06,239.16c0-12.81,8.29-21.36,21.22-21.63,11.83-.25,23.68-.15,35.52,0,4.65,0,9.3-.15,13.94-.06,7.71.09,15.43,0,23.14.05,2.68,0,3.82-.71,3.32-3.72-.87-5.3-.2-10.68-.41-16-.06-1.56.45-3.27-.84-4.61-3.77-.79-7.65-.93-11.37-2C72.44,186.45,62.27,174.51,65,157.39a29.37,29.37,0,0,1,9.07-16.23c1.92-1.74,1.61-3.66,1.29-5.77a28.4,28.4,0,0,0-.73-4.38c-1.71-13.36-3.7-26.67-5.32-40a38.13,38.13,0,0,0-.58-5.32,11.06,11.06,0,0,0-4.89-10.22c-3.78-3.1-8-5.6-12-8.37-7.33-5.05-7.44-12.52-.25-17.82,2-1.48,4.09-2.89,6.23-4.16s2.72-2.64.57-4.56-4.08-4.05-6.16-6c-3.21-3.32-5.06-7-3.1-11.69a10.43,10.43,0,0,1,6.25-5.88A182.57,182.57,0,0,1,79.88,9.18,293,293,0,0,1,135.67.77c16.83-.94,33.66-.84,50.49-.63,8,.1,16,.13,23.84,1.63,5.12,1,7.11,3.08,7.46,7.78-.53,3.18-2.5,5-5.54,5.83-3.79.51-7.42-.68-11.14-1a284.25,284.25,0,0,0-38.14-1.55c-31,1.18-61.84,3.82-91.73,13-6.62,2-6.65,1.95-1.69,6.92,1.33,1.32,2.7,2.6,3.93,4,3.84,4.4,3.64,10-.47,14.14A38.42,38.42,0,0,1,65.76,56c-2.2,1.41-2.34,2.6-.06,4.12a101.81,101.81,0,0,1,11.2,8.78,15,15,0,0,1,4.9,10.2c1.7,16.66,4.22,33.21,6.39,49.81.61,4.63.75,4.66,5.39,4.69,9,.06,7.78.22,9-7.62,1.73-11,3.67-22,7.63-32.43,4.86-12.84,13.24-21.93,27.3-24.64,6.18-1.2,11.89.57,17.41,3.07,7.53,3.4,15.11,6.54,23.29,8.12,13,2.51,25.05-.46,36.94-5.2,4.17-1.66,8.11-3.85,12.49-5.06,12.74-3.52,22.8,1.09,31.18,10.36,5.23,5.77,8,12.87,9.84,20.38,3.46,10.63,4.9,21.68,6.57,32.67.69,4.55.76,4.62,5.4,4.87,6.75.36,6.75.36,6.75-6.42q0-30,0-60a26.58,26.58,0,0,0-21.95-26.55c-3.19-.63-6.13-1.59-8-4.37-6.13-9.23-14.87-15-25-19A11.06,11.06,0,0,1,228.11,19c-1.69-1.91-2.49-4-1.44-6.54,2.68-4.49,5.12-5.32,9.91-3.61A77.37,77.37,0,0,1,254.7,18.4a62.27,62.27,0,0,1,8.7,7.77c1.63,1.85,2.54,4.35,5,5.48,10.38,2.49,19,7.63,25.3,16.43a55.39,55.39,0,0,1,5.71,11A43.33,43.33,0,0,1,301.65,73c.18,11.79.22,23.58,0,35.37.22,4.83.15,9.67,0,14.5q.11,9.53,0,19.07a10.64,10.64,0,0,0,2.64,7.5c3.92,4.61,6.9,9.77,7.88,15.88,1.36,5,.85,9.88-.26,14.79a32.8,32.8,0,0,1-8,14.6,6.49,6.49,0,0,0-1.72,6.15c1.45,8.73,3.23,17.41,4.4,26.19.57,4.28.56,8.46-1.5,12.4a18.49,18.49,0,0,1-7.39,7.66,5.45,5.45,0,0,0-3,4.76,15.32,15.32,0,0,1-8,12.31c-4.07,2.35-7.82,5.33-12.56,6.36a16.86,16.86,0,0,1-10.86-1.82,16,16,0,0,1-1.13-27.19c2.79-1.9,5.79-3.44,8.75-5.06a15.6,15.6,0,0,1,14-.84c5.24,2.13,9-.87,8.18-6.47-1.06-7.17-2.4-14.29-3.51-21.44-.41-2.61-1.68-3.2-4.17-2.78-5.47.95-5.24.87-5.72,6.42-.9,10.51-6.14,18.81-13.94,25.64-7.25,6.35-15.85,10.33-24.67,13.91-3.41,1.1-6.84,2.13-10.38,3,1.39,1.2,3,2,4.52,3.09a18.47,18.47,0,0,0,8.39,4.56,44,44,0,0,1,11.54,5.11c3.94,2.38,4.84,5.28,3.21,9.4-4.09,4.38-6.1,4.46-12.42.71,1.25,2.18,1.09,4.93,1.56,7.54a78.54,78.54,0,0,1-2.77,21.87c-2.9,11.16-12.29,15.27-22.67,10.28-6.65-3.2-13-7-19.6-10.24a7.08,7.08,0,0,0-6.45-.32c-4.37,2-8.81,2.73-13.42.79-2.19-.91-2.55.3-2.53,2.15,0,6.12,0,12.24,0,18.37-.06,14.34-8,22.31-22.32,22.33-14.12,0-28.24,0-42.36.06-1.53,0-4.23-.93-4.27,1.48,0,2,2.57,1.54,4,1.41,12.51-1.06,23.42,9.71,19.09,26.34A8.75,8.75,0,0,1,127.26,384.42Z"/><path class="cls-1" d="M280.26,384.42H149c-3.13-.88-5-2.71-4.69-6.18,1.37-4.46,3.17-5.93,7.69-6.24,1.62-.12,3.25-.07,4.87-.07h83.2c6.67,0,6.67,0,6.69-6.51,0-4.62-.09-9.25,0-13.87s2.61-7.71,6.32-7.86c4.06-.17,7,2.91,7.28,7.83.28,5.11,0,10.23-.05,15.35,0,1.47-.37,3,.78,4.29,3.06,1.64,6.32.87,9.49.64,1.87-.13,2.13-1.91,2.42-3.36a129.79,129.79,0,0,0,2.77-17.72c.78-13.2,1.2-26.38-2.75-39.29a74.52,74.52,0,0,0-8.65-18.58c-2.57-4-2.2-6.36,6.68-11.1a87.79,87.79,0,0,1,9.69,15.89C297.74,333.49,285.48,370.9,280.26,384.42Z"/><path class="cls-2" d="M267.64,100.74c-2-8.11-5.18-15.59-11.18-21.64-9.4-9.47-21-11.88-33.19-6.58-7.2,3.13-14.36,6.31-22.05,8.1-13.92,3.25-27.17.86-40.06-4.72-4.79-2.08-9.4-4.68-14.59-5.68-11.64-2.23-20.73,2.51-28.14,11-7.6,8.71-9.77,19.73-12.13,30.56-1.42,6.56-2.38,13.21-3.38,19.85-.35,2.3-1.26,3.15-3.62,3-3.11-.18-6.25,0-9.37.07-1.52.05-2.23-.42-2.42-2C85.4,114.74,82.29,97,80.76,79c-.45-5.32-3.52-8.64-7.29-11.63-3.41-2.71-7-5.28-10.53-7.77-1.75-1.22-1.9-2,0-3.11,2.46-1.46,4.83-3.09,7.16-4.77,6-4.27,6.45-10,1.37-15.22-2.26-2.33-4.53-4.67-6.88-6.91-1.6-1.51-1.93-2.2.66-3.09a228.68,228.68,0,0,1,30.65-8,405.29,405.29,0,0,1,57.87-6.29,359.88,359.88,0,0,1,39.28.33c6.32.41,12.6,1.4,18.9,2.12a6.13,6.13,0,0,1,4.72.15c9,4.1,16.94,9.64,22.44,18.11,1.39,2.14,2.84,3.91,5.54,4.65,13.66,3.75,20.86,13.35,23.81,26.71,1.25,5.69.76,11.46.82,17.19.05,5.13.09,10.25,0,15.38C269.25,98.22,269.92,100.15,267.64,100.74Z"/><path class="cls-2" d="M151.18,337c-13.37,0-26.74.05-40.11.16-1.92,0-2.54-.55-2.64-2.52-.35-7.1-1-14.19-1.41-21.29-.36-5.58-4.12-9.47-9.9-9.72-4.61-.21-9.25-.2-13.87,0-6.13.26-9.68,4.2-10,10.39-.38,7-1,13.94-1.42,20.91-.11,1.9-.89,2.24-2.53,2.23-16.13,0-32.25,0-48.37-.07-5.54,0-8.3-3.27-8.31-9.32q0-39.56,0-79.11c0-3.5-.1-7,0-10.5.19-4.92,2.88-7.7,7.75-7.7q64.86-.07,129.72,0a13.24,13.24,0,0,1,1.85.25c2.5,1.87,2.72,4.64,2.78,7.4.12,6,0,12,0,17.95q0,34.95,0,69.92a27.44,27.44,0,0,1-.39,6.33C153.92,334.28,153.35,336.2,151.18,337Z"/><path class="cls-2" d="M125,218.64a72.08,72.08,0,0,0-8.58.25c-3.93.56-5.65-1.26-6.39-4.76a29.36,29.36,0,0,1-.85-5.9,544.43,544.43,0,0,1,3.62-63.82c1.7-15.21,3.8-30.35,8.5-45a29.67,29.67,0,0,1,7.83-12.94c5.66-5.31,12-6.8,19.24-3.76,7.77,3.29,15.4,6.94,23.71,8.75,2.3.51,4.63.91,6.95,1.35,1.74.22,2,1.19,1.32,2.63a13.65,13.65,0,0,1-2.85,3.43q-14,14-28,28a32.89,32.89,0,0,0-4,4.46c-3,2.16-6.85,3-9.63,5.64-3,2.84-2.44,6.83,1.18,8.08a4.86,4.86,0,0,0,4-.45c1.23-.62,2.37-1.39,3.56-2.06a14.23,14.23,0,0,1,14.94.07c.65.37,1.28.77,1.93,1.15,3.73,2.19,6.06,2,7.78-.75,1.62-2.54.62-4.84-2.86-7.39-2.3-1.7-5.35-2.11-7.29-4.38-.53-1.73.52-2.87,1.57-3.92C172,116,183.19,104.52,194.76,93.42c12.08-1.65,23.34-5.84,34.3-11a18.74,18.74,0,0,1,4-.91c3.49,1.41,5.17,4.48,6.72,7.56,1.71,3.41,3.31,6.9,3.51,10.82a7.3,7.3,0,0,1-2.21,2.94c-10,10-20,20.07-30.06,30-2.77,2.38-6.71,3.45-8.16,7.3a17.6,17.6,0,0,1-3.48,4.39q-35.93,35.91-71.83,71.85C126.72,217.2,125.82,217.87,125,218.64Z"/><path class="cls-2" d="M233,239.75c-5.69,3.36-12.21,3.89-18.48,5-10.81,1.91-21.77,2.16-32.75,1.85-2.28-.07-3-.68-2.87-3a39.56,39.56,0,0,0-.16-8.57c-1.48-9.54-9.11-16-19-16.18-6.84-.14-13.69-.14-20.54-.2-1.06-1.61.21-2.6,1.11-3.52,4.33-4.49,8.72-8.93,13.23-13.24,2.58-2.46,3.3-2.23,5.18,1.1,2.55,4.37,6.95,6.47,11.18,8.4,15.08,6.9,29.15,4.69,42.06-5.51,2.74-2.17,3.18-4.55,1.48-6.77s-4.27-2.35-7-.57c-.95.61-1.76,1.4-2.71,2-11.84,7.63-24.11,7.09-35.68-1-1.13-.79-2.12-1.76-3.29-2.48-3.45-2.23-3.56-2.79-.55-5.83q20.08-20.19,40.27-40.28a36.73,36.73,0,0,0,4.22-4.76,25.38,25.38,0,0,1,5.48-3.84,13.62,13.62,0,0,1,12.55-.76,59.73,59.73,0,0,1,5.55,3.06c2.25,1.24,4.36,1.05,6-1s1-4.19-.59-6.07a12.9,12.9,0,0,0-3.88-2.86,55,55,0,0,1-6.25-3.33c-1.47-1.47-.67-2.76.42-3.89,4.49-4.67,9-9.28,13.75-13.72,1.4-1.32,3-2.44,4.74-.22,2.47,8.67,3,17.64,4.07,26.52.73,5.92,1.25,11.87,1.52,17.84.14,4.4,1.24,8.74.74,13.17.93,11.41,1.52,22.84,1.49,34.28C254.29,221.09,247.25,232.69,233,239.75Z"/><path class="cls-2" d="M145.14,379l-11.82,0a26.94,26.94,0,0,0-.1-13.64,16.42,16.42,0,0,0-15.55-11.79,33.93,33.93,0,0,0-5.24,0c-2.85.39-2.93-1.38-3.09-3.39-.23-2.82,1.87-1.76,3-1.77,15.6-.06,31.21,0,46.82,0,11.71,0,19.7-8,19.77-19.69,0-7.86,0-15.73.05-23.6a4.47,4.47,0,0,1,.34-1c6.25,3.76,12.53,3.22,18.65-.23,1.59-.9,2.61,0,3.76.62,6.82,3.59,13.6,7.26,20.42,10.84,9.85,5.18,18.75,1.21,21.58-9.58A97.88,97.88,0,0,0,246.51,284c2.52-.33,3.42,1.71,4.51,3.26a75.5,75.5,0,0,1,13,34.26c2.1,16.1.79,32-2.31,47.91a6.2,6.2,0,0,1-1.7,3.66c-1.57-.79-.7-2.2-.71-3.27-.1-6.12,0-12.25-.06-18.37,0-4.4-2.09-6.76-5.72-6.77s-5.53,2.3-5.56,6.83c0,6-.24,12,.06,18,.16,3.29-1,3.79-4,3.78-30.6-.11-61.21-.07-91.81-.05C147.61,373.18,146.05,374.5,145.14,379Z"/><path class="cls-2" d="M267.64,100.74c.88-.79.6-1.85.61-2.81,0-9.23.38-18.47-.09-27.67-.72-14.07-7.73-26.56-21.2-30.83a18,18,0,0,1-9.81-7.4C230.89,23.35,222.6,17.2,212,14.61A7.34,7.34,0,0,0,216.6,10l11.06,2.38c-1,3.77.2,6.3,4.06,7.91a88.32,88.32,0,0,1,11.14,5.24,43.19,43.19,0,0,1,14.91,13.87,9.42,9.42,0,0,0,7.31,4.51c12.55,1.51,23.38,13.57,23.42,26.17.08,22.36,0,44.73.13,67.09,0,3.09-1.27,3.25-3.43,2.64a16.6,16.6,0,0,0-6.66-.63c-3,.38-4-1.2-4.26-3.77a228.48,228.48,0,0,0-5.28-30C268.61,103.82,268.1,102.29,267.64,100.74Z"/><path class="cls-2" d="M151.18,337a15.11,15.11,0,0,0,2.33-8.49q-.06-44.93.06-89.85c0-2.84-.91-5.36-1.62-8,2.37,0,4.74-.13,7.11-.12,6,0,8.64,2.61,8.65,8.68q0,35.25,0,70.48c0,6.13,0,12.25,0,18.37,0,5.94-3.12,9-9,9C156.18,337.18,153.68,337.08,151.18,337Z"/><path class="cls-2" d="M260,373.05c1.18-8.09,2.73-16.15,3.43-24.28a116.3,116.3,0,0,0-.49-27.59c-1.88-12.33-5.95-23.86-13.32-34.08a9,9,0,0,0-3.1-3.14c-.39-2.66,0-3.78-.52-7.19a11,11,0,0,0,3.31,1.78,7.91,7.91,0,0,0,5.9.17,6.93,6.93,0,0,0,4-5.73,5,5,0,0,0-.8-3.43c-.92-1.31-1.64-2.07-2.09-2.19a32.89,32.89,0,0,1,4.9,4.22c2,1.85,3.93,3.85,4.91,4.76.76.89,5,4,5,5.4-2.64,2.64-8.22,7.06-6,10.25,9.78,14.07,12.67,30,12.51,46.73a152.21,152.21,0,0,1-3.9,32.15c-.45,2-1.16,2.37-2.89,2.32C267.21,373.08,263.6,373.09,260,373.05Z"/><path class="cls-2" d="M209,146.66c0,1.73-1.44,2.55-2.47,3.58q-21,21-42,42c-1.47,1.47-2.67,2.68.23,3.77a39.14,39.14,0,0,0-7,6.93c-.78-.64-.6-3.31-2.64-1.25q-7.74,7.78-15.45,15.59c-.3.31-.29.92-.43,1.38H125c.11-1.86,1.66-2.72,2.77-3.83q35.45-35.51,70.92-71c1.22-1.22,2.28-2.61,3.41-3.93A12.5,12.5,0,0,0,209,146.66Z"/><path class="cls-2" d="M251.05,157.93c-1.27-14.31-2.4-28.63-5.15-42.77a18.13,18.13,0,0,1-.17-2.23,18.11,18.11,0,0,1-3-12.77c-1.65-7-4.4-13.5-9.68-18.65,8.86-1.1,17.17,4.39,20.92,14,3.36,8.59,5.16,17.62,6.74,26.66,1.32,7.57,2.81,15.14,3.13,22.86a2.52,2.52,0,0,1-.65,3.05,127.52,127.52,0,0,1-9.45,9.44C253,158.18,252.08,158.75,251.05,157.93Z"/><path class="cls-2" d="M233,239.75c4.59-3.91,9.71-7.17,13.34-12.23a34.82,34.82,0,0,0,6.83-20.08c.21-12-.66-24-1.43-36,3.13-3.63,6.65-6.88,10.06-10.22.91-.89,1.9-2.11,3.48-1,.93,7.64,1.45,15.3,1.81,23,.44,9.1.61,18.19.26,27.29a13,13,0,0,1-3.09,4.14c-7.72,7.53-15.05,15.44-23.06,22.68C238.49,238,236.05,239.8,233,239.75Z"/><path class="cls-2" d="M94.89,179.94c-10.63-.1-17.94-7.22-18-17s7.34-17,17.33-17.09c6.83-.07,6.72-.07,6.14,6.71-.67,7.69-1.29,15.39-1.57,23.1C98.72,179,98,180.74,94.89,179.94Z"/><path class="cls-2" d="M209.62,270.43c.52,10.43-4.83,18-16.53,23.24-2,.91-4,2-6.4,1.29-6.87-2.06-7.73-3.12-7.71-10.29,0-5,.09-10,.13-15,1.64-1.53,3.71-1.41,5.62-1.14,6.53.92,13.09.51,19.63.65C206.19,269.23,208.12,269,209.62,270.43Z"/><path class="cls-2" d="M209.9,296c10.71-8.66,12.26-20,10.83-32.24,7.48,1.52,12.5,7.53,13.76,15.77,1.24,8.05,0,15.91-1.7,23.72-.58,2.65-2.08,3.88-4.89,2.36C222.13,302.47,216.32,299.41,209.9,296Z"/><path class="cls-2" d="M194.76,93.42c0,1.74-1.46,2.55-2.48,3.58q-15.06,15.12-30.16,30.21c-1.12,1.12-2.61,2-2.68,3.89a44.74,44.74,0,0,1-14.19-.28c.11-1.7,1.52-2.5,2.54-3.53,10-10,20-20,30-30.1,1.08-1.09,3.62-2.14,1.24-4.37C184.24,93.68,189.51,93.33,194.76,93.42Z"/><path class="cls-2" d="M90,353.59c-8.26,0-8.23,0-7.58-8.31.72-9.19,1.5-18.38,2-27.58.13-2.24.9-2.56,2.86-2.59,8.08-.09,8.25-.17,8.93,7.74.79,9.19,1.18,18.41,1.9,27.6.19,2.38-.26,3.49-2.89,3.18A43.58,43.58,0,0,0,90,353.59Z"/><path class="cls-2" d="M278.65,181.85c-1.23-4.12-.46-8.4-1-12.6-.67-5.42-.81-10.92-1.33-16.37-.18-1.9.52-2.29,2.26-2.34a21.06,21.06,0,0,1,20.53,14.83,5.17,5.17,0,0,1-.78,4.59c-4.05,6.25-9.57,10.57-16.93,12.3C280.47,182.48,279.47,182.73,278.65,181.85Z"/><path class="cls-2" d="M109.21,373.1l-48,.07c-3.82,0-4.88-1.86-3-5.29a5.48,5.48,0,0,1,5.21-3q22.49.09,45,.11C111,367.49,111,370.21,109.21,373.1Z"/><path class="cls-2" d="M209.62,270.43c-10.18,0-20.36.1-30.51-.75,0-3.1,0-6.21-.15-9.32-.09-1.9.45-2.66,2.51-2.48a127.4,127.4,0,0,0,26-.85c2-.23,2.31.53,2.26,2.22C209.66,263,209.66,266.7,209.62,270.43Z"/><path class="cls-2" d="M278.65,181.85a27.11,27.11,0,0,0,19-12.38,8,8,0,0,0,1.52-4.1c4.16,13-4.5,26.46-17.85,27.76-1.9.18-2.67-.27-2.57-2.34C278.85,187.82,278.69,184.83,278.65,181.85Z"/><path class="cls-2" d="M265.32,160.16c-2.86.53-4,3.25-6,4.82-2.61,2-4.13,5.34-7.55,6.44q-.36-6.75-.73-13.49A42,42,0,0,0,263.81,145,73.93,73.93,0,0,1,265.32,160.16Z"/><path class="cls-2" d="M241.24,237.25a5.4,5.4,0,0,1,.77-1.64q12.66-12.62,25.38-25.18c-.9,8.25-5.72,14.08-11.93,18.93A49.9,49.9,0,0,1,241.24,237.25Z"/><path class="cls-2" d="M109.21,373.1a17.9,17.9,0,0,0-.77-8.09c2.84,0,5.68-.09,8.52-.07a5.38,5.38,0,0,1,5.23,3.44c1.52,3.41.7,4.78-3,4.79C115.89,373.18,112.55,373.13,109.21,373.1Z"/><path class="cls-2" d="M282.39,250.39c-.53,3.61-3.93,4.22-6.36,5.68-2,1.2-4,3.53-6.76,1.77-2-1.28-2.69-3.38-1-5.06a23,23,0,0,1,9.93-5.69C280.6,246.45,281.92,248,282.39,250.39Z"/><path class="cls-1" d="M90.14,251.43a21.11,21.11,0,0,1,21.19,20.7c.19,11.39-9.54,21.31-21,21.44A21.57,21.57,0,0,1,68.92,272.5,21.15,21.15,0,0,1,90.14,251.43Z"/><path class="cls-3" d="M209,146.66c-5.12-.44-6.48-1.77-6.91-6.75,1.22-4.28,5.36-5.32,8.41-7.55,5.45-3.81,11.15-4.82,17.24-1.56,4,1.41,7.89,3.12,11,6.09a5.09,5.09,0,0,1,.54,7.39c-1.78,2.27-4.53,3.43-6.91,1.54C224.22,139.37,216.59,140.73,209,146.66Z"/><path class="cls-4" d="M145.25,130.82a29.25,29.25,0,0,1,14.19.28,38.88,38.88,0,0,1,8.74,4.67c3.2,2.41,3.92,5.6,1.9,8.36s-5,3.34-8.16,1c-6.71-4.9-13.15-4.91-19.85,0-3.2,2.35-6.56,1.62-8.42-1.27-1.76-2.74-1-5.72,2.08-8.07A40.89,40.89,0,0,1,145.25,130.82Z"/><path class="cls-2" d="M227.75,130.8a27.51,27.51,0,0,0-17.24,1.56q15.7-16.49,32.19-32.2l3,12.77a3.56,3.56,0,0,0-3,1.14q-7.22,7.28-14.49,14.48C227.54,129.24,227.14,129.89,227.75,130.8Z"/><path class="cls-5" d="M157.81,161.48a47,47,0,0,1-.34,5.1,5.25,5.25,0,0,1-5.37,4.72,5.16,5.16,0,0,1-5.55-4.5,33,33,0,0,1-.07-10.73,5.21,5.21,0,0,1,5.38-4.73,5.29,5.29,0,0,1,5.63,4.86A49.76,49.76,0,0,1,157.81,161.48Z"/><path class="cls-6" d="M157.78,202.93c0-5.35,1.51-6.81,7-6.93a12.65,12.65,0,0,1,3.7,2.48c11.08,8.68,25.55,8.66,36.51-.21,2.33-1.88,4.67-3,7.51-1.8,4.15,1.8,4.28,6.77.38,10.12a40,40,0,0,1-49.75,2C161,207.08,158,206.33,157.78,202.93Z"/><path class="cls-7" d="M215.73,161.31c0-1.49-.08-3,0-4.47a5.66,5.66,0,0,1,5.4-5.56,5.73,5.73,0,0,1,5.79,5.22,74.15,74.15,0,0,1,0,9.31,5.73,5.73,0,0,1-5.85,5.55c-3.06-.12-5.24-2.5-5.38-6-.05-1.37,0-2.74,0-4.1Z"/><path class="cls-8" d="M194,323.17c0,4.46-2.14,7.22-5.67,7.19s-5.57-2.71-5.58-6.9,2-6.89,5.48-7S194,319,194,323.17Z"/><path class="cls-9" d="M194,351.75c0,4.12-2.05,6.49-5.55,6.52-3.73,0-5.77-2.51-5.71-7.13,0-4.1,2.07-6.47,5.56-6.5C192.09,344.61,194.06,347.07,194,351.75Z"/><path class="cls-10" d="M90.23,262.78a9.42,9.42,0,0,1,9.58,9.71,9.67,9.67,0,1,1-19.33-.17A9.45,9.45,0,0,1,90.23,262.78Z"/></g></g></svg>