<svg xmlns="http://www.w3.org/2000/svg" width="141.018" height="120.393" viewBox="0 0 141.018 120.393">
  <g id="upload" transform="translate(-260 -468)">
    <path id="Path_158" data-name="Path 158" d="M105.556,39.242a35.41,35.41,0,0,0-6.074.526A39.852,39.852,0,0,0,28.616,48.1a31.082,31.082,0,0,0,2.465,62.067h18.8v27.148a4.8,4.8,0,0,0,4.8,4.8H86.337a4.8,4.8,0,0,0,4.8-4.8V110.167h14.421a35.463,35.463,0,0,0,0-70.925Z" transform="translate(260 446.281)" fill="#fff"/>
    <g id="upload-2" data-name="upload" transform="translate(260 446.281)">
      <g id="Group_32" data-name="Group 32" transform="translate(0 21.719)">
        <path id="Path_158-2" data-name="Path 158" d="M105.556,39.242a35.41,35.41,0,0,0-6.074.526A39.852,39.852,0,0,0,28.616,48.1a31.082,31.082,0,0,0,2.465,62.067h18.8v27.148a4.8,4.8,0,0,0,4.8,4.8H86.337a4.8,4.8,0,0,0,4.8-4.8V110.167h14.421a35.463,35.463,0,0,0,0-70.925ZM86.338,85.033a4.8,4.8,0,0,0-4.8,4.8v42.689H59.477V89.83a4.8,4.8,0,0,0-4.8-4.8H50.432L70.51,64.956,90.587,85.033Zm19.217,15.541H91.134V94.626h11.032a4.8,4.8,0,0,0,3.392-8.189L73.9,54.781a4.8,4.8,0,0,0-6.784,0L35.461,86.438a4.8,4.8,0,0,0,3.392,8.189H49.885v5.948h-18.8a21.489,21.489,0,0,1,0-42.977c.3,0,.6.011.9.023a4.78,4.78,0,0,0,4.843-3.6,30.256,30.256,0,0,1,56.065-6.559,4.8,4.8,0,0,0,5.556,2.373,25.869,25.869,0,1,1,7.108,50.741Z" transform="translate(0 -21.719)"/>
      </g>
    </g>
  </g>
</svg>
