<svg id="Layer_1" enable-background="new 0 0 512 512" height="512" viewBox="0 0 512 512" width="512" xmlns="http://www.w3.org/2000/svg"><g><g><path d="m328.87 337.5h-145.74c-35.133 0-63.613-28.481-63.613-63.613v-129.904c0-75.378 61.106-136.483 136.483-136.483s136.483 61.105 136.483 136.483v129.904c0 35.132-28.481 63.613-63.613 63.613z" fill="#685e68"/><path d="m256 7.5c-5.07 0-10.073.285-15 .824 68.319 7.47 121.483 65.351 121.483 135.658v129.904c0 35.133-28.481 63.613-63.613 63.613h30c35.133 0 63.613-28.48 63.613-63.613v-129.903c0-75.378-61.105-136.483-136.483-136.483z" fill="#554e56"/><path d="m370.212 192.118h-7.885v-44.542h7.885c12.3 0 22.271 9.971 22.271 22.271s-9.971 22.271-22.271 22.271z" fill="#ffcebf"/><path d="m141.788 192.118h7.885v-44.542h-7.885c-12.3 0-22.271 9.971-22.271 22.271s9.971 22.271 22.271 22.271z" fill="#ffb09e"/><g><path d="m456.818 502v-78.725c0-35.215-23.027-66.289-56.718-76.537l-85.421-25.984c-8.423-2.562-14.18-10.331-14.18-19.134v-32.12h-89v32.119c0 8.804-5.757 16.572-14.18 19.134l-85.419 25.985c-33.691 10.248-56.718 41.322-56.718 76.537v78.725c0 5.523 4.477 10 10 10h381.637c5.522 0 9.999-4.477 9.999-10z" fill="#ffcebf"/></g><g><path d="m400.1 346.738-85.421-25.984c-8.423-2.562-14.18-10.331-14.18-19.134v-32.12l-30 15v32.119c0 8.804 5.757 16.572 14.18 19.134l85.421 25.984c33.691 10.249 56.718 41.322 56.718 76.537v73.726h20c5.523 0 10-4.477 10-10v-78.725c0-35.215-23.027-66.288-56.718-76.537z" fill="#ffb09e"/></g><g><g><path d="m362.327 147.577v42.85c0 58.848-47.807 106.529-106.702 106.326-58.764-.203-105.951-48.715-105.951-107.48v-41.696c17.023-1.298 42.028-5.386 69.185-18.336 13.597-6.485 24.843-13.811 33.832-20.656 1.999-1.522 4.714-1.654 6.838-.314 11.565 7.293 25.606 14.97 42.097 21.815 22.911 9.509 43.857 14.635 60.701 17.491z" fill="#ffcebf"/></g><path d="m332.327 190.427c0 20.302-6.841 48.84-26.29 69.994-32.335 35.17-87.255 27.577-94.537 26.462 8.432 3.885 20.99 8.414 36.768 9.587 0 0 3.841.271 7.356.284 58.895.203 106.702-47.479 106.702-106.326 0-18.902 0-23.948 0-42.851-8.9-1.509-18.945-3.652-29.821-6.74-1.312 18.728-.178 30.633-.178 49.59z" fill="#ffb09e"/></g><circle cx="256" cy="405" fill="#f58a97" r="17.5"/><path d="m256 387.5c-3.191 0-6.174.868-8.75 2.36 5.226 3.027 8.75 8.666 8.75 15.14s-3.524 12.113-8.75 15.14c2.576 1.492 5.559 2.36 8.75 2.36 9.665 0 17.5-7.835 17.5-17.5s-7.835-17.5-17.5-17.5z" fill="#f07281"/><path d="m385.997 512v-12.265c0-17.3-6.369-33.384-16.865-45.865-1.69-2.01-2.652-4.53-2.652-7.155v-110.204l-30-9.126v100.5c0 1.973-1.865 3.383-3.777 2.895-5.362-1.367-10.961-2.097-16.719-2.096-22.044.005-41.703 10.202-54.529 26.133-2.798 3.475-8.113 3.475-10.911 0-12.826-15.931-32.485-26.129-54.529-26.133-5.758-.001-11.357.729-16.719 2.096-1.912.487-3.777-.922-3.777-2.895v-100.5l-30 9.126v110.203c0 2.626-.962 5.146-2.652 7.155-10.495 12.481-16.864 28.565-16.864 45.865v12.266z" fill="#f58a97"/><g><path d="m369.133 453.869c-1.69-2.01-2.652-4.53-2.652-7.156v-110.202l-30-9.126v5.937l10.483 3.189v110.203c0 2.626.962 5.146 2.652 7.156 10.495 12.481 16.865 28.565 16.865 45.865v12.265h19.517v-12.265c-.001-17.3-6.37-33.385-16.865-45.866z" fill="#f07281"/></g><path d="m336.48 351.511 30 9.126v-24.126l-15.6-4.745-14.4-4.381z" fill="#f07281"/></g><path d="m145.52 413.25c-4.142 0-7.5 3.358-7.5 7.5v25.964c0 .817-.317 1.644-.893 2.329-12.01 14.282-18.624 32.285-18.624 50.692v4.765c0 4.142 3.358 7.5 7.5 7.5s7.5-3.358 7.5-7.5v-4.765c0-14.881 5.364-29.456 15.104-41.038 2.846-3.383 4.413-7.639 4.413-11.983v-25.964c0-4.142-3.358-7.5-7.5-7.5zm301.599-42.069c-11.251-15.182-26.755-26.115-44.836-31.616l-30.185-9.184c17.338-13.244 27.881-33.949 27.881-56.491v-103.927c0-.039.003-.077.003-.115s-.003-.077-.003-.115v-25.753c0-25.646-6.833-50.831-19.76-72.834-2.099-3.571-6.695-4.765-10.266-2.667-3.571 2.099-4.766 6.694-2.667 10.266 11.575 19.702 17.693 42.26 17.693 65.236v.034c-4.356-2.5-9.396-3.938-14.768-3.938h-7.207c-20.066-3.447-39.747-9.133-58.505-16.918-14.18-5.885-27.964-13.028-40.971-21.231-4.736-2.987-10.918-2.709-15.383.691-10.137 7.718-21.077 14.398-32.517 19.853-20.721 9.882-43.018 15.803-66.275 17.605h-7.566c-5.372 0-10.412 1.438-14.768 3.938v-.034c.001-71.121 57.861-128.981 128.981-128.981 34.451 0 66.842 13.418 91.207 37.783 2.928 2.929 7.677 2.929 10.606 0s2.929-7.678 0-10.606c-27.197-27.198-63.355-42.177-101.813-42.177-79.391 0-143.98 64.589-143.98 143.98v25.752c0 .039-.003.077-.003.115s.003.077.003.115v103.928c0 22.542 10.543 43.247 27.881 56.491l-30.185 9.184c-18.081 5.501-33.584 16.434-44.836 31.616-11.252 15.183-17.2 33.199-17.2 52.099v81.22c0 4.142 3.358 7.5 7.5 7.5s7.5-3.358 7.5-7.5v-81.22c0-32.135 20.657-60.01 51.403-69.364l23.937-7.283v39.117c0 4.142 3.358 7.5 7.5 7.5s7.5-3.358 7.5-7.5v-43.681c2.931-1.486 11.802-3.329 15-4.564v90.381c0 3.26 1.476 6.276 4.048 8.276 2.588 2.011 5.896 2.697 9.082 1.887 4.851-1.236 9.846-1.863 14.85-1.863h.015c19.005.004 36.752 8.509 48.689 23.336 2.764 3.434 6.882 5.403 11.297 5.403s8.533-1.969 11.297-5.403c11.937-14.827 29.684-23.332 48.689-23.336h.015c5.002 0 9.999.627 14.85 1.863 3.182.811 6.493.124 9.081-1.887 2.572-2 4.048-5.016 4.048-8.276v-90.381c1.409-.183 13.011 4.275 15 4.564v104.645c0 4.345 1.567 8.6 4.412 11.983 9.74 11.583 15.104 26.157 15.104 41.038v4.765c0 4.142 3.358 7.5 7.5 7.5s7.5-3.358 7.5-7.5v-4.765c0-18.408-6.614-36.411-18.625-50.693-.575-.684-.892-1.511-.892-2.328v-100.081l23.937 7.283c30.746 9.354 51.403 37.229 51.403 69.364v81.22c0 4.142 3.358 7.5 7.5 7.5s7.5-3.358 7.5-7.5v-81.22c0-18.9-5.948-36.916-17.201-52.099zm-77.292-216.105c8.23-.253 15.134 6.486 15.153 14.713v.116c-.037 8.233-6.891 14.943-15.153 14.713zm-212.654-.665c22.703-2.493 44.509-8.671 64.914-18.401 12.059-5.751 23.604-12.759 34.329-20.838 13.459 8.419 27.698 15.765 42.335 21.84 18.027 7.483 36.863 13.134 56.076 16.829v36.586c0 26.462-10.323 51.323-29.067 70.002-18.787 18.722-43.048 28.825-69.758 28.825-.116 0-.235 0-.351 0-54.3-.188-98.477-45.039-98.477-99.98v-34.863zm98.827 202.089c-22.429 0-43.161-10.816-56.032-28.737 11.4-3.686 19.032-14.121 19.032-26.143v-3.616c11.487 4.007 23.798 6.205 36.599 6.25h.404c12.785 0 25.246-2.101 36.997-6.127v3.494c0 12.023 7.632 22.458 19.032 26.143-12.871 17.92-33.603 28.736-56.032 28.736zm10 48.5c0 5.514-4.486 10-10 10s-10-4.486-10-10 4.486-10 10-10 10 4.486 10 10zm-138.98-235.211c.023-8.24 6.901-14.938 15.153-14.713v29.542c-8.263.223-15.116-6.464-15.153-14.713zm31.997 154.776c-19.521-9.285-31.997-28.893-31.997-50.675v-78.209c4.356 2.5 9.396 3.938 14.768 3.938h.852c3.561 40.029 27.564 74.268 61.359 91.899v10.103c0 5.539-3.562 10.343-8.863 11.955zm169.963 97.75c-4.283-.751-8.628-1.13-12.978-1.13h-.019c-23.364.005-45.19 10.367-59.983 28.453-14.793-18.086-36.62-28.448-59.983-28.453h-.019c-4.35 0-8.696.379-12.979 1.13v-89.374l1.958-.596c14.009 22.187 37.467 36.491 63.522 38.811v9.995c-10.131 3.193-17.499 12.676-17.499 23.849 0 13.785 11.215 25 25 25s25-11.215 25-25c0-11.173-7.368-20.656-17.5-23.849v-9.995c26.055-2.32 49.513-16.624 63.522-38.811l1.958.596zm24.003-97.75-36.121-10.99c-5.3-1.611-8.862-6.416-8.862-11.954v-9.883c10.326-5.315 19.884-12.248 28.348-20.683 19.404-19.337 30.967-44.427 33.11-71.436 5.487.102 11.027-1.328 15.523-3.938v78.209c-.001 21.782-12.477 41.39-31.998 50.675zm-145.48-131.213c4.142 0 7.5-3.358 7.5-7.5v-17.157c0-4.142-3.358-7.5-7.5-7.5s-7.5 3.358-7.5 7.5v17.157c0 4.142 3.358 7.5 7.5 7.5zm29.169 51.334c3.319 2.352 10.14 6.184 19.334 6.184 8.028 0 15.544-3.501 19.329-6.189 3.377-2.399 4.17-7.081 1.771-10.458-2.398-3.377-7.081-4.169-10.458-1.771-1.688 1.199-5.23 3.236-9.989 3.406-5.368.194-9.401-2.055-11.316-3.412-3.379-2.394-8.061-1.597-10.456 1.784-2.393 3.379-1.595 8.061 1.785 10.456zm67.825-51.334c4.142 0 7.5-3.358 7.5-7.5v-17.157c0-4.142-3.358-7.5-7.5-7.5s-7.5 3.358-7.5 7.5v17.157c0 4.142 3.357 7.5 7.5 7.5z"/></g></svg>