<svg id="Capa_1" enable-background="new 0 0 512 512" height="512" viewBox="0 0 512 512" width="512" xmlns="http://www.w3.org/2000/svg"><g><g><path d="m404.8 295.019c35.446 0 64.18-28.734 64.18-64.18 0-18.98-8.245-36.03-21.342-47.78 5.645-9.554 8.896-20.691 8.896-32.591 0-28.665-18.796-52.933-44.732-61.172-2.777-32.884-30.329-58.713-63.932-58.713-12.945 0-24.986 3.846-35.069 10.439-11.058-19.983-32.345-33.518-56.801-33.518s-45.743 13.535-56.801 33.518c-10.082-6.593-22.123-10.439-35.069-10.439-33.602 0-61.155 25.829-63.932 58.713-25.936 8.239-44.732 32.507-44.732 61.172 0 11.901 3.251 23.037 8.896 32.591-13.097 11.75-21.342 28.8-21.342 47.78 0 35.446 28.734 64.18 64.18 64.18" fill="#efecef"/><path d="m307.45 32.87c-1.99 2.57-3.78 5.29-5.36 8.15-10.08-6.59-22.12-10.44-35.07-10.44-33.6 0-61.15 25.83-63.929 58.71-25.93 8.24-44.73 32.51-44.73 61.17 0 11.91 3.25 23.04 8.9 32.6-13.1 11.75-21.35 28.8-21.35 47.78 0 35.44 28.74 64.18 64.18 64.18h-102.89c-35.45 0-64.179-28.74-64.179-64.18 0-18.98 8.24-36.03 21.34-47.78-5.64-9.56-8.89-20.69-8.89-32.6 0-28.66 18.79-52.93 44.73-61.17 2.78-32.88 30.33-58.71 63.93-58.71 12.95 0 24.99 3.85 35.07 10.44 11.059-19.98 32.349-33.52 56.798-33.52 20.96 0 39.59 9.95 51.45 25.37z" fill="#dddaec"/><path d="m258.089 384.221h-4.158c-59.458 0-107.659 48.2-107.659 107.659v12.62h219.476v-12.62c0-59.458-48.201-107.659-107.659-107.659z" fill="#dd636e"/><path d="m282.441 386.991c-47.73 11.04-83.299 53.81-83.299 104.889v12.62h-52.87v-12.62c0-59.46 48.2-107.659 107.659-107.659h4.15c8.38 0 16.54.96 24.36 2.77z" fill="#da4a54"/><path d="m310.063 411.047-32.802-32.802-21.256 21.255-21.256-21.255-32.802 32.802c-9.545 9.545-9.545 25.021 0 34.566 9.545 9.545 25.021 9.545 34.566 0l19.492-19.492 19.492 19.492c9.545 9.545 25.021 9.545 34.566 0s9.545-25.021 0-34.566z" fill="#efecef"/><path d="m385.494 254.532h5.19c17.64 0 31.93 14.29 31.93 31.92 0 8.81-3.57 16.8-9.35 22.58-5.78 5.77-13.76 9.35-22.58 9.35h-7.01-255.328-7.01c-17.64 0-31.93-14.3-31.93-31.93 0-8.81 3.57-16.79 9.35-22.57s13.76-9.35 22.58-9.35h5.19" fill="#eaac9d"/><path d="m126.526 203.402v93.24c0 35.759 14.49 68.119 37.93 91.559 23.43 23.43 55.8 37.92 91.559 37.92 71.509 0 129.479-57.97 129.479-129.479v-93.24c0-71.509-57.97-129.479-129.479-129.479-18.96 0-36.97 4.07-53.2 11.4-13.56 6.12-25.89 14.5-36.48 24.68-24.539 23.56-39.809 56.699-39.809 93.399z" fill="#ffddce"/><path d="m288.18 422.093c-10.29 2.63-21.07 4.03-32.18 4.03-71.509 0-129.479-57.97-129.479-129.479v-93.241c0-71.509 57.97-129.479 129.479-129.479 11.11 0 21.89 1.4 32.18 4.03-55.95 14.3-97.309 65.04-97.309 125.449v93.241c0 60.409 41.359 111.149 97.309 125.449z" fill="#ffcbbe"/><g fill="#efecef"><path d="m341.004 267.271c0 8.56-3.07 16.4-8.16 22.49h-53.87c-5.09-6.09-8.16-13.93-8.16-22.49 0-19.38 15.71-35.09 35.1-35.09 19.381 0 35.09 15.71 35.09 35.09z"/><path d="m241.205 267.271c0 8.56-3.07 16.4-8.16 22.49h-53.86c-5.1-6.09-8.16-13.93-8.16-22.49 0-19.38 15.71-35.09 35.09-35.09 6.72 0 13 1.89 18.33 5.17 10.06 6.17 16.76 17.26 16.76 29.92z"/></g><path d="m180.827 356.682h38.521c20.599 0 37.298-16.699 37.298-37.298v-7.644h-38.521c-20.599 0-37.298 16.699-37.298 37.298z" fill="#efecef"/><path d="m244.286 311.742c-20.6 0-37.3 16.7-37.3 37.3v7.64h-26.16v-7.64c0-20.6 16.7-37.3 37.29-37.3z" fill="#dddaec"/><path d="m332.465 356.682h-38.521c-20.599 0-37.298-16.699-37.298-37.298v-7.644h38.521c20.599 0 37.298 16.699 37.298 37.298z" fill="#efecef"/><path d="m318.335 356.684h-24.39c-20.6 0-37.3-16.7-37.3-37.3v-7.64h24.39v7.64c.001 20.6 16.7 37.3 37.3 37.3z" fill="#dddaec"/></g><g><path d="m476.48 230.84c0-18.331-7.071-35.956-19.575-49.21 4.675-9.687 7.125-20.347 7.125-31.159 0-29.733-18.026-55.943-45.336-66.679-2.452-15.963-10.227-30.621-22.208-41.693-13.27-12.265-30.536-19.019-48.616-19.019-11.392 0-22.51 2.687-32.558 7.822-13.465-19.231-35.558-30.902-59.312-30.902s-45.847 11.671-59.313 30.902c-10.047-5.135-21.166-7.822-32.558-7.822-18.08 0-35.346 6.754-48.616 19.018-11.982 11.074-19.758 25.734-22.208 41.7-10.317 4.078-19.599 10.537-27.062 18.868-2.764 3.085-2.503 7.827.583 10.59 3.085 2.764 7.827 2.504 10.59-.583 6.775-7.563 15.438-13.174 25.053-16.226 2.895-.918 4.95-3.493 5.205-6.519 1.188-14.099 7.587-27.173 18.02-36.815 10.491-9.695 24.141-15.034 38.436-15.034 11.035 0 21.743 3.188 30.966 9.217 1.745 1.142 3.886 1.504 5.91 1.002 2.023-.502 3.747-1.823 4.756-3.647 10.124-18.289 29.374-29.651 50.238-29.651s40.114 11.362 50.238 29.652c1.01 1.824 2.733 3.145 4.756 3.647 2.023.501 4.164.139 5.91-1.002 9.224-6.03 19.932-9.217 30.966-9.217 14.295 0 27.945 5.339 38.436 15.034 10.433 9.642 16.833 22.716 18.02 36.815.255 3.027 2.311 5.601 5.206 6.52 23.625 7.495 39.498 29.205 39.498 54.021 0 10.123-2.714 20.074-7.85 28.779-1.814 3.076-1.208 7.006 1.45 9.392 11.979 10.753 18.85 26.134 18.85 42.199 0 21.818-12.61 41.468-31.662 50.864-2.263-18.754-17.741-33.493-36.827-34.599v-43.705c0-75.531-61.449-136.98-136.98-136.98-75.537 0-136.99 61.449-136.99 136.98v43.705c-9.664.556-18.67 4.576-25.567 11.473-6.317 6.317-10.215 14.401-11.255 23.136-19.062-9.398-31.678-29.051-31.678-50.874 0-16.064 6.871-31.445 18.85-42.199 2.658-2.386 3.265-6.315 1.45-9.392-5.135-8.705-7.85-18.657-7.85-28.779 0-5.117.687-10.212 2.042-15.144 1.098-3.994-1.251-8.122-5.245-9.219-3.996-1.098-8.122 1.251-9.219 5.245-1.71 6.226-2.578 12.657-2.578 19.117 0 10.812 2.45 21.473 7.125 31.159-12.504 13.255-19.575 30.879-19.575 49.21 0 30.633 19.661 57.889 48.314 67.771 5.138 15.808 20.003 27.27 37.502 27.27h.837c7.276 33.326 26.717 62.154 53.422 81.582-23.516 21.762-36.819 52-36.819 84.417v12.62c0 4.142 3.358 7.5 7.5 7.5h219.468c4.142 0 7.5-3.358 7.5-7.5v-12.62c0-32.392-13.282-62.604-36.763-84.357 5.766-4.203 11.25-8.877 16.392-14.02 5.662-5.661 10.851-11.847 15.423-18.385 2.374-3.395 1.547-8.071-1.848-10.444-3.393-2.374-8.07-1.546-10.444 1.848-4.072 5.822-8.694 11.332-13.737 16.375-23.037 23.037-53.67 35.723-86.257 35.723-67.266 0-121.99-54.72-121.99-121.98v-93.238c0-67.26 54.724-121.98 121.99-121.98 67.26 0 121.98 54.72 121.98 121.98v93.24c0 15.606-2.899 30.784-8.616 45.11-1.535 3.847.339 8.21 4.186 9.746 3.846 1.533 8.21-.339 9.746-4.186 2.785-6.978 4.972-14.134 6.56-21.428h.818c10.522 0 20.423-4.099 27.883-11.546 4.487-4.487 7.749-9.87 9.641-15.742 28.628-9.89 48.271-37.135 48.271-67.754zm-322.704 261.04c0-29.489 12.664-56.903 34.908-75.982.303.172.607.341.911.51-4.661 11.602-2.174 25.285 7.053 34.512 6.043 6.03 14.062 9.351 22.578 9.351 8.536 0 16.56-3.323 22.593-9.357l6.687-6.687v52.773h-94.729v-5.12zm150.985-51.573c-3.202 3.202-7.458 4.965-11.981 4.965s-8.779-1.763-11.981-4.965l-7.732-7.732c12.411-1.531 24.436-4.733 35.813-9.49 1.918 5.904.492 12.611-4.119 17.222zm-101.604-17.297c11.255 4.724 23.267 7.987 35.802 9.55l-7.747 7.747c-3.201 3.201-7.458 4.963-11.987 4.963-4.516 0-8.771-1.765-11.977-4.963-4.63-4.63-6.047-11.374-4.091-17.297zm155.087 68.87v5.12h-94.739v-52.773l6.687 6.687c6.035 6.035 14.057 9.359 22.588 9.359s16.553-3.324 22.588-9.359c9.2-9.199 11.695-22.835 7.081-34.419.319-.178.642-.349.96-.529 22.199 19.071 34.835 46.456 34.835 75.914zm-261.338-205.428c0-6.522 2.541-12.654 7.154-17.267 4.062-4.063 9.307-6.516 14.96-7.043v34.499c0 4.789.249 9.521.731 14.184-12.734-.821-22.845-11.435-22.845-24.373zm311.059 17.272c-4.249 4.242-9.777 6.726-15.705 7.102.481-4.688.731-9.418.731-14.185v-34.496c12.393 1.166 22.124 11.62 22.124 24.308-.001 6.527-2.542 12.662-7.15 17.271z"/><path d="m291.119 199.16c-4.106-.09-7.583 3.165-7.689 7.306s3.165 7.583 7.306 7.689l38.956.998c.065.001.13.002.195.002 4.053 0 7.39-3.233 7.494-7.308.106-4.141-3.165-7.583-7.306-7.689z"/><path d="m181.946 200.158c-4.141.106-7.412 3.549-7.306 7.689.104 4.076 3.44 7.308 7.494 7.308.064 0 .13-.001.195-.002l38.956-.998c4.141-.106 7.412-3.549 7.306-7.689-.106-4.141-3.574-7.409-7.689-7.306z"/><path d="m211.041 280.619c7.358 0 13.344-5.986 13.344-13.343 0-7.358-5.986-13.344-13.344-13.344-7.357 0-13.343 5.986-13.343 13.344-.001 7.357 5.985 13.343 13.343 13.343z"/><path d="m300.84 253.932c-7.357 0-13.343 5.986-13.343 13.344 0 7.357 5.986 13.343 13.343 13.343 7.358 0 13.344-5.986 13.344-13.343 0-7.359-5.986-13.344-13.344-13.344z"/><path d="m305.915 224.681c-23.489 0-42.6 19.106-42.6 42.59 0 9.962 3.518 19.658 9.906 27.3 1.425 1.705 3.532 2.69 5.754 2.69h53.87c2.222 0 4.33-.985 5.755-2.69 6.387-7.642 9.905-17.337 9.905-27.299-.001-23.485-19.107-42.591-42.59-42.591zm23.158 57.58h-46.327c-2.875-4.443-4.432-9.657-4.432-14.99 0-15.213 12.381-27.59 27.6-27.59 15.213 0 27.59 12.377 27.59 27.59 0 5.333-1.556 10.547-4.431 14.99z"/><path d="m173.421 294.571c1.425 1.705 3.532 2.69 5.754 2.69h53.87c2.222 0 4.33-.985 5.755-2.69 6.387-7.642 9.905-17.337 9.905-27.299 0-23.484-19.106-42.59-42.59-42.59-23.489 0-42.6 19.106-42.6 42.59.001 9.961 3.519 19.657 9.906 27.299zm32.694-54.89c15.213 0 27.59 12.377 27.59 27.59 0 5.333-1.556 10.547-4.431 14.99h-46.327c-2.875-4.443-4.432-9.657-4.432-14.99.001-15.213 12.382-27.59 27.6-27.59z"/><path d="m165.945 164.077c0 4.142 3.358 7.5 7.5 7.5 21.584 0 38.795-5.282 55.979-11.167 17.142-5.87 36.021-5.87 53.161 0 17.184 5.884 34.395 11.167 55.979 11.167 4.142 0 7.5-3.358 7.5-7.5s-3.358-7.5-7.5-7.5c-19.278 0-35.181-4.899-51.119-10.357-20.275-6.944-42.607-6.944-62.881 0-15.939 5.458-31.842 10.358-51.12 10.358-4.141-.001-7.499 3.357-7.499 7.499z"/><path d="m197.637 136.084c.479 0 .967-.046 1.455-.142 11.193-2.201 21.124-5.467 30.335-8.625 17.139-5.877 36.016-5.877 53.155 0 9.212 3.158 19.143 6.424 30.335 8.625 4.064.798 8.006-1.848 8.806-5.913.799-4.064-1.849-8.006-5.913-8.806-10.266-2.018-19.642-5.105-28.364-8.095-20.276-6.953-42.609-6.952-62.884 0-8.722 2.989-18.097 6.077-28.365 8.095-4.064.799-6.711 4.742-5.913 8.806.705 3.576 3.841 6.055 7.353 6.055z"/><path d="m180.827 364.182h38.521c15.545 0 29.261-7.962 37.297-20.02 8.036 12.057 21.753 20.02 37.298 20.02h38.521c4.142 0 7.5-3.358 7.5-7.5v-7.645c0-24.701-20.096-44.797-44.797-44.797h-77.042c-24.701 0-44.797 20.096-44.797 44.797v7.645c-.001 4.142 3.357 7.5 7.499 7.5zm114.34-44.942c16.43 0 29.797 13.367 29.797 29.797v.145h-31.021c-16.431 0-29.798-13.367-29.798-29.798v-.144h3.503zm-106.84 29.798c0-16.43 13.367-29.797 29.797-29.797h26.247 4.774v.144c0 16.431-13.367 29.798-29.797 29.798h-31.021z"/><path d="m358.213 263.423h8.641c4.142 0 7.5-3.358 7.5-7.5s-3.358-7.5-7.5-7.5h-8.641c-4.142 0-7.5 3.358-7.5 7.5s3.358 7.5 7.5 7.5z"/><path d="m358.213 283.375h8.641c4.142 0 7.5-3.358 7.5-7.5s-3.358-7.5-7.5-7.5h-8.641c-4.142 0-7.5 3.358-7.5 7.5s3.358 7.5 7.5 7.5z"/><path d="m153.807 248.423h-8.641c-4.142 0-7.5 3.358-7.5 7.5s3.358 7.5 7.5 7.5h8.641c4.142 0 7.5-3.358 7.5-7.5s-3.358-7.5-7.5-7.5z"/><path d="m153.807 268.375h-8.641c-4.142 0-7.5 3.358-7.5 7.5s3.358 7.5 7.5 7.5h8.641c4.142 0 7.5-3.358 7.5-7.5s-3.358-7.5-7.5-7.5z"/></g></g></svg>