<svg id="Capa_1" enable-background="new 0 0 512 512" height="512" viewBox="0 0 512 512" width="512" xmlns="http://www.w3.org/2000/svg"><g><g><path d="m444.002 221.805h-24.005c18.733 0 33.919-15.186 33.919-33.919 0-18.733-15.186-33.919-33.919-33.919h-9.861v-13.717c0-73.31-59.44-132.75-132.75-132.75h-42.76c-73.32 0-132.76 59.44-132.76 132.75v13.716h-9.862c-18.733 0-33.919 15.186-33.919 33.919 0 18.733 15.186 33.919 33.919 33.919h-24.006c-18.733 0-33.919 15.186-33.919 33.919 0 18.733 15.186 33.919 33.919 33.919h29.149c-18.733 0-33.919 15.186-33.919 33.919 0 18.733 15.186 33.919 33.919 33.919h317.705c18.733 0 33.919-15.186 33.919-33.919 0-18.733-15.186-33.919-33.919-33.919h29.149c18.733 0 33.919-15.186 33.919-33.919.001-18.732-15.185-33.918-33.918-33.918z" fill="#efecef"/><path d="m255.949 384.22h-4.158c-59.459 0-107.66 48.201-107.66 107.66v12.62h219.477v-12.62c.001-59.459-48.2-107.66-107.659-107.66z" fill="#dd636e"/><path d="m280.301 386.99c-47.73 11.04-83.3 53.81-83.3 104.89v12.62h-52.87v-12.62c0-59.46 48.2-107.66 107.66-107.66h4.15c8.38 0 16.541.96 24.36 2.77z" fill="#da4a54"/><path d="m253.87 461.037c-21.121 0-38.242-17.122-38.242-38.242v-38.242h76.484v38.242c0 21.121-17.121 38.242-38.242 38.242z" fill="#eaac9d"/><path d="m383.355 254.53h5.19c17.64 0 31.93 14.29 31.93 31.92 0 8.81-3.57 16.8-9.35 22.58-5.78 5.77-13.76 9.35-22.58 9.35h-7.01-255.33-7.01c-17.64 0-31.93-14.3-31.93-31.93 0-8.81 3.57-16.79 9.35-22.57s13.76-9.35 22.58-9.35h5.19" fill="#eaac9d"/><path d="m383.345 223.4v73.24c0 35.76-14.49 68.12-37.92 91.56-23.44 23.43-55.8 37.92-91.56 37.92-71.51 0-129.49-57.97-129.49-129.48v-73.24c0-6.81.53-13.5 1.54-20.03.58.01 1.16.02 1.75.02 30.75 0 56.97-19.36 67.13-46.56 12.91 18.78 34.55 31.09 59.07 31.09s46.16-12.31 59.07-31.09c10.16 27.2 36.38 46.56 67.13 46.56.58 0 1.16-.01 1.74-.02 1.01 6.53 1.54 13.22 1.54 20.03z" fill="#ffddce"/><path d="m284.585 422.46c-9.85 2.39-20.14 3.66-30.72 3.66-71.51 0-129.49-57.97-129.49-129.48v-73.24c0-6.81.53-13.5 1.54-20.03.58.01 1.16.02 1.75.02 23.91 0 45.09-11.71 58.1-29.71v122.96c0 60.94 42.11 112.05 98.82 125.82z" fill="#ffcbbe"/><g fill="#efecef"><path d="m239.135 277.271c0 12.24-6.25 23.02-15.74 29.32-5.56-3.7-12.24-5.85-19.42-5.85s-13.86 2.15-19.42 5.85c-9.49-6.3-15.75-17.08-15.75-29.32 0-19.42 15.75-35.16 35.17-35.16s35.16 15.74 35.16 35.16z"/><path d="m338.935 277.271c0 12.24-6.25 23.02-15.74 29.32-5.56-3.7-12.24-5.85-19.42-5.85s-13.86 2.15-19.42 5.85c-9.49-6.3-15.75-17.08-15.75-29.32 0-19.42 15.75-35.16 35.17-35.16s35.16 15.74 35.16 35.16z"/></g><path d="m410.131 184.173v36.08c0-73.31-59.44-132.75-132.75-132.75h-42.76c-73.32 0-132.76 59.44-132.76 132.75v-36.08c0-73.31 59.44-132.75 132.76-132.75h42.76c73.31 0 132.75 59.44 132.75 132.75z" fill="#9dc6fb"/></g><g><path d="m485.42 255.72c0-11.058-4.31-21.457-12.137-29.284-6.067-6.067-13.682-10.021-21.949-11.493 6.282-7.262 10.086-16.721 10.086-27.054 0-11.063-4.31-21.467-12.137-29.294-7.82-7.819-18.22-12.126-29.283-12.126h-2.36v-6.22c0-77.333-62.916-140.249-140.25-140.249h-42.77c-77.334 0-140.25 62.916-140.25 140.25v6.22h-2.37c-22.839 0-41.42 18.581-41.42 41.42 0 10.04 3.553 19.537 10.069 27.063-19.345 3.479-34.069 20.436-34.069 40.767 0 11.063 4.31 21.466 12.141 29.298 7.212 7.199 16.604 11.41 26.674 12.032-6.071 7.289-9.664 16.614-9.664 26.51 0 11.071 4.307 21.475 12.126 29.293 3.339 3.339 7.186 6.059 11.434 8.086 1.042.497 2.142.733 3.225.733 2.8 0 5.487-1.576 6.773-4.272 1.784-3.738.199-8.215-3.539-9.999-2.704-1.291-5.156-3.024-7.286-5.155-4.986-4.986-7.732-11.622-7.732-18.686 0-9.036 4.698-17.314 12.006-22.109 5.915 14.322 20.026 24.429 36.458 24.429h.832c1.821 8.339 4.394 16.401 7.662 24.1h-15.54c-4.143 0-7.5 3.358-7.5 7.5s3.357 7.5 7.5 7.5h23.025c9.656 16.702 22.739 31.182 38.277 42.485-23.515 21.762-36.817 51.999-36.817 84.415v12.62c0 4.142 3.357 7.5 7.5 7.5h219.471c4.143 0 7.5-3.358 7.5-7.5v-12.62c0-32.394-13.284-62.608-36.768-84.361 5.766-4.202 11.25-8.875 16.392-14.016 8.632-8.636 15.962-18.224 21.909-28.522h42.211c22.839 0 41.42-18.581 41.42-41.42 0-9.807-3.389-19.087-9.603-26.515 21.6-1.382 38.753-19.384 38.753-41.326zm-65.42-94.25c7.057 0 13.69 2.747 18.677 7.733 4.993 4.994 7.743 11.63 7.743 18.687 0 14.562-11.852 26.41-26.42 26.41-.033 0-.064.004-.097.005h-2.273v-30.135c0-7.63-.624-15.223-1.847-22.7zm-185.38-146.47h42.77c61.085 0 112.088 43.958 123.058 101.901-.462-.845-.918-1.693-1.398-2.528-11.785-20.498-28.699-37.829-48.913-50.121-3.538-2.152-8.152-1.028-10.305 2.511s-1.027 8.153 2.512 10.305c18.061 10.983 33.173 26.468 43.702 44.781 4.614 8.025 8.304 16.537 11.02 25.352-24.673-40.271-69.096-67.201-119.686-67.201h-42.76c-50.594 0-95.016 26.924-119.69 67.196 15.812-51.071 63.488-88.276 119.69-88.276h42.76c13.491 0 26.765 2.133 39.45 6.339 3.931 1.306 8.176-.827 9.479-4.758s-.827-8.176-4.759-9.479c-14.211-4.712-29.072-7.102-44.171-7.102h-42.76c-52.997 0-99.218 29.546-123.067 73.026 10.954-57.965 61.967-101.946 123.068-101.946zm-142.62 146.47h4.207c-1.208 7.391-1.847 14.972-1.847 22.7v30.135h-2.264c-.032 0-.064-.005-.097-.005-7.049 0-13.684-2.748-18.677-7.733-4.993-4.994-7.743-11.626-7.743-18.677.001-14.568 11.853-26.42 26.421-26.42zm2.765 124.98c0-6.521 2.541-12.654 7.154-17.267 4.061-4.062 9.304-6.514 14.956-7.043v34.5c0 4.788.249 9.519.731 14.182-12.732-.822-22.841-11.436-22.841-24.372zm56.87 205.43c0-29.489 12.664-56.902 34.906-75.981 6.884 3.901 14.137 7.221 21.693 9.898 1.387 21.315 17.432 38.689 38.141 42.119v29.084h-94.74zm102.23-38.34c-14.347 0-26.427-9.881-29.8-23.194 9.597 2.137 19.568 3.274 29.8 3.274 10.147 0 20.125-1.1 29.801-3.237-3.386 13.295-15.459 23.157-29.801 23.157zm102.24 38.34v5.12h-94.73v-29.085c20.68-3.427 36.71-20.768 38.126-42.051 7.525-2.651 14.805-5.958 21.763-9.902 22.203 19.071 34.841 46.457 34.841 75.918zm-15.982-108.984c-23.047 23.037-53.681 35.724-86.258 35.724-67.266 0-121.99-54.72-121.99-121.98v-73.24c0-4.214.219-8.452.651-12.661 26.724-1.663 50.869-16.927 63.979-39.928 14.823 15.586 35.501 24.608 57.36 24.608 21.86 0 42.536-9.022 57.359-24.608 13.107 22.997 37.249 38.26 63.969 39.926.433 4.207.651 8.444.651 12.662v73.24c.001 32.579-12.687 63.213-35.721 86.257zm74.727-32.916h-34.745c3.279-7.758 5.831-15.819 7.622-24.1h.818c10.521 0 20.423-4.099 27.883-11.546 4.254-4.253 7.41-9.31 9.34-14.827 2.862 1.3 5.491 3.098 7.77 5.377 4.986 4.986 7.732 11.619 7.732 18.676 0 14.568-11.852 26.42-26.42 26.42zm-24.005-87.839c12.396 1.163 22.13 11.619 22.13 24.309 0 6.528-2.54 12.664-7.148 17.271-4.25 4.243-9.78 6.727-15.708 7.103.479-4.682.727-9.414.727-14.184v-34.499zm53.155 19.999h-16.266c-2.073-18.965-17.652-33.926-36.89-35.038v-23.702c0-7.072-.548-14.197-1.628-21.177-.567-3.661-3.796-6.351-7.489-6.351-.043 0-.086 0-.129.001-.511.009-1.022.018-1.533.018-26.638 0-50.792-16.752-60.105-41.685-.979-2.62-3.334-4.478-6.11-4.819-2.778-.342-5.512.891-7.096 3.195-11.983 17.431-31.754 27.838-52.889 27.838s-40.906-10.407-52.89-27.838c-1.585-2.305-4.319-3.537-7.097-3.195-2.775.341-5.131 2.199-6.109 4.819-9.313 24.933-33.468 41.685-60.104 41.685-.521 0-1.033-.009-1.624-.019-3.737-.061-6.965 2.649-7.538 6.353-1.08 6.986-1.628 14.111-1.628 21.176v23.704c-9.662.557-18.668 4.576-25.563 11.473-6.42 6.42-10.346 14.665-11.308 23.563h-12.004c-7.049 0-13.683-2.748-18.677-7.733-4.993-4.994-7.743-11.63-7.743-18.687 0-14.568 11.852-26.42 26.42-26.42l33.869.005c4.143 0 7.5-3.358 7.5-7.5 0-.276-.009-1.305-.009-1.555 0-69.064 56.192-125.251 125.26-125.251h42.76c69.063 0 125.25 56.187 125.25 125.25 0 .264.001 1.293.001 1.555 0 4.142 3.357 7.5 7.5 7.5l33.869-.005c7.05 0 13.684 2.75 18.677 7.744 4.993 4.993 7.743 11.626 7.743 18.677 0 14.567-11.852 26.419-26.42 26.419z"/><path d="m280.798 340.009c-14.848 14.848-39.008 14.848-53.855 0-2.93-2.929-7.678-2.929-10.607 0s-2.929 7.678 0 10.606c10.349 10.349 23.942 15.522 37.535 15.522s27.187-5.174 37.535-15.522c2.929-2.929 2.929-7.678 0-10.606-2.93-2.929-7.678-2.929-10.608 0z"/><path d="m223.396 314.091c1.445 0 2.892-.417 4.148-1.252 11.954-7.937 19.091-21.233 19.091-35.568 0-23.522-19.138-42.66-42.66-42.66-23.528 0-42.67 19.137-42.67 42.66 0 14.331 7.141 27.627 19.102 35.568 2.516 1.671 5.788 1.669 8.304-.004 4.517-3.006 9.795-4.594 15.265-4.594 5.471 0 10.749 1.588 15.266 4.594 1.257.838 2.705 1.256 4.154 1.256zm-38.201-16.503c-5.631-5.201-8.891-12.524-8.891-20.317 0-15.251 12.413-27.66 27.67-27.66 15.252 0 27.66 12.408 27.66 27.66 0 7.795-3.256 15.119-8.881 20.317-5.809-2.856-12.208-4.347-18.779-4.347s-12.969 1.491-18.779 4.347z"/><path d="m208.973 263.931c-7.357 0-13.343 5.986-13.343 13.343 0 7.358 5.985 13.344 13.343 13.344s13.344-5.986 13.344-13.344c-.001-7.357-5.987-13.343-13.344-13.343z"/><path d="m303.775 234.611c-23.528 0-42.67 19.137-42.67 42.66 0 14.332 7.141 27.628 19.102 35.569 2.517 1.67 5.791 1.668 8.304-.005 4.516-3.005 9.794-4.594 15.265-4.594 5.47 0 10.748 1.588 15.265 4.594 1.259.837 2.707 1.256 4.155 1.256 1.445 0 2.892-.417 4.148-1.252 11.954-7.937 19.091-21.233 19.091-35.568 0-23.522-19.137-42.66-42.66-42.66zm18.779 62.977c-5.809-2.856-12.207-4.347-18.778-4.347-6.572 0-12.971 1.491-18.78 4.347-5.631-5.2-8.89-12.523-8.89-20.317 0-15.251 12.413-27.66 27.67-27.66 15.251 0 27.659 12.408 27.659 27.66 0 7.795-3.256 15.119-8.881 20.317z"/><path d="m298.773 263.931c-7.357 0-13.344 5.986-13.344 13.343 0 7.358 5.986 13.344 13.344 13.344s13.343-5.986 13.343-13.344c0-7.357-5.985-13.343-13.343-13.343z"/><path d="m234.731 321.739c0 4.142 3.357 7.5 7.5 7.5h23.277c4.143 0 7.5-3.358 7.5-7.5s-3.357-7.5-7.5-7.5h-23.277c-4.142 0-7.5 3.358-7.5 7.5z"/><path d="m288.393 219.146 18.954.998c.135.007.268.01.401.01 3.961 0 7.272-3.104 7.482-7.106.218-4.136-2.959-7.666-7.095-7.884l-18.954-.998c-4.111-.201-7.667 2.958-7.884 7.096-.217 4.136 2.96 7.666 7.096 7.884z"/><path d="m199.991 220.154c.133 0 .267-.003.401-.01l18.955-.998c4.136-.218 7.312-3.748 7.095-7.884-.217-4.137-3.729-7.3-7.884-7.096l-18.955.998c-4.136.218-7.312 3.748-7.095 7.884.211 4.002 3.522 7.106 7.483 7.106z"/></g></g></svg>