<?xml version="1.0" encoding="iso-8859-1"?>
<!-- Generator: Adobe Illustrator 19.0.0, SVG Export Plug-In . SVG Version: 6.00 Build 0)  -->
<svg version="1.1" id="Layer_1" xmlns="http://www.w3.org/2000/svg" xmlns:xlink="http://www.w3.org/1999/xlink" x="0px" y="0px"
	 viewBox="0 0 511.999 511.999" style="enable-background:new 0 0 511.999 511.999;" xml:space="preserve">
<path style="fill:#FFAA50;" d="M248.987,300.736l-44.403-19.03H153.17l-44.403,19.03c-9.452,4.051-15.58,13.345-15.58,23.628
	v120.153h171.379V324.364C264.567,314.08,258.439,304.787,248.987,300.736z"/>
<path style="fill:#FF913C;" d="M229.199,292.255l-24.615-10.549H153.17l-24.615,10.549c4.868,23.333,25.544,40.865,50.322,40.865
	S224.331,315.589,229.199,292.255z"/>
<path style="fill:#64463C;" d="M7.498,126.952l51.414,26.219c0,0,11.247-42.309,54.092-50.878l29.813-23.386
	C142.817,78.907,54.036,40.524,7.498,126.952z"/>
<path style="fill:#553732;" d="M28.975,137.904l29.937,15.267c0,0,11.247-42.309,54.092-50.878l15.018-11.781
	C99.564,87.252,57.804,92.147,28.975,137.904z"/>
<path style="fill:#FFAA50;" d="M95.545,108.398c5.154-2.623,10.894-4.792,17.458-6.105l29.813-23.386c0,0-18.508-7.968-43.033-8.446
	C97.426,75.76,92.592,89.571,95.545,108.398z"/>
<path style="fill:#D29B6E;" d="M178.877,307.413L178.877,307.413c-14.198,0-25.707-11.509-25.707-25.707v-25.707h51.414v25.707
	C204.584,295.904,193.075,307.413,178.877,307.413z"/>
<path style="fill:#F0C087;" d="M255.998,161.74v-17.138c0-42.593-34.528-77.121-77.121-77.121l0,0
	c-42.593,0-77.121,34.528-77.121,77.121v17.138c-11.472,0-20.311,11.271-16.047,23.345c2.36,6.681,9.012,10.931,16.098,10.931h0.451
	c4.267,38.556,36.925,68.552,76.618,68.552s72.351-29.996,76.618-68.552h0.451c7.086,0,13.738-4.25,16.098-10.931
	C276.309,173.012,267.47,161.74,255.998,161.74z"/>
<path style="fill:#E6AF78;" d="M255.998,170.309v-25.707H144.602c0-35.151,23.54-64.751,55.698-74.042
	c-6.809-1.967-13.981-3.078-21.422-3.078c-42.593,0-77.121,34.528-77.121,77.121v17.138c-11.472,0-20.312,11.271-16.047,23.344
	c2.36,6.682,9.012,10.931,16.098,10.931h0.451c4.268,38.556,36.925,68.552,76.619,68.552c7.474,0,14.697-1.067,21.529-3.051
	c-32.213-9.256-55.805-38.88-55.805-74.069v-17.139H255.998z"/>
<path style="fill:#FF913C;" d="M122.444,336.669l-25.53-25.53c-2.359,3.921-3.726,8.452-3.726,13.225v120.153h34.276v-95.729
	C127.464,344.242,125.658,339.883,122.444,336.669z"/>
<path style="fill:#64463C;" d="M191.731,67.482h-12.854c-42.593,0-77.121,34.528-77.121,77.121l0,0h154.242v-12.854
	C255.998,96.255,227.225,67.482,191.731,67.482z"/>
<path style="fill:#553732;" d="M198.158,70.01c-6.173-1.592-12.61-2.528-19.28-2.528c-42.592,0-77.121,34.528-77.121,77.121h38.56
	C140.317,108.68,164.913,78.584,198.158,70.01z"/>
<path style="fill:#FFAA50;" d="M403.228,300.736l-44.403-19.03h-51.414l-44.403,19.03c-9.452,4.051-15.58,13.345-15.58,23.628
	v120.153h171.38V324.364C418.808,314.08,412.68,304.787,403.228,300.736z"/>
<path style="fill:#FF913C;" d="M383.441,292.255l-24.615-10.549h-51.414l-24.615,10.549c4.868,23.333,25.544,40.865,50.322,40.865
	S378.572,315.589,383.441,292.255z"/>
<path style="fill:#64463C;" d="M161.739,126.952l51.414,26.219c0,0,11.247-42.309,54.092-50.878l29.813-23.386
	C297.058,78.907,208.278,40.524,161.739,126.952z"/>
<path style="fill:#553732;" d="M183.216,137.904l29.937,15.267c0,0,11.247-42.309,54.092-50.878l15.018-11.781
	C253.805,87.252,212.046,92.147,183.216,137.904z"/>
<path style="fill:#FFAA50;" d="M249.787,108.398c5.154-2.623,10.894-4.792,17.458-6.105l29.813-23.386
	c0,0-18.508-7.968-43.033-8.446C251.667,75.76,246.833,89.571,249.787,108.398z"/>
<path style="fill:#64463C;" d="M504.498,126.952l-51.414,26.219c0,0-11.247-42.309-54.092-50.878l-29.813-23.386
	C369.18,78.907,457.96,40.524,504.498,126.952z"/>
<path style="fill:#553732;" d="M483.021,137.904l-29.937,15.267c0,0-11.247-42.309-54.092-50.878l-15.018-11.781
	C412.432,87.252,454.192,92.147,483.021,137.904z"/>
<path style="fill:#FFAA50;" d="M416.451,108.398c-5.154-2.623-10.894-4.792-17.458-6.105L369.18,78.907
	c0,0,18.508-7.968,43.033-8.446C414.571,75.76,419.404,89.571,416.451,108.398z"/>
<path style="fill:#D29B6E;" d="M333.119,307.413L333.119,307.413c-14.198,0-25.707-11.509-25.707-25.707v-25.707h51.414v25.707
	C358.826,295.904,347.316,307.413,333.119,307.413z"/>
<path style="fill:#F0C087;" d="M410.239,161.74v-17.138c0-42.593-34.528-77.121-77.121-77.121l0,0
	c-42.593,0-77.121,34.528-77.121,77.121v17.138c-11.472,0-20.311,11.271-16.047,23.345c2.36,6.681,9.012,10.931,16.098,10.931h0.451
	c4.267,38.556,36.925,68.552,76.618,68.552s72.351-29.996,76.618-68.552h0.451c7.086,0,13.738-4.25,16.098-10.931
	C430.551,173.012,421.711,161.74,410.239,161.74z"/>
<path style="fill:#E6AF78;" d="M410.239,170.309v-25.707H298.843c0-35.151,23.54-64.751,55.698-74.042
	c-6.809-1.967-13.981-3.078-21.422-3.078c-42.593,0-77.121,34.528-77.121,77.121v17.138c-11.472,0-20.312,11.271-16.047,23.344
	c2.36,6.682,9.012,10.931,16.098,10.931h0.451c4.268,38.556,36.925,68.552,76.619,68.552c7.474,0,14.697-1.067,21.529-3.051
	c-32.213-9.256-55.805-38.88-55.805-74.069v-17.139H410.239z"/>
<g>
	<path style="fill:#FF913C;" d="M276.685,336.669l-25.53-25.53c-2.359,3.921-3.726,8.452-3.726,13.225v120.153h34.276v-95.729
		C281.705,344.242,279.899,339.883,276.685,336.669z"/>
	<path style="fill:#FF913C;" d="M389.552,336.669l25.53-25.53c2.359,3.921,3.726,8.452,3.726,13.225v120.153h-34.276v-95.729
		C384.533,344.242,386.338,339.883,389.552,336.669z"/>
</g>
<path style="fill:#64463C;" d="M333.119,67.482L333.119,67.482c-42.593,0-77.121,34.528-77.121,77.121l0,0h154.241l0,0
	C410.239,102.01,375.711,67.482,333.119,67.482z"/>
<path style="fill:#553732;" d="M352.399,70.01c-6.173-1.592-12.61-2.528-19.28-2.528c-42.592,0-77.121,34.528-77.121,77.121h38.56
	C294.558,108.68,319.155,78.584,352.399,70.01z"/>
<path d="M144.602,171.379c-4.142,0-7.5,3.358-7.5,7.5v8.569c0,4.142,3.358,7.5,7.5,7.5s7.5-3.358,7.5-7.5v-8.569
	C152.102,174.736,148.744,171.379,144.602,171.379z"/>
<path d="M213.153,171.379c-4.142,0-7.5,3.358-7.5,7.5v8.569c0,4.142,3.358,7.5,7.5,7.5s7.5-3.358,7.5-7.5v-8.569
	C220.653,174.736,217.295,171.379,213.153,171.379z"/>
<path d="M191.082,212.415c-3.07,2.681-7.518,4.219-12.204,4.219s-9.134-1.538-12.205-4.219c-3.119-2.724-7.857-2.404-10.583,0.716
	c-2.724,3.12-2.404,7.858,0.716,10.583c5.849,5.107,13.688,7.92,22.071,7.92c8.384,0,16.223-2.813,22.071-7.921
	c3.12-2.725,3.44-7.462,0.715-10.583C198.939,210.01,194.201,209.691,191.082,212.415z"/>
<path d="M298.843,171.379c-4.142,0-7.5,3.358-7.5,7.5v8.569c0,4.142,3.358,7.5,7.5,7.5s7.5-3.358,7.5-7.5v-8.569
	C306.343,174.736,302.985,171.379,298.843,171.379z"/>
<path d="M367.395,171.379c-4.142,0-7.5,3.358-7.5,7.5v8.569c0,4.142,3.358,7.5,7.5,7.5s7.5-3.358,7.5-7.5v-8.569
	C374.895,174.736,371.537,171.379,367.395,171.379z"/>
<path d="M345.324,212.414c-3.071,2.682-7.519,4.219-12.205,4.219s-9.134-1.538-12.204-4.219c-3.12-2.725-7.858-2.404-10.583,0.715
	c-2.725,3.12-2.404,7.858,0.715,10.583c5.849,5.108,13.687,7.921,22.071,7.921s16.222-2.813,22.071-7.92
	c3.12-2.725,3.44-7.462,0.716-10.583C353.182,210.011,348.444,209.691,345.324,212.414z"/>
<path d="M511.102,123.397c-25.68-47.691-62.473-59.562-88.816-61.123c-24.252-1.437-43.882,5.356-49.566,7.577
	c-11.824-6.289-25.3-9.868-39.6-9.868c-14.301,0-27.776,3.579-39.6,9.868c-5.686-2.221-25.323-9.015-49.566-7.577
	c-8.711,0.516-18.567,2.173-28.783,5.866c-11.367-5.414-23.564-8.157-36.292-8.157c-14.301,0-27.776,3.579-39.6,9.868
	c-5.686-2.221-25.321-9.015-49.566-7.577c-26.344,1.561-63.137,13.432-88.816,61.123c-0.957,1.777-1.157,3.864-0.556,5.791
	c0.602,1.926,1.954,3.529,3.752,4.446l51.414,26.219c1.063,0.542,2.226,0.813,3.39,0.813c1.04,0,2.082-0.216,3.056-0.647
	c2.065-0.914,3.611-2.72,4.204-4.899c0.36-1.322,7.967-28.097,33.627-40.547c-3.558,9.339-5.524,19.457-5.524,30.03v10.811
	c-5.036,1.613-9.498,4.827-12.625,9.248c-4.701,6.646-5.792,15-2.994,22.922c2.69,7.617,9.179,13.236,17.033,15.185
	c5.191,28.509,24.426,51.646,50,62.54v11.452l-39.856,17.081c-12.227,5.24-20.126,17.22-20.126,30.522v120.152
	c0,4.142,3.358,7.5,7.5,7.5s7.5-3.358,7.5-7.5V325.519l16.454,16.454c1.82,1.82,2.822,4.24,2.822,6.815v95.729
	c0,4.142,3.358,7.5,7.5,7.5c4.142,0,7.5-3.358,7.5-7.5v-95.729c0-6.582-2.563-12.77-7.216-17.422l-20.765-20.765
	c1.396-1.207,2.984-2.219,4.741-2.972l35.7-15.3c4.441,13.115,16.859,22.584,31.454,22.584s27.013-9.469,31.454-22.584l16.999,7.285
	c0.963,0.413,1.965,0.608,2.951,0.608c2.91,0,5.678-1.704,6.897-4.547c1.632-3.808-0.132-8.217-3.939-9.848l-21.154-9.066v-11.53
	c19.346-8.308,35.137-23.65,43.903-42.967c8.73,19.408,24.489,34.766,43.924,43.045v11.452l-39.856,17.081
	c-12.227,5.24-20.126,17.22-20.126,30.522v120.152c0,4.142,3.358,7.5,7.5,7.5s7.5-3.358,7.5-7.5V325.52l16.453,16.453
	c1.82,1.82,2.823,4.241,2.823,6.815v95.729c0,4.142,3.358,7.5,7.5,7.5s7.5-3.358,7.5-7.5v-95.729c0-6.581-2.563-12.769-7.216-17.422
	l-20.765-20.765c1.396-1.207,2.984-2.219,4.741-2.972l35.7-15.3c4.441,13.115,16.858,22.584,31.454,22.584
	s27.013-9.469,31.454-22.584l35.701,15.3c1.756,0.753,3.345,1.765,4.74,2.972l-20.765,20.765c-4.654,4.653-7.217,10.84-7.217,17.422
	v95.729c0,4.142,3.358,7.5,7.5,7.5s7.5-3.358,7.5-7.5v-95.729c0-2.575,1.002-4.995,2.823-6.815l16.453-16.453v118.997
	c0,4.142,3.358,7.5,7.5,7.5s7.5-3.358,7.5-7.5V324.364c0-13.302-7.9-25.282-20.126-30.522l-39.857-17.081v-11.452
	c25.573-10.894,44.809-34.031,50-62.54c7.854-1.949,14.342-7.568,17.033-15.185c2.798-7.921,1.707-16.276-2.994-22.922
	c-3.127-4.421-7.589-7.635-12.625-9.248v-10.811c0-10.573-1.966-20.691-5.524-30.03c25.659,12.45,33.266,39.222,33.621,40.526
	c0.582,2.19,2.123,3.999,4.192,4.922c0.974,0.435,2.016,0.651,3.056,0.651c1.17,0,2.339-0.274,3.407-0.819l51.414-26.219
	c1.798-0.917,3.15-2.52,3.752-4.446C512.259,127.261,512.059,125.173,511.102,123.397z M402.329,137.103H263.908
	c3.753-34.874,33.356-62.121,69.21-62.121S398.576,102.229,402.329,137.103z M264.46,95.229c-3.284,0.714-6.395,1.602-9.342,2.639
	c0.515-11.616,4.996-18.999,5.822-20.265c6.543,0.652,12.313,1.824,16.904,3.008C272.835,84.944,268.34,89.848,264.46,95.229z
	 M244.284,77.282c0.044-0.003,0.086-0.004,0.13-0.007c-2.538,6.325-5.051,15.89-4.15,27.765
	c-17.65,11.152-26.949,27.616-31.248,37.603l-36.858-18.796C189.784,94.908,214.018,79.252,244.284,77.282z M54.774,142.643
	l-36.858-18.796c17.626-28.938,41.86-44.594,72.126-46.564c0.044-0.003,0.086-0.004,0.13-0.007
	c-2.538,6.325-5.051,15.89-4.15,27.765C68.373,116.191,59.073,132.656,54.774,142.643z M100.876,97.868
	c0.515-11.616,4.996-18.999,5.822-20.265c6.544,0.652,12.314,1.824,16.904,3.008c-5.008,4.332-9.503,9.237-13.384,14.618
	C106.935,95.943,103.823,96.831,100.876,97.868z M197.085,281.632c0,0.025,0,0.05,0,0.076c-0.001,10.038-8.168,18.205-18.207,18.205
	s-18.206-8.167-18.207-18.205c0-0.025,0-0.05,0-0.076v-11.536c5.874,1.286,11.965,1.971,18.207,1.971
	c6.231,0,12.322-0.703,18.207-2.008V281.632z M178.878,257.068c-35.526,0-65.26-26.601-69.164-61.876
	c-0.42-3.8-3.632-6.675-7.455-6.675h-0.451c-4.082,0-7.793-2.438-9.026-5.929c-1.581-4.476,0.009-7.725,1.097-9.264
	c1.809-2.557,4.754-4.083,7.878-4.083c4.142,0,7.5-3.358,7.5-7.5v-9.638h26.776c4.142,0,7.5-3.358,7.5-7.5s-3.358-7.5-7.5-7.5
	h-26.366c3.753-34.874,33.356-62.121,69.21-62.121c6.039,0,11.928,0.756,17.625,2.243c-14.752,9.237-29.289,23.741-41.367,46.172
	c-0.957,1.777-1.157,3.864-0.556,5.791c0.602,1.926,1.954,3.529,3.752,4.446l51.414,26.219c1.068,0.545,2.237,0.819,3.407,0.819
	c1.041,0,2.083-0.216,3.056-0.651c2.069-0.923,3.61-2.732,4.192-4.922c0.086-0.323,7.717-27.811,33.605-40.486
	c-3.548,9.328-5.509,19.433-5.509,29.991v10.811c-5.036,1.613-9.497,4.827-12.625,9.248c-4.701,6.646-5.792,15-2.994,22.922
	c2.348,6.649,7.592,11.774,14.11,14.266C240.291,233.662,211.878,257.068,178.878,257.068z M351.326,281.632c0,0.025,0,0.05,0,0.076
	c-0.001,10.038-8.168,18.205-18.207,18.205s-18.206-8.166-18.207-18.205c0-0.025,0-0.051,0-0.076v-11.535
	c5.874,1.286,11.965,1.971,18.207,1.971s12.333-0.686,18.207-1.971V281.632z M418.118,173.324c1.088,1.539,2.678,4.788,1.097,9.264
	c-1.233,3.491-4.945,5.929-9.026,5.929h-0.451c-3.823,0-7.034,2.875-7.455,6.675c-3.903,35.275-33.637,61.876-69.164,61.876
	c-35.526,0-65.26-26.601-69.164-61.877c-0.42-3.799-3.632-6.675-7.455-6.675h-0.451c-4.082,0-7.793-2.438-9.026-5.929
	c-1.581-4.476,0.009-7.725,1.097-9.264c1.809-2.557,4.753-4.083,7.878-4.083c4.142,0,7.5-3.358,7.5-7.5v-9.638h139.241v9.638
	c0,4.142,3.358,7.5,7.5,7.5C413.364,169.24,416.309,170.767,418.118,173.324z M388.395,80.613
	c4.591-1.184,10.361-2.356,16.905-3.008c0.707,1.095,5.263,8.606,5.808,20.26c-2.943-1.036-6.051-1.922-9.331-2.635
	C397.898,89.849,393.403,84.944,388.395,80.613z M457.222,142.643c-4.299-9.987-13.598-26.451-31.248-37.603
	c0.901-11.875-1.612-21.44-4.15-27.765c0.044,0.003,0.086,0.004,0.13,0.007c30.266,1.97,54.5,17.626,72.126,46.564L457.222,142.643z
	"/>
<g>
</g>
<g>
</g>
<g>
</g>
<g>
</g>
<g>
</g>
<g>
</g>
<g>
</g>
<g>
</g>
<g>
</g>
<g>
</g>
<g>
</g>
<g>
</g>
<g>
</g>
<g>
</g>
<g>
</g>
</svg>
