<?xml version="1.0" encoding="iso-8859-1"?>
<!-- Generator: Adobe Illustrator 19.0.0, SVG Export Plug-In . SVG Version: 6.00 Build 0)  -->
<svg version="1.1" id="Capa_1" xmlns="http://www.w3.org/2000/svg" xmlns:xlink="http://www.w3.org/1999/xlink" x="0px" y="0px"
	 viewBox="0 0 512 512" style="enable-background:new 0 0 512 512;" xml:space="preserve">
<path style="fill:#CDF5A0;" d="M416.449,371.966l-83.63-24.597l-63.261,42.174c-8.21,5.474-18.907,5.474-27.117,0l-63.261-42.174
	l-83.63,24.597c-20.805,6.119-35.091,25.213-35.091,46.899V504.5h391.082v-85.636C451.541,397.179,437.254,378.085,416.449,371.966z
	"/>
<path style="fill:#B4F09B;" d="M345.623,276.369H166.378c-26.999,0-48.885,21.887-48.885,48.885
	c0,53.997,43.773,97.771,97.77,97.771h81.475c53.997,0,97.771-43.774,97.771-97.771
	C394.508,298.255,372.622,276.369,345.623,276.369z"/>
<path style="fill:#64DCA0;" d="M343.455,300.811c17.735,0,24.699,23.001,9.943,32.839l-83.839,55.893
	c-8.21,5.474-18.906,5.474-27.117,0l-83.839-55.893c-14.756-9.837-7.792-32.839,9.943-32.839H343.455z"/>
<path style="fill:#B67F5F;" d="M179.18,347.369l63.261,42.174c8.211,5.474,18.906,5.474,27.117,0l63.261-42.174l0,0l-2.242-0.659
	c-10.402-3.06-17.546-12.607-17.546-23.45v-38.744H198.967v38.744c0,10.843-7.144,20.39-17.546,23.45L179.18,347.369L179.18,347.369
	z"/>
<path style="fill:#A06E50;" d="M198.967,310.846c17.117,9.143,36.529,14.408,57.033,14.408s39.916-5.265,57.033-14.408v-26.329
	H198.967V310.846z"/>
<path style="fill:#CD916E;" d="M374.139,162.303h-4.074v-97.77H141.935v97.771h-4.074c-11.25,0-20.369,9.119-20.369,20.369
	c0,11.249,9.119,20.369,20.369,20.369h12.633c4.173,54.677,49.76,97.77,105.506,97.77s101.333-43.093,105.506-97.77h4.486h8.148
	c11.25,0,20.369-9.12,20.369-20.369C394.508,171.423,385.389,162.303,374.139,162.303z"/>
<path style="fill:#5A4650;" d="M223.411,7.5c-40.498,0-73.328,32.83-73.328,73.328H321.18c37.399,0,68.258-27.998,72.762-64.177
	c0.604-4.853-3.255-9.151-8.145-9.151C385.797,7.5,223.411,7.5,223.411,7.5z"/>
<path style="fill:#B67F5F;" d="M141.935,80.828v81.475h-4.074c-11.25,0-20.369,9.119-20.369,20.369
	c0,11.249,9.119,20.369,20.369,20.369h12.633c4.173,54.677,49.76,97.77,105.506,97.77c5.574,0,11.008-0.543,16.347-1.373
	c-50.765-7.834-89.675-51.587-89.675-104.545V137.86c0-17.999,14.59-32.59,32.59-32.59h97.77c8.999,0,16.295-7.296,16.295-16.295
	v-8.148L141.935,80.828L141.935,80.828z"/>
<path style="fill:#64505A;" d="M385.798,7.5H234.542c-7.211,8.033-12.717,17.629-15.835,28.263
	c-3.025,10.32,4.998,20.622,15.753,20.622h141.299c9.715-10.838,16.293-24.546,18.185-39.734
	C394.547,11.798,390.688,7.5,385.798,7.5z"/>
<path d="M207.116,162.951c-4.143,0-7.5,3.358-7.5,7.5v8.147c0,4.142,3.357,7.5,7.5,7.5s7.5-3.358,7.5-7.5v-8.147
	C214.616,166.309,211.258,162.951,207.116,162.951z"/>
<path d="M304.885,162.951c-4.143,0-7.5,3.358-7.5,7.5v8.147c0,4.142,3.357,7.5,7.5,7.5s7.5-3.358,7.5-7.5v-8.147
	C312.385,166.309,309.027,162.951,304.885,162.951z"/>
<path d="M256,243.131c12.062,0,23.168-3.854,29.71-10.31c2.948-2.909,2.98-7.658,0.071-10.606c-2.911-2.949-7.659-2.979-10.606-0.07
	c-2.799,2.762-9.5,5.986-19.175,5.986c-9.675,0-16.376-3.225-19.175-5.986c-2.947-2.91-7.695-2.878-10.606,0.07
	c-2.909,2.948-2.877,7.697,0.071,10.606C232.833,239.277,243.939,243.131,256,243.131z"/>
<path d="M418.565,364.771l-21.887-6.437c3.453-10.407,5.329-21.528,5.329-33.079c0-31.091-25.294-56.385-56.385-56.385h-3.737
	c13.921-16.14,23.387-36.225,26.452-58.328h4.64c14.795,0,27.484-10.991,28.888-25.021c0.787-7.864-1.785-15.716-7.057-21.542
	c-4.504-4.977-10.651-8.141-17.243-8.961V65.359c15.072-14.69,24.442-35.2,24.442-57.859c0-4.142-3.357-7.5-7.5-7.5H215.264
	c-44.568,0-80.828,36.259-80.828,80.828v74.331c-12.751,1.99-23.043,12.11-24.3,24.665c-0.788,7.864,1.784,15.716,7.057,21.542
	c5.275,5.831,12.81,9.175,20.669,9.175h5.797c3.065,22.104,12.528,42.188,26.447,58.328h-3.727
	c-31.091,0-56.385,25.294-56.385,56.386c0,11.551,1.876,22.671,5.329,33.079l-21.887,6.438
	c-23.831,7.009-40.476,29.254-40.476,54.094V504.5c0,4.142,3.357,7.5,7.5,7.5s7.5-3.358,7.5-7.5v-85.635
	c0-18.232,12.217-34.559,29.708-39.704l23.427-6.891c16.239,32.394,48.704,55.298,86.668,57.984V504.5c0,4.142,3.357,7.5,7.5,7.5
	s7.5-3.358,7.5-7.5v-73.976h66.475V504.5c0,4.142,3.357,7.5,7.5,7.5s7.5-3.358,7.5-7.5v-74.246
	c37.964-2.686,70.429-25.59,86.668-57.984l23.427,6.89c17.491,5.145,29.708,21.471,29.708,39.704V504.5c0,4.142,3.357,7.5,7.5,7.5
	s7.5-3.358,7.5-7.5v-85.635C459.041,394.024,442.396,371.78,418.565,364.771z M331.626,339.151
	c-6.582-2.43-11.093-8.805-11.093-15.891v-14.949h22.922c5.703,0,8.894,3.824,9.977,7.403c1.084,3.58,0.551,8.531-4.194,11.695
	L331.626,339.151z M150.083,187.394c-4.143,0-7.5,3.358-7.5,7.5v0.647h-4.722c-3.63,0-7.109-1.545-9.547-4.239
	c-2.47-2.729-3.625-6.275-3.253-9.984c0.646-6.457,6.779-11.515,13.962-11.515h2.912c4.143,0,7.5-3.358,7.5-7.5V80.828
	c0-36.297,29.53-65.828,65.828-65.828h171.32c-3.735,32.778-31.642,58.328-65.402,58.328H174.525c-4.143,0-7.5,3.358-7.5,7.5
	s3.357,7.5,7.5,7.5H321.18c15.113,0,29.272-4.17,41.385-11.419v85.395c0,4.142,3.357,7.5,7.5,7.5h4.074
	c3.629,0,7.108,1.545,9.546,4.238c2.47,2.729,3.625,6.275,3.254,9.984c-0.646,6.457-6.778,11.515-13.962,11.515h-3.563v-0.569
	c0-4.141-3.356-7.499-7.497-7.5c-0.001,0-0.002,0-0.003,0c-4.14,0-7.497,3.354-7.5,7.495c-0.04,54.228-44.188,98.345-98.414,98.345
	c-54.268,0-98.418-44.15-98.418-98.418C157.583,190.751,154.226,187.394,150.083,187.394z M180.374,339.151l-17.611-11.741
	c-4.745-3.164-5.278-8.116-4.194-11.695s4.273-7.403,9.977-7.403h22.922v14.949C191.467,330.346,186.956,336.721,180.374,339.151z
	 M304.237,415.21v-8.481c0-4.142-3.357-7.5-7.5-7.5s-7.5,3.358-7.5,7.5v8.795h-66.475v-8.795c0-4.142-3.357-7.5-7.5-7.5
	s-7.5,3.358-7.5,7.5v8.481c-46.279-3.824-82.771-42.707-82.771-89.957c0-22.82,18.565-41.385,41.385-41.385h19.374
	c1.859,1.471,3.765,2.887,5.715,4.241v5.201h-22.922c-11.461,0-21.012,7.088-24.333,18.057c-3.321,10.969,0.694,22.165,10.23,28.522
	l83.839,55.893c5.382,3.587,11.55,5.381,17.719,5.381c6.168,0,12.337-1.794,17.719-5.382l19.032-12.688
	c3.446-2.297,4.378-6.954,2.08-10.4c-2.298-3.447-6.954-4.378-10.4-2.08l-19.032,12.688c-5.708,3.805-13.087,3.805-18.797,0
	l-52.407-34.938c7.54-5.948,12.272-15.15,12.272-25.105v-26.352c14.975,7.301,31.783,11.403,49.533,11.403
	c17.748,0,34.557-4.104,49.533-11.408v26.357c0,9.955,4.732,19.157,12.272,25.105l-4.857,3.238c-3.446,2.297-4.378,6.954-2.08,10.4
	c1.445,2.168,3.823,3.341,6.247,3.341c1.43,0,2.875-0.408,4.153-1.261l36.289-24.193c9.536-6.357,13.552-17.553,10.23-28.522
	c-3.321-10.969-12.872-18.057-24.333-18.057H320.53V288.1c1.947-1.353,3.848-2.765,5.704-4.234h19.385
	c22.819,0,41.385,18.565,41.385,41.386C387.008,372.504,350.516,411.386,304.237,415.21z"/>
<path d="M198.958,153.51c0.459,0,0.924-0.042,1.391-0.13l16.296-3.056c4.071-0.764,6.753-4.683,5.989-8.754s-4.692-6.75-8.753-5.989
	l-16.296,3.056c-4.071,0.764-6.753,4.683-5.989,8.754C192.271,150.995,195.421,153.51,198.958,153.51z"/>
<path d="M295.355,150.324l16.296,3.056c0.467,0.087,0.932,0.13,1.391,0.13c3.538,0,6.687-2.515,7.362-6.119
	c0.764-4.071-1.918-7.99-5.989-8.754l-16.296-3.056c-4.063-0.761-7.99,1.918-8.753,5.989
	C288.603,145.642,291.284,149.561,295.355,150.324z"/>
<g>
</g>
<g>
</g>
<g>
</g>
<g>
</g>
<g>
</g>
<g>
</g>
<g>
</g>
<g>
</g>
<g>
</g>
<g>
</g>
<g>
</g>
<g>
</g>
<g>
</g>
<g>
</g>
<g>
</g>
</svg>
