<?xml version="1.0"?>
<svg xmlns="http://www.w3.org/2000/svg" viewBox="0 0 512 512" width="512" height="512"><g id="Filled_outline" data-name="Filled outline"><path d="M344,392l8.555-51.332A38.361,38.361,0,0,0,314.716,296h0a38.361,38.361,0,0,0-38.17,34.544L268.3,413.026A39.086,39.086,0,0,0,307.188,456h0a39.089,39.089,0,0,0,9.48-1.167L408,432l11.359,17.038A15.632,15.632,0,0,0,432.367,456h0A15.633,15.633,0,0,0,448,440.367V408a16,16,0,0,0-16-16Z" style="fill:#f7a468"/><path d="M88,296v64L45.513,416h0A33.022,33.022,0,0,0,24,446.952V456H80l72-88V288Z" style="fill:#feb784"/><path d="M288,208V376H227.67a113.974,113.974,0,0,1-100.08-59.41L112,288V208Z" style="fill:#feb784"/><path d="M192,320v40l-42.487,56A33.022,33.022,0,0,0,128,446.952V456h56l64-80V320Z" style="fill:#feb784"/><path d="M232,160v40a104,104,0,1,1-208,0V160a104,104,0,1,1,208,0Z" style="fill:#fec9a3"/><path d="M232,160v40A104.074,104.074,0,0,1,90.35,296.98a109.065,109.065,0,0,0,48.12-90.51V157.95A109.1,109.1,0,0,0,86.18,64.76,104.015,104.015,0,0,1,232,160Z" style="fill:#fec093"/><path d="M400,288v88H288V208h32a79.159,79.159,0,0,1,18.27,2.11q2.43.555,4.8,1.28A80,80,0,0,1,400,288Z" style="fill:#e0e0de"/><path d="M400,288v88H288V258.02a378.9,378.9,0,0,0,50.27-47.91q2.43.555,4.8,1.28A80,80,0,0,1,400,288Z" style="fill:#d6d6d4"/><path d="M400,392V336a40,40,0,0,0-40-40h0a40,40,0,0,0-40,40v78.143A41.857,41.857,0,0,0,361.857,456h0a41.877,41.877,0,0,0,12.027-1.765L448,432l11.359,17.038A15.632,15.632,0,0,0,472.367,456h0A15.633,15.633,0,0,0,488,440.367V408a16,16,0,0,0-16-16Z" style="fill:#fec9a3"/><path d="M472,384H408V288a88.1,88.1,0,0,0-88-88H239.561A35.89,35.89,0,0,0,234,164.407V159a112,112,0,0,0-224,0v40A111.743,111.743,0,0,0,78.92,302.413c.357.149.721.28,1.08.425v54.471L40.463,409.416A41.035,41.035,0,0,0,16,446.95V456a8,8,0,0,0,8,8H80a8,8,0,0,0,6.191-2.934l72-88A8,8,0,0,0,160,368v-4.5a121.306,121.306,0,0,0,13.413,7.764l-28.951,38.159A41.211,41.211,0,0,0,120,446.952V456a8,8,0,0,0,8,8h56a8,8,0,0,0,6.247-3l61.6-77h11.316l-2.821,28.234a47.073,47.073,0,0,0,58.269,50.357l19.193-4.8a49.777,49.777,0,0,0,38.381,4.1L411.3,451.364l1.408,2.113a23.631,23.631,0,0,0,36.374,3.6,23.852,23.852,0,0,0,3.285-4.112l.341.511A23.633,23.633,0,0,0,496,440.367V408A24.028,24.028,0,0,0,472,384Zm-80-96v12.261A47.969,47.969,0,0,0,312,336v32H296V216h24A72.081,72.081,0,0,1,392,288ZM26,199V159a96,96,0,0,1,191.81-6A35.825,35.825,0,0,0,206,151h-4v16h4a20,20,0,0,1,0,40h-4v16h4a35.932,35.932,0,0,0,9.252-1.211,96.016,96.016,0,0,1-99.728,73c-.128-.015-.257-.028-.388-.036A95.87,95.87,0,0,1,26,199ZM76.209,448H32v-1.05A25.028,25.028,0,0,1,48.292,423.5a7.989,7.989,0,0,0,3.591-2.665l42.49-56A8,8,0,0,0,96,360V307.964a111.612,111.612,0,0,0,17.6,2.717c.139.017.281.03.422.04.429.03.857.042,1.286.067l5.255,9.633A121.484,121.484,0,0,0,144,350.753v14.391ZM240,373.194,180.155,448H136v-1.048A25.126,25.126,0,0,1,152.3,423.5a8,8,0,0,0,3.585-2.664l42.487-56A8,8,0,0,0,200,360V320H184v37.309l-.7.928a105.814,105.814,0,0,1-48.684-45.478l-1.278-2.343c1.675-.17,3.34-.364,4.98-.609A111.979,111.979,0,0,0,232.7,216H280V368H256V320H240Zm74.718,73.878a31.081,31.081,0,0,1-38.458-33.247L279.24,384H312v30.143a49.6,49.6,0,0,0,10.784,30.913ZM432.37,448a7.615,7.615,0,0,1-4.625-1.571l11.823-3.547a7.623,7.623,0,0,1-7.2,5.118ZM480,440.367a7.633,7.633,0,0,1-13.984,4.234l-11.36-17.039a8,8,0,0,0-8.955-3.225l-74.116,22.235A33.856,33.856,0,0,1,328,414.143V336a32,32,0,0,1,64,0v56a8,8,0,0,0,8,8h72a8.009,8.009,0,0,1,8,8Z"/><circle cx="58" cy="199" r="16"/><circle cx="154" cy="199" r="16"/><path d="M106,255a24.027,24.027,0,0,0,24-24H114a8,8,0,0,1-16,0H82A24.027,24.027,0,0,0,106,255Z"/><path d="M106.093,158.488a8,8,0,0,0,10.677-8.976l-1.315-6.945a25.7,25.7,0,0,1,4.824-20.92,24.445,24.445,0,0,1,18.136-9.406l-.91-15.973a40.762,40.762,0,0,0-29.832,15.526,41.525,41.525,0,0,0-8.7,25.182,21.537,21.537,0,0,1-5.654-7.2c-3.793-7.495-4.379-15.992-1.529-22.174l-14.531-6.7c-4.919,10.673-4.252,24.166,1.783,36.1C85.565,149.892,95.982,154.684,106.093,158.488Z"/></g></svg>
