<svg xmlns="http://www.w3.org/2000/svg" width="21.272" height="20" viewBox="0 0 21.272 20">
  <g id="back" transform="translate(0 -1.644)">
    <path id="Path_362" data-name="Path 362" d="M9.529,8.85v-4.8L1.416,12l8.113,8.033v-4.8s7.1-1.737,11.986,6.381a11.664,11.664,0,0,0-4.241-10.685S14.86,8.692,9.529,8.85Z" transform="translate(-0.749 -1.27)"/>
    <path id="Path_363" data-name="Path 363" d="M21.018,21.644l-.545-.915c-4.151-6.976-9.916-6.584-11.319-6.372V19.9L0,10.727,9.154,1.644V7.1c5.173-.042,7.577,2.138,7.675,2.233A12.708,12.708,0,0,1,21.018,21.644ZM8.341,17.933Z" transform="translate(0 0)"/>
  </g>
</svg>
