<svg id="brightness" xmlns="http://www.w3.org/2000/svg" width="20" height="20" viewBox="0 0 20 20">
  <g id="Group_131" data-name="Group 131">
    <path id="Path_374" data-name="Path 374" d="M17.07,7.07V2.93H12.93L10,0,7.07,2.93H2.93V7.07L0,10l2.93,2.93V17.07H7.07L10,20l2.93-2.93H17.07V12.93h0L20,10ZM10,15.3V4.7A5.3,5.3,0,0,1,10,15.3Z"/>
  </g>
  <path id="Subtraction_33" data-name="Subtraction 33" d="M292-3231.019h0a5.365,5.365,0,0,1-3.548-1.736A5.524,5.524,0,0,1,287-3236.5a5.523,5.523,0,0,1,1.451-3.745,5.366,5.366,0,0,1,3.549-1.736v10.961Z" transform="translate(-282 3246.52)" fill="red"/>
</svg>
