<svg id="clear" xmlns="http://www.w3.org/2000/svg" width="20.001" height="20" viewBox="0 0 20.001 20">
  <path id="Path_375" data-name="Path 375" d="M21.222,13.27l-2.946-2.946a1.5,1.5,0,0,0-2.063,0L12.435,14.1h0l-2.112,2.112a1.458,1.458,0,0,0,0,2.063l2.946,2.946a1.46,1.46,0,0,0,2.063,0l2.113-2.113h0l3.779-3.78a1.459,1.459,0,0,0,0-2.061Zm-6.776,7.072a.208.208,0,0,1-.3,0L11.2,17.4a.209.209,0,0,1,0-.3l1.671-1.671,3.241,3.241Z" transform="translate(-1.648 -1.651)" fill="#f44"/>
  <path id="Path_376" data-name="Path 376" d="M7.917,13.334a.834.834,0,0,0,.833-.833V9.167h3.392a.833.833,0,0,0,0-1.667H8.751V5h5.417v.833a.833.833,0,1,0,1.667,0V1.875A1.877,1.877,0,0,0,13.959,0H1.875A1.877,1.877,0,0,0,0,1.875V15.418A2.086,2.086,0,0,0,2.084,17.5H5.7a.833.833,0,1,0,0-1.667H2.084a.417.417,0,0,1-.417-.417V13.334Zm-.833-1.667H1.667v-2.5H7.084Zm0-4.167H1.667V5H7.084Z"/>
</svg>
