<svg xmlns="http://www.w3.org/2000/svg" width="36.319" height="36.319" viewBox="0 0 36.319 36.319">
  <g id="settings" transform="translate(0.159 -12.018)">
    <g id="Group_109" data-name="Group 109" transform="translate(16.167 22.964)">
      <path id="Path_319" data-name="Path 319" d="M224.512,299.46c.053.067.1.136.154.206C224.616,299.6,224.565,299.527,224.512,299.46Z" transform="translate(-216.967 -296.713)" fill="#78b9eb"/>
      <path id="Path_320" data-name="Path 320" d="M219.255,293.393c.037.038.07.079.106.118C219.325,293.472,219.292,293.431,219.255,293.393Z" transform="translate(-212.269 -291.292)" fill="#78b9eb"/>
      <path id="Path_321" data-name="Path 321" d="M229.4,306.654c.033.055.069.109.1.165C229.471,306.763,229.435,306.712,229.4,306.654Z" transform="translate(-221.336 -303.142)" fill="#78b9eb"/>
      <path id="Path_322" data-name="Path 322" d="M233.813,315.418c.025.061.045.124.068.182C233.858,315.542,233.838,315.479,233.813,315.418Z" transform="translate(-225.278 -310.973)" fill="#78b9eb"/>
      <path id="Path_323" data-name="Path 323" d="M211.738,286.882c.057.044.117.085.173.13C211.855,286.966,211.8,286.926,211.738,286.882Z" transform="translate(-205.552 -285.474)" fill="#78b9eb"/>
      <path id="Path_324" data-name="Path 324" d="M204.655,282.18c.074.042.145.091.218.132C204.8,282.267,204.729,282.223,204.655,282.18Z" transform="translate(-199.223 -281.272)" fill="#78b9eb"/>
      <path id="Path_325" data-name="Path 325" d="M209.2,362.706a10.1,10.1,0,0,0,1.5-1.157,2.039,2.039,0,0,0,.333-.409,8.976,8.976,0,0,0,1.09-2.6A7.264,7.264,0,0,1,209.2,362.706Z" transform="translate(-203.28 -349.512)" fill="#78b9eb"/>
      <path id="Path_326" data-name="Path 326" d="M179.123,273.647c.086.01.171.025.255.039C179.294,273.676,179.209,273.657,179.123,273.647Z" transform="translate(-176.407 -273.647)" fill="#78b9eb"/>
      <path id="Path_327" data-name="Path 327" d="M197.453,278.528c.032.014.061.031.091.045C197.514,278.559,197.485,278.542,197.453,278.528Z" transform="translate(-192.787 -278.009)" fill="#78b9eb"/>
      <path id="Path_328" data-name="Path 328" d="M236.433,323.234c.024.085.046.171.066.257C236.478,323.4,236.457,323.319,236.433,323.234Z" transform="translate(-227.619 -317.958)" fill="#78b9eb"/>
      <path id="Path_329" data-name="Path 329" d="M165.242,409.272c-.206,0-.407-.021-.608-.039C164.836,409.249,165.036,409.272,165.242,409.272Z" transform="translate(-163.46 -394.806)" fill="#78b9eb"/>
      <path id="Path_330" data-name="Path 330" d="M187.023,407.313l-.109.028Z" transform="translate(-183.369 -393.091)" fill="#78b9eb"/>
      <path id="Path_331" data-name="Path 331" d="M238.285,332.4c.007.054.018.105.024.159C238.3,332.5,238.292,332.453,238.285,332.4Z" transform="translate(-229.274 -326.148)" fill="#78b9eb"/>
      <path id="Path_332" data-name="Path 332" d="M154.474,407.632a7.926,7.926,0,0,1-.874-.165A7.926,7.926,0,0,0,154.474,407.632Z" transform="translate(-153.6 -393.228)" fill="#78b9eb"/>
      <path id="Path_333" data-name="Path 333" d="M178.461,408.969c-.042.005-.081.014-.123.018C178.379,408.983,178.42,408.974,178.461,408.969Z" transform="translate(-175.706 -394.57)" fill="#78b9eb"/>
      <path id="Path_334" data-name="Path 334" d="M204.76,398.4c-.129.084-.262.163-.4.241C204.5,398.572,204.628,398.486,204.76,398.4Z" transform="translate(-198.963 -385.13)" fill="#78b9eb"/>
      <path id="Path_335" data-name="Path 335" d="M238.783,342.349c0,.079-.008.156-.012.234C238.775,342.505,238.782,342.422,238.783,342.349Z" transform="translate(-229.709 -335.039)" fill="#78b9eb"/>
      <path id="Path_336" data-name="Path 336" d="M237.753,351.053c-.015.107-.029.215-.049.32C237.723,351.266,237.739,351.16,237.753,351.053Z" transform="translate(-228.755 -342.817)" fill="#78b9eb"/>
      <path id="Path_337" data-name="Path 337" d="M187.631,275.277c.078.02.157.037.234.06C187.788,275.314,187.709,275.3,187.631,275.277Z" transform="translate(-184.01 -275.104)" fill="#78b9eb"/>
    </g>
    <path id="Path_338" data-name="Path 338" d="M10.349,200.081h1a1.806,1.806,0,0,1,1.691,1.171q.155.409.335.8a1.809,1.809,0,0,1-.363,2.03l-.709.716a1.817,1.817,0,0,0,0,2.566l2.566,2.566a1.817,1.817,0,0,0,2.566,0l.713-.71a1.809,1.809,0,0,1,2.03-.363q.4.181.8.335a1.807,1.807,0,0,1,1.173,1.69v1a1.815,1.815,0,0,0,1.816,1.816H27.6a1.815,1.815,0,0,0,1.816-1.816v-1a1.806,1.806,0,0,1,1.171-1.691q.409-.155.8-.335a1.809,1.809,0,0,1,2.03.363l.713.71a1.817,1.817,0,0,0,2.566,0l2.566-2.566a1.817,1.817,0,0,0,0-2.566l-.71-.713a1.809,1.809,0,0,1-.363-2.03q.181-.395.335-.8a1.807,1.807,0,0,1,1.693-1.174h1a1.815,1.815,0,0,0,1.816-1.816v-3.632a1.815,1.815,0,0,0-1.816-1.816h-1a1.806,1.806,0,0,1-1.691-1.171q-.155-.409-.335-.8a1.808,1.808,0,0,1,.363-2.03l.71-.713a1.817,1.817,0,0,0,0-2.566L36.7,182.968a1.817,1.817,0,0,0-2.566,0l-.713.71a1.809,1.809,0,0,1-2.03.363q-.4-.181-.8-.335a1.807,1.807,0,0,1-1.174-1.693v-1A1.815,1.815,0,0,0,27.6,179.2H23.968a1.815,1.815,0,0,0-1.816,1.816v1a1.806,1.806,0,0,1-1.171,1.691q-.409.155-.8.335a1.809,1.809,0,0,1-2.03-.363l-.716-.709a1.817,1.817,0,0,0-2.566,0L12.3,185.534a1.817,1.817,0,0,0,0,2.566l.71.713a1.807,1.807,0,0,1,.363,2.03q-.181.4-.335.8a1.806,1.806,0,0,1-1.693,1.171h-1a1.815,1.815,0,0,0-1.816,1.816v3.632A1.815,1.815,0,0,0,10.349,200.081Zm13.619-10.669a7.468,7.468,0,0,1,1.816-.227,7.272,7.272,0,0,1,.9.062c.086.01.171.025.255.039.221.035.437.08.65.134.078.02.157.037.234.06a7.073,7.073,0,0,1,.811.286c.032.014.061.031.091.044a7.229,7.229,0,0,1,.675.344c.074.043.145.091.218.132.182.115.363.239.536.369.057.044.117.084.173.13a7.653,7.653,0,0,1,.626.563c.037.038.07.079.106.118q.24.252.454.528c.053.067.1.136.154.206a6.2,6.2,0,0,1,.363.559c.033.055.069.109.1.165a7.277,7.277,0,0,1,.369.767c.024.061.044.124.068.182.08.212.151.427.211.647.024.085.045.171.066.257q.083.355.131.718c.007.054.018.105.024.159a7.276,7.276,0,0,1,.047.8.72.72,0,0,1-.005.108c0,.077-.008.156-.012.234-.011.233-.032.464-.064.692-.015.107-.03.213-.049.32-.031.162-.071.32-.112.479a8.975,8.975,0,0,1-1.09,2.6,2.031,2.031,0,0,1-.333.409,10.087,10.087,0,0,1-1.5,1.154l-.118.077c-.132.082-.263.168-.4.241a7.234,7.234,0,0,1-1.748.707l-.109.028a7.275,7.275,0,0,1-.79.148c-.041.005-.082.014-.123.018a7.22,7.22,0,0,1-.816.052h-.034c-.206,0-.407-.021-.608-.039-.1-.009-.2-.008-.3-.021a7.946,7.946,0,0,1-.874-.167,7.268,7.268,0,0,1,0-14.074Z" transform="translate(-7.625 -166.272)" fill="#ff5454"/>
    <g id="Group_110" data-name="Group 110" transform="translate(17.038 22.902)">
      <path id="Path_339" data-name="Path 339" d="M230.349,308.207a7.288,7.288,0,0,1,.369.767A7.282,7.282,0,0,0,230.349,308.207Z" transform="translate(-223.057 -304.468)" fill="#78b9eb"/>
      <path id="Path_340" data-name="Path 340" d="M234.453,317.158c.08.212.151.427.211.646C234.6,317.585,234.533,317.37,234.453,317.158Z" transform="translate(-226.724 -312.467)" fill="#78b9eb"/>
      <path id="Path_341" data-name="Path 341" d="M238.559,334.684a7.479,7.479,0,0,0-.044-.792,7.268,7.268,0,0,1,.039.9A.725.725,0,0,0,238.559,334.684Z" transform="translate(-230.354 -327.42)" fill="#78b9eb"/>
      <path id="Path_342" data-name="Path 342" d="M237.056,325.649q.083.355.131.718Q237.139,326,237.056,325.649Z" transform="translate(-229.051 -320.054)" fill="#78b9eb"/>
      <path id="Path_343" data-name="Path 343" d="M181.521,274.014c.221.035.437.08.65.134C181.958,274.095,181.742,274.048,181.521,274.014Z" transform="translate(-179.425 -273.913)" fill="#78b9eb"/>
      <path id="Path_344" data-name="Path 344" d="M170.667,273.067a7.284,7.284,0,0,1,.9.062A7.285,7.285,0,0,0,170.667,273.067Z" transform="translate(-169.725 -273.067)" fill="#78b9eb"/>
      <path id="Path_345" data-name="Path 345" d="M198.315,278.946a7.02,7.02,0,0,1,.675.344A7.27,7.27,0,0,0,198.315,278.946Z" transform="translate(-194.432 -278.32)" fill="#78b9eb"/>
      <path id="Path_346" data-name="Path 346" d="M189.833,275.84a7.087,7.087,0,0,1,.811.286A7.087,7.087,0,0,0,189.833,275.84Z" transform="translate(-186.852 -275.545)" fill="#78b9eb"/>
      <path id="Path_347" data-name="Path 347" d="M225.963,301.4a6.2,6.2,0,0,1,.363.559A6.48,6.48,0,0,0,225.963,301.4Z" transform="translate(-219.138 -298.383)" fill="#78b9eb"/>
      <path id="Path_348" data-name="Path 348" d="M220.254,294.5q.238.252.454.527Q220.494,294.755,220.254,294.5Z" transform="translate(-214.036 -292.221)" fill="#78b9eb"/>
      <path id="Path_349" data-name="Path 349" d="M206.7,283.418c.182.115.363.239.536.369C207.065,283.657,206.887,283.533,206.7,283.418Z" transform="translate(-201.927 -282.317)" fill="#78b9eb"/>
      <path id="Path_350" data-name="Path 350" d="M213.333,288.1a7.2,7.2,0,0,1,.626.563A7.686,7.686,0,0,0,213.333,288.1Z" transform="translate(-207.852 -286.502)" fill="#78b9eb"/>
      <path id="Path_351" data-name="Path 351" d="M189.686,400.666a7.78,7.78,0,0,1-1.748.707A7.23,7.23,0,0,0,189.686,400.666Z" transform="translate(-185.159 -387.089)" fill="#78b9eb"/>
      <path id="Path_352" data-name="Path 352" d="M180.246,407.578a7.291,7.291,0,0,1-.79.148A7.291,7.291,0,0,0,180.246,407.578Z" transform="translate(-177.579 -393.266)" fill="#78b9eb"/>
      <path id="Path_353" data-name="Path 353" d="M170.393,409.188a7.254,7.254,0,0,0,.817-.049,7.216,7.216,0,0,1-.85.047Z" transform="translate(-169.451 -394.661)" fill="#78b9eb"/>
      <path id="Path_354" data-name="Path 354" d="M162.118,409.041c-.1-.009-.2-.008-.3-.021C161.916,409.033,162.019,409.032,162.118,409.041Z" transform="translate(-161.818 -394.554)" fill="#78b9eb"/>
      <path id="Path_355" data-name="Path 355" d="M238.229,344.55c-.01.229-.033.459-.064.692C238.2,345.014,238.219,344.783,238.229,344.55Z" transform="translate(-230.041 -336.944)" fill="#78b9eb"/>
      <path id="Path_356" data-name="Path 356" d="M208.2,397.653c-.039.025-.078.053-.118.077Z" transform="translate(-203.163 -384.397)" fill="#78b9eb"/>
      <path id="Path_357" data-name="Path 357" d="M236.767,354.065c-.029.159-.073.32-.112.479C236.7,354.385,236.736,354.228,236.767,354.065Z" transform="translate(-228.692 -345.447)" fill="#78b9eb"/>
    </g>
    <g id="Group_111" data-name="Group 111" transform="translate(0 12.018)">
      <path id="Path_358" data-name="Path 358" d="M33.595,184.286h-1a.892.892,0,0,1-.841-.587c-.111-.291-.23-.575-.358-.856a.9.9,0,0,1,.182-1.013l.712-.713a2.73,2.73,0,0,0,0-3.849L29.72,174.7a2.73,2.73,0,0,0-3.85,0l-.712.711a.9.9,0,0,1-1.013.182c-.281-.128-.566-.247-.857-.363a.893.893,0,0,1-.589-.843v-1a2.724,2.724,0,0,0-2.724-2.724H16.343a2.724,2.724,0,0,0-2.724,2.724v1a.892.892,0,0,1-.587.841c-.291.111-.575.23-.856.358a.9.9,0,0,1-1.013-.182l-.713-.712a2.731,2.731,0,0,0-3.849,0l-2.566,2.574a2.73,2.73,0,0,0,0,3.85l.711.712a.9.9,0,0,1,.182,1.013c-.128.281-.247.566-.359.857a.893.893,0,0,1-.847.586h-1A2.724,2.724,0,0,0,0,187.01v3.632a2.724,2.724,0,0,0,2.724,2.724h1a.892.892,0,0,1,.841.587c.111.291.23.575.358.856a.9.9,0,0,1-.182,1.013l-.712.713a2.731,2.731,0,0,0,0,3.849l2.566,2.566a2.73,2.73,0,0,0,3.85,0l.712-.711a.9.9,0,0,1,1.013-.182c.281.128.566.247.857.363a.891.891,0,0,1,.594.843v1a2.724,2.724,0,0,0,2.724,2.724h3.632a2.724,2.724,0,0,0,2.724-2.724v-1a.892.892,0,0,1,.587-.841c.291-.111.575-.23.856-.358a.9.9,0,0,1,1.013.182l.713.712a2.732,2.732,0,0,0,3.849,0l2.566-2.566a2.73,2.73,0,0,0,0-3.85l-.711-.712a.9.9,0,0,1-.182-1.013c.128-.281.247-.566.363-.857a.893.893,0,0,1,.843-.589h1a2.724,2.724,0,0,0,2.724-2.724v-3.632A2.724,2.724,0,0,0,33.595,184.286Zm.908,6.356a.908.908,0,0,1-.908.908h-1a2.733,2.733,0,0,0-2.542,1.756q-.144.381-.312.751a2.732,2.732,0,0,0,.545,3.047l.71.711a.908.908,0,0,1,0,1.284h0l-2.566,2.566a.909.909,0,0,1-1.284,0l-.712-.711a2.73,2.73,0,0,0-3.047-.545c-.246.112-.5.216-.749.312a2.732,2.732,0,0,0-1.755,2.54v1a.908.908,0,0,1-.908.908H16.343a.908.908,0,0,1-.908-.908v-1a2.733,2.733,0,0,0-1.756-2.542q-.381-.144-.751-.312a2.733,2.733,0,0,0-3.047.545l-.711.71a.908.908,0,0,1-1.284,0h0L5.32,199.1a.909.909,0,0,1,0-1.284l.711-.712a2.732,2.732,0,0,0,.545-3.047c-.112-.246-.216-.5-.312-.749a2.732,2.732,0,0,0-2.54-1.758h-1a.908.908,0,0,1-.908-.908V187.01a.908.908,0,0,1,.908-.908h1a2.733,2.733,0,0,0,2.542-1.756q.144-.381.312-.751a2.732,2.732,0,0,0-.545-3.047l-.714-.711a.908.908,0,0,1,0-1.284h0l2.566-2.566a.909.909,0,0,1,1.284,0l.712.711a2.73,2.73,0,0,0,3.047.545c.246-.112.5-.216.749-.312a2.732,2.732,0,0,0,1.759-2.54v-1a.908.908,0,0,1,.908-.908h3.632a.908.908,0,0,1,.908.908v1a2.733,2.733,0,0,0,1.756,2.542q.381.144.751.312a2.73,2.73,0,0,0,3.047-.545l.711-.71a.913.913,0,0,1,1.285,0L31,178.555a.909.909,0,0,1,0,1.284l-.711.712a2.732,2.732,0,0,0-.545,3.047c.112.246.216.5.312.749A2.732,2.732,0,0,0,32.6,186.1h1a.908.908,0,0,1,.908.908v3.632Z" transform="translate(-0.159 -170.667)" fill="#231f20"/>
      <path id="Path_359" data-name="Path 359" d="M110.15,272.342c-.009-.218-.024-.435-.051-.651-.029-.232-.064-.463-.112-.689-.032-.148-.074-.294-.113-.441q-.076-.281-.172-.553c-.044-.126-.091-.252-.138-.376a8.127,8.127,0,0,0-.4-.85c-.012-.021-.019-.044-.031-.064a8,8,0,0,0-.817-1.19c-.026-.033-.056-.063-.084-.1-.125-.148-.254-.291-.39-.429-.071-.074-.145-.143-.22-.213-.091-.085-.182-.168-.272-.248q-.165-.143-.337-.278l-.149-.111a8.113,8.113,0,0,0-4.869-1.62c-.091,0-.182.014-.272.017-.193.005-.388.016-.583.036-.1.011-.206.023-.309.037a8.285,8.285,0,0,0-.88.164,8.176,8.176,0,0,0,.006,15.834.206.206,0,0,1,.045.008,8.637,8.637,0,0,0,.952.182c.212.026.423.032.636.042.142.007.272.028.42.028.259,0,.528-.017.8-.044a.9.9,0,0,0,.091-.012c.221-.024.444-.057.672-.1.091-.017.175-.04.262-.06.16-.037.319-.076.482-.124.127-.038.251-.083.375-.126s.253-.091.382-.14.237-.105.354-.16c.153-.07.3-.139.454-.221h.005a10.766,10.766,0,0,0,2.327-1.681,2.872,2.872,0,0,0,.487-.6,9.688,9.688,0,0,0,1.367-3.732c.025-.175.048-.351.062-.529s.022-.328.025-.491c0-.052.007-.1.007-.153C110.168,272.584,110.155,272.466,110.15,272.342ZM100.4,266.55a6.555,6.555,0,0,1,1.6-.2,6.366,6.366,0,0,1,.776.053c.069.008.137.021.205.031.2.031.39.07.582.119.063.016.125.031.187.048a6.383,6.383,0,0,1,1.385.583c.07.041.138.084.207.126.143.091.282.182.419.285.074.054.148.106.219.163a6.749,6.749,0,0,1,.511.454c.064.065.124.137.186.205.1.113.206.23.3.352.067.084.132.172.2.26.091.131.182.267.263.4l.137.226a6.149,6.149,0,0,1,.312.666c.036.091.067.182.1.272.059.167.11.336.154.507.023.091.048.172.067.26a6.432,6.432,0,0,1,.115.744c.005.066.005.133.01.2.013.209.016.419.008.629,0,.075-.006.151-.011.225-.016.22-.044.44-.082.66a6.371,6.371,0,0,1-3.191,4.449c-.113.059-.223.114-.334.165l-.075.036a6.558,6.558,0,0,1-1.656.5l-.122.019c-.114.016-.225.03-.336.04-.146.013-.293.02-.443.023h-.19a6.369,6.369,0,0,1-.643-.04L101.15,279a6.62,6.62,0,0,1-.742-.14,6.356,6.356,0,0,1-.006-12.313Z" transform="translate(-83.986 -254.557)" fill="#231f20"/>
    </g>
  </g>
</svg>
