<svg id="Capa_1" enable-background="new 0 0 512 512" height="512" viewBox="0 0 512 512" width="512" xmlns="http://www.w3.org/2000/svg"><g><path d="m161.112 185.164c-.926 7.519 3.9 14.547 11.25 16.385l280 70c1.202.3 2.423.448 3.637.448 3.312 0 6.568-1.097 9.232-3.177 3.641-2.843 5.769-7.204 5.769-11.823v-70z" fill="#4793ff"/><path d="m176 171.997h321c8.284 0 15 6.716 15 15s-6.716 15-15 15h-321z" fill="#ff6378"/><path d="m497 171.997h-241v30h241c8.284 0 15-6.716 15-15s-6.716-15-15-15z" fill="#d0004f"/><path d="m41 156.997v340c0 8.284 6.716 15 15 15h400c8.284 0 15-6.716 15-15v-240z" fill="#8bb9ff"/><path d="m256 511.997h200c8.284 0 15-6.716 15-15v-240l-215-50z" fill="#4793ff"/><path d="m301 511.997h120v-165c0-8.284-6.716-15-15-15h-90c-8.284 0-15 6.716-15 15z" fill="#453d81"/><g fill="#2e2654"><path d="m301 361.997h120v30h-120z"/><path d="m301 421.997h120v30h-120z"/><path d="m301 481.997h120v30h-120z"/></g><g><g fill="#e1f0ff"><circle cx="256" cy="134.94" r="15"/><path d="m340.853 65.087c-3.839 0-7.678-1.464-10.606-4.394-40.939-40.939-107.553-40.939-148.492 0-5.857 5.858-15.355 5.858-21.213 0s-5.858-15.355 0-21.213c52.637-52.637 138.281-52.637 190.918 0 5.858 5.858 5.858 15.355 0 21.213-2.93 2.93-6.769 4.394-10.607 4.394z"/><path d="m298.427 107.513c-3.839 0-7.678-1.464-10.606-4.393-17.545-17.546-46.096-17.546-63.641 0-5.857 5.856-15.355 5.858-21.213 0s-5.858-15.355 0-21.213c29.242-29.241 76.824-29.241 106.066 0 5.858 5.858 5.858 15.355 0 21.213-2.929 2.929-6.767 4.393-10.606 4.393z"/></g><path d="m330.246 60.694c2.929 2.929 6.768 4.394 10.606 4.394s7.678-1.464 10.606-4.394c5.858-5.858 5.858-15.355 0-21.213-26.317-26.319-60.888-39.478-95.458-39.478v29.986c26.888 0 53.776 10.235 74.246 30.705z" fill="#bedcf0"/><path d="m287.82 103.12c2.929 2.929 6.768 4.393 10.606 4.393s7.678-1.464 10.606-4.394c5.858-5.858 5.858-15.355 0-21.213-14.62-14.62-33.826-21.93-53.032-21.93v29.985c11.524 0 23.048 4.386 31.82 13.159z" fill="#bedcf0"/><path d="m266.607 145.547c5.858-5.858 5.858-15.355 0-21.213-2.929-2.929-6.768-4.393-10.607-4.393v30c3.839-.001 7.678-1.465 10.607-4.394z" fill="#bedcf0"/></g><path d="m211 511.997h-120v-135c0-8.284 6.716-15 15-15h90c8.284 0 15 6.716 15 15z" fill="#4793ff"/><path d="m121 391.997h60v120h-60z" fill="#ffe278"/><circle cx="151" cy="286.997" fill="#4793ff" r="45"/><circle cx="151" cy="286.997" fill="#ffe278" r="15"/><path d="m497.009 282c-1.2 0-2.419-.145-3.636-.448l-481.994-120c-8.039-2.001-12.932-10.141-10.931-18.18s10.145-12.933 18.179-10.932l481.994 120c8.039 2.001 12.932 10.141 10.931 18.18-1.698 6.823-7.817 11.38-14.543 11.38z" fill="#ffa5b1"/><path d="m500.621 252.441-244.621-60.902v30.916l237.373 59.098c1.217.303 2.436.448 3.636.448 6.726 0 12.845-4.558 14.544-11.379 2-8.04-2.893-16.179-10.932-18.181z" fill="#ff6378"/></g></svg>