<svg id="Capa_1" enable-background="new 0 0 512 512" height="512" viewBox="0 0 512 512" width="512" xmlns="http://www.w3.org/2000/svg"><g><circle cx="256" cy="337" fill="#d5e7ff" r="160"/><path d="m416 337c0-88.365-71.635-160-160-160v320c88.365 0 160-71.635 160-160z" fill="#8bb9ff"/><path d="m256 162c-96.495 0-175 78.505-175 175s78.505 175 175 175 175-78.505 175-175-78.505-175-175-175zm-145 175c0-13.266 1.801-26.117 5.153-38.333h47.051c-1.453 12.444-2.204 25.284-2.204 38.333s.751 25.889 2.204 38.333h-47.051c-3.352-12.216-5.153-25.067-5.153-38.333zm80 0c0-13.141.832-25.992 2.421-38.333h47.579v76.667h-47.579c-1.589-12.342-2.421-25.193-2.421-38.334zm108.152-106.429c5.648 11.296 10.259 24.156 13.78 38.095h-41.932v-72.225c10.135 5.944 19.926 17.678 28.152 34.13zm-58.152-34.129v72.225h-41.932c3.521-13.939 8.132-26.8 13.78-38.095 8.226-16.453 18.017-28.187 28.152-34.13zm0 208.891v72.225c-10.135-5.944-19.926-17.677-28.152-34.13-5.648-11.296-10.259-24.156-13.78-38.095zm30 72.225v-72.225h41.933c-3.521 13.939-8.132 26.8-13.78 38.095-8.227 16.453-18.018 28.187-28.153 34.13zm0-102.225v-76.667h47.579c1.589 12.342 2.421 25.193 2.421 38.334s-.832 25.992-2.421 38.333zm77.796-76.666h47.051c3.352 12.216 5.153 25.067 5.153 38.333s-1.801 26.117-5.153 38.333h-47.051c1.453-12.444 2.204-25.284 2.204-38.333s-.751-25.889-2.204-38.333zm35.061-30h-40.098c-4.21-18.903-10.191-36.346-17.774-51.512-1.737-3.474-3.543-6.79-5.411-9.956 26.912 13.443 49.084 35.008 63.283 61.468zm-192.43-61.468c-1.868 3.166-3.674 6.482-5.411 9.956-7.583 15.166-13.564 32.608-17.774 51.512h-40.098c14.198-26.46 36.37-48.025 63.283-61.468zm-63.284 198.134h40.098c4.21 18.903 10.191 36.346 17.774 51.512 1.737 3.474 3.543 6.79 5.411 9.956-26.912-13.443-49.084-35.008-63.283-61.468zm192.43 61.468c1.867-3.166 3.674-6.482 5.411-9.956 7.583-15.166 13.564-32.608 17.774-51.512h40.098c-14.198 26.46-36.37 48.025-63.283 61.468z" fill="#8bb9ff"/><path d="m431 337c0-96.495-78.505-175-175-175v350c96.495 0 175-78.505 175-175zm-110.427 129.801c1.867-3.166 3.674-6.482 5.411-9.956 7.583-15.166 13.564-32.608 17.774-51.512h40.098c-14.198 26.46-36.37 48.025-63.283 61.468zm80.427-129.801c0 13.266-1.801 26.117-5.153 38.333h-47.051c1.453-12.444 2.204-25.284 2.204-38.333s-.751-25.889-2.204-38.333h47.051c3.352 12.216 5.153 25.067 5.153 38.333zm-17.143-68.333h-40.098c-4.21-18.903-10.191-36.346-17.774-51.512-1.737-3.474-3.543-6.79-5.411-9.956 26.912 13.443 49.084 35.008 63.283 61.468zm-112.857-72.225c10.135 5.944 19.926 17.677 28.152 34.13 5.648 11.296 10.259 24.156 13.78 38.095h-41.932zm0 102.225h47.579c1.589 12.341 2.421 25.192 2.421 38.333s-.832 25.992-2.421 38.333h-47.579zm0 106.666h41.933c-3.521 13.939-8.132 26.8-13.78 38.095-8.227 16.452-18.018 28.186-28.152 34.13v-72.225z" fill="#4793ff"/><g><path d="m256 192c-5.201 0-10.032-2.695-12.764-7.121l-47.473-76.906c-13.673-22.148-14.265-48.941-1.584-71.671 12.682-22.732 35.793-36.302 61.821-36.302s49.139 13.57 61.82 36.301c12.681 22.73 12.089 49.523-1.584 71.672l-47.473 76.906c-2.731 4.426-7.562 7.121-12.763 7.121z" fill="#ff6378"/><path d="m268.764 184.879 47.473-76.906c13.673-22.148 14.265-48.942 1.584-71.672-12.682-22.731-35.793-36.301-61.821-36.301v192c5.201 0 10.032-2.695 12.764-7.121z" fill="#d0004f"/><circle cx="256" cy="70.515" fill="#e1f0ff" r="30"/><path d="m286 70.515c0-16.569-13.431-30-30-30v60c16.569 0 30-13.431 30-30z" fill="#bedcf0"/></g><g><path d="m415.636 352c-5.201 0-10.032-2.695-12.764-7.121l-47.472-76.906c-13.673-22.148-14.265-48.941-1.584-71.671 12.681-22.732 35.792-36.302 61.82-36.302s49.139 13.57 61.82 36.301c12.681 22.73 12.089 49.523-1.584 71.672l-47.472 76.906c-2.732 4.426-7.563 7.121-12.764 7.121z" fill="#ff6378"/><path d="m428.4 344.879 47.473-76.906c13.673-22.148 14.265-48.942 1.584-71.672-12.682-22.731-35.793-36.301-61.821-36.301v192c5.201 0 10.032-2.695 12.764-7.121z" fill="#d0004f"/><circle cx="415.636" cy="230.515" fill="#e1f0ff" r="30"/><path d="m445.636 230.515c0-16.569-13.431-30-30-30v60c16.568 0 30-13.431 30-30z" fill="#bedcf0"/></g><g><path d="m96.364 352c-5.201 0-10.032-2.695-12.764-7.121l-47.473-76.906c-13.673-22.148-14.265-48.941-1.584-71.671 12.682-22.732 35.793-36.302 61.821-36.302s49.139 13.57 61.82 36.301c12.681 22.73 12.089 49.523-1.584 71.672l-47.473 76.906c-2.731 4.426-7.562 7.121-12.763 7.121z" fill="#ff6378"/><path d="m109.128 344.879 47.473-76.906c13.673-22.148 14.265-48.942 1.584-71.672-12.682-22.731-35.793-36.301-61.821-36.301v192c5.201 0 10.032-2.695 12.764-7.121z" fill="#d0004f"/><circle cx="96.364" cy="230.515" fill="#e1f0ff" r="30"/><path d="m126.364 230.515c0-16.569-13.431-30-30-30v60c16.569 0 30-13.431 30-30z" fill="#bedcf0"/></g></g></svg>