<svg id="Capa_1" enable-background="new 0 0 512 512" height="512" viewBox="0 0 512 512" width="512" xmlns="http://www.w3.org/2000/svg"><g><circle cx="256" cy="256" fill="#e1f0ff" r="220"/><path d="m476 256c0-121.503-98.497-220-220-220v440c121.503 0 220-98.497 220-220z" fill="#bedcf0"/><path d="m497 241h-6.485c-3.575-57.126-27.514-110.339-68.345-151.17s-94.044-64.769-151.17-68.345v-6.485c0-8.284-6.716-15-15-15s-15 6.716-15 15v6.485c-57.126 3.576-110.339 27.514-151.17 68.345s-64.769 94.044-68.345 151.17h-6.485c-8.284 0-15 6.716-15 15s6.716 15 15 15h6.485c3.575 57.126 27.514 110.339 68.345 151.17s94.044 64.77 151.17 68.345v6.485c0 8.284 6.716 15 15 15s15-6.716 15-15v-6.485c57.126-3.575 110.339-27.514 151.17-68.345s64.77-94.044 68.345-151.17h6.485c8.284 0 15-6.716 15-15s-6.716-15-15-15zm-36.551 0h-30.099c-7.212-84.553-74.797-152.138-159.35-159.35v-30.099c101.106 7.347 182.102 88.343 189.449 189.449zm-219.449-189.449v65.449c0 8.284 6.716 15 15 15s15-6.716 15-15v-5.228c68 7.021 122.207 61.228 129.228 129.228h-5.228c-8.284 0-15 6.716-15 15s6.716 15 15 15h5.228c-7.021 68-61.228 122.207-129.228 129.228v-5.228c0-8.284-6.716-15-15-15s-15 6.716-15 15v5.228c-68-7.021-122.207-61.228-129.228-129.228h5.228c8.284 0 15-6.716 15-15s-6.716-15-15-15h-65.449c7.347-101.106 88.343-182.102 189.449-189.449zm-189.449 219.449h30.099c7.213 84.553 74.797 152.138 159.35 159.35v30.099c-101.106-7.347-182.102-88.343-189.449-189.449zm219.449 189.449v-30.099c84.553-7.213 152.138-74.797 159.35-159.35h30.099c-7.347 101.106-88.343 182.102-189.449 189.449z" fill="#5e54ac"/><path d="m497 241h-6.485c-3.575-57.126-27.514-110.339-68.345-151.17s-94.044-64.769-151.17-68.345v-6.485c0-8.284-6.716-15-15-15v132c8.284 0 15-6.716 15-15v-5.228c68 7.021 122.207 61.228 129.228 129.228h-5.228c-8.284 0-15 6.716-15 15s6.716 15 15 15h5.228c-7.021 68-61.228 122.207-129.228 129.228v-5.228c0-8.284-6.716-15-15-15v132c8.284 0 15-6.716 15-15v-6.485c57.126-3.575 110.339-27.514 151.17-68.345s64.77-94.044 68.345-151.17h6.485c8.284 0 15-6.716 15-15s-6.716-15-15-15zm-226 219.449v-30.099c84.553-7.213 152.138-74.797 159.35-159.35h30.099c-7.347 101.106-88.343 182.102-189.449 189.449zm159.35-219.449c-7.212-84.553-74.797-152.138-159.35-159.35v-30.099c101.106 7.347 182.102 88.343 189.449 189.449z" fill="#453d81"/><path d="m248.718 351.033c-30.094 0-32.307-.738-34.328-1.412-4.999-1.665-8.735-5.443-10.25-10.364-2.371-7.705 1.81-13.792 3.595-16.392 1.542-2.245 3.809-5.213 7.239-9.705 7.981-10.45 22.837-29.902 47.729-65.467 7.403-10.578 12.177-20.052 14.197-28.175l.538-4.208c-.447-13.481-11.553-24.31-25.141-24.31-11.996 0-22.376 8.521-24.683 20.263-1.597 8.128-9.482 13.42-17.609 11.828-8.129-1.597-13.425-9.48-11.828-17.609 5.062-25.775 27.823-44.482 54.12-44.482 30.413 0 55.155 24.742 55.155 55.155 0 .636-.041 1.271-.121 1.901l-.776 6.07c-.064.5-.153.996-.267 1.486-2.789 12.031-9.184 25.247-19.007 39.282-18.63 26.618-31.736 44.362-40.586 56.104h.771c14.751 0 33.678-.137 51.449-.36.064-.001.128-.001.192-.001 8.196 0 14.892 6.592 14.995 14.812.104 8.283-6.527 15.083-14.811 15.188-22.372.281-38.658.396-50.573.396z" fill="#ff6378"/><g fill="#d0004f"><path d="m306.289 225.613c.114-.49.203-.986.267-1.486l.776-6.07c.081-.63.121-1.266.121-1.901 0-29.167-22.762-53.104-51.453-55.017v30.135c11.85 1.756 21.033 11.804 21.438 24.038l-.538 4.208c-2.021 8.123-6.794 17.597-14.197 28.175-2.321 3.316-4.555 6.492-6.704 9.534v51.294c8.041-10.895 18.321-25.109 31.282-43.626 9.824-14.037 16.219-27.252 19.008-39.284z"/><path d="m299.108 320.638c-.064 0-.128 0-.192.001-14.502.182-29.772.307-42.916.347v30.035c11.046-.037 25.172-.156 43.292-.384 8.284-.104 14.915-6.904 14.811-15.188-.103-8.22-6.799-14.811-14.995-14.811z"/></g></g></svg>