<svg id="Capa_1" enable-background="new 0 0 512 512" height="512" viewBox="0 0 512 512" width="512" xmlns="http://www.w3.org/2000/svg"><g><path d="m308.868 218.132c3.839 0 7.678-1.464 10.606-4.394l136.92-136.919c5.858-5.858 5.858-15.355 0-21.213-5.857-5.858-15.355-5.858-21.213 0l-136.919 136.919c-5.858 5.858-5.858 15.355 0 21.213 2.928 2.929 6.767 4.394 10.606 4.394z" fill="#453d81"/><path d="m355.366 271h81.634c8.284 0 15-6.716 15-15s-6.716-15-15-15h-81.634c-8.284 0-15 6.716-15 15s6.716 15 15 15z" fill="#453d81"/><path d="m383.279 398.279c3.839 0 7.678-1.464 10.606-4.394 5.858-5.858 5.858-15.355 0-21.213l-52.279-52.279c-5.857-5.858-15.355-5.858-21.213 0s-5.858 15.355 0 21.213l52.279 52.279c2.93 2.93 6.768 4.394 10.607 4.394z" fill="#453d81"/><path d="m256 452c-8.284 0-15-6.716-15-15v-106c0-8.284 6.716-15 15-15s15 6.716 15 15v106c0 8.284-6.716 15-15 15z" fill="#5e54ac"/><path d="m271 437v-106c0-8.284-6.716-15-15-15v136c8.284 0 15-6.716 15-15z" fill="#453d81"/><path d="m66.213 460.787c3.839 0 7.678-1.464 10.606-4.394l114.787-114.787c5.858-5.858 5.858-15.355 0-21.213-5.857-5.858-15.355-5.858-21.213 0l-114.787 114.787c-5.858 5.858-5.858 15.355 0 21.213 2.929 2.929 6.768 4.394 10.607 4.394z" fill="#5e54ac"/><path d="m75 271h81.704c8.284 0 15-6.716 15-15s-6.716-15-15-15h-81.704c-8.284 0-15 6.716-15 15s6.716 15 15 15z" fill="#5e54ac"/><path d="m192.439 207.439c3.839 0 7.678-1.464 10.606-4.394 5.858-5.858 5.858-15.355 0-21.213l-63.719-63.719c-5.857-5.858-15.355-5.858-21.213 0s-5.858 15.355 0 21.213l63.719 63.719c2.93 2.93 6.769 4.394 10.607 4.394z" fill="#5e54ac"/><path d="m256 204.94c-8.284 0-15-6.716-15-15v-114.94c0-8.284 6.716-15 15-15s15 6.716 15 15v114.94c0 8.285-6.716 15-15 15z" fill="#5e54ac"/><path d="m271 189.94v-114.94c0-8.284-6.716-15-15-15v144.94c8.284 0 15-6.715 15-15z" fill="#453d81"/><g fill="#ffe278"><path d="m0 256c0-24.813 20.187-45 45-45s45 20.187 45 45-20.187 45-45 45-45-20.187-45-45z"/><path d="m422 256c0-24.813 20.187-45 45-45s45 20.187 45 45-20.187 45-45 45-45-20.187-45-45z"/><path d="m75.687 139.327c-17.543-17.545-17.543-46.093.001-63.639s46.094-17.546 63.64 0c17.546 17.545 17.546 46.094 0 63.639-8.772 8.773-20.296 13.159-31.819 13.159-11.526 0-23.049-4.386-31.822-13.159z"/><path d="m372.673 436.312c-17.546-17.545-17.546-46.094 0-63.639 17.546-17.547 46.095-17.545 63.641 0 17.543 17.545 17.543 46.093 0 63.638-.001 0-.001 0-.001 0-8.772 8.773-20.296 13.159-31.82 13.159-11.524.001-23.048-4.385-31.82-13.158z"/><path d="m256 90c-24.813 0-45-20.187-45-45s20.187-45 45-45 45 20.187 45 45-20.187 45-45 45z"/><path d="m256 512c-24.813 0-45-20.187-45-45s20.187-45 45-45 45 20.187 45 45-20.187 45-45 45z"/><path d="m422 45c0-24.813 20.187-45 45-45s45 20.187 45 45-20.187 45-45 45-45-20.187-45-45z"/><path d="m0 467c0-24.813 20.187-45 45-45s45 20.187 45 45-20.187 45-45 45-45-20.187-45-45z"/></g><path d="m301 45c0-24.813-20.187-45-45-45v90c24.813 0 45-20.187 45-45z" fill="#ffb454"/><path d="m152.487 107.486c0-24.813-20.187-45-45-45v90c24.813 0 45-20.187 45-45z" fill="#ffb454"/><path d="m512 256c0-24.813-20.187-45-45-45v90c24.813 0 45-20.187 45-45z" fill="#ffb454"/><path d="m90 256c0-24.813-20.187-45-45-45v90c24.813 0 45-20.187 45-45z" fill="#ffb454"/><path d="m449.471 404.471c0-24.813-20.187-45-45-45v90c24.813 0 45-20.187 45-45z" fill="#ffb454"/><path d="m512 45c0-24.813-20.187-45-45-45v90c24.813 0 45-20.187 45-45z" fill="#ffb454"/><path d="m301 467c0-24.813-20.187-45-45-45v90c24.813 0 45-20.187 45-45z" fill="#ffb454"/><path d="m90 467c0-24.813-20.187-45-45-45v90c24.813 0 45-20.187 45-45z" fill="#ffb454"/><path d="m121 291c0-23.096 14.517-43.191 35.105-51.226-.07-1.259-.105-2.518-.105-3.774 0-38.598 31.402-70 70-70 19.849 0 38.714 8.598 51.859 23.086 19.524-6.844 41.803-2.206 57.031 13.023 9.665 9.665 15.24 22.565 15.974 35.932 23.128 6.5 40.136 27.781 40.136 52.959 0 30.327-24.673 55-55 55h-160c-30.327 0-55-24.673-55-55z" fill="#e1f0ff"/><path d="m350.864 238.041c-.733-13.367-6.309-26.267-15.974-35.932-15.229-15.229-37.507-19.867-57.031-13.023-6.182-6.813-13.64-12.303-21.859-16.23v173.144h80c30.327 0 55-24.673 55-55 0-25.178-17.008-46.459-40.136-52.959z" fill="#bedcf0"/></g></svg>