<svg id="Capa_1" enable-background="new 0 0 512 512" height="512" viewBox="0 0 512 512" width="512" xmlns="http://www.w3.org/2000/svg"><g><path d="m366 0h-220c-30.327 0-55 24.673-55 55v402c0 30.327 24.673 55 55 55h220c30.327 0 55-24.673 55-55v-402c0-30.327-24.673-55-55-55z" fill="#e1f0ff"/><path d="m366 0h-110v512h110c30.327 0 55-24.673 55-55v-402c0-30.327-24.673-55-55-55z" fill="#bedcf0"/><path d="m121 92h270v290h-270z" fill="#5e54ac"/><path d="m256 92h135v290h-135z" fill="#453d81"/><path d="m286 462h-60c-8.284 0-15-6.716-15-15s6.716-15 15-15h60c8.284 0 15 6.716 15 15s-6.716 15-15 15z" fill="#5e54ac"/><path d="m286 432h-30v30h30c8.284 0 15-6.716 15-15s-6.716-15-15-15z" fill="#453d81"/><circle cx="346" cy="447" fill="#453d81" r="15"/><circle cx="166" cy="447" fill="#5e54ac" r="15"/><g><path d="m226 122h-60c-8.284 0-15 6.716-15 15v60c0 8.284 6.716 15 15 15h60c8.284 0 15-6.716 15-15v-60c0-8.284-6.716-15-15-15z" fill="#00ff93"/><path d="m286 212h60c8.284 0 15-6.716 15-15v-60c0-8.284-6.716-15-15-15h-60c-8.284 0-15 6.716-15 15v60c0 8.284 6.716 15 15 15z" fill="#ffb454"/><path d="m226 242h-60c-8.284 0-15 6.716-15 15v60c0 8.284 6.716 15 15 15h60c8.284 0 15-6.716 15-15v-60c0-8.284-6.716-15-15-15z" fill="#ff6378"/><path d="m349.639 299.427 14.142-14.142c3.798-3.798 5.275-9.336 3.874-14.521s-5.468-9.225-10.663-10.592l-67.175-17.678c-5.159-1.356-10.652.128-14.424 3.9s-5.257 9.265-3.9 14.424l17.678 67.175c1.367 5.194 5.407 9.261 10.592 10.663 1.293.35 2.608.521 3.914.521 3.926 0 7.757-1.543 10.607-4.394l14.142-14.142 10.607 10.607c2.929 2.929 6.768 4.394 10.606 4.394s7.678-1.464 10.606-4.394c5.858-5.858 5.858-15.355 0-21.213z" fill="#bedcf0"/></g></g></svg>