<svg id="Capa_1" enable-background="new 0 0 512 512" height="512" viewBox="0 0 512 512" width="512" xmlns="http://www.w3.org/2000/svg"><g><path d="m327 512h-165c-24.813 0-45-20.187-45-45v-50c0-8.284 6.716-15 15-15s15 6.716 15 15v50c0 8.271 6.729 15 15 15h165c8.271 0 15-6.729 15-15v-70c0-8.284 6.716-15 15-15s15 6.716 15 15v70c0 24.813-20.187 45-45 45z" fill="#5e54ac"/><path d="m357 382c-8.284 0-15 6.716-15 15v70c0 8.271-6.729 15-15 15h-71v30h71c24.813 0 45-20.187 45-45v-70c0-8.284-6.716-15-15-15z" fill="#453d81"/><path d="m467 412h-422c-24.813 0-45-20.187-45-45v-302c0-24.813 20.187-45 45-45h422c24.813 0 45 20.187 45 45v302c0 24.813-20.187 45-45 45z" fill="#8bb9ff"/><path d="m467 20h-211v392h211c24.813 0 45-20.187 45-45v-302c0-24.813-20.187-45-45-45z" fill="#4793ff"/><path d="m187 432h-100c-19.299 0-35-15.701-35-35v-58.787c0-17.686 6.887-34.313 19.394-46.819 6.839-6.84 10.606-15.934 10.606-25.607v-99.574c0-9.673-3.767-18.767-10.606-25.606-12.507-12.506-19.394-29.134-19.394-46.82v-58.787c0-19.299 15.701-35 35-35h100c19.299 0 35 15.701 35 35v58.787c0 17.686-6.887 34.313-19.394 46.819-6.84 6.84-10.606 15.934-10.606 25.606v99.574c0 9.673 3.767 18.767 10.606 25.606 12.507 12.507 19.394 29.135 19.394 46.821v58.787c0 19.299-15.701 35-35 35z" fill="#4793ff"/><path d="m447 170h-160c-8.284 0-15-6.716-15-15v-60c0-8.284 6.716-15 15-15h160c8.284 0 15 6.716 15 15v60c0 8.284-6.716 15-15 15z" fill="#2ebeef"/><g fill="#453d81"><circle cx="297" cy="217" r="15"/><circle cx="367" cy="217" r="15"/><circle cx="437" cy="217" r="15"/><circle cx="297" cy="277" r="15"/><circle cx="367" cy="277" r="15"/><circle cx="437" cy="277" r="15"/><circle cx="297" cy="337" r="15"/><circle cx="367" cy="337" r="15"/><circle cx="437" cy="337" r="15"/></g></g></svg>