<svg id="Capa_1" enable-background="new 0 0 512 512" height="512" viewBox="0 0 512 512" width="512" xmlns="http://www.w3.org/2000/svg"><g><path d="m286 0h-220c-30.327 0-55 24.673-55 55v402c0 30.327 24.673 55 55 55h220c30.327 0 55-24.673 55-55v-402c0-30.327-24.673-55-55-55z" fill="#e1f0ff"/><path d="m286 0h-110v512h110c30.327 0 55-24.673 55-55v-402c0-30.327-24.673-55-55-55z" fill="#bedcf0"/><path d="m41 92h270v290h-270z" fill="#ff6378"/><path d="m176 92h135v290h-135z" fill="#d0004f"/><path d="m206 462h-60c-8.284 0-15-6.716-15-15s6.716-15 15-15h60c8.284 0 15 6.716 15 15s-6.716 15-15 15z" fill="#5e54ac"/><path d="m186 192h-100c-8.284 0-15-6.716-15-15s6.716-15 15-15h100c8.284 0 15 6.716 15 15s-6.716 15-15 15z" fill="#5e54ac"/><path d="m186 162h-10v30h10c8.284 0 15-6.716 15-15s-6.716-15-15-15z" fill="#453d81"/><path d="m206 432h-30v30h30c8.284 0 15-6.716 15-15s-6.716-15-15-15z" fill="#453d81"/><path d="m156 252h-70c-8.284 0-15-6.716-15-15s6.716-15 15-15h70c8.284 0 15 6.716 15 15s-6.716 15-15 15z" fill="#5e54ac"/><path d="m126 312h-40c-8.284 0-15-6.716-15-15s6.716-15 15-15h40c8.284 0 15 6.716 15 15s-6.716 15-15 15z" fill="#5e54ac"/><circle cx="266" cy="447" fill="#453d81" r="15"/><circle cx="86" cy="447" fill="#5e54ac" r="15"/><path d="m486 332h-240c-8.284 0-15-6.716-15-15v-160c0-8.284 6.716-15 15-15h240c8.284 0 15 6.716 15 15v160c0 8.284-6.716 15-15 15z" fill="#ec8600"/><path d="m486 142h-120v190h120c8.284 0 15-6.716 15-15v-160c0-8.284-6.716-15-15-15z" fill="#eb9600"/><path d="m501 317v-7.5l-135-101.25-135 101.25v7.5c0 8.284 6.716 15 15 15h240c8.284 0 15-6.716 15-15z" fill="#ffb454"/><path d="m486 332c8.284 0 15-6.716 15-15v-7.5l-135-101.25v123.75z" fill="#ec8600"/><path d="m231 157v7.5l126 94.5c5.333 4 12.667 4 18 0l126-94.5v-7.5c0-8.284-6.716-15-15-15h-240c-8.284 0-15 6.716-15 15z" fill="#ffe278"/><path d="m486 142h-120v120c3.167 0 6.333-1 9-3l126-94.5v-7.5c0-8.284-6.716-15-15-15z" fill="#ffb454"/></g></svg>