<svg id="Capa_1" enable-background="new 0 0 512 512" height="512" viewBox="0 0 512 512" width="512" xmlns="http://www.w3.org/2000/svg"><g><g><path d="m436 512c-6.456 0-12.188-4.132-14.23-10.257l-30-90c-1.524-4.574-.758-9.603 2.062-13.514 2.818-3.912 7.347-6.229 12.168-6.229h60c4.821 0 9.35 2.317 12.169 6.229 2.819 3.911 3.586 8.939 2.062 13.514l-30 90c-2.043 6.125-7.775 10.257-14.231 10.257z" fill="#ffc3aa"/><path d="m466 392h-30v120c6.456 0 12.188-4.132 14.23-10.257l30-90c1.524-4.574.758-9.603-2.062-13.514-2.819-3.912-7.347-6.229-12.168-6.229z" fill="#faaa8c"/><path d="m466 162h-60c-8.284 0-15 6.716-15 15v230h90v-230c0-8.284-6.716-15-15-15z" fill="#8bb9ff"/><path d="m466 162h-30v245h45v-230c0-8.284-6.716-15-15-15z" fill="#4793ff"/><path d="m436 82c-24.813 0-45 20.187-45 45v50h90v-50c0-24.813-20.187-45-45-45z" fill="#ffe278"/><path d="m481 177v-50c0-24.813-20.187-45-45-45v95z" fill="#ffb454"/></g><g><path d="m306 0h-220c-30.327 0-55 24.673-55 55v402c0 30.327 24.673 55 55 55h220c30.327 0 55-24.673 55-55v-402c0-30.327-24.673-55-55-55z" fill="#e1f0ff"/><path d="m306 0h-110v512h110c30.327 0 55-24.673 55-55v-402c0-30.327-24.673-55-55-55z" fill="#bedcf0"/><path d="m61 92h270v290h-270z" fill="#5e54ac"/><path d="m226 462h-60c-8.284 0-15-6.716-15-15s6.716-15 15-15h60c8.284 0 15 6.716 15 15s-6.716 15-15 15z" fill="#5e54ac"/><circle cx="286" cy="447" fill="#453d81" r="15"/><circle cx="106" cy="447" fill="#5e54ac" r="15"/><path d="m196 92h135v290h-135z" fill="#453d81"/><path d="m226 432h-30v30h30c8.284 0 15-6.716 15-15s-6.716-15-15-15z" fill="#453d81"/><path d="m286 212h-180c-8.284 0-15-6.716-15-15v-60c0-8.284 6.716-15 15-15h180c8.284 0 15 6.716 15 15v60c0 8.284-6.716 15-15 15z" fill="#ffe278"/><path d="m286 272h-180c-8.284 0-15-6.716-15-15s6.716-15 15-15h180c8.284 0 15 6.716 15 15s-6.716 15-15 15z" fill="#e1f0ff"/><path d="m286 332h-180c-8.284 0-15-6.716-15-15s6.716-15 15-15h180c8.284 0 15 6.716 15 15s-6.716 15-15 15z" fill="#e1f0ff"/><path d="m286 122h-90v90h90c8.284 0 15-6.716 15-15v-60c0-8.284-6.716-15-15-15z" fill="#ffb454"/><g fill="#bedcf0"><path d="m286 242h-90v30h90c8.284 0 15-6.716 15-15s-6.716-15-15-15z"/><path d="m286 302h-90v30h90c8.284 0 15-6.716 15-15s-6.716-15-15-15z"/></g></g></g></svg>