<svg id="Capa_1" enable-background="new 0 0 512 512" height="512" viewBox="0 0 512 512" width="512" xmlns="http://www.w3.org/2000/svg"><g><path d="m466 192h-420c-8.284 0-15 6.716-15 15v290h450v-290c0-8.284-6.716-15-15-15z" fill="#ff6378"/><path d="m466 192h-210v305h225v-290c0-8.284-6.716-15-15-15z" fill="#d0004f"/><path d="m496 222h-480c-5.948 0-11.335-3.515-13.73-8.96s-1.347-11.791 2.673-16.176l55-60c2.841-3.099 6.852-4.864 11.057-4.864h370c4.205 0 8.216 1.765 11.058 4.864l55 60c4.02 4.385 5.068 10.731 2.673 16.176s-7.783 8.96-13.731 8.96z" fill="#ffe278"/><path d="m452.058 136.864c-2.842-3.1-6.853-4.864-11.058-4.864h-185v90h240c5.948 0 11.335-3.515 13.73-8.96s1.347-11.791-2.673-16.176z" fill="#ffb454"/><path d="m186 342h-80c-8.284 0-15 6.716-15 15v140h110v-140c0-8.284-6.716-15-15-15z" fill="#d0004f"/><path d="m121 372h50v125h-50z" fill="#e1f0ff"/><path d="m496 512h-480c-8.284 0-15-6.716-15-15s6.716-15 15-15h480c8.284 0 15 6.716 15 15s-6.716 15-15 15z" fill="#5e54ac"/><path d="m496 482h-240v30h240c8.284 0 15-6.716 15-15s-6.716-15-15-15z" fill="#453d81"/><path d="m171 207v37.5c0 23.472 19.028 42.5 42.5 42.5 23.472 0 42.5-19.028 42.5-42.5v-37.5z" fill="#e1f0ff"/><path d="m1 207v37.5c0 23.472 19.028 42.5 42.5 42.5 23.472 0 42.5-19.028 42.5-42.5v-37.5z" fill="#e1f0ff"/><path d="m86 207v37.5c0 23.472 19.028 42.5 42.5 42.5 23.472 0 42.5-19.028 42.5-42.5v-37.5z" fill="#ffb454"/><path d="m256 207v37.5c0 23.472 19.028 42.5 42.5 42.5 23.472 0 42.5-19.028 42.5-42.5v-37.5z" fill="#ec8600"/><path d="m511 207h-85v37.5c0 23.472 19.028 42.5 42.5 42.5 23.472 0 42.5-19.028 42.5-42.5z" fill="#ec8600"/><path d="m341 207v37.5c0 23.472 19.028 42.5 42.5 42.5 23.472 0 42.5-19.028 42.5-42.5v-37.5z" fill="#bedcf0"/><circle cx="326" cy="445" fill="#bedcf0" r="15"/><path d="m410.853 375.147c-3.839 0-7.678-1.464-10.606-4.394-40.939-40.939-107.553-40.939-148.492 0-5.857 5.858-15.355 5.858-21.213 0s-5.858-15.355 0-21.213c52.637-52.637 138.281-52.637 190.918 0 5.858 5.858 5.858 15.355 0 21.213-2.93 2.93-6.769 4.394-10.607 4.394z" fill="#e1f0ff"/><path d="m368.427 417.574c-3.839 0-7.678-1.464-10.606-4.394-17.547-17.545-46.094-17.545-63.641 0-5.857 5.858-15.355 5.858-21.213 0s-5.858-15.355 0-21.213c29.242-29.243 76.824-29.243 106.066 0 5.858 5.858 5.858 15.355 0 21.213-2.929 2.929-6.767 4.394-10.606 4.394z" fill="#bedcf0"/><path d="m296 162h-80c-41.355 0-75-33.645-75-75v-72c0-8.284 6.716-15 15-15h200c8.284 0 15 6.716 15 15v72c0 41.355-33.645 75-75 75z" fill="#e1f0ff"/><path d="m386 105h-30c-8.284 0-15-6.716-15-15s6.716-15 15-15h30c8.271 0 15-6.729 15-15s-6.729-15-15-15h-30c-8.284 0-15-6.716-15-15s6.716-15 15-15h30c24.813 0 45 20.187 45 45s-20.187 45-45 45z" fill="#8fbfdd"/><g fill="#bedcf0"><path d="m356 0h-100v162h40c41.355 0 75-33.645 75-75v-72c0-8.284-6.716-15-15-15z"/><path d="m421.459 349.541c-44.809-44.81-113.535-51.464-165.459-19.981v37.181c41.176-36.876 104.692-35.541 144.246 4.013 2.929 2.929 6.768 4.394 10.606 4.394s7.678-1.464 10.606-4.394c5.859-5.858 5.859-15.356.001-21.213z"/></g></g></svg>