<svg id="Capa_1" enable-background="new 0 0 512 512" height="512" viewBox="0 0 512 512" width="512" xmlns="http://www.w3.org/2000/svg"><g><g><path d="m336.713 487.629-8.766-10.956c-18.021-22.528-27.947-50.823-27.947-79.673 0-8.284-6.716-15-15-15h-100c-8.284 0-15 6.716-15 15 0 28.85-9.926 57.145-27.947 79.673l-8.766 10.957c-3.603 4.502-4.305 10.671-1.807 15.868h207.04c2.498-5.197 1.795-11.366-1.807-15.869z" fill="#453d81"/><path d="m327.947 476.673c-18.021-22.528-27.947-50.823-27.947-79.673 0-8.284-6.716-15-15-15h-50v121.498h103.52c2.498-5.197 1.796-11.366-1.807-15.868z" fill="#2e2654"/><path d="m355 512h-240c-8.284 0-15-6.716-15-15s6.716-15 15-15h240c8.284 0 15 6.716 15 15s-6.716 15-15 15z" fill="#5e54ac"/><path d="m355 482h-120v30h120c8.284 0 15-6.716 15-15s-6.716-15-15-15z" fill="#453d81"/><path d="m425 60h-380c-24.813 0-45 20.187-45 45v262c0 24.813 20.187 45 45 45h380c24.813 0 45-20.187 45-45v-262c0-24.813-20.187-45-45-45z" fill="#5e54ac"/><path d="m425 60h-190v352h190c24.813 0 45-20.187 45-45v-262c0-24.813-20.187-45-45-45z" fill="#453d81"/><path d="m45 90h380c8.271 0 15 6.729 15 15v215h-410v-215c0-8.271 6.729-15 15-15z" fill="#ff6378"/><path d="m425 90h-190v230h205v-215c0-8.271-6.729-15-15-15z" fill="#d0004f"/></g><g><path d="m497 260h-390c-8.284 0-15-6.716-15-15v-230c0-8.284 6.716-15 15-15h390c8.284 0 15 6.716 15 15v230c0 8.284-6.716 15-15 15z" fill="#e1f0ff"/><path d="m497 0h-195v260h195c8.284 0 15-6.716 15-15v-230c0-8.284-6.716-15-15-15z" fill="#bedcf0"/><path d="m332 215h-55c-8.284 0-15-6.716-15-15v-65h70c8.284 0 15 6.716 15 15v50c0 8.284-6.716 15-15 15z" fill="#ff6378"/><path d="m332 135h-30v80h30c8.284 0 15-6.716 15-15v-50c0-8.284-6.716-15-15-15z" fill="#d0004f"/><path d="m207 215h-55c-8.284 0-15-6.716-15-15v-90c0-8.284 6.716-15 15-15h70v105c0 8.284-6.716 15-15 15z" fill="#ffe278"/><path d="m452 135h-60c-8.284 0-15-6.716-15-15s6.716-15 15-15h60c8.284 0 15 6.716 15 15s-6.716 15-15 15z" fill="#453d81"/><path d="m452 75h-60c-8.284 0-15-6.716-15-15s6.716-15 15-15h60c8.284 0 15 6.716 15 15s-6.716 15-15 15z" fill="#453d81"/><path d="m277 215h-70v-155c0-8.284 6.716-15 15-15h40c8.284 0 15 6.716 15 15z" fill="#45f6ff"/></g></g></svg>