<svg id="Capa_1" enable-background="new 0 0 512 512" height="512" viewBox="0 0 512 512" width="512" xmlns="http://www.w3.org/2000/svg"><g><g><path d="m206 452h-80c-8.284 0-15-6.716-15-15v-101.864c0-8.274 6.7-14.986 14.975-15l80-.136h.025c3.974 0 7.785 1.576 10.598 4.385 2.818 2.813 4.402 6.633 4.402 10.615v102c0 8.284-6.716 15-15 15z" fill="#bedcf0"/><path d="m206 320c-.008 0-.018 0-.025 0l-39.975.068v131.932h40c8.284 0 15-6.716 15-15v-102c0-3.982-1.584-7.802-4.402-10.615-2.813-2.809-6.624-4.385-10.598-4.385z" fill="#8fbfdd"/><path d="m276 512h-220c-8.284 0-15-6.716-15-15v-20c0-30.327 24.673-55 55-55h140c30.327 0 55 24.673 55 55v20c0 8.284-6.716 15-15 15z" fill="#e1f0ff"/><path d="m236 422h-70v90h110c8.284 0 15-6.716 15-15v-20c0-30.327-24.673-55-55-55z" fill="#bedcf0"/><path d="m226 350h-120c-41.355 0-75-33.645-75-75v-140c0-74.439 60.561-135 135-135s135 60.561 135 135v140c0 41.355-33.645 75-75 75z" fill="#e1f0ff"/><path d="m226 350c41.355 0 75-33.645 75-75v-140c0-74.439-60.561-135-135-135v350z" fill="#bedcf0"/><path d="m226 280h-120c-8.284 0-15-6.716-15-15s6.716-15 15-15h120c8.284 0 15 6.716 15 15s-6.716 15-15 15z" fill="#5e54ac"/><path d="m226 250h-60v30h60c8.284 0 15-6.716 15-15s-6.716-15-15-15z" fill="#453d81"/><circle cx="166" cy="135" fill="#5e54ac" r="75"/><path d="m241 135c0-41.355-33.645-75-75-75v150c41.355 0 75-33.645 75-75z" fill="#453d81"/><circle cx="166" cy="135" fill="#45f6ff" r="45"/><path d="m211 135c0-24.813-20.187-45-45-45v90c24.813 0 45-20.187 45-45z" fill="#2ebeef"/><circle cx="166" cy="135" fill="#ff6378" r="15"/><path d="m181 135c0-8.284-6.716-15-15-15v30c8.284 0 15-6.716 15-15z" fill="#d0004f"/></g><g fill="#bedcf0"><circle cx="346.057" cy="110" r="15"/><path d="m430.909 209.853c-3.839 0-7.678-1.464-10.606-4.394-5.858-5.857-5.858-15.355 0-21.213 19.796-19.796 30.697-46.163 30.697-74.246s-10.901-54.45-30.697-74.246c-5.858-5.857-5.858-15.355 0-21.213 5.857-5.857 15.355-5.857 21.213 0 25.462 25.461 39.484 59.362 39.484 95.459s-14.022 69.998-39.484 95.459c-2.929 2.929-6.769 4.394-10.607 4.394z"/><path d="m388.483 167.427c-3.839 0-7.678-1.465-10.606-4.394-5.858-5.857-5.858-15.355 0-21.213 17.546-17.546 17.546-46.095 0-63.641-5.858-5.857-5.858-15.355 0-21.213 5.857-5.857 15.355-5.857 21.213 0 29.243 29.242 29.243 76.824 0 106.066-2.929 2.93-6.768 4.395-10.607 4.395z"/></g></g></svg>