<svg id="Capa_1" enable-background="new 0 0 512 512" height="512" viewBox="0 0 512 512" width="512" xmlns="http://www.w3.org/2000/svg"><g><path d="m467 512h-422c-24.813 0-45-20.187-45-45v-422c0-24.813 20.187-45 45-45h422c24.813 0 45 20.187 45 45v422c0 24.813-20.187 45-45 45z" fill="#8bb9ff"/><path d="m467 0h-211v512h211c24.813 0 45-20.187 45-45v-422c0-24.813-20.187-45-45-45z" fill="#4793ff"/><path d="m256 456c-110.28 0-200-89.72-200-200s89.72-200 200-200 200 89.72 200 200-89.72 200-200 200z" fill="#e1f0ff"/><path d="m456 256c0-110.28-89.72-200-200-200v400c110.28 0 200-89.72 200-200z" fill="#bedcf0"/><path d="m316 271h-120c-8.284 0-15-6.716-15-15s6.716-15 15-15h120c8.284 0 15 6.716 15 15s-6.716 15-15 15z" fill="#8bb9ff"/><path d="m316 241h-60v30h60c8.284 0 15-6.716 15-15s-6.716-15-15-15z" fill="#4793ff"/><path d="m306.005 311c-3.958 0-7.857-1.565-10.75-4.534-4.556-4.677-5.562-11.764-2.49-17.525 3.756-7.044 8.235-18.477 8.235-32.941 0-7.983-1.429-20.179-8.235-32.941-3.072-5.761-2.065-12.848 2.49-17.525s11.613-5.871 17.453-2.95l80 40c5.082 2.541 8.292 7.734 8.292 13.416s-3.21 10.875-8.292 13.417l-80 40c-2.132 1.065-4.428 1.583-6.703 1.583z" fill="#4793ff"/><path d="m205.995 311c-2.276 0-4.57-.518-6.703-1.584l-80-40c-5.082-2.541-8.292-7.734-8.292-13.416s3.21-10.875 8.292-13.417l80-40c5.841-2.919 12.898-1.726 17.453 2.95 4.556 4.677 5.562 11.764 2.49 17.525-6.806 12.763-8.235 24.959-8.235 32.942 0 14.464 4.479 25.897 8.235 32.941 3.072 5.761 2.065 12.848-2.49 17.525-2.891 2.97-6.793 4.534-10.75 4.534z" fill="#8bb9ff"/></g></svg>