<svg id="Capa_1" enable-background="new 0 0 512 512" height="512" viewBox="0 0 512 512" width="512" xmlns="http://www.w3.org/2000/svg"><g><path d="m467 512h-422c-24.813 0-45-20.187-45-45v-332c0-8.284 6.716-15 15-15h482c8.284 0 15 6.716 15 15v332c0 24.813-20.187 45-45 45z" fill="#e1f0ff"/><path d="m497 120h-241v392h211c24.813 0 45-20.187 45-45v-332c0-8.284-6.716-15-15-15z" fill="#bedcf0"/><path d="m467 0h-422c-24.813 0-45 20.187-45 45v90h512v-90c0-24.813-20.187-45-45-45z" fill="#5e54ac"/><path d="m467 0h-211v135h256v-90c0-24.813-20.187-45-45-45z" fill="#453d81"/><path d="m181 372h-120c-8.284 0-15-6.716-15-15v-20c0-41.355 33.645-75 75-75s75 33.645 75 75v20c0 8.284-6.716 15-15 15z" fill="#8bb9ff"/><path d="m121 262c-.335 0-.666.021-1 .025v109.975h61c8.284 0 15-6.716 15-15v-20c0-41.355-33.645-75-75-75z" fill="#4793ff"/><circle cx="76" cy="67.5" fill="#ff6378" r="15"/><circle cx="136" cy="67.5" fill="#00ff93" r="15"/><circle cx="196" cy="67.5" fill="#ffe278" r="15"/><g fill="#453d81"><path d="m466 212h-180c-8.284 0-15-6.716-15-15s6.716-15 15-15h180c8.284 0 15 6.716 15 15s-6.716 15-15 15z"/><path d="m466 272h-180c-8.284 0-15-6.716-15-15s6.716-15 15-15h180c8.284 0 15 6.716 15 15s-6.716 15-15 15z"/><path d="m466 332h-180c-8.284 0-15-6.716-15-15s6.716-15 15-15h180c8.284 0 15 6.716 15 15s-6.716 15-15 15z"/></g><path d="m466 452h-60c-8.284 0-15-6.716-15-15v-60c0-8.284 6.716-15 15-15h60c8.284 0 15 6.716 15 15v60c0 8.284-6.716 15-15 15z" fill="#ffb454"/><path d="m346 452h-60c-8.284 0-15-6.716-15-15v-60c0-8.284 6.716-15 15-15h60c8.284 0 15 6.716 15 15v60c0 8.284-6.716 15-15 15z" fill="#ffb454"/><path d="m171 432h-110c-8.284 0-15-6.716-15-15s6.716-15 15-15h110c8.284 0 15 6.716 15 15s-6.716 15-15 15z" fill="#5e54ac"/><path d="m121 292c-30.327 0-55-24.673-55-55s24.673-55 55-55 55 24.673 55 55-24.673 55-55 55z" fill="#ffc3aa"/><path d="m121 182c-.335 0-.666.019-1 .025v109.949c.334.006.665.025 1 .025 30.327 0 55-24.673 55-55s-24.673-54.999-55-54.999z" fill="#faaa8c"/></g></svg>