<svg id="Capa_1" enable-background="new 0 0 512 512" height="512" viewBox="0 0 512 512" width="512" xmlns="http://www.w3.org/2000/svg"><g><g><path d="m436 272h-360c-8.284 0-15-6.716-15-15v-182c0-8.284 6.716-15 15-15h360c8.284 0 15 6.716 15 15v182c0 8.284-6.716 15-15 15z" fill="#e1f0ff"/><path d="m436 60h-180v212h180c8.284 0 15-6.716 15-15v-182c0-8.284-6.716-15-15-15z" fill="#bedcf0"/><path d="m406 0h-225c-8.284 0-15 6.716-15 15v60h285v-30c0-24.853-20.147-45-45-45z" fill="#453d81"/><path d="m406 0h-150v75h195v-30c0-24.853-20.147-45-45-45z" fill="#2e2654"/><path d="m106 0c-24.853 0-45 20.147-45 45v30h120v-75z" fill="#ffe278"/><path d="m356 150h-200c-8.284 0-15-6.716-15-15s6.716-15 15-15h200c8.284 0 15 6.716 15 15s-6.716 15-15 15z" fill="#5e54ac"/><path d="m356 210h-200c-8.284 0-15-6.716-15-15s6.716-15 15-15h200c8.284 0 15 6.716 15 15s-6.716 15-15 15z" fill="#5e54ac"/><g fill="#453d81"><path d="m356 120h-100v30h100c8.284 0 15-6.716 15-15s-6.716-15-15-15z"/><path d="m356 180h-100v30h100c8.284 0 15-6.716 15-15s-6.716-15-15-15z"/></g></g><path d="m477 512h-442c-19.299 0-35-15.701-35-35v-200c0-19.299 15.701-35 35-35h442c19.299 0 35 15.701 35 35v200c0 19.299-15.701 35-35 35z" fill="#8bb9ff"/><path d="m477 242h-221v270h221c19.299 0 35-15.701 35-35v-200c0-19.299-15.701-35-35-35z" fill="#4793ff"/><path d="m316 452h-120c-8.284 0-15-6.716-15-15s6.716-15 15-15h120c8.284 0 15 6.716 15 15s-6.716 15-15 15z" fill="#e1f0ff"/><circle cx="436" cy="437" fill="#bedcf0" r="15"/><circle cx="376" cy="437" fill="#bedcf0" r="15"/><g fill="#e1f0ff"><circle cx="136" cy="437" r="15"/><circle cx="76" cy="437" r="15"/><circle cx="196" cy="377" r="15"/></g><circle cx="316" cy="377" fill="#bedcf0" r="15"/><circle cx="256" cy="377" fill="#e1f0ff" r="15"/><circle cx="376" cy="317" fill="#bedcf0" r="15"/><circle cx="136" cy="317" fill="#e1f0ff" r="15"/><circle cx="76" cy="317" fill="#e1f0ff" r="15"/><circle cx="256" cy="317" fill="#e1f0ff" r="15"/><path d="m331 437c0-8.284-6.716-15-15-15h-60v30h60c8.284 0 15-6.716 15-15z" fill="#bedcf0"/><path d="m271 377c0-8.284-6.716-15-15-15v30c8.284 0 15-6.716 15-15z" fill="#bedcf0"/><path d="m271 317c0-8.284-6.716-15-15-15v30c8.284 0 15-6.716 15-15z" fill="#bedcf0"/><circle cx="196" cy="317" fill="#e1f0ff" r="15"/><circle cx="316" cy="317" fill="#bedcf0" r="15"/><path d="m136 392h-60c-8.284 0-15-6.716-15-15s6.716-15 15-15h60c8.284 0 15 6.716 15 15s-6.716 15-15 15z" fill="#e1f0ff"/><path d="m436 392h-60c-8.284 0-15-6.716-15-15s6.716-15 15-15h45v-45c0-8.284 6.716-15 15-15s15 6.716 15 15v60c0 8.284-6.716 15-15 15z" fill="#bedcf0"/></g></svg>