<svg id="Capa_1" enable-background="new 0 0 512 512" height="512" viewBox="0 0 512 512" width="512" xmlns="http://www.w3.org/2000/svg"><g><path d="m437 372c-8.284 0-15-6.716-15-15v-45h-332v45c0 8.284-6.716 15-15 15s-15-6.716-15-15v-60c0-8.284 6.716-15 15-15h362c8.284 0 15 6.716 15 15v60c0 8.284-6.716 15-15 15z" fill="#453d81"/><path d="m437 282h-181v30h166v45c0 8.284 6.716 15 15 15s15-6.716 15-15v-60c0-8.284-6.716-15-15-15z" fill="#2e2654"/><path d="m256 372c-8.284 0-15-6.716-15-15v-122c0-8.284 6.716-15 15-15s15 6.716 15 15v122c0 8.284-6.716 15-15 15z" fill="#5e54ac"/><path d="m271 357v-122c0-8.284-6.716-15-15-15v152c8.284 0 15-6.716 15-15z" fill="#453d81"/><path d="m373.333 250h-234.666c-40.62 0-73.667-33.047-73.667-73.667 0-32.733 21.771-60.964 51.913-70.319-.385-3.452-.579-6.906-.579-10.348-.001-52.75 42.916-95.666 95.666-95.666 28.735 0 55.961 13.188 73.986 35.165 27.146-11.521 59.224-5.802 80.771 15.744 14.181 14.182 21.786 33.563 21.493 53.275 33.492 6.916 58.75 36.639 58.75 72.149 0 40.62-33.047 73.667-73.667 73.667z" fill="#e1f0ff"/><path d="m388.25 104.184c.293-19.711-7.312-39.093-21.493-53.275-21.547-21.546-53.625-27.265-80.771-15.744-8.295-10.114-18.543-18.361-29.986-24.323v239.158h117.333c40.62 0 73.667-33.047 73.667-73.667 0-35.51-25.258-65.233-58.75-72.149z" fill="#bedcf0"/><g><path d="m256 432c-8.284 0-15 6.716-15 15v50h30v-50c0-8.284-6.716-15-15-15z" fill="#453d81"/><path d="m271 497v-50c0-8.284-6.716-15-15-15v65z" fill="#2e2654"/><path d="m281 512h-50c-8.284 0-15-6.716-15-15s6.716-15 15-15h50c8.284 0 15 6.716 15 15s-6.716 15-15 15z" fill="#5e54ac"/><path d="m281 482h-25v30h25c8.284 0 15-6.716 15-15s-6.716-15-15-15z" fill="#453d81"/><g><path d="m316 342h-120c-8.284 0-15 6.716-15 15v75c0 8.284 6.716 15 15 15h120c8.284 0 15-6.716 15-15v-75c0-8.284-6.716-15-15-15z" fill="#45f6ff"/><path d="m331 432v-75c0-8.284-6.716-15-15-15h-60v105h60c8.284 0 15-6.716 15-15z" fill="#2ebeef"/></g><path d="m181 432v15c0 8.284 6.716 15 15 15h120c8.284 0 15-6.716 15-15v-15z" fill="#5e54ac"/><path d="m256 462h60c8.284 0 15-6.716 15-15v-15h-75z" fill="#453d81"/></g><g><path d="m75 432c-8.284 0-15 6.716-15 15v50h30v-50c0-8.284-6.716-15-15-15z" fill="#453d81"/><path d="m90 497v-50c0-8.284-6.716-15-15-15v65z" fill="#2e2654"/><path d="m100 512h-50c-8.284 0-15-6.716-15-15s6.716-15 15-15h50c8.284 0 15 6.716 15 15s-6.716 15-15 15z" fill="#5e54ac"/><path d="m100 482h-25v30h25c8.284 0 15-6.716 15-15s-6.716-15-15-15z" fill="#453d81"/><g><path d="m135 342h-120c-8.284 0-15 6.716-15 15v75c0 8.284 6.716 15 15 15h120c8.284 0 15-6.716 15-15v-75c0-8.284-6.716-15-15-15z" fill="#45f6ff"/><path d="m150 432v-75c0-8.284-6.716-15-15-15h-60v105h60c8.284 0 15-6.716 15-15z" fill="#2ebeef"/></g><path d="m0 432v15c0 8.284 6.716 15 15 15h120c8.284 0 15-6.716 15-15v-15z" fill="#5e54ac"/><path d="m75 462h60c8.284 0 15-6.716 15-15v-15h-75z" fill="#453d81"/></g><g><path d="m437 432c-8.284 0-15 6.716-15 15v50h30v-50c0-8.284-6.716-15-15-15z" fill="#453d81"/><path d="m452 497v-50c0-8.284-6.716-15-15-15v65z" fill="#2e2654"/><path d="m462 512h-50c-8.284 0-15-6.716-15-15s6.716-15 15-15h50c8.284 0 15 6.716 15 15s-6.716 15-15 15z" fill="#5e54ac"/><path d="m462 482h-25v30h25c8.284 0 15-6.716 15-15s-6.716-15-15-15z" fill="#453d81"/><g><path d="m497 342h-120c-8.284 0-15 6.716-15 15v75c0 8.284 6.716 15 15 15h120c8.284 0 15-6.716 15-15v-75c0-8.284-6.716-15-15-15z" fill="#45f6ff"/><path d="m512 432v-75c0-8.284-6.716-15-15-15h-60v105h60c8.284 0 15-6.716 15-15z" fill="#2ebeef"/></g><path d="m362 432v15c0 8.284 6.716 15 15 15h120c8.284 0 15-6.716 15-15v-15z" fill="#5e54ac"/><path d="m437 462h60c8.284 0 15-6.716 15-15v-15h-75z" fill="#453d81"/></g></g></svg>