<svg id="Capa_1" enable-background="new 0 0 512 512" height="512" viewBox="0 0 512 512" width="512" xmlns="http://www.w3.org/2000/svg"><g><path d="m457 131h-402c-30.327 0-55 24.673-55 55v220c0 30.327 24.673 55 55 55h402c30.327 0 55-24.673 55-55v-220c0-30.327-24.673-55-55-55z" fill="#e1f0ff"/><path d="m457 131h-181v330h181c30.327 0 55-24.673 55-55v-220c0-30.327-24.673-55-55-55z" fill="#bedcf0"/><path d="m130 161h292v270h-292z" fill="#ff6378"/><path d="m276 161h146v270h-146z" fill="#d0004f"/><path d="m291 401h-30c-8.284 0-15-6.716-15-15s6.716-15 15-15h30c8.284 0 15 6.716 15 15s-6.716 15-15 15z" fill="#5e54ac"/><path d="m206 401h-30c-8.284 0-15-6.716-15-15s6.716-15 15-15h30c8.284 0 15 6.716 15 15s-6.716 15-15 15z" fill="#5e54ac"/><path d="m376 401h-30c-8.284 0-15-6.716-15-15s6.716-15 15-15h30c8.284 0 15 6.716 15 15s-6.716 15-15 15z" fill="#453d81"/><path d="m291 371h-15v30h15c8.284 0 15-6.716 15-15s-6.716-15-15-15z" fill="#453d81"/><path d="m366 321h-180c-8.284 0-15-6.716-15-15v-30c0-57.897 47.103-105 105-105s105 47.103 105 105v30c0 8.284-6.716 15-15 15z" fill="#8bb9ff"/><path d="m366 321c8.284 0 15-6.716 15-15v-30c0-57.897-47.103-105-105-105v150z" fill="#4793ff"/><path d="m276 201c-41.355 0-75-33.645-75-75s33.645-75 75-75 75 33.645 75 75-33.645 75-75 75z" fill="#ffc3aa"/><path d="m351 126c0-41.355-33.645-75-75-75v150c41.355 0 75-33.645 75-75z" fill="#faaa8c"/><g fill="#5e54ac"><path d="m65 341c-8.284 0-15-6.716-15-15v-60c0-8.284 6.716-15 15-15s15 6.716 15 15v60c0 8.284-6.716 15-15 15z"/><circle cx="65" cy="206" r="15"/><circle cx="65" cy="386" r="15"/></g></g></svg>