<svg xmlns="http://www.w3.org/2000/svg" width="20.161" height="23.52" viewBox="0 0 20.161 23.52">
  <path id="__TEMP__SVG__" d="M13.441.395V2.653H6.72V.395h6.72ZM8.978,14.99V8.27h2.205v6.72H8.978Zm8.978-7.4a9.666,9.666,0,0,1,2.205,6.248,9.721,9.721,0,0,1-2.94,7.14,9.721,9.721,0,0,1-7.14,2.94,9.721,9.721,0,0,1-7.14-2.94A9.69,9.69,0,0,1,0,13.862a9.778,9.778,0,0,1,2.94-7.14,9.677,9.677,0,0,1,7.14-2.967,9.734,9.734,0,0,1,6.3,2.258l1.575-1.627A11.151,11.151,0,0,1,19.53,5.96ZM10.08,21.71a7.5,7.5,0,0,0,5.539-2.31A7.63,7.63,0,0,0,17.9,13.835,7.544,7.544,0,0,0,15.619,8.3,7.539,7.539,0,0,0,10.08,6.012,7.546,7.546,0,0,0,4.541,8.3a7.541,7.541,0,0,0-2.284,5.539A7.627,7.627,0,0,0,4.541,19.4,7.505,7.505,0,0,0,10.08,21.71Z" transform="translate(0 -0.395)" fill="#dc306f"/>
</svg>
