<svg id="lock-solid" xmlns="http://www.w3.org/2000/svg" width="32.94" height="47.385" viewBox="0 0 32.94 47.385">
  <path id="lock-solid-2" data-name="lock-solid" d="M35.448,21.29V14.88A12.279,12.279,0,0,0,23.47,2.36,12.279,12.279,0,0,0,11.492,14.88v6.41H7V46.75a3,3,0,0,0,2.995,3H36.946a3,3,0,0,0,2.995-3V21.29ZM24.967,36.611v4.148H21.973V36.476a3.594,3.594,0,1,1,2.995.135ZM32.454,21.29H14.486V14.88A9.284,9.284,0,0,1,23.47,5.355a9.284,9.284,0,0,1,8.984,9.525Z" transform="translate(-7 -2.36)" fill="#d1d1d1"/>
</svg>
